<svg width="70" height="70" viewBox="0 0 70 70" fill="none" xmlns="http://www.w3.org/2000/svg">
<circle cx="35" cy="35" r="34.5" stroke="#666666"/>
<path d="M11.5956 37.9798C9.43994 37.9798 7.61591 36.4874 7.11844 34.4739C7 34.0475 7.35533 33.6211 7.78173 33.6211H8.56346C8.87141 33.6211 9.13199 33.8106 9.22674 34.0949C9.41625 34.6871 9.79527 35.1845 10.3401 35.4925C10.7191 35.7057 11.1455 35.8241 11.5956 35.8241C12.0457 35.8241 12.4721 35.7057 12.8511 35.4925C13.5381 35.0898 13.9882 34.3791 14.0829 33.5974H14.1303V31.6549L13.7513 31.8444C13.088 32.1997 12.3773 32.3656 11.6193 32.3656C9.08461 32.3656 7 30.3046 7 27.7463C7 25.1879 9.06092 23.127 11.6193 23.127C14.1777 23.127 13.088 23.2928 13.7513 23.6481L14.1303 23.8376C14.1303 23.4349 14.4383 23.127 14.8173 23.127H15.528C15.907 23.127 16.2149 23.4349 16.2149 23.8139V33.4789C16.1439 35.9663 14.0829 37.9561 11.5956 37.9561M11.5956 25.2589C10.198 25.2589 9.08461 26.396 9.08461 27.77C9.08461 29.1439 10.2217 30.281 11.5956 30.281C12.9696 30.281 14.1066 29.1439 14.1066 27.77C14.1066 26.396 12.9696 25.2589 11.5956 25.2589Z" fill="#303B86"/>
<path d="M26.4485 37.9798C24.2928 37.9798 22.4688 36.4874 21.9713 34.4739C21.8529 34.0475 22.2082 33.6211 22.6346 33.6211H23.4163C23.7243 33.6211 23.9849 33.8106 24.0796 34.0949C24.2691 34.6871 24.6481 35.1846 25.193 35.4925C25.572 35.7057 25.9984 35.8241 26.4485 35.8241C26.8986 35.8241 27.325 35.7057 27.704 35.4925C28.2488 35.1846 28.6515 34.6634 28.8174 34.0949C28.9121 33.8106 29.1727 33.6211 29.4806 33.6211H30.2624C30.7125 33.6211 31.0441 34.0475 30.9257 34.4739C30.4282 36.4874 28.6042 37.9798 26.4485 37.9798Z" fill="#50C2C0"/>
<path d="M35.995 31.4178C34.1236 31.252 32.6075 29.7122 32.5128 27.8171C32.4417 26.6801 32.8681 25.6141 33.6735 24.856C34.3842 24.1691 35.3317 23.79 36.303 23.79H39.7142C40.0932 23.79 40.4011 24.098 40.4011 24.477V24.9508C40.4011 25.3298 40.0932 25.6378 39.7142 25.6378H39.6194L39.7852 26.0168C39.9984 26.5142 40.1169 27.0591 40.1169 27.6039C40.1169 29.8307 38.2218 31.6073 35.9713 31.4178M36.3504 25.6615C35.2844 25.6615 34.4079 26.5379 34.4079 27.6039C34.4079 28.6699 35.2844 29.5464 36.3504 29.5464C37.4164 29.5464 38.2928 28.6699 38.2928 27.6039C38.2928 26.5379 37.4164 25.6615 36.3504 25.6615Z" fill="#303B86"/>
<path d="M36.4689 36.4874C34.7159 36.4874 33.2235 35.2793 32.7735 33.6685C32.655 33.2421 32.9867 32.792 33.4367 32.792H33.9579C34.2659 32.792 34.5264 32.9815 34.6212 33.2658C34.7633 33.6922 35.0713 34.0712 35.474 34.3318C35.7582 34.4976 36.1136 34.5923 36.4452 34.5923C36.7769 34.5923 37.1322 34.4976 37.4165 34.3318C37.8192 34.0949 38.1271 33.7159 38.2693 33.2658C38.364 32.9815 38.6246 32.792 38.9325 32.792H39.4537C39.9038 32.792 40.2354 33.2184 40.117 33.6685C39.6669 35.303 38.1982 36.4874 36.4215 36.4874" fill="#FDB817"/>
<path d="M18.9391 22.511C18.5364 22.511 18.2285 22.3926 17.9679 22.1557C17.7073 21.9188 17.5889 21.6108 17.5889 21.2555C17.5889 20.9002 17.7073 20.5922 17.9679 20.3553C18.2285 20.1184 18.5364 20 18.9391 20C19.3418 20 19.6498 20.1184 19.9104 20.3553C20.1709 20.5922 20.2894 20.8765 20.2894 21.2555C20.2894 21.6345 20.1709 21.9188 19.9104 22.1557C19.6498 22.3926 19.3418 22.511 18.9391 22.511Z" fill="#303B86"/>
<path d="M29.7177 22.511C29.315 22.511 29.007 22.3926 28.7465 22.1557C28.4859 21.9188 28.3674 21.6108 28.3674 21.2555C28.3674 20.9002 28.4859 20.5922 28.7465 20.3553C29.007 20.1184 29.315 20 29.7177 20C30.1204 20 30.4284 20.1184 30.6889 20.3553C30.9495 20.5922 31.0679 20.8765 31.0679 21.2555C31.0679 21.6345 30.9495 21.9188 30.6889 22.1557C30.4284 22.3926 30.1204 22.511 29.7177 22.511Z" fill="#303B86"/>
<path d="M17.8733 31.7016V24.6186C17.8733 24.2396 18.1812 23.9316 18.5603 23.9316H19.2946C19.6736 23.9316 19.9816 24.2396 19.9816 24.6186V31.7016C19.9816 32.0806 19.6736 32.3885 19.2946 32.3885H18.5603C18.1812 32.3885 17.8733 32.0806 17.8733 31.7016Z" fill="#303B86"/>
<path d="M42.1067 31.7023V20.687C42.1067 20.308 42.4146 20 42.7937 20H43.528C43.907 20 44.215 20.308 44.215 20.687V31.7023C44.215 32.0813 43.907 32.3892 43.528 32.3892H42.7937C42.4146 32.3892 42.1067 32.0813 42.1067 31.7023Z" fill="#303B86"/>
<path d="M50.161 32.3898C48.8818 32.3898 47.8395 31.987 47.0341 31.1816C46.2286 30.3762 45.8259 29.3813 45.8259 28.1495C45.8259 26.9177 46.2286 25.9464 47.0341 25.1173C47.8395 24.3119 48.8581 23.9092 50.1136 23.9092C51.3691 23.9092 52.4825 24.3593 53.2879 25.2831C53.8801 25.9701 54.2118 26.7755 54.3065 27.6994C54.3302 28.1021 54.0222 28.4337 53.6195 28.4337H48.0053V28.718C48.1 29.405 48.3369 29.9498 48.7396 30.3051C49.1424 30.6605 49.6161 30.85 50.1847 30.85C50.7532 30.85 50.9664 30.7552 51.2743 30.542C51.4402 30.4236 51.606 30.3051 51.7244 30.1393C51.8429 29.9735 52.0561 29.8787 52.2693 29.8787H52.9089C53.5011 29.8787 53.809 30.5657 53.4537 31.0158C53.2405 31.2764 53.0036 31.4896 52.7194 31.6791C51.985 32.1529 51.1322 32.3898 50.2083 32.3898M50.0899 25.4489C49.0713 25.4489 48.3843 25.9938 48.1001 27.0598L48.0053 27.3914H52.1034L52.0324 27.0598C51.9376 26.586 51.7007 26.1833 51.3691 25.899C51.0375 25.5911 50.5874 25.4489 50.0662 25.4489H50.0899Z" fill="#303B86"/>
<path d="M59.4232 32.3885C58.3099 32.3885 57.386 32.1516 56.628 31.6542C56.4148 31.512 56.2016 31.3462 56.0358 31.1567C55.633 30.7066 55.941 29.996 56.5332 29.996H57.1254C57.3386 29.996 57.5755 30.0907 57.694 30.2802C58.0019 30.7066 58.5941 30.9198 59.4232 30.9198C60.6077 30.9198 60.8683 30.446 60.8683 30.067C60.8683 29.688 60.7972 29.6169 60.3945 29.4511C60.1813 29.3564 59.7075 29.2379 58.9258 29.0721C57.7177 28.8115 56.8412 28.4799 56.3674 28.1246C55.9173 27.7692 55.6804 27.2954 55.6804 26.6322C55.6804 25.9689 55.9884 25.1398 56.628 24.666C57.2913 24.1922 58.2151 23.9316 59.3759 23.9316C60.5366 23.9316 61.7684 24.2633 62.3607 24.9503C62.7397 25.4003 62.408 26.0873 61.8395 26.0873H61.1288C60.9393 26.0873 60.7498 25.9926 60.6077 25.8504C60.3945 25.5899 59.9918 25.4003 59.2811 25.4003C58.0967 25.4003 57.8361 25.8741 57.8361 26.2768C57.8361 26.6795 57.9545 26.7032 58.1914 26.798C58.2862 26.8217 58.4757 26.8927 59.139 27.0349C59.2337 27.0349 59.3048 27.0586 59.3285 27.0822C60.7261 27.3902 61.7211 27.7218 62.2896 28.1009C62.8107 28.4325 63.0713 28.9537 63.0713 29.688C63.0713 30.4224 62.7397 31.2041 62.0764 31.6779C61.3894 32.1516 60.4892 32.3885 59.3996 32.3885" fill="#303B86"/>
<path d="M26.4484 32.389C23.9137 32.389 21.8291 30.3281 21.8291 27.7697C21.8291 25.2113 23.89 23.1504 26.4484 23.1504C29.0068 23.1504 27.9171 23.3162 28.5804 23.6715C30.1202 24.477 31.0677 26.0404 31.0677 27.7697C31.0677 29.499 30.6176 30.0912 29.7885 30.9677C28.912 31.8915 27.7276 32.389 26.4484 32.389ZM26.4484 25.2587C25.0508 25.2587 23.9374 26.3958 23.9374 27.7697C23.9374 29.1436 25.0745 30.2807 26.4484 30.2807C27.8224 30.2807 28.9594 29.1436 28.9594 27.7697C28.9594 26.3958 27.8224 25.2587 26.4484 25.2587Z" fill="#303B86"/>
<path d="M43.0305 36.7008C43.0305 37.222 42.6515 37.4589 42.3435 37.4589C42.0355 37.4589 41.9645 37.3404 41.9408 37.2694C41.9408 37.3641 41.846 37.4589 41.7513 37.4589C41.6565 37.4589 41.5618 37.3641 41.5618 37.2694V35.6348C41.5618 35.5401 41.6565 35.4453 41.7513 35.4453C41.846 35.4453 41.9408 35.5401 41.9408 35.6348V36.1086C41.9882 36.0612 42.0829 35.9428 42.3435 35.9428C42.6041 35.9428 43.0305 36.1797 43.0305 36.7008ZM42.6515 36.7008C42.6515 36.4402 42.4619 36.2744 42.2961 36.2744C42.1303 36.2744 41.9408 36.3929 41.9408 36.7008C41.9408 37.0088 42.1066 37.1272 42.2961 37.1272C42.4856 37.1272 42.6515 36.9614 42.6515 36.7008Z" fill="#303B86"/>
<path d="M44.4284 35.9434C44.5231 35.9434 44.5942 36.0144 44.5942 36.1092C44.5942 36.2039 44.5942 36.1566 44.5942 36.1802L43.8598 37.8622C43.8362 37.9332 43.7651 37.9806 43.694 37.9806C43.623 37.9806 43.5282 37.9095 43.5282 37.8148C43.5282 37.72 43.5282 37.7674 43.5282 37.7674L43.6703 37.4121L43.1018 36.2039C43.1018 36.2039 43.1018 36.1566 43.1018 36.1329C43.1018 36.0381 43.1729 35.967 43.2676 35.967C43.3624 35.967 43.3861 36.0144 43.4335 36.0618L43.8598 36.962L44.2626 36.0618C44.2862 35.9907 44.3573 35.9434 44.4284 35.9434Z" fill="#303B86"/>
<path d="M63.9004 34.7814V34.5682C63.9004 34.5445 63.9004 34.4971 63.9004 34.4734C63.9004 34.4971 63.9004 34.5445 63.8767 34.5919L63.8056 34.8051H63.7345L63.6635 34.5919C63.6635 34.5682 63.6635 34.5208 63.6398 34.4971C63.6398 34.5208 63.6398 34.5682 63.6398 34.5919V34.8051H63.545V34.426H63.6872L63.7582 34.6155C63.7582 34.6392 63.7582 34.6629 63.7819 34.7103C63.7819 34.6866 63.7819 34.6392 63.8056 34.6155L63.8767 34.426H63.9951V34.8051C64.0188 34.8051 63.9477 34.8051 63.9477 34.8051L63.9004 34.7814ZM63.4976 34.4023V34.4734H63.3792V34.7814H63.3081V34.4734H63.1897V34.4023H63.4976Z" fill="#862D83"/>
<path d="M55.8225 34.4023H55.1355V37.4345H55.8225V34.4023Z" fill="#00AEEF"/>
<path d="M52.8376 34.4023H52.1506V37.4345H52.8376V34.4023Z" fill="#00AEEF"/>
<path d="M54.7566 34.4023H54.0696V37.4345H54.7566V34.4023Z" fill="#00AEEF"/>
<path d="M54.7564 37.4345H54.0694L52.1506 34.4023H52.8139L54.7564 37.4345Z" fill="#00AEEF"/>
<path d="M47.0576 36.9141C46.5128 36.9141 46.0864 36.4877 46.0864 35.9429C46.0864 35.398 46.5128 34.9716 47.0576 34.9716C47.6025 34.9716 48.0289 35.398 48.0289 35.9429C48.0289 36.4877 47.6025 36.9141 47.0576 36.9141ZM47.0576 34.332C46.1811 34.332 45.4468 35.0427 45.4468 35.9429C45.4468 36.843 46.1574 37.5537 47.0576 37.5537C47.9578 37.5537 48.6684 36.843 48.6684 35.9429C48.6684 35.0427 47.9578 34.332 47.0576 34.332Z" fill="#00AEEF"/>
<path d="M49.6635 34.4023H48.9766V37.4345H49.6635V34.4023Z" fill="#00AEEF"/>
<path d="M51.7717 34.4023H51.0847V37.4345H51.7717V34.4023Z" fill="#00AEEF"/>
<path d="M50.0425 36.5106H50.7058L51.7718 34.4023H51.0848L50.0425 36.5106Z" fill="#00AEEF"/>
<path d="M50.7058 36.5106H50.0425L49.0002 34.4023H49.6635L50.7058 36.5106Z" fill="#812990"/>
<path d="M50.3741 35.8242L50.7058 36.5112H50.0425L50.3741 35.8242Z" fill="#008FD4"/>
<path d="M58.6652 35.8947C58.9968 35.8947 59.1863 35.7289 59.1863 35.4683C59.1863 35.1841 58.9968 35.0183 58.6652 35.0183H58.0019V35.8947H58.6652ZM57.3386 34.4023H58.7126C59.0916 34.4023 59.3995 34.5208 59.5891 34.7103C59.7549 34.8761 59.8496 35.113 59.8496 35.3973C59.8496 35.8947 59.5891 36.2027 59.21 36.3448L59.9444 37.4345H59.1627L58.5231 36.4633H58.0019V37.4345H57.3386V34.4023Z" fill="#862D83"/>
<path d="M60.3235 34.4023H60.9868V35.7289L62.2186 34.4023H63.024L61.7922 35.7052L63.0951 37.4345H62.2897L61.3421 36.1553L60.9868 36.5106V37.4345H60.3235V34.4023Z" fill="#862D83"/>
<path d="M63.7583 41.1777H7.63965V41.5094H63.7583V41.1777Z" fill="#292928"/>
<path d="M16.0015 45.2747V46.0801H17.6597V46.9092H16.0015V48.2595H15.054V44.4219H17.9203V45.251H16.0015V45.2747Z" fill="#292928"/>
<path d="M20.8341 47.1221H18.8443C18.9153 47.4063 19.0811 47.6195 19.4602 47.6195C19.8392 47.6195 19.7918 47.5722 19.8629 47.4774H20.7867C20.6209 48.0223 20.1234 48.3539 19.4838 48.3539C18.8443 48.3539 17.9915 47.738 17.9915 46.9089C17.9915 46.0798 18.5837 45.4639 19.4128 45.4639C20.2419 45.4639 20.9526 46.1508 20.8341 47.1221ZM18.8679 46.6009H20.005C19.9576 46.293 19.7681 46.1508 19.4365 46.1508C19.1048 46.1508 18.939 46.3404 18.8443 46.6009H18.8679Z" fill="#292928"/>
<path d="M23.1553 46.3638C22.7053 46.3638 22.421 46.5059 22.2078 46.7191V48.2826H21.2839V45.5347H22.2078V45.8189C22.4447 45.6057 22.7526 45.4873 23.1553 45.4873V46.3638Z" fill="#292928"/>
<path d="M25.856 48.212C25.5717 48.3305 25.2874 48.3541 25.1216 48.3541C24.3873 48.3541 23.9372 47.8804 23.9372 47.1223V46.3169H23.3923V45.5352H23.9372V44.6113H24.861V45.5352H25.7849V46.3169H24.861V47.0986C24.861 47.3829 25.0269 47.5014 25.2874 47.5014C25.548 47.5014 25.6191 47.454 25.7612 47.3829L25.856 48.212Z" fill="#292928"/>
<path d="M26.3059 44.5876C26.3059 44.2796 26.5428 44.0664 26.8507 44.0664C27.1587 44.0664 27.3956 44.2796 27.3956 44.5876C27.3956 44.8955 27.1587 45.1087 26.8507 45.1087C26.5428 45.1087 26.3059 44.8955 26.3059 44.5876ZM27.3008 45.5351V48.283H26.377V45.5351H27.3008Z" fill="#292928"/>
<path d="M28.9356 44.2793V48.2827H28.0117V44.2793H28.9356Z" fill="#292928"/>
<path d="M29.5515 44.5876C29.5515 44.2796 29.7884 44.0664 30.0964 44.0664C30.4043 44.0664 30.6412 44.2796 30.6412 44.5876C30.6412 44.8955 30.4043 45.1087 30.0964 45.1087C29.7884 45.1087 29.5515 44.8955 29.5515 44.5876ZM30.5464 45.5351V48.283H29.6226V45.5351H30.5464Z" fill="#292928"/>
<path d="M33.4363 48.212C33.152 48.3305 32.8678 48.3541 32.7019 48.3541C31.9676 48.3541 31.5175 47.8804 31.5175 47.1223V46.3169H30.9727V45.5352H31.5175V44.6113H32.4414V45.5352H33.3652V46.3169H32.4414V47.0986C32.4414 47.3829 32.6072 47.5014 32.8678 47.5014C33.1283 47.5014 33.1994 47.454 33.3415 47.3829L33.4363 48.212Z" fill="#292928"/>
<path d="M36.9188 45.5352L35.2132 49.5859H34.2656L34.8341 48.2357L33.5076 45.5588H34.4788L35.2605 47.2644L35.9712 45.5588H36.9424L36.9188 45.5352Z" fill="#292928"/>
<path d="M40.9931 46.6955H41.9643C41.8459 47.6904 41.0878 48.3537 40.0455 48.3537C39.0032 48.3537 38.0083 47.5246 38.0083 46.3639C38.0083 45.2031 38.8848 44.374 40.0455 44.374C41.2063 44.374 41.8459 45.0373 41.9643 46.0322H40.9931C40.8983 45.5585 40.543 45.2505 40.0455 45.2505C39.5481 45.2505 38.9795 45.7243 38.9795 46.3402C38.9795 46.9561 39.4059 47.4299 40.0455 47.4299C40.6851 47.4299 40.8983 47.1456 40.9931 46.6481V46.6955Z" fill="#292928"/>
<path d="M45.1625 47.1221H43.1726C43.2437 47.4063 43.4095 47.6195 43.7885 47.6195C44.1676 47.6195 44.1202 47.5722 44.1912 47.4774H45.1151C44.9493 48.0223 44.4518 48.3539 43.8122 48.3539C43.1726 48.3539 42.3198 47.738 42.3198 46.9089C42.3198 46.0798 42.912 45.4639 43.7412 45.4639C44.5703 45.4639 45.2809 46.1508 45.1625 47.1221ZM43.1963 46.6009H44.3334C44.286 46.293 44.0965 46.1508 43.7648 46.1508C43.4332 46.1508 43.2674 46.3404 43.1726 46.6009H43.1963Z" fill="#292928"/>
<path d="M48.4786 46.7194V48.2828H47.5548V46.8615C47.5548 46.4825 47.3653 46.293 47.0573 46.293C46.7494 46.293 46.7257 46.3877 46.5599 46.5536V48.2828H45.636V45.5349H46.5599V45.7244C46.773 45.5586 47.0099 45.4639 47.3179 45.4639C48.0049 45.4639 48.4786 45.9376 48.4786 46.7194Z" fill="#292928"/>
<path d="M51.2268 48.212C50.9425 48.3305 50.6583 48.3541 50.4925 48.3541C49.7581 48.3541 49.308 47.8804 49.308 47.1223V46.3169H48.7632V45.5352H49.308V44.6113H50.2319V45.5352H51.1557V46.3169H50.2319V47.0986C50.2319 47.3829 50.3977 47.5014 50.6583 47.5014C50.9189 47.5014 50.9899 47.454 51.1321 47.3829L51.2268 48.212Z" fill="#292928"/>
<path d="M54.3063 47.1221H52.3164C52.3875 47.4063 52.5533 47.6195 52.9323 47.6195C53.3113 47.6195 53.264 47.5722 53.335 47.4774H54.2589C54.0931 48.0223 53.5956 48.3539 52.956 48.3539C52.3164 48.3539 51.4636 47.738 51.4636 46.9089C51.4636 46.0798 52.0558 45.4639 52.8849 45.4639C53.7141 45.4639 54.4247 46.1508 54.3063 47.1221ZM52.3401 46.6009H53.4772C53.4298 46.293 53.2403 46.1508 52.9086 46.1508C52.577 46.1508 52.4112 46.3404 52.3164 46.6009H52.3401Z" fill="#292928"/>
<path d="M56.6278 46.3638C56.1777 46.3638 55.8934 46.5059 55.6802 46.7191V48.2826H54.7563V45.5347H55.6802V45.8189C55.9171 45.6057 56.2251 45.4873 56.6278 45.4873V46.3638Z" fill="#292928"/>
</svg>
