<svg width="24" height="28" viewBox="0 0 24 28" fill="none" xmlns="http://www.w3.org/2000/svg">
<path d="M11.8884 0C8.07877 0 4.98975 3.08569 4.98975 6.8986C4.98975 10.7115 9.43981 15.8254 11.1911 18.0171C11.5481 18.4641 12.2286 18.4641 12.5855 18.0171C14.3369 15.8254 18.787 9.95761 18.787 6.8986C18.787 3.8396 15.6979 0 11.8884 0ZM11.8884 11.7356C9.14959 11.7356 6.93123 9.51727 6.93123 6.77851C6.93123 4.03975 9.15293 1.82139 11.8884 1.82139C14.6238 1.82139 16.8455 4.04309 16.8455 6.77851C16.8455 9.51393 14.6238 11.7356 11.8884 11.7356Z" fill="white"/>
<path d="M14.5938 6.77824C14.5938 8.27271 13.3829 9.4803 11.8918 9.4803C10.4006 9.4803 9.1897 8.26937 9.1897 6.77824C9.1897 5.2871 10.4006 4.07617 11.8918 4.07617C13.3829 4.07617 14.5938 5.2871 14.5938 6.77824Z" fill="white"/>
<path d="M23.9508 18.7634L22.2095 17.1989C22.1261 17.1255 21.996 17.1822 21.996 17.2923V18.3464H18.2665C17.8995 17.6059 16.7353 17.1022 15.2775 16.8086C15.044 17.1222 14.8138 17.4291 14.5936 17.7193C16.4284 18.0195 17.3691 18.5733 17.3691 18.8568C17.3691 19.1404 15.5043 20.1978 11.8882 20.1978C8.27215 20.1978 6.40739 19.2571 6.40739 18.8568C6.40739 18.4565 7.34811 18.0162 9.18285 17.7193C8.95934 17.4291 8.72917 17.1255 8.49899 16.8086C7.04121 17.1022 5.87699 17.6092 5.51004 18.3464H1.99736V17.2923C1.99736 17.1822 1.86726 17.1255 1.78386 17.1989L0.0425325 18.7634C-0.0141775 18.8135 -0.0141775 18.9035 0.0425325 18.9536L1.78386 20.5181C1.86726 20.5915 1.99736 20.5348 1.99736 20.4247V19.3706H5.51004C6.10049 20.5615 8.75252 21.1452 11.3779 21.2153V25.0282H10.3237C10.2136 25.0282 10.1569 25.1583 10.2303 25.2417L11.7948 26.983C11.8449 27.0397 11.9349 27.0397 11.985 26.983L13.5495 25.2417C13.6229 25.1583 13.5662 25.0282 13.4561 25.0282H12.402V21.2153C15.0273 21.1486 17.6793 20.5615 18.2698 19.3706H22.0026V20.4247C22.0026 20.5348 22.1327 20.5948 22.2161 20.5181L23.9575 18.9536C24.0142 18.9035 24.0142 18.8135 23.9575 18.7634H23.9508Z" fill="white"/>
</svg>
