<svg width="70" height="70" viewBox="0 0 70 70" fill="none" xmlns="http://www.w3.org/2000/svg">
<circle cx="35" cy="35" r="34.5" stroke="#666666"/>
<path d="M49.8443 42.3404C50.5979 42.3404 51.2072 41.9556 51.2072 41.186C51.2072 40.5126 50.5979 40.2721 50.0687 40.1117C49.6358 39.9674 49.251 39.8552 49.251 39.5986C49.251 39.3741 49.4434 39.2138 49.7641 39.2138C50.0848 39.2138 50.4375 39.3421 50.7903 39.5666L51.127 38.9733C50.7422 38.7168 50.2451 38.5564 49.7801 38.5564C49.0586 38.5564 48.4814 38.9733 48.4814 39.6628C48.4814 40.3683 49.0907 40.5927 49.6198 40.7531C50.0527 40.8813 50.4375 40.9775 50.4375 41.2662C50.4375 41.5227 50.2291 41.667 49.8763 41.667C49.5236 41.667 49.0746 41.5227 48.6738 41.2181L48.305 41.7793C48.754 42.132 49.3312 42.3244 49.8603 42.3244M46.3969 42.2763H47.2307V37.2256H46.3969V42.2763ZM44.2644 40.9455C44.2644 41.3944 43.8475 41.7151 43.3024 41.7151C42.7572 41.7151 42.5969 41.5227 42.5969 41.17C42.5969 40.8012 42.9015 40.5927 43.4307 40.5927C43.9598 40.5927 44.056 40.6569 44.2644 40.737V40.9455ZM45.0822 42.2763V40.1117C45.0822 39.1336 44.553 38.5724 43.4788 38.5724C42.4045 38.5724 42.4846 38.7007 42.0838 38.8771L42.3083 39.5505C42.645 39.4062 42.9496 39.326 43.3505 39.326C43.9277 39.326 44.2484 39.5986 44.2484 40.1117V40.1758C43.9598 40.0796 43.6872 40.0315 43.2382 40.0315C42.3884 40.0315 41.7631 40.4164 41.7631 41.2341C41.7631 41.9877 42.3724 42.3725 43.0619 42.3725C43.7513 42.3725 43.9918 42.148 44.2484 41.8434V42.2923H45.0822V42.2763ZM40.1276 42.3404C40.4323 42.3404 40.6728 42.2763 40.8812 42.148V41.4586C40.7209 41.5387 40.5445 41.5868 40.3682 41.5868C40.0795 41.5868 39.9192 41.4586 39.9192 41.1379V39.3421H40.8973V38.6205H39.9192V37.6104H39.0854V38.6205H38.6204V39.3421H39.0854V41.2662C39.0854 42.0679 39.5183 42.3404 40.1437 42.3404H40.1276ZM36.7124 42.2763H37.5462V38.6205H36.7124V42.2763ZM36.6803 38.0594H37.5782V37.2577H36.6803V38.0594ZM33.6339 41.6189C33.0727 41.6189 32.5756 41.1539 32.5756 40.4484C32.5756 39.7429 33.0727 39.2619 33.6339 39.2619C34.195 39.2619 34.6761 39.7269 34.6761 40.4324C34.6761 41.17 34.2111 41.6189 33.6339 41.6189ZM31.7579 43.3827H32.5916V41.7151C32.8482 42.0518 33.233 42.3565 33.8263 42.3565C34.6921 42.3565 35.5259 41.667 35.5259 40.4645C35.5259 39.2459 34.6921 38.5564 33.8263 38.5564C32.9604 38.5564 32.8642 38.8611 32.5916 39.2459V38.6366H31.7579V43.3987V43.3827ZM29.2886 42.3404C30.0422 42.3404 30.6515 41.9556 30.6515 41.186C30.6515 40.5126 30.0422 40.2721 29.5131 40.1117C29.0802 39.9674 28.6954 39.8552 28.6954 39.5986C28.6954 39.3741 28.8878 39.2138 29.2085 39.2138C29.5291 39.2138 29.8819 39.3421 30.2346 39.5666L30.5714 38.9733C30.1865 38.7168 29.6895 38.5564 29.2245 38.5564C28.503 38.5564 27.9257 38.9733 27.9257 39.6628C27.9257 40.3683 28.535 40.5927 29.0642 40.7531C29.4971 40.8813 29.8819 40.9775 29.8819 41.2662C29.8819 41.5227 29.6735 41.667 29.3207 41.667C28.968 41.667 28.519 41.5227 28.1182 41.2181L27.7494 41.7793C28.1983 42.132 28.7755 42.3244 29.3047 42.3244L29.2886 42.3404ZM24.9594 41.6349C24.3021 41.6349 23.8531 41.0898 23.8531 40.4645C23.8531 39.8071 24.286 39.294 24.9594 39.294C25.6329 39.294 26.0818 39.8231 26.0818 40.4645C26.0818 41.1058 25.6489 41.6349 24.9755 41.6349H24.9594ZM24.9434 42.3565C26.0658 42.3565 26.8996 41.4906 26.8996 40.4484C26.8996 39.3902 26.0818 38.5404 24.9594 38.5404C23.8371 38.5404 23.0033 39.4062 23.0033 40.4484C23.0033 41.5067 23.821 42.3565 24.9434 42.3565ZM17.7922 42.2763H18.642V40.24H20.9509V42.2763H21.8007V37.434H20.9509V39.4383H18.642V37.434H17.7922V42.2763Z" fill="#6D6E70"/>
<path d="M30.0427 18.4482H26.7717V32.9911H30.0427V18.4482Z" fill="#00AEEF"/>
<path d="M40.0478 18.4482H36.7769V32.9911H40.0478V18.4482Z" fill="#00AEEF"/>
<path d="M31.7742 28.5497H35.013L40.0157 18.4482H36.7768L31.7742 28.5497Z" fill="#00AEEF"/>
<path d="M35.0291 28.5497H31.7742L26.7876 18.4482H30.0425L35.0291 28.5497Z" fill="#8CC63F"/>
<path d="M33.4096 25.2637L35.013 28.5506H31.7742L33.4096 25.2637Z" fill="#008FD4"/>
<path d="M17.6803 30.4103C15.0988 30.4103 13.0144 28.3099 13.0144 25.7284C13.0144 23.1469 15.0988 21.0304 17.6803 21.0304C20.2618 21.0304 22.3462 23.1309 22.3462 25.7284C22.3462 28.3259 20.2457 30.4103 17.6803 30.4103ZM17.6803 18C13.4313 18 10 21.4473 10 25.7124C10 29.9774 13.4313 33.4247 17.6803 33.4247C21.9293 33.4247 25.3606 29.9774 25.3606 25.7124C25.3606 21.4473 21.9133 18 17.6803 18Z" fill="#00AEEF"/>
<path d="M44.8901 18.4482H41.6191V32.9911H44.8901V18.4482Z" fill="#00AEEF"/>
<path d="M58.9999 18.4482H55.729V32.9911H58.9999V18.4482Z" fill="#00AEEF"/>
<path d="M54.1415 18.4482H50.8706V32.9911H54.1415V18.4482Z" fill="#00AEEF"/>
<path d="M54.1417 32.9911H50.8708L41.6191 18.4482H44.8901L54.1417 32.9911Z" fill="#00AEEF"/>
<path d="M15.3556 50.2125L14.0088 46.2842H14.9067L15.7405 49.2184L16.5903 46.2842H17.4721L16.1413 50.2125H15.3717H15.3556Z" fill="#6D6E70"/>
<path d="M17.905 46.9897V46.2842H18.6747V46.9897H17.905ZM17.905 50.2125V47.3264H18.6747V50.2125H17.905Z" fill="#6D6E70"/>
<path d="M19.3641 49.2664H20.1337C20.1337 49.4107 20.1979 49.5229 20.2941 49.6031C20.3903 49.6672 20.5346 49.7153 20.743 49.7153C20.9515 49.7153 21.0156 49.6833 21.0958 49.6352C21.1759 49.5871 21.224 49.5069 21.224 49.4267C21.224 49.2984 21.0637 49.2022 20.7591 49.1381C20.6308 49.106 20.5346 49.09 20.4544 49.074C20.0856 48.9778 19.8131 48.8655 19.6687 48.7373C19.5244 48.609 19.4443 48.4326 19.4443 48.2081C19.4443 47.9837 19.5565 47.679 19.7649 47.5026C19.9734 47.3263 20.262 47.2461 20.6308 47.2461C20.9996 47.2461 21.3203 47.3263 21.5447 47.5026C21.7692 47.679 21.8814 47.9195 21.8975 48.2242H21.1439C21.1439 48.0959 21.0958 47.9997 20.9996 47.9356C20.9034 47.8714 20.7911 47.8393 20.6308 47.8393C20.4704 47.8393 20.3742 47.8554 20.2941 47.9035C20.2139 47.9516 20.1818 48.0157 20.1818 48.0959C20.1818 48.1761 20.3742 48.3204 20.7591 48.4005C20.8553 48.4166 20.9194 48.4326 20.9675 48.4486C21.3523 48.5449 21.6089 48.6411 21.7532 48.7693C21.8975 48.8976 21.9616 49.074 21.9616 49.3145C21.9616 49.555 21.8494 49.8917 21.6089 50.0681C21.3684 50.2445 21.0477 50.3246 20.5987 50.3246C20.1498 50.3246 19.8932 50.2284 19.6687 50.052C19.4443 49.8757 19.332 49.6191 19.332 49.3145V49.2824L19.3641 49.2664Z" fill="#6D6E70"/>
<path d="M24.3026 49.8439C24.2064 49.9882 24.0782 50.1164 23.9178 50.1806C23.7575 50.2607 23.5811 50.2928 23.3727 50.2928C23.1642 50.2928 22.8756 50.2126 22.7313 50.0523C22.587 49.892 22.5068 49.6675 22.5068 49.3789C22.5068 49.0903 22.587 48.8979 22.7313 48.7535C22.8756 48.6092 23.1322 48.513 23.4849 48.4649C23.5651 48.4649 23.6773 48.4329 23.8056 48.4168C24.1263 48.3687 24.3026 48.2725 24.3026 48.1282C24.3026 47.9839 24.2706 47.9198 24.1904 47.8717C24.1102 47.8236 23.998 47.7915 23.8216 47.7915C23.6453 47.7915 23.549 47.8236 23.4689 47.8877C23.3887 47.9518 23.3406 48.032 23.3406 48.1603V48.2084H22.6191V48.1603C22.6191 47.8717 22.7313 47.6312 22.9398 47.4548C23.1482 47.2784 23.4368 47.1982 23.8056 47.1982C24.1744 47.1982 24.5271 47.2624 24.7356 47.4067C24.944 47.551 25.0562 47.7434 25.0562 48.016V49.6675C25.0562 49.7958 25.0562 49.8759 25.0883 49.9401C25.1204 50.0042 25.1525 50.0523 25.2166 50.0683V50.1966H24.4149C24.3828 50.1485 24.3668 50.0844 24.3507 50.0363C24.3507 49.9721 24.3347 49.908 24.3347 49.8439H24.3026ZM24.3026 48.7856C24.1744 48.8497 24.0301 48.8979 23.8697 48.9299C23.7094 48.962 23.6132 48.978 23.6132 48.978C23.4689 49.0101 23.3887 49.0582 23.3246 49.1223C23.2765 49.1865 23.2444 49.2666 23.2444 49.3628C23.2444 49.459 23.2765 49.5552 23.3406 49.6194C23.4047 49.6835 23.5009 49.7156 23.6132 49.7156C23.8216 49.7156 23.982 49.6514 24.1102 49.5392C24.2225 49.427 24.2866 49.2666 24.2866 49.0582V48.7856H24.3026Z" fill="#6D6E70"/>
<path d="M25.8899 50.2125V46.2842H26.6435V48.3365L27.5574 47.3104H28.4874L27.4773 48.3846L28.5515 50.2125H27.6216L26.9321 48.9779L26.6435 49.2986V50.2125H25.8899Z" fill="#6D6E70"/>
<path d="M29.0647 50.2125V46.2842H29.8343V47.631C29.9466 47.5028 30.0588 47.4066 30.2031 47.3264C30.3474 47.2623 30.5078 47.2302 30.6841 47.2302C30.8605 47.2302 31.0048 47.2623 31.1491 47.3104C31.2934 47.3745 31.4057 47.4547 31.4858 47.5669C31.55 47.6471 31.582 47.7272 31.6141 47.8234C31.6462 47.9196 31.6462 48.064 31.6462 48.2724V50.1965H30.8765V48.6893C30.8765 48.3365 30.8445 48.1121 30.7803 48.0159C30.7162 47.9196 30.604 47.8715 30.4276 47.8715C30.2512 47.8715 30.1069 47.9196 29.9947 48.0319C29.8824 48.1441 29.8343 48.2884 29.8343 48.4808V50.1965H29.0647V50.2125Z" fill="#6D6E70"/>
<path d="M34.1476 49.8439C34.0514 49.9882 33.9231 50.1164 33.7628 50.1806C33.6025 50.2607 33.4261 50.2928 33.2176 50.2928C33.0092 50.2928 32.7206 50.2126 32.5763 50.0523C32.432 49.892 32.3518 49.6675 32.3518 49.3789C32.3518 49.0903 32.432 48.8979 32.5763 48.7535C32.7206 48.6092 32.9771 48.513 33.3299 48.4649C33.4101 48.4649 33.5223 48.4329 33.6506 48.4168C33.9712 48.3687 34.1476 48.2725 34.1476 48.1282C34.1476 47.9839 34.1156 47.9198 34.0354 47.8717C33.9552 47.8236 33.843 47.7915 33.6666 47.7915C33.4902 47.7915 33.394 47.8236 33.3138 47.8877C33.2337 47.9518 33.1856 48.032 33.1856 48.1603V48.2084H32.464V48.1603C32.464 47.8717 32.5763 47.6312 32.7847 47.4548C32.9932 47.2784 33.2818 47.1982 33.6506 47.1982C34.0193 47.1982 34.3721 47.2624 34.5805 47.4067C34.789 47.551 34.9012 47.7434 34.9012 48.016V49.6675C34.9012 49.7958 34.9012 49.8759 34.9333 49.9401C34.9654 50.0042 34.9974 50.0523 35.0616 50.0683V50.1966H34.2599C34.2278 50.1485 34.2118 50.0844 34.1957 50.0363C34.1957 49.9721 34.1797 49.908 34.1797 49.8439H34.1476ZM34.1316 48.7856C34.0033 48.8497 33.859 48.8979 33.6987 48.9299C33.5383 48.962 33.4421 48.978 33.4421 48.978C33.2978 49.0101 33.2176 49.0582 33.1535 49.1223C33.1054 49.1865 33.0733 49.2666 33.0733 49.3628C33.0733 49.459 33.1054 49.5552 33.1695 49.6194C33.2337 49.6835 33.3299 49.7156 33.4421 49.7156C33.6506 49.7156 33.8109 49.6514 33.9392 49.5392C34.0514 49.427 34.1156 49.2666 34.1156 49.0582V48.7856H34.1316Z" fill="#6D6E70"/>
<path d="M35.719 51.3677V47.311H36.4566V47.6959C36.5688 47.5195 36.6971 47.4073 36.8253 47.3271C36.9696 47.2469 37.13 47.2148 37.3064 47.2148C37.6591 47.2148 37.9477 47.3592 38.1722 47.6317C38.3967 47.9203 38.5089 48.2891 38.5089 48.7381C38.5089 49.187 38.3967 49.5718 38.1722 49.8605C37.9477 50.1491 37.6591 50.2934 37.3224 50.2934C36.9857 50.2934 36.9696 50.2613 36.8253 50.1811C36.681 50.101 36.5528 49.9887 36.4726 49.8444V51.3677H35.719ZM37.7393 48.7862C37.7393 48.4976 37.6912 48.2731 37.5789 48.1128C37.4667 47.9524 37.3064 47.8883 37.0979 47.8883C36.8895 47.8883 36.7291 47.9684 36.6329 48.1128C36.5207 48.2731 36.4726 48.4815 36.4726 48.7862C36.4726 49.0908 36.5367 49.2672 36.649 49.4275C36.7612 49.5718 36.9215 49.652 37.13 49.652C37.3384 49.652 37.4827 49.5718 37.595 49.4275C37.7072 49.2832 37.7553 49.0588 37.7553 48.8022L37.7393 48.7862Z" fill="#6D6E70"/>
<path d="M40.8498 49.8439C40.7536 49.9882 40.6253 50.1164 40.465 50.1806C40.3046 50.2607 40.1282 50.2928 39.9198 50.2928C39.7113 50.2928 39.4227 50.2126 39.2784 50.0523C39.1341 49.892 39.054 49.6675 39.054 49.3789C39.054 49.0903 39.1341 48.8979 39.2784 48.7535C39.4227 48.6092 39.6793 48.513 40.032 48.4649C40.1122 48.4649 40.2244 48.4329 40.3527 48.4168C40.6734 48.3687 40.8498 48.2725 40.8498 48.1282C40.8498 47.9839 40.8177 47.9198 40.7375 47.8717C40.6574 47.8236 40.5451 47.7915 40.3687 47.7915C40.1924 47.7915 40.0962 47.8236 40.016 47.8877C39.9358 47.9518 39.8877 48.032 39.8877 48.1603V48.2084H39.1662V48.1603C39.1662 47.8717 39.2784 47.6312 39.4869 47.4548C39.6953 47.2784 39.9839 47.1982 40.3527 47.1982C40.7215 47.1982 41.0742 47.2624 41.2827 47.4067C41.4911 47.551 41.6034 47.7434 41.6034 48.016V49.6675C41.6034 49.7958 41.6034 49.8759 41.6354 49.9401C41.6675 50.0042 41.6996 50.0523 41.7637 50.0683V50.1966H40.962C40.9299 50.1485 40.9139 50.0844 40.8979 50.0363C40.8818 49.9882 40.8818 49.908 40.8818 49.8439H40.8498ZM40.8498 48.7856C40.7215 48.8497 40.5772 48.8979 40.4168 48.9299C40.2565 48.962 40.1603 48.978 40.1603 48.978C40.016 49.0101 39.9358 49.0582 39.8717 49.1223C39.8236 49.1865 39.7915 49.2666 39.7915 49.3628C39.7915 49.459 39.8236 49.5552 39.8877 49.6194C39.9519 49.6835 40.0481 49.7156 40.1603 49.7156C40.3687 49.7156 40.5291 49.6514 40.6574 49.5392C40.7696 49.427 40.8337 49.2666 40.8337 49.0582V48.7856H40.8498Z" fill="#6D6E70"/>
<path d="M43.7037 50.2287C43.6396 50.2287 43.5434 50.2287 43.4472 50.2287C43.351 50.2287 43.2869 50.2287 43.2548 50.2287C42.9662 50.2287 42.7577 50.1806 42.6455 50.0683C42.5333 49.9561 42.4852 49.7316 42.4852 49.4109V47.8396H42.1003V47.2945H42.4852V46.5088H43.2548V47.2945H43.7037V47.8396H43.2548V49.443C43.2548 49.5232 43.2708 49.5713 43.3029 49.5873C43.335 49.6034 43.3991 49.6194 43.5113 49.6194H43.7037V50.1966V50.2287Z" fill="#6D6E70"/>
<path d="M44.2969 50.2128V47.3267H45.0505V47.6634C45.1627 47.5191 45.291 47.4229 45.4353 47.3427C45.5796 47.2786 45.7399 47.2305 45.9323 47.2305C46.253 47.2305 46.4935 47.3106 46.6539 47.487C46.8142 47.6474 46.8944 47.9039 46.8944 48.2406V50.2128H46.1248V48.4651C46.1248 48.2566 46.0927 48.1123 46.0125 48.0161C45.9484 47.9199 45.8361 47.8879 45.6758 47.8879C45.5155 47.8879 45.3551 47.936 45.2429 48.0482C45.1306 48.1604 45.0825 48.3047 45.0825 48.4972V50.2128H44.3129H44.2969Z" fill="#6D6E70"/>
<path d="M49.3798 49.8439C49.2836 49.9882 49.1553 50.1164 48.995 50.1806C48.8346 50.2607 48.6583 50.2928 48.4498 50.2928C48.2414 50.2928 47.9528 50.2126 47.8085 50.0523C47.6642 49.892 47.584 49.6675 47.584 49.3789C47.584 49.0903 47.6642 48.8979 47.8085 48.7535C47.9528 48.6092 48.2093 48.513 48.5621 48.4649C48.6422 48.4649 48.7545 48.4329 48.8827 48.4168C49.2034 48.3687 49.3798 48.2725 49.3798 48.1282C49.3798 47.9839 49.3477 47.9198 49.2676 47.8717C49.1874 47.8236 49.0752 47.7915 48.8988 47.7915C48.7224 47.7915 48.6262 47.8236 48.546 47.8877C48.4659 47.9518 48.4178 48.032 48.4178 48.1603V48.2084H47.6962V48.1603C47.6962 47.8717 47.8085 47.6312 48.0169 47.4548C48.2253 47.2784 48.514 47.1982 48.8827 47.1982C49.2515 47.1982 49.6043 47.2624 49.8127 47.4067C50.0212 47.551 50.1334 47.7434 50.1334 48.016V49.6675C50.1334 49.7958 50.1334 49.8759 50.1655 49.9401C50.1975 50.0042 50.2296 50.0523 50.2937 50.0683V50.1966H49.492C49.46 50.1485 49.4439 50.0844 49.4279 50.0363C49.4119 49.9882 49.4119 49.908 49.4119 49.8439H49.3798ZM49.3638 48.7856C49.2355 48.8497 49.0912 48.8979 48.9308 48.9299C48.7705 48.962 48.6743 48.978 48.6743 48.978C48.53 49.0101 48.4498 49.0582 48.3857 49.1223C48.3376 49.1865 48.3055 49.2666 48.3055 49.3628C48.3055 49.459 48.3376 49.5552 48.4017 49.6194C48.4659 49.6835 48.5621 49.7156 48.6743 49.7156C48.8827 49.7156 49.0431 49.6514 49.1714 49.5392C49.2836 49.427 49.3477 49.2666 49.3477 49.0582V48.7856H49.3638Z" fill="#6D6E70"/>
<path d="M50.9351 50.2128V47.3267H51.6726V47.6474C51.7849 47.5191 51.8971 47.4068 52.0414 47.3427C52.1857 47.2786 52.314 47.2465 52.4904 47.2465C52.6667 47.2465 52.8271 47.2786 52.9553 47.3427C53.0836 47.4068 53.1959 47.5191 53.2921 47.6634C53.3883 47.5191 53.5165 47.4229 53.6448 47.3427C53.7731 47.2625 53.9334 47.2305 54.1098 47.2305C54.3984 47.2305 54.6389 47.3106 54.7993 47.487C54.9596 47.6634 55.0558 47.8879 55.0558 48.1765V50.1968H54.2862V48.3368C54.2862 48.1925 54.2541 48.0803 54.1739 48.0161C54.0938 47.936 53.9976 47.9039 53.8533 47.9039C53.7089 47.9039 53.5807 47.952 53.5005 48.0482C53.4043 48.1444 53.3722 48.2887 53.3722 48.4491V50.1968H52.6186V48.3368C52.6186 48.1925 52.5866 48.0803 52.5064 48.0001C52.4262 47.9199 52.33 47.8879 52.2017 47.8879C52.0735 47.8879 51.9292 47.936 51.849 48.0322C51.7688 48.1284 51.7207 48.2727 51.7207 48.433V50.1807H50.9511L50.9351 50.2128Z" fill="#6D6E70"/>
</svg>
