<svg width="70" height="70" viewBox="0 0 70 70" fill="none" xmlns="http://www.w3.org/2000/svg">
<circle cx="35" cy="35" r="34.5" stroke="#666666"/>
<path d="M10.6181 28.3149C9.22556 28.3149 8.0888 29.4517 8.0888 30.8442C8.0888 32.2368 9.22556 33.3735 10.6181 33.3735C12.0106 33.3735 13.1474 32.2368 13.1474 30.8442C13.1474 29.4517 12.0106 28.3149 10.6181 28.3149ZM10.6181 41.1319C8.44404 41.1319 6.61101 39.6257 6.09946 37.608C5.98579 37.1675 6.32682 36.7412 6.78152 36.7412H7.56305C7.86145 36.7412 8.13143 36.9259 8.23089 37.2243C8.41562 37.8069 8.81348 38.3184 9.36766 38.6453C9.75131 38.8726 10.1776 38.9863 10.6323 38.9863C11.087 38.9863 11.5133 38.8726 11.897 38.6453C12.5932 38.2474 13.0479 37.5369 13.1332 36.7412H13.1758V34.7803L12.7922 34.9792C12.1243 35.3202 11.3996 35.5049 10.6465 35.5049C8.0888 35.5049 6 33.4161 6 30.8584C6 28.3007 8.0888 26.2119 10.6465 26.2119C13.2042 26.2119 12.1243 26.3824 12.7922 26.7377L13.1758 26.9366V26.9082C13.1758 26.5245 13.4884 26.2119 13.8721 26.2119H14.5968C14.9804 26.2119 15.293 26.5245 15.293 26.9082V36.6417C15.2078 39.1426 13.1616 41.1461 10.6465 41.1461L10.6181 41.1319Z" fill="#283C90"/>
<path d="M25.5807 41.131C23.4066 41.131 21.5736 39.6248 21.0621 37.607C20.9484 37.1665 21.2894 36.7402 21.7441 36.7402H22.5257C22.8241 36.7402 23.094 36.925 23.1935 37.2234C23.3782 37.806 23.7761 38.3175 24.3161 38.6443C24.6997 38.8717 25.126 38.9853 25.5807 38.9853C26.0354 38.9853 26.4617 38.8717 26.8453 38.6443C27.3853 38.3317 27.7832 37.8202 27.9679 37.2234C28.0532 36.9392 28.3231 36.7402 28.6357 36.7402H29.4173C29.872 36.7402 30.1988 37.1665 30.0993 37.607C29.5878 39.6248 27.7548 41.131 25.5807 41.131Z" fill="#50C2C0"/>
<path d="M35.5416 28.6979C34.4616 28.6979 33.5806 29.5789 33.5806 30.6588C33.5806 31.7388 34.4616 32.6198 35.5416 32.6198C36.6215 32.6198 37.5025 31.7388 37.5025 30.6588C37.5025 29.5789 36.6215 28.6979 35.5416 28.6979ZM35.2005 34.4954C33.3107 34.3391 31.8045 32.7761 31.705 30.872C31.6481 29.7352 32.0744 28.6553 32.8844 27.888C33.6091 27.2059 34.5469 26.8223 35.5416 26.8223H38.9661C39.3497 26.8223 39.6623 27.1349 39.6623 27.5185V28.0017C39.6623 28.3853 39.3497 28.6979 38.9661 28.6979H38.8666L39.0371 29.0674C39.2645 29.5647 39.3781 30.1189 39.3781 30.6588C39.3781 32.8897 37.4598 34.6801 35.2005 34.4954Z" fill="#283C90"/>
<path d="M35.6835 39.611C33.9073 39.611 32.4153 38.4032 31.9748 36.7691C31.8612 36.3286 32.188 35.9023 32.6569 35.9023H33.1969C33.4953 35.9023 33.7652 36.1013 33.8647 36.3855C34.0068 36.826 34.3194 37.2096 34.7315 37.4512C35.0299 37.6217 35.3709 37.7212 35.7119 37.7212C36.053 37.7212 36.394 37.6359 36.6924 37.4512C37.1045 37.2096 37.4029 36.826 37.5592 36.3855C37.6586 36.1013 37.9144 35.9023 38.227 35.9023H38.767C39.2217 35.9023 39.5627 36.3286 39.449 36.7691C39.0086 38.4032 37.5023 39.611 35.7404 39.611H35.6835Z" fill="#FDB817"/>
<path d="M18.0213 25.5439C17.6235 25.5439 17.3109 25.4303 17.0409 25.1745C16.7851 24.9329 16.6572 24.6345 16.6572 24.2651C16.6572 23.8956 16.7851 23.5972 17.0409 23.3699C17.2967 23.1283 17.6235 23.0146 18.0213 23.0146C18.4192 23.0146 18.746 23.1283 19.0018 23.3699C19.2576 23.6114 19.3712 23.9098 19.3712 24.2651C19.3712 24.6203 19.2434 24.9471 19.0018 25.1887C18.746 25.4303 18.4192 25.5439 18.0213 25.5439Z" fill="#283C90"/>
<path d="M28.8773 25.5439C28.4794 25.5439 28.1668 25.4303 27.8968 25.1745C27.6411 24.9329 27.5132 24.6345 27.5132 24.2651C27.5132 23.8956 27.6411 23.5972 27.8968 23.3699C28.1526 23.1283 28.4794 23.0146 28.8773 23.0146C29.2752 23.0146 29.602 23.1283 29.8578 23.3699C30.1135 23.6114 30.2272 23.9098 30.2272 24.2651C30.2272 24.6203 30.0993 24.9471 29.8578 25.1887C29.602 25.4303 29.2752 25.5439 28.8773 25.5439Z" fill="#283C90"/>
<path d="M16.9556 34.7943V27.6611C16.9556 27.2775 17.2682 26.9648 17.6518 26.9648H18.4049C18.7886 26.9648 19.1012 27.2775 19.1012 27.6611V34.7943C19.1012 35.1779 18.7886 35.4906 18.4049 35.4906H17.6518C17.2682 35.4906 16.9556 35.1779 16.9556 34.7943Z" fill="#283C90"/>
<path d="M41.3533 34.7939V23.6963C41.3533 23.3126 41.6659 23 42.0495 23H42.8026C43.1863 23 43.4989 23.3126 43.4989 23.6963V34.7939C43.4989 35.1776 43.1863 35.4902 42.8026 35.4902H42.0495C41.6659 35.4902 41.3533 35.1776 41.3533 34.7939Z" fill="#283C90"/>
<path d="M49.3816 28.4853C48.3443 28.4853 47.6622 29.0394 47.378 30.1051L47.2928 30.4462H51.4135L51.3425 30.1194C51.243 29.6362 51.0157 29.2384 50.6888 28.94C50.3478 28.6416 49.9073 28.4853 49.3816 28.4853ZM49.4668 35.5048C48.188 35.5048 47.1222 35.0927 46.3123 34.297C45.5024 33.487 45.1045 32.4781 45.1045 31.2419C45.1045 30.0057 45.5024 29.011 46.3123 28.1869C47.108 27.3769 48.1595 26.9648 49.41 26.9648C50.6604 26.9648 51.8114 27.4196 52.6071 28.3432C53.2181 29.0394 53.545 29.8494 53.6302 30.7872C53.6586 31.1851 53.3318 31.5261 52.9339 31.5261H47.2785L47.307 31.8245C47.378 32.5208 47.6196 33.0607 48.0174 33.416C48.4153 33.7854 48.9126 33.9701 49.481 33.9701C50.0494 33.9701 50.2626 33.8707 50.5894 33.6717C50.7599 33.5581 50.9162 33.4302 51.0299 33.2597C51.1578 33.0891 51.3709 32.9897 51.584 32.9897H52.2235C52.8061 32.9897 53.1471 33.6717 52.7634 34.1264C52.5503 34.3822 52.3087 34.6096 52.0245 34.7801C51.2856 35.249 50.4331 35.4906 49.481 35.4906L49.4668 35.5048Z" fill="#283C90"/>
<path d="M58.8025 35.5048C57.6799 35.5048 56.7421 35.249 56.0032 34.7659C55.7759 34.6238 55.5769 34.4533 55.4206 34.2685C55.0085 33.828 55.3212 33.0891 55.9322 33.0891H56.529C56.7563 33.0891 56.9695 33.1886 57.1116 33.3733C57.4242 33.7996 58.0067 34.0128 58.8593 34.0128C60.0529 34.0128 60.3087 33.5439 60.3087 33.146C60.3087 32.7481 60.2519 32.6913 59.8398 32.535C59.6266 32.4497 59.1435 32.3218 58.3478 32.1513C57.1258 31.8813 56.2448 31.5687 55.7616 31.1851C55.3069 30.8298 55.0796 30.3467 55.0796 29.6789C55.0796 29.011 55.3922 28.1869 56.0316 27.7037C56.6853 27.2206 57.6231 26.9648 58.8167 26.9648C60.0103 26.9648 61.2181 27.3059 61.8291 28.0021C62.2128 28.4426 61.886 29.1531 61.2892 29.1531H60.5645C60.3655 29.1531 60.1808 29.0679 60.0387 28.9116C59.8114 28.6558 59.4135 28.4568 58.703 28.4568C57.5094 28.4568 57.2536 28.94 57.2536 29.3378C57.2536 29.7357 57.3815 29.7783 57.6089 29.8636C57.6941 29.892 57.8931 29.9631 58.5609 30.1051C58.6462 30.1194 58.7172 30.1336 58.7599 30.1478C60.1666 30.4604 61.1755 30.8014 61.7581 31.1567C62.2838 31.4977 62.5538 32.0234 62.5538 32.7623C62.5538 33.5012 62.227 34.297 61.5591 34.7659C60.8629 35.249 59.9535 35.4906 58.8593 35.4906L58.8025 35.5048Z" fill="#283C90"/>
<path d="M25.5806 28.3149C24.1881 28.3149 23.0513 29.4517 23.0513 30.8442C23.0513 32.2368 24.1881 33.3735 25.5806 33.3735C26.9731 33.3735 28.1099 32.2368 28.1099 30.8442C28.1099 29.4517 26.9731 28.3149 25.5806 28.3149ZM25.5806 35.5049C23.0229 35.5049 20.9341 33.4161 20.9341 30.8584C20.9341 28.3007 23.0229 26.2119 25.5806 26.2119C28.1383 26.2119 27.0584 26.3824 27.7262 26.7377C29.2751 27.5476 30.2413 29.1249 30.2413 30.8726C30.2413 32.6204 29.7866 33.2172 28.9483 34.084C28.0673 35.0076 26.8737 35.5192 25.5948 35.5192L25.5806 35.5049Z" fill="#283C90"/>
<path d="M41.9073 39.8242C41.9073 39.5542 41.7226 39.3979 41.5379 39.3979C41.3531 39.3979 41.1826 39.5116 41.1826 39.8242C41.1826 40.1368 41.3531 40.2505 41.5379 40.2505C41.7226 40.2505 41.9073 40.0942 41.9073 39.8242ZM42.291 39.8242C42.291 40.3358 41.9073 40.5773 41.5947 40.5773C41.2821 40.5773 41.2253 40.4637 41.1968 40.3926C41.1968 40.4921 41.1116 40.5773 41.0121 40.5773C40.9126 40.5773 40.8274 40.4921 40.8274 40.3926V38.7443C40.8274 38.6448 40.9126 38.5596 41.0121 38.5596C41.1116 38.5596 41.1968 38.6448 41.1968 38.7443V39.2274C41.2395 39.1848 41.3531 39.0711 41.5947 39.0711C41.8363 39.0711 42.291 39.3269 42.291 39.8242Z" fill="#283C90"/>
<path d="M43.6979 39.0713C43.7974 39.0713 43.8684 39.1565 43.8684 39.256C43.8684 39.3555 43.8684 39.2986 43.8684 39.3271L43.1437 41.0322C43.1153 41.089 43.0585 41.1459 42.9874 41.1459C42.9164 41.1459 42.8169 41.0606 42.8169 40.9754C42.8169 40.8901 42.8169 40.9327 42.8169 40.9185L42.959 40.5491L42.4048 39.3413C42.4048 39.3128 42.3906 39.2986 42.3906 39.2702C42.3906 39.185 42.4617 39.0997 42.5611 39.0997C42.6606 39.0997 42.689 39.1423 42.7174 39.1992L43.1437 40.1086L43.5416 39.2134C43.57 39.1423 43.6269 39.0997 43.6979 39.0997V39.0713Z" fill="#283C90"/>
<path d="M62.8949 37.522V37.5789H62.767V37.8915H62.6959V37.5789H62.5823V37.522H62.8949ZM63.2928 37.8915V37.6641C63.2785 37.6357 63.2785 37.5931 63.2785 37.5646C63.2785 37.5931 63.2643 37.6357 63.2501 37.6783L63.1791 37.8915H63.108L63.037 37.6783C63.037 37.6499 63.0228 37.6073 63.0086 37.5646C63.0086 37.5931 63.0086 37.6357 63.0086 37.6641V37.8915H62.9233L62.9517 37.5078H63.0654L63.1365 37.6925C63.1365 37.721 63.1507 37.7494 63.1649 37.792C63.1649 37.7636 63.1791 37.721 63.1933 37.6925L63.2643 37.5078H63.378L63.4064 37.8915H63.3354H63.2928Z" fill="#6D6E71"/>
<path d="M54.4829 40.5775H55.165V37.5225H54.4829V40.5775Z" fill="#00AEEF"/>
<path d="M51.4563 40.5775H52.1526V37.5225H51.4563V40.5775Z" fill="#00AEEF"/>
<path d="M53.4031 40.5775H54.0993V37.5225H53.4031V40.5775Z" fill="#00AEEF"/>
<path d="M54.0993 40.5775H53.403L51.4563 37.5225H52.1526L54.0993 40.5775Z" fill="#00AEEF"/>
<path d="M46.3552 37.4365C45.46 37.4365 44.7354 38.1612 44.7354 39.0564C44.7354 39.9516 45.46 40.6763 46.3552 40.6763C47.2504 40.6763 47.9751 39.9516 47.9751 39.0564C47.9751 38.1612 47.2504 37.4365 46.3552 37.4365ZM46.3552 40.0369C45.8153 40.0369 45.3748 39.5964 45.3748 39.0564C45.3748 38.5164 45.8153 38.076 46.3552 38.076C46.8952 38.076 47.3357 38.5164 47.3357 39.0564C47.3357 39.5964 46.8952 40.0369 46.3552 40.0369Z" fill="#00AEEF"/>
<path d="M48.2876 40.5775H48.9697V37.5225H48.2876V40.5775Z" fill="#00AEEF"/>
<path d="M50.3906 40.5775H51.0727V37.5225H50.3906V40.5775Z" fill="#00AEEF"/>
<path d="M49.3391 39.6397H50.0212L51.0727 37.5225H50.3906L49.3391 39.6397Z" fill="#00AEEF"/>
<path d="M50.0212 39.6397H49.3391L48.2876 37.5225H48.9697L50.0212 39.6397Z" fill="#812990"/>
<path d="M49.6801 38.957L50.0212 39.6391H49.3391L49.6801 38.957Z" fill="#008FD5"/>
<path d="M56.6853 37.5225H58.0778C58.4615 37.5225 58.7599 37.6361 58.973 37.8351C59.1436 38.0056 59.2288 38.2472 59.2288 38.5313C59.2288 39.0287 58.9588 39.3413 58.5752 39.4834L59.3141 40.5775H58.5325L57.8789 39.5971H57.3532V40.5775H56.6853V37.5225ZM58.0352 39.0145C58.362 39.0145 58.5468 38.8439 58.5468 38.5882C58.5468 38.2898 58.3478 38.1477 58.021 38.1477H57.3532V39.0287H58.0352V39.0145Z" fill="#812990"/>
<path d="M59.7119 37.5225H60.3798V38.8582L61.616 37.5225H62.4259L61.1897 38.8155L62.4828 40.5775H61.6728L60.735 39.2844L60.3798 39.6397V40.5775H59.7119V37.5225Z" fill="#812990"/>
<path d="M10.1492 44.7123C10.1492 44.7407 10.1492 44.7833 10.1208 44.8117L9.32506 46.7869C9.28243 46.9147 9.19718 46.9716 9.12613 46.9716C9.05508 46.9716 8.96982 46.9147 8.91298 46.7869L8.30197 45.3233L7.69096 46.7869C7.63413 46.9147 7.56308 46.9716 7.49203 46.9716C7.42098 46.9716 7.33573 46.9147 7.2931 46.7869L6.51158 44.8117C6.51158 44.7833 6.48315 44.7549 6.48315 44.7123C6.48315 44.5844 6.59683 44.4707 6.72472 44.4707C6.8526 44.4707 6.90944 44.5275 6.93786 44.6128L7.50624 46.1901L8.10304 44.5986C8.13146 44.5133 8.21672 44.4707 8.31618 44.4707C8.41565 44.4707 8.50091 44.5133 8.52933 44.5986L9.14034 46.1901L9.70872 44.6128C9.73714 44.5275 9.8224 44.4707 9.92186 44.4707C10.0213 44.4707 10.1634 44.5702 10.1634 44.7123H10.1492Z" fill="#28388E"/>
<path d="M10.888 45.7348C10.888 46.2037 11.229 46.5306 11.5984 46.5306C11.9679 46.5306 12.3089 46.2179 12.3089 45.7348C12.3089 45.2517 11.9821 44.9391 11.5984 44.9391C11.2148 44.9391 10.888 45.2517 10.888 45.7348ZM12.8347 45.7348C12.8347 46.4737 12.2237 46.9853 11.6126 46.9853C11.0016 46.9853 10.3906 46.4737 10.3906 45.7348C10.3906 44.9959 11.0016 44.4844 11.6126 44.4844C12.2237 44.4844 12.8347 44.9959 12.8347 45.7348Z" fill="#28388E"/>
<path d="M15.8756 44.7117V46.7153C15.8756 46.8432 15.7619 46.9568 15.634 46.9568C15.5061 46.9568 15.3925 46.8432 15.3925 46.7153V45.6354L14.7815 46.7153C14.7388 46.8005 14.6536 46.8432 14.5683 46.8432C14.4831 46.8432 14.3978 46.8005 14.3552 46.7153L13.7442 45.6354V46.7153C13.7442 46.8432 13.6305 46.9568 13.5026 46.9568C13.3747 46.9568 13.2468 46.8432 13.2468 46.7153V44.7117C13.2468 44.5696 13.3605 44.4844 13.46 44.4844C13.5594 44.4844 13.6731 44.5554 13.7157 44.6407L14.5541 46.1327L15.4067 44.6407C15.4493 44.5554 15.5488 44.4844 15.6624 44.4844C15.7761 44.4844 15.8756 44.5554 15.8756 44.7117Z" fill="#28388E"/>
<path d="M17.8507 46.531C17.9644 46.531 18.0638 46.6305 18.0638 46.7441C18.0638 46.8578 17.9644 46.9573 17.8507 46.9573H16.6145C16.4582 46.9573 16.3445 46.8436 16.3445 46.6873V44.769C16.3445 44.6127 16.4582 44.499 16.6145 44.499H17.8081C17.9217 44.499 18.0212 44.5985 18.0212 44.7122C18.0212 44.8258 17.9217 44.9253 17.8081 44.9253H16.8418V45.5221H17.4528C17.5665 45.5221 17.666 45.6074 17.666 45.7352C17.666 45.8631 17.5665 45.9484 17.4528 45.9484H16.8418V46.5452H17.8365L17.8507 46.531Z" fill="#28388E"/>
<path d="M20.4226 44.7406V46.7583C20.4226 46.9004 20.3231 46.9857 20.2237 46.9857C20.1242 46.9857 20.0247 46.9289 19.9679 46.8436L18.959 45.4226V46.7441C18.959 46.872 18.8453 46.9999 18.7174 46.9999C18.5896 46.9999 18.4617 46.8862 18.4617 46.7441V44.7264C18.4617 44.5843 18.5753 44.499 18.6748 44.499C18.7743 44.499 18.8737 44.5559 18.9306 44.6411L19.911 46.0621V44.7548C19.911 44.6269 20.0247 44.499 20.1668 44.499C20.3089 44.499 20.4084 44.6127 20.4084 44.7548L20.4226 44.7406Z" fill="#28388E"/>
<path d="M24.2309 46.7725C24.2309 46.9431 24.103 46.9715 23.9182 46.9715C23.6483 46.9715 23.5062 46.8152 23.5062 46.5878V46.5594C23.3641 46.8294 23.1083 46.9857 22.7815 46.9857C22.4547 46.9857 21.8721 46.6873 21.8721 46.2042C21.8721 45.721 22.1563 45.5079 22.4405 45.4795L22.1563 44.9537C22.0284 44.7264 22.1847 44.499 22.4405 44.499H23.3783C23.492 44.499 23.5772 44.5843 23.5772 44.698C23.5772 44.8116 23.492 44.8969 23.3783 44.8969H22.5683L22.8952 45.5221C22.9662 45.6358 22.952 45.7779 22.7673 45.7779C22.4405 45.7779 22.341 46.0052 22.341 46.19C22.341 46.3747 22.4973 46.5736 22.7815 46.5736C23.0657 46.5736 23.3499 46.4884 23.3499 46.1473V45.721C23.3499 45.5647 23.4635 45.4511 23.6198 45.4511H23.8898C24.0035 45.4511 24.0888 45.5363 24.0888 45.65C24.0888 45.7637 24.0035 45.8489 23.8898 45.8489H23.833V46.3605C23.833 46.531 23.8898 46.5594 24.0461 46.5452C24.1598 46.5452 24.2451 46.6305 24.2451 46.7441L24.2309 46.7725Z" fill="#28388E"/>
<path d="M27.3 44.6407C27.371 44.6833 27.4136 44.7544 27.4136 44.8396C27.4136 44.9675 27.3 45.0812 27.1721 45.0812C27.0442 45.0812 27.0868 45.0812 27.0442 45.0386C26.9447 44.9817 26.8311 44.9391 26.7316 44.9391C26.3479 44.9391 26.0069 45.2801 26.0069 45.7348C26.0069 46.1895 26.3337 46.5306 26.7316 46.5306C27.1295 46.5306 26.9447 46.4879 27.0442 46.4311C27.0726 46.4027 27.1295 46.3885 27.1721 46.3885C27.3 46.3885 27.4136 46.4879 27.4136 46.63C27.4136 46.7721 27.371 46.7863 27.3 46.8289C27.1152 46.9284 26.9163 46.9853 26.7174 46.9853C26.1064 46.9853 25.4954 46.4737 25.4954 45.7348C25.4954 44.9959 26.0922 44.4844 26.7174 44.4844C27.3426 44.4844 27.1152 44.5412 27.3 44.6407Z" fill="#28388E"/>
<path d="M29.6162 44.499C29.7441 44.499 29.8578 44.6127 29.8578 44.7406V46.7299C29.8578 46.8578 29.7441 46.9715 29.6162 46.9715C29.4883 46.9715 29.3747 46.8578 29.3747 46.7299V45.9484H28.2663V46.7299C28.2663 46.8578 28.1527 46.9715 28.0248 46.9715C27.8969 46.9715 27.7832 46.8578 27.7832 46.7299V44.7406C27.7832 44.6127 27.8969 44.499 28.0248 44.499C28.1527 44.499 28.2663 44.6127 28.2663 44.7406V45.5363H29.3747V44.7406C29.3747 44.6127 29.4883 44.499 29.6162 44.499Z" fill="#28388E"/>
<path d="M30.7813 44.7401V46.7295C30.7813 46.8574 30.6676 46.9853 30.5397 46.9853C30.4118 46.9853 30.2839 46.8716 30.2839 46.7295V44.7401C30.2839 44.6123 30.3976 44.4844 30.5397 44.4844C30.6818 44.4844 30.7813 44.598 30.7813 44.7401Z" fill="#28388E"/>
<path d="M32.6997 46.559C32.8134 46.559 32.8987 46.6442 32.8987 46.7579C32.8987 46.8716 32.8134 46.9568 32.6997 46.9568H31.4919C31.3356 46.9568 31.2219 46.8432 31.2219 46.6869V44.7401C31.2219 44.598 31.3356 44.4844 31.4635 44.4844C31.5914 44.4844 31.7051 44.598 31.7051 44.7401V46.5448H32.6855L32.6997 46.559Z" fill="#28388E"/>
<path d="M34.8879 45.721C34.8879 45.2805 34.5895 44.9111 34.1348 44.9111H33.7796V46.5452H34.1348C34.5753 46.5452 34.8879 46.19 34.8879 45.7068V45.721ZM35.371 45.721C35.371 46.4173 34.7884 46.9573 34.1348 46.9573H33.5522C33.3959 46.9573 33.2822 46.8436 33.2822 46.6873V44.769C33.2822 44.6127 33.3959 44.499 33.5522 44.499H34.1348C34.7884 44.499 35.371 45.039 35.371 45.7068V45.721Z" fill="#28388E"/>
<path d="M36.2805 45.5926H36.6784C36.9341 45.5926 37.1331 45.5216 37.1331 45.2516C37.1331 44.9816 36.9341 44.9106 36.6784 44.9106H36.2805V45.5926ZM37.602 46.7578C37.602 46.8857 37.5025 46.9852 37.3746 46.9852C37.2467 46.9852 37.2325 46.9567 37.1899 46.8999L36.4652 46.0189H36.2805V46.7578C36.2805 46.8857 36.1668 46.9994 36.0389 46.9994C35.911 46.9994 35.7974 46.8857 35.7974 46.7578V44.7827C35.7974 44.6264 35.911 44.5127 36.0673 44.5127H36.7068C37.2467 44.5127 37.602 44.8537 37.602 45.2658C37.602 45.6779 37.3746 45.8768 37.0052 45.9763L37.5451 46.6157C37.5736 46.6583 37.602 46.7152 37.602 46.772V46.7578Z" fill="#28388E"/>
<path d="M39.5204 46.531C39.634 46.531 39.7335 46.6305 39.7335 46.7441C39.7335 46.8578 39.634 46.9573 39.5204 46.9573H38.2841C38.1278 46.9573 38.0142 46.8436 38.0142 46.6873V44.769C38.0142 44.6127 38.1278 44.499 38.2841 44.499H39.4777C39.5914 44.499 39.6909 44.5985 39.6909 44.7122C39.6909 44.8258 39.5914 44.9253 39.4777 44.9253H38.5115V45.5221H39.1225C39.2362 45.5221 39.3356 45.6074 39.3356 45.7352C39.3356 45.8631 39.2362 45.9484 39.1225 45.9484H38.5115V46.5452H39.5062L39.5204 46.531Z" fill="#28388E"/>
<path d="M42.0781 44.7406V46.7583C42.0781 46.9004 41.9786 46.9857 41.8792 46.9857C41.7797 46.9857 41.6802 46.9289 41.6234 46.8436L40.6145 45.4226V46.7441C40.6145 46.872 40.5008 46.9999 40.373 46.9999C40.2451 46.9999 40.1172 46.8862 40.1172 46.7441V44.7264C40.1172 44.5843 40.2309 44.499 40.3303 44.499C40.4298 44.499 40.5293 44.5559 40.5861 44.6411L41.5666 46.0621V44.7548C41.5666 44.6269 41.6802 44.499 41.8223 44.499C41.9644 44.499 42.0639 44.6127 42.0639 44.7548L42.0781 44.7406Z" fill="#28388E"/>
<path d="M42.4474 44.8256L42.49 44.5982C42.5185 44.4846 42.5895 44.4277 42.7032 44.4277H42.8879C43.0442 44.4277 43.1153 44.513 43.03 44.6693L42.9021 44.9109C42.8453 45.0245 42.7742 45.0529 42.6606 45.0529H42.6037C42.4758 45.0529 42.3906 44.9677 42.4332 44.8256H42.4474Z" fill="#28388E"/>
<path d="M44.721 44.7549C44.7494 44.7975 44.7636 44.8402 44.7636 44.897C44.7636 45.0107 44.6784 45.0959 44.5647 45.0959C44.451 45.0959 44.4368 45.0675 44.3942 45.0107C44.3089 44.9254 44.1953 44.897 44.0532 44.897C43.9111 44.897 43.7263 44.9965 43.7263 45.1386C43.7263 45.2806 43.7974 45.3375 44.0247 45.4227L44.1384 45.4512C44.7068 45.6501 44.9057 45.9201 44.9057 46.2611C44.9057 46.6021 44.4084 46.9716 44.0532 46.9716C43.6979 46.9716 43.4706 46.8295 43.2716 46.6163C43.2432 46.5737 43.229 46.5311 43.229 46.4885C43.229 46.3748 43.3285 46.2611 43.4421 46.2611C43.5558 46.2611 43.5842 46.2895 43.6127 46.3464C43.7263 46.4742 43.8826 46.5453 44.0389 46.5453C44.1953 46.5453 44.4226 46.46 44.4226 46.2469C44.4226 46.0338 44.2947 45.9485 44.0105 45.8632L43.8969 45.8348C43.499 45.7069 43.229 45.508 43.229 45.1243C43.229 44.7407 43.5985 44.4707 44.0247 44.4707C44.451 44.4707 44.5221 44.5702 44.6926 44.7407L44.721 44.7549Z" fill="#28388E"/>
<path d="M48.1453 44.499C48.2732 44.499 48.3869 44.6127 48.3869 44.7406V46.7299C48.3869 46.8578 48.2732 46.9715 48.1453 46.9715C48.0174 46.9715 47.9037 46.8578 47.9037 46.7299V45.9484H46.7954V46.7299C46.7954 46.8578 46.6817 46.9715 46.5538 46.9715C46.4259 46.9715 46.3123 46.8578 46.3123 46.7299V44.7406C46.3123 44.6127 46.4259 44.499 46.5538 44.499C46.6817 44.499 46.7954 44.6127 46.7954 44.7406V45.5363H47.9037V44.7406C47.9037 44.6127 48.0174 44.499 48.1453 44.499Z" fill="#28388E"/>
<path d="M49.2823 45.7348C49.2823 46.2037 49.6233 46.5306 49.9928 46.5306C50.3622 46.5306 50.7033 46.2179 50.7033 45.7348C50.7033 45.2517 50.3764 44.9391 49.9928 44.9391C49.6091 44.9391 49.2823 45.2517 49.2823 45.7348ZM51.2148 45.7348C51.2148 46.4737 50.6038 46.9853 49.9928 46.9853C49.3818 46.9853 48.7708 46.4737 48.7708 45.7348C48.7708 44.9959 49.3818 44.4844 49.9928 44.4844C50.6038 44.4844 51.2148 44.9959 51.2148 45.7348Z" fill="#28388E"/>
<path d="M53.0193 44.7549C53.0478 44.7975 53.062 44.8402 53.062 44.897C53.062 45.0107 52.9767 45.0959 52.863 45.0959C52.7494 45.0959 52.7352 45.0675 52.6925 45.0107C52.6073 44.9254 52.4936 44.897 52.3515 44.897C52.2094 44.897 52.0247 44.9965 52.0247 45.1386C52.0247 45.2806 52.0957 45.3375 52.3231 45.4227L52.4368 45.4512C53.0051 45.6501 53.2041 45.9201 53.2041 46.2611C53.2041 46.6021 52.7067 46.9716 52.3515 46.9716C51.9963 46.9716 51.7689 46.8295 51.57 46.6163C51.5416 46.5737 51.5273 46.5311 51.5273 46.4885C51.5273 46.3748 51.6268 46.2611 51.7405 46.2611C51.8542 46.2611 51.8826 46.2895 51.911 46.3464C52.0247 46.4742 52.181 46.5453 52.3373 46.5453C52.4936 46.5453 52.7209 46.46 52.7209 46.2469C52.7209 46.0338 52.5931 45.9485 52.3089 45.8632L52.1952 45.8348C51.7973 45.7069 51.5273 45.508 51.5273 45.1243C51.5273 44.7407 51.8968 44.4707 52.3231 44.4707C52.7494 44.4707 52.8204 44.5702 52.9909 44.7407L53.0193 44.7549Z" fill="#28388E"/>
<path d="M54.9658 45.2521C54.9658 44.9964 54.7669 44.9111 54.5111 44.9111H54.1133V45.5932H54.5111C54.7669 45.5932 54.9658 45.5221 54.9658 45.2521ZM55.4347 45.2521C55.4347 45.6784 55.0795 46.0052 54.5395 46.0052H54.1133V46.7441C54.1133 46.872 53.9996 46.9857 53.8717 46.9857C53.7438 46.9857 53.6301 46.872 53.6301 46.7441V44.769C53.6301 44.6127 53.7438 44.499 53.9001 44.499H54.5395C55.0795 44.499 55.4347 44.8401 55.4347 45.2521Z" fill="#28388E"/>
<path d="M56.3159 44.7401V46.7295C56.3159 46.8574 56.2023 46.9853 56.0744 46.9853C55.9465 46.9853 55.8186 46.8716 55.8186 46.7295V44.7401C55.8186 44.6123 55.9323 44.4844 56.0744 44.4844C56.2165 44.4844 56.3159 44.598 56.3159 44.7401Z" fill="#28388E"/>
<path d="M58.6462 44.7122C58.6462 44.8258 58.5467 44.9253 58.4331 44.9253H57.9215V46.7157C57.9215 46.8578 57.8079 46.9715 57.6658 46.9715C57.5237 46.9715 57.41 46.8578 57.41 46.7157V44.9253H56.8984C56.7848 44.9253 56.6853 44.8258 56.6853 44.7122C56.6853 44.5985 56.7848 44.499 56.8984 44.499H58.4331C58.5467 44.499 58.6462 44.5985 58.6462 44.7122Z" fill="#28388E"/>
<path d="M59.4137 45.9058H59.9678L59.6978 45.2948L59.4279 45.9058H59.4137ZM59.8826 44.6553L60.7778 46.6589C60.7778 46.6873 60.792 46.7157 60.792 46.7583C60.792 46.8862 60.6783 46.9999 60.5504 46.9999C60.4225 46.9999 60.3657 46.9431 60.3373 46.8578L60.0957 46.332H59.2431L59.0016 46.8578C58.9732 46.9431 58.8737 46.9999 58.7884 46.9999C58.7032 46.9999 58.5469 46.9004 58.5469 46.7583C58.5469 46.6162 58.5469 46.6873 58.5611 46.6589L59.4563 44.6553C59.4989 44.5843 59.5557 44.499 59.641 44.499C59.7263 44.499 59.7973 44.5843 59.8399 44.6553H59.8826Z" fill="#28388E"/>
<path d="M62.6675 46.559C62.7812 46.559 62.8664 46.6442 62.8664 46.7579C62.8664 46.8716 62.7812 46.9568 62.6675 46.9568H61.4597C61.3034 46.9568 61.1897 46.8432 61.1897 46.6869V44.7401C61.1897 44.598 61.3034 44.4844 61.4313 44.4844C61.5591 44.4844 61.6728 44.598 61.6728 44.7401V46.5448H62.6533L62.6675 46.559Z" fill="#28388E"/>
</svg>
