<svg width="63" height="63" viewBox="0 0 63 63" fill="none" xmlns="http://www.w3.org/2000/svg">
<path d="M63 49.8012V55.3145H56.5096C56.0059 55.3145 55.5984 55.7376 55.5984 56.2607V63H50.2927V56.2607C50.2927 55.7376 49.884 55.3145 49.3815 55.3145H42.8912V49.8012H49.3815C49.8839 49.8012 50.2927 49.3768 50.2927 48.855V42.1144H55.5984V48.855C55.5984 49.3768 56.0059 49.8012 56.5096 49.8012H63ZM48.4691 47.9076H41.9788C41.4764 47.9076 41.0676 48.3319 41.0676 48.855V56.2607C41.0676 56.335 41.0767 56.408 41.0936 56.4783C39.4925 58.0624 37.3486 58.9545 35.0602 58.9545C32.2276 58.9545 29.6126 57.5826 28.0089 55.27V46.2126C28.0688 46.1572 28.1234 46.0937 28.169 46.022C29.3887 44.0973 31.7058 43.2403 33.9368 43.8877C34.4211 44.0297 34.9248 43.735 35.0602 43.2321C35.1955 42.7293 34.9131 42.2062 34.4288 42.0656C32.1209 41.3952 29.7401 41.9345 28.0089 43.4092V16.7928C28.0375 16.7332 28.0635 16.6724 28.0804 16.6048C28.4124 15.2708 29.235 14.1529 30.3947 13.4596C31.6261 12.723 33.0814 12.5418 34.4952 12.9501C34.9808 13.0906 35.4832 12.7959 35.6172 12.2918C35.7526 11.789 35.4689 11.2673 34.9832 11.1267C33.0958 10.5806 31.142 10.8267 29.4849 11.8201C28.9343 12.1486 28.4409 12.5499 28.0087 13.0082V2.61411C29.2909 0.973185 31.272 0 33.3704 0C35.539 0 37.5592 1.04078 38.8232 2.73572C36.7978 3.23857 35.0964 4.72536 34.3622 6.74599C34.1852 7.23527 34.4234 7.78139 34.8932 7.96522C35 8.00708 35.108 8.02744 35.2148 8.02744C35.5832 8.02744 35.9307 7.79355 36.0687 7.41385C36.7104 5.64594 38.4143 4.45512 40.3135 4.44155C42.6409 4.64164 44.458 6.60286 44.458 8.92355C44.458 9.90084 44.1378 10.8456 43.5508 11.6187C39.3592 12.1931 36.1193 15.802 36.1193 20.1571C36.1193 20.6801 36.5268 21.1032 37.0306 21.1032C37.5343 21.1032 37.9418 20.6801 37.9418 20.1571C37.9418 16.5792 40.7716 13.6462 44.3278 13.442C44.3487 13.4406 44.3709 13.4379 44.3903 13.4379C44.5009 13.4326 44.6116 13.4285 44.7235 13.4285C48.462 13.4285 51.5028 16.4467 51.5028 20.1569C51.5028 21.0423 51.3297 21.9046 50.9899 22.7197C50.8194 23.1306 50.9496 23.6104 51.3011 23.8686C53.0545 25.1541 54.0594 27.1275 54.0594 29.2833C54.0594 29.3927 54.0568 29.4995 54.0517 29.6077C54.0504 29.6334 54.0477 29.659 54.0465 29.6847C54.0413 29.7713 54.0348 29.8564 54.027 29.9415C54.0244 29.9632 54.0218 29.9834 54.0205 30.0037C54.0101 30.1037 53.997 30.2024 53.9827 30.2997C53.9815 30.3038 53.9815 30.3078 53.9801 30.3119C53.4802 33.5369 50.6673 36.0158 47.2816 36.0158C46.7778 36.0158 46.3703 36.4389 46.3703 36.962C46.3703 37.4836 46.7778 37.9081 47.2816 37.9081C49.5804 37.9081 51.6696 36.9972 53.2147 35.5185C53.8538 36.5633 54.2001 37.7703 54.2001 39.0044C54.2001 39.4112 54.1624 39.8194 54.0882 40.2222H49.3812C48.8774 40.2222 48.4686 40.6466 48.4686 41.1684V47.9076H48.4691ZM45.1145 43.2269C45.1314 42.7051 44.7384 42.2673 44.2346 42.2496C42.7585 42.1983 41.3475 42.4901 40.0796 43.0525C40.0509 41.8509 39.7216 40.6696 39.1046 39.6058C38.1154 37.9055 36.5221 36.7079 34.6151 36.2361C34.127 36.1158 33.6336 36.4294 33.5177 36.9377C33.4006 37.4459 33.7025 37.9568 34.1933 38.0771C35.62 38.4312 36.8098 39.3207 37.5439 40.5845C38.1805 41.6807 38.3978 42.9457 38.1713 44.1825C35.9753 45.8546 34.5175 48.4632 34.4159 51.434C34.3976 51.9558 34.7908 52.3951 35.2945 52.4126C35.305 52.414 35.3166 52.414 35.3271 52.414C35.8152 52.414 36.2201 52.0126 36.237 51.5016C36.3815 47.2954 39.9442 43.9946 44.1735 44.1419C44.6824 44.1608 45.0976 43.75 45.1145 43.2269ZM47.58 20.7504C47.58 20.2287 47.1726 19.8042 46.6688 19.8042C46.1663 19.8042 45.7576 20.2286 45.7576 20.7504C45.7576 24.3295 42.9302 27.2639 39.3752 27.4708C39.3584 27.4708 39.3401 27.4722 39.3219 27.4735C39.2073 27.4803 39.0914 27.483 38.9757 27.483C36.7003 27.483 34.5888 26.3583 33.3302 24.4756C33.0426 24.0457 32.475 23.9403 32.0611 24.2377C31.6484 24.5364 31.5456 25.1258 31.8332 25.5555C33.3628 27.8438 35.8724 29.2482 38.6021 29.3658C39.0499 31.8163 41.1886 33.6776 43.7543 33.6776C44.2581 33.6776 44.6655 33.2545 44.6655 32.7314C44.6655 32.2097 44.2581 31.7852 43.7543 31.7852C42.1609 31.7852 40.8203 30.7053 40.4428 29.2469C44.4909 28.5466 47.58 25.0053 47.58 20.7504ZM26.1864 2.61411V17.7822C24.6387 16.9982 22.8254 16.8171 21.1006 17.3185C20.6151 17.4591 20.3326 17.9809 20.468 18.485C20.6033 18.9879 21.1057 19.2824 21.5914 19.1419C23.1963 18.6755 24.8991 18.9932 26.1864 19.9867V55.0522C19.9955 59.1882 15.4251 60.5521 11.8897 54.9697C11.7075 54.6832 11.3886 54.521 11.0579 54.5467C11.0448 54.5479 11.0331 54.5479 11.0202 54.5479C7.26473 54.5642 4.20189 51.5391 4.20189 47.8154C4.20189 47.2775 4.26958 46.7313 4.40236 46.1921C4.51307 45.7474 4.2983 45.2839 3.89342 45.0946C1.52827 43.9891 0 41.5994 0 39.0044C0 37.7703 0.344959 36.5633 0.985438 35.5185C2.52925 36.9972 4.61848 37.9081 6.91866 37.9081C7.42105 37.9081 7.82988 37.4838 7.82988 36.962C7.82988 36.4389 7.42118 36.0158 6.91866 36.0158C3.53293 36.0158 0.718644 33.5369 0.218712 30.3119C0.218712 30.3078 0.217479 30.3038 0.217479 30.2997C0.201822 30.2024 0.19011 30.1037 0.179753 30.0037C0.177164 29.9835 0.174575 29.9632 0.173219 29.9415C0.164096 29.8564 0.157562 29.7713 0.152384 29.6847C0.151027 29.659 0.149795 29.6334 0.148438 29.6077C0.14326 29.4995 0.139315 29.3927 0.139315 29.2833C0.139315 27.1287 1.14423 25.1539 2.89504 23.8686C3.24518 23.6104 3.37537 23.1333 3.20622 22.7238C2.86779 21.9033 2.69729 21.0396 2.69729 20.1571C2.69729 16.4469 5.73806 13.4286 9.47527 13.4286C9.58722 13.4286 9.69781 13.4327 9.80852 13.4381C9.82936 13.4381 9.85155 13.4408 9.87103 13.4422C13.4274 13.6462 16.2572 16.5794 16.2572 20.1572C16.2572 20.6803 16.6659 21.1034 17.1684 21.1034C17.6722 21.1034 18.0796 20.6803 18.0796 20.1572C18.0796 15.8022 14.8396 12.1934 10.6482 11.6188C10.0611 10.8457 9.74096 9.90084 9.74096 8.92368C9.74096 6.60286 11.5569 4.64164 13.8817 4.44168C15.7835 4.45525 17.4887 5.64594 18.1318 7.41526C18.2698 7.79368 18.6161 8.02757 18.9845 8.02757C19.0912 8.02757 19.2005 8.00734 19.306 7.96535C19.7772 7.78152 20.0142 7.23552 19.8371 6.74611C19.1029 4.72537 17.4016 3.23857 15.3748 2.73585C16.64 1.04091 18.6617 0.000127947 20.829 0.000127947C22.9283 -7.03279e-08 24.9082 0.973185 26.1864 2.61411ZM20.6829 36.9377C20.5657 36.4294 20.0737 36.1159 19.5842 36.2361C17.6786 36.7079 16.084 37.9055 15.096 39.6058C14.4777 40.6695 14.1496 41.8495 14.121 43.0511C12.8519 42.4889 11.4421 42.1968 9.9646 42.2496C9.4622 42.2671 9.06768 42.7051 9.08457 43.2269C9.10159 43.75 9.52064 44.1609 10.0258 44.1419C14.2576 43.9933 17.8178 47.2953 17.9623 51.5016C17.9805 52.0126 18.384 52.414 18.8721 52.414C18.8839 52.414 18.8942 52.414 18.9059 52.4126C19.4083 52.3951 19.8015 51.9557 19.7846 51.434C19.6818 48.4617 18.2238 45.8517 16.0279 44.1798C15.8014 42.9445 16.0201 41.6793 16.6565 40.5845C17.3895 39.3207 18.5804 38.4314 20.0071 38.0771C20.4967 37.9568 20.7986 37.4459 20.6829 36.9377ZM15.2234 27.483C15.1075 27.483 14.9918 27.4803 14.8771 27.4735C14.8602 27.4722 14.842 27.4708 14.8237 27.4708C11.2701 27.264 8.44138 24.3296 8.44138 20.7504C8.44138 20.2287 8.03392 19.8042 7.53016 19.8042C7.02641 19.8042 6.61895 20.2286 6.61895 20.7504C6.61895 25.0054 9.70792 28.5466 13.7562 29.2468C13.3787 30.7051 12.0379 31.7851 10.4447 31.7851C9.94229 31.7851 9.53347 32.2095 9.53347 32.7313C9.53347 33.2543 9.94216 33.6774 10.4447 33.6774C13.0103 33.6774 15.1503 31.8162 15.5969 29.3657C18.3226 29.2481 20.8323 27.8437 22.3657 25.5568C22.6534 25.1269 22.5519 24.5377 22.1393 24.239C21.7266 23.9403 21.1578 24.0457 20.8701 24.4742C19.6077 26.3583 17.4962 27.483 15.2234 27.483Z" fill="url(#paint0_linear_2545_65)"/>
<defs>
<linearGradient id="paint0_linear_2545_65" x1="31.5" y1="0" x2="31.5" y2="63" gradientUnits="userSpaceOnUse">
<stop stop-color="#0190D5"/>
<stop offset="1" stop-color="#0F9DCD"/>
</linearGradient>
</defs>
</svg>
