<svg width="38" height="55" viewBox="0 0 38 55" fill="none" xmlns="http://www.w3.org/2000/svg">
<path d="M32.1407 0.767958C32.0524 0.759571 31.9627 0.76378 31.8746 0.781253C31.6985 0.815663 31.5362 0.900566 31.4075 1.02563C30.4195 1.9915 29.4341 3.14888 28.5542 4.05709C27.7152 4.92317 26.935 5.4042 26.7796 5.46206C26.7517 5.41892 26.6934 5.32011 26.6473 5.06236C26.5434 4.48178 26.5646 3.38984 26.666 1.95025C26.7151 1.24666 25.99 0.749351 25.3513 1.04851C25.0103 1.20847 24.7648 1.28591 24.6554 1.2905C24.5462 1.29516 24.5219 1.3235 24.3003 1.09908C23.7271 0.517327 22.7363 0.909879 22.7171 1.72631C22.6787 3.33727 22.6176 4.50047 22.4667 5.20802C22.4138 5.45565 22.3283 5.41257 22.2752 5.54392C22.223 5.39994 22.1715 5.31528 22.1259 5.11172C21.9472 4.31411 21.8511 3.11808 21.7527 1.71307C21.6909 0.853407 20.5902 0.538364 20.0828 1.2351C19.9426 1.42961 19.9652 1.38675 19.8047 1.37596C19.6444 1.36525 19.3352 1.25358 19.0535 1.09906C18.8185 0.971273 18.5397 0.951524 18.289 1.0449C16.6002 1.66457 16.6603 1.45633 15.1046 1.13519L14.2764 0.858305C13.6497 0.649236 13.0122 1.14578 13.0616 1.80457C13.538 8.0293 11.3685 10.8664 8.70223 13.0431C7.36913 14.1315 5.89093 15.0173 4.54754 15.9831C3.20414 16.9488 1.96471 18.0135 1.28131 19.5322C1.27199 19.5485 1.265 19.5649 1.25801 19.5816C0.501805 21.5713 0.799612 24.1239 2.50767 26.2356C3.22925 25.0877 4.20197 24.1301 5.76186 23.1488C7.6059 21.9887 10.4531 20.6882 14.6395 18.8496C14.0886 17.3454 13.8222 15.9907 14.0893 14.8911C14.3982 13.6197 15.0976 12.5908 15.7953 11.5141C17.1906 9.3608 18.7002 7.01061 18.0249 1.87199C17.9809 1.53417 18.2192 1.22468 18.5571 1.18096C18.8936 1.13602 19.2032 1.37183 19.2493 1.70827C19.9636 7.14395 18.2344 10.0136 16.8282 12.1835C16.1251 13.2685 15.5334 14.1839 15.2908 15.1825C15.0637 16.1175 15.1133 17.1712 15.7291 18.663C16.7461 18.5719 17.7427 18.5278 18.6437 18.3584C19.7264 18.1548 20.6224 17.7425 21.3826 16.9293C21.179 15.6507 21.1228 14.5322 21.3966 13.739C21.7104 12.8315 22.3739 12.2199 23.1387 12.0282C24.5351 11.6782 25.9905 12.5843 26.943 13.9858C28.3559 13.4686 30.0697 13.7228 31.8755 14.3084C32.2725 14.4372 32.6731 14.5868 33.0734 14.737C33.0687 14.7333 33.0594 14.7261 33.0547 14.7226C33.3368 13.484 33.4738 12.2682 33.0825 11.4142C32.5899 10.3395 31.851 9.59301 31.4307 8.9799C31.0103 8.3668 30.8694 8.09826 31.1068 7.48345C31.3442 6.86863 32.2139 5.79671 34.2743 4.30631C34.803 3.92496 34.7817 3.13104 34.2333 2.77855C33.7616 2.47761 33.3698 2.31185 33.1956 2.17298C33.0213 2.03411 32.9859 2.03737 32.9777 1.66373C32.9684 1.29576 32.7411 0.968545 32.3998 0.830612C32.3167 0.797088 32.2292 0.776275 32.1407 0.767958ZM23.7374 13.1887C23.6295 13.187 23.5277 13.1981 23.4352 13.2212C23.0652 13.314 22.7687 13.5396 22.5611 14.1398C22.3536 14.74 22.2937 15.7296 22.5844 17.1436C22.6233 17.3309 22.5728 17.5258 22.4484 17.6709C21.4472 18.8235 20.1571 19.3265 18.8716 19.5683C17.5992 19.8075 16.3037 19.8209 15.1238 19.9656C14.7219 20.142 14.3747 20.2982 14.0005 20.464C13.9719 20.5456 13.9264 20.6202 13.8668 20.6831C13.5522 21.0171 13.5195 21.3512 13.7114 21.8702C13.9034 22.3891 14.384 23.0139 15.0634 23.5496C16.4221 24.621 18.5128 25.3226 20.4003 24.7824C20.4023 24.782 20.405 24.7816 20.4073 24.7812C20.8002 24.2889 21.2382 23.7864 21.7232 23.2727C21.7579 23.1648 21.8215 23.0686 21.9075 22.9946C24.2823 21.0691 26.7534 20.1733 29.2562 19.9318C31.759 19.6904 34.2916 20.101 36.7782 20.7878C36.8812 20.8158 36.9639 20.8742 37.0359 20.9431C37.0452 20.8571 37.0452 20.7687 37.0265 20.6783C36.8183 19.6276 36.8681 18.643 37.3359 17.8659C37.3406 17.8573 37.3429 17.848 37.3476 17.8394C37.2963 17.8317 37.2446 17.8285 37.1948 17.8069C35.4743 17.0679 33.3964 16.0995 31.493 15.4822C29.5896 14.8649 27.8901 14.6789 27.0157 15.1595C26.7189 15.3202 26.3481 15.2123 26.1838 14.9175C25.5695 13.8142 24.4927 13.2006 23.7374 13.1887ZM30.9187 21.1394C28.595 21.1466 26.327 21.7021 24.0997 23.0994C28.6511 23.6327 32.4504 26.6642 34.6231 30.2145C34.9171 30.0206 35.1806 29.8034 35.3611 29.5246C35.949 28.6173 36.1937 27.559 36.2581 26.4896C36.3587 24.817 35.9105 23.223 35.5225 21.751C33.963 21.3737 32.4277 21.1348 30.9187 21.1394ZM11.5261 21.5716C9.25557 22.6137 7.61363 23.4413 6.42147 24.1913C4.8293 25.193 4.02306 26.0281 3.38399 27.1638C3.41801 27.1946 3.44806 27.2271 3.48277 27.2577C1.65583 30.0377 1.29906 33.1417 2.12235 36.1221C3.00664 39.3233 5.00251 42.4043 7.37744 45.1358C9.75236 47.8673 12.5129 50.2434 14.9898 51.9704C16.2282 52.8339 17.3973 53.5373 18.4257 54.0411C19.4541 54.545 20.3103 54.8673 21.1237 54.9103C21.1603 54.9125 21.1969 54.9125 21.2332 54.9103C23.3182 54.7829 25.2754 53.4107 27.0758 51.5021C28.8762 49.5934 30.5229 47.0871 31.812 44.4303C33.1011 41.7735 34.0313 38.9744 34.3559 36.4363C34.6295 34.2961 34.3326 32.3915 33.4409 30.867C33.4756 30.8488 33.5108 30.8308 33.5457 30.8128C31.3329 27.1943 27.3572 24.042 22.7298 24.0758C22.0369 25.1791 21.9559 25.9037 22.1338 26.5161C22.3293 27.1883 22.9311 27.8426 23.7398 28.582C25.3574 30.0607 27.7283 31.9149 27.8127 35.4985C27.822 35.839 27.5524 36.122 27.2119 36.1305C26.8719 36.1394 26.5891 35.871 26.5799 35.531C26.5079 32.4685 24.5876 31.0288 22.9067 29.4922C22.0663 28.7239 21.2643 27.9429 20.9504 26.8628C20.8819 26.6272 21.1754 26.2832 21.1647 26.0297C19.8925 27.7553 19.0195 29.3584 18.7617 30.7888C18.6424 31.4507 18.6093 32.0956 18.6305 32.7343C18.6988 32.7835 18.7561 32.8462 18.7992 32.9185C20.442 35.7131 24.6257 38.6553 24.6599 44.3857C24.6612 44.7267 24.3856 45.0039 24.0447 45.0046C23.7038 45.0059 23.4265 44.7303 23.4259 44.3894C23.4012 40.2466 20.9401 37.8162 18.9991 35.3432C19.1016 35.787 19.2176 36.234 19.3446 36.6867C20.4625 40.6715 22.2338 45.1445 19.0713 51.3696C18.9164 51.6722 18.5459 51.7923 18.243 51.6381C17.9405 51.4832 17.8204 51.1127 17.9746 50.8098C20.9498 44.9533 19.303 41.1006 18.1577 37.0178C17.5849 34.9764 17.1308 32.8813 17.5473 30.5708C17.5934 30.3146 17.6528 30.0562 17.7218 29.7955C17.3295 30.2922 17.0976 30.8961 16.8008 31.599C16.2606 32.8782 15.4955 34.4289 13.3299 35.2986C13.0144 35.4248 12.6563 35.2718 12.5293 34.9567C12.403 34.6415 12.5554 34.2836 12.87 34.1561C14.6871 33.4264 15.1405 32.3698 15.6679 31.121C16.1774 29.9146 16.7564 28.4759 18.5055 27.7212C18.7502 27.2226 19.0403 26.715 19.3796 26.1958C17.4645 26.307 15.6168 25.5578 14.2991 24.5188C13.5098 23.8964 12.8994 23.1664 12.5859 22.3746C12.3381 23.1332 11.9224 23.8117 11.4325 24.4321C11.1566 24.7815 10.8558 25.1164 10.544 25.4458C10.353 26.1731 10.3842 26.6216 10.4898 26.9446C10.5955 27.2683 10.7875 27.5016 11.0448 27.7681C11.302 28.0347 11.6328 28.3141 11.8779 28.7553C12.1229 29.1965 12.2116 29.8023 12.0188 30.4613C11.9235 30.7906 11.5778 30.9788 11.2495 30.8803C10.9251 30.7822 10.7407 30.4408 10.8366 30.1158C10.9591 29.6966 10.9058 29.5479 10.7993 29.3561C10.6928 29.1643 10.4557 28.9366 10.1576 28.6277C9.8595 28.3188 9.51095 27.9081 9.3209 27.3263C9.26848 27.1657 9.2305 26.9937 9.2065 26.811C9.06509 26.955 8.9227 27.0977 8.78392 27.2444C6.99281 29.1375 5.48888 31.183 6.11725 34.9206C6.17387 35.256 5.94812 35.5739 5.61283 35.6309C5.27702 35.6875 4.95897 35.4611 4.90252 35.1253C4.20531 30.9782 6.01794 28.3786 7.89182 26.3981C8.82877 25.4078 9.77728 24.541 10.467 23.6676C11.0051 22.9862 11.3795 22.3218 11.5261 21.5716Z" fill="url(#paint0_linear_2545_108)"/>
<defs>
<linearGradient id="paint0_linear_2545_108" x1="19.1069" y1="0.763794" x2="19.1069" y2="54.912" gradientUnits="userSpaceOnUse">
<stop stop-color="#0190D5"/>
<stop offset="1" stop-color="#0F9DCD"/>
</linearGradient>
</defs>
</svg>
