<svg width="63" height="64" viewBox="0 0 63 64" fill="none" xmlns="http://www.w3.org/2000/svg">
<path d="M13.7813 20.112C13.7813 10.676 21.3394 3 30.6279 3C31.7915 3 32.9589 3.124 34.0988 3.367L50.1599 6.802C49.8538 9.608 47.9608 11.976 45.2557 12.835L39.9559 14.518C37.1829 15.398 34.9001 17.389 33.581 19.973C32.8359 19.361 31.8938 19 30.8799 19C28.5086 19 26.5792 20.96 26.5792 23.369V25.333C26.5792 27.842 27.3785 30.327 28.8246 32.359C27.1403 35.709 25.0386 38.807 22.5777 41.614C22.3572 41.253 22.1032 40.911 21.8178 40.591L21.3965 40.121C16.4864 34.635 13.7823 27.528 13.7833 20.111L13.7813 20.112ZM31.5001 61H29.5313V49C29.5313 42.383 34.8302 37 41.3438 37H51.0232C50.9139 37.681 50.7456 38.349 50.5261 39H41.3448C35.917 39 31.5011 43.486 31.5011 49L31.5001 61ZM45.1347 44.029H45.1179L40.198 44.01H40.1833C39.1812 44.01 38.2391 44.406 37.5284 45.124C36.8147 45.846 36.422 46.808 36.422 47.831C36.422 49.56 37.5697 51.078 39.2136 51.522L44.3088 52.903C48.0386 53.914 50.7318 57.166 51.1354 60.999H33.4688V48.999C33.4688 44.588 37.0018 40.999 41.3438 40.999H49.6539C49.4954 41.287 49.3281 41.571 49.147 41.848C48.2502 43.214 46.751 44.029 45.1347 44.029ZM52.736 31H52.172C51.6286 31 51.1876 31.448 51.1876 32V35H41.3438C33.7445 35 27.5626 41.28 27.5626 49V61H8.91064C9.31424 57.167 12.0075 53.915 15.7373 52.904L18.465 52.165C21.5018 51.342 23.6241 48.537 23.6241 45.344C23.6241 44.777 23.5513 44.219 23.4213 43.677C26.1746 40.669 28.5105 37.31 30.3838 33.674C30.8366 33.876 31.3239 34 31.8279 34C33.8173 34 35.4376 32.355 35.4376 30.333V29H33.4688V30.333C33.4688 31.252 32.7325 32 31.8279 32C31.314 32 30.8228 31.751 30.5157 31.333C29.2459 29.614 28.547 27.483 28.547 25.333V23.369C28.547 22.063 29.5933 21 30.8789 21C31.9509 21 32.8821 21.738 33.142 22.795L33.4984 24.243L35.4081 23.758L35.0517 22.31C35.0133 22.154 34.9543 22.009 34.9011 21.862C35.8579 19.277 37.9369 17.255 40.5426 16.428L45.8424 14.745C46.9873 14.382 48.0179 13.807 48.8999 13.07C49.7642 15.623 50.2022 18.284 50.2022 21.001C50.2022 21.156 50.2377 21.31 50.3056 21.448L53.9911 28.935C54.0885 29.133 54.1397 29.353 54.1397 29.574C54.1397 30.361 53.5097 31.001 52.735 31.001L52.736 31Z" fill="url(#paint0_linear_2545_109)"/>
<defs>
<linearGradient id="paint0_linear_2545_109" x1="31.5252" y1="3" x2="31.5252" y2="61" gradientUnits="userSpaceOnUse">
<stop stop-color="#0190D5"/>
<stop offset="1" stop-color="#0F9DCD"/>
</linearGradient>
</defs>
</svg>
