<svg width="64" height="63" viewBox="0 0 64 63" fill="none" xmlns="http://www.w3.org/2000/svg">
<path d="M54.6813 19.4989C51.9066 16.2392 46.3471 16.4086 43.2684 16.7974C42.3589 16.9402 41.4271 16.775 40.6254 16.3288C37.0101 14.1657 37.6278 9.44056 38.0633 7.50666C38.1698 7.03325 38.0969 6.53782 37.8581 6.1137C37.6194 5.68957 37.2313 5.36602 36.7671 5.20399L33.4658 4.05762C33.188 3.96132 32.8924 3.92564 32.5993 3.95305C32.3061 3.98045 32.0226 4.07029 31.7682 4.21634C31.5139 4.36238 31.2949 4.56113 31.1264 4.79881C30.9579 5.03649 30.8439 5.3074 30.7924 5.59276C29.9283 11.7874 31.2894 18.0847 34.6405 23.3965C35.2998 24.4763 35.7048 25.6878 35.8257 26.942C35.9466 28.1962 35.7804 29.4611 35.3392 30.6437C32.2501 38.4013 23.2661 36.3569 20.3415 33.953C13.7128 29.788 7.96692 33.7315 5.98175 38.2995C1.6286 47.5553 9.16075 56.0252 14.5391 58.8046C14.7794 58.9367 15.0442 59.0198 15.3179 59.0491C15.5915 59.0784 15.8683 59.0533 16.1319 58.9752C16.3954 58.8971 16.6403 58.7676 16.852 58.5944C17.0638 58.4213 17.2379 58.208 17.3643 57.9673L18.7819 55.1662C19.0074 54.719 19.0545 54.2048 18.9139 53.7251C18.7733 53.2453 18.4553 52.8348 18.0225 52.5745C10.9337 48.2381 11.7034 43.513 12.7869 41.0807C14.8996 37.0394 18.1307 41.4492 18.954 43.4433C23.8959 50.9495 28.3113 52.0561 28.9492 52.1757C36.6962 54.1993 41.9621 52.5047 42.1139 52.4449C50.2357 50.3216 55.6434 42.7256 55.856 42.4265C57.9662 39.2675 59.1538 35.5984 59.289 31.82C59.7143 23.9946 55.4104 20.1069 54.6813 19.4989ZM50.7015 42.0177C47.0025 47.8086 39.0869 51.4067 32.2709 48.8463C29.6607 48.0036 25.2523 44.3173 27.0149 41.4197C27.2155 41.163 27.4732 40.9551 27.7681 40.8116C28.063 40.6682 28.3874 40.5932 28.7163 40.5923L30.0834 40.5125C33.1924 40.3385 36.5818 39.1134 38.3064 36.8042C39.4747 35.3694 40.2496 33.8446 39.704 30.4045C39.5871 29.7846 39.6061 29.1473 39.7597 28.5353C39.9134 27.9232 40.1981 27.3505 40.5949 26.8556C42.7672 24.4988 48.9817 23.8292 52.0484 29.7463C53.5646 32.3919 53.0085 38.7855 50.7015 42.0177Z" fill="url(#paint0_linear_2545_71)"/>
<path d="M45.6684 27.1845C43.027 27.0014 41.334 28.0978 41.6887 30.0157C42.1522 32.3383 41.8579 34.7457 40.8479 36.8938C40.944 37.2258 41.1089 37.5345 41.3323 37.8006C41.5556 38.0667 41.8326 38.2843 42.1456 38.4398C42.4587 38.5953 42.8011 38.6852 43.1512 38.7039C43.5013 38.7226 43.8516 38.6697 44.1799 38.5485C45.1205 38.256 46.1322 38.273 47.0622 38.5967C47.9921 38.9205 48.7897 39.5335 49.3343 40.3431C52.3176 34.9106 51.0251 27.8185 45.6684 27.1845ZM44.4431 34.4815C44.1642 34.4788 43.8977 34.3678 43.7015 34.1728C43.5052 33.9777 43.3951 33.7143 43.3952 33.4397C43.3952 33.1652 43.5053 32.9018 43.7015 32.7067C43.8978 32.5116 44.1643 32.4007 44.4432 32.3981C44.7224 32.4003 44.9893 32.511 45.1859 32.7062C45.3825 32.9013 45.4928 33.165 45.4928 33.4398C45.4928 33.7146 45.3825 33.9783 45.1859 34.1734C44.9893 34.3685 44.7223 34.4792 44.4431 34.4815ZM45.4861 29.9757C45.4897 29.7031 45.6023 29.4429 45.7994 29.2513C45.9965 29.0598 46.2623 28.9524 46.5393 28.9524C46.8163 28.9524 47.0821 29.0598 47.2792 29.2513C47.4763 29.4429 47.5889 29.7031 47.5925 29.9757C47.5886 30.2481 47.4759 30.5081 47.2788 30.6994C47.0818 30.8907 46.8161 30.9979 46.5393 30.9979C46.2626 30.9979 45.9969 30.8907 45.7998 30.6994C45.6027 30.5081 45.49 30.2481 45.4861 29.9757ZM47.5925 37.482C47.3155 37.4766 47.0517 37.3645 46.8578 37.1697C46.6638 36.9749 46.5552 36.7131 46.5552 36.4403C46.5552 36.1676 46.6639 35.9057 46.8578 35.711C47.0518 35.5162 47.3156 35.4041 47.5926 35.3987C47.8696 35.4041 48.1334 35.5162 48.3273 35.711C48.5213 35.9058 48.6299 36.1676 48.6299 36.4404C48.6299 36.7131 48.5213 36.975 48.3273 37.1697C48.1333 37.3645 47.8695 37.4766 47.5925 37.482Z" fill="url(#paint1_linear_2545_71)"/>
<path d="M46.681 40.5822C46.3667 40.4293 46.0239 40.3415 45.6738 40.3243C45.3236 40.3072 44.9737 40.361 44.6455 40.4825C43.6884 40.7792 42.6584 40.7552 41.7166 40.4143C40.7748 40.0734 39.9743 39.4348 39.4404 38.5984C37.2484 41.0236 33.6801 42.2963 30.2049 42.4962L28.8377 42.576C28.5277 42.5893 28.6207 42.6614 28.625 42.9547C29.0111 43.8981 29.6017 44.7472 30.3556 45.4428C31.1094 46.1384 32.0083 46.6637 32.9896 46.982C34.7833 47.6688 36.7314 47.8685 38.6303 47.5602C40.137 47.5443 42.1239 46.7594 44.757 45.1478C45.7396 44.4957 47.7251 43.2601 47.9775 42.1175C47.8827 41.7865 47.7183 41.4788 47.495 41.2143C47.2716 40.9498 46.9943 40.7344 46.681 40.5822ZM33.0706 45.3372C32.7937 45.3317 32.5299 45.2196 32.336 45.0248C32.1421 44.83 32.0335 44.5682 32.0335 44.2955C32.0335 44.0228 32.1422 43.761 32.3361 43.5662C32.53 43.3715 32.7937 43.2593 33.0707 43.2538C33.3477 43.2593 33.6114 43.3715 33.8053 43.5662C33.9992 43.761 34.1078 44.0229 34.1078 44.2956C34.1078 44.5683 33.9992 44.8301 33.8053 45.0248C33.6114 45.2196 33.3476 45.3318 33.0706 45.3372ZM38.7011 44.2906C38.4226 44.2894 38.1559 44.1796 37.9594 43.9853C37.7629 43.791 37.6525 43.528 37.6525 43.2538C37.6526 42.9796 37.7629 42.7166 37.9594 42.5223C38.1559 42.328 38.4227 42.2183 38.7012 42.2171C38.9797 42.2183 39.2464 42.3281 39.4429 42.5224C39.6395 42.7167 39.7498 42.9797 39.7498 43.2539C39.7498 43.528 39.6394 43.7911 39.4429 43.9853C39.2464 44.1796 38.9797 44.2894 38.7011 44.2906ZM43.7443 44.0514C43.467 44.0463 43.2028 43.9343 43.0085 43.7395C42.8142 43.5447 42.7054 43.2826 42.7054 43.0096C42.7054 42.7366 42.8143 42.4745 43.0086 42.2797C43.2029 42.0849 43.4671 41.9729 43.7443 41.9679C44.0214 41.9732 44.2854 42.0853 44.4794 42.2801C44.6735 42.4749 44.7822 42.7368 44.7822 43.0097C44.7822 43.2825 44.6734 43.5444 44.4794 43.7392C44.2853 43.934 44.0214 44.0461 43.7443 44.0514Z" fill="url(#paint2_linear_2545_71)"/>
<defs>
<linearGradient id="paint0_linear_2545_71" x1="32.0001" y1="3.94409" x2="32.0001" y2="59.061" gradientUnits="userSpaceOnUse">
<stop stop-color="#0190D5"/>
<stop offset="1" stop-color="#0F9DCD"/>
</linearGradient>
<linearGradient id="paint1_linear_2545_71" x1="45.8762" y1="27.1647" x2="45.8762" y2="40.3431" gradientUnits="userSpaceOnUse">
<stop stop-color="#0190D5"/>
<stop offset="1" stop-color="#0F9DCD"/>
</linearGradient>
<linearGradient id="paint2_linear_2545_71" x1="38.2931" y1="38.5984" x2="38.2931" y2="47.7011" gradientUnits="userSpaceOnUse">
<stop stop-color="#0190D5"/>
<stop offset="1" stop-color="#0F9DCD"/>
</linearGradient>
</defs>
</svg>
