<svg width="61" height="64" viewBox="0 0 61 64" fill="none" xmlns="http://www.w3.org/2000/svg">
<path d="M13.9337 54.8582V29.8468C13.9342 29.152 13.7973 28.4639 13.5307 27.8223C13.2641 27.1807 12.8731 26.5981 12.3803 26.1083C9.31975 23.0477 9.33291 23.0806 9.08938 22.7712V45.3473C9.08466 45.9178 8.86654 46.466 8.47796 46.8838C8.08937 47.3016 7.55847 47.5589 6.98974 47.6049C5.67151 47.731 4.40973 48.202 3.33124 48.9705C2.25276 49.7389 1.39559 50.7777 0.845913 51.9825C0.296235 53.1873 0.0734226 54.5156 0.199877 55.8338C0.326332 57.152 0.797597 58.4136 1.56629 59.4919C2.33499 60.5703 3.37402 61.4272 4.57892 61.9766C5.78383 62.526 7.11214 62.7485 8.43031 62.6217C9.74848 62.495 11.01 62.0234 12.0882 61.2545C13.1663 60.4855 14.023 59.4463 14.5721 58.2413C14.1515 57.1629 13.935 56.0157 13.9337 54.8582ZM7.79274 57.7806C7.27202 57.7806 6.763 57.6261 6.33005 57.3368C5.89709 57.0476 5.55964 56.6364 5.36037 56.1553C5.1611 55.6742 5.10896 55.1449 5.21055 54.6341C5.31214 54.1234 5.56288 53.6543 5.93108 53.2861C6.29928 52.9179 6.7684 52.6672 7.27911 52.5656C7.78982 52.464 8.31918 52.5161 8.80025 52.7154C9.28133 52.9147 9.69252 53.2521 9.98181 53.6851C10.2711 54.118 10.4255 54.6271 10.4255 55.1478C10.417 55.8434 10.1369 56.5081 9.64495 57C9.15305 57.4919 8.48834 57.772 7.79274 57.7806Z" fill="url(#paint0_linear_2545_76)"/>
<path d="M21.4041 19.0459V23.2715C20.4629 21.5866 19.5941 20.8889 16.9087 18.2035C16.6913 17.9846 16.5684 17.6892 16.5664 17.3807V2.703C19.7254 7.56822 21.4059 13.2451 21.4041 19.0459Z" fill="url(#paint1_linear_2545_76)"/>
<path d="M18.6988 21.8762L15.9739 19.1513C15.5105 18.6864 15.2501 18.0569 15.2499 17.4005V0.814026C11.2498 6.04526 9.0826 12.4475 9.0826 19.0328C9.0755 20.2478 9.54862 21.4164 10.399 22.2843L13.3082 25.1672C13.9234 25.7787 14.4116 26.5058 14.7448 27.3067C15.0781 28.1075 15.2497 28.9664 15.2499 29.8338V36.1656H21.4106V28.4055C21.4057 25.9561 20.4306 23.6084 18.6988 21.8762ZM16.7242 24.43C16.6009 24.5526 16.4341 24.6214 16.2602 24.6214C16.0863 24.6214 15.9195 24.5526 15.7962 24.43L13.7492 22.3764C13.6414 22.2505 13.585 22.0886 13.5914 21.9229C13.5978 21.7573 13.6665 21.6001 13.7837 21.4829C13.9009 21.3657 14.0581 21.297 14.2237 21.2906C14.3894 21.2842 14.5513 21.3406 14.6772 21.4484L16.7242 23.4954C16.8446 23.6164 16.9133 23.7795 16.9158 23.9502C16.9182 24.1209 16.8543 24.2858 16.7374 24.4103L16.7242 24.43ZM23.4839 47.605C22.9249 47.5608 22.4026 47.3096 22.0191 46.9006C21.6357 46.4915 21.4187 45.9541 21.4106 45.3935V45.2552H15.2499V54.8583C15.2165 56.8551 15.9595 58.7869 17.3223 60.2468C18.6851 61.7066 20.5614 62.5805 22.5558 62.6842C24.5451 62.7466 26.4786 62.0209 27.9355 60.665C29.3925 59.3091 30.2551 57.4327 30.3357 55.4441C30.487 51.383 26.9789 47.9867 23.4839 47.605ZM22.7269 57.7807C22.2077 57.7742 21.7019 57.6143 21.2733 57.3211C20.8447 57.0278 20.5124 56.6144 20.3182 56.1328C20.1239 55.6512 20.0765 55.1229 20.1817 54.6144C20.287 54.1059 20.5403 53.6398 20.9098 53.2749C21.2793 52.91 21.7484 52.6625 22.2582 52.5636C22.768 52.4646 23.2957 52.5186 23.7748 52.7188C24.254 52.919 24.6632 53.2565 24.9511 53.6887C25.239 54.1209 25.3926 54.6286 25.3926 55.1479C25.3927 55.4964 25.3235 55.8415 25.1891 56.1631C25.0548 56.4847 24.8579 56.7764 24.6099 57.0213C24.3619 57.2662 24.0678 57.4594 23.7446 57.5898C23.4213 57.7201 23.0754 57.785 22.7269 57.7807Z" fill="url(#paint2_linear_2545_76)"/>
<path d="M15.2565 37.5016H21.404V43.9388H15.2565V37.5016Z" fill="url(#paint3_linear_2545_76)"/>
<path d="M40.4325 1.87369V35.0861H34.9102C34.9102 28.7741 34.9102 28.8728 34.9102 18.1837C34.9102 18.0092 34.8409 17.8417 34.7174 17.7183C34.594 17.5949 34.4266 17.5255 34.252 17.5255C34.0775 17.5255 33.9101 17.5949 33.7866 17.7183C33.6632 17.8417 33.5938 18.0092 33.5938 18.1837V25.3383C33.0876 24.8391 32.4658 24.4728 31.7838 24.272C31.4351 24.1778 31.1264 23.9728 30.9044 23.6879C30.6824 23.4029 30.5591 23.0535 30.553 22.6924V10.7198C30.5499 8.28498 31.4467 5.93489 33.071 4.12105C34.6953 2.30721 36.9326 1.15757 39.353 0.892982C39.4897 0.880173 39.6275 0.895989 39.7576 0.93942C39.8878 0.982852 40.0075 1.05294 40.1091 1.14522C40.2107 1.23751 40.2919 1.34995 40.3476 1.47537C40.4032 1.6008 40.4322 1.73646 40.4325 1.87369Z" fill="url(#paint4_linear_2545_76)"/>
<path d="M34.9103 48.4409H40.4325V59.9C40.4508 60.2739 40.3929 60.6477 40.2624 60.9986C40.1319 61.3495 39.9314 61.6702 39.6732 61.9413C39.415 62.2124 39.1045 62.4283 38.7604 62.5757C38.4163 62.7232 38.0458 62.7993 37.6714 62.7993C37.297 62.7993 36.9265 62.7232 36.5824 62.5757C36.2383 62.4283 35.9277 62.2124 35.6696 61.9413C35.4114 61.6702 35.2109 61.3495 35.0804 60.9986C34.9499 60.6477 34.892 60.2739 34.9103 59.9V48.4409Z" fill="url(#paint5_linear_2545_76)"/>
<path d="M34.9104 36.4025H40.4326V47.1244H34.9104V36.4025Z" fill="url(#paint6_linear_2545_76)"/>
<path d="M58.3023 16.6106V44.3008C58.3018 44.7905 58.1592 45.2695 57.8916 45.6797C57.624 46.0898 57.243 46.4134 56.795 46.6111L54.0372 47.8155C53.7126 47.9586 53.3618 48.0325 53.0071 48.0325C52.6524 48.0325 52.3016 47.9586 51.977 47.8155L49.2258 46.6111C48.7777 46.4134 48.3968 46.0898 48.1292 45.6797C47.8616 45.2695 47.7189 44.7905 47.7185 44.3008V42.1617H50.167C50.3416 42.1617 50.509 42.0923 50.6324 41.9689C50.7558 41.8455 50.8252 41.678 50.8252 41.5035C50.8252 41.3289 50.7558 41.1615 50.6324 41.0381C50.509 40.9146 50.3416 40.8453 50.167 40.8453H47.7185V38.8707H52.6484C52.8229 38.8707 52.9904 38.8014 53.1138 38.6779C53.2372 38.5545 53.3066 38.3871 53.3066 38.2125C53.3066 38.0379 53.2372 37.8705 53.1138 37.7471C52.9904 37.6237 52.8229 37.5543 52.6484 37.5543H47.7185V35.5797H50.167C50.3416 35.5797 50.509 35.5104 50.6324 35.387C50.7558 35.2635 50.8252 35.0961 50.8252 34.9215C50.8252 34.747 50.7558 34.5796 50.6324 34.4561C50.509 34.3327 50.3416 34.2633 50.167 34.2633H47.7185V32.2888H50.167C50.3416 32.2888 50.509 32.2194 50.6324 32.096C50.7558 31.9725 50.8252 31.8051 50.8252 31.6306C50.8252 31.456 50.7558 31.2886 50.6324 31.1652C50.509 31.0417 50.3416 30.9724 50.167 30.9724H47.7185V28.9978H52.6484C52.8229 28.9978 52.9904 28.9285 53.1138 28.805C53.2372 28.6816 53.3066 28.5142 53.3066 28.3396C53.3066 28.165 53.2372 27.9976 53.1138 27.8742C52.9904 27.7508 52.8229 27.6814 52.6484 27.6814H47.7185V25.7068H50.167C50.3416 25.7068 50.509 25.6375 50.6324 25.514C50.7558 25.3906 50.8252 25.2232 50.8252 25.0486C50.8252 24.8741 50.7558 24.7067 50.6324 24.5832C50.509 24.4598 50.3416 24.3904 50.167 24.3904H47.7185V22.2316H50.167C50.3416 22.2316 50.509 22.1622 50.6324 22.0388C50.7558 21.9154 50.8252 21.7479 50.8252 21.5734C50.8252 21.3988 50.7558 21.2314 50.6324 21.108C50.509 20.9845 50.3416 20.9152 50.167 20.9152H47.7185V18.9406H52.6484C52.8229 18.9406 52.9904 18.8713 53.1138 18.7478C53.2372 18.6244 53.3066 18.457 53.3066 18.2824C53.3066 18.1078 53.2372 17.9404 53.1138 17.817C52.9904 17.6936 52.8229 17.6242 52.6484 17.6242H47.7185V16.6106H58.3023Z" fill="url(#paint7_linear_2545_76)"/>
<path d="M59.4542 11.6939H46.5733C46.0571 11.6939 45.6387 12.1124 45.6387 12.6285V14.3596C45.6387 14.8758 46.0571 15.2942 46.5733 15.2942H59.4542C59.9703 15.2942 60.3888 14.8758 60.3888 14.3596V12.6285C60.3888 12.1124 59.9703 11.6939 59.4542 11.6939Z" fill="url(#paint8_linear_2545_76)"/>
<path d="M57.3676 1.90002H48.6531C48.137 1.90002 47.7185 2.31847 47.7185 2.83466V3.74955C47.7185 4.26573 48.137 4.68418 48.6531 4.68418H57.3676C57.8838 4.68418 58.3023 4.26573 58.3023 3.74955V2.83466C58.3023 2.31847 57.8838 1.90002 57.3676 1.90002Z" fill="url(#paint9_linear_2545_76)"/>
<path d="M51.3188 6.00714H54.6954V10.3775H51.3188V6.00714Z" fill="url(#paint10_linear_2545_76)"/>
<path d="M53.6687 49.2899V62.6842C53.6687 62.8587 53.5993 63.0261 53.4759 63.1496C53.3525 63.273 53.1851 63.3423 53.0105 63.3423C52.8359 63.3423 52.6685 63.273 52.5451 63.1496C52.4216 63.0261 52.3523 62.8587 52.3523 62.6842V49.2899C52.7875 49.3689 53.2334 49.3689 53.6687 49.2899Z" fill="url(#paint11_linear_2545_76)"/>
<defs>
<linearGradient id="paint0_linear_2545_76" x1="7.36877" y1="22.7712" x2="7.36877" y2="62.6564" gradientUnits="userSpaceOnUse">
<stop stop-color="#0190D5"/>
<stop offset="1" stop-color="#0F9DCD"/>
</linearGradient>
<linearGradient id="paint1_linear_2545_76" x1="18.9853" y1="2.703" x2="18.9853" y2="23.2715" gradientUnits="userSpaceOnUse">
<stop stop-color="#0190D5"/>
<stop offset="1" stop-color="#0F9DCD"/>
</linearGradient>
<linearGradient id="paint2_linear_2545_76" x1="19.7115" y1="0.814026" x2="19.7115" y2="62.6879" gradientUnits="userSpaceOnUse">
<stop stop-color="#0190D5"/>
<stop offset="1" stop-color="#0F9DCD"/>
</linearGradient>
<linearGradient id="paint3_linear_2545_76" x1="18.3302" y1="37.5016" x2="18.3302" y2="43.9388" gradientUnits="userSpaceOnUse">
<stop stop-color="#0190D5"/>
<stop offset="1" stop-color="#0F9DCD"/>
</linearGradient>
<linearGradient id="paint4_linear_2545_76" x1="35.4927" y1="0.888672" x2="35.4927" y2="35.0861" gradientUnits="userSpaceOnUse">
<stop stop-color="#0190D5"/>
<stop offset="1" stop-color="#0F9DCD"/>
</linearGradient>
<linearGradient id="paint5_linear_2545_76" x1="37.6714" y1="48.4409" x2="37.6714" y2="62.7993" gradientUnits="userSpaceOnUse">
<stop stop-color="#0190D5"/>
<stop offset="1" stop-color="#0F9DCD"/>
</linearGradient>
<linearGradient id="paint6_linear_2545_76" x1="37.6715" y1="36.4025" x2="37.6715" y2="47.1244" gradientUnits="userSpaceOnUse">
<stop stop-color="#0190D5"/>
<stop offset="1" stop-color="#0F9DCD"/>
</linearGradient>
<linearGradient id="paint7_linear_2545_76" x1="53.0104" y1="16.6106" x2="53.0104" y2="48.0325" gradientUnits="userSpaceOnUse">
<stop stop-color="#0190D5"/>
<stop offset="1" stop-color="#0F9DCD"/>
</linearGradient>
<linearGradient id="paint8_linear_2545_76" x1="53.0137" y1="11.6939" x2="53.0137" y2="15.2942" gradientUnits="userSpaceOnUse">
<stop stop-color="#0190D5"/>
<stop offset="1" stop-color="#0F9DCD"/>
</linearGradient>
<linearGradient id="paint9_linear_2545_76" x1="53.0104" y1="1.90002" x2="53.0104" y2="4.68418" gradientUnits="userSpaceOnUse">
<stop stop-color="#0190D5"/>
<stop offset="1" stop-color="#0F9DCD"/>
</linearGradient>
<linearGradient id="paint10_linear_2545_76" x1="53.0071" y1="6.00714" x2="53.0071" y2="10.3775" gradientUnits="userSpaceOnUse">
<stop stop-color="#0190D5"/>
<stop offset="1" stop-color="#0F9DCD"/>
</linearGradient>
<linearGradient id="paint11_linear_2545_76" x1="53.0105" y1="49.2899" x2="53.0105" y2="63.3423" gradientUnits="userSpaceOnUse">
<stop stop-color="#0190D5"/>
<stop offset="1" stop-color="#0F9DCD"/>
</linearGradient>
</defs>
</svg>
