<svg width="52" height="58" viewBox="0 0 52 58" fill="none" xmlns="http://www.w3.org/2000/svg">
<path d="M41.8734 33.3782C42.4143 34.6268 42.729 36.1546 42.7985 37.9213C44.6239 38.3396 45.99 39.9724 45.99 41.9223C45.99 44.1869 44.1475 46.0294 41.8829 46.0294C39.6183 46.0294 37.7758 44.1869 37.7758 41.9223C37.7758 39.9945 39.1122 38.3788 40.9054 37.9371C40.8264 36.1824 40.4068 33.5128 38.6894 32.1947C37.813 31.9679 36.912 31.8036 35.9876 31.7189C35.9193 34.793 25.7589 42.3791 25.7589 42.3791C25.7589 42.3791 15.5954 34.7942 15.5265 31.7202C14.4997 31.8137 13.5007 32.0014 12.5359 32.2718C11.2829 33.2638 10.6346 35.1121 10.6011 37.7987C10.9695 38.0104 11.2671 38.3409 11.4497 38.7409C12.7994 39.3784 13.9917 40.7192 14.9047 42.6281C15.0577 42.9491 15.0779 43.3118 14.9654 43.6429C15.5126 45.0513 15.8254 46.5905 15.8254 47.8833C15.8254 49.6949 15.8254 51.4079 13.8508 51.8477C13.6372 52.0252 13.3693 52.1231 13.0881 52.1231H11.7688C11.1072 52.1231 10.5689 51.5835 10.5689 50.9239L10.5701 50.8771C10.5954 50.2389 11.1293 49.7239 11.7688 49.7239H13.0881C13.2234 49.7239 13.3554 49.7467 13.483 49.7909C13.5627 49.7688 13.5879 49.7505 13.5886 49.7499C13.7352 49.4895 13.7352 48.4052 13.7352 47.8846C13.7352 46.8344 13.4723 45.5663 13.0117 44.3878C12.7728 44.252 12.5795 44.0466 12.4607 43.7983C11.6607 42.1232 10.5727 41.0415 9.68933 41.0415C8.78576 41.0415 7.64334 42.2117 6.84656 43.9506C6.7164 44.2343 6.48829 44.4649 6.20775 44.6033C5.79135 45.7306 5.56261 46.8913 5.56261 47.884C5.56261 48.3212 5.56261 49.4813 5.72942 49.7543C5.73132 49.7543 5.7686 49.777 5.87349 49.8029C6.00997 49.7505 6.15656 49.7233 6.30316 49.7233H7.62502C8.24109 49.7233 8.75606 50.1922 8.81798 50.8019L8.8243 50.8758C8.8243 51.5842 8.28595 52.1238 7.62502 52.1238H6.30316C6.04093 52.1238 5.78755 52.0359 5.57904 51.8767C4.82396 51.7345 4.29193 51.4016 3.95514 50.8594C3.54696 50.2042 3.4724 49.3436 3.4724 47.884C3.4724 46.6038 3.76811 45.129 4.3052 43.7206C4.22622 43.4192 4.25275 43.1045 4.38418 42.8208C4.94338 41.5975 5.65486 40.5499 6.4409 39.7923C6.8731 39.3759 7.33752 39.041 7.82343 38.7965C8.0054 38.3706 8.32134 38.0212 8.70741 37.8006C8.72763 36.1167 8.98669 34.6628 9.46565 33.4641C3.98231 36.2456 0.224609 41.9343 0.224609 48.5038C0.224609 56.8988 6.35813 57.3095 14.3872 57.3095C15.2636 57.3095 16.1609 57.3044 17.0777 57.3044H34.4332C35.3488 57.3044 36.246 57.3095 37.1224 57.3095C45.1528 57.3095 51.2888 56.8988 51.2888 48.5038C51.2882 41.8648 47.4503 36.1262 41.8734 33.3782Z" fill="url(#paint0_linear_2545_67)"/>
<path d="M25.7613 33.9255C33.5231 33.9255 39.8146 22.2543 39.8146 14.4931C39.8146 6.73314 33.5231 0.44165 25.7613 0.44165C18.0007 0.44165 11.7092 6.73314 11.7092 14.4931C11.7092 22.2543 18.0007 33.9255 25.7613 33.9255Z" fill="url(#paint1_linear_2545_67)"/>
<path d="M41.8822 43.8179C42.9291 43.8179 43.7778 42.9692 43.7778 41.9223C43.7778 40.8754 42.9291 40.0267 41.8822 40.0267C40.8353 40.0267 39.9866 40.8754 39.9866 41.9223C39.9866 42.9692 40.8353 43.8179 41.8822 43.8179Z" fill="url(#paint2_linear_2545_67)"/>
<defs>
<linearGradient id="paint0_linear_2545_67" x1="25.7567" y1="31.7189" x2="25.7567" y2="57.3095" gradientUnits="userSpaceOnUse">
<stop stop-color="#0190D5"/>
<stop offset="1" stop-color="#0F9DCD"/>
</linearGradient>
<linearGradient id="paint1_linear_2545_67" x1="25.7619" y1="0.44165" x2="25.7619" y2="33.9255" gradientUnits="userSpaceOnUse">
<stop stop-color="#0190D5"/>
<stop offset="1" stop-color="#0F9DCD"/>
</linearGradient>
<linearGradient id="paint2_linear_2545_67" x1="41.8822" y1="40.0267" x2="41.8822" y2="43.8179" gradientUnits="userSpaceOnUse">
<stop stop-color="#0190D5"/>
<stop offset="1" stop-color="#0F9DCD"/>
</linearGradient>
</defs>
</svg>
