<svg width="64" height="64" viewBox="0 0 64 64" fill="none" xmlns="http://www.w3.org/2000/svg">
<path d="M61.1474 12.4353C57.6614 8.90815 53.5087 9.66844 49.0569 9.60199C48.5002 4.93994 44.5352 1.32471 39.7232 1.32471H24.2267C19.4148 1.32471 15.4497 4.93994 14.893 9.60199H9.65561C4.32294 9.60187 0 13.9249 0 19.2575V25.2516C0 25.7555 0.199972 26.212 0.523599 26.5488C1.1139 29.1072 3.40902 31.0211 6.14417 31.0211H9.23993C16.9561 30.7563 17.0337 19.8062 9.33673 19.4823H6.14417C5.2892 19.4823 4.47782 19.6707 3.74726 20.0059C3.43462 16.4705 6.04912 13.3484 9.65573 13.3491H14.1713L15.6349 14.616C17.8307 16.7753 19.0675 19.7259 19.0675 22.8055C19.0037 26.8642 19.9341 30.1882 23.0831 32.9355C23.5024 33.3047 23.7671 33.8454 23.7671 34.4481L23.7677 36.7257C23.7676 36.7256 30.1084 36.7257 30.1086 36.7257V31.0206C30.1086 22.2501 23.4213 14.8083 14.958 13.3491H22.1883C23.7752 13.3491 25.3197 13.9006 26.5229 14.9353C28.7843 16.8747 30.6308 19.3118 31.8655 21.9638C32.9258 19.4186 34.4361 17.1441 36.378 15.2487C37.6298 14.0285 39.3112 13.3493 41.0592 13.3493H47.5316C39.2405 15.0719 33.7604 22.3795 33.8558 31.0207C33.8557 31.0207 33.8557 36.7259 33.8557 36.7259H40.2724V34.7921C40.2724 34.1894 40.537 33.6486 40.9564 33.2795C43.3167 31.2036 44.6833 28.2205 44.7269 25.0775L44.7426 23.9519C44.5902 20.4857 45.1568 17.4989 47.4545 14.7815L48.757 13.3493H54.2106C57.9078 13.3597 60.5214 16.3676 60.2206 20.0135C59.4857 19.6735 58.6685 19.4824 57.807 19.4824H54.8361C47.12 19.7471 47.0424 30.6975 54.7393 31.0212C54.7392 31.0212 57.807 31.0212 57.807 31.0212C60.5423 31.0212 62.8374 29.1073 63.4276 26.5486C63.7497 26.2134 63.9494 25.7594 63.951 25.2578C63.8165 20.5417 64.9073 16.154 61.1474 12.4353Z" fill="url(#paint0_linear_2545_89)"/>
<path d="M24.2503 44.7524H39.875C40.1153 43.3403 40.248 41.9097 40.268 40.4728H23.7833C23.8278 41.9113 23.985 43.342 24.2503 44.7524Z" fill="url(#paint1_linear_2545_89)"/>
<path d="M27.5492 60.1061C27.4568 61.4833 28.5376 62.6807 29.9281 62.675L34.332 62.6754C35.587 62.6755 36.6045 61.6587 36.6045 60.4036C36.6002 58.9728 36.6978 57.563 36.893 56.1782H27.2874C27.4603 57.469 27.5489 58.7767 27.5492 60.1061Z" fill="url(#paint2_linear_2545_89)"/>
<path d="M25.5726 49.4585C25.9458 50.4424 26.2652 51.4328 26.5337 52.4311H37.6718C38.0189 51.1051 38.5417 49.8079 38.9662 48.4995H25.23C25.3385 48.8209 25.4521 49.1409 25.5726 49.4585Z" fill="url(#paint3_linear_2545_89)"/>
<defs>
<linearGradient id="paint0_linear_2545_89" x1="32" y1="1.32471" x2="32" y2="36.7259" gradientUnits="userSpaceOnUse">
<stop stop-color="#0190D5"/>
<stop offset="1" stop-color="#0F9DCD"/>
</linearGradient>
<linearGradient id="paint1_linear_2545_89" x1="32.0256" y1="40.4728" x2="32.0256" y2="44.7524" gradientUnits="userSpaceOnUse">
<stop stop-color="#0190D5"/>
<stop offset="1" stop-color="#0F9DCD"/>
</linearGradient>
<linearGradient id="paint2_linear_2545_89" x1="32.0902" y1="56.1782" x2="32.0902" y2="62.6754" gradientUnits="userSpaceOnUse">
<stop stop-color="#0190D5"/>
<stop offset="1" stop-color="#0F9DCD"/>
</linearGradient>
<linearGradient id="paint3_linear_2545_89" x1="32.0981" y1="48.4995" x2="32.0981" y2="52.4311" gradientUnits="userSpaceOnUse">
<stop stop-color="#0190D5"/>
<stop offset="1" stop-color="#0F9DCD"/>
</linearGradient>
</defs>
</svg>
