<svg width="63" height="64" viewBox="0 0 63 64" fill="none" xmlns="http://www.w3.org/2000/svg">
<path d="M53.7703 1.86768C49.6974 -1.22899 43.9019 -0.387537 40.8516 3.74412C37.7988 7.87952 38.6269 13.7688 42.6973 16.8704C43.3506 17.3692 43.849 18.0143 44.1615 18.7456H42.5742C39.5211 18.7456 37.0371 16.222 37.0371 13.12H33.3457C33.3457 16.1838 34.7999 18.9087 37.0435 20.6208C34.7999 22.3327 33.3456 25.0577 33.3457 28.1215V37.8824C32.7428 37.7924 32.1263 37.7474 31.5 37.7474C30.8737 37.7474 30.2572 37.7924 29.6543 37.8824V28.1215C29.6543 25.0577 28.2001 22.3327 25.9565 20.6208C28.2001 18.9088 29.6543 16.1838 29.6543 13.12H25.9629C25.9629 16.222 23.4789 18.7456 20.4258 18.7456H18.8385C19.151 18.0143 19.6494 17.3692 20.304 16.8704C24.3731 13.7688 25.2012 7.87952 22.1484 3.74287C19.0981 -0.387537 13.3026 -1.22899 9.22728 1.86893C3.36287 6.33812 0 13.1725 0 20.6208C0 28.069 3.36287 34.9034 9.22728 39.3726L9.22852 39.3738C13.3051 42.4754 19.0993 41.6241 22.1484 37.4974C25.2012 33.362 24.3731 27.4727 20.3027 24.3711C19.6494 23.8723 19.151 23.2273 18.8385 22.4959H20.4258C23.4789 22.4959 25.9629 25.0196 25.9629 28.1215V39.0163C21.6009 41.1253 18.5801 45.6482 18.5801 50.8737C18.5801 58.1119 24.3756 64 31.5 64C38.6244 64 44.4199 58.1119 44.4199 50.8737C44.4199 45.6482 41.3991 41.1253 37.0371 39.0163V28.1216C37.0371 25.0197 39.5211 22.4961 42.5742 22.4961H44.1615C43.849 23.2274 43.3506 23.8725 42.696 24.3713C38.6269 27.4728 37.7988 33.3621 40.8516 37.4988C43.8982 41.6217 49.6925 42.478 53.7715 39.374L53.7727 39.3727C59.6371 34.9035 63 28.0691 63 20.6209C63 13.1727 59.6371 6.33812 53.7703 1.86768ZM37.0371 52.7489H33.3457V56.4993H29.6543V52.7489H25.9629V48.9985H29.6543V45.2482H33.3457V48.9985H37.0371V52.7489Z" fill="url(#paint0_linear_2545_60)"/>
<defs>
<linearGradient id="paint0_linear_2545_60" x1="31.5" y1="0" x2="31.5" y2="64" gradientUnits="userSpaceOnUse">
<stop stop-color="#0190D5"/>
<stop offset="1" stop-color="#0F9DCD"/>
</linearGradient>
</defs>
</svg>
