<svg width="62" height="67" viewBox="0 0 62 67" fill="none" xmlns="http://www.w3.org/2000/svg">
<path d="M34.6906 44.1895C34.09 46.8396 31.7749 49.9537 24.1516 49.8815C23.7589 49.8923 23.3848 50.062 23.1054 50.3558L13.2735 60.8324C12.6246 61.5186 11.7471 61.9037 10.8324 61.9037C9.91776 61.9037 9.04024 61.5186 8.39136 60.8324L4.8848 57.0996C4.23817 56.41 3.875 55.4754 3.875 54.5011C3.875 53.5267 4.23817 52.5922 4.8848 51.9025L14.7265 41.426C15.0056 41.1308 15.1655 40.7313 15.1722 40.3124C14.974 33.0991 17.7881 29.6284 20.5189 29.1038C25.6875 27.6139 28.2244 31.6828 28.2393 35.9711C32.2832 35.9876 36.0836 38.6944 34.6906 44.1895ZM46.8183 26.6701C46.8406 25.9476 46.7243 25.1872 47.2736 24.6284L57.1152 14.1622C57.7619 13.4726 58.125 12.538 58.125 11.5636C58.125 10.5893 57.7619 9.65472 57.1152 8.96511L53.6087 5.23231C52.9586 4.54851 52.0815 4.16504 51.1676 4.16504C50.2537 4.16504 49.3767 4.54851 48.7266 5.23231L38.8946 15.7089C38.6152 16.0028 38.2411 16.1724 37.8485 16.1832C30.2251 16.1007 27.91 19.2251 27.3094 21.8752C25.9165 27.3718 29.7173 30.0766 33.7608 30.0934C33.7723 34.547 36.4668 38.4311 41.4811 36.9609C43.8542 36.3527 46.6924 34.0738 46.8183 26.6701ZM31.1698 12.1982C31.4267 12.1982 31.6731 12.0896 31.8547 11.8962C32.0364 11.7028 32.1384 11.4405 32.1385 11.1671V5.88692C32.1385 5.61344 32.0364 5.35116 31.8547 5.15778C31.6731 4.9644 31.4267 4.85576 31.1698 4.85576C30.9129 4.85576 30.6665 4.9644 30.4849 5.15778C30.3032 5.35116 30.2011 5.61344 30.2011 5.88692V11.1671C30.2012 11.4405 30.3032 11.7028 30.4849 11.8962C30.6665 12.0896 30.9129 12.1982 31.1698 12.1982ZM18.4783 21.161C18.6611 21.3481 18.9056 21.4515 19.1593 21.4489C19.4129 21.4462 19.6555 21.3378 19.8349 21.1468C20.0142 20.9559 20.1161 20.6977 20.1185 20.4277C20.121 20.1576 20.0239 19.8974 19.848 19.7028L16.3404 15.9689C16.1576 15.7817 15.9131 15.6784 15.6595 15.681C15.4058 15.6836 15.1633 15.7921 14.9839 15.983C14.8046 16.174 14.7027 16.4322 14.7002 16.7022C14.6978 16.9722 14.7949 17.2325 14.9707 17.4271L18.4783 21.161ZM5.87954 33.84H10.8397C11.0943 33.8363 11.3374 33.7261 11.5163 33.5331C11.6951 33.3401 11.7954 33.0799 11.7954 32.8088C11.7954 32.5377 11.6951 32.2775 11.5163 32.0845C11.3374 31.8915 11.0943 31.7813 10.8397 31.7777H5.87954C5.62488 31.7813 5.38182 31.8915 5.20295 32.0845C5.02407 32.2775 4.92379 32.5377 4.92379 32.8088C4.92379 33.0799 5.02407 33.3401 5.20295 33.5331C5.38182 33.7261 5.62488 33.8363 5.87954 33.84ZM30.6727 53.4622C30.5455 53.4622 30.4195 53.4888 30.302 53.5406C30.1844 53.5924 30.0776 53.6684 29.9877 53.7641C29.8977 53.8599 29.8264 53.9736 29.7777 54.0987C29.729 54.2238 29.704 54.3579 29.704 54.4934V59.773C29.704 59.9084 29.7291 60.0425 29.7778 60.1676C29.8265 60.2927 29.8978 60.4064 29.9877 60.5021C30.0777 60.5979 30.1845 60.6738 30.302 60.7257C30.4195 60.7775 30.5455 60.8042 30.6727 60.8042C30.7999 60.8042 30.9259 60.7775 31.0434 60.7257C31.1609 60.6738 31.2677 60.5979 31.3576 60.5021C31.4476 60.4064 31.5189 60.2927 31.5676 60.1676C31.6163 60.0425 31.6414 59.9084 31.6414 59.773V54.4934C31.6414 54.3579 31.6164 54.2238 31.5677 54.0987C31.519 53.9736 31.4477 53.8599 31.3577 53.7641C31.2678 53.6684 31.161 53.5924 31.0434 53.5406C30.9259 53.4888 30.7999 53.4622 30.6727 53.4622ZM43.5217 44.9038C43.3388 44.7166 43.0943 44.6132 42.8407 44.6159C42.5871 44.6185 42.3445 44.727 42.1651 44.9179C41.9858 45.1089 41.8839 45.3671 41.8815 45.6371C41.879 45.9071 41.9761 46.1674 42.152 46.362L45.6595 50.0958C45.8424 50.283 46.0869 50.3864 46.3405 50.3837C46.5942 50.3811 46.8367 50.2727 47.0161 50.0817C47.1954 49.8908 47.2973 49.6326 47.2998 49.3625C47.3022 49.0925 47.2051 48.8323 47.0293 48.6377L43.5217 44.9038ZM56.5003 31.8205H51.5401C51.2855 31.8241 51.0424 31.9343 50.8635 32.1273C50.6847 32.3203 50.5844 32.5805 50.5844 32.8516C50.5844 33.1227 50.6847 33.3829 50.8635 33.5759C51.0424 33.7689 51.2855 33.8791 51.5401 33.8828H56.5002C56.7549 33.8791 56.998 33.7689 57.1768 33.5759C57.3557 33.3829 57.456 33.1227 57.456 32.8516C57.456 32.5805 57.3557 32.3203 57.1769 32.1273C56.998 31.9343 56.7549 31.8241 56.5003 31.8205Z" fill="url(#paint0_linear_2545_112)"/>
<defs>
<linearGradient id="paint0_linear_2545_112" x1="31" y1="4.16504" x2="31" y2="61.9037" gradientUnits="userSpaceOnUse">
<stop stop-color="#0190D5"/>
<stop offset="1" stop-color="#0F9DCD"/>
</linearGradient>
</defs>
</svg>
