<svg width="65" height="64" viewBox="0 0 65 64" fill="none" xmlns="http://www.w3.org/2000/svg">
<path fill-rule="evenodd" clip-rule="evenodd" d="M51.7246 44.3269L51.7247 27.3557C49.3708 30.7949 45.4645 32.9207 41.4173 35.1221C33.7266 39.3047 25.7729 43.6296 25.7729 57.8669V62.2426C31.6603 64.4992 38.2819 63.7068 43.4707 60.1247C48.6594 56.5426 51.7477 50.6319 51.7246 44.3269Z" fill="url(#paint0_linear_2545_96)"/>
<path fill-rule="evenodd" clip-rule="evenodd" d="M55.1097 15.7419C55.7675 15.1631 56.4017 14.6136 57.0065 14.0922C61.4521 10.2423 64.1363 7.91916 64.1363 4.8467C64.1363 2.26734 62.4439 0.322144 60.1872 0.322144C58.4622 0.401676 56.9121 1.39939 56.1252 2.93646C55.9354 3.32386 55.5412 3.56916 55.1097 3.56832C54.678 3.56895 54.2837 3.32323 54.0942 2.9353C53.3071 1.39866 51.757 0.401467 50.0322 0.322144C47.7812 0.322144 46.083 2.26734 46.083 4.8467C46.083 7.91916 48.7673 10.2423 53.2129 14.0922C53.8177 14.6159 54.4519 15.1631 55.1097 15.7419Z" fill="url(#paint1_linear_2545_96)"/>
<path fill-rule="evenodd" clip-rule="evenodd" d="M24.7474 33.1374C27.4666 34.5345 30.0677 36.1503 32.5249 37.9689C34.9969 36.1531 37.6102 34.5377 40.3397 33.1386C41.0619 32.7459 41.7716 32.36 42.4632 31.9719C41.8591 31.3843 41.1708 30.8898 40.4209 30.505C35.7144 33.8899 29.3716 33.8899 24.6649 30.505C23.9149 30.8891 23.227 31.3835 22.6238 31.9719C23.3155 32.3577 24.0252 32.7448 24.7474 33.1374Z" fill="url(#paint2_linear_2545_96)"/>
<path fill-rule="evenodd" clip-rule="evenodd" d="M51.2734 15.3979C46.7736 11.4927 43.8264 8.81521 43.8264 4.84685C43.8264 4.57603 43.8445 4.3098 43.8705 4.04797C40.5942 1.6192 36.6215 0.312569 32.5432 0.322196C21.9544 0.334022 13.3734 8.91504 13.3616 19.5038C13.3616 25.1974 16.4532 28.2134 20.6405 30.804C21.2898 30.0849 22.036 29.4594 22.8576 28.9457C21.4804 27.5435 20.4276 25.8561 19.7739 24.0024C17.4299 23.813 15.6242 21.8555 15.6242 19.5038C15.6242 17.1522 17.4299 15.1946 19.7739 15.0052C21.6825 9.58834 26.801 5.96491 32.5443 5.96491C38.2876 5.96491 43.4061 9.58834 45.3146 15.0052C47.6586 15.1946 49.4643 17.1522 49.4643 19.5038C49.4643 21.8555 47.6586 23.813 45.3146 24.0024C44.6621 25.853 43.6117 27.538 42.2377 28.9389C43.0606 29.454 43.8089 30.0796 44.4617 30.7984C48.6388 28.2089 51.7247 25.1928 51.7247 19.5038C51.7226 18.1229 51.5713 16.7463 51.2734 15.3979Z" fill="url(#paint3_linear_2545_96)"/>
<path fill-rule="evenodd" clip-rule="evenodd" d="M31.4148 10.4772C32.038 10.4772 32.5432 10.9823 32.5432 11.6055C32.5432 12.2287 33.0483 12.7338 33.6715 12.7338C34.2947 12.7338 34.7998 12.2287 34.7998 11.6055C34.7332 10.0908 33.7693 8.76199 32.3502 8.22839C27.368 8.31713 23.0329 11.6609 21.6819 16.4573C21.5265 16.9983 20.9989 17.3446 20.4407 17.272C19.5667 17.1474 18.7004 17.5439 18.2235 18.2868C17.7465 19.0297 17.7465 19.9824 18.2235 20.7253C18.7004 21.4682 19.5667 21.8647 20.4407 21.7402C21.0032 21.6581 21.5389 22.0072 21.691 22.5549C23.0603 27.4202 27.498 30.7813 32.5523 30.7813C37.6065 30.7813 42.0442 27.4202 43.4136 22.5549C43.5695 22.01 44.1023 21.6628 44.6638 21.7402C45.5378 21.8647 46.4041 21.4682 46.8811 20.7253C47.358 19.9824 47.358 19.0297 46.8811 18.2868C46.4041 17.5439 45.5378 17.1474 44.6638 17.272C44.1057 17.3441 43.5785 16.9981 43.4227 16.4573C42.4345 12.9474 39.811 10.1313 36.3797 8.89751C36.8347 9.72685 37.0679 10.6596 37.0566 11.6055C37.0566 13.4749 35.5411 14.9904 33.6717 14.9904C31.8023 14.9904 30.2867 13.4749 30.2867 11.6055C30.2864 10.9823 30.7917 10.4772 31.4148 10.4772Z" fill="url(#paint4_linear_2545_96)"/>
<path fill-rule="evenodd" clip-rule="evenodd" d="M23.5165 61.2204V57.8669C23.5165 48.7117 26.6115 43.2709 30.7581 39.4594C28.5018 37.8453 26.1326 36.395 23.6689 35.1198C19.6215 32.9185 15.7153 30.7938 13.3616 27.3535V44.327C13.3616 44.7783 13.3797 45.2297 13.409 45.6652C13.9461 45.5253 14.499 45.4548 15.054 45.4554C16.7816 45.5165 18.4121 46.2693 19.5791 47.5446C20.7462 48.8198 21.3517 50.5105 21.2599 52.2367C21.2082 54.3206 20.3959 56.3137 18.9761 57.8399C20.3135 59.1856 21.8437 60.3249 23.5165 61.2204Z" fill="url(#paint5_linear_2545_96)"/>
<path fill-rule="evenodd" clip-rule="evenodd" d="M8.07978 61.4776C8.68454 62.0012 9.32091 62.5484 9.97653 63.1272C10.6343 62.5484 11.2685 61.9989 11.8733 61.4776C16.3189 57.6322 19.0031 55.309 19.0031 52.2366C19.0031 49.6572 17.3107 47.712 15.0539 47.712C13.3289 47.7916 11.7789 48.7893 10.9919 50.3263C10.8021 50.7138 10.4079 50.959 9.97642 50.9582C9.54674 50.9567 9.15525 50.7112 8.96657 50.3252C8.17836 48.7868 6.6257 47.7894 4.89891 47.712C2.64793 47.712 0.949707 49.6572 0.949707 52.2366C0.949916 55.309 3.63413 57.6322 8.07978 61.4776Z" fill="url(#paint6_linear_2545_96)"/>
<defs>
<linearGradient id="paint0_linear_2545_96" x1="38.7488" y1="27.3557" x2="38.7488" y2="63.5087" gradientUnits="userSpaceOnUse">
<stop stop-color="#0190D5"/>
<stop offset="1" stop-color="#0F9DCD"/>
</linearGradient>
<linearGradient id="paint1_linear_2545_96" x1="55.1097" y1="0.322144" x2="55.1097" y2="15.7419" gradientUnits="userSpaceOnUse">
<stop stop-color="#0190D5"/>
<stop offset="1" stop-color="#0F9DCD"/>
</linearGradient>
<linearGradient id="paint2_linear_2545_96" x1="32.5435" y1="30.505" x2="32.5435" y2="37.9689" gradientUnits="userSpaceOnUse">
<stop stop-color="#0190D5"/>
<stop offset="1" stop-color="#0F9DCD"/>
</linearGradient>
<linearGradient id="paint3_linear_2545_96" x1="32.5432" y1="0.322144" x2="32.5432" y2="30.804" gradientUnits="userSpaceOnUse">
<stop stop-color="#0190D5"/>
<stop offset="1" stop-color="#0F9DCD"/>
</linearGradient>
<linearGradient id="paint4_linear_2545_96" x1="32.5523" y1="8.22839" x2="32.5523" y2="30.7813" gradientUnits="userSpaceOnUse">
<stop stop-color="#0190D5"/>
<stop offset="1" stop-color="#0F9DCD"/>
</linearGradient>
<linearGradient id="paint5_linear_2545_96" x1="22.0598" y1="27.3535" x2="22.0598" y2="61.2204" gradientUnits="userSpaceOnUse">
<stop stop-color="#0190D5"/>
<stop offset="1" stop-color="#0F9DCD"/>
</linearGradient>
<linearGradient id="paint6_linear_2545_96" x1="9.97642" y1="47.712" x2="9.97642" y2="63.1272" gradientUnits="userSpaceOnUse">
<stop stop-color="#0190D5"/>
<stop offset="1" stop-color="#0F9DCD"/>
</linearGradient>
</defs>
</svg>
