<svg width="63" height="64" viewBox="0 0 63 64" fill="none" xmlns="http://www.w3.org/2000/svg">
<path d="M53.1168 38.9545C54.426 35.3616 58.3439 22.9191 53.5303 13.5478C51.1875 9.00985 47.122 5.90905 41.4421 4.34392C22.5047 -1.40698 5.33352 11.1503 9.90285 30.4203C9.90275 30.42 7.28434 38.2064 7.28434 38.2064C6.71746 39.7293 7.9859 41.4805 9.6075 41.4351C9.60745 41.4352 11.34 41.4352 11.34 41.4352L10.4934 44.3489C10.3949 44.6737 10.4737 45.0183 10.6902 45.2742L11.6746 46.3865L10.769 48.0403C10.5426 48.4833 10.6607 49.0247 11.0643 49.3102L12.1865 50.1174V53.6414C12.1418 55.8681 14.2082 57.7674 16.4292 57.5001C18.6342 57.2934 21.5774 56.9194 23.999 56.2599V59.0949C23.999 59.6362 24.442 60.0792 24.9834 60.0792H52.5951C53.1898 60.0953 53.693 59.5001 53.5597 58.9177C53.5401 58.7798 50.9906 44.7427 53.1168 38.9545ZM22.5224 30.0754C20.8589 30.0754 18.7228 29.4159 16.5276 26.9944C13.8501 24.0609 15.622 19.651 16.2028 18.3909C15.4894 16.523 16.5081 14.4604 18.3587 13.6266C18.6243 12.022 19.3035 10.8408 20.3864 10.0927C21.8137 9.11813 23.5462 9.21655 24.5404 9.38393C26.6093 7.01933 29.7484 6.65876 32.9765 8.15351C34.3741 6.19856 38.0718 6.638 39.0992 8.51784C41.9048 8.69486 46.4723 10.26 47.3681 15.2213C49.7714 15.4416 51.5079 18.6732 50.331 20.7732C51.0974 22.5321 51.5582 25.4907 49.4845 27.5752C49.2088 28.8844 48.3032 30.8433 46.3246 32.1919C48.3524 35.716 48.1555 39.2893 48.1457 39.4566C48.1063 39.9685 47.6831 40.372 47.1613 40.372H44.0999C43.6471 40.372 43.2534 40.0669 43.1451 39.6338C42.7415 38.0588 41.5406 37.0941 38.7351 36.09C33.0881 42.2608 22.8675 38.3567 22.5224 30.0754Z" fill="url(#paint0_linear_2545_114)"/>
<path d="M41.4619 28.3135C40.7937 28.4942 41.2948 29.2632 41.1862 29.8098C41.1863 31.493 40.7334 33.0779 39.9558 34.4363C42.2986 35.3321 44.0212 36.4247 44.8088 38.4033H46.1574C46.0786 37.2418 45.7537 35.1352 44.5725 33.0975C44.1061 33.2642 43.5556 33.4629 43.0074 33.511C42.5545 33.511 42.1411 33.1862 42.0525 32.7235C41.8023 31.3107 43.8235 31.5145 44.5528 30.9713C45.4978 30.489 46.1475 29.859 46.6003 29.2388C46.0195 29.4061 45.4683 29.475 44.9465 29.475C43.4897 29.475 42.2789 28.9238 41.4619 28.3135Z" fill="url(#paint1_linear_2545_114)"/>
<path d="M31.874 20.4876C35.8608 20.4876 39.2766 23.0175 40.5956 26.5514C40.7054 26.4789 40.8268 26.4014 40.9205 26.3053C41.8753 25.4784 41.5603 24.2775 41.5603 24.2677C41.4127 23.7361 41.7178 23.1947 42.2493 23.0569C42.7711 22.9092 43.3125 23.2144 43.4503 23.7459C43.47 23.8247 43.9031 25.4587 42.9581 26.9451C45.5331 28.6547 50.0371 26.3101 48.8347 22.4958C48.3482 22.8132 48.2806 22.9133 47.8406 22.9387C46.8328 22.9632 46.4776 21.5498 47.378 21.0881C47.6634 20.9306 48.4706 20.3499 48.6872 19.5919C48.9546 18.7641 48.1705 17.3711 47.2893 17.1999C46.4526 16.9833 45.4289 17.4361 45.1139 17.633C43.9985 18.282 43.0061 16.6241 44.0902 15.9497C44.1886 15.8906 44.6808 15.5953 45.3895 15.3886C44.6808 12.0023 41.7375 10.9392 39.9459 10.6144C40.1257 11.276 39.8428 12.0388 39.0895 12.0909C38.5538 12.1229 38.0761 11.7242 38.0363 11.1755C37.98 10.2755 37.3036 8.7476 35.841 8.83276C34.4522 8.71728 33.9989 10.206 34.0693 11.0574C34.0889 11.5987 33.6755 12.0614 33.134 12.0909C31.9859 11.9773 31.9871 11.1772 32.1989 9.96473C30.4073 9.15745 28.852 9.00984 27.592 9.53153C26.6889 9.90358 26.0983 10.5104 25.6331 11.1459C24.7159 12.3315 25.2106 12.8898 24.0188 13.0754C23.0367 13.006 22.8065 12.0799 23.3199 11.2444C22.0564 11.1806 20.824 11.854 20.475 13.2328C22.1353 13.3342 23.4734 15.3024 23.497 15.4773C23.7431 15.9595 23.5659 16.5501 23.0836 16.8061C21.6744 17.4057 21.7396 15.5036 20.3371 15.2016C19.5202 14.9605 17.9735 15.9623 17.955 16.9242C17.8566 17.9676 18.8015 19.2178 19.1362 19.582C19.5103 19.9758 19.4906 20.596 19.0969 20.97C18.5664 21.4491 17.8414 21.248 17.453 20.6451C17.0002 22.1119 16.6852 24.248 17.9747 25.6655C19.5202 27.3586 21.105 28.1657 22.7095 28.0969C23.5167 23.7755 27.3164 20.4876 31.874 20.4876Z" fill="url(#paint2_linear_2545_114)"/>
<path d="M31.8741 37.1531C35.9198 37.1531 39.2175 33.8554 39.2175 29.8097C38.9163 20.5525 25.8788 19.8752 24.57 28.9829C24.0467 33.287 27.5278 37.182 31.8741 37.1531ZM31.2047 24.4645C31.5984 24.1101 32.1989 24.12 32.573 24.494C32.8782 24.809 35.6344 27.6539 35.6344 29.9475C34.7943 37.5406 22.522 32.5698 31.2047 24.4645Z" fill="url(#paint3_linear_2545_114)"/>
<path d="M31.8742 31.739C32.8586 31.739 33.6658 30.9319 33.6658 29.9475C33.6658 29.1009 32.7404 27.6933 31.8446 26.6301C31.067 27.5062 30.0728 28.8647 30.0728 29.9475C30.0728 30.9319 30.88 31.739 31.8742 31.739Z" fill="url(#paint4_linear_2545_114)"/>
<defs>
<linearGradient id="paint0_linear_2545_114" x1="31.5051" y1="2.94043" x2="31.5051" y2="60.0795" gradientUnits="userSpaceOnUse">
<stop stop-color="#0190D5"/>
<stop offset="1" stop-color="#0F9DCD"/>
</linearGradient>
<linearGradient id="paint1_linear_2545_114" x1="43.2781" y1="28.3135" x2="43.2781" y2="38.4033" gradientUnits="userSpaceOnUse">
<stop stop-color="#0190D5"/>
<stop offset="1" stop-color="#0F9DCD"/>
</linearGradient>
<linearGradient id="paint2_linear_2545_114" x1="33.0464" y1="8.82642" x2="33.0464" y2="28.101" gradientUnits="userSpaceOnUse">
<stop stop-color="#0190D5"/>
<stop offset="1" stop-color="#0F9DCD"/>
</linearGradient>
<linearGradient id="paint3_linear_2545_114" x1="31.8677" y1="22.4979" x2="31.8677" y2="37.1532" gradientUnits="userSpaceOnUse">
<stop stop-color="#0190D5"/>
<stop offset="1" stop-color="#0F9DCD"/>
</linearGradient>
<linearGradient id="paint4_linear_2545_114" x1="31.8693" y1="26.6301" x2="31.8693" y2="31.739" gradientUnits="userSpaceOnUse">
<stop stop-color="#0190D5"/>
<stop offset="1" stop-color="#0F9DCD"/>
</linearGradient>
</defs>
</svg>
