<svg width="64" height="64" viewBox="0 0 64 64" fill="none" xmlns="http://www.w3.org/2000/svg">
<path fill-rule="evenodd" clip-rule="evenodd" d="M27.4719 25.2545C26.7631 16.5963 24.9215 8.83975 23.3359 6.06547C22.8316 5.18324 22.1594 4.61805 21.3857 4.29815C20.2999 3.84855 18.9609 3.88482 17.4739 4.41035C12.8608 6.04016 6.36611 12.7407 2.76505 18.7243C1.02631 21.6131 0.604976 24.9891 0.628273 28.5796C0.65015 31.9639 1.06154 35.5448 0.975737 39.0536C0.846184 44.3441 0.241603 48.7427 0.055228 52.3107C-0.076598 54.8316 0.00522516 56.9604 0.546166 58.7183C1.64026 62.2751 5.1615 63.6304 9.4484 62.8494C15.1493 61.8112 22.285 56.8127 25.376 48.7354C26.7682 45.0979 27.5503 39.0502 27.7682 34.2902L27.8091 34.1297C29.3828 33.2629 30.63 32.2512 31.6193 31.1929C32.6518 32.3353 33.8612 33.3012 35.4042 34.1448L35.434 34.2615L35.4357 34.3361C35.5667 39.6188 36.2707 44.7122 37.8103 48.7354C40.9017 56.8127 48.037 61.8112 53.7379 62.8494C58.0251 63.6304 61.5464 62.2751 62.6405 58.7183C63.1811 56.9604 63.2632 54.8316 63.1314 52.3107C62.9447 48.7427 62.3404 44.3441 62.2109 39.0536C62.1248 35.5448 62.5365 31.9639 62.5584 28.5796C62.5816 24.9891 62.16 21.6131 60.4216 18.7243C56.8205 12.7407 50.3258 6.04016 45.7128 4.41035C44.2255 3.88482 42.8865 3.84855 41.8006 4.29815C41.0273 4.61805 40.3551 5.18324 39.8505 6.06547C38.2652 8.83948 36.4239 16.5966 35.7147 25.2547C35.1999 23.8454 35.1582 22.6216 35.155 22.3977C35.1547 22.3821 36.1886 0 36.1886 0H27.4892L28.0319 22.3732C28.0313 22.5076 28.0109 23.7794 27.4719 25.2545ZM25.0056 35.3198C24.0902 35.5993 23.1577 35.7893 22.225 35.9059L22.1503 36.0473C22.1503 36.0473 19.4302 41.2718 11.9534 43.7327C11.9534 43.7327 12.5148 45.2801 12.5151 45.2801C15.0638 44.8451 22.306 42.9554 25.0056 35.3198ZM38.2063 35.3277C40.9051 42.9543 48.1274 44.844 50.6719 45.2798L51.2333 43.7327C43.7564 41.2718 41.0363 36.0473 41.0363 36.0473L40.9613 35.9059C40.0377 35.7903 39.1138 35.603 38.2063 35.3277ZM32.6125 28.7865L30.6573 28.78C29.6453 30.1311 28.2004 31.4588 26.142 32.5025C23.3685 33.909 20.2212 34.0556 17.4477 33.7532C14.6186 33.4445 12.1625 32.6609 10.8189 32.1633L11.6517 30.6334C18.866 33.164 23.2782 32.4054 25.9701 30.7005C30.3664 27.9158 30.3993 22.3615 30.3993 22.3615V22.3492C30.3991 22.3372 29.9101 2.17438 29.9101 2.17438H33.7186L32.7873 22.3383C32.7873 22.3615 32.8202 27.9158 37.2162 30.7005C39.9081 32.4054 44.3206 33.164 51.535 30.6334C51.5347 30.6334 52.3677 32.1633 52.3677 32.1633C51.0241 32.6609 48.5678 33.4445 45.7389 33.7532C42.9654 34.0556 39.8181 33.909 37.0446 32.5025C35.0897 31.5112 33.7419 30.3174 32.6125 28.7865ZM23.9231 29.2987C22.1722 28.631 19.6481 26.973 17.9171 22.7795C17.9171 22.7795 16.492 23.4869 16.492 23.4872C16.7233 24.2298 17.1378 25.4037 17.7551 26.5884C18.3878 27.8033 19.2245 29.0482 20.3422 29.7635L20.8269 30.0737C22.0497 29.9829 23.0705 29.7066 23.9231 29.2987ZM42.3412 30.0724L42.7748 29.807C43.9109 29.1119 44.7599 27.8651 45.4028 26.6432C46.0361 25.4397 46.4597 24.241 46.6946 23.4869L45.2695 22.7795C43.5351 26.9795 41.004 28.632 39.2607 29.2974C40.1096 29.704 41.125 29.98 42.3412 30.0724Z" fill="url(#paint0_linear_2545_62)"/>
<defs>
<linearGradient id="paint0_linear_2545_62" x1="31.5933" y1="0" x2="31.5933" y2="63.0632" gradientUnits="userSpaceOnUse">
<stop stop-color="#0190D5"/>
<stop offset="1" stop-color="#0F9DCD"/>
</linearGradient>
</defs>
</svg>
