<svg width="60" height="61" viewBox="0 0 60 61" fill="none" xmlns="http://www.w3.org/2000/svg">
<g clip-path="url(#clip0_2545_130)">
<path d="M56.9981 42.6363C55.6086 44.0501 53.3446 44.0495 51.9557 42.6363C49.1749 39.8091 44.694 39.83 41.9375 42.6353L35.5235 49.1556V31.2406C36.9165 29.8244 40.6577 26.0207 40.6577 26.0207C42.1405 24.5133 45.0915 23.6487 47.6239 26.0597C50.3917 28.8338 54.845 28.825 57.6016 26.0211C57.6016 26.0211 59.4843 24.108 59.4844 24.1079C60.1712 23.4104 60.1717 22.2788 59.4857 21.5805C58.7995 20.8823 57.6864 20.8818 56.9997 21.5792L55.1153 23.4941C53.7208 24.9124 51.4646 24.9105 50.0723 23.4944C48.4094 21.7963 46.5296 21.2746 45.4951 21.1027L46.6292 19.9496C50.3949 16.12 52.4687 11.0296 52.4687 5.61569C52.4687 4.62873 51.6816 3.82858 50.7108 3.82858C49.7401 3.82858 48.953 4.62873 48.953 5.61569C48.953 8.53797 48.2194 11.3456 46.8409 13.8219C46.7408 10.4297 45.3952 7.25519 43.0249 4.84426C42.338 4.14681 41.225 4.14752 40.5389 4.84581C39.8527 5.54409 39.8534 6.67569 40.5403 7.37314C44.2632 11.1597 44.268 17.2936 40.5382 21.0872L35.5232 26.1857V1.78711C35.5232 0.800148 34.7362 0 33.7654 0H26.234C25.2632 0 24.4762 0.800148 24.4762 1.78711V12.7859L18.0624 6.26561C15.3059 3.46032 10.825 3.43935 8.04417 6.26656C6.65526 7.6798 4.3912 7.6804 3.00182 6.26656C2.32237 5.57507 1.20803 5.56113 0.514868 6.26572C-0.178882 6.97104 -0.170796 8.11729 0.53397 8.81224C3.3426 11.6493 7.82467 11.5581 10.533 8.79174C11.9221 7.37826 14.186 7.3779 15.5759 8.79234L18.4996 11.7648C14.6525 11.559 10.8802 12.9552 8.04651 15.8351C7.36706 16.5258 7.35112 17.6583 8.04557 18.3643C8.74483 19.0752 9.88167 19.0596 10.5623 18.3322C14.3923 14.4713 20.4414 14.3213 24.4764 17.8828V49.1558L19.4615 44.0573C15.7318 40.2636 15.7366 34.1296 19.4594 30.3432C20.1462 29.6458 20.1469 28.5142 19.4608 27.8159C18.7747 27.1176 17.6617 27.1169 16.9748 27.8143C14.6044 30.2253 13.2589 33.3998 13.1588 36.7919C11.7803 34.3158 11.0466 31.508 11.0466 28.5858C11.0466 27.5988 10.2596 26.7987 9.28881 26.7987C8.31803 26.7987 7.531 27.5988 7.531 28.5858C7.531 33.9996 9.60475 39.09 13.3705 42.9197L14.5046 44.0727C13.4701 44.2447 11.5904 44.7663 9.92737 46.4645C8.53506 47.8806 6.27874 47.8825 4.88432 46.4641L2.99995 44.5493C2.31323 43.8519 1.2003 43.8522 0.513931 44.5506C-0.172085 45.2489 -0.171616 46.3804 0.51522 47.0779C0.515337 47.0781 2.39807 48.9912 2.39807 48.9912C5.15467 51.7951 9.60792 51.8039 12.3758 49.0298C14.9082 46.6189 17.8593 47.4835 19.342 48.9907C19.342 48.9907 23.0832 52.7944 24.4762 54.2107V59.2129C24.4762 60.1999 25.2632 61 26.234 61H33.7654C34.7362 61 35.5232 60.1999 35.5232 59.2129V54.2524C39.5582 50.6909 45.6073 50.8409 49.4374 54.7017C50.118 55.4292 51.2547 55.4448 51.9541 54.7339C52.6485 54.0279 52.6326 52.8953 51.9532 52.2047C49.1194 49.3248 45.3472 47.9286 41.5 48.1344L44.4237 45.1619C45.8138 43.7475 48.0776 43.7478 49.4667 45.1613C52.175 47.9275 56.6571 48.0189 59.4657 45.1818C60.1705 44.4869 60.1785 43.3406 59.4848 42.6353C58.792 41.9307 57.6775 41.9448 56.9981 42.6363Z" fill="url(#paint0_linear_2545_130)"/>
</g>
<defs>
<linearGradient id="paint0_linear_2545_130" x1="29.9998" y1="0" x2="29.9998" y2="61" gradientUnits="userSpaceOnUse">
<stop stop-color="#0190D5"/>
<stop offset="1" stop-color="#0F9DCD"/>
</linearGradient>
<clipPath id="clip0_2545_130">
<rect width="60" height="61" fill="white"/>
</clipPath>
</defs>
</svg>
