<svg width="50" height="50" viewBox="0 0 50 50" fill="none" xmlns="http://www.w3.org/2000/svg">
<path d="M25 50C18.3233 50 12.0405 47.4025 7.32371 42.6763C2.6069 37.9501 0 31.6767 0 25C0 18.3233 2.59753 12.0405 7.32371 7.32371C12.0499 2.59752 18.3233 0 25 0C31.6767 0 37.9595 2.59752 42.6763 7.32371C47.4025 12.0499 50 18.3233 50 25C50 31.6767 47.4025 37.9595 42.6763 42.6763C37.9501 47.4025 31.6767 50 25 50ZM25 3.07577C19.1485 3.07577 13.644 5.35446 9.49925 9.49925C5.35446 13.644 3.07577 19.1485 3.07577 25C3.07577 30.8515 5.35446 36.356 9.49925 40.5008C13.644 44.6455 19.1485 46.9242 25 46.9242C30.8515 46.9242 36.356 44.6455 40.5008 40.5008C44.6455 36.356 46.9242 30.8515 46.9242 25C46.9242 19.1485 44.6455 13.644 40.5008 9.49925C36.356 5.35446 30.8515 3.07577 25 3.07577Z" fill="#8CC63F"/>
<path d="M35.4096 28.7231V33.0835C35.4096 35.3622 33.5716 37.2377 31.2835 37.2377C28.9955 37.2377 31.2554 37.2377 31.2367 37.2377C29.6519 37.2377 28.1234 37.0408 26.6605 36.6657C20.1245 35.0059 14.9857 29.8577 13.3259 23.3311C12.9508 21.8682 12.7539 20.3303 12.7539 18.755C12.7539 17.1796 12.7539 18.7268 12.7539 18.7081C12.7539 16.4294 14.6294 14.582 16.9081 14.582H21.2685C22.3469 14.582 23.219 15.4541 23.219 16.5325V21.39C23.219 22.4684 22.3469 23.3405 21.2685 23.3405H19.8057C21.0529 26.4631 23.5472 28.9481 26.6605 30.1953V28.7324C26.6605 27.654 27.5326 26.782 28.611 26.782H33.4685C34.5469 26.782 35.4189 27.654 35.4189 28.7324L35.4096 28.7231Z" fill="#008FD5"/>
</svg>
