<svg width="20" height="20" viewBox="0 0 20 20" fill="none" xmlns="http://www.w3.org/2000/svg">
<g clip-path="url(#clip0_1393_1226)">
<path d="M9.7931 13.3379L17.7964 5.33469C18.1328 4.99836 18.678 4.99836 19.0144 5.33469C19.3507 5.67102 19.3507 6.21628 19.0143 6.55262L10.402 15.1647C10.2405 15.3263 10.0215 15.417 9.7931 15.417C9.56465 15.417 9.34561 15.3262 9.18411 15.1647L0.572239 6.55262C0.404072 6.38451 0.320019 6.16409 0.320019 5.94368C0.320019 5.72327 0.404074 5.50286 0.572297 5.33469C0.908627 4.99836 1.45389 4.99836 1.79022 5.33469L9.7931 13.3379Z" fill="#666666"/>
</g>
<defs>
<clipPath id="clip0_1393_1226">
<rect width="18.9466" height="18.9466" fill="white" transform="matrix(4.37114e-08 -1 -1 -4.37114e-08 19.2666 19.7227)"/>
</clipPath>
</defs>
</svg>
