<svg width="50" height="50" viewBox="0 0 50 50" fill="none" xmlns="http://www.w3.org/2000/svg">
<path d="M25 50C18.3233 50 12.0405 47.4025 7.3237 42.6763C2.59752 37.9501 0 31.6767 0 25C0 18.3233 2.59752 12.0405 7.3237 7.32371C12.0499 2.59752 18.3233 0 25 0C31.6767 0 37.9595 2.59752 42.6763 7.32371C47.4025 12.0499 50 18.3233 50 25C50 31.6767 47.4025 37.9595 42.6763 42.6763C37.9501 47.4025 31.6767 50 25 50ZM25 3.07577C19.1485 3.07577 13.644 5.35446 9.49925 9.49925C5.35446 13.644 3.07577 19.1485 3.07577 25C3.07577 30.8515 5.35446 36.356 9.49925 40.5008C13.644 44.6455 19.1485 46.9242 25 46.9242C30.8515 46.9242 36.356 44.6455 40.5008 40.5008C44.6455 36.356 46.9242 30.8515 46.9242 25C46.9242 19.1485 44.6455 13.644 40.5008 9.49925C36.356 5.35446 30.8515 3.07577 25 3.07577Z" fill="#8CC63F"/>
<path d="M37.5186 33.317C35.6056 31.5446 31.7797 28.0563 28.3007 25.3368C28.0756 25.168 28.0756 24.8305 28.3007 24.6617C31.7797 21.9235 35.6056 18.4539 37.5186 16.6815C37.7812 16.4377 38.2125 16.5971 38.2407 16.9535C38.6251 21.0233 38.6251 28.9752 38.2407 33.045C38.2032 33.4014 37.7812 33.5608 37.5186 33.317ZM36.9466 16.0251C34.5741 18.2288 29.1822 23.1238 25.2531 25.8526C21.3239 28.5814 24.9061 25.9557 24.7561 25.8526C20.827 23.1238 15.435 18.2288 13.0625 16.0251C12.7999 15.7813 12.9312 15.3312 13.2969 15.2843C15.7069 14.9374 20.0299 14.7217 25.0092 14.7217C29.9886 14.7217 34.3116 14.9374 36.7215 15.2843C37.0779 15.3406 37.2185 15.7813 36.956 16.0251H36.9466ZM11.7591 33.045C11.3746 28.9752 11.3746 21.0233 11.7591 16.9535C11.7966 16.5971 12.2185 16.4377 12.4811 16.6815C14.3941 18.4539 18.2107 21.9329 21.699 24.6617C21.9241 24.8305 21.9147 25.168 21.699 25.3368C18.2294 28.0656 14.3941 31.5446 12.4811 33.317C12.2185 33.5608 11.7872 33.4014 11.7591 33.045ZM13.0531 33.964C15.013 32.1448 19.0359 28.4876 22.5805 25.7401C22.7305 25.6182 22.9462 25.6182 23.1056 25.7401C23.6777 26.162 24.2309 26.5653 24.7561 26.9122C24.9061 27.006 25.0936 27.006 25.2343 26.9122C25.7594 26.5653 26.3127 26.1714 26.8847 25.7401C27.4567 25.3087 27.2504 25.6275 27.4098 25.7401C30.9545 28.4876 34.9774 32.1448 36.9372 33.964C37.1998 34.2078 37.0685 34.6579 36.7028 34.7048C34.2928 35.0518 29.9699 35.2674 24.9905 35.2674C20.0111 35.2674 15.6882 35.0518 13.2782 34.7048C12.9218 34.6485 12.7812 34.2078 13.0438 33.964H13.0531Z" fill="#008FD5"/>
</svg>
