<svg width="190" height="181" viewBox="0 0 190 181" fill="none" xmlns="http://www.w3.org/2000/svg">
<path d="M170.56 48.4097C175.662 59.0921 179.417 70.5536 180.399 82.4499C186.344 154.589 109.328 204.916 45.8888 169.074C-9.24453 137.927 -16.1168 60.7124 32.9985 20.4599C65.8377 -6.45446 113.692 -6.96179 146.749 19.8076L131.615 31.2666C107.242 14.4418 74.496 14.315 50.0199 31.0103C17.1832 53.4079 8.73462 98.4153 31.36 131.322C54.0086 164.259 99.6399 172.289 132.342 149.053C159.404 129.823 169.851 93.9865 157.165 63.0808C161.071 57.9764 165.696 53.4959 169.915 48.6633L170.565 48.4122L170.56 48.4097Z" fill="#008FD5"/>
<path d="M88.5043 88.5273C89.4776 86.8241 90.8002 85.1675 92.0297 83.6378C113.734 56.6328 142.47 31.0592 172.975 14.4545C175.706 12.9688 180.714 9.96103 183.497 9.18968C188.425 7.82041 191.653 13.6366 189.051 17.5891C175.636 29.9721 162.347 42.5078 150.497 56.4283C133.118 76.838 118.478 99.4737 105.288 122.78C102.614 127.506 100.225 132.872 97.4162 137.428C93.0185 144.564 83.6277 144.631 78.9737 137.79L43.0802 70.6646C41.5996 67.354 42.1923 64.059 44.8998 61.6129C46.031 60.5905 50.2578 57.6966 51.609 57.1919C57.2776 55.0772 60.9454 60.5258 64.4398 64.0564C71.6848 71.3738 78.8029 78.8984 85.9107 86.3297C86.286 86.7206 88.1523 88.7602 88.5017 88.5221L88.5043 88.5273Z" fill="#8CC63F"/>
</svg>
