<?xml version="1.0" encoding="UTF-8"?>
<svg id="Layer_1" data-name="Layer 1" xmlns="http://www.w3.org/2000/svg" viewBox="0 0 51 51">
  <path d="M27.67,0c1.6.36,3.22.54,4.81.97,8.11,2.21,15.12,9.12,17.45,17.22l1.07,5.16v4.31c-.36,1.6-.54,3.22-.97,4.81-2.21,8.12-9.11,15.13-17.2,17.46l-5.16,1.07h-4.3l-5.16-1.07c-8.09-2.33-14.99-9.34-17.2-17.46-.43-1.59-.61-3.21-.97-4.81.09-1.4-.12-2.92,0-4.31C1.06,11.22,11.26,1.03,23.37,0h4.3ZM23.77,4.37C8.42,5.71-.49,22.52,7.17,36.04c7.95,14.03,28.57,14.12,36.62.15,8.53-14.8-3.08-33.29-20.02-31.82Z"/>
  <path d="M25.63,12.13c.34-1.6,3.17-1.8,3.56.74.44,2.88.33,10.72.07,13.77-.09,1.08-.23,2.22-1.47,2.38-3.59.47-8.26-.33-11.97-.06-2.03-.45-1.08-3.35-.05-3.35h9.51l.34-.34v-13.15Z"/>
</svg>