<svg width="50" height="77" viewBox="0 0 50 77" fill="none" xmlns="http://www.w3.org/2000/svg">
<path fill-rule="evenodd" clip-rule="evenodd" d="M23.3678 47.4902C20.6317 47.1962 18.5448 46.0274 18.4404 43.2889C18.3342 40.5028 20.6992 39.3433 23.3751 39.1075L23.3678 47.4902ZM7.60218 13.7852C6.81201 13.408 6.88405 13.3758 6.41408 12.7179C6.23127 12.4619 5.86167 11.861 5.38885 11.8442C3.51053 15.9338 7.5028 20.5906 10.7869 20.9372L12.6034 20.9602C12.766 21.4693 12.6343 21.0137 12.8298 21.5272C13.0412 22.0825 12.8925 21.5355 13.0227 22.1859C14.2494 24.7406 17.3688 26.2839 20.2711 26.0144C21.6988 25.8818 22.2127 25.457 23.3729 25.1822L23.3795 36.4509C19.1603 36.738 15.6848 38.9526 15.8003 43.2862C15.9116 47.465 19.3025 49.7691 23.3568 50.1585C23.4218 52.1259 22.8272 54.9109 24.7265 55.0876C27.015 55.3006 26.3632 52.1892 26.4651 50.4105C28.1406 50.7909 28.589 51.7175 28.6483 53.6925C29.1332 54.1029 29.0288 54.0332 29.4175 54.5494L30.4155 54.5038C32.0668 54.0419 31.0417 51.1412 30.3599 50.0664C29.5613 48.8072 28.4751 48.0194 26.4341 47.662L26.4412 38.9965C31.5346 38.6554 35.7465 38.1293 38.1186 35.1632C41.3747 31.092 37.7547 23.4202 35.5567 26.6756C35.0092 28.0055 39.0736 31.2104 35.2848 34.3072C33.495 35.77 29.2303 36.2416 26.4682 36.3449L26.4305 25.1821C29.0872 25.837 30.3209 26.717 33.2892 25.3941C34.3118 24.9382 35.1281 24.3931 35.7643 23.7124C36.6973 22.7146 36.691 22.1911 37.3437 21.0849C42.4658 20.957 45.0473 17.6558 44.7075 12.4247L44.2645 11.8399C43.5769 12.4551 43.3865 13.0082 42.8933 13.4379C42.6382 13.6603 41.5885 14.4019 40.9433 14.5597C38.5177 15.6606 36.1208 14.5799 33.8941 13.9019C30.56 12.8868 29.8654 12.9257 26.466 13.5884L26.4438 11.8451C27.8634 10.9864 31.5071 9.89896 30.8176 5.1319C30.4224 2.39878 28.0177 -0.016431 24.8865 8.42061e-05C18.351 0.0346807 16.2907 9.62973 23.3622 11.7427L23.3564 13.5871C19.5444 12.7699 18.8166 13.0293 15.2937 14.1237C12.0318 15.137 10.3434 15.678 7.60189 13.7852H7.60218Z" fill="#666666"/>
<path fill-rule="evenodd" clip-rule="evenodd" d="M16.6363 57.9318C15.9277 57.5648 15.1768 56.9851 14.7504 56.3252C13.564 55.3298 10.3308 52.2667 9.26055 52.256C8.32972 52.2468 7.62313 52.9512 7.73005 53.923C7.83 54.8318 11.1639 58.2986 12.0464 59.2899C12.5744 59.8832 13.481 60.537 12.6148 61.2878C11.9329 61.7745 11.7578 61.5159 11.2905 61.0448L8.28246 57.7859L6.31188 55.4355L4.30286 45.8091C4.0426 45.5981 4.02438 46.1954 4.07692 45.2904L3.842 44.943L3.73024 44.665L3.45603 44.5606L2.33313 44.5146C1.50154 44.8099 2.11801 44.7753 1.44146 45.1441C1.40088 45.1663 1.34749 45.1888 1.30463 45.2091C0.315572 45.6804 -0.11254 45.3092 0.0251342 48.0381L0.607294 59.2748C0.949985 61.4537 10.2881 68.4019 11.8737 71.7274C12.5471 73.1398 12.4356 75.0679 12.9383 76.5651L13.8045 76.7559C14.1264 76.7805 14.6563 76.7543 14.9987 76.7515C15.7236 76.7455 16.4497 76.7496 17.1746 76.7496C18.4461 76.7496 20.491 76.9195 21.6488 76.6346C21.7418 74.3119 19.7553 64.6387 18.9156 61.7179C18.2942 59.5569 18.0123 58.9805 16.6364 57.932L16.6363 57.9318Z" fill="#666666"/>
<path fill-rule="evenodd" clip-rule="evenodd" d="M43.4278 55.6037C43.2454 56.214 43.0561 56.5573 42.6546 56.8984C42.1853 57.2972 42.1678 57.1032 41.6456 57.6761C40.8376 58.5626 40.6881 59.1093 39.9028 59.5786C39.2389 60.1481 38.7148 61.0883 37.987 61.4397C37.3049 61.8211 37.1436 61.5381 36.7917 61.4763C36.7333 60.9451 36.951 61.4163 36.6006 60.6727L36.9433 60.1986L41.6738 54.9342C42.4147 53.799 42.0727 52.0454 40.3715 52.2675C39.5382 52.3762 38.1041 53.8945 37.3697 54.3229L33.1027 57.9363C31.9298 59.3798 31.8364 58.5656 30.936 61.5869C30.0861 64.4389 28.0222 74.5701 28.1986 76.7217L36.9198 76.7429C37.7238 71.2218 37.7148 70.9956 42.452 66.5884C43.8606 65.2779 45.1579 64.1043 46.507 62.731C47.2254 61.9996 47.6372 61.5326 48.438 60.7079C49.3818 59.736 49.2335 59.2086 49.3011 57.5155C49.3521 56.2385 49.9554 47.0286 49.7861 46.277C49.5488 45.2237 48.9419 45.6051 48.1285 44.9477C47.9315 44.7884 48.101 44.756 47.5966 44.4845C44.6073 42.8754 44.9836 51.5102 43.4278 55.6041V55.6037Z" fill="#666666"/>
<path fill-rule="evenodd" clip-rule="evenodd" d="M12.1251 26.1789L11.9606 26.3983C12.0254 26.7202 12.1077 26.6648 11.8012 26.6379L11.6873 26.9121L11.5725 27.2199L11.3244 27.5348L10.9905 27.8039C10.2962 30.4337 9.70716 31.7053 11.1282 34.3112C11.9104 35.7457 13.7225 37.6611 15.9885 37.7959C16.8074 37.0762 17.5328 36.5417 18.5279 35.8293C15.9597 35.1651 14.3588 34.879 13.3997 33.0231C11.8223 29.9701 14.1112 28.9608 14.4215 26.9199L14.0285 26.2636C13.6956 26.2976 13.7665 26.3817 13.7665 26.0674L13.647 26.0991L12.4397 26.1091L12.1252 26.179L12.1251 26.1789Z" fill="#666666"/>
<path fill-rule="evenodd" clip-rule="evenodd" d="M23.3678 47.49L23.3751 39.1074C20.6993 39.3432 18.3342 40.5027 18.4405 43.2888C18.5448 46.0273 20.6317 47.196 23.3678 47.49Z" fill="white"/>
<path fill-rule="evenodd" clip-rule="evenodd" d="M30.6276 40.2908L30.5034 40.6316C30.8709 40.537 30.7855 40.4844 30.6868 40.8582L30.7744 41.1593L30.9616 41.4664C32.2129 43.7003 30.7405 45.7737 29.3364 46.5454L31.4118 48.3576C33.7688 46.5514 34.8955 43.5469 33.2088 39.9268L30.6276 40.2909V40.2908Z" fill="#666666"/>
<path fill-rule="evenodd" clip-rule="evenodd" d="M18.7333 51.4355L18.5669 53.6642C19.0663 54.102 18.9043 54.015 19.3471 54.5423L20.339 54.5092C21.4079 54.2301 21.1632 53.0017 21.4821 51.653L19.3593 51.0192L18.9618 51.0156L18.7335 51.4356L18.7333 51.4355Z" fill="#666666"/>
<path fill-rule="evenodd" clip-rule="evenodd" d="M39.9028 59.5784C40.6883 59.1092 40.8378 58.5624 41.6456 57.6759C42.1677 57.103 42.1853 57.297 42.6546 56.8983C43.0561 56.5571 43.2455 56.214 43.4278 55.6035C42.8178 56.311 42.5407 56.897 41.7265 57.5553C40.8335 58.2773 40.6474 58.5444 39.9028 59.5783V59.5784Z" fill="#666666"/>
<path fill-rule="evenodd" clip-rule="evenodd" d="M40.9434 14.5601C41.5886 14.4025 42.6383 13.6607 42.8934 13.4383C43.3866 13.0086 43.5771 12.4555 44.2646 11.8403L44.7075 12.4251L44.2646 11.5176C43.4877 12.6141 42.6719 13.5451 41.5072 14.2352L40.9434 14.5599V14.5601Z" fill="#666666"/>
<path fill-rule="evenodd" clip-rule="evenodd" d="M13.0229 22.1851C12.8927 21.5348 13.0414 22.0818 12.83 21.5265C12.6345 21.013 12.7662 21.4686 12.6036 20.9594L10.7871 20.9365C11.4191 21.2681 11.6042 21.174 12.4288 21.1737C12.5105 21.315 12.5857 21.4613 12.7002 21.6602L13.0229 22.1851Z" fill="#666666"/>
<path fill-rule="evenodd" clip-rule="evenodd" d="M7.60214 13.7847C7.56811 13.7431 7.51657 13.6252 7.49877 13.6608C7.49863 13.6609 5.94791 12.1887 5.66131 11.4648L5.38867 11.8437C5.86149 11.8606 6.23109 12.4615 6.4139 12.7174C6.88373 13.3755 6.81183 13.4077 7.60199 13.7847H7.60214Z" fill="#666666"/>
<path fill-rule="evenodd" clip-rule="evenodd" d="M33.1022 57.9367L37.3692 54.3232C36.5396 54.6748 37.0745 54.5648 36.3594 55.1443C36.0547 55.3912 36.0077 55.3473 35.7441 55.5327C35.2243 55.898 35.6818 55.5528 35.2507 56.0129C34.9576 56.3259 33.4556 57.3497 33.1021 57.9367H33.1022Z" fill="#666666"/>
<path fill-rule="evenodd" clip-rule="evenodd" d="M3.45576 44.5598L3.72997 44.6642L3.84173 44.9422L4.07665 45.2896C4.02411 46.1946 4.04219 45.5973 4.30259 45.8083L4.07665 45.2896L3.84173 44.9422L3.72997 44.6642C3.80956 44.3141 3.82835 44.4411 3.45576 44.5598C3.39198 44.4724 3.58674 44.2345 2.93368 44.2235C2.01338 44.2083 2.46499 44.3934 2.33301 44.5138L3.4559 44.5598H3.45576Z" fill="#666666"/>
<path fill-rule="evenodd" clip-rule="evenodd" d="M12.1248 26.1787C11.8092 26.1071 11.8957 26.0645 11.9604 26.3981C11.6733 26.3984 11.7479 26.3356 11.8009 26.6377L11.687 26.9119L11.5723 27.2197C11.1672 27.2488 11.344 27.0185 11.3241 27.5346L11.5723 27.2197L11.687 26.9119L11.8009 26.6377C12.1074 26.6646 12.0251 26.7201 11.9604 26.3981L12.1248 26.1787L12.4393 26.1088L13.6466 26.0988C13.5831 26.042 13.7884 25.7874 13.0263 25.8215C12.4752 25.846 12.6308 25.952 12.4392 26.1089L12.1247 26.1788L12.1248 26.1787Z" fill="#666666"/>
<path fill-rule="evenodd" clip-rule="evenodd" d="M37.9865 61.4403C36.8639 61.4356 36.8477 61.431 36.9428 60.1992L36.6001 60.6733C36.9505 61.4169 36.7327 60.9457 36.7912 61.4769C37.1431 61.5385 37.3046 61.8217 37.9865 61.4403Z" fill="#666666"/>
<path fill-rule="evenodd" clip-rule="evenodd" d="M20.339 54.509L19.3471 54.5422C18.9045 54.0149 19.0665 54.1019 18.5669 53.6641C18.7672 54.0714 18.8919 54.3494 19.1721 54.5379C19.237 54.5817 19.6082 54.744 19.7587 54.7435C20.6492 54.7417 20.1673 54.6669 20.339 54.5089V54.509Z" fill="#666666"/>
<path fill-rule="evenodd" clip-rule="evenodd" d="M30.4157 54.5038L29.4177 54.5493C29.029 54.0331 29.1334 54.1028 28.6484 53.6924C28.8564 54.0916 28.988 54.3645 29.2518 54.5381C29.7691 54.8783 30.039 54.8452 30.4157 54.5038Z" fill="#666666"/>
<path fill-rule="evenodd" clip-rule="evenodd" d="M16.6364 57.9319C16.3809 57.5792 16.6163 57.8044 16.2199 57.4999C15.9554 57.2966 16.0549 57.439 15.7408 57.1747C15.2098 56.7281 15.3877 56.7181 14.7505 56.3252C15.177 56.9851 15.9279 57.565 16.6364 57.9319Z" fill="#666666"/>
<path fill-rule="evenodd" clip-rule="evenodd" d="M30.5037 40.6319C30.4414 40.918 30.3879 40.8367 30.687 40.8584L30.7746 41.1595C30.703 41.5412 30.605 41.4666 30.9618 41.4666L30.7746 41.1595L30.687 40.8584C30.7857 40.4846 30.8711 40.5372 30.5037 40.6319L30.6278 40.291L30.2075 40.4387L30.5037 40.6317V40.6319Z" fill="#666666"/>
<path fill-rule="evenodd" clip-rule="evenodd" d="M14.0281 26.2638C14.0742 25.95 14.1223 26.0535 13.7661 26.0676C13.7661 26.3819 13.6952 26.2977 14.0281 26.2638Z" fill="#666666"/>
<path fill-rule="evenodd" clip-rule="evenodd" d="M18.9618 51.0158L19.3593 51.0194C19.3593 50.6633 19.4229 50.7825 19.152 50.8635C18.3998 51.0884 19.343 50.2756 18.9618 51.0158Z" fill="#666666"/>
<path fill-rule="evenodd" clip-rule="evenodd" d="M8.28245 57.785L6.92065 56.1269C6.62367 55.851 6.84491 56.072 6.62438 55.8214L6.31201 55.4346L8.28259 57.785H8.28245Z" fill="#666666"/>
</svg>
