<svg width="61" height="80" viewBox="0 0 61 80" fill="none" xmlns="http://www.w3.org/2000/svg">
<g clip-path="url(#clip0_1635_1513)">
<path fill-rule="evenodd" clip-rule="evenodd" d="M57.9166 73.6135L50.3971 72.2658L46.6666 78.9455C43.9583 82.2984 42.2396 76.7841 41.4844 74.8635L34.2252 61.1721C35.8984 60.5927 37.9166 58.9195 39.987 57.038C44.1211 57.1226 47.9752 56.4065 50.8073 52.7997L59.1471 68.913L59.8698 70.4625C60.4427 72.4742 60.1432 73.8023 57.9166 73.6135ZM30.0651 0.00672125C31.4778 -0.0518725 32.5911 0.436409 33.7174 1.15255C35.1432 2.0575 36.7513 3.84787 38.737 4.98068C41.5299 6.57573 46.6992 4.37521 49.3424 8.3075C50.8854 10.5992 50.957 12.396 51.0742 14.1734C51.1979 16.0875 51.5364 17.8518 53.4961 20.4429C56.7448 24.7398 57.4219 27.5979 55.7487 30.5731C54.6094 32.6044 52.207 33.7307 51.6536 35.0197C50.4687 37.7541 51.7773 39.8179 50.1627 43.008C49.0364 45.2216 47.3047 46.6799 44.9935 47.4221C43.0469 48.0471 41.0937 47.1421 39.5312 47.7997C36.7903 48.952 34.7721 51.6278 32.5911 52.3049C31.7513 52.5653 30.9114 52.6955 30.0716 52.689C29.2318 52.6955 28.3919 52.5653 27.5521 52.3049C25.3711 51.6278 23.3528 48.952 20.612 47.7997C19.0495 47.1421 17.0963 48.0536 15.1497 47.4221C12.8385 46.6799 11.1068 45.2216 9.98045 43.008C8.35936 39.8179 9.66795 37.7541 8.48956 35.0197C7.93618 33.7307 5.53384 32.6044 4.39451 30.5731C2.70832 27.5979 3.3854 24.7398 6.6341 20.4494C8.59373 17.8583 8.93227 16.094 9.05597 14.1799C9.17316 12.4026 9.24477 10.6057 10.7877 8.31401C13.4375 4.38172 18.6068 6.58224 21.3932 4.98719C23.3789 3.85438 24.987 2.06401 26.4127 1.15907C27.5325 0.436409 28.6523 -0.0583829 30.0651 0.00672125ZM25.4752 23.301L28.8737 26.5367L34.72 20.5927C35.2995 20.0067 35.664 19.538 36.3737 20.2671L38.6914 22.6369C39.4531 23.3921 39.414 23.8283 38.6979 24.5315L30.1953 32.8908C28.6849 34.3752 28.9453 34.4664 27.4088 32.9429L21.569 27.1356C21.25 26.7906 21.2825 26.439 21.6341 26.094L24.3229 23.3075C24.7331 22.8778 25.0586 22.9039 25.4752 23.301ZM30.0651 10.5731C38.776 10.5731 45.8398 17.6369 45.8398 26.3479C45.8398 35.0588 38.776 42.1226 30.0651 42.1226C21.3541 42.1226 14.2903 35.0588 14.2903 26.3479C14.2903 17.6304 21.3541 10.5731 30.0651 10.5731ZM2.20701 73.6135L9.73305 72.2658L13.4635 78.9455C16.1719 82.2984 17.8906 76.7841 18.6458 74.8635L25.9049 61.1721C24.2318 60.5927 22.2135 58.9195 20.1432 57.038C16.0091 57.1226 12.1549 56.4065 9.3229 52.7997L0.976545 68.913L0.253888 70.4625C-0.319028 72.4742 -0.0195492 73.8023 2.20701 73.6135Z" fill="#666666"/>
</g>
<defs>
<clipPath id="clip0_1635_1513">
<rect width="60.1237" height="80" fill="white"/>
</clipPath>
</defs>
</svg>
