<svg width="60" height="37" viewBox="0 0 60 37" fill="none" xmlns="http://www.w3.org/2000/svg">
<path d="M54.5105 24.6976L54.4771 18.9553L60 15.8648L29.9176 0L0 16.1821L11.9948 23.0689L12.0187 27.1611L12.0211 27.4879L12.1307 27.4354C12.0043 27.607 11.9233 27.7834 11.9257 27.9599C11.9352 29.9725 20.0597 31.5654 30.0873 31.5107C40.1099 31.4582 48.2225 29.7724 48.2154 27.7644C48.2154 27.5879 48.1224 27.4164 47.9984 27.2399L48.108 27.2924V26.9655L48.0865 22.8568L53.2875 19.6209L53.316 24.7049C52.7437 24.9505 52.3456 25.5133 52.3502 26.1716C52.3551 27.0349 53.0561 27.7334 53.9265 27.7263C54.8017 27.7214 55.4956 27.0156 55.4907 26.1547C55.4859 25.4965 55.0853 24.9385 54.5105 24.6976ZM30.0799 30.1251C21.1829 30.1751 13.9669 29.1974 13.9598 27.9504C13.9527 26.7032 21.159 25.6563 30.0563 25.6109C38.9557 25.5609 46.1693 26.5338 46.1742 27.7786C46.181 29.0211 38.9794 30.0775 30.0799 30.1251ZM47.6762 19.523C46.472 18.2567 42.1557 14.9134 29.9989 14.9827C17.8252 15.0472 13.5639 18.431 12.3741 19.7163L12.367 18.505C12.367 18.505 15.8199 13.2515 29.9896 13.1776C44.152 13.1012 47.6694 18.3141 47.6694 18.3141L47.6762 19.523ZM52.6602 28.0695L52.0473 36.9619C53.9431 33.9834 55.5266 35.0922 55.5266 35.0922L55.4885 28.0551C53.4517 28.8542 52.6602 28.0695 52.6602 28.0695Z" fill="#666666"/>
</svg>
