<svg width="60" height="50" viewBox="0 0 60 50" fill="none" xmlns="http://www.w3.org/2000/svg">
<path fill-rule="evenodd" clip-rule="evenodd" d="M32.2174 26.6598H27.7826C27.6406 26.6598 27.531 26.7728 27.531 26.9149V36.2602C27.531 36.4022 27.6406 36.5152 27.7826 36.5152H32.2122C32.3543 36.5152 32.4656 36.4022 32.4656 36.2602V26.9149C32.4656 26.7745 32.3594 26.6598 32.2174 26.6598ZM3.40779 6.82242H19.3616V2.41335C19.3616 1.08515 20.4467 0 21.7732 0H38.2268C39.5533 0 40.6384 1.08515 40.6384 2.41335V6.82242H56.5922C58.4579 6.82242 60 8.36628 60 10.2302V18.463C56.1472 21.104 52.1729 23.3547 48.0753 25.1913C43.9555 27.0364 39.7073 28.4673 35.3119 29.4549V26.1635C35.3119 24.6436 34.0881 23.4181 32.5682 23.4181H27.4266C25.9067 23.4181 24.6829 24.6436 24.6829 26.1635V29.3795C20.4056 28.3988 16.2602 26.9936 12.2413 25.1913C8.03252 23.3068 3.95379 20.9773 0 18.2422V10.2302C0 8.36286 1.54215 6.82242 3.40779 6.82242ZM60 23.3462V45.6893C60.0002 46.1365 59.9115 46.5793 59.7391 46.9918C59.5666 47.4044 59.3137 47.7785 58.9953 48.0924C58.374 48.7103 57.5233 49.0971 56.5922 49.0971H3.40779C2.46641 49.0971 1.61746 48.7103 1.00642 48.0924C0.385109 47.4711 0 46.6222 0 45.6893V23.1408C3.36329 25.2974 6.82585 27.1836 10.386 28.7788C14.9816 30.8412 19.7467 32.4176 24.6863 33.472V37.0116C24.6863 38.5315 25.9119 39.757 27.4318 39.757H32.5734C34.0916 39.757 35.3171 38.5315 35.3171 37.0116V33.537C40.3509 32.4827 45.246 30.8806 49.9375 28.7754C53.3847 27.2315 56.7377 25.4155 60 23.3462ZM23.6183 3.28626C23.4557 3.28626 23.3119 3.43175 23.3119 3.59435V6.72829H36.6846V3.59435C36.6846 3.43004 36.5392 3.28626 36.3783 3.28626H23.6183Z" fill="#666666"/>
</svg>
