<svg width="60" height="69" viewBox="0 0 60 69" fill="none" xmlns="http://www.w3.org/2000/svg">
<path d="M47.8957 46.7452C45.4087 45.8481 41.0786 43.2626 40.3368 42.8634C40.1446 42.7517 39.9218 42.6865 39.6832 42.6865C39.1628 42.6865 38.7148 42.9924 38.5062 43.4339C36.4553 46.8676 32.6531 54.8995 30 55.0846C27.3469 54.8996 23.5447 46.8676 21.4938 43.4339C21.2852 42.9924 20.8372 42.6865 20.3168 42.6865C20.0783 42.6865 19.8556 42.7517 19.6632 42.8634C18.9215 43.2626 14.5915 45.8477 12.1043 46.7452C3.75498 49.7558 0 52.8261 0 54.9193C0 57.0108 0 68.6347 0 68.6347H30H60C60 68.6347 60 57.0108 60 54.9193C60 52.8259 56.2449 49.7558 47.8957 46.7452Z" fill="#666666"/>
<path d="M16.3641 14.6726C16.4347 14.7134 16.5082 14.746 16.5819 14.7775C16.5259 15.3184 16.523 15.8072 16.5612 16.2127C16.8051 18.7745 17.4281 22.1035 17.4281 22.1035C17.4281 22.1035 16.2026 22.6634 16.2026 24.9121C16.6321 30.5559 18.877 28.1235 19.3399 30.5963C20.1098 34.7072 23.7493 37.6805 26.0152 38.7075C27.2967 39.2881 28.615 39.5894 29.9981 39.6291V39.6297C31.3831 39.5904 32.7028 39.2889 33.9855 38.7078C36.2513 37.6808 39.8908 34.7075 40.6609 30.5966C41.1238 28.1236 43.3687 30.5562 43.7982 24.9124C43.7982 22.6635 42.5727 22.1038 42.5727 22.1038C42.5727 22.1038 43.1955 18.7746 43.4396 16.213C43.4777 15.8074 43.4748 15.3185 43.419 14.7778C43.4925 14.7462 43.566 14.7137 43.6368 14.6729C44.3148 14.2819 44.6989 13.5314 44.6182 12.7535L44.002 6.78375C43.8087 4.91133 42.6421 3.27821 40.9312 2.49623C37.5206 0.937617 33.8414 0.0207045 30.0026 0.000281694V0C26.1621 0.0195777 22.4815 0.936632 19.0696 2.49595C17.3588 3.27807 16.1921 4.91105 15.9989 6.78346L15.3827 12.7533C15.302 13.531 15.6861 14.2814 16.3641 14.6726ZM26.6788 5.36302C26.6788 4.95189 27.0119 4.61907 27.4227 4.61907H28.8577V3.18398C28.8577 2.77313 29.1908 2.43989 29.6018 2.43989H30.3991C30.8101 2.43989 31.1432 2.77313 31.1432 3.18398V4.61893H32.5781C32.9891 4.61893 33.3221 4.95175 33.3221 5.36288V6.15994C33.3221 6.57093 32.9891 6.90403 32.5781 6.90403H31.1432V8.33898C31.1432 8.74983 30.8102 9.08293 30.3991 9.08293H29.6018C29.1908 9.08293 28.8577 8.74983 28.8577 8.33898V6.90417H27.4227C27.0119 6.90417 26.6788 6.57107 26.6788 6.16008V5.36302Z" fill="#666666"/>
</svg>
