<svg width="93" height="93" viewBox="0 0 93 93" fill="none" xmlns="http://www.w3.org/2000/svg">
<circle cx="46.0949" cy="46.0949" r="46.0949" fill="#008FD5"/>
<path fill-rule="evenodd" clip-rule="evenodd" d="M36.6812 17.203C36.5273 17.3644 36.4029 17.4155 36.1789 17.4285L36.0178 17.4656L35.8617 17.5855L34.9397 17.9053L34.9113 18.0013L34.7563 17.9923C34.6384 18.1526 34.6564 18.1351 34.4455 18.1282C34.3435 18.3145 34.2342 18.3262 34.0296 18.3478L33.8773 18.4261L32.8168 18.8778C32.658 19.1699 32.4758 19.1543 32.184 19.2887L31.3115 19.8109L30.3807 20.3732L30.3792 20.3767C30.1876 20.5574 30.0576 20.666 29.7963 20.7631C29.5697 21.0328 28.2045 21.9934 27.8058 22.3233C26.621 23.3038 25.0648 24.764 24.1101 25.9697L22.517 28.0091L22.0273 28.7638C21.6803 29.3642 21.2632 29.9695 20.9007 30.5795C20.6869 30.9394 19.9513 32.2605 19.8871 32.587C19.8181 32.8365 19.8926 32.6989 19.7365 32.8328C19.5366 33.2861 19.0942 34.1447 19.014 34.5871L18.8523 35.0801C18.5645 35.1024 17.1483 35.0634 17.0077 34.9331C16.0691 35.0437 15.0227 34.669 14.1175 35.0316C12.3542 35.738 12.6488 37.8261 12.482 39.638L12.0145 45.4924C11.9331 46.3676 12.1912 47.2911 12.8665 47.7831C13.8507 48.5001 15.4581 48.2757 16.9712 48.2758C17.4929 48.2758 18.0276 48.2182 18.5073 48.2172C18.7145 47.9916 19.0571 47.9334 19.2703 47.6778C19.6083 47.2726 19.5564 47.0384 19.742 46.741C19.8077 45.1979 20.0301 43.6141 20.1233 42.0674C20.2048 40.7158 20.5167 39.1088 20.9638 37.8558C20.9948 37.6611 21.0306 37.5341 21.0847 37.3463C21.1031 37.2826 21.1233 37.207 21.1478 37.146C21.2281 36.9458 21.1747 37.0495 21.2802 36.9253L21.5406 36.1529L21.6583 35.8793L21.6372 35.8375L21.8393 35.4069L22.4073 34.0883C22.4983 33.8455 22.6185 33.4923 22.8033 33.3321L22.9544 32.9281L23.3648 32.2603L23.5425 31.9142C23.7243 31.4629 24.0218 31.1231 24.2525 30.7118C24.3473 30.5427 24.4975 30.3821 24.6266 30.1822C24.7526 29.9871 24.8966 29.6964 25.037 29.5833C25.6438 28.9231 26.143 28.1851 26.7375 27.52C27.0471 27.1736 27.3277 26.8352 27.6612 26.5093C27.9218 26.2547 28.407 25.8477 28.6072 25.5685C28.7848 25.282 28.9343 25.3298 29.1553 25.1063C29.3328 24.9267 29.475 24.7588 29.6941 24.641L30.1546 24.2718L30.6005 23.9356L31.4173 23.3537L32.0063 22.9497L33.5794 21.9806L33.9281 21.7592C35.2375 21.1186 36.3534 20.5608 37.7594 20.0661C41.6327 18.7032 45.9411 18.3157 50.005 18.9482C50.7749 19.068 51.5817 19.3026 52.3076 19.4065L52.7076 19.5232L53.7018 19.7957C53.9423 19.8484 54.0777 19.852 54.2445 20.0142C54.9004 20.0623 57.3537 21.2631 58.0472 21.6246C59.1137 22.1806 60.4672 22.9781 61.3889 23.7482C61.5911 23.8439 62.0663 24.1906 62.1707 24.3273C62.4461 24.6021 62.8527 24.9143 63.1655 25.1656C63.484 25.4216 63.8641 25.8271 64.1599 26.103C64.6218 26.5339 65.6244 27.5329 65.9838 28.045C66.0903 28.1165 66.6719 28.853 66.755 29.0186L67.1026 29.5223L67.5237 30.0551L67.5748 30.1277C67.6949 30.2498 67.7916 30.4366 67.881 30.6205L69.2041 32.8491L69.4221 33.2026C69.58 33.6815 69.9931 34.3971 70.2081 34.9208C70.4303 35.4621 70.7918 36.2183 70.9234 36.7687C71.0909 36.9812 71.1614 37.3698 71.2212 37.6641C71.721 39.119 72.0073 40.5811 72.1256 42.1324C72.2527 43.7987 72.3499 45.4922 72.6058 47.1291L72.8226 47.4802C73.2346 48.0829 73.7913 48.2774 74.5227 48.2781C75.365 48.2788 76.2074 48.2771 77.0497 48.2779C77.8824 48.2788 78.4529 48.3657 79.1982 47.9131C80.6403 47.0375 80.1917 45.2409 80.0859 43.7746C79.924 41.5292 79.7269 38.5631 79.4545 36.4393L79.2659 36.0487C78.5951 35.0709 78.0726 34.8391 76.8602 34.8872C75.9207 34.9244 74.3058 35.1027 73.4533 35.0255L72.6413 33.0832C72.4912 32.9398 72.5169 32.9269 72.4399 32.7043L71.5816 30.9614L71.0852 30.1818C70.979 29.8988 70.1619 28.5862 69.9512 28.4001C69.7846 28.2785 69.7061 28.0359 69.5756 27.8322C69.4565 27.6464 69.3243 27.4935 69.1844 27.3215L68.375 26.2895C67.8695 25.6077 67.2022 24.9182 66.6292 24.3238C66.3359 24.0195 64.8467 22.72 64.7305 22.5242C64.2849 22.2532 63.796 21.8838 63.418 21.4583L62.4351 20.7721C62.1934 20.6548 62.0328 20.5862 61.8514 20.3849L61.6623 20.2607L60.9303 19.7761L59.1712 18.786L59.0582 18.7273L58.9297 18.6641L58.8063 18.5943C58.5774 18.5775 58.5715 18.5593 58.4105 18.3972L57.0538 17.8299C56.8755 17.7911 56.8623 17.8228 56.7575 17.6759C56.1187 17.5076 55.299 17.1331 54.619 16.9176C50.5224 15.6195 45.6493 15.2249 41.436 15.9999C40.6059 16.1526 39.8125 16.3122 38.9944 16.526C38.4642 16.6646 37.0758 17.1682 36.6812 17.2031V17.203Z" fill="white"/>
<path fill-rule="evenodd" clip-rule="evenodd" d="M21.5257 62.6522L22.2567 63.8141L23.0153 64.8593C23.208 65.0223 23.3211 65.2203 23.4674 65.4023L24.7179 66.8591C25.3249 67.6623 26.3898 68.554 26.5268 68.7586L27.0251 69.1999C27.0437 69.4451 25.6002 74.7908 25.4168 75.6358C25.2068 76.6034 24.7053 78.1555 25.3419 79.0191C26.0531 79.984 27.2106 79.7369 28.2217 79.4381L29.4767 78.9284C29.7685 78.9501 31.4951 78.1165 31.8827 77.9266L32.6723 77.5522C33.5811 77.1978 37.2205 75.1615 37.528 75.2303C37.9713 75.3294 38.4977 75.5226 38.963 75.6423C42.711 76.607 46.4365 76.8139 50.2785 76.2533C51.3081 76.103 52.2783 75.8965 53.2874 75.6414C53.9212 75.4811 55.4433 75.0731 55.9598 74.7892C56.1108 74.6515 55.9829 74.7487 56.1485 74.6625C56.2713 74.5985 56.1919 74.6764 56.3147 74.5764C56.7213 74.2453 56.7258 73.8788 56.8807 73.6703C57.0491 72.6394 56.2351 71.7216 55.2729 71.8616C54.9242 71.9123 54.2686 72.1932 53.9012 72.3129C51.4789 73.103 48.6945 73.5125 46.1582 73.5217C44.0503 73.5294 41.7808 73.2571 39.7433 72.715C36.2927 71.797 37.7345 71.6672 34.512 73.2782L33.8792 73.6061L33.4651 73.7824C33.3306 73.9294 33.2953 73.9173 33.0982 73.9896L30.6063 75.1919C30.4564 75.3372 30.4369 75.3122 30.2243 75.3843L28.821 75.9689C28.6126 76.1314 28.5343 76.2002 28.2793 76.1903C28.2977 75.9505 28.2894 75.8871 28.4321 75.698C28.4888 75.0682 28.9153 73.6736 29.0984 72.996C29.3252 72.1566 29.6243 71.212 29.8071 70.3729C29.8594 70.1337 29.8586 69.9605 29.9927 69.7791C30.0589 69.2053 30.3727 68.8064 30.1052 68.1473C29.9073 67.6594 29.6076 67.4942 29.2487 67.1763C28.9158 67.0062 27.6182 65.6953 27.3637 65.4257C26.8466 64.8781 26.1454 64.1107 25.7219 63.4205L25.6486 63.354L25.3098 62.9275L24.1232 61.207C23.7579 60.7948 23.447 60.1062 23.148 59.6026L23.0554 59.3618C22.8582 59.1451 22.6983 58.8081 22.6048 58.5158L21.8487 56.8009L21.6484 56.4551L21.6062 56.3656C21.4876 56.411 21.5196 56.4209 21.5518 56.2921C21.4478 56.3045 21.4645 56.3309 21.4859 56.228C21.374 56.2629 21.3941 56.2861 21.4175 56.168L21.3242 56.1327C21.2072 56.1675 21.2175 56.207 21.233 56.0965L20.9878 55.9548L20.8043 55.8572C19.9977 55.8434 19.3243 56.0201 19.0786 56.8976C18.8574 57.6877 19.3067 58.4062 19.6141 59.0937C20.1083 60.1994 20.8452 61.6563 21.5257 62.6521V62.6522Z" fill="white"/>
<path fill-rule="evenodd" clip-rule="evenodd" d="M39.4689 13.6643C39.3057 13.7861 39.2064 13.7892 38.973 13.8084C37.9143 13.9508 35.9284 14.6098 34.9125 15.0065C34.2946 15.2479 33.6583 15.4871 33.0656 15.7574C32.5835 15.9772 31.6921 16.4755 31.2466 16.6131C31.0686 16.834 30.5638 17.0514 30.277 17.1731L28.8718 18.0143C28.7072 18.1616 27.992 18.6556 27.7795 18.7276L27.6142 18.8701L26.6337 19.6163L26.3165 19.8702C26.2119 19.9891 25.8118 20.2766 25.6374 20.3707L25.6675 20.3848C25.6527 20.403 24.5826 21.3231 24.5075 21.3654C24.3283 21.6551 23.1188 22.7385 22.7673 23.1268C22.4886 23.4346 22.2413 23.7277 21.952 24.0532C21.6958 24.3415 21.3875 24.8013 21.1434 25.0126L20.1772 26.313L19.9357 26.6443L19.5568 27.2407L19.0113 28.1354L18.7744 28.5201L18.7774 28.8718C18.9486 29.0589 18.8495 29.121 19.0653 29.2457C19.2539 29.3546 19.4714 29.3673 19.6742 29.3063C20.0691 29.1877 20.0645 28.8041 20.3175 28.5562L20.5234 28.2599L21.4584 26.8495C22.2162 25.743 23.3891 24.3746 24.3056 23.4776C24.8098 22.984 25.3445 22.4314 25.9026 21.9844C26.4442 21.5505 27.0797 21.0378 27.6129 20.58C27.7695 20.3776 28.4454 19.9245 28.7197 19.8063L28.704 19.8024L28.9922 19.5906L28.9975 19.5896L29.6017 19.2163L29.6073 19.2235C29.7676 19.0288 29.9946 18.9158 30.2332 18.8223L30.2277 18.8262L30.464 18.6758L30.4559 18.6776L30.8977 18.4121L31.5999 18.0256C31.7189 17.8752 31.5786 17.9471 31.8316 17.8722L33.2229 17.2281L33.6125 17.0314L35.2618 16.3788L35.5615 16.2317L36.166 16.0658C36.3299 15.9151 36.4783 15.8812 36.7195 15.8515L38.3896 15.3772C38.5563 15.2525 38.5044 15.2807 38.7508 15.2695C39.3912 15.1937 40.1655 14.9538 40.8499 14.8462C43.489 14.4316 45.1116 14.3035 47.8658 14.4316C49.3572 14.5009 50.855 14.708 52.3088 15.0216C53.4647 15.2708 55.2929 15.6574 56.3303 16.1384C56.506 16.16 56.5418 16.1301 56.6515 16.2614L57.2229 16.457C57.4505 16.5228 57.5124 16.4956 57.679 16.6507L58.6262 17.0394C58.8385 17.1013 58.9047 17.1117 59.0356 17.2647L59.0513 17.2444L59.4519 17.4325L61.343 18.4199C61.5593 18.4969 62.1855 18.8665 62.33 19.0276L62.9548 19.3824L63.2404 19.5998C63.8002 19.8576 65.4265 21.1667 65.937 21.6301C66.3507 22.0056 66.8153 22.3662 67.1925 22.7539C67.382 22.9487 68.2287 23.8219 68.371 23.9071C68.6827 24.0482 68.8722 24.4309 69.1508 24.7244C69.4034 24.9906 69.6012 25.2456 69.8154 25.5463C70.1671 26.0399 70.8694 26.7839 71.1058 27.327C71.4753 27.6547 72.0653 28.9603 72.3776 29.2198C72.7134 29.4988 73.3105 29.3927 73.4309 28.9064C73.5613 28.3792 73.1957 28.1655 73.0313 27.7388L72.83 27.4248C72.3678 26.8244 71.9534 26.0919 71.4922 25.5111C71.0066 24.8996 70.4795 24.243 69.9838 23.6933C69.7578 23.5233 69.3383 22.9722 69.1091 22.7327L66.3482 20.1839L66.2915 20.1178L65.1774 19.2381C64.9398 19.1413 64.4613 18.7462 64.2 18.5715C63.8476 18.336 63.5086 18.1079 63.158 17.8813C62.4426 17.4189 61.6888 17.0656 60.9877 16.6245L60.743 16.493L57.948 15.25C57.742 15.1901 57.6577 15.1838 57.4995 15.0561C56.8021 14.8981 55.9273 14.4935 55.174 14.2929C54.5486 14.1264 53.2602 13.7128 52.6697 13.6967C52.4517 13.6656 52.25 13.6461 52.0886 13.5277L49.0661 13.1376C47.9625 13.0426 46.8248 12.9887 45.7169 13.002C43.9702 13.0228 42.6747 13.1524 40.9788 13.4089C40.5551 13.4729 39.8505 13.663 39.4691 13.6642L39.4689 13.6643Z" fill="white"/>
<path fill-rule="evenodd" clip-rule="evenodd" d="M54.9968 30.5369L54.4435 31.5461L54.3651 31.6457C54.2767 31.8713 54.2181 32.0499 54.03 32.2044L51.6073 36.6112L51.3768 36.9411L50.831 37.9727L50.461 38.6355L50.4691 38.6537L50.2285 38.9652L50.2402 38.9799L50.0535 39.3106L49.1418 41.0009C48.9961 41.2663 48.7331 41.8116 48.5409 42.0121L47.8086 43.3687L47.1548 44.5523L46.4083 44.6524C46.1335 44.6695 46.0965 44.7769 45.8403 44.8461L45.2722 44.4749C44.9725 44.3388 44.1682 43.875 43.9893 43.6381L42.2016 42.4664L41.9091 42.2522L41.7976 42.1648C41.53 42.0603 40.894 41.6751 40.7297 41.4459L40.7237 41.4521L40.1263 41.0737C39.043 40.384 38.1594 39.5107 37.4552 39.9797C36.9966 40.2852 36.9234 41.0072 37.3056 41.418C37.4876 41.6136 38.3711 42.1823 38.6046 42.2428L38.8916 42.4646L39.4329 42.8552L39.639 43.026L40.9138 43.8633L41.5199 44.2362L43.883 45.8324C44.1549 45.9609 44.6983 46.2545 44.8827 46.4702L44.8872 46.9759C44.9249 49.0259 48.0427 49.759 48.9051 47.5593C49.3526 46.4181 48.7072 45.6554 48.7299 45.4824L50.4576 42.3663C50.5949 42.0301 51.3749 40.626 51.5989 40.342L51.8633 39.8991C51.9235 39.6475 52.5702 38.5045 52.7518 38.3247L53.6653 36.624L53.8483 36.286L53.8435 36.2802L54.0794 35.9551L54.9901 34.2773C55.0648 34.0475 55.2211 33.7463 55.407 33.603C55.4807 33.3415 56.1701 32.1709 56.3593 31.8455C56.5254 31.5598 56.6875 31.2645 56.8492 30.9764C57.1513 30.4384 57.1131 30.4943 57.1236 29.8867C57.0143 29.85 57.056 29.9563 57.055 29.7455L56.9677 29.6418L56.9229 29.557C56.8203 29.5581 56.8344 29.5862 56.8623 29.4879C56.7554 29.5185 56.7729 29.5471 56.7821 29.4393L56.5614 29.3113C55.6267 29.1015 55.371 29.8239 54.9967 30.5368L54.9968 30.5369Z" fill="white"/>
<path fill-rule="evenodd" clip-rule="evenodd" d="M45.6605 20.3246L45.5671 20.3591C45.5776 20.4593 45.5917 20.4272 45.4848 20.4055C45.5026 20.5139 45.5284 20.4964 45.4288 20.4791C45.4508 20.5918 45.4806 20.5774 45.3793 20.5593L45.3523 20.6636C45.3541 20.9166 45.3659 20.7446 45.2633 20.8061C45.1393 21.6225 45.2229 23.1088 45.2227 23.9982C45.2225 24.4889 45.1505 24.9929 45.5183 25.3389C45.8304 25.6326 46.391 25.6548 46.7229 25.373C47.0915 25.0599 47.0307 24.5117 47.0306 24.064C47.0305 23.4946 47.0306 22.9251 47.0306 22.3557C47.0306 21.2964 47.2689 20.1991 45.9475 20.1895L45.6604 20.3247L45.6605 20.3246Z" fill="white"/>
<path fill-rule="evenodd" clip-rule="evenodd" d="M66.1419 45.1833L66.0022 45.3614C65.8635 45.5828 65.9972 45.4782 65.8081 45.6591C65.55 47.0235 66.604 46.9384 67.5736 46.9438C68.2252 46.9474 70.1461 47.0979 70.6053 46.7313C70.9741 46.437 71.4146 45.0497 69.6583 45.0622C68.6643 45.0693 67.3964 45.1324 66.4335 45.0586C66.356 45.1282 66.4278 45.1087 66.3065 45.1541C66.1478 45.2135 66.3234 45.1565 66.1418 45.1833H66.1419Z" fill="white"/>
<path fill-rule="evenodd" clip-rule="evenodd" d="M45.702 66.5522C45.7215 66.67 45.7332 66.631 45.6111 66.5968C45.6295 66.7044 45.6415 66.6703 45.5295 66.6437C45.5483 66.7485 45.5639 66.7203 45.4577 66.7009C45.4794 66.8167 45.5122 66.8052 45.4107 66.7839C45.4416 66.9179 45.47 66.8876 45.3417 66.8876C45.1156 67.2768 45.2209 69.8799 45.2199 70.516C45.2189 71.1065 45.2568 71.5511 45.8442 71.76C46.3264 71.9315 46.853 71.6406 46.9694 71.1405C47.0679 69.8977 47.0125 68.2973 46.9621 67.0522L46.9132 66.9048L46.8283 66.7955C46.7237 66.8191 46.7586 66.829 46.7845 66.7101C46.6875 66.7183 46.7062 66.7429 46.7194 66.6453C46.6098 66.6674 46.6222 66.7001 46.6407 66.5953L46.5289 66.5141L46.3553 66.4316L45.9049 66.4416L45.7021 66.5523L45.702 66.5522Z" fill="white"/>
<path fill-rule="evenodd" clip-rule="evenodd" d="M21.3232 45.8054L21.3595 46.203C21.4157 47.1519 22.7641 46.9551 23.4155 46.9449C24.1416 46.9335 25.4379 47.0183 26.0623 46.8166C26.0623 46.6967 26.0378 46.7262 26.1564 46.7572C26.1391 46.6476 26.1204 46.6726 26.2268 46.6987C26.2043 46.59 26.1858 46.6146 26.2926 46.6353C26.268 46.5201 26.2359 46.5331 26.3385 46.5514L26.4156 46.4411L26.4587 46.2811C26.4382 45.8814 26.4436 45.7836 26.3659 45.371C25.6423 44.9896 25.1298 45.0951 24.3 45.0971C23.5334 45.0989 22.7639 45.094 21.9984 45.1015L21.9796 45.0732C21.471 45.53 21.7327 45.1307 21.3233 45.8054H21.3232Z" fill="white"/>
<path fill-rule="evenodd" clip-rule="evenodd" d="M64.9438 33.8641C63.5773 34.5576 64.5221 36.4301 65.7749 35.9303C67.1315 35.3892 66.2495 33.2013 64.9438 33.8641Z" fill="white"/>
<path fill-rule="evenodd" clip-rule="evenodd" d="M35.3251 25.0731C33.9722 25.6065 34.6483 27.6486 36.0249 27.2012C37.3586 26.7679 36.6775 24.5399 35.3251 25.0731Z" fill="white"/>
<path fill-rule="evenodd" clip-rule="evenodd" d="M27.3451 56.7769C26.6235 57.2596 26.4077 58.1842 27.1584 58.7372C27.536 59.0154 28.0127 58.9993 28.4034 58.7543C28.8404 58.4804 28.8467 58.0544 28.8806 57.5545L28.6813 57.2226C28.5759 57.2435 28.6111 57.2546 28.6374 57.1345C28.5414 57.1441 28.572 57.1592 28.5929 57.0487C28.4823 57.0701 28.4968 57.099 28.5229 56.9898C28.412 57.0207 28.4291 57.0478 28.4502 56.9338C28.332 56.9634 28.342 57.0007 28.3656 56.8872L28.0703 56.7361L27.5572 56.6982L27.345 56.7768L27.3451 56.7769Z" fill="white"/>
<path fill-rule="evenodd" clip-rule="evenodd" d="M57.6547 27.1023C58.1342 27.2478 58.3663 27.302 58.8398 27.0971C59.992 25.9287 58.9161 25.0542 58.3516 25.0119C57.8595 24.975 57.3964 25.2745 57.2338 25.7336C56.9901 26.4216 57.3263 26.6791 57.6547 27.1023Z" fill="white"/>
<path fill-rule="evenodd" clip-rule="evenodd" d="M28.1217 35.9962C28.2729 35.8151 28.3906 35.8493 28.5442 35.7012C28.7066 35.5447 28.6808 35.3841 28.8467 35.1926L28.8613 34.6606L28.7024 34.3201C28.4512 33.8196 28.5104 34.1533 28.2185 33.867C28.0519 33.9026 28.1575 33.9198 28.0706 33.7773C27.3392 33.6875 26.6865 34.1195 26.7034 34.9016C26.7112 35.2619 26.8931 35.5894 27.1442 35.7878C27.4792 36.0525 27.7428 35.9778 28.1217 35.9963L28.1217 35.9962Z" fill="white"/>
<path fill-rule="evenodd" clip-rule="evenodd" d="M35.1524 65.638L35.0542 65.7336L34.9651 65.7729C34.9842 65.8777 34.9984 65.8478 34.891 65.8271C34.9004 65.9295 34.9273 65.9126 34.8374 65.9038C34.863 66.0158 34.8944 66.0002 34.7968 65.9929L34.7017 66.092C34.7022 66.3057 34.7226 66.1948 34.6374 66.2219L34.623 66.4115L34.6182 66.8755L34.6326 67.0691C34.7251 67.0914 34.6886 66.9976 34.6906 67.2031L34.7623 67.3206C34.8691 67.3077 34.8391 67.2906 34.8104 67.4068C34.9052 67.3903 34.8811 67.3735 34.8638 67.4761C34.9654 67.4544 34.9452 67.4321 34.9294 67.5377C35.0447 67.5133 35.0336 67.4766 35.0156 67.5839L35.1123 67.6718L35.2618 67.7164L35.8812 67.7724L36.0794 67.7168L36.2262 67.6695L36.321 67.5779C36.3039 67.4709 36.2928 67.5072 36.4064 67.5349C36.3903 67.425 36.3703 67.4491 36.4766 67.4736C36.4571 67.3683 36.4315 67.3856 36.5283 67.3987C36.4956 67.2833 36.465 67.2994 36.5718 67.3121L36.6485 67.1979C36.6374 66.9799 36.6161 67.0858 36.7054 67.0597C36.7083 66.5873 36.7636 66.5857 36.6043 66.1055L36.6059 66.1128C36.4718 66.1128 36.4996 66.1455 36.5314 66.0076C36.4291 66.022 36.4664 66.033 36.496 65.9129C36.3953 65.9302 36.42 65.9488 36.4384 65.8406C36.3318 65.8646 36.3497 65.8902 36.3688 65.7816L36.2816 65.7404L36.1861 65.642C35.5548 65.5323 35.7729 65.5464 35.1523 65.6378L35.1524 65.638Z" fill="white"/>
<path fill-rule="evenodd" clip-rule="evenodd" d="M54.8402 61.7857L54.8289 61.6478C54.4665 61.6373 54.2474 61.5679 53.5493 61.574C52.66 61.5818 50.3326 61.6359 49.7213 61.5517C49.6032 61.1757 49.7036 60.1882 50.1214 60.1806L50.1221 60.0543L50.2831 60.0317C50.2575 59.9012 50.2375 59.9274 50.3592 59.9733C50.4764 59.6557 51.1895 59.4134 51.4012 59.0234C51.0199 59.2322 50.55 59.6914 50.1535 60.0174C49.6456 60.4352 49.4646 60.9583 49.6432 61.6321C50.7237 61.8354 54.1663 61.4306 54.8403 61.7857H54.8402Z" fill="#A3DFE1"/>
<path fill-rule="evenodd" clip-rule="evenodd" d="M26.3655 45.371C26.4432 45.7836 26.4378 45.8813 26.4583 46.281L26.4152 46.4411L26.3381 46.5514C26.2355 46.5331 26.2676 46.52 26.2922 46.6353C26.1854 46.6146 26.2039 46.59 26.2265 46.6986C26.12 46.6725 26.1388 46.6476 26.156 46.7572C26.0374 46.7261 26.0619 46.6967 26.0619 46.8166C26.1865 46.8217 26.1765 46.8628 26.156 46.7572C26.2676 46.7888 26.2493 46.8143 26.2265 46.6986C26.3386 46.7251 26.3203 46.7499 26.2922 46.6353C26.3988 46.6602 26.3647 46.6709 26.3381 46.5514C26.4184 46.505 26.4083 46.651 26.4152 46.4411L26.4583 46.281C26.5675 46.056 26.604 45.5098 26.3655 45.371C26.1756 44.8587 24.8402 45.0064 24.3628 45.0064C23.9628 45.0063 23.5625 45.01 23.1625 45.0091C22.8257 45.0084 22.2352 44.9079 21.998 45.1014C22.7636 45.094 23.533 45.0988 24.2996 45.097C25.1294 45.0951 25.6419 44.9896 26.3655 45.371Z" fill="white"/>
<path fill-rule="evenodd" clip-rule="evenodd" d="M45.7029 66.5528C45.5829 66.5281 45.5925 66.4883 45.612 66.5974C45.4973 66.5624 45.5105 66.5289 45.5304 66.6442C45.4175 66.6164 45.4326 66.5877 45.4586 66.7014C45.3502 66.6777 45.3828 66.6653 45.4116 66.7844C45.3022 66.7623 45.3441 66.7495 45.3426 66.8882C45.4709 66.8882 45.4425 66.9184 45.4116 66.7844C45.5131 66.8058 45.4803 66.8173 45.4586 66.7014C45.5648 66.7208 45.5492 66.749 45.5304 66.6442C45.6424 66.6708 45.6304 66.7049 45.612 66.5974C45.7341 66.6315 45.7224 66.6705 45.7029 66.5528L45.9058 66.4421L46.3562 66.4321L46.5298 66.5146L46.6416 66.5958C46.6231 66.7005 46.6107 66.6678 46.7203 66.6458C46.707 66.7434 46.6883 66.7188 46.7854 66.7106C46.7595 66.8295 46.7246 66.8196 46.8292 66.796L46.9141 66.9053L46.963 67.0526C47.0134 68.2977 47.0688 69.8982 46.9702 71.1409C47.1844 70.958 47.0825 69.4496 47.0825 69.071C47.0825 68.6778 47.1702 67.2738 46.963 67.0526C46.9871 66.8198 46.9866 66.9427 46.9141 66.9053C46.9083 66.7101 46.9337 66.8191 46.8292 66.796C46.8528 66.6854 46.883 66.7009 46.7854 66.7106C46.8152 66.5967 46.833 66.6221 46.7203 66.6458C46.7342 66.53 46.7522 66.5579 46.6416 66.5958C46.6167 66.4994 46.7199 66.5277 46.5298 66.5146L46.3562 66.4321C46.1921 66.3487 46.0623 66.3262 45.9058 66.4421L45.7177 66.4511L45.7029 66.5528Z" fill="white"/>
<path fill-rule="evenodd" clip-rule="evenodd" d="M69.9822 23.693C69.7463 23.1826 68.697 22.2124 68.2589 21.8413C67.7119 21.3777 66.9495 20.5302 66.3467 20.1836L69.1075 22.7324C69.3367 22.9719 69.7562 23.5229 69.9822 23.693Z" fill="white"/>
<path fill-rule="evenodd" clip-rule="evenodd" d="M26.5271 68.7587C26.3902 68.5541 25.3252 67.6623 24.7182 66.8592L23.4677 65.4023C23.3214 65.2204 23.2083 65.0224 23.0156 64.8594C23.3404 65.4771 24.2221 66.3303 24.6736 66.9096C25.0838 67.4359 25.9717 68.449 26.5271 68.7587V68.7587Z" fill="white"/>
<path fill-rule="evenodd" clip-rule="evenodd" d="M29.2495 67.1757C29.1135 66.9826 28.5355 66.533 28.2988 66.2905L26.5504 64.4294C26.3923 64.2122 25.9252 63.5458 25.7227 63.4199C26.1462 64.1101 26.8474 64.8774 27.3645 65.4251C27.619 65.6946 28.9165 67.0056 29.2495 67.1757Z" fill="white"/>
<path fill-rule="evenodd" clip-rule="evenodd" d="M35.1529 65.6388L35.0547 65.7344C34.9367 65.7075 34.9436 65.6668 34.9657 65.7736C34.8622 65.7483 34.8808 65.7225 34.8915 65.8278C34.7829 65.8034 34.8112 65.7877 34.838 65.9045L34.7973 65.9936L34.7023 66.0928L34.6379 66.2227L34.6235 66.4122C34.4936 66.4735 34.5199 66.7705 34.6187 66.8762L34.6331 67.0698L34.6912 67.2038L34.7629 67.3213C34.7357 67.44 34.7038 67.4252 34.811 67.4075C34.7808 67.518 34.7579 67.4997 34.8643 67.4768C34.846 67.5872 34.825 67.5657 34.93 67.5384C34.9115 67.6492 34.8998 67.6127 35.0161 67.5846C35.0752 67.6807 34.9024 67.6318 35.1129 67.6725C35.1659 67.7293 34.9843 67.7814 35.2624 67.7172C35.4785 67.8364 35.6568 67.8562 35.8817 67.7731L36.0799 67.7175C36.3565 67.7722 36.1753 67.7272 36.2268 67.6702C36.4289 67.6287 36.2673 67.677 36.3215 67.5786C36.4358 67.605 36.426 67.6422 36.4069 67.5356C36.5183 67.566 36.4984 67.5904 36.4771 67.4744C36.5899 67.5014 36.5628 67.5174 36.5289 67.3994C36.6286 67.4136 36.5961 67.427 36.5724 67.3129L36.6491 67.1986L36.706 67.0605C36.8473 66.7791 36.8735 66.3198 36.6048 66.1062C36.7642 66.5864 36.7088 66.588 36.706 67.0605C36.6166 67.0866 36.638 66.9806 36.6491 67.1986L36.5724 67.3129C36.4655 67.3001 36.4961 67.2841 36.5289 67.3994C36.432 67.3863 36.4576 67.369 36.4771 67.4744C36.3708 67.4498 36.3909 67.4257 36.4069 67.5356C36.2934 67.5079 36.3044 67.4716 36.3215 67.5786L36.2268 67.6702L36.0799 67.7175L35.8817 67.7731L35.2624 67.7172L35.1129 67.6725L35.0161 67.5846C35.0342 67.4774 35.0452 67.5141 34.93 67.5384C34.9457 67.4328 34.966 67.4551 34.8643 67.4768C34.8816 67.3742 34.9057 67.3911 34.811 67.4075C34.8397 67.2913 34.8697 67.3084 34.7629 67.3213L34.6912 67.2038C34.6892 66.9983 34.7257 67.0921 34.6331 67.0698L34.6187 66.8762L34.6235 66.4122L34.6379 66.2227C34.7231 66.1956 34.7028 66.3064 34.7023 66.0928L34.7973 65.9936C34.8949 66.001 34.8635 66.0165 34.838 65.9045C34.9278 65.9134 34.901 65.9302 34.8915 65.8278C34.9989 65.8486 34.9848 65.8784 34.9657 65.7736L35.0547 65.7344L35.1529 65.6388C35.7735 65.5474 35.5553 65.5332 36.1867 65.6429L36.2822 65.7414L36.3694 65.7825C36.3503 65.8911 36.3324 65.8656 36.439 65.8416C36.4206 65.9498 36.3958 65.9312 36.4966 65.9138C36.467 66.0339 36.4297 66.0229 36.532 66.0085C36.5002 66.1464 36.4724 66.1137 36.6065 66.1137C36.6036 65.9768 36.6436 65.9952 36.532 66.0085C36.56 65.8851 36.5998 65.8924 36.4966 65.9138C36.5297 65.7958 36.5532 65.8158 36.439 65.8416C36.459 65.7302 36.4775 65.7552 36.3694 65.7825C36.3922 65.6746 36.3995 65.7143 36.2822 65.7414L36.1867 65.6429C35.8814 65.3932 35.4616 65.3931 35.1529 65.6388Z" fill="white"/>
<path fill-rule="evenodd" clip-rule="evenodd" d="M71.1049 27.3262C70.8684 26.783 70.1662 26.0391 69.8145 25.5455C69.6003 25.2448 69.4025 24.9898 69.1499 24.7236C68.8713 24.43 68.6818 24.0474 68.3701 23.9062C68.6486 24.345 69.3667 25.0319 69.7856 25.5724C70.0206 25.8758 70.9502 27.1964 71.1049 27.3262H71.1049Z" fill="white"/>
<path fill-rule="evenodd" clip-rule="evenodd" d="M17.0068 34.9323C17.1474 35.0624 18.5637 35.1014 18.8514 35.0791L19.0131 34.5869C18.8138 34.7476 18.923 34.722 18.8072 34.974C18.2393 35.0519 17.5563 34.8116 17.0068 34.9323Z" fill="white"/>
<path fill-rule="evenodd" clip-rule="evenodd" d="M23.542 31.9139C23.6269 31.8374 24.1956 30.9294 24.2916 30.7592C24.5298 30.3369 24.8152 30.0916 25.0365 29.583C24.8962 29.6961 24.7521 29.9869 24.6261 30.1819C24.497 30.3818 24.3469 30.5424 24.2521 30.7115C24.0214 31.1227 23.7238 31.4626 23.542 31.9139H23.542Z" fill="white"/>
<path fill-rule="evenodd" clip-rule="evenodd" d="M69.9512 28.4006C69.7404 27.9609 69.5573 27.6409 69.2223 27.2797C68.979 27.0174 68.642 26.4632 68.375 26.29L69.1844 27.322C69.3243 27.4941 69.4565 27.647 69.5756 27.8327C69.7062 28.0364 69.7847 28.2791 69.9512 28.4006H69.9512Z" fill="white"/>
<path fill-rule="evenodd" clip-rule="evenodd" d="M18.7764 28.8722C18.9171 29.2711 19.2249 29.5229 19.67 29.3741C20.0371 29.2513 20.1646 28.9362 20.3165 28.5566C20.0634 28.8046 20.068 29.1881 19.6732 29.3068C19.4703 29.3677 19.2529 29.3551 19.0642 29.2461C18.8484 29.1214 18.9475 29.0594 18.7764 28.8722H18.7764Z" fill="white"/>
<path fill-rule="evenodd" clip-rule="evenodd" d="M49.3594 53.4134C49.6881 52.9664 49.4109 52.8499 50.0495 52.5684C50.1275 52.5341 49.9974 52.609 50.1536 52.5209C50.173 52.5099 50.1924 52.4925 50.2084 52.4824C50.2256 52.4717 50.2461 52.4527 50.2646 52.4375C49.7438 52.4827 49.4093 52.8739 49.3594 53.4134Z" fill="#A3DFE1"/>
<path fill-rule="evenodd" clip-rule="evenodd" d="M27.5598 56.6984L28.0729 56.7363L28.3682 56.8873C28.3446 57.0009 28.3346 56.9635 28.4528 56.934C28.4317 57.048 28.4147 57.0209 28.5255 56.99C28.4994 57.0992 28.4849 57.0703 28.5955 57.0488C28.5746 57.1594 28.544 57.1443 28.64 57.1346C28.6137 57.2548 28.5785 57.2437 28.684 57.2228L28.8832 57.5547C28.8364 57.3422 28.8335 57.3206 28.684 57.2228C28.7131 57.1084 28.7436 57.1252 28.64 57.1346C28.6663 57.0129 28.7025 57.0214 28.5955 57.0488C28.6197 56.9329 28.6377 56.9585 28.5255 56.99C28.5516 56.874 28.5668 56.9029 28.4528 56.934C28.4761 56.8162 28.4874 56.8529 28.3682 56.8873C28.2766 56.716 28.2761 56.7357 28.0729 56.7363C27.9753 56.5656 27.6962 56.6205 27.5598 56.6984Z" fill="white"/>
<path fill-rule="evenodd" clip-rule="evenodd" d="M24.1216 61.2079C23.9843 60.849 23.7931 60.7137 23.6442 60.419C23.5122 60.1575 23.3937 59.7778 23.1465 59.6035C23.4455 60.1071 23.7564 60.7957 24.1216 61.2079Z" fill="white"/>
<path fill-rule="evenodd" clip-rule="evenodd" d="M64.7314 22.525C64.5917 22.288 64.613 22.388 64.3944 22.2499C64.2504 22.1589 64.2262 22.0875 64.0803 21.9795C63.8877 21.8369 63.5842 21.5382 63.4189 21.459C63.7969 21.8845 64.2859 22.2539 64.7314 22.5249V22.525Z" fill="white"/>
<path fill-rule="evenodd" clip-rule="evenodd" d="M28.2217 79.4376C28.4752 79.4294 29.3743 79.1474 29.4767 78.9287L28.2217 79.4376Z" fill="white"/>
<path fill-rule="evenodd" clip-rule="evenodd" d="M18.5078 48.2174C19.1267 48.0311 19.6444 47.4131 19.7425 46.7412C19.5569 47.0385 19.6088 47.2728 19.2708 47.678C19.0576 47.9336 18.715 47.9918 18.5078 48.2174Z" fill="white"/>
<path fill-rule="evenodd" clip-rule="evenodd" d="M46.4082 44.6509L47.1547 44.5507L47.8085 43.3672L47.1397 44.4762C46.8607 44.5252 46.6191 44.4629 46.4082 44.6508V44.6509Z" fill="white"/>
<path fill-rule="evenodd" clip-rule="evenodd" d="M21.3235 45.8054C21.215 45.9862 21.2037 46.0554 21.3597 46.203L21.3235 45.8054C21.7329 45.1307 21.4712 45.53 21.9798 45.0732L21.7786 45.1135C21.5742 45.3725 21.3448 45.4148 21.3235 45.8054Z" fill="white"/>
<path fill-rule="evenodd" clip-rule="evenodd" d="M34.4452 18.1278C34.2385 18.1393 34.1382 18.1631 34.0293 18.3471C33.7661 18.3282 33.9348 18.3268 33.877 18.4252L34.0293 18.3471C34.2339 18.3255 34.3432 18.3138 34.4452 18.1278C34.6561 18.1346 34.6381 18.1521 34.756 17.9921L34.911 18.0011L34.9394 17.9053L34.756 17.9921C34.5648 18.0039 34.5918 18.0019 34.4452 18.1279V18.1278Z" fill="white"/>
<path fill-rule="evenodd" clip-rule="evenodd" d="M24.5068 21.3654C24.5819 21.3231 25.652 20.403 25.6668 20.3848C25.3841 20.5126 25.2762 20.6162 25.0507 20.8337C24.8744 21.0037 24.6097 21.2053 24.5068 21.3653V21.3654Z" fill="white"/>
<path fill-rule="evenodd" clip-rule="evenodd" d="M58.8403 27.0967C58.3669 27.3012 58.1348 27.2471 57.6553 27.1018C57.9692 27.3711 58.5542 27.397 58.8403 27.0967Z" fill="white"/>
<path fill-rule="evenodd" clip-rule="evenodd" d="M27.7783 18.727C27.9908 18.655 28.7059 18.161 28.8706 18.0137C28.5622 18.1282 28.0013 18.5218 27.7783 18.727Z" fill="white"/>
<path fill-rule="evenodd" clip-rule="evenodd" d="M44.888 46.9746L44.8835 46.4689C44.6991 46.2532 44.1557 45.9595 43.8838 45.8311L44.8239 46.447C44.8296 46.7424 44.7807 46.7398 44.888 46.9746Z" fill="white"/>
<path fill-rule="evenodd" clip-rule="evenodd" d="M32.1836 19.2891C32.4753 19.155 32.6576 19.1705 32.8163 18.8789C32.5498 18.937 32.3445 19.069 32.1836 19.2891Z" fill="white"/>
<path fill-rule="evenodd" clip-rule="evenodd" d="M51.8652 39.8976L52.7537 38.3232C52.5721 38.5031 51.9255 39.646 51.8652 39.8976Z" fill="white"/>
<path fill-rule="evenodd" clip-rule="evenodd" d="M28.6065 25.5692C28.8854 25.407 29.4766 24.918 29.6934 24.6416C29.4743 24.7593 29.332 24.9274 29.1545 25.1069C28.9335 25.3305 28.7841 25.2826 28.6064 25.5691L28.6065 25.5692Z" fill="white"/>
<path fill-rule="evenodd" clip-rule="evenodd" d="M66.7555 29.0185C66.6724 28.8529 66.0908 28.1164 65.9844 28.0449C66.1114 28.2854 66.5483 28.8619 66.7555 29.0185Z" fill="white"/>
<path fill-rule="evenodd" clip-rule="evenodd" d="M50.459 42.3662L51.6003 40.3418C51.3763 40.6259 50.5962 42.03 50.459 42.3662Z" fill="white"/>
<path fill-rule="evenodd" clip-rule="evenodd" d="M55.959 74.7889C56.4539 74.6103 56.792 74.2293 56.8799 73.6699C56.725 73.8785 56.7205 74.245 56.3139 74.5761C56.1912 74.676 56.2705 74.5981 56.1477 74.6621C55.9821 74.7484 56.11 74.6511 55.959 74.7889Z" fill="#67727D"/>
<path fill-rule="evenodd" clip-rule="evenodd" d="M45.2731 44.4745L43.9902 43.6377C44.1692 43.8746 44.9734 44.3384 45.2731 44.4745Z" fill="white"/>
<path fill-rule="evenodd" clip-rule="evenodd" d="M28.8201 75.9677C28.6345 76.0126 28.7031 76.0127 28.553 76.0634C28.3683 76.1259 28.5257 76.0997 28.3429 76.088L28.4311 75.6973C28.2884 75.886 28.2967 75.9493 28.2783 76.1887C28.5334 76.1986 28.6116 76.1299 28.82 75.9677L28.8201 75.9677Z" fill="white"/>
<path fill-rule="evenodd" clip-rule="evenodd" d="M62.3278 19.0276C62.1833 18.8667 61.5571 18.4978 61.3408 18.4209C61.6194 18.6862 62.0009 18.8372 62.3278 19.0276Z" fill="white"/>
<path fill-rule="evenodd" clip-rule="evenodd" d="M48.542 42.0112C48.7343 41.8107 48.9973 41.2653 49.1429 41C48.9428 41.1593 48.6745 41.7483 48.542 42.0112Z" fill="white"/>
<path fill-rule="evenodd" clip-rule="evenodd" d="M20.1758 26.313L21.1419 25.0127C20.9904 25.1295 20.2425 26.1035 20.1758 26.313Z" fill="white"/>
<path fill-rule="evenodd" clip-rule="evenodd" d="M41.7974 42.1642L40.7295 41.4453C40.8937 41.6745 41.5298 42.0597 41.7974 42.1642Z" fill="white"/>
<path fill-rule="evenodd" clip-rule="evenodd" d="M62.1714 24.3272C62.0671 24.1907 61.5918 23.8445 61.3896 23.749C61.5293 23.9261 61.9383 24.2245 62.1714 24.3272Z" fill="white"/>
<path fill-rule="evenodd" clip-rule="evenodd" d="M71.2217 37.664C71.1619 37.3696 71.0914 36.981 70.9238 36.7686C70.9943 37.0548 71.0727 37.4358 71.2217 37.664Z" fill="white"/>
<path fill-rule="evenodd" clip-rule="evenodd" d="M22.2563 63.8143L21.5254 62.6523C21.6341 62.959 22.0582 63.6322 22.2563 63.8143Z" fill="white"/>
<path fill-rule="evenodd" clip-rule="evenodd" d="M28.1211 35.996C28.5634 35.8445 28.7211 35.6285 28.8461 35.1924C28.6802 35.3839 28.706 35.5444 28.5437 35.701C28.39 35.8491 28.2723 35.8148 28.1211 35.996Z" fill="white"/>
<path fill-rule="evenodd" clip-rule="evenodd" d="M26.6318 19.6163L27.6123 18.8701C27.4252 18.9261 26.7229 19.4466 26.6318 19.6163Z" fill="white"/>
<path fill-rule="evenodd" clip-rule="evenodd" d="M27.6123 20.5803L28.7191 19.8066C28.4448 19.9248 27.769 20.3779 27.6123 20.5803Z" fill="white"/>
<path fill-rule="evenodd" clip-rule="evenodd" d="M22.4072 34.0883C22.5823 33.8927 22.6937 33.5925 22.8032 33.332C22.6185 33.4922 22.4983 33.8454 22.4072 34.0883Z" fill="white"/>
<path fill-rule="evenodd" clip-rule="evenodd" d="M20.9872 55.955L21.2325 56.0968C21.217 56.2073 21.2066 56.1678 21.3237 56.133L21.4169 56.1682C21.3935 56.2863 21.3734 56.2632 21.4853 56.2283C21.4639 56.3312 21.4472 56.3047 21.5512 56.2924C21.519 56.4212 21.487 56.4112 21.6056 56.3659L21.6479 56.4554C21.6812 56.3165 21.7278 56.3129 21.6056 56.3659C21.6269 56.2598 21.6509 56.2788 21.5512 56.2924C21.5867 56.1687 21.6055 56.1934 21.4853 56.2283C21.5063 56.1144 21.5259 56.1379 21.4169 56.1682C21.4475 56.0523 21.4498 56.0988 21.3237 56.133L21.2325 56.0968C21.1731 55.9296 21.1426 55.9667 20.9872 55.955Z" fill="white"/>
<path fill-rule="evenodd" clip-rule="evenodd" d="M25.6377 20.3699C25.8121 20.2758 26.2121 19.9888 26.3167 19.8701C26.0818 19.9629 25.77 20.1849 25.6377 20.3699Z" fill="white"/>
<path fill-rule="evenodd" clip-rule="evenodd" d="M20.5225 28.26C20.6829 28.1057 21.3702 27.057 21.4575 26.8496L20.5225 28.26Z" fill="white"/>
<path fill-rule="evenodd" clip-rule="evenodd" d="M28.2182 33.867C28.5102 34.1533 28.451 33.8196 28.7022 34.3201L28.8611 34.6606C28.8405 34.4427 28.8354 34.4421 28.7022 34.3201C28.6488 34.086 28.445 33.9105 28.2182 33.867C28.1713 33.7685 28.3345 33.8077 28.0703 33.7773C28.1573 33.9198 28.0517 33.9027 28.2182 33.867Z" fill="#67727D"/>
<path fill-rule="evenodd" clip-rule="evenodd" d="M30.2744 17.1724C30.5611 17.0509 31.066 16.8339 31.244 16.6133L30.2744 17.1724Z" fill="white"/>
<path fill-rule="evenodd" clip-rule="evenodd" d="M30.3809 20.3729L31.3117 19.8115C30.9689 19.9362 30.6254 20.1373 30.3809 20.3729Z" fill="white"/>
<path fill-rule="evenodd" clip-rule="evenodd" d="M45.6579 20.3247L45.5645 20.3591C45.4495 20.3299 45.4602 20.2942 45.4823 20.4056C45.3761 20.3798 45.4035 20.364 45.4262 20.4791C45.3176 20.4614 45.3454 20.4443 45.3767 20.5593C45.2663 20.5373 45.3119 20.5317 45.3498 20.6637L45.2607 20.8062C45.3634 20.7446 45.3515 20.9167 45.3498 20.6637L45.3767 20.5593C45.478 20.5774 45.4482 20.5919 45.4262 20.4791C45.5258 20.4965 45.5 20.5139 45.4823 20.4056C45.5891 20.4272 45.575 20.4594 45.5645 20.3591L45.6579 20.3247L45.945 20.1895C45.7402 20.2047 45.7687 20.1859 45.6579 20.3247Z" fill="white"/>
<path fill-rule="evenodd" clip-rule="evenodd" d="M71.5823 30.9613C71.4823 30.7025 71.3029 30.3206 71.0859 30.1816L71.5823 30.9613Z" fill="white"/>
<path fill-rule="evenodd" clip-rule="evenodd" d="M54.4434 31.5453L54.9967 30.5361C54.8085 30.7316 54.5328 31.2698 54.4434 31.5453Z" fill="white"/>
<path fill-rule="evenodd" clip-rule="evenodd" d="M20.9639 37.8563L21.2803 36.9258C21.1747 37.05 21.2282 36.9463 21.1479 37.1465C21.1234 37.2075 21.1032 37.2831 21.0848 37.3469C21.0307 37.5347 20.9948 37.6616 20.9639 37.8563Z" fill="white"/>
<path fill-rule="evenodd" clip-rule="evenodd" d="M52.6671 13.6974C52.4931 13.5462 52.3311 13.5512 52.0859 13.5283C52.2474 13.6468 52.449 13.6662 52.6671 13.6974Z" fill="white"/>
<path fill-rule="evenodd" clip-rule="evenodd" d="M66.2899 20.1189C66.1884 19.9796 65.3535 19.3253 65.1758 19.2393L66.2899 20.1189Z" fill="white"/>
<path fill-rule="evenodd" clip-rule="evenodd" d="M31.8818 77.9265C32.1609 77.8564 32.4762 77.7513 32.6714 77.5527L31.8818 77.9265Z" fill="white"/>
<path fill-rule="evenodd" clip-rule="evenodd" d="M54.2448 20.0131C54.0779 19.8512 53.9425 19.8475 53.7021 19.7949C53.8373 19.9047 53.7353 19.8531 53.9322 19.9244C54.0337 19.9612 54.1412 19.9865 54.2448 20.0132V20.0131Z" fill="white"/>
<path fill-rule="evenodd" clip-rule="evenodd" d="M29.8057 70.3721C29.9378 70.1884 29.9566 70.0341 29.9913 69.7793C29.8572 69.9604 29.858 70.1333 29.8057 70.3721Z" fill="white"/>
<path fill-rule="evenodd" clip-rule="evenodd" d="M23.0551 59.3626L22.6045 58.5166C22.698 58.809 22.8579 59.1459 23.0551 59.3626Z" fill="white"/>
<path fill-rule="evenodd" clip-rule="evenodd" d="M31.417 23.3535C31.6298 23.2895 31.9031 23.1374 32.006 22.9502L31.417 23.3535Z" fill="#CBD3DB"/>
<path fill-rule="evenodd" clip-rule="evenodd" d="M54.9902 34.2768L55.4072 33.6025C55.2213 33.7458 55.0651 34.047 54.9902 34.2768Z" fill="white"/>
<path fill-rule="evenodd" clip-rule="evenodd" d="M22.0264 28.7644L22.516 28.0098C22.3277 28.1636 22.1381 28.5049 22.0264 28.7644Z" fill="white"/>
<path fill-rule="evenodd" clip-rule="evenodd" d="M38.9707 13.8082C39.2041 13.7891 39.3034 13.786 39.4666 13.665C39.2256 13.693 39.1642 13.6848 38.9707 13.8082Z" fill="white"/>
<path fill-rule="evenodd" clip-rule="evenodd" d="M33.8789 73.6057L34.5117 73.2783C34.2517 73.3388 34.0652 73.4179 33.8789 73.6057Z" fill="white"/>
<path fill-rule="evenodd" clip-rule="evenodd" d="M50.4619 38.6345L50.8319 37.9717C50.6641 38.1054 50.5301 38.4125 50.4619 38.6345Z" fill="white"/>
<path fill-rule="evenodd" clip-rule="evenodd" d="M67.8804 30.6209C67.791 30.4373 67.6942 30.2508 67.5742 30.1289C67.654 30.3501 67.7201 30.481 67.8804 30.6209Z" fill="white"/>
<path fill-rule="evenodd" clip-rule="evenodd" d="M57.9466 15.2505C57.7766 15.0948 57.7433 15.1016 57.498 15.0566C57.6563 15.1843 57.7405 15.1907 57.9466 15.2505Z" fill="white"/>
<path fill-rule="evenodd" clip-rule="evenodd" d="M29.6055 19.2229L30.2313 18.8223C29.9927 18.9157 29.7658 19.0285 29.6055 19.2229Z" fill="white"/>
<path fill-rule="evenodd" clip-rule="evenodd" d="M57.6787 16.6517C57.5122 16.4966 57.4502 16.5237 57.2227 16.458C57.3856 16.5961 57.4536 16.5946 57.6787 16.6517Z" fill="white"/>
<path fill-rule="evenodd" clip-rule="evenodd" d="M36.1785 17.4283C36.4025 17.4152 36.527 17.3642 36.6809 17.2031L36.1785 17.4283Z" fill="white"/>
<path fill-rule="evenodd" clip-rule="evenodd" d="M58.806 18.5943L58.9294 18.6639L59.0578 18.7271L59.1708 18.7856C59.1708 18.6481 59.1966 18.6855 59.0578 18.7271L58.9294 18.6639L58.806 18.5943L58.4102 18.3975C58.5712 18.5594 58.577 18.5775 58.806 18.5943Z" fill="white"/>
<path fill-rule="evenodd" clip-rule="evenodd" d="M22.9531 32.9286C23.0906 32.8331 23.3057 32.4228 23.3635 32.2607L22.9531 32.9286Z" fill="white"/>
<path fill-rule="evenodd" clip-rule="evenodd" d="M56.7833 29.4383C56.7741 29.546 56.7566 29.5174 56.8635 29.4869C56.8355 29.585 56.8215 29.5569 56.9241 29.5558L56.9689 29.6405L57.0562 29.744C57.0571 29.9545 57.0154 29.8483 57.1247 29.885L57.0562 29.744L56.9689 29.6405C57.0005 29.5336 57.0255 29.5545 56.9241 29.5558C56.9377 29.4389 56.967 29.4511 56.8635 29.4869C56.895 29.3721 56.9025 29.4096 56.7833 29.4383Z" fill="white"/>
<path fill-rule="evenodd" clip-rule="evenodd" d="M38.3877 15.3765C38.6337 15.3687 38.5774 15.3954 38.7489 15.2695C38.5025 15.2806 38.5545 15.2526 38.3877 15.3765Z" fill="white"/>
<path fill-rule="evenodd" clip-rule="evenodd" d="M30.2236 75.3848C30.4362 75.3127 30.4557 75.3377 30.6056 75.1924C30.391 75.2516 30.3678 75.2209 30.2236 75.3848Z" fill="white"/>
<path fill-rule="evenodd" clip-rule="evenodd" d="M36.165 16.0655L36.7185 15.8516C36.4773 15.8813 36.3288 15.915 36.165 16.0655Z" fill="white"/>
<path fill-rule="evenodd" clip-rule="evenodd" d="M54.0303 32.2013C54.2184 32.0471 54.277 31.8688 54.3654 31.6436L54.0303 32.2013Z" fill="white"/>
<path fill-rule="evenodd" clip-rule="evenodd" d="M72.6428 33.0833C72.5602 32.8635 72.598 32.8464 72.4414 32.7051C72.5185 32.9273 72.4927 32.9402 72.6428 33.0833Z" fill="white"/>
<path fill-rule="evenodd" clip-rule="evenodd" d="M29.7959 20.7637C30.0572 20.6667 30.1872 20.5584 30.3788 20.3779L29.7959 20.7637Z" fill="white"/>
<path fill-rule="evenodd" clip-rule="evenodd" d="M40.7233 41.451C40.5957 41.2974 40.3319 41.1587 40.126 41.0732L40.7233 41.451Z" fill="white"/>
<path fill-rule="evenodd" clip-rule="evenodd" d="M67.5237 30.0544L67.1025 29.5225C67.2345 29.7288 67.3241 29.9323 67.5237 30.0544Z" fill="white"/>
<path fill-rule="evenodd" clip-rule="evenodd" d="M62.4353 20.7714L61.8516 20.3848C62.033 20.5857 62.1936 20.6543 62.4353 20.7714Z" fill="white"/>
<path fill-rule="evenodd" clip-rule="evenodd" d="M28.9961 19.5894C29.2033 19.5082 29.4541 19.3732 29.6003 19.2168L28.9961 19.5894Z" fill="white"/>
<path fill-rule="evenodd" clip-rule="evenodd" d="M18.7744 28.5199L19.0113 28.1357C18.8316 28.2689 18.8183 28.2991 18.7744 28.5199Z" fill="white"/>
<path fill-rule="evenodd" clip-rule="evenodd" d="M30.4541 18.6771C30.6788 18.6105 30.7434 18.5912 30.8959 18.4121L30.4541 18.6771Z" fill="white"/>
<path fill-rule="evenodd" clip-rule="evenodd" d="M52.7085 19.5232L52.3086 19.4072C52.4391 19.5533 52.4978 19.5147 52.7085 19.5232Z" fill="white"/>
<path fill-rule="evenodd" clip-rule="evenodd" d="M21.6377 35.8371C21.7946 35.6898 21.7872 35.6309 21.8398 35.4072L21.6377 35.8371Z" fill="white"/>
<path fill-rule="evenodd" clip-rule="evenodd" d="M59.0334 17.2639C58.9025 17.1112 58.8363 17.1008 58.624 17.0391L59.0334 17.2639Z" fill="white"/>
<path fill-rule="evenodd" clip-rule="evenodd" d="M66.1414 45.1831L66.0018 45.3609L65.8076 45.6581C65.9968 45.4775 65.8631 45.5819 66.0018 45.3609L66.1414 45.1831C66.323 45.1563 66.1474 45.2132 66.306 45.154C66.4274 45.1087 66.3556 45.1281 66.4331 45.0586L66.1415 45.1831H66.1414Z" fill="white"/>
<path fill-rule="evenodd" clip-rule="evenodd" d="M53.8428 36.2787C54.0268 36.1473 54.01 36.1558 54.0788 35.9541L53.8428 36.2787Z" fill="white"/>
<path fill-rule="evenodd" clip-rule="evenodd" d="M38.8915 42.4636L38.6045 42.2422C38.6389 42.3962 38.7325 42.39 38.8915 42.4636Z" fill="#67727D"/>
<path fill-rule="evenodd" clip-rule="evenodd" d="M33.2207 17.2279C33.4457 17.1681 33.4449 17.1913 33.6103 17.0312L33.2207 17.2279Z" fill="white"/>
<path fill-rule="evenodd" clip-rule="evenodd" d="M59.4504 17.4322L59.0498 17.2441C59.2221 17.3974 59.2153 17.3705 59.4504 17.4322Z" fill="white"/>
<path fill-rule="evenodd" clip-rule="evenodd" d="M53.666 36.6226C53.8299 36.4784 53.7841 36.5127 53.849 36.2852L53.666 36.6226Z" fill="white"/>
<path fill-rule="evenodd" clip-rule="evenodd" d="M56.6512 16.2599C56.5416 16.1294 56.5058 16.1591 56.3301 16.1377L56.6512 16.2599Z" fill="white"/>
<path fill-rule="evenodd" clip-rule="evenodd" d="M57.0552 17.8288L56.7588 17.6758C56.8636 17.8217 56.8769 17.7902 57.0552 17.8288Z" fill="white"/>
<path fill-rule="evenodd" clip-rule="evenodd" d="M35.2598 16.3775C35.4709 16.3472 35.4287 16.3673 35.5595 16.2314L35.2598 16.3775Z" fill="white"/>
<path fill-rule="evenodd" clip-rule="evenodd" d="M69.4222 33.2026L69.2041 32.8496C69.2897 33.0534 69.2626 33.0693 69.4222 33.2026Z" fill="white"/>
<path fill-rule="evenodd" clip-rule="evenodd" d="M33.0977 73.9891C33.2947 73.9169 33.33 73.9289 33.4645 73.7822L33.0977 73.9891Z" fill="white"/>
<path fill-rule="evenodd" clip-rule="evenodd" d="M72.8223 47.4804L72.6055 47.1299C72.6895 47.3369 72.6627 47.3419 72.8223 47.4804Z" fill="white"/>
<path fill-rule="evenodd" clip-rule="evenodd" d="M50.0527 39.3087L50.2394 38.9785C50.0906 39.1236 50.1361 39.0898 50.0527 39.3087Z" fill="white"/>
<path fill-rule="evenodd" clip-rule="evenodd" d="M19.7354 32.8332C19.8914 32.6996 19.817 32.837 19.886 32.5879L19.7354 32.8332Z" fill="#67727D"/>
<path fill-rule="evenodd" clip-rule="evenodd" d="M31.5986 18.0255L31.8303 17.873C31.5773 17.9474 31.7176 17.8761 31.5986 18.0255Z" fill="#67727D"/>
<path fill-rule="evenodd" clip-rule="evenodd" d="M39.6397 43.0243L39.4336 42.8535L39.6397 43.0243Z" fill="white"/>
<path fill-rule="evenodd" clip-rule="evenodd" d="M51.3779 36.9397L51.6084 36.6104L51.3779 36.9397Z" fill="white"/>
<path fill-rule="evenodd" clip-rule="evenodd" d="M25.6484 63.3536L25.3096 62.9277L25.6484 63.3536Z" fill="white"/>
<path fill-rule="evenodd" clip-rule="evenodd" d="M41.5221 44.2346L40.916 43.8623L41.5221 44.2346Z" fill="white"/>
<path fill-rule="evenodd" clip-rule="evenodd" d="M63.2387 19.5999L62.9531 19.3828L63.2387 19.5999Z" fill="white"/>
<path fill-rule="evenodd" clip-rule="evenodd" d="M28.7021 19.8023L28.9904 19.5908L28.7021 19.8023Z" fill="white"/>
<path fill-rule="evenodd" clip-rule="evenodd" d="M79.4533 36.4398L79.2646 36.0498L79.4533 36.4398Z" fill="white"/>
<path fill-rule="evenodd" clip-rule="evenodd" d="M61.6637 20.2602L60.9316 19.7764L61.6637 20.2602Z" fill="white"/>
<path fill-rule="evenodd" clip-rule="evenodd" d="M33.5801 21.9808L33.9287 21.7598L33.5801 21.9808Z" fill="white"/>
<path fill-rule="evenodd" clip-rule="evenodd" d="M21.542 36.1531L21.6597 35.8799L21.542 36.1531Z" fill="white"/>
<path fill-rule="evenodd" clip-rule="evenodd" d="M30.1553 24.2712L30.6012 23.9355L30.1553 24.2712Z" fill="white"/>
<path fill-rule="evenodd" clip-rule="evenodd" d="M19.5557 27.24L19.9346 26.6445L19.5557 27.24Z" fill="white"/>
<path fill-rule="evenodd" clip-rule="evenodd" d="M73.0303 27.7384L72.8291 27.4248L73.0303 27.7384Z" fill="white"/>
<path fill-rule="evenodd" clip-rule="evenodd" d="M60.9849 16.6239L60.7402 16.4932L60.9849 16.6239Z" fill="white"/>
<path fill-rule="evenodd" clip-rule="evenodd" d="M50.2295 38.9643L50.4701 38.6533L50.2295 38.9643Z" fill="white"/>
<path fill-rule="evenodd" clip-rule="evenodd" d="M30.2266 18.8252L30.4628 18.6758L30.2266 18.8252Z" fill="white"/>
<path fill-rule="evenodd" clip-rule="evenodd" d="M42.2027 42.4659L41.9102 42.252L42.2027 42.4659Z" fill="white"/>
<path d="M48.9917 63.5977V61.5302L52.26 56.3089C52.507 55.9234 52.7401 55.5496 52.9591 55.1875C53.1781 54.8254 53.3578 54.4575 53.4982 54.0837C53.6386 53.7099 53.7088 53.3186 53.7088 52.9098C53.7088 52.501 53.6302 52.1973 53.4729 51.9987C53.3157 51.8001 53.1023 51.7009 52.8328 51.7009C52.5295 51.7009 52.2937 51.7885 52.1252 51.9637C51.9567 52.1389 51.8416 52.3725 51.7798 52.6645C51.7181 52.9566 51.6872 53.2836 51.6872 53.6457V54.3466H48.958V53.5932C48.958 52.7522 49.0871 52.0016 49.3455 51.3417C49.6038 50.6817 50.0138 50.1619 50.5753 49.7823C51.1369 49.4027 51.8725 49.2129 52.7822 49.2129C54.0064 49.2129 54.9302 49.5429 55.5535 50.2028C56.1768 50.8628 56.4885 51.7827 56.4885 52.9624C56.4885 53.5348 56.4015 54.0663 56.2274 54.5568C56.0533 55.0474 55.8231 55.5234 55.5366 55.9848C55.2503 56.4462 54.9442 56.9281 54.6185 57.4303L52.1252 61.3025H56.1179V63.5978H48.9917L48.9917 63.5977Z" fill="white"/>
<path d="M61.2886 63.5965V60.4076H57.0938V58.2525L60.6484 49.4043H63.9167V58.235H65.1802V60.4076H63.9167V63.5965H61.2886L61.2886 63.5965ZM59.2333 58.235H61.2886V52.3304L59.2333 58.235Z" fill="white"/>
<path d="M66.2246 63.5965L70.4026 49.4043H71.8851L67.6902 63.5965H66.2246Z" fill="white"/>
<path d="M73.7054 63.5965L76.6704 51.6295H72.9473V49.4043H79.4164V51.4193L76.4514 63.5965H73.7054Z" fill="white"/>
<path d="M59.8791 70.1283C59.8791 69.9603 59.8291 69.8243 59.7291 69.7203C59.6291 69.6123 59.5031 69.5183 59.3511 69.4383C59.2031 69.3543 59.0411 69.2763 58.8651 69.2043C58.6891 69.1323 58.5251 69.0463 58.3731 68.9463C58.2251 68.8423 58.1011 68.7163 58.0011 68.5683C57.9011 68.4163 57.8511 68.2243 57.8511 67.9923C57.8511 67.6643 57.9651 67.4043 58.1931 67.2123C58.4211 67.0203 58.7451 66.9243 59.1651 66.9243C59.4091 66.9243 59.6311 66.9423 59.8311 66.9783C60.0311 67.0143 60.1871 67.0603 60.2991 67.1163L60.1491 67.5543C60.0571 67.5103 59.9211 67.4683 59.7411 67.4283C59.5651 67.3883 59.3651 67.3683 59.1411 67.3683C58.8771 67.3683 58.6791 67.4283 58.5471 67.5483C58.4151 67.6643 58.3491 67.8023 58.3491 67.9623C58.3491 68.1183 58.3991 68.2483 58.4991 68.3523C58.5991 68.4563 58.7231 68.5503 58.8711 68.6343C59.0231 68.7143 59.1871 68.7943 59.3631 68.8743C59.5391 68.9543 59.7011 69.0483 59.8491 69.1563C60.0011 69.2603 60.1271 69.3863 60.2271 69.5343C60.3271 69.6823 60.3771 69.8663 60.3771 70.0863C60.3771 70.2663 60.3451 70.4283 60.2811 70.5723C60.2171 70.7163 60.1231 70.8403 59.9991 70.9443C59.8751 71.0483 59.7251 71.1283 59.5491 71.1843C59.3731 71.2403 59.1731 71.2683 58.9491 71.2683C58.6491 71.2683 58.4011 71.2443 58.2051 71.1963C58.0091 71.1523 57.8571 71.1023 57.7491 71.0463L57.9171 70.5963C58.0091 70.6483 58.1451 70.7003 58.3251 70.7523C58.5051 70.8003 58.7071 70.8243 58.9311 70.8243C59.0631 70.8243 59.1871 70.8123 59.3031 70.7883C59.4191 70.7603 59.5191 70.7183 59.6031 70.6623C59.6871 70.6023 59.7531 70.5283 59.8011 70.4403C59.8531 70.3523 59.8791 70.2483 59.8791 70.1283ZM61.5546 68.1963V69.9063C61.5546 70.0623 61.5626 70.2003 61.5786 70.3203C61.5986 70.4363 61.6306 70.5343 61.6746 70.6143C61.7186 70.6903 61.7786 70.7483 61.8546 70.7883C61.9306 70.8283 62.0266 70.8483 62.1426 70.8483C62.2506 70.8483 62.3466 70.8323 62.4306 70.8003C62.5146 70.7643 62.5886 70.7163 62.6526 70.6563C62.7206 70.5963 62.7786 70.5283 62.8266 70.4523C62.8786 70.3723 62.9206 70.2883 62.9526 70.2003V68.1963H63.4326V70.3443C63.4326 70.4883 63.4366 70.6383 63.4446 70.7943C63.4566 70.9463 63.4746 71.0803 63.4986 71.1963H63.1686L63.0486 70.7223H63.0186C62.9266 70.8783 62.8026 71.0083 62.6466 71.1123C62.4906 71.2163 62.2926 71.2683 62.0526 71.2683C61.8926 71.2683 61.7506 71.2483 61.6266 71.2083C61.5066 71.1723 61.4046 71.1063 61.3206 71.0103C61.2406 70.9143 61.1786 70.7863 61.1346 70.6263C61.0946 70.4623 61.0746 70.2563 61.0746 70.0083V68.1963H61.5546ZM64.357 68.1963H64.687L64.777 68.5563H64.801C64.893 68.4163 65.011 68.3103 65.155 68.2383C65.303 68.1623 65.471 68.1243 65.659 68.1243C66.059 68.1243 66.357 68.2423 66.553 68.4783C66.749 68.7143 66.847 69.1003 66.847 69.6363C66.847 69.8883 66.813 70.1163 66.745 70.3203C66.681 70.5203 66.589 70.6903 66.469 70.8303C66.349 70.9703 66.203 71.0783 66.031 71.1543C65.863 71.2303 65.675 71.2683 65.467 71.2683C65.319 71.2683 65.201 71.2583 65.113 71.2383C65.029 71.2223 64.937 71.1923 64.837 71.1483V72.3963H64.357V68.1963ZM65.569 68.5443C65.365 68.5443 65.203 68.5983 65.083 68.7063C64.967 68.8103 64.885 68.9703 64.837 69.1863V70.6743C64.909 70.7303 64.991 70.7743 65.083 70.8063C65.175 70.8343 65.297 70.8483 65.449 70.8483C65.725 70.8483 65.943 70.7463 66.103 70.5423C66.267 70.3343 66.349 70.0303 66.349 69.6303C66.349 69.4663 66.335 69.3183 66.307 69.1863C66.279 69.0503 66.233 68.9363 66.169 68.8443C66.109 68.7483 66.029 68.6743 65.929 68.6223C65.833 68.5703 65.713 68.5443 65.569 68.5443ZM67.6031 68.1963H67.9331L68.0231 68.5563H68.0471C68.1391 68.4163 68.2571 68.3103 68.4011 68.2383C68.5491 68.1623 68.7171 68.1243 68.9051 68.1243C69.3051 68.1243 69.6031 68.2423 69.7991 68.4783C69.9951 68.7143 70.0931 69.1003 70.0931 69.6363C70.0931 69.8883 70.0591 70.1163 69.9911 70.3203C69.9271 70.5203 69.8351 70.6903 69.7151 70.8303C69.5951 70.9703 69.4491 71.0783 69.2771 71.1543C69.1091 71.2303 68.9211 71.2683 68.7131 71.2683C68.5651 71.2683 68.4471 71.2583 68.3591 71.2383C68.2751 71.2223 68.1831 71.1923 68.0831 71.1483V72.3963H67.6031V68.1963ZM68.8151 68.5443C68.6111 68.5443 68.4491 68.5983 68.3291 68.7063C68.2131 68.8103 68.1311 68.9703 68.0831 69.1863V70.6743C68.1551 70.7303 68.2371 70.7743 68.3291 70.8063C68.4211 70.8343 68.5431 70.8483 68.6951 70.8483C68.9711 70.8483 69.1891 70.7463 69.3491 70.5423C69.5131 70.3343 69.5951 70.0303 69.5951 69.6303C69.5951 69.4663 69.5811 69.3183 69.5531 69.1863C69.5251 69.0503 69.4791 68.9363 69.4151 68.8443C69.3551 68.7483 69.2751 68.6743 69.1751 68.6223C69.0791 68.5703 68.9591 68.5443 68.8151 68.5443ZM70.6812 69.6963C70.6812 69.1883 70.7932 68.8003 71.0172 68.5323C71.2452 68.2603 71.5712 68.1243 71.9952 68.1243C72.2192 68.1243 72.4132 68.1623 72.5772 68.2383C72.7452 68.3103 72.8832 68.4163 72.9912 68.5563C73.0992 68.6923 73.1792 68.8583 73.2312 69.0543C73.2832 69.2463 73.3092 69.4603 73.3092 69.6963C73.3092 70.2043 73.1952 70.5943 72.9672 70.8663C72.7432 71.1343 72.4192 71.2683 71.9952 71.2683C71.7712 71.2683 71.5752 71.2323 71.4072 71.1603C71.2432 71.0843 71.1072 70.9783 70.9992 70.8423C70.8912 70.7023 70.8112 70.5363 70.7592 70.3443C70.7072 70.1483 70.6812 69.9323 70.6812 69.6963ZM71.1792 69.6963C71.1792 69.8483 71.1932 69.9943 71.2212 70.1343C71.2532 70.2743 71.3012 70.3963 71.3652 70.5003C71.4292 70.6043 71.5132 70.6883 71.6172 70.7523C71.7212 70.8163 71.8472 70.8483 71.9952 70.8483C72.5392 70.8523 72.8112 70.4683 72.8112 69.6963C72.8112 69.5403 72.7952 69.3923 72.7632 69.2523C72.7352 69.1123 72.6892 68.9903 72.6252 68.8863C72.5612 68.7823 72.4772 68.7003 72.3732 68.6403C72.2692 68.5763 72.1432 68.5443 71.9952 68.5443C71.4512 68.5403 71.1792 68.9243 71.1792 69.6963ZM75.482 68.6583C75.362 68.6183 75.248 68.5983 75.14 68.5983C74.968 68.5983 74.832 68.6463 74.732 68.7423C74.632 68.8343 74.57 68.9523 74.546 69.0963V71.1963H74.066V68.1963H74.402L74.492 68.5623H74.516C74.592 68.4263 74.682 68.3223 74.786 68.2503C74.894 68.1743 75.03 68.1363 75.194 68.1363C75.31 68.1363 75.44 68.1563 75.584 68.1963L75.482 68.6583ZM75.8907 68.1963H76.3587V67.6023L76.8387 67.4643V68.1963H77.6547V68.6163H76.8387V70.2783C76.8387 70.4863 76.8647 70.6343 76.9167 70.7223C76.9687 70.8063 77.0567 70.8483 77.1807 70.8483C77.2847 70.8483 77.3727 70.8383 77.4447 70.8183C77.5167 70.7943 77.5967 70.7643 77.6847 70.7283L77.7927 71.0943C77.6847 71.1463 77.5667 71.1883 77.4387 71.2203C77.3107 71.2523 77.1727 71.2683 77.0247 71.2683C76.7807 71.2683 76.6087 71.2003 76.5087 71.0643C76.4087 70.9243 76.3587 70.6923 76.3587 70.3683V68.6163H75.8907V68.1963Z" fill="white"/>
</svg>
