<svg width="140" height="151" viewBox="0 0 140 151" fill="none" xmlns="http://www.w3.org/2000/svg">
<circle cx="80.5" cy="75.5" r="59.5" fill="#008FD5"/>
<path fill-rule="evenodd" clip-rule="evenodd" d="M70.3165 43.8283C70.1433 44.0028 70.0034 44.0581 69.7514 44.0722L69.5703 44.1123L69.3947 44.2419L68.3577 44.5878L68.3257 44.6917L68.1514 44.6818C68.0188 44.8552 68.0391 44.8363 67.8018 44.8289C67.6871 45.0303 67.5642 45.043 67.3341 45.0663L67.1628 45.151L65.9699 45.6395C65.7914 45.9554 65.5864 45.9385 65.2583 46.0838L64.2769 46.6486L63.23 47.2567L63.2284 47.2604C63.0129 47.4559 62.8667 47.5733 62.5727 47.6784C62.3178 47.97 60.7824 49.0088 60.334 49.3656C59.0013 50.4259 57.2511 52.005 56.1773 53.309L54.3854 55.5145L53.8347 56.3306C53.4444 56.9799 52.9752 57.6345 52.5676 58.2941C52.3271 58.6833 51.4998 60.1121 51.4276 60.4652C51.35 60.735 51.4337 60.5862 51.2582 60.7309C51.0333 61.2212 50.5357 62.1497 50.4455 62.6282L50.2636 63.1613C49.94 63.1854 48.3471 63.1432 48.189 63.0023C47.1333 63.1219 45.9563 62.7167 44.9383 63.1088C42.955 63.8728 43.2864 66.1309 43.0987 68.0904L42.5729 74.4216C42.4814 75.368 42.7717 76.3667 43.5312 76.8988C44.6381 77.6742 46.4461 77.4315 48.1479 77.4316C48.7347 77.4316 49.3361 77.3694 49.8757 77.3683C50.1087 77.1243 50.494 77.0614 50.7338 76.785C51.114 76.3468 51.0556 76.0934 51.2643 75.7719C51.3383 74.103 51.5883 72.3903 51.6932 70.7176C51.7848 69.2559 52.1357 67.5181 52.6385 66.163C52.6733 65.9525 52.7137 65.8152 52.7745 65.6121C52.7952 65.5431 52.818 65.4614 52.8455 65.3954C52.9358 65.1789 52.8757 65.2911 52.9944 65.1567L53.2873 64.3215L53.4197 64.0256L53.396 63.9804L53.6233 63.5147L54.262 62.0887C54.3645 61.8261 54.4996 61.4441 54.7074 61.2709L54.8775 60.8341L55.339 60.1119L55.5389 59.7376C55.7433 59.2495 56.078 58.882 56.3374 58.4372C56.4441 58.2544 56.613 58.0807 56.7582 57.8646C56.8999 57.6536 57.0619 57.3392 57.2198 57.2169C57.9023 56.5029 58.4637 55.7047 59.1324 54.9855C59.4807 54.6109 59.7962 54.245 60.1713 53.8925C60.4644 53.6171 61.0102 53.177 61.2353 52.8751C61.4351 52.5652 61.6032 52.617 61.8518 52.3752C62.0514 52.1811 62.2114 51.9994 62.4578 51.8721L62.9757 51.4728L63.4772 51.1092L64.3959 50.4799L65.0584 50.043L66.8277 48.995L67.2199 48.7556C68.6927 48.0628 69.9477 47.4596 71.5291 46.9246C75.8856 45.4507 80.7313 45.0316 85.3022 45.7157C86.168 45.8452 87.0755 46.0989 87.892 46.2113L88.3418 46.3375L89.4601 46.6321C89.7305 46.6892 89.8828 46.693 90.0705 46.8685C90.8082 46.9205 93.5675 48.2191 94.3475 48.61C95.547 49.2112 97.0694 50.0737 98.106 50.9065C98.3334 51.01 98.8679 51.385 98.9853 51.5328C99.2951 51.83 99.7524 52.1676 100.104 52.4394C100.462 52.7162 100.89 53.1547 101.223 53.4531C101.742 53.9191 102.87 54.9995 103.274 55.5533C103.394 55.6305 104.048 56.4271 104.141 56.6062L104.532 57.1509L105.006 57.7271L105.064 57.8056C105.199 57.9376 105.307 58.1396 105.408 58.3385L106.896 60.7486L107.141 61.1309C107.319 61.6488 107.783 62.4227 108.025 62.989C108.275 63.5744 108.682 64.3922 108.83 64.9875C109.018 65.2172 109.097 65.6375 109.165 65.9558C109.727 67.5291 110.049 69.1103 110.182 70.7879C110.325 72.5899 110.434 74.4214 110.722 76.1916L110.966 76.5713C111.429 77.2231 112.055 77.4334 112.878 77.4341C113.825 77.4349 114.773 77.433 115.72 77.4339C116.657 77.4349 117.298 77.5288 118.137 77.0395C119.759 76.0925 119.254 74.1495 119.135 72.5638C118.953 70.1356 118.731 66.928 118.425 64.6312L118.213 64.2088C117.458 63.1513 116.871 62.9007 115.507 62.9527C114.45 62.9929 112.634 63.1857 111.675 63.1022L110.762 61.0018C110.593 60.8467 110.622 60.8327 110.535 60.592L109.57 58.7072L109.012 57.864C108.892 57.5581 107.973 56.1386 107.736 55.9372C107.549 55.8058 107.461 55.5434 107.314 55.3231C107.18 55.1222 107.031 54.9569 106.874 54.7708L105.963 53.6548C105.395 52.9174 104.644 52.1718 104 51.529C103.67 51.1999 101.995 49.7945 101.864 49.5829C101.363 49.2898 100.813 48.8903 100.388 48.4301L99.2827 47.6881C99.0108 47.5612 98.8303 47.487 98.6261 47.2693L98.4135 47.1351L97.5902 46.611L95.6117 45.5402L95.4845 45.4768L95.3401 45.4083L95.2013 45.3329C94.9438 45.3148 94.9372 45.2951 94.7561 45.1197L93.2302 44.5063C93.0297 44.4643 93.0148 44.4985 92.8969 44.3397C92.1784 44.1577 91.2565 43.7527 90.4916 43.5197C85.8841 42.1158 80.4032 41.6891 75.6644 42.5272C74.7307 42.6923 73.8383 42.865 72.9181 43.0962C72.3218 43.246 70.7602 43.7907 70.3165 43.8284V43.8283Z" fill="white"/>
<path fill-rule="evenodd" clip-rule="evenodd" d="M53.2709 92.979L54.0931 94.2356L54.9463 95.3659C55.163 95.5422 55.2902 95.7563 55.4549 95.9531L56.8613 97.5286C57.544 98.3972 58.7418 99.3616 58.8958 99.5828L59.4562 100.06C59.4772 100.325 57.8536 106.106 57.6474 107.02C57.4112 108.066 56.8471 109.745 57.5632 110.679C58.363 111.722 59.6649 111.455 60.8021 111.132L62.2137 110.581C62.5418 110.604 64.4839 109.703 64.9198 109.497L65.8078 109.093C66.8301 108.709 70.9234 106.507 71.2692 106.582C71.7679 106.689 72.3599 106.898 72.8832 107.027C77.0987 108.07 81.289 108.294 85.6102 107.688C86.7681 107.525 87.8594 107.302 88.9944 107.026C89.7073 106.853 91.4191 106.412 92.0001 106.105C92.1699 105.956 92.0261 106.061 92.2124 105.967C92.3504 105.898 92.2612 105.982 92.3993 105.874C92.8566 105.516 92.8617 105.12 93.0359 104.894C93.2253 103.78 92.3097 102.787 91.2275 102.938C90.8354 102.993 90.0979 103.297 89.6848 103.427C86.9603 104.281 83.8285 104.724 80.9759 104.734C78.6051 104.742 76.0525 104.448 73.7609 103.861C69.8799 102.869 71.5016 102.728 67.8771 104.47L67.1653 104.825L66.6995 105.016C66.5483 105.175 66.5085 105.162 66.2869 105.24L63.4842 106.54C63.3156 106.697 63.2936 106.67 63.0546 106.748L61.4762 107.38C61.2418 107.556 61.1537 107.63 60.867 107.62C60.8876 107.36 60.8783 107.292 61.0388 107.087C61.1025 106.406 61.5823 104.898 61.7882 104.165C62.0432 103.258 62.3797 102.236 62.5853 101.329C62.6441 101.07 62.6432 100.883 62.7941 100.686C62.8685 100.066 63.2214 99.6345 62.9206 98.9217C62.698 98.394 62.3609 98.2154 61.9573 97.8716C61.5828 97.6876 60.1234 96.27 59.8371 95.9784C59.2555 95.3862 58.4669 94.5564 57.9905 93.81L57.9081 93.738L57.527 93.2768L56.1924 91.4162C55.7816 90.9704 55.4319 90.2258 55.0956 89.6812L54.9915 89.4207C54.7697 89.1864 54.5898 88.822 54.4846 88.5058L53.6342 86.6513L53.409 86.2773L53.3614 86.1805C53.2281 86.2296 53.264 86.2403 53.3002 86.101C53.1833 86.1144 53.2021 86.143 53.2261 86.0317C53.1003 86.0695 53.1229 86.0945 53.1492 85.9668L53.0443 85.9287C52.9127 85.9663 52.9243 86.009 52.9417 85.8895L52.6659 85.7362L52.4595 85.6307C51.5523 85.6157 50.7949 85.8069 50.5186 86.7558C50.2698 87.6103 50.7751 88.3873 51.1208 89.1308C51.6768 90.3265 52.5056 91.902 53.2709 92.9789V92.979Z" fill="white"/>
<path fill-rule="evenodd" clip-rule="evenodd" d="M73.4516 40.0016C73.268 40.1333 73.1564 40.1367 72.8939 40.1574C71.703 40.3114 69.4695 41.0241 68.3268 41.4532C67.6318 41.7141 66.9162 41.9729 66.2495 42.2652C65.7074 42.5028 64.7047 43.0417 64.2037 43.1905C64.0035 43.4295 63.4357 43.6645 63.1131 43.7962L61.5326 44.7058C61.3475 44.8652 60.5431 45.3994 60.3041 45.4773L60.1182 45.6314L59.0154 46.4383L58.6586 46.7129C58.5409 46.8415 58.091 47.1524 57.8948 47.2542L57.9287 47.2694C57.912 47.2891 56.7084 48.2841 56.624 48.3299C56.4224 48.6432 55.0621 49.8148 54.6667 50.2347C54.3533 50.5676 54.0751 50.8846 53.7497 51.2366C53.4615 51.5483 53.1148 52.0456 52.8402 52.2741L51.7536 53.6804L51.4819 54.0387L51.0557 54.6837L50.4423 55.6512L50.1758 56.0673L50.1792 56.4476C50.3717 56.65 50.2602 56.7171 50.5029 56.8519C50.715 56.9697 50.9597 56.9834 51.1878 56.9175C51.6319 56.7892 51.6267 56.3744 51.9113 56.1063L52.1429 55.7858L53.1946 54.2606C54.0469 53.064 55.3661 51.5842 56.3969 50.6141C56.964 50.0803 57.5654 49.4827 58.193 48.9992C58.8022 48.5301 59.517 47.9756 60.1167 47.4805C60.2929 47.2616 61.0531 46.7716 61.3616 46.6438L61.3439 46.6396L61.6681 46.4105L61.674 46.4094L62.3536 46.0058L62.3599 46.0136C62.5402 45.803 62.7954 45.6808 63.0639 45.5796L63.0577 45.5839L63.3234 45.4212L63.3144 45.4231L63.8113 45.1361L64.601 44.7181C64.7348 44.5555 64.5771 44.6331 64.8616 44.5522L66.4265 43.8556L66.8647 43.643L68.7197 42.9371L69.0568 42.7781L69.7367 42.5987C69.921 42.4357 70.0879 42.3991 70.3592 42.3669L72.2376 41.854C72.4252 41.7191 72.3667 41.7496 72.6439 41.7375C73.3642 41.6555 74.2351 41.3961 75.0049 41.2798C77.9731 40.8314 79.7982 40.6928 82.8958 40.8314C84.5733 40.9064 86.2579 41.1303 87.8931 41.4694C89.1931 41.739 91.2494 42.157 92.4161 42.6772C92.6138 42.7006 92.654 42.6682 92.7774 42.8102L93.4201 43.0218C93.6761 43.0929 93.7458 43.0635 93.933 43.2312L94.9985 43.6516C95.2372 43.7185 95.3117 43.7298 95.4589 43.8952L95.4766 43.8733L95.9271 44.0767L98.0541 45.1445C98.2974 45.2278 99.0017 45.6275 99.1642 45.8017L99.867 46.1854L100.188 46.4205C100.818 46.6992 102.647 48.115 103.221 48.6161C103.686 49.0223 104.209 49.4122 104.633 49.8315C104.846 50.0421 105.799 50.9864 105.959 51.0785C106.309 51.2312 106.522 51.645 106.836 51.9625C107.12 52.2503 107.342 52.5261 107.583 52.8513C107.979 53.3851 108.769 54.1897 109.035 54.777C109.45 55.1314 110.114 56.5433 110.465 56.8239C110.843 57.1256 111.514 57.0109 111.65 56.485C111.796 55.9149 111.385 55.6838 111.2 55.2224L110.974 54.8827C110.454 54.2335 109.988 53.4413 109.469 52.8132C108.923 52.1519 108.33 51.4419 107.773 50.8473C107.518 50.6635 107.047 50.0675 106.789 49.8085L103.684 47.0521L103.62 46.9807L102.367 46.0294C102.099 45.9247 101.561 45.4974 101.267 45.3085C100.871 45.0537 100.49 44.8071 100.096 44.562C99.2909 44.062 98.443 43.6799 97.6544 43.2029L97.3793 43.0606L94.2357 41.7164C94.0039 41.6517 93.9092 41.6448 93.7312 41.5067C92.9468 41.3359 91.9629 40.8983 91.1156 40.6814C90.4122 40.5013 88.9631 40.054 88.299 40.0367C88.0537 40.003 87.8269 39.9819 87.6453 39.8538L84.2459 39.432C83.0046 39.3293 81.725 39.271 80.4789 39.2854C78.5144 39.3079 77.0573 39.448 75.1498 39.7254C74.6733 39.7946 73.8808 40.0002 73.4518 40.0015L73.4516 40.0016Z" fill="white"/>
<path fill-rule="evenodd" clip-rule="evenodd" d="M90.9168 58.2481L90.2945 59.3395L90.2063 59.4472C90.1068 59.6912 90.041 59.8844 89.8294 60.0514L87.1045 64.8171L86.8453 65.1739L86.2314 66.2894L85.8152 67.0062L85.8243 67.026L85.5538 67.3628L85.5668 67.3787L85.3569 67.7364L84.3315 69.5643C84.1677 69.8513 83.8719 70.441 83.6556 70.6579L82.8319 72.1249L82.0966 73.4049L81.257 73.5132C80.948 73.5317 80.9063 73.6478 80.6182 73.7226L79.9792 73.3212C79.6421 73.1741 78.7375 72.6725 78.5363 72.4163L76.5256 71.1492L76.1966 70.9175L76.0712 70.8229C75.7702 70.7099 75.0549 70.2934 74.8701 70.0455L74.8633 70.0522L74.1915 69.6431C72.973 68.8971 71.9792 67.9527 71.1872 68.46C70.6713 68.7903 70.589 69.5711 71.0189 70.0153C71.2236 70.2269 72.2174 70.8419 72.4799 70.9073L72.8028 71.1472L73.4115 71.5696L73.6434 71.7543L75.0772 72.6598L75.7589 73.0631L78.4167 74.7892C78.7225 74.9282 79.3337 75.2458 79.5411 75.479L79.5462 76.026C79.5886 78.2429 83.0953 79.0356 84.0653 76.6568C84.5685 75.4227 83.8426 74.5979 83.8682 74.4108L85.8114 71.0409C85.9658 70.6773 86.8432 69.1589 87.0951 68.8517L87.3925 68.3727C87.4602 68.1007 88.1876 66.8646 88.3918 66.6702L89.4192 64.8309L89.625 64.4654L89.6196 64.4592L89.885 64.1076L90.9092 62.2931C90.9933 62.0446 91.1691 61.7189 91.3782 61.5639C91.461 61.2811 92.2364 60.0152 92.4493 59.6632C92.6361 59.3543 92.8184 59.035 93.0003 58.7235C93.3401 58.1416 93.2971 58.202 93.3089 57.545C93.1859 57.5053 93.2328 57.6202 93.2318 57.3923L93.1336 57.2802L93.0832 57.1884C92.9678 57.1896 92.9836 57.2199 93.015 57.1137C92.8948 57.1468 92.9145 57.1777 92.9248 57.0611L92.6765 56.9227C91.6252 56.6958 91.3376 57.4771 90.9167 58.248L90.9168 58.2481Z" fill="white"/>
<path fill-rule="evenodd" clip-rule="evenodd" d="M80.4157 47.2048L80.3108 47.242C80.3226 47.3505 80.3384 47.3157 80.2182 47.2923C80.2382 47.4094 80.2672 47.3905 80.1551 47.3718C80.1799 47.4938 80.2135 47.4781 80.0995 47.4586L80.0692 47.5714C80.0712 47.845 80.0845 47.6589 79.9691 47.7255C79.8296 48.6084 79.9236 50.2157 79.9233 51.1775C79.9232 51.7082 79.8422 52.2533 80.2558 52.6274C80.6069 52.945 81.2375 52.9691 81.6107 52.6643C82.0253 52.3257 81.9569 51.7329 81.9568 51.2487C81.9567 50.6329 81.9567 50.0171 81.9567 49.4013C81.9567 48.2557 82.2248 47.069 80.7386 47.0586L80.4157 47.2048L80.4157 47.2048Z" fill="white"/>
<path fill-rule="evenodd" clip-rule="evenodd" d="M103.452 74.087L103.295 74.2796C103.139 74.519 103.289 74.4059 103.077 74.6016C102.786 76.077 103.972 75.985 105.062 75.9909C105.795 75.9948 107.956 76.1575 108.472 75.7611C108.887 75.4428 109.383 73.9425 107.407 73.956C106.289 73.9637 104.863 74.032 103.78 73.9521C103.693 74.0275 103.774 74.0063 103.637 74.0554C103.459 74.1196 103.656 74.058 103.452 74.087H103.452Z" fill="white"/>
<path fill-rule="evenodd" clip-rule="evenodd" d="M80.4624 97.1968C80.4843 97.3242 80.4974 97.282 80.3601 97.2451C80.3808 97.3614 80.3943 97.3245 80.2683 97.2958C80.2895 97.4091 80.307 97.3786 80.1875 97.3576C80.2119 97.4828 80.2489 97.4704 80.1347 97.4473C80.1694 97.5922 80.2015 97.5595 80.0571 97.5595C79.8028 97.9804 79.9213 100.796 79.9201 101.483C79.919 102.122 79.9616 102.603 80.6222 102.829C81.1646 103.014 81.7569 102.7 81.8878 102.159C81.9986 100.815 81.9364 99.084 81.8796 97.7375L81.8247 97.5781L81.7291 97.4599C81.6115 97.4854 81.6508 97.4961 81.6798 97.3676C81.5707 97.3764 81.5918 97.403 81.6067 97.2975C81.4834 97.3213 81.4974 97.3567 81.5182 97.2434L81.3924 97.1556L81.1972 97.0664L80.6906 97.0772L80.4624 97.1969L80.4624 97.1968Z" fill="white"/>
<path fill-rule="evenodd" clip-rule="evenodd" d="M53.043 74.7605L53.0837 75.1905C53.1469 76.2167 54.6635 76.0039 55.3962 75.9928C56.2129 75.9805 57.6709 76.0722 58.3731 75.8541C58.3731 75.7244 58.3456 75.7563 58.479 75.7899C58.4596 75.6714 58.4384 75.6983 58.5582 75.7266C58.5328 75.6091 58.512 75.6357 58.6322 75.6581C58.6044 75.5334 58.5684 75.5475 58.6838 75.5673L58.7705 75.4481L58.819 75.2749C58.7959 74.8427 58.802 74.737 58.7146 74.2908C57.9008 73.8783 57.3243 73.9924 56.391 73.9945C55.5288 73.9965 54.6634 73.9912 53.8024 73.9993L53.7812 73.9688C53.2091 74.4627 53.5036 74.0309 53.043 74.7605H53.043Z" fill="white"/>
<path fill-rule="evenodd" clip-rule="evenodd" d="M102.105 61.8468C100.568 62.5968 101.63 64.6218 103.039 64.0813C104.565 63.4961 103.573 61.1301 102.105 61.8468Z" fill="white"/>
<path fill-rule="evenodd" clip-rule="evenodd" d="M68.791 52.3396C67.2693 52.9164 68.0297 55.1248 69.5781 54.641C71.0781 54.1723 70.312 51.7629 68.791 52.3396Z" fill="white"/>
<path fill-rule="evenodd" clip-rule="evenodd" d="M59.8165 86.6251C59.005 87.1471 58.7622 88.147 59.6065 88.7451C60.0313 89.0459 60.5674 89.0285 61.0069 88.7636C61.4983 88.4673 61.5055 88.0066 61.5435 87.4661L61.3194 87.1071C61.2009 87.1297 61.2404 87.1417 61.27 87.0118C61.162 87.0222 61.1965 87.0385 61.2199 86.919C61.0956 86.9422 61.1118 86.9735 61.1412 86.8553C61.0165 86.8888 61.0357 86.9181 61.0594 86.7948C60.9265 86.8267 60.9377 86.8672 60.9643 86.7444L60.6322 86.581L60.0551 86.54L59.8164 86.625L59.8165 86.6251Z" fill="white"/>
<path fill-rule="evenodd" clip-rule="evenodd" d="M93.9061 54.5345C94.4454 54.6918 94.7065 54.7505 95.239 54.5289C96.5349 53.2653 95.3248 52.3197 94.6899 52.2738C94.1364 52.2339 93.6155 52.5578 93.4326 53.0543C93.1585 53.7984 93.5368 54.0769 93.9061 54.5345Z" fill="white"/>
<path fill-rule="evenodd" clip-rule="evenodd" d="M60.6892 64.1525C60.8593 63.9566 60.9917 63.9936 61.1645 63.8335C61.3471 63.6642 61.3181 63.4906 61.5047 63.2835L61.5211 62.7081L61.3424 62.3399C61.0599 61.7986 61.1265 62.1594 60.7981 61.8499C60.6108 61.8884 60.7296 61.9069 60.6317 61.7529C59.8092 61.6558 59.0751 62.123 59.0941 62.9687C59.1029 63.3584 59.3074 63.7125 59.5898 63.9271C59.9666 64.2133 60.2631 64.1325 60.6893 64.1525L60.6892 64.1525Z" fill="white"/>
<path fill-rule="evenodd" clip-rule="evenodd" d="M68.5979 96.2085L68.4875 96.3119L68.3873 96.3543C68.4088 96.4677 68.4248 96.4354 68.3039 96.4129C68.3145 96.5237 68.3447 96.5054 68.2437 96.4959C68.2725 96.617 68.3078 96.6002 68.198 96.5923L68.091 96.6994C68.0916 96.9305 68.1145 96.8106 68.0187 96.8399L68.0025 97.0449L67.9971 97.5467L68.0133 97.7561C68.1173 97.7802 68.0763 97.6787 68.0786 97.901L68.1592 98.0281C68.2793 98.0141 68.2456 97.9956 68.2133 98.1213C68.3199 98.1035 68.2928 98.0853 68.2733 98.1962C68.3877 98.1728 68.3649 98.1486 68.3472 98.2629C68.4768 98.2365 68.4644 98.1968 68.444 98.3128L68.5529 98.4078L68.721 98.4561L69.4176 98.5167L69.6405 98.4565L69.8057 98.4054L69.9123 98.3063C69.893 98.1906 69.8806 98.2299 70.0083 98.2598C69.9903 98.1409 69.9677 98.1671 70.0873 98.1936C70.0654 98.0797 70.0366 98.0984 70.1455 98.1125C70.1087 97.9877 70.0742 98.0051 70.1944 98.0189L70.2807 97.8954C70.2682 97.6596 70.2442 97.7741 70.3447 97.7459C70.3479 97.235 70.4101 97.2333 70.2309 96.714L70.2327 96.7219C70.0819 96.7219 70.1132 96.7573 70.149 96.6081C70.0339 96.6237 70.0758 96.6356 70.1092 96.5057C69.9958 96.5245 70.0237 96.5446 70.0443 96.4276C69.9244 96.4535 69.9446 96.4812 69.966 96.3637L69.868 96.3192L69.7606 96.2127C69.0505 96.0941 69.2958 96.1094 68.5979 96.2083L68.5979 96.2085Z" fill="white"/>
<path fill-rule="evenodd" clip-rule="evenodd" d="M90.741 92.0419L90.7282 91.8927C90.3206 91.8814 90.0742 91.8063 89.2891 91.813C88.2888 91.8214 85.6711 91.8799 84.9835 91.7888C84.8507 91.3822 84.9636 90.3143 85.4335 90.306L85.4343 90.1695L85.6154 90.1451C85.5866 90.0039 85.5641 90.0323 85.701 90.0819C85.8328 89.7385 86.6348 89.4764 86.8729 89.0547C86.4441 89.2805 85.9156 89.777 85.4696 90.1296C84.8984 90.5814 84.6948 91.1471 84.8957 91.8757C86.1109 92.0957 89.983 91.6579 90.741 92.0419H90.741Z" fill="#A3DFE1"/>
<path fill-rule="evenodd" clip-rule="evenodd" d="M58.714 74.2903C58.8014 74.7365 58.7953 74.8422 58.8184 75.2745L58.7699 75.4476L58.6832 75.5668C58.5678 75.547 58.6038 75.5329 58.6316 75.6576C58.5114 75.6352 58.5323 75.6086 58.5576 75.7261C58.4378 75.6979 58.459 75.6709 58.4783 75.7894C58.345 75.7558 58.3725 75.724 58.3725 75.8536C58.5126 75.8592 58.5014 75.9036 58.4783 75.7894C58.6038 75.8236 58.5833 75.8512 58.5576 75.7261C58.6837 75.7547 58.6631 75.7815 58.6316 75.6576C58.7515 75.6846 58.7131 75.6961 58.6832 75.5668C58.7735 75.5167 58.7621 75.6745 58.7699 75.4476L58.8184 75.2745C58.9412 75.0311 58.9822 74.4405 58.714 74.2903C58.5003 73.7363 56.9985 73.8961 56.4615 73.896C56.0116 73.8959 55.5613 73.8999 55.1114 73.899C54.7327 73.8983 54.0685 73.7895 53.8018 73.9988C54.6628 73.9907 55.5282 73.996 56.3904 73.9941C57.3237 73.992 57.9001 73.8779 58.714 74.2903Z" fill="white"/>
<path fill-rule="evenodd" clip-rule="evenodd" d="M80.4636 97.1972C80.3285 97.1705 80.3393 97.1274 80.3613 97.2454C80.2322 97.2076 80.2472 97.1714 80.2695 97.2961C80.1425 97.266 80.1595 97.2349 80.1887 97.358C80.0668 97.3323 80.1034 97.3189 80.1359 97.4477C80.0128 97.4238 80.0599 97.4099 80.0583 97.5599C80.2026 97.5599 80.1706 97.5926 80.1359 97.4477C80.2501 97.4708 80.2131 97.4833 80.1887 97.358C80.3082 97.3789 80.2907 97.4094 80.2695 97.2961C80.3955 97.3248 80.382 97.3618 80.3613 97.2454C80.4986 97.2823 80.4855 97.3245 80.4636 97.1972L80.6917 97.0775L81.1983 97.0667L81.3935 97.1559L81.5193 97.2437C81.4985 97.3569 81.4845 97.3216 81.6078 97.2978C81.5929 97.4033 81.5719 97.3767 81.681 97.3679C81.6519 97.4965 81.6126 97.4858 81.7303 97.4602L81.8258 97.5784L81.8808 97.7378C81.9375 99.0843 81.9998 100.815 81.8889 102.159C82.1298 101.961 82.0152 100.33 82.0152 99.9205C82.0152 99.4953 82.1138 97.977 81.8808 97.7378C81.9079 97.4859 81.9073 97.6189 81.8258 97.5784C81.8192 97.3673 81.8478 97.4852 81.7303 97.4602C81.7569 97.3406 81.7908 97.3574 81.681 97.3679C81.7145 97.2446 81.7346 97.2722 81.6078 97.2978C81.6235 97.1726 81.6437 97.2027 81.5193 97.2437C81.4913 97.1395 81.6074 97.1701 81.3935 97.1559L81.1983 97.0667C81.0137 96.9765 80.8678 96.9522 80.6917 97.0775L80.4801 97.0873L80.4636 97.1972Z" fill="white"/>
<path fill-rule="evenodd" clip-rule="evenodd" d="M107.771 50.8469C107.505 50.295 106.325 49.2458 105.832 48.8444C105.217 48.3432 104.36 47.4266 103.682 47.0518L106.787 49.8081C107.045 50.0672 107.516 50.6631 107.771 50.8469Z" fill="white"/>
<path fill-rule="evenodd" clip-rule="evenodd" d="M58.8948 99.5831C58.7408 99.3618 57.543 98.3974 56.8603 97.5289L55.4538 95.9534C55.2893 95.7566 55.162 95.5425 54.9453 95.3662C55.3106 96.0342 56.3023 96.9569 56.8101 97.5834C57.2714 98.1525 58.2701 99.2482 58.8948 99.5831V99.5831Z" fill="white"/>
<path fill-rule="evenodd" clip-rule="evenodd" d="M61.958 97.8712C61.8051 97.6624 61.1549 97.1761 60.8887 96.9139L58.9222 94.9012C58.7444 94.6663 58.219 93.9457 57.9912 93.8096C58.4676 94.556 59.2563 95.3858 59.8378 95.978C60.1241 96.2695 61.5835 97.6873 61.958 97.8712Z" fill="white"/>
<path fill-rule="evenodd" clip-rule="evenodd" d="M68.5972 96.2084L68.4867 96.3118C68.354 96.2827 68.3617 96.2387 68.3866 96.3543C68.2702 96.3268 68.291 96.299 68.3032 96.4128C68.181 96.3865 68.2128 96.3695 68.2429 96.4958L68.1972 96.5922L68.0903 96.6994L68.0179 96.8399L68.0017 97.0449C67.8556 97.1111 67.8852 97.4323 67.9963 97.5467L68.0125 97.756L68.0778 97.9009L68.1584 98.028C68.128 98.1563 68.092 98.1404 68.2126 98.1212C68.1787 98.2407 68.1529 98.2209 68.2726 98.1962C68.252 98.3155 68.2284 98.2923 68.3464 98.2628C68.3256 98.3826 68.3125 98.3431 68.4433 98.3127C68.5097 98.4166 68.3154 98.3638 68.5521 98.4078C68.6118 98.4692 68.4075 98.5256 68.7203 98.4561C68.9634 98.585 69.1639 98.6065 69.4169 98.5166L69.6398 98.4564C69.9508 98.5156 69.747 98.467 69.8049 98.4053C70.0323 98.3605 69.8506 98.4127 69.9115 98.3062C70.0401 98.3348 70.029 98.375 70.0076 98.2597C70.1328 98.2926 70.1105 98.319 70.0865 98.1935C70.2133 98.2228 70.1829 98.24 70.1447 98.1124C70.2569 98.1278 70.2204 98.1423 70.1936 98.0189L70.28 97.8953L70.344 97.7459C70.5029 97.4416 70.5324 96.9449 70.2302 96.7139C70.4094 97.2332 70.3471 97.235 70.344 97.7459C70.2434 97.7741 70.2675 97.6595 70.28 97.8953L70.1936 98.0189C70.0735 98.0051 70.1079 97.9877 70.1447 98.1124C70.0358 98.0983 70.0646 98.0796 70.0865 98.1935C69.967 98.167 69.9895 98.1408 70.0076 98.2597C69.8799 98.2298 69.8923 98.1905 69.9115 98.3062L69.8049 98.4053L69.6398 98.4564L69.4169 98.5166L68.7203 98.4561L68.5521 98.4078L68.4433 98.3127C68.4636 98.1967 68.476 98.2364 68.3464 98.2628C68.3641 98.1486 68.3869 98.1727 68.2726 98.1962C68.292 98.0852 68.3191 98.1034 68.2126 98.1212C68.2449 97.9955 68.2786 98.014 68.1584 98.028L68.0778 97.9009C68.0756 97.6787 68.1166 97.7802 68.0125 97.756L67.9963 97.5467L68.0017 97.0449L68.0179 96.8399C68.1137 96.8105 68.0909 96.9304 68.0903 96.6994L68.1972 96.5922C68.307 96.6001 68.2717 96.6169 68.2429 96.4958C68.344 96.5054 68.3138 96.5236 68.3032 96.4128C68.424 96.4353 68.4081 96.4676 68.3866 96.3543L68.4867 96.3118L68.5972 96.2084C69.2951 96.1096 69.0498 96.0943 69.7599 96.2129L69.8673 96.3194L69.9653 96.3638C69.9439 96.4813 69.9237 96.4537 70.0437 96.4277C70.0229 96.5447 69.9951 96.5246 70.1085 96.5058C70.0751 96.6357 70.0332 96.6238 70.1483 96.6083C70.1125 96.7574 70.0812 96.722 70.232 96.722C70.2288 96.574 70.2738 96.5939 70.1483 96.6083C70.1797 96.4748 70.2246 96.4827 70.1085 96.5058C70.1457 96.3783 70.1721 96.3998 70.0437 96.4277C70.0661 96.3073 70.0869 96.3344 69.9653 96.3638C69.9911 96.2471 69.9992 96.2901 69.8673 96.3194L69.7599 96.2129C69.4165 95.9429 68.9443 95.9427 68.5972 96.2084Z" fill="white"/>
<path fill-rule="evenodd" clip-rule="evenodd" d="M109.033 54.7766C108.767 54.1892 107.977 53.3847 107.582 52.8509C107.341 52.5257 107.118 52.2499 106.834 51.962C106.521 51.6446 106.308 51.2307 105.957 51.0781C106.27 51.5526 107.078 52.2955 107.549 52.88C107.813 53.208 108.859 54.6362 109.033 54.7766H109.033Z" fill="white"/>
<path fill-rule="evenodd" clip-rule="evenodd" d="M48.1885 63.0021C48.3466 63.143 49.9395 63.1852 50.2631 63.1611L50.445 62.6279C50.2208 62.802 50.3436 62.7743 50.2134 63.0472C49.5746 63.1316 48.8064 62.8713 48.1885 63.0021Z" fill="white"/>
<path fill-rule="evenodd" clip-rule="evenodd" d="M55.5391 59.7375C55.6345 59.6548 56.2742 58.6728 56.3822 58.4888C56.6501 58.0321 56.9711 57.7668 57.22 57.2168C57.0622 57.3391 56.9001 57.6535 56.7584 57.8645C56.6132 58.0806 56.4444 58.2543 56.3377 58.4371C56.0782 58.8819 55.7436 59.2494 55.5391 59.7375H55.5391Z" fill="white"/>
<path fill-rule="evenodd" clip-rule="evenodd" d="M107.737 55.9377C107.5 55.4622 107.294 55.1162 106.917 54.7255C106.643 54.4419 106.264 53.8425 105.964 53.6553L106.874 54.7713C107.032 54.9574 107.18 55.1227 107.314 55.3236C107.461 55.5439 107.549 55.8063 107.737 55.9377H107.737Z" fill="white"/>
<path fill-rule="evenodd" clip-rule="evenodd" d="M50.1778 56.4477C50.3361 56.8791 50.6822 57.1514 51.1828 56.9905C51.5958 56.8577 51.7391 56.5169 51.9099 56.1064C51.6253 56.3746 51.6305 56.7894 51.1864 56.9177C50.9583 56.9836 50.7137 56.9699 50.5015 56.8521C50.2588 56.7172 50.3702 56.6501 50.1777 56.4477H50.1778Z" fill="white"/>
<path fill-rule="evenodd" clip-rule="evenodd" d="M84.5762 82.988C84.9459 82.5046 84.6341 82.3786 85.3524 82.0742C85.4401 82.037 85.2937 82.1181 85.4695 82.0228C85.4913 82.0109 85.5131 81.9921 85.5312 81.9812C85.5505 81.9696 85.5735 81.9491 85.5943 81.9326C85.0085 81.9815 84.6323 82.4046 84.5762 82.988Z" fill="#A3DFE1"/>
<path fill-rule="evenodd" clip-rule="evenodd" d="M60.057 86.5404L60.6341 86.5814L60.9662 86.7447C60.9397 86.8675 60.9284 86.8271 61.0614 86.7952C61.0376 86.9184 61.0184 86.8892 61.1431 86.8557C61.1138 86.9738 61.0975 86.9426 61.2219 86.9194C61.1984 87.0389 61.1639 87.0226 61.2719 87.0121C61.2423 87.1421 61.2028 87.1301 61.3214 87.1074L61.5454 87.4664C61.4928 87.2366 61.4895 87.2133 61.3214 87.1074C61.3541 86.9838 61.3885 87.0019 61.2719 87.0121C61.3015 86.8805 61.3422 86.8897 61.2219 86.9194C61.249 86.7939 61.2693 86.8217 61.1431 86.8557C61.1725 86.7303 61.1896 86.7615 61.0614 86.7952C61.0875 86.6678 61.1002 86.7075 60.9662 86.7447C60.8631 86.5594 60.8626 86.5807 60.6341 86.5814C60.5243 86.3968 60.2104 86.4561 60.057 86.5404Z" fill="white"/>
<path fill-rule="evenodd" clip-rule="evenodd" d="M56.1905 91.4166C56.036 91.0285 55.821 90.8822 55.6536 90.5635C55.5051 90.2808 55.3717 89.8701 55.0938 89.6816C55.4301 90.2262 55.7798 90.9709 56.1905 91.4166Z" fill="white"/>
<path fill-rule="evenodd" clip-rule="evenodd" d="M101.866 49.5835C101.709 49.3272 101.733 49.4354 101.487 49.2859C101.325 49.1876 101.298 49.1104 101.134 48.9936C100.917 48.8393 100.576 48.5163 100.39 48.4307C100.815 48.8908 101.365 49.2903 101.866 49.5834V49.5835Z" fill="white"/>
<path fill-rule="evenodd" clip-rule="evenodd" d="M60.8018 111.132C61.0869 111.123 62.0981 110.818 62.2133 110.581L60.8018 111.132Z" fill="white"/>
<path fill-rule="evenodd" clip-rule="evenodd" d="M49.876 77.3689C50.572 77.1674 51.1544 76.4991 51.2646 75.7725C51.0559 76.094 51.1143 76.3473 50.7341 76.7856C50.4943 77.062 50.109 77.1249 49.876 77.3689Z" fill="white"/>
<path fill-rule="evenodd" clip-rule="evenodd" d="M81.2568 73.5123L82.0965 73.404L82.8318 72.124L82.0796 73.3234C81.7658 73.3763 81.494 73.309 81.2568 73.5122V73.5123Z" fill="white"/>
<path fill-rule="evenodd" clip-rule="evenodd" d="M53.0426 74.7605C52.9206 74.9561 52.9079 75.0309 53.0834 75.1905L53.0426 74.7605C53.5031 74.0309 53.2087 74.4627 53.7808 73.9688L53.5545 74.0122C53.3245 74.2924 53.0666 74.3382 53.0426 74.7605Z" fill="white"/>
<path fill-rule="evenodd" clip-rule="evenodd" d="M67.8014 44.829C67.5689 44.8414 67.456 44.8672 67.3336 45.0664C67.0375 45.046 67.2272 45.0445 67.1623 45.151L67.3336 45.0664C67.5637 45.0431 67.6866 45.0304 67.8014 44.829C68.0386 44.8363 68.0183 44.8553 68.1509 44.6819L68.3252 44.6917L68.3572 44.5879L68.1509 44.682C67.9359 44.6948 67.9662 44.6926 67.8014 44.829V44.829Z" fill="white"/>
<path fill-rule="evenodd" clip-rule="evenodd" d="M56.623 48.33C56.7075 48.2843 57.9111 47.2892 57.9277 47.2695C57.6097 47.4078 57.4883 47.5199 57.2347 47.755C57.0364 47.9388 56.7388 48.1569 56.623 48.33V48.33Z" fill="white"/>
<path fill-rule="evenodd" clip-rule="evenodd" d="M95.2391 54.5283C94.7066 54.7499 94.4456 54.6912 93.9062 54.5339C94.2593 54.8256 94.9173 54.8536 95.2391 54.5283Z" fill="white"/>
<path fill-rule="evenodd" clip-rule="evenodd" d="M60.3037 45.4765C60.5427 45.3986 61.347 44.8644 61.5322 44.7051C61.1854 44.8289 60.5545 45.2546 60.3037 45.4765Z" fill="white"/>
<path fill-rule="evenodd" clip-rule="evenodd" d="M79.5464 76.0248L79.5414 75.4779C79.334 75.2446 78.7228 74.927 78.417 74.7881L79.4743 75.4542C79.4807 75.7736 79.4257 75.7708 79.5464 76.0248Z" fill="white"/>
<path fill-rule="evenodd" clip-rule="evenodd" d="M65.2578 46.0849C65.5859 45.9396 65.7909 45.9565 65.9695 45.6406C65.6696 45.7035 65.4388 45.8465 65.2578 46.0849Z" fill="white"/>
<path fill-rule="evenodd" clip-rule="evenodd" d="M87.3936 68.3715L88.3929 66.6689C88.1886 66.8634 87.4613 68.0995 87.3936 68.3715Z" fill="white"/>
<path fill-rule="evenodd" clip-rule="evenodd" d="M61.2344 52.8762C61.5481 52.7008 62.2131 52.1719 62.4569 51.873C62.2104 52.0004 62.0505 52.1821 61.8508 52.3762C61.6023 52.618 61.4342 52.5662 61.2344 52.8761L61.2344 52.8762Z" fill="white"/>
<path fill-rule="evenodd" clip-rule="evenodd" d="M104.142 56.6066C104.048 56.4275 103.394 55.631 103.274 55.5537C103.417 55.8138 103.909 56.4373 104.142 56.6066Z" fill="white"/>
<path fill-rule="evenodd" clip-rule="evenodd" d="M85.8125 71.0408L87.0961 68.8516C86.8442 69.1588 85.9668 70.6772 85.8125 71.0408Z" fill="white"/>
<path fill-rule="evenodd" clip-rule="evenodd" d="M91.998 106.105C92.5547 105.911 92.9349 105.499 93.0339 104.895C92.8596 105.12 92.8546 105.516 92.3972 105.874C92.2592 105.983 92.3484 105.898 92.2103 105.968C92.024 106.061 92.1679 105.956 91.998 106.105Z" fill="#67727D"/>
<path fill-rule="evenodd" clip-rule="evenodd" d="M79.9791 73.3209L78.5361 72.416C78.7374 72.6722 79.642 73.1738 79.9791 73.3209Z" fill="white"/>
<path fill-rule="evenodd" clip-rule="evenodd" d="M61.4755 107.38C61.2668 107.428 61.344 107.429 61.1751 107.484C60.9674 107.551 61.1444 107.523 60.9389 107.51L61.0381 107.087C60.8776 107.291 60.8868 107.36 60.8662 107.619C61.1531 107.63 61.2411 107.556 61.4755 107.38L61.4755 107.38Z" fill="white"/>
<path fill-rule="evenodd" clip-rule="evenodd" d="M99.1619 45.8027C98.9993 45.6284 98.295 45.2288 98.0518 45.1455C98.3651 45.4329 98.7942 45.5964 99.1619 45.8027Z" fill="white"/>
<path fill-rule="evenodd" clip-rule="evenodd" d="M83.6562 70.657C83.8725 70.4402 84.1683 69.8504 84.3322 69.5635C84.107 69.7358 83.8053 70.3727 83.6562 70.657Z" fill="white"/>
<path fill-rule="evenodd" clip-rule="evenodd" d="M51.7529 53.6807L52.8396 52.2744C52.6692 52.4008 51.8279 53.454 51.7529 53.6807Z" fill="white"/>
<path fill-rule="evenodd" clip-rule="evenodd" d="M76.0713 70.8223L74.8701 70.0449C75.0549 70.2927 75.7703 70.7093 76.0713 70.8223Z" fill="white"/>
<path fill-rule="evenodd" clip-rule="evenodd" d="M98.9867 51.5335C98.8694 51.3857 98.3348 51.0107 98.1074 50.9072C98.2645 51.099 98.7246 51.4223 98.9867 51.5335Z" fill="white"/>
<path fill-rule="evenodd" clip-rule="evenodd" d="M109.165 65.9556C109.098 65.6373 109.019 65.217 108.83 64.9873C108.909 65.2969 108.997 65.7089 109.165 65.9556Z" fill="white"/>
<path fill-rule="evenodd" clip-rule="evenodd" d="M54.0917 94.2361L53.2695 92.9795C53.3919 93.3111 53.8688 94.0391 54.0917 94.2361Z" fill="white"/>
<path fill-rule="evenodd" clip-rule="evenodd" d="M60.6885 64.1522C61.1859 63.9884 61.3634 63.7549 61.5039 63.2832C61.3173 63.4903 61.3463 63.6639 61.1637 63.8332C60.9909 63.9934 60.8586 63.9563 60.6885 64.1522Z" fill="white"/>
<path fill-rule="evenodd" clip-rule="evenodd" d="M59.0127 46.4388L60.1155 45.6318C59.905 45.6924 59.1152 46.2553 59.0127 46.4388Z" fill="white"/>
<path fill-rule="evenodd" clip-rule="evenodd" d="M60.1162 47.4812L61.3611 46.6445C61.0526 46.7723 60.2924 47.2623 60.1162 47.4812Z" fill="white"/>
<path fill-rule="evenodd" clip-rule="evenodd" d="M54.2617 62.0893C54.4587 61.8778 54.584 61.5532 54.7071 61.2715C54.4993 61.4447 54.3641 61.8267 54.2617 62.0893Z" fill="white"/>
<path fill-rule="evenodd" clip-rule="evenodd" d="M52.6644 85.7364L52.9402 85.8897C52.9228 86.0092 52.9112 85.9665 53.0428 85.9289L53.1477 85.967C53.1214 86.0947 53.0988 86.0697 53.2246 86.0319C53.2006 86.1432 53.1818 86.1146 53.2988 86.1012C53.2625 86.2406 53.2266 86.2298 53.3599 86.1807L53.4075 86.2775C53.445 86.1273 53.4974 86.1235 53.3599 86.1807C53.3838 86.066 53.4109 86.0866 53.2988 86.1012C53.3387 85.9674 53.3598 85.9942 53.2246 86.0319C53.2482 85.9088 53.2703 85.9342 53.1477 85.967C53.1821 85.8416 53.1847 85.8919 53.0428 85.9289L52.9402 85.8897C52.8735 85.7089 52.8391 85.7491 52.6644 85.7364Z" fill="white"/>
<path fill-rule="evenodd" clip-rule="evenodd" d="M57.8945 47.2542C58.0907 47.1523 58.5406 46.8415 58.6583 46.7129C58.394 46.8134 58.0433 47.0539 57.8945 47.2542Z" fill="white"/>
<path fill-rule="evenodd" clip-rule="evenodd" d="M52.1416 55.7859C52.3221 55.6191 53.0951 54.485 53.1933 54.2607L52.1416 55.7859Z" fill="white"/>
<path fill-rule="evenodd" clip-rule="evenodd" d="M60.7982 61.8499C61.1266 62.1595 61.06 61.7987 61.3425 62.3399L61.5212 62.7082C61.4981 62.4725 61.4923 62.4719 61.3425 62.3399C61.2824 62.0867 61.0532 61.8969 60.7982 61.8499C60.7455 61.7434 60.929 61.7857 60.6318 61.7529C60.7297 61.907 60.6109 61.8884 60.7982 61.8499Z" fill="#67727D"/>
<path fill-rule="evenodd" clip-rule="evenodd" d="M63.1104 43.7961C63.4328 43.6644 64.0007 43.4294 64.2009 43.1904L63.1104 43.7961Z" fill="white"/>
<path fill-rule="evenodd" clip-rule="evenodd" d="M63.2305 47.2575L64.2774 46.6494C63.8919 46.7844 63.5055 47.0023 63.2305 47.2575Z" fill="white"/>
<path fill-rule="evenodd" clip-rule="evenodd" d="M80.4135 47.2048L80.3085 47.2421C80.1791 47.2104 80.1912 47.1719 80.2159 47.2923C80.0966 47.2645 80.1273 47.2474 80.1529 47.3718C80.0307 47.3527 80.062 47.3342 80.0972 47.4586C79.9731 47.4348 80.0243 47.4287 80.0669 47.5714L79.9668 47.7256C80.0822 47.659 80.0689 47.8451 80.0669 47.5714L80.0972 47.4586C80.2112 47.4781 80.1777 47.4938 80.1529 47.3718C80.265 47.3906 80.2359 47.4095 80.2159 47.2923C80.3361 47.3157 80.3203 47.3505 80.3085 47.2421L80.4135 47.2048L80.7364 47.0586C80.5061 47.0751 80.5381 47.0547 80.4135 47.2048Z" fill="white"/>
<path fill-rule="evenodd" clip-rule="evenodd" d="M109.571 58.7074C109.458 58.4276 109.257 58.0145 109.013 57.8643L109.571 58.7074Z" fill="white"/>
<path fill-rule="evenodd" clip-rule="evenodd" d="M90.2939 59.3384L90.9163 58.2471C90.7047 58.4585 90.3945 59.0405 90.2939 59.3384Z" fill="white"/>
<path fill-rule="evenodd" clip-rule="evenodd" d="M52.6387 66.1635L52.9946 65.1572C52.8758 65.2916 52.936 65.1794 52.8457 65.3959C52.8181 65.4619 52.7954 65.5437 52.7747 65.6126C52.7138 65.8157 52.6735 65.953 52.6387 66.1635Z" fill="white"/>
<path fill-rule="evenodd" clip-rule="evenodd" d="M88.2972 40.0373C88.1015 39.8738 87.9194 39.8792 87.6436 39.8545C87.8252 39.9826 88.0519 40.0036 88.2972 40.0373Z" fill="white"/>
<path fill-rule="evenodd" clip-rule="evenodd" d="M103.618 46.9816C103.504 46.831 102.565 46.1233 102.365 46.0303L103.618 46.9816Z" fill="white"/>
<path fill-rule="evenodd" clip-rule="evenodd" d="M64.918 109.498C65.2319 109.422 65.5865 109.308 65.806 109.093L64.918 109.498Z" fill="white"/>
<path fill-rule="evenodd" clip-rule="evenodd" d="M90.0703 46.8682C89.8826 46.6928 89.7303 46.6888 89.46 46.6318C89.612 46.7508 89.4973 46.6949 89.7187 46.7721C89.8329 46.8119 89.9538 46.8393 90.0703 46.8682V46.8682Z" fill="white"/>
<path fill-rule="evenodd" clip-rule="evenodd" d="M62.584 101.329C62.7326 101.13 62.7538 100.963 62.7928 100.687C62.6419 100.883 62.6428 101.07 62.584 101.329Z" fill="white"/>
<path fill-rule="evenodd" clip-rule="evenodd" d="M54.9912 89.4218L54.4844 88.5068C54.5896 88.823 54.7694 89.1874 54.9912 89.4218Z" fill="white"/>
<path fill-rule="evenodd" clip-rule="evenodd" d="M64.3955 50.4808C64.6348 50.4115 64.9422 50.2467 65.058 50.0439L64.3955 50.4808Z" fill="#CBD3DB"/>
<path fill-rule="evenodd" clip-rule="evenodd" d="M90.9092 62.2927L91.3782 61.5635C91.1691 61.7184 90.9933 62.0442 90.9092 62.2927Z" fill="white"/>
<path fill-rule="evenodd" clip-rule="evenodd" d="M53.834 56.3318L54.3847 55.5156C54.1729 55.682 53.9597 56.0511 53.834 56.3318Z" fill="white"/>
<path fill-rule="evenodd" clip-rule="evenodd" d="M72.8906 40.1578C73.1531 40.137 73.2649 40.1336 73.4484 40.002C73.1774 40.0324 73.1083 40.0234 72.8906 40.1578Z" fill="white"/>
<path fill-rule="evenodd" clip-rule="evenodd" d="M67.165 104.825L67.8768 104.471C67.5843 104.536 67.3745 104.622 67.165 104.825Z" fill="white"/>
<path fill-rule="evenodd" clip-rule="evenodd" d="M85.8154 67.0058L86.2316 66.2891C86.0428 66.4337 85.8921 66.7658 85.8154 67.0058Z" fill="white"/>
<path fill-rule="evenodd" clip-rule="evenodd" d="M105.407 58.3396C105.306 58.1407 105.197 57.9387 105.062 57.8066C105.152 58.0463 105.227 58.188 105.407 58.3396Z" fill="white"/>
<path fill-rule="evenodd" clip-rule="evenodd" d="M94.234 41.7165C94.0428 41.5481 94.0053 41.5555 93.7295 41.5068C93.9075 41.6449 94.0022 41.6518 94.234 41.7165Z" fill="white"/>
<path fill-rule="evenodd" clip-rule="evenodd" d="M62.3584 46.014L63.0623 45.5801C62.7939 45.6813 62.5387 45.8034 62.3584 46.014Z" fill="white"/>
<path fill-rule="evenodd" clip-rule="evenodd" d="M93.9328 43.2319C93.7455 43.0642 93.6758 43.0935 93.4199 43.0225C93.6032 43.1718 93.6797 43.1702 93.9328 43.2319Z" fill="white"/>
<path fill-rule="evenodd" clip-rule="evenodd" d="M69.7513 44.073C70.0032 44.0588 70.1432 44.0036 70.3163 43.8291L69.7513 44.073Z" fill="white"/>
<path fill-rule="evenodd" clip-rule="evenodd" d="M95.201 45.3333L95.3399 45.4088L95.4843 45.4772L95.6114 45.5406C95.6114 45.3916 95.6403 45.4321 95.4843 45.4772L95.3399 45.4088L95.201 45.3333L94.7559 45.1201C94.937 45.2955 94.9436 45.3152 95.201 45.3333Z" fill="white"/>
<path fill-rule="evenodd" clip-rule="evenodd" d="M54.877 60.8345C55.0316 60.7313 55.2735 60.2875 55.3385 60.1123L54.877 60.8345Z" fill="white"/>
<path fill-rule="evenodd" clip-rule="evenodd" d="M92.9251 57.0603C92.9147 57.1769 92.8951 57.146 93.0153 57.1129C92.9838 57.2191 92.9681 57.1887 93.0834 57.1875L93.1338 57.2793L93.232 57.3914C93.233 57.6194 93.1862 57.5044 93.3091 57.5442L93.232 57.3914L93.1338 57.2793C93.1694 57.1635 93.1975 57.1862 93.0834 57.1875C93.0988 57.0609 93.1317 57.0741 93.0153 57.1129C93.0507 56.9885 93.0592 57.0292 92.9251 57.0603Z" fill="white"/>
<path fill-rule="evenodd" clip-rule="evenodd" d="M72.2363 41.8537C72.513 41.8453 72.4497 41.8743 72.6426 41.7373C72.3655 41.7494 72.4239 41.7189 72.2363 41.8537Z" fill="white"/>
<path fill-rule="evenodd" clip-rule="evenodd" d="M63.0537 106.748C63.2928 106.67 63.3147 106.697 63.4833 106.54C63.242 106.604 63.2159 106.571 63.0537 106.748Z" fill="white"/>
<path fill-rule="evenodd" clip-rule="evenodd" d="M69.7363 42.5989L70.3588 42.3672C70.0875 42.3994 69.9206 42.4359 69.7363 42.5989Z" fill="white"/>
<path fill-rule="evenodd" clip-rule="evenodd" d="M89.8291 60.0495C90.0407 59.8825 90.1066 59.6893 90.206 59.4453L89.8291 60.0495Z" fill="white"/>
<path fill-rule="evenodd" clip-rule="evenodd" d="M110.764 61.0025C110.671 60.7644 110.713 60.7459 110.537 60.5928C110.624 60.8335 110.595 60.8474 110.764 61.0025Z" fill="white"/>
<path fill-rule="evenodd" clip-rule="evenodd" d="M62.5723 47.6796C62.8662 47.5745 63.0124 47.4572 63.2279 47.2617L62.5723 47.6796Z" fill="white"/>
<path fill-rule="evenodd" clip-rule="evenodd" d="M74.8633 70.0517C74.7197 69.8854 74.4231 69.7352 74.1914 69.6426L74.8633 70.0517Z" fill="white"/>
<path fill-rule="evenodd" clip-rule="evenodd" d="M105.006 57.7276L104.532 57.1514C104.681 57.3748 104.781 57.5953 105.006 57.7276Z" fill="white"/>
<path fill-rule="evenodd" clip-rule="evenodd" d="M99.2825 47.6883L98.626 47.2695C98.8301 47.4872 99.0106 47.5614 99.2825 47.6883Z" fill="white"/>
<path fill-rule="evenodd" clip-rule="evenodd" d="M61.6729 46.4095C61.9059 46.3215 62.188 46.1753 62.3524 46.0059L61.6729 46.4095Z" fill="white"/>
<path fill-rule="evenodd" clip-rule="evenodd" d="M50.1758 56.0675L50.4423 55.6514C50.2401 55.7956 50.2251 55.8283 50.1758 56.0675Z" fill="white"/>
<path fill-rule="evenodd" clip-rule="evenodd" d="M63.3125 45.4228C63.5652 45.3507 63.6379 45.3297 63.8094 45.1357L63.3125 45.4228Z" fill="white"/>
<path fill-rule="evenodd" clip-rule="evenodd" d="M88.3424 46.3381L87.8926 46.2119C88.0394 46.3709 88.1054 46.3289 88.3424 46.3381Z" fill="white"/>
<path fill-rule="evenodd" clip-rule="evenodd" d="M53.3965 63.9813C53.5729 63.8217 53.5646 63.7579 53.6238 63.5156L53.3965 63.9813Z" fill="white"/>
<path fill-rule="evenodd" clip-rule="evenodd" d="M95.4565 43.8949C95.3093 43.7295 95.2349 43.7183 94.9961 43.6514L95.4565 43.8949Z" fill="white"/>
<path fill-rule="evenodd" clip-rule="evenodd" d="M103.451 74.087L103.294 74.2796L103.075 74.6016C103.288 74.4059 103.138 74.519 103.294 74.2796L103.451 74.087C103.655 74.0579 103.457 74.1196 103.636 74.0554C103.772 74.0064 103.692 74.0275 103.779 73.9521L103.451 74.087H103.451Z" fill="white"/>
<path fill-rule="evenodd" clip-rule="evenodd" d="M89.6191 64.458C89.8261 64.3157 89.8072 64.3249 89.8846 64.1064L89.6191 64.458Z" fill="white"/>
<path fill-rule="evenodd" clip-rule="evenodd" d="M72.8033 71.1471L72.4805 70.9072C72.5192 71.0741 72.6244 71.0673 72.8033 71.1471Z" fill="#67727D"/>
<path fill-rule="evenodd" clip-rule="evenodd" d="M66.4238 43.8552C66.6769 43.7905 66.676 43.8157 66.8621 43.6426L66.4238 43.8552Z" fill="white"/>
<path fill-rule="evenodd" clip-rule="evenodd" d="M95.9252 44.0765L95.4746 43.873C95.6685 44.0388 95.6607 44.0097 95.9252 44.0765Z" fill="white"/>
<path fill-rule="evenodd" clip-rule="evenodd" d="M89.4199 64.8303C89.6043 64.6741 89.5528 64.7113 89.6258 64.4648L89.4199 64.8303Z" fill="white"/>
<path fill-rule="evenodd" clip-rule="evenodd" d="M92.7772 42.8098C92.6539 42.6678 92.6136 42.7001 92.416 42.6768L92.7772 42.8098Z" fill="white"/>
<path fill-rule="evenodd" clip-rule="evenodd" d="M93.2308 44.5064L92.8975 44.3398C93.0154 44.4986 93.0303 44.4644 93.2308 44.5064Z" fill="white"/>
<path fill-rule="evenodd" clip-rule="evenodd" d="M68.7178 42.9373C68.9552 42.9043 68.9078 42.9262 69.0549 42.7783L68.7178 42.9373Z" fill="white"/>
<path fill-rule="evenodd" clip-rule="evenodd" d="M107.141 61.1313L106.896 60.749C106.992 60.9698 106.961 60.987 107.141 61.1313Z" fill="white"/>
<path fill-rule="evenodd" clip-rule="evenodd" d="M66.2852 105.24C66.5068 105.161 66.5465 105.175 66.6978 105.016L66.2852 105.24Z" fill="white"/>
<path fill-rule="evenodd" clip-rule="evenodd" d="M110.966 76.5721L110.722 76.1924C110.816 76.4167 110.786 76.422 110.966 76.5721Z" fill="white"/>
<path fill-rule="evenodd" clip-rule="evenodd" d="M85.3555 67.7356L85.5654 67.3779C85.398 67.535 85.4492 67.4985 85.3555 67.7356Z" fill="white"/>
<path fill-rule="evenodd" clip-rule="evenodd" d="M51.2568 60.7316C51.4324 60.5869 51.3486 60.7357 51.4262 60.4658L51.2568 60.7316Z" fill="#67727D"/>
<path fill-rule="evenodd" clip-rule="evenodd" d="M64.5996 44.7187L64.8602 44.5527C64.5757 44.6337 64.7334 44.5561 64.5996 44.7187Z" fill="#67727D"/>
<path fill-rule="evenodd" clip-rule="evenodd" d="M73.6429 71.7531L73.4111 71.5684L73.6429 71.7531Z" fill="white"/>
<path fill-rule="evenodd" clip-rule="evenodd" d="M86.8467 65.1732L87.1059 64.8164L86.8467 65.1732Z" fill="white"/>
<path fill-rule="evenodd" clip-rule="evenodd" d="M57.9075 93.7386L57.5264 93.2773L57.9075 93.7386Z" fill="white"/>
<path fill-rule="evenodd" clip-rule="evenodd" d="M75.7608 73.0625L75.0791 72.6592L75.7608 73.0625Z" fill="white"/>
<path fill-rule="evenodd" clip-rule="evenodd" d="M100.186 46.4207L99.8652 46.1855L100.186 46.4207Z" fill="white"/>
<path fill-rule="evenodd" clip-rule="evenodd" d="M61.3428 46.6402L61.667 46.4111L61.3428 46.6402Z" fill="white"/>
<path fill-rule="evenodd" clip-rule="evenodd" d="M118.424 64.6324L118.212 64.21L118.424 64.6324Z" fill="white"/>
<path fill-rule="evenodd" clip-rule="evenodd" d="M98.4152 47.1354L97.5918 46.6113L98.4152 47.1354Z" fill="white"/>
<path fill-rule="evenodd" clip-rule="evenodd" d="M66.8281 48.9953L67.2203 48.7559L66.8281 48.9953Z" fill="white"/>
<path fill-rule="evenodd" clip-rule="evenodd" d="M53.2881 64.3223L53.4205 64.0264L53.2881 64.3223Z" fill="white"/>
<path fill-rule="evenodd" clip-rule="evenodd" d="M62.9766 51.473L63.4781 51.1094L62.9766 51.473Z" fill="white"/>
<path fill-rule="evenodd" clip-rule="evenodd" d="M51.0557 54.684L51.4818 54.0391L51.0557 54.684Z" fill="white"/>
<path fill-rule="evenodd" clip-rule="evenodd" d="M111.199 55.2225L110.973 54.8828L111.199 55.2225Z" fill="white"/>
<path fill-rule="evenodd" clip-rule="evenodd" d="M97.6511 43.2028L97.376 43.0605L97.6511 43.2028Z" fill="white"/>
<path fill-rule="evenodd" clip-rule="evenodd" d="M85.5547 67.3622L85.8253 67.0254L85.5547 67.3622Z" fill="white"/>
<path fill-rule="evenodd" clip-rule="evenodd" d="M63.0566 45.5835L63.3224 45.4209L63.0566 45.5835Z" fill="white"/>
<path fill-rule="evenodd" clip-rule="evenodd" d="M76.5263 71.1487L76.1973 70.917L76.5263 71.1487Z" fill="white"/>
<path d="M84.1629 94.0016V91.7657L87.8388 86.1192C88.1167 85.7024 88.3789 85.2981 88.6251 84.9065C88.8715 84.515 89.0736 84.117 89.2315 83.7128C89.3894 83.3086 89.4683 82.8854 89.4683 82.4433C89.4683 82.0012 89.3799 81.6727 89.2031 81.458C89.0262 81.2432 88.7862 81.1359 88.4831 81.1359C88.142 81.1359 87.8767 81.2307 87.6872 81.4201C87.4978 81.6096 87.3683 81.8623 87.2988 82.1781C87.2293 82.4939 87.1946 82.8476 87.1946 83.2392V83.9971H84.125V83.1823C84.125 82.2728 84.2702 81.4612 84.5608 80.7475C84.8514 80.0337 85.3124 79.4716 85.9441 79.0611C86.5757 78.6506 87.4031 78.4453 88.4262 78.4453C89.8031 78.4453 90.8421 78.8022 91.5432 79.5159C92.2443 80.2296 92.5948 81.2244 92.5948 82.5002C92.5948 83.1192 92.4969 83.694 92.3011 84.2245C92.1053 84.755 91.8464 85.2698 91.5242 85.7688C91.2021 86.2677 90.8579 86.7888 90.4916 87.332L87.6872 91.5195H92.178V94.0018H84.1629L84.1629 94.0016Z" fill="white"/>
<path d="M97.9935 94.0004V90.5518H93.2754V88.2212L97.2735 78.6523H100.949V88.2022H102.371V90.5517H100.949V94.0003H97.9935L97.9935 94.0004ZM95.6818 88.2022H97.9935V81.8167L95.6818 88.2022Z" fill="white"/>
<path d="M103.546 94.0003L108.245 78.6523H109.912L105.194 94.0003H103.546Z" fill="white"/>
<path d="M111.958 94.0003L115.293 81.0588H111.105V78.6523H118.382V80.8314L115.047 94.0003H111.958Z" fill="white"/>
<path d="M95.6539 101.484C95.6539 101.288 95.5956 101.13 95.4789 101.008C95.3622 100.882 95.2152 100.773 95.0379 100.679C94.8652 100.581 94.6762 100.49 94.4709 100.406C94.2656 100.322 94.0742 100.222 93.8969 100.105C93.7242 99.9841 93.5796 99.8371 93.4629 99.6645C93.3462 99.4871 93.2879 99.2631 93.2879 98.9925C93.2879 98.6098 93.4209 98.3065 93.6869 98.0825C93.9529 97.8585 94.3309 97.7465 94.8209 97.7465C95.1056 97.7465 95.3646 97.7675 95.5979 97.8095C95.8312 97.8515 96.0132 97.9051 96.1439 97.9705L95.9689 98.4815C95.8616 98.4301 95.7029 98.3811 95.4929 98.3345C95.2876 98.2878 95.0542 98.2645 94.7929 98.2645C94.4849 98.2645 94.2539 98.3345 94.0999 98.4745C93.9459 98.6098 93.8689 98.7708 93.8689 98.9575C93.8689 99.1395 93.9272 99.2911 94.0439 99.4125C94.1606 99.5338 94.3052 99.6435 94.4779 99.7415C94.6552 99.8348 94.8466 99.9281 95.0519 100.021C95.2572 100.115 95.4462 100.224 95.6189 100.35C95.7962 100.472 95.9432 100.619 96.0599 100.791C96.1766 100.964 96.2349 101.179 96.2349 101.435C96.2349 101.645 96.1976 101.834 96.1229 102.002C96.0482 102.17 95.9386 102.315 95.7939 102.436C95.6492 102.558 95.4742 102.651 95.2689 102.716C95.0636 102.782 94.8302 102.814 94.5689 102.814C94.2189 102.814 93.9296 102.786 93.7009 102.73C93.4722 102.679 93.2949 102.621 93.1689 102.555L93.3649 102.03C93.4722 102.091 93.6309 102.152 93.8409 102.212C94.0509 102.268 94.2866 102.296 94.5479 102.296C94.7019 102.296 94.8466 102.282 94.9819 102.254C95.1172 102.222 95.2339 102.173 95.3319 102.107C95.4299 102.037 95.5069 101.951 95.5629 101.848C95.6236 101.746 95.6539 101.624 95.6539 101.484ZM97.6087 99.2305V101.225C97.6087 101.407 97.618 101.568 97.6367 101.708C97.66 101.844 97.6973 101.958 97.7487 102.051C97.8 102.14 97.87 102.208 97.9587 102.254C98.0473 102.301 98.1593 102.324 98.2947 102.324C98.4207 102.324 98.5327 102.306 98.6307 102.268C98.7287 102.226 98.815 102.17 98.8897 102.1C98.969 102.03 99.0367 101.951 99.0927 101.862C99.1533 101.769 99.2023 101.671 99.2397 101.568V99.2305H99.7997V101.736C99.7997 101.904 99.8043 102.079 99.8137 102.261C99.8277 102.439 99.8487 102.595 99.8767 102.73H99.4917L99.3517 102.177H99.3167C99.2093 102.359 99.0647 102.511 98.8827 102.632C98.7007 102.754 98.4697 102.814 98.1897 102.814C98.003 102.814 97.8373 102.791 97.6927 102.744C97.5527 102.702 97.4337 102.625 97.3357 102.513C97.2423 102.401 97.17 102.252 97.1187 102.065C97.072 101.874 97.0487 101.634 97.0487 101.344V99.2305H97.6087ZM100.878 99.2305H101.263L101.368 99.6505H101.396C101.503 99.4871 101.641 99.3635 101.809 99.2795C101.982 99.1908 102.178 99.1465 102.397 99.1465C102.864 99.1465 103.211 99.2841 103.44 99.5595C103.669 99.8348 103.783 100.285 103.783 100.91C103.783 101.204 103.743 101.47 103.664 101.708C103.589 101.942 103.482 102.14 103.342 102.303C103.202 102.467 103.032 102.593 102.831 102.681C102.635 102.77 102.416 102.814 102.173 102.814C102 102.814 101.863 102.803 101.76 102.779C101.662 102.761 101.555 102.726 101.438 102.674V104.13H100.878V99.2305ZM102.292 99.6365C102.054 99.6365 101.865 99.6995 101.725 99.8255C101.59 99.9468 101.494 100.133 101.438 100.385V102.121C101.522 102.187 101.618 102.238 101.725 102.275C101.832 102.308 101.975 102.324 102.152 102.324C102.474 102.324 102.728 102.205 102.915 101.967C103.106 101.725 103.202 101.37 103.202 100.903C103.202 100.712 103.186 100.539 103.153 100.385C103.12 100.227 103.067 100.094 102.992 99.9865C102.922 99.8745 102.829 99.7881 102.712 99.7275C102.6 99.6668 102.46 99.6365 102.292 99.6365ZM104.665 99.2305H105.05L105.155 99.6505H105.183C105.291 99.4871 105.428 99.3635 105.596 99.2795C105.769 99.1908 105.965 99.1465 106.184 99.1465C106.651 99.1465 106.999 99.2841 107.227 99.5595C107.456 99.8348 107.57 100.285 107.57 100.91C107.57 101.204 107.531 101.47 107.451 101.708C107.377 101.942 107.269 102.14 107.129 102.303C106.989 102.467 106.819 102.593 106.618 102.681C106.422 102.77 106.203 102.814 105.96 102.814C105.788 102.814 105.65 102.803 105.547 102.779C105.449 102.761 105.342 102.726 105.225 102.674V104.13H104.665V99.2305ZM106.079 99.6365C105.841 99.6365 105.652 99.6995 105.512 99.8255C105.377 99.9468 105.281 100.133 105.225 100.385V102.121C105.309 102.187 105.405 102.238 105.512 102.275C105.62 102.308 105.762 102.324 105.939 102.324C106.261 102.324 106.516 102.205 106.702 101.967C106.894 101.725 106.989 101.37 106.989 100.903C106.989 100.712 106.973 100.539 106.94 100.385C106.908 100.227 106.854 100.094 106.779 99.9865C106.709 99.8745 106.616 99.7881 106.499 99.7275C106.387 99.6668 106.247 99.6365 106.079 99.6365ZM108.256 100.98C108.256 100.388 108.387 99.9351 108.648 99.6225C108.914 99.3051 109.295 99.1465 109.789 99.1465C110.051 99.1465 110.277 99.1908 110.468 99.2795C110.664 99.3635 110.825 99.4871 110.951 99.6505C111.077 99.8091 111.171 100.003 111.231 100.231C111.292 100.455 111.322 100.705 111.322 100.98C111.322 101.573 111.189 102.028 110.923 102.345C110.662 102.658 110.284 102.814 109.789 102.814C109.528 102.814 109.299 102.772 109.103 102.688C108.912 102.6 108.753 102.476 108.627 102.317C108.501 102.154 108.408 101.96 108.347 101.736C108.287 101.508 108.256 101.256 108.256 100.98ZM108.837 100.98C108.837 101.158 108.854 101.328 108.886 101.491C108.924 101.655 108.98 101.797 109.054 101.918C109.129 102.04 109.227 102.138 109.348 102.212C109.47 102.287 109.617 102.324 109.789 102.324C110.424 102.329 110.741 101.881 110.741 100.98C110.741 100.798 110.723 100.626 110.685 100.462C110.653 100.299 110.599 100.157 110.524 100.035C110.45 99.9141 110.352 99.8185 110.23 99.7485C110.109 99.6738 109.962 99.6365 109.789 99.6365C109.155 99.6318 108.837 100.08 108.837 100.98ZM113.857 99.7695C113.717 99.7228 113.584 99.6995 113.458 99.6995C113.258 99.6995 113.099 99.7555 112.982 99.8675C112.866 99.9748 112.793 100.112 112.765 100.28V102.73H112.205V99.2305H112.597L112.702 99.6575H112.73C112.819 99.4988 112.924 99.3775 113.045 99.2935C113.171 99.2048 113.33 99.1605 113.521 99.1605C113.657 99.1605 113.808 99.1838 113.976 99.2305L113.857 99.7695ZM114.334 99.2305H114.88V98.5375L115.44 98.3765V99.2305H116.392V99.7205H115.44V101.659C115.44 101.902 115.47 102.075 115.531 102.177C115.592 102.275 115.694 102.324 115.839 102.324C115.96 102.324 116.063 102.313 116.147 102.289C116.231 102.261 116.324 102.226 116.427 102.184L116.553 102.611C116.427 102.672 116.289 102.721 116.14 102.758C115.991 102.796 115.83 102.814 115.657 102.814C115.372 102.814 115.172 102.735 115.055 102.576C114.938 102.413 114.88 102.142 114.88 101.764V99.7205H114.334V99.2305Z" fill="white"/>
<path d="M62.5635 147.701L62.2514 148.911L53.8005 146.732L54.1126 145.522L57.6558 146.436L60.2489 136.378L61.6134 136.73L59.0203 146.787L62.5635 147.701Z" fill="black"/>
<path d="M53.4674 133.795C54.1976 134.091 54.768 134.524 55.1784 135.095C55.5853 135.665 55.8167 136.324 55.8725 137.074C55.9248 137.823 55.7818 138.615 55.4433 139.451C55.102 140.293 54.6514 140.967 54.0914 141.472C53.5279 141.975 52.9019 142.29 52.2135 142.415C51.5215 142.54 50.8104 142.454 50.0801 142.158C49.3499 141.862 48.7813 141.43 48.3744 140.86C47.964 140.289 47.7333 139.628 47.6824 138.876C47.628 138.122 47.7714 137.324 48.1127 136.482C48.4512 135.646 48.9014 134.978 49.4635 134.478C50.0221 133.977 50.6473 133.665 51.3393 133.54C52.0278 133.414 52.7371 133.499 53.4674 133.795ZM53.0152 134.912C52.4605 134.687 51.9465 134.644 51.4732 134.784C50.9999 134.923 50.5834 135.19 50.2237 135.583C49.8639 135.977 49.5746 136.444 49.3556 136.985C49.1366 137.526 49.0185 138.064 49.0014 138.601C48.9843 139.137 49.0965 139.622 49.338 140.055C49.5795 140.488 49.9776 140.817 50.5323 141.042C51.087 141.266 51.6018 141.307 52.0765 141.164C52.5512 141.022 52.9691 140.751 53.3303 140.354C53.6914 139.957 53.9815 139.488 54.2005 138.947C54.4195 138.407 54.5368 137.87 54.5525 137.337C54.5682 136.804 54.4546 136.322 54.2116 135.893C53.9687 135.463 53.5699 135.136 53.0152 134.912Z" fill="black"/>
<path d="M44.7949 129.727L38.3179 139.394L34.9382 137.13C34.2647 136.679 33.7873 136.19 33.5059 135.664C33.2224 135.141 33.1044 134.613 33.1519 134.08C33.1972 133.549 33.378 133.048 33.6943 132.576C33.9726 132.161 34.2764 131.867 34.6056 131.696C34.9317 131.522 35.267 131.437 35.6116 131.439C35.953 131.44 36.2875 131.496 36.615 131.606L36.6783 131.511C36.3951 131.294 36.1673 130.991 35.9949 130.602C35.8224 130.213 35.7536 129.775 35.7883 129.287C35.8231 128.8 36.0112 128.301 36.3528 127.791C36.6775 127.307 37.0796 126.945 37.5592 126.705C38.0388 126.466 38.5921 126.392 39.2191 126.484C39.8461 126.576 40.5404 126.877 41.3019 127.387L44.7949 129.727ZM42.9285 129.981L40.6061 128.425C39.8414 127.913 39.1995 127.697 38.6803 127.778C38.1559 127.86 37.7514 128.113 37.4667 128.538C37.2475 128.865 37.1285 129.223 37.1097 129.612C37.0888 130.004 37.1767 130.386 37.3734 130.76C37.5679 131.136 37.876 131.466 38.2977 131.748L40.6767 133.342L42.9285 129.981ZM39.9936 134.362L37.8223 132.907C37.4698 132.671 37.1056 132.527 36.7296 132.476C36.3505 132.422 35.9932 132.466 35.6577 132.606C35.3191 132.744 35.036 132.982 34.8083 133.322C34.5236 133.747 34.4301 134.207 34.5277 134.701C34.6233 135.198 34.992 135.661 35.6339 136.091L37.843 137.572L39.9936 134.362Z" fill="black"/>
<path d="M34.5648 121.796C35.1512 122.323 35.5405 122.924 35.7327 123.6C35.922 124.274 35.9156 124.973 35.7134 125.697C35.5084 126.419 35.1048 127.116 34.5027 127.787C33.8956 128.463 33.243 128.944 32.5449 129.228C31.8439 129.511 31.1484 129.594 30.4581 129.478C29.765 129.36 29.1253 129.038 28.5389 128.512C27.9525 127.986 27.5646 127.386 27.3752 126.712C27.183 126.036 27.1907 125.335 27.3983 124.61C27.603 123.883 28.0089 123.181 28.6161 122.505C29.2182 121.834 29.8684 121.358 30.5668 121.079C31.2624 120.798 31.9567 120.716 32.6498 120.834C33.34 120.949 33.9784 121.27 34.5648 121.796ZM33.7603 122.693C33.3149 122.293 32.8459 122.078 32.3534 122.049C31.861 122.019 31.3787 122.128 30.9066 122.377C30.4345 122.625 30.0037 122.966 29.6141 123.4C29.2245 123.834 28.9306 124.301 28.7323 124.8C28.534 125.299 28.4749 125.793 28.555 126.282C28.6351 126.771 28.8979 127.216 29.3433 127.615C29.7888 128.015 30.259 128.228 30.754 128.255C31.249 128.282 31.7338 128.17 32.2084 127.919C32.683 127.668 33.1151 127.325 33.5047 126.891C33.8943 126.457 34.187 125.992 34.3828 125.496C34.5786 125 34.6351 124.508 34.5525 124.022C34.4698 123.536 34.2058 123.093 33.7603 122.693Z" fill="black"/>
<path d="M28.4836 115.464C28.9942 116.064 29.2994 116.712 29.3992 117.408C29.4965 118.101 29.3964 118.793 29.0989 119.484C28.7989 120.172 28.3057 120.808 27.6191 121.392C26.9267 121.981 26.2155 122.37 25.4856 122.559C24.7532 122.744 24.0527 122.733 23.3842 122.526C22.7132 122.316 22.1224 121.911 21.6118 121.311C21.1012 120.711 20.7973 120.065 20.7 119.372C20.6002 118.676 20.7017 117.983 21.0046 117.292C21.3049 116.599 21.8013 115.958 22.4937 115.369C23.1803 114.784 23.8884 114.401 24.6179 114.218C25.3449 114.032 26.044 114.044 26.715 114.254C27.3835 114.461 27.9731 114.864 28.4836 115.464ZM27.5662 116.245C27.1784 115.789 26.7424 115.514 26.2584 115.418C25.7743 115.323 25.2818 115.366 24.7807 115.549C24.2796 115.732 23.8069 116.012 23.3626 116.39C22.9184 116.768 22.5645 117.191 22.3011 117.659C22.0377 118.127 21.9129 118.608 21.9267 119.104C21.9405 119.599 22.1414 120.075 22.5292 120.531C22.9171 120.987 23.3544 121.261 23.8414 121.354C24.3283 121.447 24.8238 121.401 25.3277 121.216C25.8317 121.031 26.3058 120.749 26.7501 120.371C27.1944 119.993 27.5468 119.571 27.8073 119.106C28.0678 118.641 28.1897 118.161 28.173 117.668C28.1563 117.175 27.9541 116.701 27.5662 116.245Z" fill="black"/>
<path d="M21.7357 112.134L20.3565 113.056L20.208 112.827L14.8693 111.741L13.9659 110.349L19.6314 111.522L19.6933 111.617L21.7357 112.134ZM25.0851 111.45L15.3251 117.786L14.595 116.661L24.355 110.325L25.0851 111.45ZM22.0656 106.798L20.3 112.009L18.9987 111.716L21.1374 105.369L22.0656 106.798Z" fill="black"/>
<path d="M18.2016 98.4343C18.41 98.9466 18.5027 99.4507 18.4796 99.9468C18.453 100.444 18.3055 100.891 18.0371 101.286C17.7651 101.683 17.366 101.989 16.8397 102.203C16.3766 102.391 15.964 102.453 15.6021 102.387C15.2366 102.324 14.9094 102.172 14.6203 101.934C14.3311 101.696 14.0713 101.409 13.8407 101.074C13.6052 100.736 13.3864 100.39 13.1846 100.034C12.9215 99.5687 12.7121 99.1897 12.5563 98.8973C12.3956 98.6029 12.2464 98.4019 12.1086 98.2944C11.9693 98.1834 11.7997 98.1685 11.5997 98.2499L11.5576 98.2671C11.0384 98.4784 10.6927 98.7846 10.5207 99.1859C10.3472 99.5836 10.3768 100.068 10.6095 100.64C10.8508 101.233 11.1697 101.645 11.5664 101.877C11.9631 102.108 12.3367 102.232 12.6871 102.249L12.7457 103.599C12.1689 103.588 11.6722 103.463 11.2558 103.224C10.8344 102.982 10.4844 102.675 10.2058 102.301C9.92217 101.926 9.69757 101.535 9.53196 101.128C9.42631 100.868 9.33654 100.557 9.26263 100.195C9.1838 99.8301 9.17486 99.4513 9.23583 99.0585C9.29537 98.6621 9.47353 98.2809 9.7703 97.9147C10.0671 97.5486 10.5365 97.2349 11.1785 96.9736L16.5045 94.8064L17.0099 96.0485L15.9152 96.4939L15.9409 96.557C16.1506 96.5699 16.3954 96.6338 16.6754 96.7489C16.9553 96.864 17.2318 97.0562 17.5049 97.3254C17.7781 97.5945 18.0103 97.9642 18.2016 98.4343ZM17.0088 98.6989C16.8089 98.2077 16.5439 97.8329 16.2139 97.5746C15.8825 97.3128 15.5291 97.1581 15.1539 97.1104C14.7773 97.0592 14.4206 97.1021 14.0838 97.2391L12.947 97.7017C13.0316 97.7286 13.1366 97.8209 13.262 97.9784C13.3825 98.1338 13.5092 98.3195 13.642 98.5353C13.7699 98.7491 13.8921 98.959 14.0087 99.1651C14.1204 99.3692 14.2121 99.5343 14.2839 99.6605C14.4573 99.9661 14.6485 100.24 14.8575 100.482C15.0615 100.722 15.2914 100.89 15.5473 100.987C15.7983 101.081 16.0817 101.064 16.3974 100.935C16.829 100.76 17.0903 100.467 17.1814 100.058C17.2676 99.6466 17.2101 99.1936 17.0088 98.6989Z" fill="black"/>
<path d="M10.6007 93.2245L15.6801 91.897L16.0191 93.1943L7.57549 95.4011L7.24791 94.1478L8.56723 93.803L8.53849 93.693C8.05799 93.6072 7.63496 93.3967 7.2694 93.0616C6.90018 92.7274 6.63223 92.2415 6.46557 91.6038C6.31615 91.0321 6.30268 90.5012 6.42516 90.0112C6.54397 89.522 6.80863 89.0966 7.21913 88.7348C7.62596 88.374 8.18852 88.0997 8.90682 87.912L14.2721 86.5097L14.6111 87.8071L9.33385 89.1863C8.67052 89.3597 8.19881 89.667 7.9187 90.1082C7.63493 90.5504 7.57158 91.072 7.72867 91.6731C7.8369 92.0872 8.02343 92.4338 8.28825 92.7131C8.55211 92.9886 8.88071 93.1749 9.27405 93.2717C9.66739 93.3686 10.1096 93.3529 10.6007 93.2245Z" fill="black"/>
<path d="M13.368 79.9853L13.4384 81.4609L1.61156 77.7478L1.54222 76.2949L12.9617 71.4723L13.0321 72.9479L3.41353 76.8881L3.41787 76.979L13.368 79.9853ZM8.80166 79.6572L8.5178 73.7094L9.76638 73.6498L10.0502 79.5976L8.80166 79.6572Z" fill="black"/>
<path d="M16.41 70.7264L4.46883 69.54L4.5969 68.2509L5.97648 68.388L5.9922 68.2297C5.85117 68.1167 5.67241 67.9619 5.45594 67.7653C5.23608 67.5645 5.05008 67.291 4.89797 66.9447C4.74246 66.5943 4.69279 66.1364 4.74896 65.571C4.82161 64.8398 5.06846 64.2134 5.4895 63.6918C5.91055 63.1703 6.47209 62.7864 7.17411 62.5402C7.87613 62.294 8.68323 62.2162 9.5954 62.3069C10.5151 62.3982 11.2968 62.6339 11.9404 63.0138C12.5803 63.3933 13.0574 63.8784 13.3717 64.4692C13.6823 65.0596 13.8016 65.7167 13.7297 66.4404C13.6743 66.9983 13.5376 67.4358 13.3196 67.7529C13.0978 68.0696 12.8591 68.3067 12.6037 68.464C12.3445 68.621 12.1309 68.7406 11.9628 68.8228L11.9516 68.9359L16.5426 69.392L16.41 70.7264ZM8.94141 68.6597C9.59727 68.7249 10.1854 68.6862 10.7058 68.5438C11.2225 68.401 11.6405 68.1589 11.9599 67.8176C12.2755 67.4759 12.4599 67.0375 12.5131 66.5022C12.5685 65.9444 12.4678 65.4643 12.2108 65.0619C11.9505 64.6554 11.5791 64.333 11.0965 64.0947C10.6105 63.8523 10.0584 63.7004 9.44022 63.639C8.82959 63.5783 8.26991 63.6179 7.76117 63.7576C7.24904 63.8933 6.83102 64.1353 6.5071 64.4838C6.17979 64.8281 5.98805 65.283 5.93187 65.8484C5.87795 66.3912 5.97022 66.8609 6.20868 67.2577C6.44337 67.654 6.79636 67.9708 7.26765 68.2079C7.73517 68.4447 8.29309 68.5953 8.94141 68.6597Z" fill="black"/>
<path d="M17.399 62.271L5.7344 59.4537L6.03854 58.1945L7.38616 58.5199L7.42351 58.3653C7.29935 58.234 7.14358 58.0561 6.9562 57.8316C6.76603 57.6025 6.61943 57.306 6.51638 56.9421C6.41053 56.5736 6.42431 56.1132 6.5577 55.5609C6.73022 54.8466 7.06087 54.2601 7.54964 53.8014C8.03841 53.3428 8.6474 53.0398 9.37661 52.8925C10.1058 52.7451 10.9159 52.7791 11.807 52.9943C12.7054 53.2113 13.4472 53.5522 14.0325 54.017C14.6141 54.4809 15.0199 55.027 15.2501 55.6554C15.4765 56.2829 15.5043 56.9502 15.3336 57.6571C15.202 58.2021 15.0064 58.6166 14.7468 58.9007C14.4836 59.1839 14.2146 59.3859 13.94 59.5066C13.6616 59.6265 13.4336 59.7156 13.2558 59.7739L13.2291 59.8844L17.7138 60.9676L17.399 62.271ZM10.2856 59.1968C10.9262 59.3516 11.5141 59.3942 12.0491 59.3247C12.5805 59.2543 13.0279 59.072 13.3912 58.7779C13.7508 58.4828 13.9937 58.0739 14.12 57.5511C14.2516 57.0061 14.2179 56.5167 14.0187 56.0828C13.8168 55.6444 13.4932 55.274 13.0479 54.9716C12.5999 54.6646 12.0739 54.4382 11.4701 54.2924C10.8736 54.1483 10.3138 54.1105 9.79067 54.179C9.26475 54.243 8.81741 54.4252 8.44865 54.7258C8.0771 55.0219 7.82462 55.4461 7.69123 55.9984C7.56317 56.5286 7.58996 57.0065 7.7716 57.4323C7.94955 57.8572 8.25563 58.2195 8.68982 58.5192C9.12034 58.818 9.65225 59.0439 10.2856 59.1968Z" fill="black"/>
<path d="M17.9818 49.5739C17.6934 50.3071 17.2659 50.8818 16.6992 51.298C16.1339 51.7106 15.4766 51.9486 14.7271 52.012C13.979 52.0719 13.1855 51.9369 12.3466 51.6069C11.5006 51.2741 10.8224 50.8303 10.312 50.2754C9.80308 49.7171 9.48225 49.0943 9.34957 48.4071C9.21827 47.7164 9.29682 47.0045 9.58521 46.2713C9.8736 45.5381 10.3004 44.9652 10.8657 44.5525C11.4324 44.1364 12.0915 43.899 12.8431 43.8405C13.5961 43.7785 14.3956 43.9139 15.2416 44.2467C16.0805 44.5766 16.7527 45.0201 17.2582 45.5771C17.765 46.1306 18.084 46.7527 18.2153 47.4434C18.348 48.1305 18.2702 48.8407 17.9818 49.5739ZM16.8608 49.133C17.0799 48.5761 17.1174 48.0617 16.9733 47.5898C16.8292 47.1179 16.5584 46.7041 16.1611 46.3484C15.7637 45.9927 15.2936 45.708 14.7507 45.4945C14.2079 45.281 13.6681 45.1684 13.1313 45.1567C12.5946 45.145 12.1109 45.2621 11.6805 45.508C11.25 45.7538 10.9252 46.1552 10.7062 46.7122C10.4871 47.2691 10.4514 47.7842 10.599 48.2575C10.7466 48.7307 11.0209 49.1459 11.4218 49.503C11.8227 49.8602 12.2945 50.1455 12.8374 50.359C13.3802 50.5725 13.9183 50.6844 14.4515 50.6947C14.9848 50.705 15.4649 50.5865 15.8918 50.3393C16.3187 50.0921 16.6418 49.69 16.8608 49.133Z" fill="black"/>
<path d="M19.9471 44.7481L12.1677 40.7927L12.7754 39.5974L20.5548 43.5529L19.9471 44.7481ZM11.1801 39.5257C11.0616 39.7587 10.8801 39.9192 10.6356 40.0074C10.3928 40.0921 10.16 40.0779 9.93711 39.9646C9.71427 39.8513 9.56555 39.6715 9.49098 39.4254C9.41812 39.1759 9.44092 38.9346 9.55938 38.7017C9.67784 38.4687 9.85847 38.3098 10.1013 38.2251C10.3458 38.1369 10.5795 38.1495 10.8024 38.2628C11.0252 38.3761 11.1731 38.5575 11.2459 38.807C11.3205 39.0532 11.2986 39.2927 11.1801 39.5257Z" fill="black"/>
<path d="M17.8728 37.5836L22.3084 40.3922L21.5911 41.5251L14.2176 36.8563L14.9107 35.7618L16.0628 36.4913L16.1236 36.3953C15.8585 35.9854 15.7239 35.5325 15.7196 35.0366C15.712 34.5387 15.8846 34.0113 16.2372 33.4544C16.5533 32.9552 16.9323 32.5832 17.3742 32.3384C17.8129 32.0917 18.3045 31.995 18.8491 32.0484C19.3904 32.0997 19.9747 32.324 20.602 32.7212L25.2872 35.6878L24.5699 36.8207L19.9615 33.9027C19.3822 33.5359 18.8357 33.4006 18.322 33.4968C17.8051 33.5909 17.3805 33.9004 17.0482 34.4252C16.8192 34.7869 16.6929 35.1597 16.6694 35.5439C16.6479 35.9248 16.7359 36.2921 16.9334 36.6458C17.1308 36.9995 17.444 37.3121 17.8728 37.5836Z" fill="black"/>
<path d="M21.9057 25.9679L22.798 26.6716L19.9972 30.2227L19.1049 29.519L21.9057 25.9679ZM18.2795 27.1892L19.1099 26.1363L25.6411 31.2876C25.9385 31.5221 26.1956 31.6549 26.4123 31.686C26.6284 31.7117 26.8157 31.6761 26.9742 31.5791C27.132 31.4769 27.2719 31.3484 27.3939 31.1938C27.4854 31.0778 27.5545 30.9779 27.6013 30.8942C27.645 30.8081 27.68 30.7392 27.7063 30.6876L28.821 31.2194C28.7915 31.3119 28.7396 31.4326 28.6655 31.5816C28.5944 31.733 28.4814 31.9068 28.3266 32.1031C28.0921 32.4005 27.7982 32.6415 27.4451 32.8262C27.0944 33.0079 26.7143 33.0892 26.3048 33.0701C25.8976 33.0481 25.4948 32.8799 25.0962 32.5656L18.2795 27.1892Z" fill="black"/>
<path d="M29.383 30.4412L23.3199 24.164L24.2517 23.264L25.199 24.2448L25.2808 24.1658C25.0879 23.7044 25.0477 23.2403 25.1603 22.7734C25.2702 22.3039 25.5295 21.8717 25.9382 21.477C26.3523 21.077 26.7878 20.8381 27.2445 20.7603C27.7014 20.6771 28.1693 20.7281 28.6482 20.9132L28.7136 20.8501C28.5612 20.3706 28.5537 19.8802 28.6909 19.379C28.8256 18.875 29.1177 18.4059 29.5672 17.9717C30.1285 17.4296 30.7573 17.1619 31.4537 17.1687C32.1474 17.1727 32.8509 17.5438 33.564 18.2822L37.6219 22.4834L36.6574 23.4149L32.5996 19.2138C32.1522 18.7506 31.7058 18.5419 31.2603 18.5878C30.8148 18.6336 30.4204 18.8223 30.0771 19.1539C29.6358 19.5802 29.4228 20.044 29.4382 20.5452C29.451 21.0437 29.6534 21.4959 30.0455 21.9019L33.9929 25.9886L33.0121 26.936L28.8594 22.6367C28.5147 22.2798 28.1213 22.1042 27.6792 22.1099C27.2344 22.1129 26.8295 22.2907 26.4644 22.6434C26.2138 22.8855 26.044 23.1785 25.9549 23.5226C25.8687 23.864 25.8732 24.2176 25.9687 24.5836C26.0642 24.9442 26.2607 25.2785 26.558 25.5864L30.3475 29.5096L29.383 30.4412Z" fill="black"/>
<path d="M41.9884 19.8906C41.2963 20.3683 40.5939 20.6276 39.8811 20.6686C39.1693 20.7043 38.4874 20.5398 37.8353 20.1753C37.1842 19.8055 36.6047 19.2527 36.0969 18.5171C35.589 17.7814 35.2755 17.0405 35.1562 16.2943C35.0379 15.5428 35.1117 14.8429 35.3776 14.1945C35.6444 13.5409 36.102 12.9903 36.7504 12.5427C37.1244 12.2844 37.5369 12.0918 37.9877 11.9647C38.4385 11.8376 38.9103 11.8111 39.4032 11.8851C39.894 11.9559 40.3864 12.1591 40.8804 12.4947C41.3744 12.8303 41.8528 13.3332 42.3154 14.0034L42.6382 14.471L37.1019 18.2928L36.4434 17.3389L40.8575 14.2918C40.5778 13.8866 40.2471 13.5809 39.8655 13.3748C39.487 13.1666 39.0862 13.0728 38.6631 13.0933C38.2432 13.1116 37.8337 13.2585 37.4346 13.534C36.9951 13.8374 36.6901 14.209 36.5197 14.6489C36.3502 15.0835 36.2992 15.5329 36.3666 15.9973C36.434 16.4617 36.6043 16.8918 36.8776 17.2877L37.3166 17.9236C37.691 18.466 38.1019 18.8613 38.5494 19.1094C38.9977 19.3522 39.458 19.4556 39.9303 19.4195C40.4004 19.3804 40.8583 19.207 41.3041 18.8993C41.594 18.6991 41.8278 18.4779 42.0057 18.2354C42.1845 17.9877 42.3026 17.7221 42.36 17.4385C42.4153 17.1518 42.4036 16.8515 42.3249 16.5376L43.5976 16.1009C43.735 16.54 43.7659 16.9881 43.6903 17.4453C43.6126 17.8995 43.4316 18.3374 43.1474 18.7591C42.861 19.1777 42.4746 19.5549 41.9884 19.8906Z" fill="black"/>
<path d="M44.8191 11.8139L47.2054 16.4902L46.011 17.0997L42.0441 9.32609L43.198 8.73725L43.8178 9.95187L43.919 9.90022C43.8998 9.41249 44.0146 8.95416 44.2635 8.52521C44.5107 8.0929 44.9278 7.72694 45.5149 7.42736C46.0412 7.15876 46.5568 7.03171 47.0618 7.04619C47.565 7.05731 48.0373 7.22453 48.4787 7.54785C48.9184 7.8678 49.307 8.35843 49.6445 9.01972L52.1651 13.9592L50.9707 14.5687L48.4914 9.7102C48.1798 9.09951 47.7784 8.70471 47.2874 8.52579C46.7946 8.34349 46.2716 8.39352 45.7182 8.67589C45.337 8.87045 45.0384 9.12701 44.8225 9.44557C44.6099 9.76241 44.4985 10.1233 44.4883 10.5283C44.4781 10.9332 44.5883 11.3618 44.8191 11.8139Z" fill="black"/>
<path d="M54.2189 3.87344L54.6273 4.93387L50.4067 6.55937L49.9983 5.49893L54.2189 3.87344ZM50.4769 3.07397L51.7283 2.59204L54.7179 10.3544C54.854 10.7079 55.0074 10.9533 55.1779 11.0905C55.3507 11.2229 55.5299 11.2878 55.7157 11.2853C55.9036 11.2778 56.0895 11.2387 56.2733 11.1679C56.4111 11.1148 56.5215 11.0642 56.6044 11.016C56.686 10.9643 56.7512 10.923 56.8002 10.8919L57.4876 11.918C57.415 11.9825 57.3089 12.0599 57.1691 12.1502C57.0307 12.2441 56.8449 12.336 56.6116 12.4258C56.2581 12.562 55.8824 12.6194 55.4846 12.5981C55.0902 12.5754 54.7218 12.4515 54.3793 12.2262C54.0404 11.9995 53.7797 11.6493 53.5972 11.1757L50.4769 3.07397Z" fill="black"/>
</svg>
