<svg width="58" height="48" viewBox="0 0 58 48" fill="none" xmlns="http://www.w3.org/2000/svg">
<path d="M42.5693 47.0539H15.4872C14.4995 47.0539 13.6914 46.0887 13.6914 44.899C13.6914 43.7094 14.4883 42.7441 15.4872 42.7441H42.5693C43.557 42.7441 44.3651 43.7094 44.3651 44.899C44.3651 46.0887 43.5682 47.0539 42.5693 47.0539Z" fill="black"/>
<path d="M29.7652 0.949219H28.2949V13.9123H29.7652V0.949219Z" fill="#F82526"/>
<path d="M49.4713 9.72519L48.4316 8.68555L39.2654 17.8518L40.305 18.8915L49.4713 9.72519Z" fill="#F82526"/>
<path d="M57.1914 29.8599V28.3896H44.2283V29.8599H57.1914Z" fill="#F82526"/>
<path d="M13.8145 29.8599V28.3896H0.851377V29.8599H13.8145Z" fill="#F82526"/>
<path d="M17.7572 18.899L18.7969 17.8594L9.6306 8.6931L8.59096 9.73273L17.7572 18.899Z" fill="#F82526"/>
<path d="M29.0214 17.2227C22.0853 17.2227 16.4512 22.8456 16.4512 29.7929V41.2857H37.8206V30.197C37.9216 27.0656 36.6309 23.6986 35.0933 22.06C35.0933 22.06 39.2123 24.5852 39.2123 31.6784V41.2969H41.5805V29.8041C41.5805 22.868 35.9575 17.2339 29.0102 17.2339L29.0214 17.2227Z" fill="#F82526"/>
</svg>
