<svg width="77" height="77" viewBox="0 0 77 77" fill="none" xmlns="http://www.w3.org/2000/svg">
<circle cx="38.5" cy="38.5" r="37" stroke="url(#paint0_linear_1330_668)" stroke-width="3"/>
<path d="M28.175 21.3868H49.3674C51.4446 21.3868 53.128 23.0695 53.1282 25.1466V33.5275L53.6487 33.712C55.1103 34.2285 56.1554 35.6208 56.1555 37.257V53.9093C56.1553 55.1493 55.1493 56.1553 53.9094 56.1554H50.8811C49.6412 56.1552 48.6352 55.1492 48.635 53.9093V51.6144H28.9075V53.9093C28.9073 55.1492 27.9012 56.1552 26.6614 56.1554H23.6331C22.3931 56.1553 21.3871 55.1492 21.387 53.9093V37.257C21.3871 35.6208 22.4322 34.2285 23.8938 33.712L24.4143 33.5275V25.1466C24.4145 23.0695 26.0979 21.3868 28.175 21.3868ZM22.8518 54.6906H27.4426V50.881C27.4428 50.4766 27.7706 50.1486 28.175 50.1486H49.3674C49.7719 50.1486 50.0996 50.4766 50.0999 50.881V54.6906H54.6907V44.045H22.8518V54.6906ZM25.1467 34.962C23.8789 34.9622 22.852 35.9891 22.8518 37.257V42.5802H54.6907V37.257C54.6905 35.9891 53.6636 34.9623 52.3958 34.962H25.1467ZM28.175 22.8517C26.907 22.8517 25.8793 23.8786 25.8792 25.1466V33.4972H30.4749L30.5842 32.8448C31.2431 28.9199 34.6591 25.9281 38.7708 25.9279C42.8826 25.9279 46.2993 28.9197 46.9583 32.8448L47.0676 33.4972H51.6624V25.1466C51.6622 23.8786 50.6355 22.8517 49.3674 22.8517H28.175ZM38.7708 27.3937C35.585 27.3939 32.9097 29.5738 32.1506 32.5216L31.8987 33.4972H45.6438L45.3918 32.5216C44.6328 29.5736 41.9567 27.3937 38.7708 27.3937Z" fill="url(#paint1_linear_1330_668)" stroke="url(#paint2_linear_1330_668)" stroke-width="1.5625"/>
<defs>
<linearGradient id="paint0_linear_1330_668" x1="38.5" y1="0" x2="38.5" y2="77" gradientUnits="userSpaceOnUse">
<stop stop-color="#018FD5"/>
<stop offset="1" stop-color="#0F9DCC"/>
</linearGradient>
<linearGradient id="paint1_linear_1330_668" x1="38.7712" y1="20.6056" x2="38.7712" y2="56.9366" gradientUnits="userSpaceOnUse">
<stop stop-color="#018FD5"/>
<stop offset="1" stop-color="#0F9DCC"/>
</linearGradient>
<linearGradient id="paint2_linear_1330_668" x1="38.7712" y1="20.6056" x2="38.7712" y2="56.9366" gradientUnits="userSpaceOnUse">
<stop stop-color="#018FD5"/>
<stop offset="1" stop-color="#0F9DCC"/>
</linearGradient>
</defs>
</svg>
