<svg width="53" height="45" viewBox="0 0 53 45" fill="none" xmlns="http://www.w3.org/2000/svg">
<path d="M41.0195 2.48047L41.0412 6.11482H45.9945L46.0594 23.6376C46.0594 23.6376 48.8281 24.6111 49.6284 25.6927V6.11482C49.6284 6.11482 49.5851 2.7617 46.3838 2.48047H41.0195Z" fill="#008FD5"/>
<path d="M28.3008 2.48047H35.5686V6.11482H28.3008V2.48047Z" fill="#008FD5"/>
<path d="M15.5391 2.48047H22.8068V6.11482H15.5391V2.48047Z" fill="#008FD5"/>
<path d="M10.0242 6.11467H4.57334V12.518L4.59497 36.6605L30.8757 36.6822C30.8757 36.6822 30.9623 38.4344 32.1519 40.2732H4.72475C4.72475 40.2732 0.939453 40.2732 0.939453 36.4442L0.961083 6.91509V6.02814C0.961083 6.02814 0.982714 2.86971 4.4003 2.50195H10.0025L10.0242 6.11467Z" fill="#008FD5"/>
<path d="M46.0393 12.5835V14.3141H4.5957V12.5186L46.0393 12.5402V12.5835Z" fill="#008FD5"/>
<path d="M11.8622 7.13185C11.8622 7.13185 10.7158 7.78084 11.0403 9.03556C11.0403 9.03556 11.2349 10.1605 12.6193 10.3984C12.6193 10.3984 14.4578 10.4633 14.5876 8.88413C14.5876 8.88413 14.739 7.58615 13.7008 7.11022L13.6792 0.966438C13.6792 0.966438 13.5277 0.187649 12.7491 0.166016C12.7491 0.166016 11.9487 0.230915 11.8622 0.988071V7.13185Z" fill="#008FD5"/>
<path d="M24.6243 7.1317C24.6243 7.1317 23.3481 7.82396 23.8456 9.18684C23.8456 9.18684 24.1051 10.1387 25.4462 10.4199C25.4462 10.4199 27.0036 10.4416 27.3064 9.05704C27.3064 9.05704 27.5876 7.69416 26.4628 7.1317L26.4412 0.987922C26.4412 0.987922 26.2249 0.209133 25.5111 0.1875C25.5111 0.1875 24.7973 0.209133 24.6243 1.00956V7.1317Z" fill="#008FD5"/>
<path d="M37.4068 7.1317C37.4068 7.1317 36.4118 7.7158 36.5199 8.71092C36.5199 8.71092 36.5199 10.0954 38.2287 10.4199C38.2287 10.4199 39.9592 10.4848 40.1106 8.86235C40.1106 8.86235 40.2403 7.56436 39.2454 7.1317V0.987922C39.2454 0.987922 39.029 0.209133 38.3152 0.1875C38.3152 0.1875 37.5798 0.209133 37.4284 1.00956L37.4068 7.1317Z" fill="#008FD5"/>
<path d="M18.2863 17.9268C18.2863 17.9268 20.0816 17.97 20.1249 19.7656C20.1249 19.7656 20.1465 21.4529 18.2863 21.6044C18.2863 21.6044 16.6857 21.5827 16.4477 19.917C16.4477 19.9386 16.2098 18.2296 18.2863 17.9268Z" fill="#008FD5"/>
<path d="M25.5754 17.9268C25.5754 17.9268 27.3707 17.97 27.4139 19.7656C27.4139 19.7656 27.4356 21.4529 25.5754 21.6044C25.5754 21.6044 23.9747 21.5827 23.7368 19.917C23.7368 19.9386 23.4989 18.2296 25.5754 17.9268Z" fill="#008FD5"/>
<path d="M32.8215 17.9268C32.8215 17.9268 34.6168 17.97 34.66 19.7656C34.66 19.7656 34.6817 21.4529 32.8215 21.6044C32.8215 21.6044 31.2208 21.5827 30.9829 19.917C30.9829 19.9386 30.7449 18.2296 32.8215 17.9268Z" fill="#008FD5"/>
<path d="M40.1537 17.9268C40.1537 17.9268 41.949 17.97 41.9923 19.7656C41.9923 19.7656 42.0139 21.4529 40.1537 21.6044C40.1537 21.6044 38.5531 21.5827 38.3151 19.917C38.3151 19.9386 38.0988 18.2296 40.1537 17.9268Z" fill="#008FD5"/>
<path d="M32.8646 23.876C32.8646 23.876 34.66 23.9192 34.7032 25.7148C34.7032 25.7148 34.7248 27.4022 32.8646 27.5536C32.8646 27.5536 31.264 27.532 31.0261 25.8662C31.0261 25.8878 30.8098 24.1788 32.8646 23.876Z" fill="#008FD5"/>
<path d="M25.5111 23.876C25.5111 23.876 27.3064 23.9192 27.3497 25.7148C27.3497 25.7148 27.3713 27.4022 25.5111 27.5536C25.5111 27.5536 23.9105 27.532 23.6726 25.8662C23.6726 25.8878 23.4563 24.1788 25.5111 23.876Z" fill="#008FD5"/>
<path d="M18.2863 23.876C18.2863 23.876 20.0816 23.9192 20.1249 25.7148C20.1249 25.7148 20.1465 27.4022 18.2863 27.5536C18.2863 27.5536 16.6857 27.532 16.4477 25.8662C16.4477 25.8878 16.2098 24.1788 18.2863 23.876Z" fill="#008FD5"/>
<path d="M10.933 23.833C10.933 23.833 12.7283 23.8763 12.7716 25.6718C12.7716 25.6718 12.7932 27.3592 10.933 27.5106C10.933 27.5106 9.33237 27.489 9.09443 25.8232C9.09443 25.8449 8.87813 24.1142 10.933 23.833Z" fill="#008FD5"/>
<path d="M10.933 29.7822C10.933 29.7822 12.7283 29.8255 12.7716 31.621C12.7716 31.621 12.7932 33.3084 10.933 33.4598C10.933 33.4598 9.33237 33.4382 9.09443 31.7725C9.09443 31.7941 8.87813 30.0635 10.933 29.7822Z" fill="#008FD5"/>
<path d="M18.2863 29.7822C18.2863 29.7822 20.0816 29.8255 20.1249 31.621C20.1249 31.621 20.1465 33.3084 18.2863 33.4598C18.2863 33.4598 16.6857 33.4382 16.4477 31.7725C16.4477 31.7941 16.2098 30.0635 18.2863 29.7822Z" fill="#008FD5"/>
<path d="M25.5111 29.7822C25.5111 29.7822 27.3064 29.8255 27.3497 31.621C27.3497 31.621 27.3713 33.3084 25.5111 33.4598C25.5111 33.4598 23.9105 33.4382 23.6726 31.7725C23.6726 31.7941 23.4563 30.0635 25.5111 29.7822Z" fill="#008FD5"/>
<path d="M42.0163 26.7325C42.0163 26.7325 49.522 26.408 50.2575 34.3906C50.2575 34.3906 50.344 42.503 42.0163 42.5246C42.0163 42.5246 34.5106 42.2218 34.3592 34.6286H32.5423C32.5423 34.6286 32.2178 43.4116 41.9947 44.3202C41.9947 44.3202 51.9014 44.5365 52.0311 34.2608C52.0311 34.2608 51.7283 25.2398 42.038 24.8721V26.7325H42.0163Z" fill="#8CC63F"/>
<path d="M42.0151 26.7325C42.0151 26.7325 34.9203 26.7541 34.358 34.6286H32.541C32.541 34.6286 32.5843 25.3047 42.0367 24.8721V26.7325H42.0151Z" fill="#8CC63F"/>
<path d="M41.3019 33.6546C41.3019 33.6546 42.3402 32.6378 43.5514 33.9142H47.9208C47.9208 33.9142 48.8725 34.1089 48.8941 34.9742C48.8941 34.9742 49.0455 35.926 47.964 36.164H43.0107C43.0107 36.164 41.237 37.1159 40.7611 35.104L36.5216 32.746C36.5216 32.746 36.262 32.2484 36.5216 31.8374C36.5216 31.8374 36.8028 31.21 37.5382 31.6211L41.3019 33.6546Z" fill="#8CC63F"/>
</svg>
