<svg width="130" height="122" viewBox="0 0 130 122" fill="none" xmlns="http://www.w3.org/2000/svg">
<path d="M119.21 0.74115H10.79C5.72197 0.74115 1.61353 4.8496 1.61353 9.91762V112.075C1.61353 117.143 5.72197 121.251 10.79 121.251H119.21C124.278 121.251 128.386 117.143 128.386 112.075V9.91762C128.386 4.8496 124.278 0.74115 119.21 0.74115Z" fill="white" stroke="#1691CF" stroke-width="1.5" stroke-miterlimit="10"/>
<path d="M86.1136 45.9429V104.619C86.1136 107.211 84.0183 109.306 81.426 109.306H47.3659C44.7736 109.306 42.6707 107.211 42.6707 104.619V45.9429C42.6707 43.3506 44.7736 41.2476 47.3659 41.2476H81.426C84.0183 41.2476 86.1136 43.3506 86.1136 45.9429Z" fill="#7366DA"/>
<path d="M88.2625 45.9429V104.619C88.2625 107.211 86.1672 109.306 83.5749 109.306H49.5149C46.9225 109.306 44.8196 107.211 44.8196 104.619V45.9429C44.8196 43.3506 46.9225 41.2476 49.5149 41.2476H83.5749C86.1672 41.2476 88.2625 43.3506 88.2625 45.9429Z" fill="#9A9AE2"/>
<path d="M86.9012 45.9429V104.619C86.9012 106.446 85.4024 107.945 83.5748 107.945H49.5148C47.6718 107.945 46.1807 106.454 46.1807 104.619V45.9429C46.1807 44.1 47.6718 42.6088 49.5148 42.6088H83.5748C85.4101 42.6088 86.9012 44.1076 86.9012 45.9429Z" fill="white"/>
<g opacity="0.7">
<path d="M86.9088 46.4323H46.1882V51.9305H86.9088V46.4323Z" fill="#9DD3F5"/>
</g>
<path d="M52.7341 48.1299H48.36C48.2529 48.1299 48.1611 48.0382 48.1611 47.9311C48.1611 47.8241 48.2529 47.7323 48.36 47.7323H52.7341C52.8411 47.7323 52.9329 47.8241 52.9329 47.9311C52.9329 48.0382 52.8411 48.1299 52.7341 48.1299Z" fill="#232B41"/>
<path d="M52.7341 49.3764H48.36C48.2529 49.3764 48.1611 49.2846 48.1611 49.1776C48.1611 49.0705 48.2529 48.9788 48.36 48.9788H52.7341C52.8411 48.9788 52.9329 49.0705 52.9329 49.1776C52.9329 49.2846 52.8411 49.3764 52.7341 49.3764Z" fill="#232B41"/>
<path d="M52.7341 50.6229H48.36C48.2529 50.6229 48.1611 50.5311 48.1611 50.424C48.1611 50.317 48.2529 50.2252 48.36 50.2252H52.7341C52.8411 50.2252 52.9329 50.317 52.9329 50.424C52.9329 50.5311 52.8411 50.6229 52.7341 50.6229Z" fill="#232B41"/>
<path d="M85.3566 47.6558L85.3719 50.7223C85.3719 51.0205 85.1654 51.2652 84.9054 51.2652H81.2272C80.9672 51.2499 80.7531 51.0129 80.7531 50.707L80.7378 47.6405C80.7378 47.3423 80.9443 47.0976 81.2043 47.0976H84.8825C85.1425 47.1129 85.3566 47.35 85.3566 47.6558Z" fill="#EDF1F5"/>
<path d="M83.4449 50.1947L82.1449 49.2312C82.0302 49.147 82.0378 48.9712 82.1678 48.9023L83.5978 48.0764C83.6896 48.0229 83.8119 48.0535 83.8655 48.1453C83.919 48.237 83.8884 48.3594 83.7966 48.4129L82.6266 49.0859L83.6819 49.8735C83.766 49.9423 83.789 50.0647 83.7202 50.1488C83.6513 50.2329 83.529 50.2559 83.4449 50.187V50.1947Z" fill="#232B41"/>
<path d="M71.791 86.2964C71.791 86.6253 71.5234 86.9006 71.1869 86.9006H49.8593C49.324 86.9006 49.0563 86.2506 49.431 85.8682C49.5381 85.7611 49.691 85.6923 49.8593 85.6923H71.1869C71.5234 85.6923 71.791 85.96 71.791 86.2964Z" fill="#FCCF36"/>
<path d="M82.0072 91.1982C81.7855 91.42 81.4872 91.55 81.1508 91.55H50.4708C49.7978 91.55 49.2549 91.0071 49.2549 90.3341C49.2549 89.6612 49.7978 89.1182 50.4708 89.1182H81.1508C82.2366 89.1182 82.7643 90.4335 82.0072 91.1906V91.1982Z" fill="#EDF1F5"/>
<path d="M71.6149 94.54C71.5078 94.647 71.3549 94.7159 71.1866 94.7159H49.859C49.5225 94.7159 49.2549 94.4482 49.2549 94.1117C49.2549 93.7753 49.5225 93.5076 49.859 93.5076H71.1866C71.7296 93.5076 71.9896 94.1653 71.6149 94.54Z" fill="#FCCF36"/>
<path d="M82.0072 99.0135C81.7855 99.2352 81.4872 99.3652 81.1508 99.3652H50.4708C49.7978 99.3652 49.2549 98.8223 49.2549 98.1494C49.2549 97.4764 49.7978 96.9335 50.4708 96.9335H81.1508C82.2366 96.9335 82.7643 98.2488 82.0072 99.0058V99.0135Z" fill="#EDF1F5"/>
<g opacity="0.2">
<path d="M48.3064 115.577C50.3758 115.577 52.0534 115.091 52.0534 114.491C52.0534 113.891 50.3758 113.405 48.3064 113.405C46.2369 113.405 44.5593 113.891 44.5593 114.491C44.5593 115.091 46.2369 115.577 48.3064 115.577Z" fill="#9A9AE2"/>
</g>
<g opacity="0.2">
<path d="M63.1572 113.206C64.8845 113.206 66.2848 112.799 66.2848 112.296C66.2848 111.794 64.8845 111.386 63.1572 111.386C61.4298 111.386 60.0295 111.794 60.0295 112.296C60.0295 112.799 61.4298 113.206 63.1572 113.206Z" fill="#9A9AE2"/>
</g>
<g opacity="0.2">
<path d="M21.5571 105.735C23.2844 105.735 24.6847 105.328 24.6847 104.825C24.6847 104.323 23.2844 103.915 21.5571 103.915C19.8297 103.915 18.4294 104.323 18.4294 104.825C18.4294 105.328 19.8297 105.735 21.5571 105.735Z" fill="#9A9AE2"/>
</g>
<g opacity="0.2">
<path d="M73.5952 116.602C74.9974 116.602 76.134 116.273 76.134 115.868C76.134 115.462 74.9974 115.133 73.5952 115.133C72.1931 115.133 71.0564 115.462 71.0564 115.868C71.0564 116.273 72.1931 116.602 73.5952 116.602Z" fill="#9A9AE2"/>
</g>
<g opacity="0.2">
<path d="M82.9401 113.298C85.3094 113.298 87.2301 112.74 87.2301 112.052C87.2301 111.363 85.3094 110.805 82.9401 110.805C80.5708 110.805 78.6501 111.363 78.6501 112.052C78.6501 112.74 80.5708 113.298 82.9401 113.298Z" fill="#9A9AE2"/>
</g>
<path d="M72.6857 103.38C72.6857 104.695 71.8063 105.758 70.7587 105.758H62.3392C61.7198 105.758 61.1769 105.406 60.8251 104.856C60.5651 104.451 60.4045 103.938 60.4045 103.38C60.4045 102.042 61.261 100.979 62.3392 100.979H70.7587C70.9192 100.979 71.0798 101.002 71.2251 101.048C72.0587 101.308 72.6857 102.248 72.6857 103.38Z" fill="#EE562C"/>
<path d="M71.6453 102.562C71.6453 103.87 70.7659 104.94 69.7182 104.94H61.2988C61.1306 104.94 60.97 104.917 60.8171 104.871C60.5571 104.466 60.3965 103.954 60.3965 103.395C60.3965 102.057 61.253 100.994 62.3312 100.994H70.7506C70.9112 100.994 71.0718 101.017 71.2171 101.063C71.4847 101.476 71.6453 101.996 71.6453 102.57V102.562Z" fill="#F96C41"/>
<path d="M66.2847 104.558L65.3747 103.648C65.2983 103.571 65.2983 103.456 65.3747 103.38C65.4512 103.303 65.5659 103.303 65.6424 103.38L66.4147 104.152L68.3953 102.172C68.4718 102.095 68.5865 102.095 68.663 102.172C68.7394 102.248 68.7394 102.363 68.663 102.439L66.5524 104.55C66.4759 104.626 66.3612 104.626 66.2847 104.55V104.558Z" fill="#EDF1F5"/>
<path d="M105.851 54.3394C105.851 55.7923 104.918 56.97 103.771 56.97C102.624 56.97 101.691 55.7923 101.691 54.3394C101.691 52.8865 102.624 51.7088 103.771 51.7088C104.918 51.7088 105.851 52.8865 105.851 54.3394Z" fill="#27254C"/>
<path d="M104.951 109.252L104.893 112.219L108.441 112.288L108.498 109.321L104.951 109.252Z" fill="#FCA987"/>
<path d="M108.971 113.191V113.772C108.955 113.895 108.887 114.002 108.779 114.048C108.458 114.185 107.717 114.453 106.692 114.468C105.3 114.484 105.178 114.942 102.952 114.973C100.804 115.004 99.9471 114.598 99.8324 114.529C99.7177 114.461 99.863 113.704 99.863 113.704L108.971 113.199V113.191Z" fill="#27254C"/>
<path d="M108.971 113.191C108.971 113.191 108.137 113.772 107.128 113.635C106.187 113.489 104.673 114.208 103.671 114.262C102.647 114.315 100.222 114.43 99.886 113.91C99.5495 113.39 101.431 112.809 101.882 112.878C102.333 112.947 103.304 111.333 103.992 110.874C104.688 110.415 105.874 110.408 105.973 111.31C106.868 111.822 107.717 111.937 108.458 111.257C108.458 111.272 109.208 112.144 108.971 113.199V113.191Z" fill="#DF2715"/>
<path d="M108.971 113.191C108.971 113.191 108.137 113.772 107.128 113.635C107.112 113.635 107.097 113.635 107.089 113.635C106.6 112.228 108.894 112.052 108.894 112.052C109.001 112.373 109.07 112.771 108.978 113.191H108.971Z" fill="#B72214"/>
<path d="M105.973 111.31C105.973 111.31 103.977 113.375 102.8 113.229C102.44 113.184 102.18 113.046 101.989 112.862C102.478 112.702 103.343 111.295 103.985 110.874C104.681 110.415 105.866 110.408 105.965 111.31H105.973Z" fill="#B72214"/>
<path d="M92.9803 109.25L92.9229 112.217L96.4704 112.285L96.5279 109.319L92.9803 109.25Z" fill="#FCA987"/>
<path d="M96.9953 113.191V113.772C96.98 113.895 96.9112 114.002 96.8041 114.048C96.483 114.185 95.7412 114.453 94.7165 114.468C93.3247 114.484 93.2024 114.942 90.9771 114.973C88.8283 115.004 87.9718 114.598 87.8571 114.529C87.7424 114.461 87.8877 113.704 87.8877 113.704L96.9953 113.199V113.191Z" fill="#27254C"/>
<path d="M96.9953 113.191C96.9953 113.191 96.1618 113.773 95.1523 113.635C95.137 113.635 95.1218 113.635 95.1141 113.635C94.1047 113.52 92.7129 114.208 91.7035 114.27C90.6788 114.323 88.2547 114.438 87.9182 113.918C87.5818 113.398 89.4629 112.817 89.9141 112.885C90.3653 112.954 91.3365 111.341 92.0247 110.882C92.7206 110.423 93.9059 110.415 94.0053 111.318C94.9 111.83 95.7488 111.945 96.4906 111.264C96.4906 111.28 97.24 112.151 97.0029 113.207L96.9953 113.191Z" fill="#DF2715"/>
<path d="M96.9953 113.191C96.9953 113.191 96.1618 113.772 95.1524 113.635C95.1371 113.635 95.1218 113.635 95.1141 113.635C94.6247 112.228 96.9188 112.052 96.9188 112.052C97.0259 112.373 97.0947 112.771 97.003 113.191H96.9953Z" fill="#B72214"/>
<path d="M93.9975 111.31C93.9975 111.31 92.0017 113.375 90.824 113.229C90.4646 113.184 90.2046 113.046 90.0134 112.862C90.5028 112.702 91.367 111.295 92.0093 110.874C92.7052 110.415 93.8905 110.408 93.9899 111.31H93.9975Z" fill="#B72214"/>
<path d="M109.016 109.199C109.024 109.589 108.703 109.918 108.313 109.918L105.438 109.903C104.872 109.903 104.375 109.513 104.229 108.978C104.199 108.871 104.206 108.871 104.153 108.58L104.13 108.45L100.712 86.3347L100.551 87.4129L97.3623 108.45L97.1099 109.628C97.0794 109.804 96.9188 109.934 96.7352 109.934H92.8429C92.4146 109.934 92.0782 109.589 92.0858 109.161C92.0858 109.161 92.0858 109.046 92.1011 108.832C92.3917 102.432 93.187 85.4859 93.6152 79.0471C94.1352 78.8941 94.617 78.5806 95.0529 78.2747C95.8482 77.7165 96.5899 77.4029 97.5305 77.1353C97.8441 77.0512 98.0276 76.8524 98.1117 76.6153C105.996 76.8753 105.201 76.8524 105.262 76.8524V78.8941H108.366C108.382 83.7806 108.244 74.0765 109.024 109.199H109.016Z" fill="#27254C"/>
<path d="M109.017 109.199C109.024 109.589 108.703 109.918 108.313 109.918L105.438 109.903C104.872 109.903 104.375 109.513 104.229 108.978C105.958 108.741 107.9 108.45 107.938 108.312C107.999 108.06 107.021 81.3565 107.021 81.3565L101.889 82.2818L100.261 79.5059L98.6165 81.8918L93.4854 81.28C93.5312 80.4465 93.5771 79.6971 93.623 79.0471C94.143 78.8941 94.6248 78.5806 95.0606 78.2747C95.8559 77.7165 96.5977 77.4029 97.5383 77.1353C97.8518 77.0512 98.0353 76.8524 98.1195 76.6153C106.004 76.8753 105.208 76.8524 105.269 76.8524V78.8941H108.374C108.389 83.7806 108.252 74.0765 109.032 109.199H109.017Z" fill="#18142E"/>
<path d="M92.0783 109.154C92.0706 109.582 92.4071 109.926 92.8353 109.926H96.7277C96.9112 109.926 97.0641 109.796 97.1024 109.62L97.3547 108.442L100.544 87.4053C100.544 86.7936 100.712 86.3806 100.704 86.3271L95.3818 108.259C94.8771 108.832 93.5083 108.924 92.0935 108.825C92.0859 109.039 92.0783 109.154 92.0783 109.154Z" fill="#18142E"/>
<path d="M91.3213 56.3506H94.556C94.7854 56.3506 94.9537 56.1212 94.8772 55.8994L93.0113 50.5771C92.9501 50.4165 92.7972 50.3018 92.629 50.3018H89.5013C89.2184 50.3018 89.0196 50.5771 89.119 50.8447L90.9466 56.0676C91.0078 56.2282 91.1607 56.3429 91.329 56.3429L91.3213 56.3506Z" fill="#27254C"/>
<path d="M112.986 68.54C112.343 69.9164 109.376 71.2317 107.977 71.79C107.533 71.9659 107.243 72.0653 107.243 72.0653L109.017 79.2841C109.154 79.9264 101.867 81.2035 101.729 80.5535L101.645 80.347L100.246 77.097L98.6932 80.5535C98.4332 81.387 93.0726 80.1329 93.3326 79.2994C93.3326 79.2994 95.5732 72.8835 95.9861 70.6582C96.2691 69.167 96.4297 64.617 96.4297 64.617C96.4297 64.617 93.4702 68.2494 91.9332 66.6359C90.6714 65.3053 90.075 56.71 90.075 56.71L92.3844 56.557L93.6232 61.9023C93.6232 61.9023 96.2844 57.75 97.2555 57.3753C98.2267 57.0006 100.605 56.4423 100.605 56.4423L105.17 56.9776C105.17 56.9776 107.893 58.3923 109.047 59.8835C110.202 61.367 113.834 66.7353 112.993 68.5476L112.986 68.54Z" fill="#8FC64E"/>
<path d="M101.729 80.5535L101.645 80.347C101.645 80.347 101.668 80.3164 101.683 80.2935C101.836 80.1176 102.088 80.0794 102.318 80.0641C103.457 79.98 104.642 80.0794 105.721 79.697C106.164 79.5364 106.569 79.307 106.975 79.07C107.204 78.94 107.434 78.8023 107.609 78.6035C107.923 78.2441 107.999 77.7394 107.999 77.2576C107.999 76.3553 107.793 75.4682 107.51 74.6117C107.273 73.8853 106.883 73.09 106.141 72.9141C105.866 72.8529 105.568 72.8835 105.292 72.807C104.91 72.7 104.038 71.9659 104.352 71.5147C104.535 71.247 104.987 71.2929 105.262 71.3082C105.667 71.3235 106.072 71.3388 106.478 71.3541L107.242 72.0576L109.017 79.2764C109.154 79.9188 101.867 81.1959 101.729 80.5459V80.5535Z" fill="#8FC64E"/>
<path d="M109.59 67.4312L106.493 70.3982L107.059 63.3629L109.59 67.4312Z" fill="white"/>
<path d="M99.2896 62.2847L100.597 66.4141L103.87 61.1376L105.162 56.97L100.597 56.4347L100.253 56.5188L99.2896 62.2847Z" fill="#EDF1F5"/>
<path d="M105.728 57.2835C105.728 57.2835 106.401 58.27 106.096 59.5164C105.79 60.7629 104.421 61.26 104.421 61.26C104.421 61.26 105.086 61.8641 104.643 62.6288C104.199 63.3935 100.536 66.437 100.536 66.437C102.356 63.7835 103.832 60.5029 105.163 56.97L105.728 57.2835Z" fill="#518704"/>
<path d="M100.253 56.5188C99.8019 59.9523 99.8554 63.2559 100.536 66.437C100.536 66.437 96.7431 60.2888 99.2743 60.1741C99.2743 60.1741 98.2572 59.0423 98.4407 58.4153C98.6242 57.7882 99.4884 56.71 99.4884 56.71L100.245 56.5188H100.253Z" fill="#518704"/>
<path d="M103.885 55.8765C104.696 55.9759 105.094 56.7253 105.025 57.0465C104.933 57.4288 104.122 59.2565 103.289 59.2718C102.455 59.2871 102.165 57.6124 102.165 57.6124C102.165 57.6124 101.224 58.8359 100.696 58.5606C100.169 58.2853 100.597 56.4347 100.597 56.4347C100.597 56.4347 101.515 55.7771 101.935 55.7159C102.211 55.6777 103.212 55.7924 103.878 55.8765H103.885Z" fill="#D1E7F1"/>
<path d="M102.54 58.7135L102.096 59.1418L101.958 64.1276C101.637 64.7853 101.125 65.5806 100.536 66.437C100.322 65.5041 100.169 64.3647 100.047 63.1029L101.278 58.9582L101.24 58.4076C101.545 58.2165 101.844 57.8953 102.134 57.5435C102.234 57.9947 102.356 58.4 102.532 58.7059L102.54 58.7135Z" fill="#DF2715"/>
<path d="M90.2506 56.6947C90.2506 56.6947 89.9601 55.9147 89.6159 55.3182C89.2718 54.7217 89.1495 53.7506 89.3101 53.2841C89.4706 52.8176 90.4036 52.3435 90.8165 52.4123C91.2295 52.4812 90.7018 52.9629 90.7018 52.9629C90.7018 52.9629 91.1071 52.9017 91.3289 53.0776C91.543 53.2535 90.9159 53.6665 90.9159 53.6665C90.9159 53.6665 91.4589 53.6435 91.4512 53.8729C91.4512 54.1023 90.9771 54.3547 90.9771 54.3547C90.9771 54.3547 91.4665 54.3547 91.4512 54.6147C91.4359 54.8747 90.6865 55.3182 90.6865 55.3182L91.1989 56.3582L92.2389 56.3735L92.2771 56.5647L90.2583 56.7023L90.2506 56.6947Z" fill="#FCA987"/>
<path d="M107.242 72.0653C107.242 72.0653 107.158 72.3788 106.753 72.3941C106.753 72.3941 106.738 72.3941 106.73 72.3941C106.294 72.4247 104.864 72.5623 104.75 72.0959C104.719 71.9812 104.864 71.9123 104.864 71.8664C104.604 71.8282 104.031 71.7212 104.015 71.4306C104.008 71.2547 104.13 71.2088 104.268 71.2011C104.023 71.14 103.725 71.0176 103.633 70.7806C103.511 70.4441 104.107 70.5817 104.337 70.6429C104.138 70.5741 103.694 70.3906 103.901 70.1153C104.153 69.7864 105.621 70.3829 105.767 70.4441C105.667 70.3829 104.834 69.8553 105.285 69.8247C105.606 69.8094 106.042 70.0694 106.287 70.2453C106.409 70.3294 106.485 70.3906 106.485 70.3906L107.242 72.0576V72.0653Z" fill="#FCA987"/>
<path d="M100.597 66.4141C100.398 69.3888 100.154 71.1629 100.047 74.52V75.1929V75.8659C100.054 76.0877 100.077 76.3094 100.092 76.5388C100.092 76.6535 100.123 76.7606 100.138 76.8753L100.184 77.2118C100.062 76.8218 99.9854 76.6765 99.8631 75.8812L99.7866 75.2006C99.7713 74.9712 99.7637 74.7494 99.7484 74.52C99.6566 71.9735 100.062 68.6318 100.59 66.4141H100.597Z" fill="#8FC64E"/>
<path d="M106.179 51.2117C106.179 52.5958 105.055 53.7123 103.671 53.7123C102.287 53.7123 101.171 52.5882 101.171 51.2117C101.171 49.8353 102.295 48.7035 103.671 48.7035C105.048 48.7035 106.179 49.8276 106.179 51.2117Z" fill="#27254C"/>
<path d="M104.581 53.697L104.206 56.7329L103.549 57.3294C102.792 58.01 101.583 57.5588 101.461 56.5494C101.461 56.5264 101.461 55.9911 101.461 56.0064C100.796 56.0906 100.192 56.0064 99.8935 55.6394C99.1594 54.7217 99.3429 50.9594 99.3429 50.9594C100.911 48.107 104.306 50.4317 104.306 50.4317C104.306 50.4317 104.375 51.1276 104.421 51.9611C104.765 52.0453 104.902 52.3894 104.925 52.81C104.948 53.2 104.856 53.5441 104.573 53.6817L104.581 53.697Z" fill="#FCA987"/>
<path d="M104.206 49.5676L101.14 48.5429L100.643 48.9864V51.1429C100.91 50.8447 101.155 50.447 101.308 49.927C101.308 49.927 101.247 52.6417 103.373 52.7488C103.488 51.8158 104.803 51.6858 104.994 52.4964L105.545 52.3817L104.206 49.5676Z" fill="#27254C"/>
<path d="M104.413 53.1005C104.413 53.1005 104.413 53.0929 104.413 53.0852C104.597 52.8405 104.558 52.5117 104.413 52.397C104.337 52.3358 104.214 52.3205 104.138 52.397C104.138 52.397 104.13 52.397 104.122 52.397C104.099 52.3741 104.275 52.2747 104.421 52.397C104.574 52.5194 104.619 52.8558 104.421 53.1158C104.421 53.1158 104.413 53.1158 104.405 53.1158L104.413 53.1005Z" fill="#3C4150"/>
<path d="M103.908 50.1794C103.992 51.3265 102.738 52.3435 101.109 52.4659C99.4805 52.5882 98.0964 51.7547 98.0123 50.6153C97.9282 49.4682 99.1823 48.4435 100.811 48.3288C102.44 48.2065 103.832 49.04 103.916 50.187L103.908 50.1794Z" fill="#27254C"/>
<path d="M102.937 55.7083C102.891 55.7465 102.172 56.3353 101.461 56.3506V56.0141C101.461 56.0141 102.402 56.0141 102.937 55.7083Z" fill="#F69E7C"/>
<path d="M104.902 70.8571C104.604 70.7882 104.329 70.6965 104.321 70.6965C104.298 70.6888 104.283 70.6582 104.291 70.6353C104.298 70.6124 104.329 70.5971 104.352 70.6047C104.352 70.6047 104.627 70.6965 104.925 70.7653C104.948 70.7653 104.971 70.7959 104.963 70.8265C104.963 70.8494 104.933 70.8724 104.902 70.8647V70.8571Z" fill="#B55C38"/>
<path d="M104.91 71.3312L104.268 71.2547C104.199 71.2547 104.214 71.1477 104.283 71.1553L104.925 71.2318C104.925 71.2318 104.971 71.2624 104.971 71.2853C104.971 71.3082 104.941 71.3312 104.918 71.3312H104.91Z" fill="#B55C38"/>
<path d="M104.826 71.8741C104.826 71.8741 104.841 71.8206 104.872 71.8206L105.338 71.7518C105.407 71.7441 105.415 71.8435 105.354 71.8512L104.887 71.92C104.887 71.92 104.834 71.9047 104.834 71.8741H104.826Z" fill="#B55C38"/>
<g opacity="0.5">
<path d="M107.242 72.0653C107.242 72.0653 107.158 72.3788 106.753 72.3941C106.753 72.3941 106.738 72.3941 106.73 72.3941C106.7 72.1265 106.768 71.8282 106.623 71.5988C106.547 71.4765 106.417 71.3847 106.34 71.2624C106.31 71.2088 106.287 71.1553 106.264 71.1018C106.218 70.9871 106.172 70.8724 106.157 70.75C106.134 70.5665 106.187 70.3906 106.294 70.2453C106.417 70.3294 106.493 70.3906 106.493 70.3906L107.25 72.0577L107.242 72.0653Z" fill="#D37652"/>
</g>
<path d="M90.2048 53.2306C90.2048 53.2306 90.2048 53.1771 90.2278 53.1618L90.679 52.9171C90.679 52.9171 90.7325 52.9171 90.7478 52.94C90.7631 52.9629 90.7478 52.9935 90.7248 53.0088L90.2737 53.2535C90.2737 53.2535 90.2201 53.2535 90.2048 53.2306Z" fill="#B55C38"/>
<path d="M90.4111 53.9341C90.4111 53.9341 90.4111 53.8806 90.4341 53.8653L90.8852 53.6206C90.8852 53.6206 90.9388 53.6206 90.9541 53.6435C90.9694 53.6665 90.9541 53.6971 90.9311 53.7124L90.48 53.9571C90.48 53.9571 90.4264 53.9571 90.4111 53.9341Z" fill="#B55C38"/>
<path d="M90.48 54.607C90.48 54.607 90.48 54.5535 90.5029 54.5382L90.9541 54.2935C90.9541 54.2935 91.0076 54.2935 91.0229 54.3165C91.0382 54.3394 91.0229 54.37 91 54.3853L90.5488 54.63C90.5488 54.63 90.4953 54.63 90.48 54.607Z" fill="#B55C38"/>
<path d="M106.516 75.1471C106.539 75.2388 106.478 75.3306 106.386 75.3535C105.384 75.5524 104.36 75.6059 103.342 75.5218C103.251 75.5141 103.182 75.43 103.19 75.3306C103.205 75.1853 103.22 75.04 103.235 74.8947C103.243 74.803 103.327 74.7341 103.419 74.7418C104.36 74.8259 105.308 74.7724 106.233 74.5888C106.325 74.5735 106.417 74.6271 106.432 74.7188C106.462 74.8641 106.493 75.0018 106.524 75.1471H106.516Z" fill="#309D6D"/>
<path d="M95.3895 74.887C95.3589 74.9788 95.3972 75.0782 95.4889 75.1088C96.4448 75.4606 97.4466 75.6747 98.4713 75.7435C98.5631 75.7435 98.6472 75.6747 98.6548 75.5829C98.6625 75.4376 98.6701 75.2923 98.6778 75.147C98.6778 75.0553 98.6166 74.9788 98.5172 74.9711C97.5766 74.9023 96.6513 74.7111 95.7642 74.3823C95.6801 74.3517 95.5807 74.39 95.5501 74.4817C95.4966 74.6194 95.443 74.757 95.3895 74.8947V74.887Z" fill="#309D6D"/>
<path d="M107.059 63.3629L106.891 65.4047L106.271 62.2924L107.059 63.3629Z" fill="#309D6D"/>
<path d="M82.8024 55.4558H76.0042V62.254H82.8024V55.4558Z" fill="#27254C"/>
<path d="M89.6007 56.7176V62.254H82.8025V55.4558H88.339C89.0348 55.4558 89.6007 56.0217 89.6007 56.7176Z" fill="#27254C"/>
<path d="M82.8024 62.2158H76.0042V69.0141H82.8024V62.2158Z" fill="#6DB0F4"/>
<path d="M89.6007 62.2158H82.8025V69.0141H89.6007V62.2158Z" fill="#6DB0F4"/>
<path d="M89.6925 69.1058H82.7107V62.1241H89.6925V69.1058ZM82.8942 68.9147H89.5013V62.3076H82.8942V68.9147Z" fill="#27254C"/>
<path d="M82.8024 68.9758H76.0042V75.7741H82.8024V68.9758Z" fill="#6DB0F4"/>
<path d="M89.6007 68.9759H82.8025V75.7741H89.6007V68.9759Z" fill="#6DB0F4"/>
<path d="M89.6925 75.8659H82.7107V68.8841H89.6925V75.8659ZM82.8942 75.6747H89.5013V69.0676H82.8942V75.6747Z" fill="white"/>
<path d="M82.8024 75.7282H76.0042V82.5264H82.8024V75.7282Z" fill="#6DB0F4"/>
<path d="M82.8941 82.6182H75.9124V75.6364H82.8941V82.6182ZM76.0959 82.4346H82.7029V75.8276H76.0959V82.4346Z" fill="white"/>
<path d="M89.6007 75.7282V81.2647C89.6007 81.9606 89.0348 82.5264 88.339 82.5264H82.8025V75.7282H89.6007Z" fill="#6DB0F4"/>
<path d="M55.7705 62.407H48.6587V56.71C48.6587 55.93 49.2934 55.2876 50.081 55.2876H55.7781V62.3994L55.7705 62.407ZM48.9722 62.0935H55.4493V55.6164H50.0734C49.4693 55.6164 48.9722 56.1135 48.9722 56.7176V62.0935Z" fill="#27254C"/>
<path d="M62.5683 62.407H55.4565V55.2952H62.5683V62.407ZM55.7701 62.0935H62.2471V55.6164H55.7701V62.0935Z" fill="#27254C"/>
<path d="M69.3666 62.407H62.2549V55.2952H69.3666V62.407ZM62.5684 62.0935H69.0455V55.6164H62.5684V62.0935Z" fill="#27254C"/>
<path d="M76.1647 62.407H69.053V55.2952H76.1647V62.407ZM69.3665 62.0935H75.8436V55.6164H69.3665V62.0935Z" fill="#27254C"/>
<path d="M55.77 69.2053H48.6582V62.0935H55.77V69.2053ZM48.9717 68.8917H55.4488V62.4147H48.9717V68.8917Z" fill="#27254C"/>
<path d="M62.5683 69.2053H55.4565V62.0935H62.5683V69.2053ZM55.7701 68.8917H62.2471V62.4147H55.7701V68.8917Z" fill="#27254C"/>
<path d="M69.3664 69.2053H62.2546V62.0935H69.3664V69.2053ZM62.5682 68.8917H69.0452V62.4147H62.5682V68.8917Z" fill="#27254C"/>
<path d="M76.1647 69.2053H69.053V62.0935H76.1647V69.2053ZM69.3665 68.8917H75.8436V62.4147H69.3665V68.8917Z" fill="#27254C"/>
<path d="M55.77 76.0035H48.6582V68.8917H55.77V76.0035ZM48.9717 75.6823H55.4488V69.2053H48.9717V75.6823Z" fill="#27254C"/>
<path d="M55.77 82.8017H50.073C49.293 82.8017 48.6506 82.167 48.6506 81.3794V75.6823H55.7624V82.7941L55.77 82.8017ZM48.9718 76.0035V81.3794C48.9718 81.9835 49.4689 82.4805 50.073 82.4805H55.4489V76.0035H48.9718Z" fill="#27254C"/>
<path d="M62.5683 76.0035H55.4565V68.8917H62.5683V76.0035ZM55.7701 75.6823H62.2471V69.2053H55.7701V75.6823Z" fill="#27254C"/>
<path d="M69.3664 76.0035H62.2546V68.8917H69.3664V76.0035ZM62.5682 75.6823H69.0452V69.2053H62.5682V75.6823Z" fill="#27254C"/>
<path d="M69.3664 82.8017H62.2546V75.6899H69.3664V82.8017ZM62.5682 82.4805H69.0452V76.0035H62.5682V82.4805Z" fill="#27254C"/>
<path d="M76.1647 76.0035H69.053V68.8917H76.1647V76.0035ZM69.3665 75.6823H75.8436V69.2053H69.3665V75.6823Z" fill="#27254C"/>
<path d="M62.5683 82.8017H55.4565V75.6899H62.5683V82.8017ZM55.7701 82.4805H62.2471V76.0035H55.7701V82.4805Z" fill="#27254C"/>
<path d="M76.1647 82.8017H69.053V75.6899H76.1647V82.8017ZM69.3665 82.4805H75.8436V76.0035H69.3665V82.4805Z" fill="#27254C"/>
<path d="M82.9553 62.407H75.8435V55.2953H82.9553V62.407ZM76.1647 62.0935H82.6417V55.6165H76.1647V62.0935Z" fill="white"/>
<path d="M82.9553 69.2053H75.8435V62.0935H82.9553V69.2053ZM76.1647 68.8917H82.6417V62.4147H76.1647V68.8917Z" fill="white"/>
<path d="M82.9553 76.0035H75.8435V68.8917H82.9553V76.0035ZM76.1647 75.6823H82.6417V69.2053H76.1647V75.6823Z" fill="white"/>
<path d="M82.9553 82.8017H75.8435V75.6899H82.9553V82.8017ZM76.1647 82.4805H82.6417V76.0035H76.1647V82.4805Z" fill="#BFC9D1"/>
<path d="M89.7536 62.407H82.6418V55.2953H88.3389C89.1189 55.2953 89.7613 55.93 89.7613 56.7176V62.4147L89.7536 62.407ZM82.9554 62.0935H89.4324V56.7176C89.4324 56.1135 88.9354 55.6165 88.3313 55.6165H82.9554V62.0935Z" fill="white"/>
<path d="M89.7536 69.2053H82.6418V62.0935H89.7536V69.2053ZM82.9554 68.8917H89.4324V62.4147H82.9554V68.8917Z" fill="white"/>
<path d="M89.7536 76.0035H82.6418V68.8917H89.7536V76.0035ZM82.9554 75.6823H89.4324V69.2053H82.9554V75.6823Z" fill="white"/>
<path d="M88.3389 82.8017H82.6418V75.6899H89.7536V81.387C89.7536 82.167 89.1189 82.8094 88.3313 82.8094L88.3389 82.8017ZM82.9554 82.4805H88.3313C88.9354 82.4805 89.4324 81.9835 89.4324 81.3794V76.0035H82.9554V82.4805Z" fill="white"/>
<path d="M46.6777 67.6835L48.8189 67.1559C48.643 65.8941 48.1842 65.4582 47.3277 64.7241L46.5248 66.2382C46.5248 66.2382 46.3795 66.5594 46.326 66.7888C46.2801 67.0182 46.6777 67.6835 46.6777 67.6835Z" fill="#E84B21"/>
<path d="M46.8536 65.6494C47.1059 65.9706 47.3583 66.2917 47.603 66.6129C47.733 66.7888 47.8783 66.98 47.9089 67.1941C47.9089 67.217 47.9165 67.2476 47.9165 67.2706C47.9165 67.2629 47.9318 67.24 47.9624 67.217C47.993 67.1864 48.0312 67.1559 48.0389 67.1406C48.0848 67.0947 48.1383 67.0411 48.1842 66.9953C48.2836 66.9035 48.383 66.8117 48.4824 66.72C48.5818 66.6282 48.6889 66.5441 48.7883 66.46C48.8418 66.4217 48.8801 66.3682 48.9259 66.3147C48.9412 66.2994 48.9642 66.2764 48.9795 66.2611C49.1401 66.1311 49.3083 66.0088 49.4765 65.8941C49.5912 65.81 49.7136 65.7335 49.8359 65.6647C49.9965 65.5653 50.1648 65.4735 50.3254 65.3817C50.5242 65.2747 50.7307 65.1676 50.9448 65.0759C51.1436 64.9917 51.3348 64.8694 51.5259 64.77C51.6177 64.7241 51.7095 64.6782 51.7707 64.5941C51.8318 64.51 51.8548 64.3876 51.7936 64.3112C51.7248 64.2194 51.6024 64.2194 51.4877 64.2347C51.2583 64.2653 51.0365 64.3264 50.8301 64.4259C51.2354 64.227 51.6177 63.99 51.9695 63.707C52.0459 63.6459 52.1301 63.5541 52.0842 63.4623C52.0536 63.3935 51.9618 63.3782 51.8854 63.3706C51.7171 63.3706 51.5565 63.4011 51.4036 63.4547C51.6865 63.2941 51.9542 63.0876 52.1836 62.8506C52.2601 62.7664 52.3442 62.6594 52.3059 62.5523C52.2754 62.4682 52.1836 62.43 52.0918 62.43C52.0077 62.43 51.9236 62.4682 51.8395 62.5064C51.5183 62.6594 51.1971 62.82 50.8759 62.9729C51.0824 62.7817 51.3118 62.6059 51.4571 62.3611C51.503 62.2847 51.5336 62.2082 51.5412 62.1241C51.5412 62.04 51.5107 61.9482 51.4342 61.91C51.3195 61.8488 51.1818 61.9176 51.0748 61.9864C50.3483 62.4682 49.6601 63.0035 49.0177 63.6C49.1018 63.4088 49.1783 63.2253 49.2548 63.0341C49.3007 62.9347 49.3465 62.82 49.3465 62.7129C49.3465 62.5982 49.293 62.4759 49.1859 62.4376C49.0789 62.3917 48.9489 62.4453 48.8724 62.537C48.7959 62.6212 48.7577 62.7435 48.7195 62.8506C48.5971 63.21 48.4901 63.5923 48.3065 63.9288C48.2836 63.967 48.2607 64.0129 48.2301 64.0511C48.1536 64.1735 48.0771 64.2959 47.993 64.4182C47.8783 64.5941 47.7559 64.7623 47.6183 64.9229C47.5648 64.9917 46.8918 65.6647 46.8459 65.6494H46.8536Z" fill="#FCA987"/>
<path d="M50.417 63.9823C50.417 63.9823 50.3864 63.9747 50.3711 63.9594C50.3559 63.9364 50.3711 63.9058 50.3941 63.8905C50.5011 63.8294 50.6923 63.7376 50.8758 63.6535C51.0594 63.5617 51.2429 63.47 51.35 63.4164C51.3729 63.4011 51.4035 63.4164 51.4188 63.4394C51.4341 63.4623 51.4188 63.4929 51.3958 63.5082C51.2888 63.5694 51.0976 63.6611 50.9141 63.7453C50.7306 63.837 50.547 63.9288 50.44 63.9823C50.44 63.9823 50.4247 63.9823 50.417 63.9823Z" fill="#B55C38"/>
<path d="M50.2031 63.4164C50.2031 63.4164 50.1725 63.4088 50.1572 63.3935C50.1419 63.3705 50.1572 63.34 50.1725 63.3247L50.9755 62.8658C50.9755 62.8658 51.029 62.8658 51.0443 62.8811C51.0596 62.9041 51.0443 62.9347 51.029 62.95L50.226 63.4088C50.226 63.4088 50.2107 63.4088 50.2031 63.4088V63.4164Z" fill="#B55C38"/>
<path d="M50.2488 64.7852C50.2488 64.7852 50.2106 64.7776 50.2029 64.7547C50.1876 64.7317 50.2029 64.7011 50.2259 64.6858L50.96 64.3264C50.96 64.3264 51.0135 64.3264 51.0288 64.3494C51.0441 64.3723 51.0288 64.4029 51.0059 64.4182L50.2718 64.7776C50.2718 64.7776 50.2565 64.7776 50.2488 64.7776V64.7852Z" fill="#B55C38"/>
<path d="M46.8536 65.6494C47.1059 65.9705 47.3583 66.2917 47.603 66.6129C47.733 66.7888 47.8783 66.98 47.9089 67.1941C47.9089 67.217 47.9165 67.2476 47.9165 67.2705C47.9165 67.2629 47.9318 67.24 47.9624 67.217C47.993 67.1864 48.0312 67.1558 48.0389 67.1405C48.0848 67.0947 48.1383 67.0411 48.1842 66.9952C48.2836 66.9035 48.383 66.8117 48.4824 66.72C48.5818 66.6282 48.6889 66.5441 48.7883 66.46C48.8418 66.4217 48.8801 66.3682 48.9259 66.3147C48.9412 66.2994 48.9642 66.2764 48.9795 66.2611C49.1401 66.1311 49.3083 66.0088 49.4765 65.8941C49.5912 65.81 49.7136 65.7335 49.8359 65.6647C49.7748 65.68 49.7212 65.6953 49.6601 65.7105C49.3083 65.787 48.9107 65.7488 48.6201 65.5423C48.2989 65.3129 48.1536 64.9152 48.0312 64.5405C48.0159 64.5023 48.0083 64.4641 47.993 64.4258C47.8783 64.6017 47.7559 64.77 47.6183 64.9305C47.5648 64.9994 46.8918 65.6723 46.8459 65.657L46.8536 65.6494Z" fill="#F69E7C"/>
<path d="M50.1189 65.1447C50.1189 65.1447 50.0883 65.1447 50.0806 65.1294C49.8206 64.8312 49.6448 64.4488 49.5989 64.0511C49.5989 64.0206 49.6142 63.9976 49.6448 63.9976C49.6753 63.9976 49.6983 64.0129 49.6983 64.0435C49.7442 64.4182 49.9048 64.7853 50.1571 65.0682C50.1724 65.0912 50.1724 65.1217 50.1571 65.137C50.1495 65.1447 50.1342 65.1523 50.1265 65.1523L50.1189 65.1447Z" fill="#B55C38"/>
<path d="M49.0253 64.7317C49.0253 64.7317 48.9947 64.7317 48.9871 64.7164C48.9718 64.6935 48.9718 64.6629 48.9871 64.6476C49.14 64.51 49.2624 64.3188 49.3159 64.1123C49.3159 64.0894 49.3465 64.0664 49.3771 64.0741C49.4 64.0741 49.4229 64.1047 49.4153 64.1352C49.3541 64.357 49.2318 64.5635 49.0635 64.7164C49.0559 64.7241 49.0406 64.7317 49.0329 64.7317H49.0253Z" fill="#B55C38"/>
<path d="M32.0105 58.9888C33.2311 58.9888 34.2205 57.4892 34.2205 55.6394C34.2205 53.7896 33.2311 52.29 32.0105 52.29C30.79 52.29 29.8005 53.7896 29.8005 55.6394C29.8005 57.4892 30.79 58.9888 32.0105 58.9888Z" fill="#27254C"/>
<path d="M25.8131 110.409L25.8101 112.925L28.8154 112.929L28.8184 110.413L25.8131 110.409Z" fill="#FCA987"/>
<path d="M25.3423 113.681V114.17C25.3423 114.269 25.4035 114.361 25.4952 114.407C25.7629 114.529 26.3899 114.766 27.254 114.797C28.4317 114.835 28.5235 115.225 30.4123 115.286C32.2323 115.348 32.9664 115.019 33.0658 114.965C33.1652 114.912 33.0582 114.262 33.0582 114.262L25.3499 113.673L25.3423 113.681Z" fill="#27254C"/>
<path d="M25.3424 113.681C25.3424 113.681 26.0383 114.185 26.8947 114.086C26.9024 114.086 26.9177 114.086 26.933 114.086C27.7894 114.009 28.9518 114.614 29.8159 114.682C30.6877 114.751 32.7371 114.881 33.0277 114.445C33.3183 114.009 31.743 113.482 31.3606 113.535C30.9783 113.581 30.183 112.205 29.6094 111.799C29.0283 111.394 28.0188 111.371 27.9271 112.136C27.1547 112.549 26.4359 112.633 25.8241 112.044C25.8165 112.059 25.1741 112.786 25.3577 113.681H25.3424Z" fill="#DF2715"/>
<path d="M25.3423 113.681C25.3423 113.681 26.0382 114.185 26.8947 114.086C26.9023 114.086 26.9176 114.086 26.9329 114.086C27.3688 112.901 25.4341 112.717 25.4341 112.717C25.3347 112.992 25.2735 113.321 25.3423 113.681Z" fill="#B72214"/>
<path d="M27.9194 112.136C27.9194 112.136 29.5712 113.918 30.573 113.818C30.8788 113.788 31.1006 113.673 31.2612 113.52C30.8559 113.375 30.1371 112.166 29.6018 111.799C29.0206 111.394 28.0112 111.371 27.9194 112.136Z" fill="#B72214"/>
<path d="M35.1003 110.486L35.0972 113.032L38.1483 113.036L38.1515 110.49L35.1003 110.486Z" fill="#FCA987"/>
<path d="M34.6335 113.795V114.292C34.6335 114.392 34.6947 114.491 34.7865 114.529C35.0618 114.659 35.6965 114.896 36.5682 114.927C37.7688 114.965 37.8606 115.363 39.7724 115.424C41.623 115.485 42.3647 115.156 42.4641 115.095C42.5635 115.034 42.4565 114.384 42.4565 114.384L34.6335 113.788V113.795Z" fill="#27254C"/>
<path d="M34.6335 113.795C34.6335 113.795 35.3371 114.308 36.2088 114.208C36.2165 114.208 36.2318 114.208 36.2471 114.208C37.1112 114.132 38.2965 114.743 39.1683 114.812C40.0477 114.881 42.1353 115.011 42.4259 114.575C42.7241 114.132 41.1183 113.596 40.7283 113.65C40.6977 113.65 40.6671 113.65 40.6288 113.635C40.5906 113.673 40.193 113.313 40.1547 113.275C39.7494 112.893 39.4665 112.396 39.0383 112.036C38.7783 111.815 38.4571 111.654 38.1206 111.646C37.7918 111.639 37.3483 111.815 37.2565 112.159C37.2565 112.182 37.2488 112.205 37.2412 112.228C36.4612 112.648 35.7194 112.725 35.1 112.121C35.0924 112.143 34.45 112.901 34.6335 113.788V113.795Z" fill="#DF2715"/>
<path d="M34.6336 113.795C34.6336 113.795 35.3447 114.308 36.2089 114.208C36.2165 114.208 36.2318 114.208 36.2471 114.208C36.6906 113.008 34.7253 112.816 34.7253 112.816C34.6259 113.092 34.5647 113.428 34.6336 113.795Z" fill="#B72214"/>
<path d="M37.2412 112.235C37.2412 112.235 38.9236 114.048 39.933 113.941C40.2389 113.91 40.4683 113.795 40.6289 113.642C40.5906 113.681 40.193 113.321 40.1547 113.283C39.7494 112.901 39.4665 112.403 39.0383 112.044C38.7783 111.822 38.4571 111.662 38.1206 111.654C37.7918 111.646 37.3483 111.822 37.2565 112.166C37.2565 112.189 37.2489 112.212 37.2412 112.235Z" fill="#B72214"/>
<path d="M25.48 110.545C25.48 111.096 29.3265 111.096 29.3265 110.545L29.4106 110.041L33.1806 90.7394L34.5876 109.345L34.6794 110.538C34.6794 111.088 38.587 111.088 38.587 110.538C38.7629 105.735 39.497 86.1205 39.627 82.6335C36.2547 83.4058 31.9341 83.2223 27.0247 82.45L25.48 110.538V110.545Z" fill="#27254C"/>
<path d="M25.4801 110.545C25.4801 111.096 29.3265 111.096 29.3265 110.545L29.4106 110.041C28.4318 109.857 27.4759 109.528 27.0859 108.763C26.1606 106.943 28.0036 85.5164 30.1906 86.1052C32.2477 86.6558 37.9218 86.2811 39.5124 85.4017L39.6195 82.6335C36.2471 83.4058 31.9265 83.2223 27.0171 82.45L25.4724 110.538L25.4801 110.545Z" fill="#18142E"/>
<path d="M39.5735 75.5523C39.3288 73.5258 39.0688 71.7288 39.0765 71.3158C39.0994 70.3982 40.3765 61.3288 40.063 60.717C39.3135 59.2488 36.79 58.1476 35.6047 57.6964C35.2147 57.5511 34.97 57.4747 34.97 57.4747L31.3912 57.2376C31.3912 57.2376 31.0853 57.2988 30.6188 57.3982C29.1506 57.7194 26.0688 58.4841 25.8165 59.1953C24.9065 61.7647 26.7647 68.0123 26.8718 69.0447C26.8947 69.2894 26.8947 70.1611 26.8794 71.3617C26.8335 75.2311 26.6347 82.4576 26.7265 82.6411C27.1012 83.4288 37.6388 83.5358 39.5659 82.2053V75.5447L39.5735 75.5523Z" fill="#F96C41"/>
<path d="M38.6558 70.6429C38.6558 70.6429 40.8429 72.4629 41.6535 72.44C43.6035 72.3864 47.3047 68.7235 48.4594 67.5306C48.6811 67.3011 48.8111 67.1558 48.8111 67.1558C47.7405 66.4447 47.4423 65.8329 47.32 64.7241L46.647 65.0988L42.5711 67.3776L40.0553 60.7247L38.6482 70.6506L38.6558 70.6429Z" fill="#EDF1F5"/>
<path d="M39.0994 71.0023L40.2082 71.79L39.7647 64.0817L39.0994 71.0023Z" fill="#F36137"/>
<path d="M39.0994 71.0023L39.6576 71.3923L39.7647 64.0817L39.0994 71.0023Z" fill="#EE562C"/>
<path d="M27.9424 67.11L34.733 71.9659L34.6794 71.9123L29.51 66.4447L28.9824 60.9312L27.9424 67.11Z" fill="#F36137"/>
<path d="M33.1807 90.7394L33.6471 96.88L33.8307 88.1776L33.1807 90.7394Z" fill="#18142E"/>
<path d="M27.9424 67.11L34.733 71.9659L34.6794 71.9123L28.5618 66.8423L28.9824 60.9312L27.9424 67.11Z" fill="#EE562C"/>
<path d="M34.5876 109.345L34.6794 110.538C34.6794 111.088 38.5871 111.088 38.5871 110.538C38.6559 108.618 38.6482 108.84 39.5276 85.3253L37.8376 85.4935C37.8376 85.4935 38.2276 108.595 37.3253 109.184C36.7671 109.551 35.4824 109.459 34.5953 109.337L34.5876 109.345Z" fill="#18142E"/>
<path d="M48.4594 67.5306C48.6812 67.3012 48.8112 67.1559 48.8112 67.1559C47.7406 66.4447 47.4424 65.8329 47.32 64.7241L46.6471 65.0988C46.6471 65.0988 46.6012 66.8194 48.4594 67.5306Z" fill="#BFC9D1"/>
<path d="M31.6817 80.2782V80.477C31.6817 84.2088 31.8193 87.4435 31.3375 89.7835C26.6346 90.6706 23.614 88.3153 23.614 88.3153C24.1646 86.977 24.7305 84.0558 25.5487 81.6929C27.644 75.6441 25.3117 59.96 25.3117 59.96C26.5199 57.4135 30.5728 57.4211 30.5728 57.4211C30.3358 65.4353 31.3605 73.7017 31.6817 80.2859V80.2782Z" fill="#EDF1F5"/>
<path d="M30.6187 57.4059C30.6187 57.4059 30.2746 57.4059 30.114 57.4518C29.9458 57.49 28.6228 60.1129 28.8599 61.0306C29.0893 61.9482 30.3969 63.7453 30.3969 63.7453C30.3969 63.7453 29.3493 65.6724 29.5175 66.8576C29.6858 68.0506 31.5746 75.1776 31.5746 75.1776C31.5517 74.52 31.5364 73.8624 31.4981 73.2353C31.1693 67.8288 30.2746 63.2712 30.6111 57.4059H30.6187Z" fill="#BFC9D1"/>
<path d="M39.6271 77.4488C39.6271 77.4488 39.6347 77.4947 39.6424 77.5405C40.0859 79.7658 41.3859 86.0135 42.143 88.147C42.143 88.147 39.8336 90.4564 35.7883 89.577C35.49 87.91 35.3218 85.7994 35.2606 83.3753C35.0389 75.6288 35.7883 67.4235 36.3465 57.6658C36.3465 57.6658 38.8241 57.0847 40.3459 60.2429C41.8677 63.4011 44.0547 72.0117 42.8312 74.8411C41.6689 77.5253 39.8336 77.4641 39.65 77.4488C39.6347 77.4488 39.6347 77.4488 39.6347 77.4488H39.6271Z" fill="#EDF1F5"/>
<g opacity="0.5">
<path d="M40.5448 83.4364C40.4989 83.3982 40.453 83.36 40.4071 83.3217C39.7648 82.8094 38.7936 82.7558 38.0977 83.1841C37.4095 83.6047 37.2489 84.1782 35.8495 84.117C35.1689 84.0864 34.4271 83.9105 34.0065 83.3752C33.9683 82.1211 33.953 80.7676 33.9607 79.4905C34.4118 78.81 35.0007 78.42 35.7271 77.9611C36.0942 77.7241 36.4765 77.487 36.9124 77.4182C37.1648 77.38 37.4324 77.3952 37.6924 77.4182C38.1589 77.4564 38.6254 77.4947 39.0918 77.5329C39.4895 79.2382 40.1242 81.8229 40.5524 83.4288L40.5448 83.4364Z" fill="#BFC9D1"/>
</g>
<path d="M37.3254 60.9312C37.1266 61.8488 36.2318 63.6917 36.2318 63.6917C36.2318 63.6917 37.3866 65.657 37.2413 66.8423C37.096 68.0276 35.0542 74.0382 35.0542 74.0382C35.2301 68.7694 35.2377 65.2976 35.5818 60.3806C35.6507 59.4476 35.5436 58.6294 35.6048 57.5741L36.5607 57.62C36.6983 57.5665 37.5166 60.0288 37.3177 60.9388L37.3254 60.9312Z" fill="#BFC9D1"/>
<path d="M41.164 72.44C38.3957 71.1476 38.3728 67.2706 38.3728 67.1329C38.5104 69.06 40.8657 72.5929 41.164 72.44Z" fill="#BFC9D1"/>
<path d="M41.2177 71.0788L34.9165 82.7023L30.6953 75.5906L40.9577 70.4976L41.2177 71.0788Z" fill="#309D6D"/>
<path d="M45.5306 77.7547L34.9165 82.7023L31.5977 75.5447L42.2041 70.62L45.5306 77.7547Z" fill="#72D497"/>
<path d="M24.7688 70.0923C26.5429 71.5147 30.2059 72.7535 32.6606 73.6482C32.9665 73.7629 33.2265 73.8547 33.41 73.9312L34.7788 72.0041L33.93 71.4535L27.5217 67.0641L26.91 58.4688C26.2676 58.7594 25.5641 58.7976 24.8912 61.1988C24.1035 64.0206 22.5129 68.3029 24.7612 70.1076L24.7688 70.0923Z" fill="#EDF1F5"/>
<path d="M29.923 68.7006L27.5294 67.0565L27.4453 63.8218L27.9424 66.3759L29.923 68.7006Z" fill="#BFC9D1"/>
<path d="M31.5823 75.1547L26.4128 71.1247L31.024 73.067L31.5823 75.1547Z" fill="#BFC9D1"/>
<path d="M32.6682 73.6482C32.9741 73.7629 33.2341 73.8547 33.4176 73.9311L34.7864 72.0041L33.9376 71.4535C33.4635 71.6141 32.7141 72.1188 32.6682 73.6558V73.6482Z" fill="#BFC9D1"/>
<path d="M33.4176 73.9312C33.2723 73.8853 33.3412 73.2812 33.5782 72.7688C33.6318 72.6465 33.6929 72.5318 33.7618 72.4324C34.1365 71.8971 34.5953 71.9353 34.7712 71.9965C34.8171 72.0118 34.84 72.0577 34.84 72.1188C34.84 72.31 34.6871 72.6694 34.4118 73.0671C34.3047 73.2124 34.1976 73.35 34.0906 73.4647C33.8076 73.7782 33.54 73.9694 33.41 73.9235L33.4176 73.9312Z" fill="#3C4150"/>
<path d="M37.1342 74C37.1342 74 37.8301 74.8564 36.8971 74.6347C36.8971 74.6347 37.3177 75.4453 36.4995 75.0782C36.553 75.2158 36.553 75.3153 36.5071 75.3841C36.3007 75.6976 35.0924 75.2005 34.2895 74.4664C34.2742 74.4588 34.2666 74.4435 34.2513 74.4358C34.0907 74.2905 33.953 74.13 33.846 73.9694H33.8001L33.5401 73.9311L33.3795 73.9082C33.2877 73.7705 33.3642 73.2353 33.5783 72.7841C33.6318 72.6617 33.693 72.547 33.7618 72.4476C33.8842 72.2717 34.0142 72.157 34.1442 72.0882C34.1671 72.0882 34.1901 72.0882 34.213 72.0958C34.2742 72.1035 34.3277 72.1111 34.3813 72.1188C34.5418 72.1417 34.6948 72.1647 34.8401 72.18C35.016 72.2029 35.1842 72.2335 35.3677 72.2794C35.903 72.05 36.5071 72.1035 37.0042 72.1341C37.1418 72.1494 37.2489 72.2106 37.3177 72.287L36.4536 72.7076C36.706 72.8529 36.9124 73.0288 37.2413 73.2735C38.6713 74.3288 37.1342 73.9847 37.1342 73.9847V74Z" fill="#FCA987"/>
<path d="M33.3794 73.9006L33.54 73.9235L33.8 73.9618C33.7694 73.8853 33.7388 73.8088 33.7235 73.7324C33.6623 73.4112 33.7388 73.0747 33.8917 72.7918C34.0217 72.5471 34.1976 72.3253 34.3888 72.1265C34.3353 72.1265 34.2741 72.1112 34.2205 72.1035C34.1976 72.1035 34.1747 72.1035 34.1517 72.0959C34.0217 72.1647 33.8917 72.2794 33.7694 72.4553C33.7005 72.5547 33.6394 72.6694 33.5858 72.7918C33.3794 73.2506 33.2953 73.7859 33.387 73.9159L33.3794 73.9006Z" fill="#F69E7C"/>
<path d="M37.1342 74.0458C37.1342 74.0458 37.1189 74.0459 37.1113 74.0382L36.3848 73.5794C36.3848 73.5794 36.3542 73.5335 36.3695 73.5106C36.3848 73.4876 36.4154 73.48 36.4383 73.4953L37.1648 73.9541C37.1648 73.9541 37.1954 74 37.1801 74.0229C37.1725 74.0382 37.1572 74.0458 37.1342 74.0458Z" fill="#B55C38"/>
<path d="M36.8664 74.6576C36.8664 74.6576 36.8511 74.6576 36.8435 74.65L36.117 74.1911C36.117 74.1911 36.0864 74.1453 36.1017 74.1223C36.117 74.0994 36.1476 74.0917 36.1705 74.107L36.897 74.5658C36.897 74.5658 36.9276 74.6117 36.9123 74.6347C36.9046 74.65 36.8893 74.6576 36.8664 74.6576Z" fill="#B55C38"/>
<path d="M36.4994 75.1241C36.4994 75.1241 36.4765 75.1241 36.4688 75.1164L35.8265 74.6882C35.8265 74.6882 35.7959 74.6423 35.8112 74.6194C35.8265 74.5964 35.857 74.5888 35.88 74.6041L36.5223 75.0323C36.5223 75.0323 36.5529 75.0782 36.5376 75.1011C36.53 75.1164 36.5147 75.1241 36.4994 75.1241Z" fill="#B55C38"/>
<path d="M38.2888 64.6706C38.1664 62.3306 37.7917 59.4323 36.0253 57.8647C35.0617 57.0158 33.7694 56.6335 32.1711 56.7405C31.3223 56.7941 30.6188 57.1382 30.0988 57.7653C28.5694 59.5853 28.9364 63.1947 28.9441 63.2329L28.6229 63.2711C28.6076 63.1182 28.2329 59.4858 29.8541 57.5588C30.4353 56.8629 31.2153 56.4806 32.1558 56.4194C33.8458 56.3123 35.2223 56.7176 36.247 57.6276C38.1053 59.2794 38.4876 62.2541 38.6176 64.6553L38.2964 64.6706H38.2888Z" fill="black"/>
<path d="M39.1606 64.877C39.1835 65.2211 38.9235 65.527 38.5794 65.55C38.2276 65.5729 37.9294 65.3129 37.9064 64.9688C37.8835 64.6247 38.1435 64.3188 38.4876 64.2958C38.8317 64.2729 39.1376 64.5329 39.1606 64.877Z" fill="#7366DA"/>
<path d="M29.8539 67.5994L29.6321 67.3623C29.6321 67.3623 30.6645 66.4064 30.7256 65.0606C30.7868 63.7912 29.0586 63.5847 29.0356 63.577L29.0739 63.2559C29.7851 63.3323 31.108 63.8141 31.0468 65.0759C30.978 66.5594 29.8921 67.5612 29.8462 67.5994H29.8539Z" fill="black"/>
<path d="M28.294 67.63C28.2405 67.5917 27.0322 66.7582 26.7569 65.2976C26.5275 64.0588 27.7663 63.4012 28.4622 63.2253L28.5463 63.5388C28.4775 63.5541 26.8487 63.9976 27.0858 65.2365C27.3381 66.567 28.4775 67.3547 28.4928 67.3623L28.3093 67.63H28.294Z" fill="black"/>
<path d="M29.2958 63.1641C29.3187 63.447 29.0969 63.6994 28.814 63.7147C28.5311 63.7376 28.2787 63.5158 28.2634 63.2329C28.2405 62.9499 28.4546 62.6976 28.7452 62.6823C29.0281 62.6594 29.2805 62.8811 29.2958 63.1641Z" fill="#7366DA"/>
<path d="M28.6762 67.4618C28.6915 67.6376 28.5539 67.7906 28.378 67.8059C28.2021 67.8212 28.0492 67.6835 28.0339 67.5076C28.0186 67.3318 28.1562 67.1788 28.3321 67.1635C28.508 67.1482 28.6609 67.2859 28.6762 67.4618Z" fill="#7366DA"/>
<path d="M30.0986 67.4235C30.1139 67.5994 29.9762 67.7523 29.8004 67.7676C29.6245 67.7829 29.4715 67.6452 29.4562 67.4694C29.4409 67.2935 29.5786 67.1405 29.7545 67.1252C29.9304 67.11 30.0833 67.2476 30.0986 67.4235Z" fill="#7366DA"/>
<path d="M30.9477 54.5688C30.9477 54.5688 30.9248 54.5688 30.9171 54.5535C30.7642 54.4388 30.6648 54.2706 30.6342 54.0871C30.6189 53.9953 30.6189 53.8729 30.6877 53.7659C30.7566 53.6665 30.8942 53.6053 31.0166 53.6588C31.0319 53.6588 31.0166 53.6818 31.0089 53.6741C30.8942 53.6206 30.7719 53.6818 30.7107 53.7735C30.5883 53.9494 30.6495 54.3241 30.9401 54.5306C30.9401 54.5306 30.9554 54.5306 30.963 54.5382C30.963 54.5382 30.9707 54.5382 30.9707 54.5459C30.9707 54.5459 30.9707 54.5535 30.963 54.5535L30.9477 54.5688Z" fill="#3C4150"/>
<path d="M30.6036 58.5147C30.6724 59.2411 31.2842 60.6023 33.1271 60.6023C33.2648 60.6023 33.4101 60.6023 33.5554 60.5794C35.2148 60.4111 35.6124 59.1264 35.5895 58.4764L35.5742 57.7117C35.5742 57.7117 35.5895 57.7117 35.5971 57.7041C35.2071 57.5588 34.9624 57.4823 34.9624 57.4823L31.3836 57.2452C31.3836 57.2452 31.0777 57.3064 30.6112 57.4058C30.6112 57.4211 30.5959 58.5911 30.5959 58.5147H30.6036Z" fill="#EDF1F5"/>
<path d="M32.0181 56.06C33.8679 56.06 35.3675 54.5604 35.3675 52.7106C35.3675 50.8607 33.8679 49.3611 32.0181 49.3611C30.1683 49.3611 28.6687 50.8607 28.6687 52.7106C28.6687 54.5604 30.1683 56.06 32.0181 56.06Z" fill="#27254C"/>
<path d="M34.3506 54.347C36.2005 54.347 37.7 52.8474 37.7 50.9976C37.7 49.1478 36.2005 47.6482 34.3506 47.6482C32.5008 47.6482 31.0012 49.1478 31.0012 50.9976C31.0012 52.8474 32.5008 54.347 34.3506 54.347Z" fill="#27254C"/>
<path d="M31.047 58.4764C31.047 58.4764 31.2153 60.3729 33.5094 60.1358C35.1994 59.9599 35.1459 58.4841 35.1459 58.4841C35.1459 58.4611 35.1229 57.3064 35.1306 57.3752C37.0423 57.0082 36.9123 53.6741 36.5147 51.1199C35.6123 51.3799 34.297 51.4564 32.4235 51.2346C32.4235 51.2346 32.3164 52.4735 32.5764 53.6435C32.7829 54.5535 31.9264 54.4617 31.8729 54.1099C31.8729 54.064 31.5059 52.8558 30.7947 53.1235C29.617 53.5746 30.5194 55.0964 31.0853 55.8688C31.0853 56.1364 31.1006 54.9052 31.0547 58.4688L31.047 58.4764Z" fill="#FCA987"/>
<path d="M31.0471 58.4764C31.0471 58.4764 31.2154 60.3729 33.5095 60.1358C35.1995 59.9599 35.1459 58.4841 35.1459 58.4841L35.1306 57.3829C35.0083 57.4746 33.7389 58.3693 31.6436 57.9717C31.4295 57.9335 31.2383 57.8952 31.0624 57.857V58.4764H31.0471Z" fill="#F69E7C"/>
<path d="M87.8495 59.05H84.546C84.4389 59.05 84.3472 58.9582 84.3472 58.8512C84.3472 58.7441 84.4389 58.6523 84.546 58.6523H87.8495C87.9566 58.6523 88.0483 58.7441 88.0483 58.8512C88.0483 58.9582 87.9566 59.05 87.8495 59.05Z" fill="#EDF1F5"/>
<path d="M60.5725 65.68C60.5725 66.5441 59.8689 67.24 59.0125 67.24C58.156 67.24 57.4448 66.5441 57.4448 65.68C57.4448 64.4258 58.8519 63.6917 59.8766 64.3799C60.2972 64.6629 60.5725 65.137 60.5725 65.68Z" fill="#72D497"/>
<path d="M58.6378 66.307L58.1255 65.7947C58.0796 65.7488 58.0796 65.6723 58.1255 65.6188C58.1714 65.5729 58.2478 65.5729 58.3014 65.6188L58.7296 66.047L59.7237 65.0529C59.7696 65.007 59.8461 65.007 59.8996 65.0529C59.9455 65.0988 59.9455 65.1753 59.8996 65.2288L58.8214 66.307C58.7755 66.3529 58.699 66.3529 58.6455 66.307H58.6378Z" fill="white"/>
<path d="M59.0124 68.4711C57.46 68.4711 56.2212 67.2094 56.2212 65.68C56.2212 64.1506 57.4753 62.8888 59.0124 62.8888C60.5494 62.8888 61.8035 64.1506 61.8035 65.68C61.8035 67.2094 60.5494 68.4711 59.0124 68.4711ZM59.0124 63.1794C57.6283 63.1794 56.5041 64.3035 56.5041 65.6876C56.5041 67.0717 57.6359 68.1959 59.0124 68.1959C60.3888 68.1959 61.5206 67.0717 61.5206 65.6876C61.5206 64.3035 60.4118 63.1794 59.0124 63.1794Z" fill="#EF4441"/>
<path d="M53.7741 72.4476C53.7741 73.3117 53.0706 74.0076 52.2141 74.0076C51.3577 74.0076 50.6465 73.3117 50.6465 72.4476C50.6465 71.1935 52.0535 70.4594 53.0782 71.1476C53.4988 71.4305 53.7741 71.9047 53.7741 72.4476Z" fill="#6DB0F4"/>
<path d="M51.8471 73.0747L51.3347 72.5623C51.2888 72.5164 51.2888 72.44 51.3347 72.3864C51.3806 72.3405 51.4571 72.3405 51.5106 72.3864L51.9388 72.8147L52.9329 71.8205C52.9788 71.7747 53.0553 71.7747 53.1088 71.8205C53.1547 71.8664 53.1547 71.9429 53.1088 71.9964L52.0306 73.0747C51.9847 73.1205 51.9082 73.1205 51.8547 73.0747H51.8471Z" fill="white"/>
<path d="M52.214 75.2312C50.6617 75.2312 49.4229 73.9694 49.4229 72.44C49.4229 70.9106 50.677 69.6488 52.214 69.6488C53.7511 69.6488 55.0052 70.9106 55.0052 72.44C55.0052 73.9694 53.7511 75.2312 52.214 75.2312ZM49.7058 72.4476C49.7058 73.8394 50.8376 74.9559 52.214 74.9559C53.5905 74.9559 54.7223 73.8317 54.7223 72.4476C54.7223 71.6065 54.3017 70.8265 53.6058 70.36C51.954 69.2665 49.7134 70.4441 49.7134 72.4476H49.7058Z" fill="#EF4441"/>
<path d="M67.3706 79.1311C67.3706 79.9952 66.667 80.6911 65.8106 80.6911C64.9541 80.6911 64.2429 79.9952 64.2429 79.1311C64.2429 77.877 65.65 77.1429 66.6747 77.8311C67.0953 78.1141 67.3706 78.5882 67.3706 79.1311Z" fill="#C86150"/>
<path d="M65.4359 79.7582L64.9236 79.2458C64.8777 79.2 64.8777 79.1235 64.9236 79.07C64.9695 79.0241 65.0459 79.0241 65.0995 79.07L65.5277 79.4982L66.5218 78.5041C66.5677 78.4582 66.6442 78.4582 66.6977 78.5041C66.7436 78.55 66.7436 78.6264 66.6977 78.68L65.6195 79.7582C65.5736 79.8041 65.4971 79.8041 65.4436 79.7582H65.4359Z" fill="white"/>
<path d="M65.8107 81.9147C64.2584 81.9147 63.0195 80.6529 63.0195 79.1235C63.0195 77.5941 64.2736 76.3323 65.8107 76.3323C67.3478 76.3323 68.6019 77.5941 68.6019 79.1235C68.6019 80.6529 67.3478 81.9147 65.8107 81.9147ZM65.8107 76.6229C64.4266 76.6229 63.3025 77.747 63.3025 79.1312C63.3025 80.5153 64.4266 81.6394 65.8107 81.6394C67.1948 81.6394 68.3189 80.5153 68.3189 79.1312C68.3189 77.747 67.2101 76.6229 65.8107 76.6229Z" fill="#EF4441"/>
<path d="M74.1689 58.8511C74.1689 59.7153 73.4654 60.4111 72.6089 60.4111C71.7524 60.4111 71.0413 59.7153 71.0413 58.8511C71.0413 57.987 71.7448 57.2911 72.6089 57.2911C73.473 57.2911 74.1689 57.9947 74.1689 58.8511Z" fill="#F36137"/>
<path d="M72.2343 59.4782L71.7219 58.9659C71.676 58.92 71.676 58.8435 71.7219 58.79C71.7678 58.7441 71.8443 58.7441 71.8978 58.79L72.326 59.2182L73.3201 58.2241C73.366 58.1782 73.4425 58.1782 73.496 58.2241C73.5419 58.27 73.5419 58.3465 73.496 58.4L72.4178 59.4782C72.3719 59.5241 72.2954 59.5241 72.2419 59.4782H72.2343Z" fill="white"/>
<path d="M72.6012 61.6423C71.0489 61.6423 69.8101 60.3806 69.8101 58.8512C69.8101 57.3218 71.0642 56.06 72.6012 56.06C74.1383 56.06 75.3924 57.3218 75.3924 58.8512C75.3924 60.3806 74.1383 61.6423 72.6012 61.6423ZM72.6012 56.3429C71.2171 56.3429 70.093 57.4671 70.093 58.8512C70.093 60.2353 71.2171 61.3594 72.6012 61.3594C73.9854 61.3594 75.1095 60.2353 75.1095 58.8512C75.1095 57.4671 74.0006 56.3429 72.6012 56.3429Z" fill="#EF4441"/>
<path d="M81.0512 59.05H77.7476C77.6406 59.05 77.5488 58.9582 77.5488 58.8512C77.5488 58.7441 77.6406 58.6523 77.7476 58.6523H81.0512C81.1582 58.6523 81.25 58.7441 81.25 58.8512C81.25 58.9582 81.1582 59.05 81.0512 59.05Z" fill="#EDF1F5"/>
<path d="M72.4253 44.9717H62.3083C61.643 44.9717 61.0083 44.7041 60.5877 44.2376L59.1118 42.6011H75.6295L74.1536 44.2376C73.733 44.7041 73.0983 44.9717 72.433 44.9717H72.4253Z" fill="#9A9AE2"/>
<path d="M68.0207 43.4729C68.0207 43.8324 67.7301 44.1229 67.3707 44.1229C67.0113 44.1229 66.7207 43.8324 66.7207 43.4729C66.7207 43.1135 67.0113 42.8229 67.3707 42.8229C67.7301 42.8229 68.0207 43.1135 68.0207 43.4729Z" fill="white"/>
<path d="M44.0623 15.2859H41.837L41.8217 14.1236H43.7258C44.0547 14.1236 44.3223 14.0777 44.5441 13.9859C44.7658 13.8942 44.9264 13.7642 45.0411 13.5883C45.1558 13.4124 45.2094 13.1983 45.2094 12.9459C45.2094 12.6706 45.1558 12.4412 45.0488 12.2653C44.9417 12.0895 44.7811 11.9595 44.5594 11.883C44.3376 11.7989 44.0547 11.7606 43.7105 11.7606H42.357V19.163H40.7129V10.4606H43.7029C44.1999 10.4606 44.6358 10.5065 45.0258 10.5983C45.4158 10.69 45.7447 10.8353 46.0123 11.0342C46.2799 11.233 46.4864 11.4777 46.6317 11.7683C46.7694 12.0665 46.8458 12.4106 46.8458 12.8236C46.8458 13.183 46.7617 13.5118 46.6011 13.81C46.4329 14.1083 46.1805 14.353 45.8441 14.5442C45.4999 14.7353 45.0717 14.8424 44.5517 14.8653L44.047 15.2859H44.0623ZM43.9935 19.163H41.3552L42.0435 17.8706H43.9935C44.3223 17.8706 44.5899 17.8171 44.8041 17.71C45.0182 17.603 45.1788 17.4577 45.2782 17.2665C45.3852 17.0753 45.4388 16.8612 45.4388 16.6089C45.4388 16.3412 45.3929 16.1042 45.3011 15.9053C45.2094 15.7065 45.0564 15.5536 44.8576 15.4465C44.6588 15.3395 44.3911 15.2859 44.0623 15.2859H42.357L42.3723 14.1236H44.5441L44.9188 14.5748C45.4235 14.5748 45.8288 14.6818 46.1499 14.873C46.4635 15.0718 46.7005 15.3165 46.8535 15.6224C47.0064 15.9283 47.0829 16.2571 47.0829 16.6165C47.0829 17.1747 46.9605 17.6412 46.7235 18.0236C46.4788 18.4059 46.1347 18.6889 45.6682 18.88C45.2017 19.0712 44.6511 19.1706 44.0011 19.1706L43.9935 19.163Z" fill="#1691CF"/>
<path d="M55.5406 14.59V15.0412C55.5406 15.6988 55.4565 16.2877 55.2806 16.8153C55.1048 17.343 54.8601 17.7865 54.5312 18.1536C54.2101 18.5206 53.8277 18.8035 53.3765 18.9947C52.9254 19.1859 52.4359 19.2853 51.8854 19.2853C51.3348 19.2853 50.853 19.1859 50.4095 18.9947C49.9659 18.8035 49.5759 18.5206 49.2471 18.1536C48.9183 17.7865 48.6659 17.343 48.4901 16.8153C48.3142 16.2953 48.2224 15.6988 48.2224 15.0412V14.59C48.2224 13.9324 48.3142 13.3359 48.4901 12.8159C48.6659 12.2959 48.9183 11.8524 49.2395 11.4777C49.5606 11.1106 49.9506 10.8277 50.3942 10.6288C50.8454 10.4377 51.3348 10.3383 51.8701 10.3383C52.4054 10.3383 52.9101 10.4377 53.3612 10.6288C53.8048 10.8277 54.1948 11.103 54.5159 11.4777C54.8371 11.8447 55.0895 12.2883 55.2653 12.8159C55.4412 13.3359 55.533 13.9324 55.533 14.59H55.5406ZM53.8812 15.0412V14.5824C53.8812 14.1083 53.8354 13.6877 53.7512 13.3283C53.6671 12.9688 53.5371 12.663 53.3612 12.4183C53.193 12.1736 52.9789 11.9824 52.7265 11.86C52.4742 11.7377 52.1912 11.6688 51.8777 11.6688C51.5642 11.6688 51.2736 11.73 51.0289 11.86C50.7842 11.99 50.5777 12.1736 50.4018 12.4183C50.2336 12.663 50.1036 12.9688 50.0118 13.3283C49.9201 13.6877 49.8742 14.1083 49.8742 14.5824V15.0412C49.8742 15.5077 49.9201 15.9283 50.0118 16.2877C50.1036 16.6471 50.2336 16.953 50.4095 17.2053C50.5854 17.4577 50.7918 17.6412 51.0365 17.7712C51.2812 17.9012 51.5642 17.9624 51.8854 17.9624C52.2065 17.9624 52.4895 17.9012 52.7342 17.7712C52.9789 17.6412 53.1854 17.4577 53.3612 17.2053C53.5295 16.953 53.6595 16.6471 53.7436 16.2877C53.8277 15.9283 53.8736 15.5077 53.8736 15.0412H53.8812Z" fill="#1691CF"/>
<path d="M63.9752 14.59V15.0412C63.9752 15.6988 63.8911 16.2877 63.7152 16.8153C63.5393 17.343 63.2946 17.7865 62.9658 18.1536C62.6446 18.5206 62.2623 18.8035 61.8111 18.9947C61.3599 19.1859 60.8705 19.2853 60.3199 19.2853C59.7693 19.2853 59.2876 19.1859 58.844 18.9947C58.4005 18.8035 58.0105 18.5206 57.6817 18.1536C57.3529 17.7865 57.1005 17.343 56.9246 16.8153C56.7488 16.2953 56.657 15.6988 56.657 15.0412V14.59C56.657 13.9324 56.7488 13.3359 56.9246 12.8159C57.1005 12.2959 57.3529 11.8524 57.674 11.4777C57.9952 11.1106 58.3852 10.8277 58.8288 10.6288C59.2799 10.4377 59.7693 10.3383 60.3046 10.3383C60.8399 10.3383 61.3446 10.4377 61.7958 10.6288C62.2393 10.8277 62.6293 11.103 62.9505 11.4777C63.2717 11.8447 63.524 12.2883 63.6999 12.8159C63.8758 13.3359 63.9676 13.9324 63.9676 14.59H63.9752ZM62.3158 15.0412V14.5824C62.3158 14.1083 62.2699 13.6877 62.1858 13.3283C62.1017 12.9688 61.9717 12.663 61.7958 12.4183C61.6276 12.1736 61.4135 11.9824 61.1611 11.86C60.9088 11.7377 60.6258 11.6688 60.3123 11.6688C59.9988 11.6688 59.7082 11.73 59.4635 11.86C59.2188 11.99 59.0123 12.1736 58.8364 12.4183C58.6682 12.663 58.5382 12.9688 58.4464 13.3283C58.3546 13.6877 58.3087 14.1083 58.3087 14.5824V15.0412C58.3087 15.5077 58.3546 15.9283 58.4464 16.2877C58.5382 16.6471 58.6682 16.953 58.844 17.2053C59.0199 17.4577 59.2264 17.6412 59.4711 17.7712C59.7158 17.9012 59.9987 17.9624 60.3199 17.9624C60.6411 17.9624 60.924 17.9012 61.1687 17.7712C61.4135 17.6412 61.6199 17.4577 61.7958 17.2053C61.964 16.953 62.094 16.6471 62.1782 16.2877C62.2623 15.9283 62.3082 15.5077 62.3082 15.0412H62.3158Z" fill="#1691CF"/>
<path d="M67.0111 10.4683V19.1706H65.3669V10.4683H67.0111ZM72.234 10.4683L68.7469 14.7124L66.7511 16.8459L66.4605 15.2477L67.8446 13.4506L70.2228 10.4683H72.234ZM70.3987 19.163L67.6916 15.0871L68.8693 14.0241L72.3487 19.163H70.3987Z" fill="#1691CF"/>
<path d="M79.6212 11.7836L77.1436 19.163H75.4077L78.6577 10.4606H79.7665L79.6212 11.7836ZM81.5789 15.9283V17.2283H76.9142V15.9283H81.5789ZM81.6936 19.163L79.2007 11.7836L79.0477 10.4606H80.1642L83.4295 19.163H81.686H81.6936Z" fill="#1691CF"/>
<path d="M91.3213 10.4683V19.1706H89.6695L85.9683 13.1371V19.1706H84.3242V10.4683H85.9683L89.6772 16.5094V10.4683H91.3136H91.3213Z" fill="#1691CF"/>
<path d="M26.2294 26.4659L23.7518 33.8453H22.0159L25.2659 25.1429H26.3747L26.2294 26.4659ZM28.187 30.6182V31.9182H23.5223V30.6182H28.187ZM28.3018 33.8453L25.8088 26.4659L25.6559 25.1429H26.7723L30.0376 33.8453H28.2941H28.3018Z" fill="#1691CF"/>
<path d="M34.2818 30.6718H32.0412V29.3794H34.2818C34.6488 29.3794 34.9471 29.3183 35.1765 29.1959C35.4059 29.0736 35.5741 28.9053 35.6812 28.6912C35.7883 28.4771 35.8418 28.2324 35.8418 27.9571C35.8418 27.6818 35.7883 27.4447 35.6812 27.2077C35.5741 26.9783 35.4059 26.7871 35.1765 26.6494C34.9471 26.5118 34.6488 26.4353 34.2818 26.4353H32.5765V33.8377H30.9324V25.1353H34.2818C34.9624 25.1353 35.5359 25.2577 36.0177 25.4947C36.4994 25.7394 36.8665 26.0683 37.1188 26.4888C37.3712 26.9094 37.5012 27.3988 37.5012 27.9341C37.5012 28.4694 37.3712 28.9818 37.1188 29.3871C36.8665 29.7924 36.4994 30.1059 36.0177 30.3277C35.5359 30.5494 34.9624 30.6565 34.2818 30.6565V30.6718Z" fill="#1691CF"/>
<path d="M42.1277 30.6718H39.8871V29.3794H42.1277C42.4948 29.3794 42.793 29.3183 43.0224 29.1959C43.2518 29.0736 43.4201 28.9053 43.5271 28.6912C43.6342 28.4771 43.6877 28.2324 43.6877 27.9571C43.6877 27.6818 43.6342 27.4447 43.5271 27.2077C43.4201 26.9783 43.2518 26.7871 43.0224 26.6494C42.793 26.5118 42.4948 26.4353 42.1277 26.4353H40.4224V33.8377H38.7783V25.1353H42.1277C42.8083 25.1353 43.3819 25.2577 43.8636 25.4947C44.3454 25.7394 44.7124 26.0683 44.9648 26.4888C45.2171 26.9094 45.3471 27.3988 45.3471 27.9341C45.3471 28.4694 45.2171 28.9818 44.9648 29.3871C44.7124 29.7924 44.3454 30.1059 43.8636 30.3277C43.3819 30.5494 42.8083 30.6565 42.1277 30.6565V30.6718Z" fill="#1691CF"/>
<path d="M53.6747 29.28V29.7312C53.6747 30.3888 53.5906 30.9777 53.4147 31.5053C53.2388 32.033 52.9941 32.4765 52.6653 32.8436C52.3441 33.2106 51.9617 33.4936 51.5106 33.6847C51.0594 33.8759 50.57 33.9753 50.0194 33.9753C49.4688 33.9753 48.987 33.8759 48.5435 33.6847C48.1 33.4936 47.71 33.2106 47.3812 32.8436C47.0523 32.4765 46.8 32.033 46.6241 31.5053C46.4482 30.9853 46.3564 30.3888 46.3564 29.7312V29.28C46.3564 28.6224 46.4482 28.0259 46.6241 27.5059C46.8 26.9859 47.0523 26.5424 47.3735 26.1677C47.6947 25.8006 48.0847 25.5177 48.5282 25.3188C48.9794 25.1277 49.4688 25.0283 50.0041 25.0283C50.5394 25.0283 51.0441 25.1277 51.4953 25.3188C51.9388 25.5177 52.3288 25.793 52.65 26.1677C52.9712 26.5347 53.2235 26.9783 53.3994 27.5059C53.5753 28.0259 53.667 28.6224 53.667 29.28H53.6747ZM52.0153 29.7236V29.2647C52.0153 28.7906 51.9694 28.37 51.8853 28.0106C51.8012 27.6512 51.6711 27.3453 51.4953 27.1006C51.327 26.8559 51.1129 26.6647 50.8606 26.5424C50.6082 26.42 50.3253 26.3512 50.0117 26.3512C49.6982 26.3512 49.4076 26.4124 49.1629 26.5424C48.9182 26.6724 48.7117 26.8559 48.5359 27.1006C48.3676 27.3453 48.2376 27.6512 48.1459 28.0106C48.0541 28.37 48.0082 28.7906 48.0082 29.2647V29.7236C48.0082 30.19 48.0541 30.6106 48.1459 30.97C48.2376 31.3294 48.3676 31.6353 48.5435 31.8877C48.7194 32.14 48.9259 32.3236 49.1706 32.4536C49.4153 32.5836 49.6982 32.6447 50.0194 32.6447C50.3406 32.6447 50.6235 32.5836 50.8682 32.4536C51.1129 32.3236 51.3194 32.14 51.4953 31.8877C51.6635 31.6353 51.7935 31.3294 51.8776 30.97C51.9617 30.6106 52.0076 30.19 52.0076 29.7236H52.0153Z" fill="#1691CF"/>
<path d="M56.8177 25.1506V33.853H55.1736V25.1506H56.8177Z" fill="#1691CF"/>
<path d="M65.581 25.1506V33.853H63.9293L60.2281 27.8195V33.853H58.584V25.1506H60.2281L63.9369 31.1918V25.1506H65.5734H65.581Z" fill="#1691CF"/>
<path d="M73.5035 25.1506V26.4506H66.4988V25.1506H73.5035ZM70.8041 25.1506V33.853H69.1676V25.1506H70.8041Z" fill="#1691CF"/>
<path d="M74.5972 25.1506H75.9889L76.2413 31.1689V33.853H74.5972V25.1506ZM75.3083 25.1506H76.7307L79.1089 31.6965L81.4795 25.1506H82.9095L79.6748 33.853H78.5354L75.3083 25.1506ZM82.2289 25.1506H83.6283V33.853H81.9842V31.1689L82.2289 25.1506Z" fill="#1691CF"/>
<path d="M86.9393 25.1506V33.853H85.2952V25.1506H86.9393ZM91.0458 25.1506V26.4506H86.4422V25.1506H91.0458ZM90.4646 28.7371V29.9989H86.4422V28.7371H90.4646ZM91.061 32.553V33.8453H86.4346V32.553H91.061Z" fill="#1691CF"/>
<path d="M99.1899 25.1506V33.853H97.5382L93.837 27.8195V33.853H92.1929V25.1506H93.837L97.5458 31.1918V25.1506H99.1823H99.1899Z" fill="#1691CF"/>
<path d="M107.12 25.1506V26.4506H100.115V25.1506H107.12ZM104.421 25.1506V33.853H102.784V25.1506H104.421Z" fill="#1691CF"/>
<path d="M44.0623 15.2859H41.837L41.8217 14.1236H43.7258C44.0547 14.1236 44.3223 14.0777 44.5441 13.9859C44.7658 13.8942 44.9264 13.7642 45.0411 13.5883C45.1558 13.4124 45.2094 13.1983 45.2094 12.9459C45.2094 12.6706 45.1558 12.4412 45.0488 12.2653C44.9417 12.0895 44.7811 11.9595 44.5594 11.883C44.3376 11.7989 44.0547 11.7606 43.7105 11.7606H42.357V19.163H40.7129V10.4606H43.7029C44.1999 10.4606 44.6358 10.5065 45.0258 10.5983C45.4158 10.69 45.7447 10.8353 46.0123 11.0342C46.2799 11.233 46.4864 11.4777 46.6317 11.7683C46.7694 12.0665 46.8458 12.4106 46.8458 12.8236C46.8458 13.183 46.7617 13.5118 46.6011 13.81C46.4329 14.1083 46.1805 14.353 45.8441 14.5442C45.4999 14.7353 45.0717 14.8424 44.5517 14.8653L44.047 15.2859H44.0623ZM43.9935 19.163H41.3552L42.0435 17.8706H43.9935C44.3223 17.8706 44.5899 17.8171 44.8041 17.71C45.0182 17.603 45.1788 17.4577 45.2782 17.2665C45.3852 17.0753 45.4388 16.8612 45.4388 16.6089C45.4388 16.3412 45.3929 16.1042 45.3011 15.9053C45.2094 15.7065 45.0564 15.5536 44.8576 15.4465C44.6588 15.3395 44.3911 15.2859 44.0623 15.2859H42.357L42.3723 14.1236H44.5441L44.9188 14.5748C45.4235 14.5748 45.8288 14.6818 46.1499 14.873C46.4635 15.0718 46.7005 15.3165 46.8535 15.6224C47.0064 15.9283 47.0829 16.2571 47.0829 16.6165C47.0829 17.1747 46.9605 17.6412 46.7235 18.0236C46.4788 18.4059 46.1347 18.6889 45.6682 18.88C45.2017 19.0712 44.6511 19.1706 44.0011 19.1706L43.9935 19.163Z" fill="url(#paint0_linear_2578_56)"/>
<path d="M55.5406 14.59V15.0412C55.5406 15.6988 55.4565 16.2877 55.2806 16.8153C55.1048 17.343 54.8601 17.7865 54.5312 18.1536C54.2101 18.5206 53.8277 18.8035 53.3765 18.9947C52.9254 19.1859 52.4359 19.2853 51.8854 19.2853C51.3348 19.2853 50.853 19.1859 50.4095 18.9947C49.9659 18.8035 49.5759 18.5206 49.2471 18.1536C48.9183 17.7865 48.6659 17.343 48.4901 16.8153C48.3142 16.2953 48.2224 15.6988 48.2224 15.0412V14.59C48.2224 13.9324 48.3142 13.3359 48.4901 12.8159C48.6659 12.2959 48.9183 11.8524 49.2395 11.4777C49.5606 11.1106 49.9506 10.8277 50.3942 10.6288C50.8454 10.4377 51.3348 10.3383 51.8701 10.3383C52.4054 10.3383 52.9101 10.4377 53.3612 10.6288C53.8048 10.8277 54.1948 11.103 54.5159 11.4777C54.8371 11.8447 55.0895 12.2883 55.2653 12.8159C55.4412 13.3359 55.533 13.9324 55.533 14.59H55.5406ZM53.8812 15.0412V14.5824C53.8812 14.1083 53.8354 13.6877 53.7512 13.3283C53.6671 12.9688 53.5371 12.663 53.3612 12.4183C53.193 12.1736 52.9789 11.9824 52.7265 11.86C52.4742 11.7377 52.1912 11.6688 51.8777 11.6688C51.5642 11.6688 51.2736 11.73 51.0289 11.86C50.7842 11.99 50.5777 12.1736 50.4018 12.4183C50.2336 12.663 50.1036 12.9688 50.0118 13.3283C49.9201 13.6877 49.8742 14.1083 49.8742 14.5824V15.0412C49.8742 15.5077 49.9201 15.9283 50.0118 16.2877C50.1036 16.6471 50.2336 16.953 50.4095 17.2053C50.5854 17.4577 50.7918 17.6412 51.0365 17.7712C51.2812 17.9012 51.5642 17.9624 51.8854 17.9624C52.2065 17.9624 52.4895 17.9012 52.7342 17.7712C52.9789 17.6412 53.1854 17.4577 53.3612 17.2053C53.5295 16.953 53.6595 16.6471 53.7436 16.2877C53.8277 15.9283 53.8736 15.5077 53.8736 15.0412H53.8812Z" fill="url(#paint1_linear_2578_56)"/>
<path d="M63.9752 14.59V15.0412C63.9752 15.6988 63.8911 16.2877 63.7152 16.8153C63.5393 17.343 63.2946 17.7865 62.9658 18.1536C62.6446 18.5206 62.2623 18.8035 61.8111 18.9947C61.3599 19.1859 60.8705 19.2853 60.3199 19.2853C59.7693 19.2853 59.2876 19.1859 58.844 18.9947C58.4005 18.8035 58.0105 18.5206 57.6817 18.1536C57.3529 17.7865 57.1005 17.343 56.9246 16.8153C56.7488 16.2953 56.657 15.6988 56.657 15.0412V14.59C56.657 13.9324 56.7488 13.3359 56.9246 12.8159C57.1005 12.2959 57.3529 11.8524 57.674 11.4777C57.9952 11.1106 58.3852 10.8277 58.8288 10.6288C59.2799 10.4377 59.7693 10.3383 60.3046 10.3383C60.8399 10.3383 61.3446 10.4377 61.7958 10.6288C62.2393 10.8277 62.6293 11.103 62.9505 11.4777C63.2717 11.8447 63.524 12.2883 63.6999 12.8159C63.8758 13.3359 63.9676 13.9324 63.9676 14.59H63.9752ZM62.3158 15.0412V14.5824C62.3158 14.1083 62.2699 13.6877 62.1858 13.3283C62.1017 12.9688 61.9717 12.663 61.7958 12.4183C61.6276 12.1736 61.4135 11.9824 61.1611 11.86C60.9088 11.7377 60.6258 11.6688 60.3123 11.6688C59.9988 11.6688 59.7082 11.73 59.4635 11.86C59.2188 11.99 59.0123 12.1736 58.8364 12.4183C58.6682 12.663 58.5382 12.9688 58.4464 13.3283C58.3546 13.6877 58.3087 14.1083 58.3087 14.5824V15.0412C58.3087 15.5077 58.3546 15.9283 58.4464 16.2877C58.5382 16.6471 58.6682 16.953 58.844 17.2053C59.0199 17.4577 59.2264 17.6412 59.4711 17.7712C59.7158 17.9012 59.9987 17.9624 60.3199 17.9624C60.6411 17.9624 60.924 17.9012 61.1687 17.7712C61.4135 17.6412 61.6199 17.4577 61.7958 17.2053C61.964 16.953 62.094 16.6471 62.1782 16.2877C62.2623 15.9283 62.3082 15.5077 62.3082 15.0412H62.3158Z" fill="url(#paint2_linear_2578_56)"/>
<path d="M67.0111 10.4683V19.1706H65.3669V10.4683H67.0111ZM72.234 10.4683L68.7469 14.7124L66.7511 16.8459L66.4605 15.2477L67.8446 13.4506L70.2228 10.4683H72.234ZM70.3987 19.163L67.6916 15.0871L68.8693 14.0241L72.3487 19.163H70.3987Z" fill="url(#paint3_linear_2578_56)"/>
<path d="M79.6212 11.7836L77.1436 19.163H75.4077L78.6577 10.4606H79.7665L79.6212 11.7836ZM81.5789 15.9283V17.2283H76.9142V15.9283H81.5789ZM81.6936 19.163L79.2007 11.7836L79.0477 10.4606H80.1642L83.4295 19.163H81.686H81.6936Z" fill="url(#paint4_linear_2578_56)"/>
<path d="M91.3213 10.4683V19.1706H89.6695L85.9683 13.1371V19.1706H84.3242V10.4683H85.9683L89.6772 16.5094V10.4683H91.3136H91.3213Z" fill="url(#paint5_linear_2578_56)"/>
<path d="M26.2294 26.4659L23.7518 33.8453H22.0159L25.2659 25.1429H26.3747L26.2294 26.4659ZM28.187 30.6182V31.9182H23.5223V30.6182H28.187ZM28.3018 33.8453L25.8088 26.4659L25.6559 25.1429H26.7723L30.0376 33.8453H28.2941H28.3018Z" fill="url(#paint6_linear_2578_56)"/>
<path d="M34.2818 30.6718H32.0412V29.3794H34.2818C34.6488 29.3794 34.9471 29.3183 35.1765 29.1959C35.4059 29.0736 35.5741 28.9053 35.6812 28.6912C35.7883 28.4771 35.8418 28.2324 35.8418 27.9571C35.8418 27.6818 35.7883 27.4447 35.6812 27.2077C35.5741 26.9783 35.4059 26.7871 35.1765 26.6494C34.9471 26.5118 34.6488 26.4353 34.2818 26.4353H32.5765V33.8377H30.9324V25.1353H34.2818C34.9624 25.1353 35.5359 25.2577 36.0177 25.4947C36.4994 25.7394 36.8665 26.0683 37.1188 26.4888C37.3712 26.9094 37.5012 27.3988 37.5012 27.9341C37.5012 28.4694 37.3712 28.9818 37.1188 29.3871C36.8665 29.7924 36.4994 30.1059 36.0177 30.3277C35.5359 30.5494 34.9624 30.6565 34.2818 30.6565V30.6718Z" fill="url(#paint7_linear_2578_56)"/>
<path d="M42.1277 30.6718H39.8871V29.3794H42.1277C42.4948 29.3794 42.793 29.3183 43.0224 29.1959C43.2518 29.0736 43.4201 28.9053 43.5271 28.6912C43.6342 28.4771 43.6877 28.2324 43.6877 27.9571C43.6877 27.6818 43.6342 27.4447 43.5271 27.2077C43.4201 26.9783 43.2518 26.7871 43.0224 26.6494C42.793 26.5118 42.4948 26.4353 42.1277 26.4353H40.4224V33.8377H38.7783V25.1353H42.1277C42.8083 25.1353 43.3819 25.2577 43.8636 25.4947C44.3454 25.7394 44.7124 26.0683 44.9648 26.4888C45.2171 26.9094 45.3471 27.3988 45.3471 27.9341C45.3471 28.4694 45.2171 28.9818 44.9648 29.3871C44.7124 29.7924 44.3454 30.1059 43.8636 30.3277C43.3819 30.5494 42.8083 30.6565 42.1277 30.6565V30.6718Z" fill="url(#paint8_linear_2578_56)"/>
<path d="M53.6747 29.28V29.7312C53.6747 30.3888 53.5906 30.9777 53.4147 31.5053C53.2388 32.033 52.9941 32.4765 52.6653 32.8436C52.3441 33.2106 51.9617 33.4936 51.5106 33.6847C51.0594 33.8759 50.57 33.9753 50.0194 33.9753C49.4688 33.9753 48.987 33.8759 48.5435 33.6847C48.1 33.4936 47.71 33.2106 47.3812 32.8436C47.0523 32.4765 46.8 32.033 46.6241 31.5053C46.4482 30.9853 46.3564 30.3888 46.3564 29.7312V29.28C46.3564 28.6224 46.4482 28.0259 46.6241 27.5059C46.8 26.9859 47.0523 26.5424 47.3735 26.1677C47.6947 25.8006 48.0847 25.5177 48.5282 25.3188C48.9794 25.1277 49.4688 25.0283 50.0041 25.0283C50.5394 25.0283 51.0441 25.1277 51.4953 25.3188C51.9388 25.5177 52.3288 25.793 52.65 26.1677C52.9712 26.5347 53.2235 26.9783 53.3994 27.5059C53.5753 28.0259 53.667 28.6224 53.667 29.28H53.6747ZM52.0153 29.7236V29.2647C52.0153 28.7906 51.9694 28.37 51.8853 28.0106C51.8012 27.6512 51.6711 27.3453 51.4953 27.1006C51.327 26.8559 51.1129 26.6647 50.8606 26.5424C50.6082 26.42 50.3253 26.3512 50.0117 26.3512C49.6982 26.3512 49.4076 26.4124 49.1629 26.5424C48.9182 26.6724 48.7117 26.8559 48.5359 27.1006C48.3676 27.3453 48.2376 27.6512 48.1459 28.0106C48.0541 28.37 48.0082 28.7906 48.0082 29.2647V29.7236C48.0082 30.19 48.0541 30.6106 48.1459 30.97C48.2376 31.3294 48.3676 31.6353 48.5435 31.8877C48.7194 32.14 48.9259 32.3236 49.1706 32.4536C49.4153 32.5836 49.6982 32.6447 50.0194 32.6447C50.3406 32.6447 50.6235 32.5836 50.8682 32.4536C51.1129 32.3236 51.3194 32.14 51.4953 31.8877C51.6635 31.6353 51.7935 31.3294 51.8776 30.97C51.9617 30.6106 52.0076 30.19 52.0076 29.7236H52.0153Z" fill="url(#paint9_linear_2578_56)"/>
<path d="M56.8177 25.1506V33.853H55.1736V25.1506H56.8177Z" fill="url(#paint10_linear_2578_56)"/>
<path d="M65.581 25.1506V33.853H63.9293L60.2281 27.8195V33.853H58.584V25.1506H60.2281L63.9369 31.1918V25.1506H65.5734H65.581Z" fill="url(#paint11_linear_2578_56)"/>
<path d="M73.5035 25.1506V26.4506H66.4988V25.1506H73.5035ZM70.8041 25.1506V33.853H69.1676V25.1506H70.8041Z" fill="url(#paint12_linear_2578_56)"/>
<path d="M74.5972 25.1506H75.9889L76.2413 31.1689V33.853H74.5972V25.1506ZM75.3083 25.1506H76.7307L79.1089 31.6965L81.4795 25.1506H82.9095L79.6748 33.853H78.5354L75.3083 25.1506ZM82.2289 25.1506H83.6283V33.853H81.9842V31.1689L82.2289 25.1506Z" fill="url(#paint13_linear_2578_56)"/>
<path d="M86.9393 25.1506V33.853H85.2952V25.1506H86.9393ZM91.0458 25.1506V26.4506H86.4422V25.1506H91.0458ZM90.4646 28.7371V29.9989H86.4422V28.7371H90.4646ZM91.061 32.553V33.8453H86.4346V32.553H91.061Z" fill="url(#paint14_linear_2578_56)"/>
<path d="M99.1899 25.1506V33.853H97.5382L93.837 27.8195V33.853H92.1929V25.1506H93.837L97.5458 31.1918V25.1506H99.1823H99.1899Z" fill="url(#paint15_linear_2578_56)"/>
<path d="M107.12 25.1506V26.4506H100.115V25.1506H107.12ZM104.421 25.1506V33.853H102.784V25.1506H104.421Z" fill="url(#paint16_linear_2578_56)"/>
<defs>
<linearGradient id="paint0_linear_2578_56" x1="22.0082" y1="22.153" x2="107.12" y2="22.153" gradientUnits="userSpaceOnUse">
<stop stop-color="#1691CF"/>
<stop offset="1" stop-color="#8FC64E"/>
</linearGradient>
<linearGradient id="paint1_linear_2578_56" x1="22.0083" y1="22.153" x2="107.12" y2="22.153" gradientUnits="userSpaceOnUse">
<stop stop-color="#1691CF"/>
<stop offset="1" stop-color="#8FC64E"/>
</linearGradient>
<linearGradient id="paint2_linear_2578_56" x1="22.0081" y1="22.153" x2="107.12" y2="22.153" gradientUnits="userSpaceOnUse">
<stop stop-color="#1691CF"/>
<stop offset="1" stop-color="#8FC64E"/>
</linearGradient>
<linearGradient id="paint3_linear_2578_56" x1="22.0081" y1="22.153" x2="107.12" y2="22.153" gradientUnits="userSpaceOnUse">
<stop stop-color="#1691CF"/>
<stop offset="1" stop-color="#8FC64E"/>
</linearGradient>
<linearGradient id="paint4_linear_2578_56" x1="22.0083" y1="22.153" x2="107.12" y2="22.153" gradientUnits="userSpaceOnUse">
<stop stop-color="#1691CF"/>
<stop offset="1" stop-color="#8FC64E"/>
</linearGradient>
<linearGradient id="paint5_linear_2578_56" x1="22.0083" y1="22.153" x2="107.12" y2="22.153" gradientUnits="userSpaceOnUse">
<stop stop-color="#1691CF"/>
<stop offset="1" stop-color="#8FC64E"/>
</linearGradient>
<linearGradient id="paint6_linear_2578_56" x1="22.0082" y1="22.1529" x2="107.12" y2="22.1529" gradientUnits="userSpaceOnUse">
<stop stop-color="#1691CF"/>
<stop offset="1" stop-color="#8FC64E"/>
</linearGradient>
<linearGradient id="paint7_linear_2578_56" x1="22.0083" y1="22.153" x2="107.12" y2="22.153" gradientUnits="userSpaceOnUse">
<stop stop-color="#1691CF"/>
<stop offset="1" stop-color="#8FC64E"/>
</linearGradient>
<linearGradient id="paint8_linear_2578_56" x1="22.0083" y1="22.153" x2="107.12" y2="22.153" gradientUnits="userSpaceOnUse">
<stop stop-color="#1691CF"/>
<stop offset="1" stop-color="#8FC64E"/>
</linearGradient>
<linearGradient id="paint9_linear_2578_56" x1="22.0082" y1="22.153" x2="107.12" y2="22.153" gradientUnits="userSpaceOnUse">
<stop stop-color="#1691CF"/>
<stop offset="1" stop-color="#8FC64E"/>
</linearGradient>
<linearGradient id="paint10_linear_2578_56" x1="22.0083" y1="22.153" x2="107.12" y2="22.153" gradientUnits="userSpaceOnUse">
<stop stop-color="#1691CF"/>
<stop offset="1" stop-color="#8FC64E"/>
</linearGradient>
<linearGradient id="paint11_linear_2578_56" x1="22.0081" y1="22.153" x2="107.12" y2="22.153" gradientUnits="userSpaceOnUse">
<stop stop-color="#1691CF"/>
<stop offset="1" stop-color="#8FC64E"/>
</linearGradient>
<linearGradient id="paint12_linear_2578_56" x1="22.0082" y1="22.153" x2="107.12" y2="22.153" gradientUnits="userSpaceOnUse">
<stop stop-color="#1691CF"/>
<stop offset="1" stop-color="#8FC64E"/>
</linearGradient>
<linearGradient id="paint13_linear_2578_56" x1="22.0083" y1="22.153" x2="107.12" y2="22.153" gradientUnits="userSpaceOnUse">
<stop stop-color="#1691CF"/>
<stop offset="1" stop-color="#8FC64E"/>
</linearGradient>
<linearGradient id="paint14_linear_2578_56" x1="22.0081" y1="22.153" x2="107.12" y2="22.153" gradientUnits="userSpaceOnUse">
<stop stop-color="#1691CF"/>
<stop offset="1" stop-color="#8FC64E"/>
</linearGradient>
<linearGradient id="paint15_linear_2578_56" x1="22.0081" y1="22.153" x2="107.12" y2="22.153" gradientUnits="userSpaceOnUse">
<stop stop-color="#1691CF"/>
<stop offset="1" stop-color="#8FC64E"/>
</linearGradient>
<linearGradient id="paint16_linear_2578_56" x1="22.0081" y1="22.153" x2="107.12" y2="22.153" gradientUnits="userSpaceOnUse">
<stop stop-color="#1691CF"/>
<stop offset="1" stop-color="#8FC64E"/>
</linearGradient>
</defs>
</svg>
