<svg width="68" height="68" viewBox="0 0 68 68" fill="none" xmlns="http://www.w3.org/2000/svg">
<path fill-rule="evenodd" clip-rule="evenodd" d="M37.8041 39.1383C38.7197 38.0371 40.2968 37.94 41.2654 39.3284C42.5443 41.1616 44.5862 43.7179 45.693 45.4109C46.9761 47.3736 45.4949 48.1025 44.8829 48.7038C44.3191 48.1393 43.5458 46.9617 43.0614 46.2749L37.8041 39.1383ZM43.7186 9.96001L45.3915 10.702C47.746 11.8466 49.9478 13.353 51.9047 15.1862C53.4599 16.6431 55.1822 18.8043 56.1996 20.5637C56.9591 21.8774 57.5637 23.0537 58.0997 24.4443L58.6419 26.0503C58.706 26.2347 58.7583 26.3204 58.8147 26.5131C60.2876 31.5485 60.2754 38.0602 58.0152 43.1565L57.206 44.9809C55.8103 48.1279 52.9996 51.4146 51.0116 53.0415C49.7946 54.0373 48.672 54.9363 47.3432 55.6881C44.4662 57.3158 42.6077 58.0769 39.2412 58.8002C37.7154 59.1281 36.3996 59.2059 34.8151 59.2853C32.2494 59.4139 27.9601 58.8644 24.8132 57.4686L22.9889 56.6594C18.642 54.7314 14.3471 50.479 12.247 46.734C9.79568 42.3629 8.51082 37.9775 8.69901 32.901C8.85113 28.7987 9.55656 26.3963 11.2704 22.5321C13.0176 18.5926 15.9775 15.4701 19.302 12.9599C19.6193 12.7204 19.9263 12.5324 20.2601 12.3062C22.9805 10.4621 26.0835 9.32003 29.2835 8.64186C34.1526 7.60999 39.1679 8.12983 43.7189 9.95991L43.7186 9.96001ZM44.4137 48.9333C44.0361 49.4086 42.601 50.2811 42.1054 50.5351C41.3818 50.9061 40.5099 51.1423 39.4982 51.2237C33.5609 51.7009 27.4298 45.2125 24.5471 41.1607C23.2483 39.3353 21.3576 35.9357 20.7423 33.9311C20.4756 33.062 20.2318 32.2937 20.033 31.3279C18.4146 23.4658 22.9597 21.9073 23.8665 20.8602C24.1697 21.1129 30.6881 30.0053 30.9021 30.4757C29.8745 31.6148 28.1838 31.6268 28.6424 33.9099C29.1377 36.3763 31.2659 39.5008 33.6108 40.5921C35.3673 41.4095 36.2158 40.1761 37.4197 39.3614L44.4137 48.9334L44.4137 48.9333ZM39.7173 34.0843C39.712 33.4078 39.7721 32.9575 39.6339 32.3172C39.5521 31.9383 39.1471 31.3004 38.7545 30.9187C38.0292 30.2135 37.8045 30.3357 36.9734 29.9985C36.3438 29.743 36.424 28.9213 37.5307 29.2372C39.0373 29.6671 39.776 30.5941 40.2578 31.6223C40.4261 31.9816 41.2548 35.0958 39.7172 34.0842L39.7173 34.0843ZM24.3817 20.5968C25.2122 19.5757 26.7813 19.4805 27.7456 20.7927L32.1894 26.8709C33.0223 27.9958 32.8708 29.447 31.3254 30.1782L24.3817 20.5969L24.3817 20.5968ZM37.2863 25.0625C37.4684 24.1604 38.0798 24.4686 38.9596 24.7255C41.0207 25.3274 42.7314 26.6443 43.8548 28.3463C44.5916 29.4626 44.8722 30.3089 45.1813 31.5423C45.3635 32.2691 45.6252 34.4896 44.9163 35.0758L44.4112 34.8413C44.2867 33.7156 45.0091 31.6319 43.1993 28.9048C40.9851 25.5684 37.9843 25.6858 37.2863 25.0625ZM38.2322 19.8323C39.5407 19.5805 42.9587 21.1849 44.2287 22.0824C47.994 24.743 50.1035 28.8686 50.089 33.432C50.085 34.6634 50.1334 36.1226 49.1077 35.5994C48.9659 35.0781 49.4846 33.3004 48.9083 30.5605C47.8882 25.7114 43.8679 21.6462 38.9481 20.7569C38.2609 20.6326 37.8411 20.5558 38.2322 19.8323Z" fill="#008FD5"/>
</svg>
