<svg width="73" height="77" viewBox="0 0 73 77" fill="none" xmlns="http://www.w3.org/2000/svg">
<path d="M36.5 1.5C55.7556 1.5 71.5 17.9891 71.5 38.5C71.5 59.0109 55.7556 75.5 36.5 75.5C17.2444 75.5 1.5 59.0109 1.5 38.5C1.5 17.9891 17.2444 1.5 36.5 1.5Z" stroke="url(#paint0_linear_1330_649)" stroke-width="3"/>
<path d="M44.7017 28.4452C46.4085 28.8565 46.4454 31.9884 45.5809 33.1805C45.1943 33.7141 44.2743 34.0466 44.1943 34.1649C44.1056 34.295 43.7953 35.7065 43.6635 36.0627C43.2682 37.1338 42.6143 38.247 41.8877 39.096C41.73 39.2813 41.3261 39.4679 41.2399 39.6848C41.0527 40.1527 41.6044 42.6195 42.0465 42.8614L46.39 44.311C46.5834 44.47 46.6117 44.9576 46.6511 44.9944C46.7114 45.0509 47.4146 44.9865 47.6092 45.0076C52.2507 45.5109 55.1915 49.3788 55.4194 54.218C55.5142 56.238 55.5905 59.4527 55.4194 61.4215C55.3824 61.8381 55.2901 62.3125 54.8196 62.3585C42.7941 62.3546 30.8141 62.3533 18.7885 62.3585C18.2577 62.3796 18.1395 61.8893 18.0976 61.4201C17.924 59.4409 17.9967 56.1486 18.0976 54.1181C18.3403 49.2487 21.3759 45.4965 26.0002 45.0063C26.1689 44.9879 26.8462 45.0391 26.8757 45.0063C26.9398 44.9327 26.7046 44.4806 27.3363 44.1664L31.5628 42.8114C31.8325 42.5814 32.3842 39.9214 32.2131 39.6046C31.0764 38.7306 30.2168 37.281 29.7377 35.8892C29.6072 35.5094 29.4052 34.4277 29.2698 34.2201C29.1663 34.0597 28.3535 33.7548 28.0284 33.3763C26.9743 32.1501 27.0321 29.4243 28.4447 28.4951C27.6873 27.2729 27.159 25.6997 26.9792 24.2448C26.5913 21.0971 27.9176 17.9494 30.92 17.0387C31.4286 16.8849 32.2525 16.8652 32.6244 16.6891C32.9359 16.5419 33.596 15.773 34.0788 15.4813C37.5787 13.3653 43.283 15.4734 45.0452 19.2571C46.4085 22.184 45.7792 25.5393 44.7029 28.4439L44.7017 28.4452ZM43.9615 26.4751C45.0699 22.4705 44.5896 18.7919 40.7633 16.9283C38.7732 15.9596 36.2536 15.501 34.3657 16.9729C34.0184 17.2437 33.4827 18.0099 33.2253 18.1216C32.8214 18.2964 31.9828 18.1808 31.4003 18.3424C27.9508 19.2939 27.7452 23.61 28.9102 26.575L29.3461 24.6272C29.7636 23.2893 31.0284 21.1326 32.2734 20.557C32.9766 20.2323 33.5209 21.0932 34.0899 21.4914C35.3386 22.3641 37.1514 23.0094 38.6501 23.033C39.2141 23.0422 39.7079 22.8661 40.3052 22.9397C41.4406 23.079 42.7005 24.0621 43.2633 25.1056L43.9628 26.4764L43.9615 26.4751ZM41.714 25.2279C40.5035 23.9543 39.3877 24.5195 37.9149 24.4038C36.0036 24.2527 34.0467 23.3011 32.5554 22.0565C31.0419 23.3301 30.2882 25.3764 30.1971 27.4069C30.1774 27.8485 30.335 28.8618 30.2537 29.1404C30.0395 29.8764 29.2365 29.4322 28.8646 30.0276C28.537 30.552 28.5851 31.9792 29.0075 32.4314C29.4299 32.8835 30.0776 32.66 30.388 33.1266C30.7069 34.4133 30.9249 35.629 31.5714 36.7921C33.8583 40.9057 39.5515 40.8939 41.8778 36.8171C42.5293 35.675 42.7571 34.4212 43.0502 33.1397C43.2546 32.7612 43.7004 32.844 44.0293 32.706C44.7952 32.3867 44.8617 31.5324 44.7977 30.7583C44.6585 29.0655 43.5256 30.0906 43.1413 29.3717C42.9886 29.0865 42.9886 28.2572 42.9037 27.8511C42.7251 26.9942 42.3039 25.8495 41.7128 25.2279H41.714ZM39.8976 40.5706C37.8496 41.53 35.5775 41.4945 33.5271 40.5706C33.4519 41.7022 32.9926 42.7234 32.6859 43.7735L33.25 48.0606C35.5479 48.3327 37.8742 48.3379 40.1722 48.058L40.7375 43.7722C40.4333 42.7076 40.0392 41.6838 39.8976 40.5706ZM33.3399 58.2146L31.3572 44.3202L28.4471 45.3506L30.1047 48.9083C30.3449 49.4551 28.9878 50.4881 29.0112 50.7549L33.3386 58.2133L33.3399 58.2146ZM40.1747 58.2133L44.4258 50.7706C44.2189 50.1897 43.2559 49.6351 43.3174 49.0082C43.4037 48.1171 44.6721 46.2877 44.9775 45.3506L42.0687 44.3176L40.1759 58.2133H40.1747ZM19.4868 53.1389V60.9746H33.3411L27.5445 50.9454C27.1676 50.2081 28.6195 49.3433 28.6282 48.9031C28.6368 48.5009 27.5986 46.9435 27.5063 46.4033C27.3622 46.3074 25.9792 46.4217 25.7415 46.5085C24.6849 46.8962 23.8623 50.2029 24.0113 51.3147C25.5962 50.977 27.4213 52.3872 27.9607 53.9498C28.2144 54.6819 28.654 56.9293 27.4866 56.9267C26.8487 56.9254 25.7452 56.6217 26.2452 55.7202C26.5088 55.2444 26.9989 55.6926 26.8314 54.8593C26.1689 51.5802 21.669 52.1966 22.0815 55.7885C22.0975 55.9239 22.3106 56.7046 22.3512 56.7361C22.414 56.786 23.4891 56.2025 23.5482 57.2855C23.5803 57.8703 22.4411 58.3553 22.0347 58.3132C21.27 58.233 20.706 56.1854 20.685 55.4994C20.6542 54.4939 21.1641 53.0995 21.8365 52.3938C22.0237 52.1979 22.6443 51.8378 22.701 51.6407C22.8007 51.295 22.6825 50.5998 22.7195 50.1818C22.8094 49.1738 23.1222 48.2078 23.4559 47.2734C21.4325 48.1552 19.7035 50.8337 19.4843 53.1376L19.4868 53.1389ZM40.0835 60.9746H54.0302V53.1389C54.0302 52.7473 53.6509 51.5618 53.4933 51.1491C52.7298 49.1659 51.1522 47.5231 49.2286 46.8804C49.885 48.3051 50.2163 49.9137 50.2569 51.4987C52.5906 52.1204 52.8923 55.6413 50.6621 56.6402C48.5538 57.5851 46.4627 55.4179 47.2718 53.1205C47.5563 52.3123 48.2521 51.8155 48.9429 51.4488C48.8579 50.2121 48.3974 47.3351 47.4688 46.54C47.2508 46.3534 46.2041 46.2995 45.9947 46.4349C45.7755 46.5768 45.0674 48.5627 44.81 48.9188C44.778 49.2895 46.4233 50.3461 45.8568 51.019L40.0848 60.9759L40.0835 60.9746ZM39.8988 49.5405H33.5246L35.096 60.9746L38.3237 60.9707L39.8988 49.5418V49.5405ZM49.2003 52.9129C47.906 53.227 48.3321 55.7754 49.8986 55.4323C51.353 55.113 51.1645 52.4371 49.2003 52.9129Z" fill="url(#paint1_linear_1330_649)"/>
<defs>
<linearGradient id="paint0_linear_1330_649" x1="36.5" y1="0" x2="36.5" y2="77" gradientUnits="userSpaceOnUse">
<stop stop-color="#018FD5"/>
<stop offset="1" stop-color="#0F9DCC"/>
</linearGradient>
<linearGradient id="paint1_linear_1330_649" x1="36.757" y1="14.6409" x2="36.757" y2="62.3592" gradientUnits="userSpaceOnUse">
<stop stop-color="#018FD5"/>
<stop offset="1" stop-color="#0F9DCC"/>
</linearGradient>
</defs>
</svg>
