<svg width="21" height="21" viewBox="0 0 21 21" fill="none" xmlns="http://www.w3.org/2000/svg">
<path d="M10.0469 0.25C15.4572 0.250227 19.8428 4.63648 19.8428 10.0469C19.8425 15.4571 15.4571 19.8425 10.0469 19.8428C4.63648 19.8428 0.250228 15.4572 0.25 10.0469C0.25 4.63634 4.63634 0.25 10.0469 0.25Z" stroke="white" stroke-width="0.5"/>
<path d="M13.0234 9.26675L12.856 10.6108C12.8277 10.8353 12.6376 11.0042 12.412 11.0042H10.2352V16.6236C10.0056 16.6443 9.773 16.6549 9.53787 16.6549C9.01198 16.6549 8.49873 16.6024 8.00268 16.5022V11.0042H6.32844C6.17472 11.0042 6.04932 10.8783 6.04932 10.7241V9.04224C6.04932 8.88801 6.17472 8.7621 6.32844 8.7621H8.00268V6.23987C8.00268 4.69204 9.25217 3.4375 10.7939 3.4375H12.7473C12.901 3.4375 13.0264 3.56341 13.0264 3.71763V5.39946C13.0264 5.55369 12.901 5.6796 12.7473 5.6796H11.3517C10.7353 5.6796 10.2357 6.18121 10.2357 6.80064V8.76261H12.5799C12.8489 8.76261 13.0568 8.99926 13.0239 9.26726L13.0234 9.26675Z" fill="white"/>
</svg>
