<svg width="74" height="77" viewBox="0 0 74 77" fill="none" xmlns="http://www.w3.org/2000/svg">
<path d="M37 1.5C56.5505 1.5 72.5 18.0087 72.5 38.5C72.5 58.9913 56.5505 75.5 37 75.5C17.4495 75.5 1.5 58.9913 1.5 38.5C1.5 18.0087 17.4495 1.5 37 1.5Z" stroke="url(#paint0_linear_1330_653)" stroke-width="3"/>
<path d="M34.775 41.4453H40.0257V37.8028H43.5264V32.339H40.0257V28.6967H34.775V32.3392H31.2744V37.8028H34.775V41.4453ZM33.0247 35.9815V34.1602H36.5253V30.5179H38.2757V34.1605H41.7761V35.9815H38.2754V39.624H36.5251V35.9815H33.0247Z" fill="url(#paint1_linear_1330_653)"/>
<path d="M23.3982 43.2664H17.2722V45.0876H23.3982V43.2664Z" fill="url(#paint2_linear_1330_653)"/>
<path d="M23.3982 46.9089H17.2722V48.7302H23.3982V46.9089Z" fill="url(#paint3_linear_1330_653)"/>
<path d="M23.3982 50.5513H17.2722V52.3725H23.3982V50.5513Z" fill="url(#paint4_linear_1330_653)"/>
<path d="M56.6533 43.2664H50.5273V45.0876H56.6533V43.2664Z" fill="url(#paint5_linear_1330_653)"/>
<path d="M56.6533 46.9089H50.5273V48.7302H56.6533V46.9089Z" fill="url(#paint6_linear_1330_653)"/>
<path d="M56.6533 50.5513H50.5273V52.3725H56.6533V50.5513Z" fill="url(#paint7_linear_1330_653)"/>
<path d="M60.1538 56.9258V39.6241H48.7771V19.5906H53.1528V17.7693H48.7771H25.1485H20.7728V19.5906H25.1485V39.6241H13.7718V56.9258H12.0962V58.747H13.7718H25.1485H26.8988H32.1495H41.7759H47.0266H48.7769H60.1536H61.9039V56.9258H60.1538ZM25.1485 56.9255H15.5221V41.4451H25.1485V56.9255ZM40.0258 56.9255H33.8998V49.6407H40.0258V56.9255ZM47.0268 39.6241V56.9258H41.7761V56.9255V47.8194H32.1495V56.9255H26.8988V39.6241V19.5906H47.0268V39.6241ZM58.4035 56.9255H48.7771V41.4451H58.4035V56.9255Z" fill="url(#paint8_linear_1330_653)"/>
<defs>
<linearGradient id="paint0_linear_1330_653" x1="37" y1="0" x2="37" y2="77" gradientUnits="userSpaceOnUse">
<stop stop-color="#018FD5"/>
<stop offset="1" stop-color="#0F9DCC"/>
</linearGradient>
<linearGradient id="paint1_linear_1330_653" x1="37.4004" y1="28.6967" x2="37.4004" y2="41.4453" gradientUnits="userSpaceOnUse">
<stop stop-color="#018FD5"/>
<stop offset="1" stop-color="#0F9DCC"/>
</linearGradient>
<linearGradient id="paint2_linear_1330_653" x1="20.3352" y1="43.2664" x2="20.3352" y2="45.0876" gradientUnits="userSpaceOnUse">
<stop stop-color="#018FD5"/>
<stop offset="1" stop-color="#0F9DCC"/>
</linearGradient>
<linearGradient id="paint3_linear_1330_653" x1="20.3352" y1="46.9089" x2="20.3352" y2="48.7302" gradientUnits="userSpaceOnUse">
<stop stop-color="#018FD5"/>
<stop offset="1" stop-color="#0F9DCC"/>
</linearGradient>
<linearGradient id="paint4_linear_1330_653" x1="20.3352" y1="50.5513" x2="20.3352" y2="52.3725" gradientUnits="userSpaceOnUse">
<stop stop-color="#018FD5"/>
<stop offset="1" stop-color="#0F9DCC"/>
</linearGradient>
<linearGradient id="paint5_linear_1330_653" x1="53.5903" y1="43.2664" x2="53.5903" y2="45.0876" gradientUnits="userSpaceOnUse">
<stop stop-color="#018FD5"/>
<stop offset="1" stop-color="#0F9DCC"/>
</linearGradient>
<linearGradient id="paint6_linear_1330_653" x1="53.5903" y1="46.9089" x2="53.5903" y2="48.7302" gradientUnits="userSpaceOnUse">
<stop stop-color="#018FD5"/>
<stop offset="1" stop-color="#0F9DCC"/>
</linearGradient>
<linearGradient id="paint7_linear_1330_653" x1="53.5903" y1="50.5513" x2="53.5903" y2="52.3725" gradientUnits="userSpaceOnUse">
<stop stop-color="#018FD5"/>
<stop offset="1" stop-color="#0F9DCC"/>
</linearGradient>
<linearGradient id="paint8_linear_1330_653" x1="37" y1="17.7693" x2="37" y2="58.747" gradientUnits="userSpaceOnUse">
<stop stop-color="#018FD5"/>
<stop offset="1" stop-color="#0F9DCC"/>
</linearGradient>
</defs>
</svg>
