<svg width="131" height="122" viewBox="0 0 131 122" fill="none" xmlns="http://www.w3.org/2000/svg">
<path d="M120.127 0.74115H10.873C5.76603 0.74115 1.62598 4.8496 1.62598 9.91762V112.075C1.62598 117.143 5.76603 121.251 10.873 121.251H120.127C125.234 121.251 129.374 117.143 129.374 112.075V9.91762C129.374 4.8496 125.234 0.74115 120.127 0.74115Z" fill="white" stroke="#1691CF" stroke-width="1.5" stroke-miterlimit="10"/>
<path d="M46.2969 10.4683V19.1707H44.6401V10.4683H46.2969ZM50.4581 14.0548V15.3471H45.85V14.0548H50.4581ZM51.691 10.4683V19.1707H50.0343V10.4683H51.691Z" fill="#1691CF"/>
<path d="M55.0276 10.4683V19.1707H53.3708V10.4683H55.0276ZM59.1657 10.4683V11.7683H54.5267V10.4683H59.1657ZM58.5723 14.0548V15.3166H54.519V14.0548H58.5723ZM59.1811 17.8707V19.163H54.519V17.8707H59.1811Z" fill="#1691CF"/>
<path d="M63.8123 11.7835L61.3156 19.1629H59.5664L62.8414 10.4606H63.9588L63.8123 11.7835ZM65.7851 15.9282V17.2282H61.0845V15.9282H65.7851ZM65.9006 19.1629L63.3885 11.7835L63.2344 10.4606H64.3595L67.6499 19.1629H65.8929H65.9006Z" fill="#1691CF"/>
<path d="M70.216 10.4683V19.1707H68.5592V10.4683H70.216ZM74.1229 17.8707V19.163H69.7151V17.8707H74.1229Z" fill="#1691CF"/>
<path d="M80.2721 10.4683V11.7683H73.2135V10.4683H80.2721ZM77.5519 10.4683V19.1707H75.9029V10.4683H77.5519Z" fill="#1691CF"/>
<path d="M83.0231 10.4683V19.1707H81.3663V10.4683H83.0231ZM87.1843 14.0548V15.3471H82.5762V14.0548H87.1843ZM88.4095 10.4683V19.1707H86.7527V10.4683H88.4095Z" fill="#1691CF"/>
<path d="M44.6864 30.9853H46.3431C46.2969 31.5665 46.1351 32.0788 45.8577 32.53C45.5725 32.9812 45.1873 33.3329 44.6864 33.5853C44.1855 33.8376 43.5767 33.9676 42.8601 33.9676C42.313 33.9676 41.8121 33.8682 41.3728 33.677C40.9336 33.4859 40.556 33.2106 40.2478 32.8435C39.9395 32.4841 39.7007 32.0482 39.5311 31.5435C39.3693 31.0388 39.2845 30.4653 39.2845 29.8306V29.1653C39.2845 28.5306 39.3693 27.957 39.5388 27.4523C39.7084 26.94 39.9473 26.5041 40.2632 26.1447C40.5791 25.7853 40.9567 25.51 41.4037 25.3112C41.8506 25.12 42.3438 25.0206 42.8909 25.0206C43.6075 25.0206 44.2086 25.1506 44.7018 25.4106C45.195 25.6706 45.5803 26.03 45.85 26.4812C46.1197 26.9323 46.2892 27.46 46.3431 28.0488H44.6864C44.6555 27.6817 44.5785 27.3682 44.4475 27.1159C44.3242 26.8635 44.1315 26.6647 43.885 26.5347C43.6307 26.4047 43.2993 26.3359 42.8909 26.3359C42.5673 26.3359 42.2898 26.397 42.0433 26.5117C41.7967 26.6341 41.5963 26.81 41.4345 27.047C41.2727 27.2841 41.1494 27.5823 41.0723 27.9341C40.9953 28.2859 40.949 28.6912 40.949 29.1576V29.8306C40.949 30.2741 40.9875 30.6717 41.0569 31.0159C41.1263 31.3676 41.2418 31.6659 41.396 31.9029C41.5501 32.1476 41.7427 32.3312 41.9893 32.4612C42.2282 32.5912 42.5133 32.6523 42.8524 32.6523C43.2608 32.6523 43.5844 32.5912 43.8464 32.4612C44.1007 32.3312 44.2934 32.1476 44.4321 31.9029C44.5631 31.6582 44.6555 31.3523 44.6864 30.9853Z" fill="#1691CF"/>
<path d="M49.2714 25.1506V33.8529H47.6146V25.1506H49.2714ZM53.4326 28.737V30.0294H48.8244V28.737H53.4326ZM54.6655 25.1506V33.8529H53.0087V25.1506H54.6655Z" fill="#1691CF"/>
<path d="M58.0021 25.1506V33.8529H56.3453V25.1506H58.0021ZM62.1402 25.1506V26.4506H57.5012V25.1506H62.1402ZM61.5468 28.737V29.9988H57.4935V28.737H61.5468ZM62.1556 32.5529V33.8453H57.4935V32.5529H62.1556Z" fill="#1691CF"/>
<path d="M68.4282 30.9853H70.085C70.0387 31.5665 69.8769 32.0788 69.5995 32.53C69.3221 32.9812 68.9291 33.3329 68.4282 33.5853C67.9273 33.8376 67.3185 33.9676 66.6019 33.9676C66.0548 33.9676 65.5539 33.8682 65.1147 33.677C64.6754 33.4859 64.2978 33.2106 63.9896 32.8435C63.6814 32.4841 63.4425 32.0482 63.273 31.5435C63.1111 31.0388 63.0264 30.4653 63.0264 29.8306V29.1653C63.0264 28.5306 63.1111 27.957 63.2807 27.4523C63.4502 26.94 63.6891 26.5041 64.005 26.1447C64.321 25.7853 64.6985 25.51 65.1455 25.3112C65.5924 25.12 66.0856 25.0206 66.6327 25.0206C67.3494 25.0206 67.9504 25.1506 68.4436 25.4106C68.9368 25.6706 69.3221 26.03 69.5918 26.4812C69.8615 26.9323 70.031 27.46 70.085 28.0488H68.4282C68.3974 27.6817 68.3203 27.3682 68.1893 27.1159C68.066 26.8635 67.8734 26.6647 67.6268 26.5347C67.3725 26.4047 67.0411 26.3359 66.6327 26.3359C66.3091 26.3359 66.0317 26.397 65.7851 26.5117C65.5385 26.6341 65.3381 26.81 65.1763 27.047C65.0145 27.2841 64.8912 27.5823 64.8141 27.9341C64.7371 28.2859 64.6908 28.6912 64.6908 29.1576V29.8306C64.6908 30.2741 64.7294 30.6717 64.7987 31.0159C64.8681 31.3676 64.9837 31.6659 65.1378 31.9029C65.2919 32.1476 65.4845 32.3312 65.7311 32.4612C65.97 32.5912 66.2551 32.6523 66.5942 32.6523C67.0026 32.6523 67.3262 32.5912 67.5882 32.4612C67.8425 32.3312 68.0352 32.1476 68.1739 31.9029C68.3049 31.6582 68.3974 31.3523 68.4282 30.9853Z" fill="#1691CF"/>
<path d="M73.0209 25.1506V33.8529H71.3641V25.1506H73.0209ZM78.2763 25.1506L74.7624 29.3947L72.7512 31.5282L72.4584 29.93L73.8531 28.1329L76.2497 25.1506H78.2763ZM76.4346 33.8453L73.7067 29.7694L74.8934 28.7065L78.3996 33.8453H76.4346Z" fill="#1691CF"/>
<path d="M84.0557 25.1506H85.7125V30.9241C85.7125 31.5894 85.5661 32.1476 85.281 32.5988C84.9882 33.05 84.5952 33.3941 84.102 33.6235C83.6088 33.8529 83.0386 33.9676 82.4067 33.9676C81.7748 33.9676 81.1892 33.8529 80.6883 33.6235C80.1874 33.3941 79.7944 33.0576 79.5093 32.5988C79.2242 32.1476 79.0854 31.5894 79.0854 30.9241V25.1506H80.7422V30.9241C80.7422 31.3294 80.8116 31.6582 80.9503 31.9182C81.089 32.1782 81.2816 32.3618 81.5282 32.4918C81.7748 32.6141 82.0753 32.6753 82.4144 32.6753C82.7534 32.6753 83.054 32.6141 83.3006 32.4918C83.5472 32.3694 83.7398 32.1782 83.8708 31.9182C84.0018 31.6582 84.0712 31.3294 84.0712 30.9241V25.1506H84.0557Z" fill="#1691CF"/>
<path d="M90.6442 30.6717H88.3864V29.3794H90.6442C91.0141 29.3794 91.3146 29.3182 91.5458 29.1958C91.777 29.0735 91.9465 28.9053 92.0544 28.6911C92.1623 28.477 92.2162 28.2323 92.2162 27.957C92.2162 27.6817 92.1623 27.4447 92.0544 27.2076C91.9465 26.9782 91.777 26.787 91.5458 26.6494C91.3146 26.5117 91.0141 26.4353 90.6442 26.4353H88.9258V33.8376H87.269V25.1353H90.6442C91.33 25.1353 91.908 25.2576 92.3935 25.4947C92.8789 25.7394 93.2488 26.0682 93.5031 26.4888C93.7574 26.9094 93.8884 27.3988 93.8884 27.9341C93.8884 28.4694 93.7574 28.9817 93.5031 29.387C93.2488 29.7923 92.8789 30.1058 92.3935 30.3276C91.908 30.5494 91.33 30.6564 90.6442 30.6564V30.6717Z" fill="#1691CF"/>
<path d="M46.2969 10.4683V19.1707H44.6401V10.4683H46.2969ZM50.4581 14.0548V15.3471H45.85V14.0548H50.4581ZM51.691 10.4683V19.1707H50.0343V10.4683H51.691Z" fill="url(#paint0_linear_2578_58)"/>
<path d="M55.0276 10.4683V19.1707H53.3708V10.4683H55.0276ZM59.1657 10.4683V11.7683H54.5267V10.4683H59.1657ZM58.5723 14.0548V15.3166H54.519V14.0548H58.5723ZM59.1811 17.8707V19.163H54.519V17.8707H59.1811Z" fill="url(#paint1_linear_2578_58)"/>
<path d="M63.8123 11.7835L61.3156 19.1629H59.5664L62.8414 10.4606H63.9588L63.8123 11.7835ZM65.7851 15.9282V17.2282H61.0845V15.9282H65.7851ZM65.9006 19.1629L63.3885 11.7835L63.2344 10.4606H64.3595L67.6499 19.1629H65.8929H65.9006Z" fill="url(#paint2_linear_2578_58)"/>
<path d="M70.216 10.4683V19.1707H68.5592V10.4683H70.216ZM74.1229 17.8707V19.163H69.7151V17.8707H74.1229Z" fill="url(#paint3_linear_2578_58)"/>
<path d="M80.2721 10.4683V11.7683H73.2135V10.4683H80.2721ZM77.5519 10.4683V19.1707H75.9029V10.4683H77.5519Z" fill="url(#paint4_linear_2578_58)"/>
<path d="M83.0231 10.4683V19.1707H81.3663V10.4683H83.0231ZM87.1843 14.0548V15.3471H82.5762V14.0548H87.1843ZM88.4095 10.4683V19.1707H86.7527V10.4683H88.4095Z" fill="url(#paint5_linear_2578_58)"/>
<path d="M44.6864 30.9853H46.3431C46.2969 31.5665 46.1351 32.0788 45.8577 32.53C45.5725 32.9812 45.1873 33.3329 44.6864 33.5853C44.1855 33.8376 43.5767 33.9676 42.8601 33.9676C42.313 33.9676 41.8121 33.8682 41.3728 33.677C40.9336 33.4859 40.556 33.2106 40.2478 32.8435C39.9395 32.4841 39.7007 32.0482 39.5311 31.5435C39.3693 31.0388 39.2845 30.4653 39.2845 29.8306V29.1653C39.2845 28.5306 39.3693 27.957 39.5388 27.4523C39.7084 26.94 39.9473 26.5041 40.2632 26.1447C40.5791 25.7853 40.9567 25.51 41.4037 25.3112C41.8506 25.12 42.3438 25.0206 42.8909 25.0206C43.6075 25.0206 44.2086 25.1506 44.7018 25.4106C45.195 25.6706 45.5803 26.03 45.85 26.4812C46.1197 26.9323 46.2892 27.46 46.3431 28.0488H44.6864C44.6555 27.6817 44.5785 27.3682 44.4475 27.1159C44.3242 26.8635 44.1315 26.6647 43.885 26.5347C43.6307 26.4047 43.2993 26.3359 42.8909 26.3359C42.5673 26.3359 42.2898 26.397 42.0433 26.5117C41.7967 26.6341 41.5963 26.81 41.4345 27.047C41.2727 27.2841 41.1494 27.5823 41.0723 27.9341C40.9953 28.2859 40.949 28.6912 40.949 29.1576V29.8306C40.949 30.2741 40.9875 30.6717 41.0569 31.0159C41.1263 31.3676 41.2418 31.6659 41.396 31.9029C41.5501 32.1476 41.7427 32.3312 41.9893 32.4612C42.2282 32.5912 42.5133 32.6523 42.8524 32.6523C43.2608 32.6523 43.5844 32.5912 43.8464 32.4612C44.1007 32.3312 44.2934 32.1476 44.4321 31.9029C44.5631 31.6582 44.6555 31.3523 44.6864 30.9853Z" fill="url(#paint6_linear_2578_58)"/>
<path d="M49.2714 25.1506V33.8529H47.6146V25.1506H49.2714ZM53.4326 28.737V30.0294H48.8244V28.737H53.4326ZM54.6655 25.1506V33.8529H53.0087V25.1506H54.6655Z" fill="url(#paint7_linear_2578_58)"/>
<path d="M58.0021 25.1506V33.8529H56.3453V25.1506H58.0021ZM62.1402 25.1506V26.4506H57.5012V25.1506H62.1402ZM61.5468 28.737V29.9988H57.4935V28.737H61.5468ZM62.1556 32.5529V33.8453H57.4935V32.5529H62.1556Z" fill="url(#paint8_linear_2578_58)"/>
<path d="M68.4282 30.9853H70.085C70.0387 31.5665 69.8769 32.0788 69.5995 32.53C69.3221 32.9812 68.9291 33.3329 68.4282 33.5853C67.9273 33.8376 67.3185 33.9676 66.6019 33.9676C66.0548 33.9676 65.5539 33.8682 65.1147 33.677C64.6754 33.4859 64.2978 33.2106 63.9896 32.8435C63.6814 32.4841 63.4425 32.0482 63.273 31.5435C63.1111 31.0388 63.0264 30.4653 63.0264 29.8306V29.1653C63.0264 28.5306 63.1111 27.957 63.2807 27.4523C63.4502 26.94 63.6891 26.5041 64.005 26.1447C64.321 25.7853 64.6985 25.51 65.1455 25.3112C65.5924 25.12 66.0856 25.0206 66.6327 25.0206C67.3494 25.0206 67.9504 25.1506 68.4436 25.4106C68.9368 25.6706 69.3221 26.03 69.5918 26.4812C69.8615 26.9323 70.031 27.46 70.085 28.0488H68.4282C68.3974 27.6817 68.3203 27.3682 68.1893 27.1159C68.066 26.8635 67.8734 26.6647 67.6268 26.5347C67.3725 26.4047 67.0411 26.3359 66.6327 26.3359C66.3091 26.3359 66.0317 26.397 65.7851 26.5117C65.5385 26.6341 65.3381 26.81 65.1763 27.047C65.0145 27.2841 64.8912 27.5823 64.8141 27.9341C64.7371 28.2859 64.6908 28.6912 64.6908 29.1576V29.8306C64.6908 30.2741 64.7294 30.6717 64.7987 31.0159C64.8681 31.3676 64.9837 31.6659 65.1378 31.9029C65.2919 32.1476 65.4845 32.3312 65.7311 32.4612C65.97 32.5912 66.2551 32.6523 66.5942 32.6523C67.0026 32.6523 67.3262 32.5912 67.5882 32.4612C67.8425 32.3312 68.0352 32.1476 68.1739 31.9029C68.3049 31.6582 68.3974 31.3523 68.4282 30.9853Z" fill="url(#paint9_linear_2578_58)"/>
<path d="M73.0209 25.1506V33.8529H71.3641V25.1506H73.0209ZM78.2763 25.1506L74.7624 29.3947L72.7512 31.5282L72.4584 29.93L73.8531 28.1329L76.2497 25.1506H78.2763ZM76.4346 33.8453L73.7067 29.7694L74.8934 28.7065L78.3996 33.8453H76.4346Z" fill="url(#paint10_linear_2578_58)"/>
<path d="M84.0557 25.1506H85.7125V30.9241C85.7125 31.5894 85.5661 32.1476 85.281 32.5988C84.9882 33.05 84.5952 33.3941 84.102 33.6235C83.6088 33.8529 83.0386 33.9676 82.4067 33.9676C81.7748 33.9676 81.1892 33.8529 80.6883 33.6235C80.1874 33.3941 79.7944 33.0576 79.5093 32.5988C79.2242 32.1476 79.0854 31.5894 79.0854 30.9241V25.1506H80.7422V30.9241C80.7422 31.3294 80.8116 31.6582 80.9503 31.9182C81.089 32.1782 81.2816 32.3618 81.5282 32.4918C81.7748 32.6141 82.0753 32.6753 82.4144 32.6753C82.7534 32.6753 83.054 32.6141 83.3006 32.4918C83.5472 32.3694 83.7398 32.1782 83.8708 31.9182C84.0018 31.6582 84.0712 31.3294 84.0712 30.9241V25.1506H84.0557Z" fill="url(#paint11_linear_2578_58)"/>
<path d="M90.6442 30.6717H88.3864V29.3794H90.6442C91.0141 29.3794 91.3146 29.3182 91.5458 29.1958C91.777 29.0735 91.9465 28.9053 92.0544 28.6911C92.1623 28.477 92.2162 28.2323 92.2162 27.957C92.2162 27.6817 92.1623 27.4447 92.0544 27.2076C91.9465 26.9782 91.777 26.787 91.5458 26.6494C91.3146 26.5117 91.0141 26.4353 90.6442 26.4353H88.9258V33.8376H87.269V25.1353H90.6442C91.33 25.1353 91.908 25.2576 92.3935 25.4947C92.8789 25.7394 93.2488 26.0682 93.5031 26.4888C93.7574 26.9094 93.8884 27.3988 93.8884 27.9341C93.8884 28.4694 93.7574 28.9817 93.5031 29.387C93.2488 29.7923 92.8789 30.1058 92.3935 30.3276C91.908 30.5494 91.33 30.6564 90.6442 30.6564V30.6717Z" fill="url(#paint12_linear_2578_58)"/>
<path d="M54.4498 101.575H24.4816C23.3719 101.575 22.4935 100.681 22.5089 99.587L22.7246 87.78C22.7477 86.6788 23.657 85.7917 24.7667 85.7917H54.7426C55.8522 85.7917 56.7307 86.6865 56.7153 87.78L56.4995 99.587C56.4764 100.688 55.5671 101.575 54.4575 101.575H54.4498Z" fill="#628CD2"/>
<path d="M29.737 88.56C29.2823 88.1318 28.6581 87.8871 27.98 87.9253C26.6623 88.0018 25.6374 89.1182 25.6914 90.4259C25.7145 90.9535 25.9071 91.4276 26.2154 91.8024L29.737 88.56Z" fill="#628CD2"/>
<path d="M30.4613 90.1506C30.4459 89.6917 30.2918 89.2635 30.0452 88.9117L26.5468 92.1312C26.986 92.4829 27.5562 92.6817 28.165 92.6512C29.4827 92.5747 30.5076 91.4582 30.4536 90.1506H30.4613Z" fill="#628CD2"/>
<path d="M29.5443 88.4071C29.105 87.9941 28.4963 87.7494 27.8336 87.7877C26.5544 87.8641 25.5526 88.95 25.6066 90.2194C25.6297 90.7318 25.8146 91.1983 26.1152 91.5577L29.5443 88.4071Z" fill="white"/>
<path d="M30.2455 89.9518C30.2301 89.5006 30.0837 89.0877 29.8448 88.7512L26.4465 91.8789C26.8704 92.223 27.4252 92.4142 28.0262 92.3836C29.3054 92.3071 30.3072 91.2212 30.2532 89.9518H30.2455Z" fill="white"/>
<path d="M29.6137 95.4806C29.159 95.0524 28.5348 94.8077 27.8567 94.8459C26.539 94.9224 25.5141 96.0388 25.5681 97.3465C25.5912 97.8741 25.7838 98.3482 26.0921 98.723L29.6137 95.4806Z" fill="#628CD2"/>
<path d="M30.338 97.0712C30.3226 96.6123 30.1685 96.1841 29.9219 95.8323L26.4235 99.0517C26.8627 99.4035 27.4329 99.6023 28.0417 99.5717C29.3594 99.4953 30.3843 98.3788 30.3303 97.0712H30.338Z" fill="#628CD2"/>
<path d="M29.421 95.3277C28.9818 94.9147 28.373 94.67 27.7103 94.7083C26.4311 94.7847 25.4293 95.8706 25.4833 97.14C25.5064 97.6524 25.6913 98.1188 25.9919 98.4783L29.421 95.3277Z" fill="white"/>
<path d="M30.1222 96.8723C30.1068 96.4212 29.9604 96.0082 29.7215 95.6718L26.3232 98.7994C26.7471 99.1435 27.3019 99.3347 27.9029 99.3041C29.1821 99.2276 30.1839 98.1418 30.1299 96.8723H30.1222Z" fill="white"/>
<path d="M37.4967 88.56C37.0421 88.1318 36.4179 87.8871 35.7398 87.9253C34.4221 88.0018 33.3972 89.1182 33.4511 90.4259C33.4742 90.9535 33.6669 91.4276 33.9751 91.8024L37.4967 88.56Z" fill="#628CD2"/>
<path d="M38.2211 90.1506C38.2057 89.6917 38.0516 89.2635 37.805 88.9117L34.3065 92.1312C34.7458 92.4829 35.316 92.6817 35.9248 92.6512C37.2425 92.5747 38.2673 91.4582 38.2134 90.1506H38.2211Z" fill="#628CD2"/>
<path d="M37.2964 88.4071C36.8571 87.9941 36.2484 87.7494 35.5856 87.7877C34.3065 87.8641 33.3047 88.95 33.3586 90.2194C33.3818 90.7318 33.5667 91.1983 33.8672 91.5577L37.2964 88.4071Z" fill="white"/>
<path d="M38.0053 89.9518C37.9899 89.5006 37.8435 89.0877 37.6046 88.7512L34.2063 91.8789C34.6301 92.223 35.1849 92.4142 35.786 92.3836C37.0652 92.3071 38.0669 91.2212 38.013 89.9518H38.0053Z" fill="white"/>
<path d="M37.3734 95.4806C36.9188 95.0524 36.2946 94.8077 35.6165 94.8459C34.2988 94.9224 33.2739 96.0388 33.3278 97.3465C33.351 97.8741 33.5436 98.3482 33.8518 98.723L37.3734 95.4806Z" fill="#628CD2"/>
<path d="M38.0978 97.0712C38.0824 96.6123 37.9283 96.1841 37.6817 95.8323L34.1832 99.0517C34.6225 99.4035 35.1927 99.6023 35.8015 99.5717C37.1192 99.4953 38.1441 98.3788 38.0901 97.0712H38.0978Z" fill="#628CD2"/>
<path d="M37.1731 95.3277C36.7338 94.9147 36.1251 94.67 35.4624 94.7083C34.1832 94.7847 33.1814 95.8706 33.2354 97.14C33.2585 97.6524 33.4434 98.1188 33.7439 98.4783L37.1731 95.3277Z" fill="white"/>
<path d="M37.882 96.8723C37.8666 96.4212 37.7202 96.0082 37.4813 95.6718L34.083 98.7994C34.5068 99.1435 35.0617 99.3347 35.6627 99.3041C36.9419 99.2276 37.9437 98.1418 37.8897 96.8723H37.882Z" fill="white"/>
<path d="M45.2566 88.56C44.802 88.1318 44.1778 87.8871 43.4997 87.9253C42.182 88.0018 41.1571 89.1182 41.211 90.4259C41.2341 90.9535 41.4268 91.4276 41.735 91.8024L45.2566 88.56Z" fill="#628CD2"/>
<path d="M45.9733 90.1506C45.9579 89.6917 45.8038 89.2635 45.5572 88.9117L42.0587 92.1312C42.498 92.4829 43.0682 92.6817 43.6769 92.6512C44.9947 92.5747 46.0195 91.4582 45.9656 90.1506H45.9733Z" fill="#628CD2"/>
<path d="M45.0562 88.4071C44.617 87.9941 44.0082 87.7494 43.3455 87.7877C42.0664 87.8641 41.0646 88.95 41.1185 90.2194C41.1417 90.7318 41.3266 91.1983 41.6271 91.5577L45.0562 88.4071Z" fill="white"/>
<path d="M45.7652 89.9518C45.7498 89.5006 45.6034 89.0877 45.3645 88.7512L41.9662 91.8789C42.39 92.223 42.9448 92.4142 43.5459 92.3836C44.8251 92.3071 45.8268 91.2212 45.7729 89.9518H45.7652Z" fill="white"/>
<path d="M45.1256 95.4806C44.671 95.0524 44.0468 94.8077 43.3687 94.8459C42.051 94.9224 41.0261 96.0388 41.08 97.3465C41.1032 97.8741 41.2958 98.3482 41.604 98.723L45.1256 95.4806Z" fill="#628CD2"/>
<path d="M45.85 97.0712C45.8346 96.6123 45.6805 96.1841 45.4339 95.8323L41.9354 99.0517C42.3747 99.4035 42.9449 99.6023 43.5537 99.5717C44.8714 99.4953 45.8963 98.3788 45.8423 97.0712H45.85Z" fill="#628CD2"/>
<path d="M44.933 95.3277C44.4937 94.9147 43.8849 94.67 43.2222 94.7083C41.9431 94.7847 40.9413 95.8706 40.9952 97.14C41.0184 97.6524 41.2033 98.1188 41.5038 98.4783L44.933 95.3277Z" fill="white"/>
<path d="M45.6342 96.8723C45.6188 96.4212 45.4724 96.0082 45.2335 95.6718L41.8352 98.7994C42.259 99.1435 42.8139 99.3347 43.4149 99.3041C44.6941 99.2276 45.6959 98.1418 45.6419 96.8723H45.6342Z" fill="white"/>
<path d="M53.0087 88.56C52.554 88.1318 51.9299 87.8871 51.2517 87.9253C49.934 88.0018 48.9092 89.1182 48.9631 90.4259C48.9862 90.9535 49.1789 91.4276 49.4871 91.8024L53.0087 88.56Z" fill="#628CD2"/>
<path d="M53.7331 90.1506C53.7177 89.6917 53.5635 89.2635 53.317 88.9117L49.8185 92.1312C50.2577 92.4829 50.828 92.6817 51.4367 92.6512C52.7544 92.5747 53.7793 91.4582 53.7254 90.1506H53.7331Z" fill="#628CD2"/>
<path d="M52.816 88.4071C52.3768 87.9941 51.768 87.7494 51.1053 87.7877C49.8261 87.8641 48.8244 88.95 48.8783 90.2194C48.9014 90.7318 49.0864 91.1983 49.3869 91.5577L52.816 88.4071Z" fill="white"/>
<path d="M53.5173 89.9518C53.5019 89.5006 53.3554 89.0877 53.1166 88.7512L49.7183 91.8789C50.1421 92.223 50.6969 92.4142 51.298 92.3836C52.5771 92.3071 53.5789 91.2212 53.525 89.9518H53.5173Z" fill="white"/>
<path d="M52.8854 95.4806C52.4307 95.0524 51.8066 94.8077 51.1284 94.8459C49.8107 94.9224 48.7859 96.0388 48.8398 97.3465C48.8629 97.8741 49.0556 98.3482 49.3638 98.723L52.8854 95.4806Z" fill="#628CD2"/>
<path d="M53.6098 97.0712C53.5944 96.6123 53.4402 96.1841 53.1937 95.8323L49.6952 99.0517C50.1344 99.4035 50.7047 99.6023 51.3134 99.5717C52.6311 99.4953 53.656 98.3788 53.6021 97.0712H53.6098Z" fill="#628CD2"/>
<path d="M52.6927 95.3277C52.2535 94.9147 51.6447 94.67 50.982 94.7083C49.7028 94.7847 48.7011 95.8706 48.755 97.14C48.7781 97.6524 48.9631 98.1188 49.2636 98.4783L52.6927 95.3277Z" fill="white"/>
<path d="M53.394 96.8723C53.3786 96.4212 53.2321 96.0082 52.9933 95.6718L49.595 98.7994C50.0188 99.1435 50.5736 99.3347 51.1747 99.3041C52.4539 99.2276 53.4556 98.1418 53.4017 96.8723H53.394Z" fill="white"/>
<path d="M54.2957 94.0582H24.9054C24.6897 94.0582 24.5201 93.8823 24.5278 93.6759C24.5278 93.4618 24.7128 93.2935 24.9208 93.2935H54.3111C54.5268 93.2935 54.6964 93.4694 54.6887 93.6759C54.6887 93.89 54.5037 94.0582 54.2957 94.0582Z" fill="#E0EAFF"/>
<path opacity="0.06" d="M54.7657 108.419C66.082 108.419 75.2556 107.149 75.2556 105.582C75.2556 104.015 66.082 102.745 54.7657 102.745C43.4494 102.745 34.2758 104.015 34.2758 105.582C34.2758 107.149 43.4494 108.419 54.7657 108.419Z" fill="#FCFDFF"/>
<path opacity="0.11" d="M54.7656 108.282C65.5287 108.282 74.2538 107.073 74.2538 105.582C74.2538 104.092 65.5287 102.883 54.7656 102.883C44.0026 102.883 35.2775 104.092 35.2775 105.582C35.2775 107.073 44.0026 108.282 54.7656 108.282Z" fill="#F9FBFE"/>
<path opacity="0.17" d="M54.7657 108.144C64.9712 108.144 73.2444 106.997 73.2444 105.582C73.2444 104.168 64.9712 103.021 54.7657 103.021C44.5602 103.021 36.287 104.168 36.287 105.582C36.287 106.997 44.5602 108.144 54.7657 108.144Z" fill="#F5F8FE"/>
<path opacity="0.22" d="M54.7656 108.006C64.4179 108.006 72.2426 106.921 72.2426 105.582C72.2426 104.244 64.4179 103.158 54.7656 103.158C45.1134 103.158 37.2887 104.244 37.2887 105.582C37.2887 106.921 45.1134 108.006 54.7656 108.006Z" fill="#F2F6FD"/>
<path opacity="0.28" d="M54.7657 107.861C63.8604 107.861 71.2332 106.841 71.2332 105.582C71.2332 104.324 63.8604 103.304 54.7657 103.304C45.671 103.304 38.2982 104.324 38.2982 105.582C38.2982 106.841 45.671 107.861 54.7657 107.861Z" fill="#EFF4FD"/>
<path opacity="0.33" d="M54.7656 107.724C63.3028 107.724 70.2236 106.765 70.2236 105.582C70.2236 104.4 63.3028 103.441 54.7656 103.441C46.2284 103.441 39.3076 104.4 39.3076 105.582C39.3076 106.765 46.2284 107.724 54.7656 107.724Z" fill="#ECF2FC"/>
<path opacity="0.39" d="M54.7657 107.586C62.7496 107.586 69.2219 106.689 69.2219 105.582C69.2219 104.476 62.7496 103.579 54.7657 103.579C46.7817 103.579 40.3094 104.476 40.3094 105.582C40.3094 106.689 46.7817 107.586 54.7657 107.586Z" fill="#E9F0FC"/>
<path opacity="0.44" d="M54.7656 107.448C62.1921 107.448 68.2124 106.613 68.2124 105.582C68.2124 104.552 62.1921 103.716 54.7656 103.716C47.3392 103.716 41.3188 104.552 41.3188 105.582C41.3188 106.613 47.3392 107.448 54.7656 107.448Z" fill="#E6EEFB"/>
<path opacity="0.5" d="M54.7657 107.303C61.6389 107.303 67.2107 106.533 67.2107 105.582C67.2107 104.632 61.6389 103.862 54.7657 103.862C47.8925 103.862 42.3207 104.632 42.3207 105.582C42.3207 106.533 47.8925 107.303 54.7657 107.303Z" fill="#E3ECFB"/>
<path opacity="0.56" d="M54.7656 107.165C61.0813 107.165 66.2011 106.457 66.2011 105.582C66.2011 104.708 61.0813 103.999 54.7656 103.999C48.4499 103.999 43.3301 104.708 43.3301 105.582C43.3301 106.457 48.4499 107.165 54.7656 107.165Z" fill="#DFE9FB"/>
<path opacity="0.61" d="M54.7657 107.028C60.5238 107.028 65.1917 106.381 65.1917 105.582C65.1917 104.784 60.5238 104.137 54.7657 104.137C49.0075 104.137 44.3396 104.784 44.3396 105.582C44.3396 106.381 49.0075 107.028 54.7657 107.028Z" fill="#DCE7FA"/>
<path opacity="0.67" d="M54.7656 106.89C59.9705 106.89 64.1899 106.305 64.1899 105.582C64.1899 104.86 59.9705 104.275 54.7656 104.275C49.5607 104.275 45.3413 104.86 45.3413 105.582C45.3413 106.305 49.5607 106.89 54.7656 106.89Z" fill="#D9E5FA"/>
<path opacity="0.72" d="M54.7657 106.745C59.413 106.745 63.1805 106.224 63.1805 105.582C63.1805 104.94 59.413 104.42 54.7657 104.42C50.1183 104.42 46.3508 104.94 46.3508 105.582C46.3508 106.224 50.1183 106.745 54.7657 106.745Z" fill="#D6E3F9"/>
<path opacity="0.78" d="M54.7656 106.607C58.8597 106.607 62.1787 106.148 62.1787 105.582C62.1787 105.016 58.8597 104.558 54.7656 104.558C50.6715 104.558 47.3525 105.016 47.3525 105.582C47.3525 106.148 50.6715 106.607 54.7656 106.607Z" fill="#D3E1F9"/>
<path opacity="0.83" d="M54.7656 106.469C58.3023 106.469 61.1692 106.072 61.1692 105.582C61.1692 105.092 58.3023 104.695 54.7656 104.695C51.229 104.695 48.3621 105.092 48.3621 105.582C48.3621 106.072 51.229 106.469 54.7656 106.469Z" fill="#D0DFF8"/>
<path opacity="0.89" d="M60.1675 105.582C60.1675 105.995 57.7479 106.332 54.7734 106.332C51.7989 106.332 49.3793 105.995 49.3793 105.582C49.3793 105.169 51.7989 104.833 54.7734 104.833C57.7479 104.833 60.1675 105.169 60.1675 105.582Z" fill="#CCDCF8"/>
<path opacity="0.94" d="M59.158 105.582C59.158 105.919 57.193 106.194 54.7656 106.194C52.3383 106.194 50.3733 105.919 50.3733 105.582C50.3733 105.246 52.3383 104.971 54.7656 104.971C57.193 104.971 59.158 105.246 59.158 105.582Z" fill="#C9DAF7"/>
<path d="M58.1563 105.582C58.1563 105.842 56.6382 106.049 54.7734 106.049C52.9086 106.049 51.3905 105.842 51.3905 105.582C51.3905 105.322 52.9086 105.116 54.7734 105.116C56.6382 105.116 58.1563 105.322 58.1563 105.582Z" fill="#C6D8F7"/>
<path d="M80.0796 104.374L43.5229 104.489C41.8892 104.489 40.7411 103.181 40.9722 101.56L47.9538 51.1277C48.1772 49.5065 49.6876 48.1836 51.3212 48.1836L87.8779 48.0688C89.5116 48.0688 90.6598 49.3765 90.4286 50.9977L83.4471 101.43C83.2236 103.051 81.7132 104.374 80.0796 104.374Z" fill="#1A317A"/>
<path d="M78.6462 102.386L42.0895 102.501C40.4559 102.501 39.3077 101.193 39.5389 99.5718L46.5204 49.1395C46.7439 47.5183 48.2542 46.1953 49.8879 46.1953L86.4446 46.0806C88.0782 46.0806 89.2264 47.3883 88.9952 49.0095L82.0137 99.4418C81.7902 101.063 80.2799 102.386 78.6462 102.386Z" fill="#628CD2"/>
<path d="M78.6617 99.2047L42.9526 99.3194L49.7569 50.2177L85.466 50.1106L78.6617 99.2047Z" fill="white"/>
<path d="M75.4484 97.2241H68.0661C67.4343 97.2241 66.995 96.7194 67.0875 96.0924L67.3187 94.4635C67.4034 93.8365 67.9891 93.3318 68.621 93.3318H76.0032C76.6351 93.3318 77.0743 93.8365 76.9818 94.4635L76.7507 96.0924C76.6659 96.7194 76.0803 97.2241 75.4484 97.2241Z" fill="#C7D9F8"/>
<path d="M48.3005 97.2241H45.2953C44.8637 97.2241 44.5632 96.8724 44.6248 96.4441L44.9562 94.1118C45.0178 93.6836 45.4185 93.3318 45.8501 93.3318H48.8554C49.2869 93.3318 49.5874 93.6836 49.5258 94.1118L49.1944 96.4441C49.1328 96.8724 48.7321 97.2241 48.3005 97.2241Z" fill="#C7D9F8"/>
<path d="M74.7163 46.1189H72.0654C72.3351 44.0159 70.8325 42.3106 68.698 42.3183C66.5634 42.3259 64.5907 44.0389 64.2671 46.1494H61.6163C60.1984 46.1647 58.8884 47.3041 58.6957 48.7112L58.4183 50.6994C58.2257 52.1065 59.212 53.2459 60.6376 53.2383L73.7299 53.2C75.1478 53.2 76.4578 52.053 76.6504 50.6459L76.9278 48.6577C77.1205 47.2506 76.1341 46.1112 74.7086 46.1189H74.7163ZM67.9428 47.7706C67.0335 47.7706 66.4016 47.0441 66.5249 46.1418C66.6482 45.2394 67.4881 44.5053 68.3974 44.5053C69.3067 44.5053 69.9386 45.2318 69.8153 46.1341C69.692 47.0365 68.8521 47.7706 67.9428 47.7706Z" fill="#1A317A"/>
<path d="M76.581 63.2789H59.8746C59.5433 63.2789 59.3044 63.0112 59.3429 62.6747C59.3815 62.3459 59.6897 62.0706 60.0211 62.0706H76.7274C77.0588 62.0706 77.2976 62.3383 77.2591 62.6747C77.2206 63.0036 76.9124 63.2789 76.581 63.2789Z" fill="#C7D9F8"/>
<path d="M74.6237 60.6865H60.1983C59.8669 60.6865 59.628 60.4189 59.6666 60.0824C59.7051 59.7536 60.0133 59.4783 60.3447 59.4783H74.7701C75.1014 59.4783 75.3403 59.7459 75.3018 60.0824C75.2633 60.4112 74.955 60.6865 74.6237 60.6865Z" fill="#C7D9F8"/>
<path d="M71.6415 58.2012H60.5065C60.1751 58.2012 59.9363 57.9336 59.9748 57.5971C60.0133 57.2683 60.3215 56.993 60.6529 56.993H71.7879C72.1193 56.993 72.3581 57.2606 72.3196 57.5971C72.2811 57.9259 71.9728 58.2012 71.6415 58.2012Z" fill="#C7D9F8"/>
<path opacity="0.75" d="M55.5209 63.2791H50.9204C50.2886 63.2791 49.8416 62.7744 49.9187 62.1473L50.4118 58.1326C50.4889 57.5056 51.0669 57.0009 51.691 57.0009H56.2914C56.9233 57.0009 57.3703 57.5056 57.2932 58.1326L56.8 62.1473C56.723 62.7744 56.145 63.2791 55.5209 63.2791Z" fill="#628CD2"/>
<path d="M74.5545 66.1159H59.4047C59.2121 66.1159 59.0734 65.9553 59.0965 65.7641C59.1196 65.5729 59.2969 65.4124 59.4972 65.4124H74.647C74.8396 65.4124 74.9783 65.5729 74.9552 65.7641C74.9321 65.9553 74.7549 66.1159 74.5545 66.1159Z" fill="#C7D9F8"/>
<path d="M68.174 67.4312H59.2429C59.0502 67.4312 58.9115 67.2706 58.9346 67.0794C58.9578 66.8882 59.135 66.7277 59.3353 66.7277H68.2665C68.4591 66.7277 68.5978 66.8882 68.5747 67.0794C68.5516 67.2706 68.3744 67.4312 68.174 67.4312Z" fill="#C7D9F8"/>
<path d="M64.6986 70.3982H58.8807C58.6881 70.3982 58.5493 70.2376 58.5725 70.0465C58.5956 69.8553 58.7728 69.6947 58.9732 69.6947H64.7911C64.9838 69.6947 65.1225 69.8553 65.0993 70.0465C65.0762 70.2376 64.899 70.3982 64.6986 70.3982Z" fill="#C7D9F8"/>
<path d="M67.6423 71.7135H58.7112C58.5185 71.7135 58.3721 71.553 58.4029 71.3618C58.426 71.1706 58.6033 71.01 58.8036 71.01H67.7347C67.9274 71.01 68.0661 71.1706 68.043 71.3618C68.0199 71.553 67.8426 71.7135 67.6423 71.7135Z" fill="#C7D9F8"/>
<path d="M53.7562 67.9665H51.6833C51.5061 67.9665 51.352 67.8976 51.2441 67.7753C51.1362 67.6529 51.0823 67.4847 51.1054 67.3165L51.3289 65.5041C51.3674 65.16 51.6833 64.8847 52.0301 64.8847H54.103C54.2802 64.8847 54.4343 64.9535 54.5422 65.0759C54.6501 65.1982 54.704 65.3665 54.6809 65.5347L54.4574 67.3471C54.4189 67.6912 54.103 67.9665 53.7562 67.9665ZM52.0301 65.1294C51.8066 65.1294 51.6063 65.3129 51.5754 65.5347L51.352 67.3471C51.3366 67.4465 51.3674 67.5459 51.429 67.6147C51.4907 67.6835 51.5754 67.7218 51.6756 67.7218H53.7485C53.972 67.7218 54.1723 67.5382 54.2031 67.3165L54.4266 65.5041C54.442 65.4047 54.4112 65.3053 54.3496 65.2365C54.2879 65.1676 54.2031 65.1294 54.103 65.1294H52.0301Z" fill="#8DA4FC"/>
<path d="M52.9163 67.24L51.822 65.9324C51.7373 65.833 51.7604 65.6724 51.876 65.573C51.9916 65.4736 52.1534 65.4812 52.2382 65.5806L52.9394 66.4218L54.3958 64.5406C54.4883 64.4259 54.6501 64.3877 54.758 64.4642C54.8659 64.5406 54.8813 64.6936 54.7888 64.8159L52.9163 67.24Z" fill="#FF5F18"/>
<path d="M53.1167 62.3612L51.352 60.243C51.2133 60.0824 51.2519 59.8224 51.4368 59.6618C51.6217 59.5088 51.8837 59.5088 52.0147 59.6771L53.1475 61.0383L55.4978 57.9947C55.6442 57.8035 55.9062 57.75 56.0835 57.8724C56.2607 57.9947 56.2838 58.2471 56.1374 58.4382L53.109 62.3612H53.1167Z" fill="#1A317A"/>
<path d="M53.1244 72.2412H51.1285C50.959 72.2412 50.8049 72.1724 50.697 72.0577C50.5891 71.9353 50.5429 71.7748 50.5583 71.6065L50.7818 69.8018C50.8203 69.4653 51.1285 69.1977 51.4676 69.1977H53.4634C53.633 69.1977 53.7871 69.2665 53.895 69.3812C54.0028 69.5036 54.0491 69.6642 54.0337 69.8324L53.8102 71.6371C53.7717 71.9736 53.4634 72.2412 53.1244 72.2412ZM51.483 69.4424C51.2672 69.4424 51.0669 69.6183 51.0361 69.8324L50.8126 71.6371C50.7972 71.7365 50.828 71.8283 50.8897 71.8971C50.9513 71.9659 51.0361 72.0042 51.1363 72.0042H53.1321C53.3478 72.0042 53.5482 71.8283 53.579 71.6142L53.8025 69.8095C53.8179 69.71 53.7871 69.6183 53.7254 69.5495C53.6638 69.4806 53.579 69.4424 53.4788 69.4424H51.483Z" fill="#8DA4FC"/>
<path d="M52.3152 71.4535L51.221 70.1459C51.1362 70.0465 51.1593 69.8859 51.2749 69.7865C51.3905 69.6871 51.5523 69.6947 51.6371 69.7941L52.3383 70.6353L53.7947 68.7541C53.8872 68.6394 54.049 68.6012 54.1569 68.6777C54.2648 68.7541 54.2802 68.9071 54.1877 69.0294L52.3152 71.4535Z" fill="#FF5F18"/>
<path d="M77.0511 81.0735H57.5938C57.2624 81.0735 57.0235 80.8059 57.0621 80.4694C57.1006 80.1406 57.4088 79.8653 57.7402 79.8653H77.1975C77.5289 79.8653 77.7678 80.1329 77.7292 80.4694C77.6907 80.7982 77.3825 81.0735 77.0511 81.0735Z" fill="#C7D9F8"/>
<path d="M73.8917 78.4812H57.8558C57.5475 78.4812 57.3318 78.2365 57.3703 77.9306L57.3857 77.8235C57.4242 77.5177 57.7016 77.2729 58.0022 77.2729H74.0381C74.3464 77.2729 74.5621 77.5177 74.5236 77.8235L74.5082 77.9306C74.4697 78.2365 74.1922 78.4812 73.8917 78.4812Z" fill="#C7D9F8"/>
<path d="M79.9408 75.9959H58.2179C57.8866 75.9959 57.6477 75.7282 57.6862 75.3918C57.7247 75.063 58.033 74.7877 58.3643 74.7877H80.0872C80.4186 74.7877 80.6574 75.0553 80.6189 75.3918C80.5804 75.7206 80.2721 75.9959 79.9408 75.9959Z" fill="#C7D9F8"/>
<path opacity="0.75" d="M53.2323 81.0738H48.6319C48 81.0738 47.553 80.5691 47.6301 79.942L48.1233 75.9273C48.2003 75.3002 48.7783 74.7955 49.4025 74.7955H54.0029C54.6347 74.7955 55.0817 75.3002 55.0046 75.9273L54.5114 79.942C54.4344 80.5691 53.8565 81.0738 53.2323 81.0738Z" fill="#628CD2"/>
<path d="M64.7449 83.9029H57.1237C56.9311 83.9029 56.7924 83.7423 56.8155 83.5512C56.8386 83.36 57.0159 83.1994 57.2162 83.1994H64.8373C65.03 83.1994 65.1687 83.36 65.1456 83.5512C65.1224 83.7423 64.9452 83.9029 64.7449 83.9029Z" fill="#C7D9F8"/>
<path d="M64.6061 85.2259H56.9311C56.7461 85.2259 56.6228 85.0806 56.6383 84.897V84.8512C56.6691 84.6676 56.8309 84.5223 57.0158 84.5223H64.6909C64.8758 84.5223 64.9991 84.6676 64.9837 84.8512V84.897C64.9529 85.0806 64.7911 85.2259 64.6061 85.2259Z" fill="#C7D9F8"/>
<path d="M60.8225 88.1853H56.5457C56.3762 88.1853 56.2529 88.0476 56.276 87.8794L56.2914 87.7876C56.3145 87.6194 56.4686 87.4818 56.6382 87.4818H60.9149C61.0845 87.4818 61.2077 87.6194 61.1846 87.7876L61.1692 87.8794C61.1461 88.0476 60.992 88.1853 60.8225 88.1853Z" fill="#C7D9F8"/>
<path d="M69.5455 89.5082H56.4301C56.2375 89.5082 56.0988 89.3476 56.1219 89.1565C56.145 88.9653 56.3223 88.8047 56.5226 88.8047H69.638C69.8307 88.8047 69.9694 88.9653 69.9463 89.1565C69.9231 89.3476 69.7459 89.5082 69.5455 89.5082Z" fill="#C7D9F8"/>
<path d="M51.4676 85.7535H49.3947C49.2175 85.7535 49.0634 85.6847 48.9555 85.5623C48.8476 85.44 48.7937 85.2718 48.8168 85.1035L49.0403 83.2912C49.0788 82.9471 49.3948 82.6718 49.7415 82.6718H51.8144C51.9916 82.6718 52.1457 82.7406 52.2536 82.8629C52.3615 82.9853 52.4155 83.1535 52.3923 83.3218L52.1689 85.1341C52.1303 85.4782 51.8144 85.7535 51.4676 85.7535ZM49.7415 82.9241C49.518 82.9241 49.3177 83.1076 49.2869 83.3294L49.0634 85.1418C49.048 85.2412 49.0788 85.3406 49.1405 85.4094C49.2021 85.4782 49.2869 85.5165 49.387 85.5165H51.4599C51.6834 85.5165 51.8838 85.3329 51.9146 85.1112L52.138 83.2988C52.1535 83.1994 52.1226 83.1 52.061 83.0312C51.9993 82.9623 51.9146 82.9241 51.8144 82.9241H49.7415Z" fill="#8DA4FC"/>
<path d="M50.6277 85.0347L49.5335 83.7271C49.4487 83.6277 49.4718 83.4671 49.5874 83.3677C49.703 83.2682 49.8648 83.2759 49.9496 83.3753L50.6508 84.2165L52.1072 82.3353C52.1997 82.2206 52.3615 82.1824 52.4694 82.2588C52.5773 82.3353 52.5927 82.4883 52.5002 82.6106L50.6277 85.0347Z" fill="#FF5F18"/>
<path d="M50.9436 90.0359H48.8707C48.6935 90.0359 48.5393 89.967 48.4315 89.8447C48.3236 89.7223 48.2696 89.5541 48.2928 89.3859L48.5162 87.5735C48.5548 87.2294 48.8707 86.9541 49.2175 86.9541H51.2903C51.4676 86.9541 51.6217 87.0229 51.7296 87.1453C51.8375 87.2676 51.8914 87.4359 51.8683 87.6041L51.6448 89.4165C51.6063 89.7606 51.2903 90.0359 50.9436 90.0359ZM49.2175 87.2065C48.994 87.2065 48.7936 87.39 48.7628 87.6117L48.5393 89.4241C48.5239 89.5235 48.5548 89.6229 48.6164 89.6917C48.6781 89.7606 48.7628 89.7988 48.863 89.7988H50.9359C51.1593 89.7988 51.3597 89.6153 51.3905 89.3935L51.614 87.5812C51.6294 87.4817 51.5986 87.3823 51.5369 87.3135C51.4753 87.2447 51.3905 87.2065 51.2903 87.2065H49.2175Z" fill="#8DA4FC"/>
<path d="M50.096 89.3171L49.0017 88.0094C48.917 87.91 48.9401 87.7494 49.0557 87.65C49.1713 87.5506 49.3331 87.5582 49.4178 87.6577L50.1191 88.4988L51.5755 86.6177C51.668 86.503 51.8298 86.4647 51.9377 86.5412C52.0456 86.6177 52.061 86.7706 51.9685 86.893L50.096 89.3171Z" fill="#FF5F18"/>
<path d="M36.2715 75.1318H35.632C34.7936 75.1318 34.1139 75.8062 34.1139 76.6382V79.1006C34.1139 79.9326 34.7936 80.6071 35.632 80.6071H36.2715C37.1099 80.6071 37.7896 79.9326 37.7896 79.1006V76.6382C37.7896 75.8062 37.1099 75.1318 36.2715 75.1318Z" fill="#1A317A"/>
<path d="M34.9385 83.7271H36.9728C39.6236 83.7271 41.7813 85.8682 41.7813 88.4988V102.302C41.7813 103.342 40.9336 104.183 39.8856 104.183H32.0333C30.9853 104.183 30.1377 103.342 30.1377 102.302V88.4988C30.1377 85.8682 32.2953 83.7271 34.9462 83.7271H34.9385Z" fill="url(#paint13_linear_2578_58)"/>
<path d="M37.3504 79.4677H34.5532C33.2934 79.4677 32.2722 80.4811 32.2722 81.7312V82.6794C32.2722 83.9295 33.2934 84.9429 34.5532 84.9429H37.3504C38.6101 84.9429 39.6313 83.9295 39.6313 82.6794V81.7312C39.6313 80.4811 38.6101 79.4677 37.3504 79.4677Z" fill="#2C49A2"/>
<path d="M38.6835 90.1353H33.22C32.6966 90.1353 32.2722 90.5564 32.2722 91.0759V91.4812C32.2722 92.0007 32.6966 92.4218 33.22 92.4218H38.6835C39.207 92.4218 39.6313 92.0007 39.6313 91.4812V91.0759C39.6313 90.5564 39.207 90.1353 38.6835 90.1353Z" fill="#E0EAFF"/>
<path d="M35.3083 93.1483H36.5952C38.2674 93.1483 39.6313 94.5018 39.6313 96.1612V97.8741C39.6313 99.5335 38.2674 100.887 36.5952 100.887H35.3083C33.6362 100.887 32.2722 99.5335 32.2722 97.8741V96.1612C32.2722 94.5018 33.6362 93.1483 35.3083 93.1483Z" fill="#E0EAFF"/>
<path opacity="0.06" d="M42.9526 116.869C52.7283 116.869 60.653 115.77 60.653 114.415C60.653 113.059 52.7283 111.96 42.9526 111.96C33.1769 111.96 25.2522 113.059 25.2522 114.415C25.2522 115.77 33.1769 116.869 42.9526 116.869Z" fill="#FCFDFF"/>
<path opacity="0.11" d="M42.9526 116.747C52.2516 116.747 59.7899 115.703 59.7899 114.415C59.7899 113.127 52.2516 112.082 42.9526 112.082C33.6536 112.082 26.1152 113.127 26.1152 114.415C26.1152 115.703 33.6536 116.747 42.9526 116.747Z" fill="#F9FBFE"/>
<path opacity="0.17" d="M42.9527 116.625C51.7708 116.625 58.9193 115.635 58.9193 114.415C58.9193 113.194 51.7708 112.205 42.9527 112.205C34.1346 112.205 26.9861 113.194 26.9861 114.415C26.9861 115.635 34.1346 116.625 42.9527 116.625Z" fill="#F5F8FE"/>
<path opacity="0.22" d="M42.9526 116.502C51.2898 116.502 58.0485 115.568 58.0485 114.415C58.0485 113.262 51.2898 112.327 42.9526 112.327C34.6154 112.327 27.8568 113.262 27.8568 114.415C27.8568 115.568 34.6154 116.502 42.9526 116.502Z" fill="#F2F6FD"/>
<path opacity="0.28" d="M42.9526 116.388C50.8089 116.388 57.1777 115.504 57.1777 114.415C57.1777 113.325 50.8089 112.442 42.9526 112.442C35.0963 112.442 28.7275 113.325 28.7275 114.415C28.7275 115.504 35.0963 116.388 42.9526 116.388Z" fill="#EFF4FD"/>
<path opacity="0.33" d="M42.9527 116.265C50.3281 116.265 56.307 115.437 56.307 114.415C56.307 113.393 50.3281 112.564 42.9527 112.564C35.5773 112.564 29.5984 113.393 29.5984 114.415C29.5984 115.437 35.5773 116.265 42.9527 116.265Z" fill="#ECF2FC"/>
<path opacity="0.39" d="M42.9527 116.143C49.8514 116.143 55.4439 115.369 55.4439 114.415C55.4439 113.46 49.8514 112.687 42.9527 112.687C36.0539 112.687 30.4614 113.46 30.4614 114.415C30.4614 115.369 36.0539 116.143 42.9527 116.143Z" fill="#E9F0FC"/>
<path opacity="0.44" d="M42.9526 116.021C49.3704 116.021 54.5731 115.302 54.5731 114.415C54.5731 113.528 49.3704 112.809 42.9526 112.809C36.5348 112.809 31.3322 113.528 31.3322 114.415C31.3322 115.302 36.5348 116.021 42.9526 116.021Z" fill="#E6EEFB"/>
<path opacity="0.5" d="M42.9526 115.906C48.8895 115.906 53.7023 115.238 53.7023 114.415C53.7023 113.591 48.8895 112.924 42.9526 112.924C37.0157 112.924 32.2029 113.591 32.2029 114.415C32.2029 115.238 37.0157 115.906 42.9526 115.906Z" fill="#E3ECFB"/>
<path opacity="0.56" d="M42.9527 115.784C48.4087 115.784 52.8316 115.171 52.8316 114.415C52.8316 113.659 48.4087 113.046 42.9527 113.046C37.4967 113.046 33.0737 113.659 33.0737 114.415C33.0737 115.171 37.4967 115.784 42.9527 115.784Z" fill="#DFE9FB"/>
<path opacity="0.61" d="M42.9526 115.661C47.9277 115.661 51.9608 115.103 51.9608 114.415C51.9608 113.726 47.9277 113.168 42.9526 113.168C37.9776 113.168 33.9445 113.726 33.9445 114.415C33.9445 115.103 37.9776 115.661 42.9526 115.661Z" fill="#DCE7FA"/>
<path opacity="0.67" d="M42.9526 115.539C47.4468 115.539 51.09 115.036 51.09 114.415C51.09 113.794 47.4468 113.291 42.9526 113.291C38.4584 113.291 34.8152 113.794 34.8152 114.415C34.8152 115.036 38.4584 115.539 42.9526 115.539Z" fill="#D9E5FA"/>
<path opacity="0.72" d="M42.9527 115.424C46.9702 115.424 50.2271 114.972 50.2271 114.415C50.2271 113.857 46.9702 113.405 42.9527 113.405C38.9352 113.405 35.6783 113.857 35.6783 114.415C35.6783 114.972 38.9352 115.424 42.9527 115.424Z" fill="#D6E3F9"/>
<path opacity="0.78" d="M42.9527 115.302C46.4893 115.302 49.3563 114.905 49.3563 114.415C49.3563 113.925 46.4893 113.528 42.9527 113.528C39.4161 113.528 36.5491 113.925 36.5491 114.415C36.5491 114.905 39.4161 115.302 42.9527 115.302Z" fill="#D3E1F9"/>
<path opacity="0.83" d="M42.9526 115.179C46.0083 115.179 48.4854 114.837 48.4854 114.415C48.4854 113.992 46.0083 113.65 42.9526 113.65C39.8969 113.65 37.4198 113.992 37.4198 114.415C37.4198 114.837 39.8969 115.179 42.9526 115.179Z" fill="#D0DFF8"/>
<path opacity="0.89" d="M47.6146 114.415C47.6146 114.774 45.5264 115.057 42.9526 115.057C40.3788 115.057 38.2905 114.767 38.2905 114.415C38.2905 114.063 40.3788 113.772 42.9526 113.772C45.5264 113.772 47.6146 114.063 47.6146 114.415Z" fill="#CCDCF8"/>
<path opacity="0.94" d="M46.744 114.415C46.744 114.705 45.0487 114.942 42.9527 114.942C40.8567 114.942 39.1614 114.705 39.1614 114.415C39.1614 114.124 40.8567 113.887 42.9527 113.887C45.0487 113.887 46.744 114.124 46.744 114.415Z" fill="#C9DAF7"/>
<path d="M45.8809 114.415C45.8809 114.637 44.5709 114.82 42.9527 114.82C41.3344 114.82 40.0244 114.637 40.0244 114.415C40.0244 114.193 41.3344 114.009 42.9527 114.009C44.5709 114.009 45.8809 114.193 45.8809 114.415Z" fill="#C6D8F7"/>
<path d="M58.4568 73.4265L58.9037 73.0365C59.2428 72.6006 59.8053 72.4018 60.3447 72.5089L60.9227 72.6312C61.177 72.6848 61.4313 72.6771 61.6779 72.6159L62.7182 72.3636C62.7875 72.3483 62.8492 72.4018 62.8337 72.4706L62.5409 73.1818C62.4099 73.503 62.1094 73.7171 61.7703 73.7401L60.5913 73.8318C60.4603 73.8395 60.337 73.8777 60.2215 73.9312C60.129 73.9771 60.0365 74.0154 59.9363 74.0383L59.2428 74.2295L59.2043 74.3595L58.4491 73.4265H58.4568Z" fill="#FAC4B6"/>
<path d="M60.3371 73.4418C60.8225 73.3501 61.4544 73.5718 62.0092 73.4418C62.1942 73.3959 62.5101 72.8071 62.6334 72.5242C62.6642 72.4477 62.7105 72.3942 62.7567 72.3636C62.8029 72.3712 62.8415 72.4171 62.8338 72.4706L62.5409 73.1818C62.4099 73.503 62.1094 73.7171 61.7703 73.7401L60.5913 73.8318C60.4603 73.8395 60.3371 73.8777 60.2215 73.9312C60.129 73.9771 60.0365 74.0154 59.9363 74.0383L59.2428 74.2295L59.2043 74.3595L58.9885 74.0918C59.1272 74.0001 59.8978 73.5259 60.3371 73.4342V73.4418Z" fill="#F5B3A6"/>
<path d="M43.5613 71.0865C43.5613 71.0865 44.4089 70.6506 45.3259 71.0177C46.2352 71.3847 51.8605 76.0112 51.8605 76.0112L58.7188 73.2047L59.4046 74.2065C59.4046 74.2065 53.8332 79.2077 52.0686 78.7871C50.3039 78.3742 45.6419 75.1624 45.6419 75.1624L43.5536 71.0865H43.5613Z" fill="url(#paint14_linear_2578_58)"/>
<path d="M46.4124 74.5507C47.0058 74.933 50.3655 77.9918 52.3074 78.0301C53.1782 78.0454 58.8574 74.153 59.2273 73.9465L59.3968 74.1912C59.3968 74.1912 53.8255 79.1924 52.0608 78.7718C50.643 78.443 47.3834 76.3171 46.135 75.4836C46.0888 74.8948 46.1119 74.3518 46.4124 74.543V74.5507Z" fill="#E0EAFF"/>
<path opacity="0.5" d="M46.3123 75.6059C45.6728 73.7706 44.8713 72.0041 43.9543 70.9489C44.0391 70.9259 44.1316 70.9106 44.2318 70.8953L44.409 70.9412C44.5939 70.9718 44.8868 71.0712 45.2875 71.3618C46.0503 71.92 46.4048 72.1953 46.4048 72.1953L46.0658 72.6847L46.9211 73.1436C46.9211 73.1436 47.4836 74.933 47.6223 76.34C47.6223 76.3783 47.6301 76.4241 47.6378 76.47C47.1215 76.1412 46.6591 75.843 46.3123 75.6136V75.6059Z" fill="#A7C1FF"/>
<path d="M46.2121 72.2642L45.8962 72.7459L46.6976 73.1971C46.6976 73.1971 47.2216 74.9483 47.3526 76.34C47.4527 77.403 47.5992 80.3853 47.6608 81.7236H47.6146C47.3526 79.6971 46.4279 73.6253 44.3704 71.293L44.355 71.0253C44.5322 71.0559 44.8019 71.1553 45.1718 71.4383C45.8807 71.9889 46.2121 72.2565 46.2121 72.2565V72.2642Z" fill="white"/>
<path d="M40.5483 64.9C40.5483 64.9 42.3361 64.3724 40.8411 62.973C40.348 62.5065 39.1073 62.56 38.591 63.6612C38.0747 64.7624 38.5756 65.6724 38.4986 66.2918C38.4215 66.9112 38.0979 66.7277 37.9283 67.5383C37.7588 68.3488 38.121 68.2188 38.0978 68.9912C38.0824 69.7635 37.6047 69.9318 37.8821 71.0483C38.1595 72.1647 38.7066 73.1818 39.5851 73.1435C40.4636 73.1053 43.8233 72.1035 42.837 70.75C41.8506 69.3888 41.527 69.5647 41.1494 69.0371C40.7718 68.5094 41.1108 67.7371 40.6177 67.1712C40.1245 66.6053 39.4001 64.7165 40.5637 64.9077L40.5483 64.9Z" fill="url(#paint15_linear_2578_58)"/>
<path d="M41.2495 65.2442L41.7658 64.4565C41.9276 64.2042 41.8583 63.8753 41.6117 63.7147C41.3574 63.5542 41.026 63.623 40.8642 63.8677L40.3479 64.6553C40.1861 64.9077 40.2555 65.2365 40.502 65.3971C40.7563 65.5577 41.0877 65.4889 41.2495 65.2442Z" fill="#2C49A2"/>
<path d="M47.5376 79.2994L47.946 84.3312C48.1386 86.6712 48.5393 88.9882 49.1481 91.2518L50.5891 96.5894L46.0041 96.8953L45.0486 79.6053L46.7516 76.4012L47.5299 79.3071L47.5376 79.2994Z" fill="url(#paint16_linear_2578_58)"/>
<path d="M44.2934 69.8171L44.4013 72.0347L41.8969 71.9736L42.0587 70.5512C42.1203 70.0083 42.128 69.45 42.0741 68.9071L42.0433 68.5706L44.2934 69.8171Z" fill="#FAC4B6"/>
<path d="M44.3318 70.5206C43.6152 70.3983 42.7907 69.9547 42.1126 69.3506C42.1126 69.2053 42.0971 69.0524 42.0817 68.9071L42.0509 68.5706L44.301 69.8171L44.3318 70.5283V70.5206Z" fill="#F5B3A6"/>
<path d="M46.4126 66.1238C46.3433 67.7908 45.8424 70.1614 44.725 70.0926C43.2686 70.0008 41.2266 68.3796 40.8721 66.7432C40.3558 64.3496 42.5211 63.3708 43.6385 63.4167C44.7636 63.4626 46.4743 64.449 46.4049 66.1161L46.4126 66.1238Z" fill="#FAC4B6"/>
<path d="M43.6461 63.4165C44.7712 63.4624 46.4819 64.4488 46.4125 66.1159C46.4125 66.1312 46.4125 66.1465 46.4125 66.1618C46.2892 65.8865 46.112 65.6265 45.9039 65.4583C44.6093 64.4488 43.5382 65.4277 42.8447 66.6512C42.5904 66.2688 42.1897 66.0777 41.9508 66.2306C41.7119 66.3835 41.7273 66.8271 41.9816 67.2094C42.0972 67.3853 42.2436 67.523 42.39 67.5994C42.2282 68.0047 42.1203 68.3871 42.0587 68.6853C41.473 68.1118 41.0184 67.4159 40.8643 66.7277C40.348 64.3341 42.5133 63.3553 43.6307 63.4012L43.6461 63.4165Z" fill="url(#paint17_linear_2578_58)"/>
<path d="M47.0522 76.2712C46.9751 75.1165 45.249 72.0577 45.249 72.0577L44.3628 71.0406C44.3628 71.0406 44.4013 71.8435 44.0931 71.9506C43.4304 72.18 42.2668 71.66 42.0356 71.0024C41.8661 70.5282 41.0107 73.4494 41.0107 73.4494L41.1109 81.7312H42.1127L42.2206 85.5394C42.2206 85.5394 46.2893 85.96 46.4203 85.1035C47.0522 80.9665 47.0522 76.2712 47.0522 76.2712Z" fill="#2C49A2"/>
<path d="M46.4433 84.943C48.7705 90.9536 48.5316 95.7024 48.3698 97.2547C48.3005 97.8818 47.8227 99.9083 37.7126 109.895C37.4814 110.125 36.4719 108.787 36.4719 108.787C36.4719 108.787 39.7777 103.602 41.0877 101.797C41.5501 101.155 42.2667 100.344 42.9603 99.5947C44.2703 98.1877 44.7557 96.2147 44.2395 94.3718C43.4072 91.3665 42.3746 86.9771 42.9757 85.5394C43.3456 84.66 46.4433 84.943 46.4433 84.943Z" fill="#2C49A2"/>
<path d="M41.0878 101.805C39.878 103.472 36.9575 108.037 36.5259 108.71C36.5105 108.733 36.5028 108.756 36.5028 108.779C36.5028 108.779 36.5105 108.84 36.5336 108.871L36.8727 109.306C37.9284 107.685 40.7796 103.342 42.2129 101.858C42.7754 101.277 43.361 100.612 43.9005 99.9771C45.3415 98.2718 46.1352 96.1306 46.1506 93.9053C46.166 91.42 45.9579 88.3 44.9253 87.0612C44.4399 86.48 43.6693 86.503 42.7985 86.8624C42.8139 88.8277 43.5922 92.0318 44.2395 94.3794C44.7481 96.2224 44.2626 98.1953 42.9603 99.6024C42.2591 100.352 41.5502 101.162 41.0878 101.805Z" fill="url(#paint18_linear_2578_58)"/>
<path d="M36.811 108.159C36.811 108.159 36.9959 108.741 37.3658 109.046C37.7357 109.352 38.1364 109.475 38.1364 109.475C38.1364 109.475 37.9129 110.224 38.1826 111.119C38.4369 111.975 39.1844 112.969 39.2075 113.038C39.2538 113.176 38.7914 113.497 38.7914 113.497C38.7914 113.497 35.4316 110.14 35.1157 109.551C34.7998 108.962 36.811 108.152 36.811 108.152V108.159Z" fill="url(#paint19_linear_2578_58)"/>
<path d="M39.7932 85.3024C39.7932 85.3024 38.6605 87.4129 38.8069 89.2788C38.9533 91.1447 41.6041 98.8071 41.7274 99.4571C41.8507 100.099 41.1418 101.996 41.5579 104.351C41.974 106.714 43.7386 113.015 43.7386 113.015L45.4417 112.855C45.4417 112.855 45.9965 103.533 45.2105 98.8912C45.0486 97.9582 45.8038 89.1641 44.2318 87.65C42.6598 86.1359 41.9509 83.8418 39.8009 85.2947L39.7932 85.3024Z" fill="#2C49A2"/>
<path d="M45.4417 112.862C45.4417 112.862 45.9965 103.541 45.2105 98.8988C45.0487 97.9659 45.8038 89.1718 44.2318 87.6577C43.1838 86.6483 42.5134 85.2871 41.5502 84.9277C41.3267 85.0041 41.0878 85.1265 40.8181 85.3024C40.8181 85.3024 39.6854 87.413 39.8318 89.2789C39.9782 91.1447 42.629 98.8071 42.7523 99.4571C42.8756 100.107 42.1667 101.996 42.5828 104.351C42.9681 106.546 44.517 112.136 44.7327 112.924L45.4417 112.855V112.862Z" fill="#628CD2"/>
<path d="M43.5537 112.465C43.5537 112.465 44.1779 112.717 44.7019 112.625C45.2259 112.534 45.6112 112.281 45.6112 112.281C45.6112 112.281 46.0967 112.992 47.0445 113.398C47.9538 113.788 49.3255 113.864 49.4025 113.895C49.5489 113.956 49.5027 114.568 49.5027 114.568C49.5027 114.568 44.2781 115.026 43.5537 114.874C42.8294 114.721 43.5537 112.465 43.5537 112.465Z" fill="url(#paint20_linear_2578_58)"/>
<path d="M44.54 78.9479L43.9852 74.5738L42.0587 70.7502C42.0587 70.7502 41.9893 70.9873 41.7042 71.1555C41.5193 71.2626 41.2265 71.3238 40.8643 71.3314C39.9704 71.362 39.4926 72.0273 39.3847 72.3867C39.2692 72.7461 39.0996 74.8032 39.3847 75.6291C39.6699 76.4626 39.9704 77.3038 40.1862 79.1161C40.2555 79.7126 40.2478 80.332 40.2016 80.8979C40.1168 81.6702 39.6776 83.3908 39.3539 84.3314C38.8916 85.6697 38.1287 87.2985 37.7896 89.7455C37.4352 92.3226 37.5045 97.9202 37.5045 97.9202L46.1428 97.4538L44.3165 81.7391L44.2549 81.6014L44.54 78.9479Z" fill="url(#paint21_linear_2578_58)"/>
<path d="M42.051 70.7653L42.0664 70.7424C42.0664 70.7424 42.4902 71.01 42.9217 71.4841C43.3533 71.9583 43.8541 72.7536 43.8541 72.7536L43.5613 73.5871L44.5091 73.9694C44.5091 73.9694 44.9638 75.0706 44.7943 77.3188C44.6864 78.7794 44.4629 80.6224 44.3242 81.7235H44.147C44.2703 80.37 44.3858 77.8618 43.885 75.8888C43.1606 73.0288 41.7196 71.14 41.7196 71.14C41.8506 71.033 41.9662 70.903 42.0587 70.7577L42.051 70.7653Z" fill="white"/>
<path opacity="0.5" d="M40.872 71.3312C40.9645 71.3312 41.0492 71.3236 41.1263 71.3159C41.1263 71.3159 42.7908 71.9659 41.8044 74.5277C41.3498 75.7053 40.2864 77.7547 40.2864 77.7547C40.2864 77.7547 40.5407 78.7106 40.5561 79.8577C40.5638 80.5153 40.479 81.2418 40.3942 81.7465H40.1014C40.2016 81.0047 40.2787 80.0336 40.1785 79.1236C39.9704 77.3112 39.6622 76.4624 39.3771 75.6365C39.0919 74.803 39.2615 72.7536 39.3771 72.3942C39.4927 72.0347 39.9627 71.3618 40.8566 71.3389L40.872 71.3312Z" fill="#A7C1FF"/>
<path d="M37.7438 81.2571C37.7438 81.2571 38.314 80.2553 38.9922 79.07C39.1848 78.7565 39.3466 78.5194 39.4314 78.4124C39.7242 78.053 41.2654 75.3 41.8048 73.4494C42.0283 72.6694 41.7894 71.943 41.2037 71.6065C40.6181 71.2777 39.8629 71.4 39.5007 71.8741C38.6223 73.0288 36.9193 76.7683 36.3799 78.0606C35.9406 79.1083 35.355 81.7312 35.355 81.7312C35.355 81.8688 35.3704 81.9912 35.4089 82.083C35.6555 82.6488 37.0349 83.513 38.3449 84.033C40.2867 84.8053 42.8759 85.6236 42.8759 85.6236C42.8759 85.6236 42.8759 84.7671 43.6003 84.4306L37.7361 81.2494L37.7438 81.2571Z" fill="white"/>
<path d="M35.4086 82.0906C35.6166 82.8629 37.0345 83.5206 38.3445 84.0406C40.2864 84.8129 42.8756 85.6312 42.8756 85.6312C42.8756 85.6312 42.8756 85.4018 42.9758 85.1265C42.1898 84.8512 36.7263 82.9241 36.1638 82.0523C36.0944 81.9453 36.0636 81.8076 36.0559 81.67C36.3256 79.6129 38.3676 75.1394 39.2307 73.2506C40.14 71.2623 41.2034 71.6141 41.2034 71.6141C41.0955 71.5529 40.9799 71.5071 40.8643 71.4765C40.7873 71.4535 40.7025 71.4459 40.6255 71.4382C40.5869 71.4382 40.5484 71.4382 40.5099 71.4382C40.2325 71.4382 39.9628 71.5147 39.747 71.66C39.6545 71.7212 39.5775 71.7976 39.5081 71.8894C39.4542 71.9582 39.3925 72.0423 39.3309 72.1341C39.2692 72.2259 39.2076 72.3253 39.1382 72.4323C39.1074 72.4859 39.0689 72.5394 39.0381 72.6006C38.9379 72.7765 38.83 72.96 38.7221 73.1588C38.6528 73.2888 38.5757 73.4341 38.4986 73.5718C38.4216 73.7171 38.3445 73.8624 38.2752 74.0076C38.1596 74.2294 38.044 74.4588 37.9361 74.6959C37.8591 74.8488 37.782 75.0094 37.7126 75.1623C37.6356 75.3153 37.5662 75.4759 37.4892 75.6288C37.3813 75.8582 37.2734 76.0876 37.1732 76.3018C36.8419 77.0282 36.5568 77.6706 36.3872 78.0759C36.0636 78.8482 35.7014 79.9876 35.424 80.89C35.3392 81.3412 35.3238 81.7618 35.4163 82.0982L35.4086 82.0906Z" fill="url(#paint22_linear_2578_58)"/>
<path d="M42.5597 86.4341C42.4826 86.4341 42.4055 86.4036 42.3439 86.3424C42.2283 86.2277 42.2283 86.0365 42.3439 85.9141C42.8448 85.4171 43.1761 84.14 43.2609 83.6888C43.2917 83.5283 43.4535 83.4136 43.6154 83.4518C43.7772 83.4824 43.8851 83.643 43.8542 83.8036C43.8388 83.88 43.4998 85.6159 42.7677 86.3424C42.7061 86.4036 42.629 86.4341 42.552 86.4341H42.5597Z" fill="#A7C1FF"/>
<path d="M22.3607 108.086L22.347 108.453C22.3287 108.947 22.7172 109.362 23.2148 109.38L27.1807 109.525C27.6782 109.543 28.0965 109.158 28.1148 108.664L28.1284 108.297C28.1468 107.803 27.7583 107.388 27.2607 107.37L23.2948 107.225C22.7972 107.207 22.379 107.593 22.3607 108.086Z" fill="white"/>
<path d="M27.171 109.612C27.171 109.612 27.1479 109.612 27.1325 109.612L23.2641 109.475C22.6862 109.452 22.2315 108.97 22.2546 108.396V108.129C22.2777 107.854 22.3933 107.594 22.6014 107.402C22.8095 107.211 23.0715 107.112 23.3489 107.127L27.2172 107.265C27.4946 107.272 27.7566 107.395 27.9493 107.594C28.1419 107.8 28.2421 108.06 28.2267 108.335V108.603C28.2036 108.878 28.088 109.138 27.8799 109.329C27.6873 109.513 27.433 109.605 27.171 109.605V109.612ZM23.3103 107.311C23.0946 107.311 22.8865 107.395 22.7247 107.54C22.5552 107.693 22.4627 107.907 22.4473 108.129V108.396C22.4165 108.863 22.7863 109.261 23.2641 109.276L27.1325 109.414C27.6025 109.429 28.0032 109.062 28.0186 108.595V108.328C28.034 108.098 27.957 107.884 27.8029 107.716C27.6487 107.548 27.433 107.456 27.2095 107.441L23.3412 107.303C23.3412 107.303 23.318 107.303 23.3103 107.303V107.311Z" fill="#1A317A"/>
<path d="M24.8823 109.429L25.6067 109.452L27.1324 109.505C27.6564 109.521 28.1034 109.115 28.1188 108.595V108.328C28.1496 107.808 27.7335 107.364 27.2095 107.349L25.7069 107.295L24.9594 107.265L24.8823 109.421V109.429Z" fill="#1A317A"/>
<path d="M18.0685 107.693L17.937 108.06C17.7647 108.542 18.0184 109.071 18.5037 109.242L22.4032 110.616C22.8884 110.787 23.4215 110.535 23.5938 110.053L23.7253 109.686C23.8977 109.204 23.644 108.675 23.1587 108.504L19.2592 107.13C18.7739 106.959 18.2408 107.211 18.0685 107.693Z" fill="white"/>
<path d="M22.6784 110.752C22.5551 110.752 22.4318 110.729 22.3162 110.691L18.5249 109.352C18.2552 109.253 18.0317 109.062 17.9084 108.794C17.7851 108.534 17.7697 108.236 17.8622 107.968L17.9546 107.708C18.0548 107.441 18.2475 107.219 18.5172 107.096C18.7792 106.974 19.0797 106.959 19.3494 107.051L23.1407 108.389C23.7032 108.588 24.0038 109.207 23.8034 109.773L23.7109 110.033C23.5491 110.476 23.133 110.752 22.6861 110.752H22.6784ZM18.9872 107.188C18.8562 107.188 18.7252 107.219 18.6019 107.272C18.3862 107.372 18.2244 107.555 18.1473 107.777L18.0548 108.037C17.9778 108.259 17.9855 108.496 18.0934 108.71C18.1935 108.924 18.3785 109.085 18.6019 109.161L22.3932 110.499C22.8556 110.66 23.3642 110.423 23.5337 109.964L23.6262 109.704C23.788 109.245 23.5491 108.741 23.0868 108.572L19.2955 107.234C19.1953 107.204 19.0951 107.181 19.0027 107.181L18.9872 107.188Z" fill="url(#paint23_linear_2578_58)"/>
<path d="M20.1432 109.819L20.8521 110.071L22.3548 110.599C22.8711 110.782 23.4336 110.515 23.6185 110.002L23.711 109.742C23.896 109.23 23.6185 108.672 23.11 108.488L21.6381 107.968L20.9061 107.708L20.1509 109.826L20.1432 109.819Z" fill="url(#paint24_linear_2578_58)"/>
<path d="M29.9625 113.199L30.2042 113.507C30.5209 113.91 31.1068 113.982 31.5128 113.667L34.0832 111.678C34.4892 111.364 34.5617 110.782 34.245 110.379L34.0033 110.072C33.6867 109.669 33.1007 109.597 32.6947 109.911L30.1243 111.901C29.7183 112.215 29.6458 112.796 29.9625 113.199Z" fill="white"/>
<path d="M30.9315 113.956C30.631 113.956 30.3304 113.826 30.1301 113.566L29.8681 113.237C29.5213 112.801 29.6061 112.166 30.0453 111.83L32.6345 109.826C33.0737 109.482 33.7133 109.566 34.0524 110.002L34.3144 110.331C34.6611 110.767 34.5764 111.402 34.1371 111.738L31.548 113.742C31.363 113.887 31.1473 113.956 30.9238 113.956H30.9315ZM33.2664 109.796C33.0891 109.796 32.9119 109.849 32.7578 109.972L30.1686 111.975C29.8064 112.251 29.7448 112.771 30.0222 113.13L30.2842 113.459C30.5616 113.818 31.0856 113.879 31.4478 113.604L34.037 111.601C34.3991 111.325 34.4608 110.805 34.1834 110.446L33.9214 110.117C33.7596 109.911 33.513 109.804 33.2664 109.804V109.796Z" fill="url(#paint25_linear_2578_58)"/>
<path d="M32.5728 112.847L33.0814 112.457L34.1525 111.631C34.5224 111.348 34.5455 110.767 34.2142 110.339L34.0447 110.117C33.7133 109.689 33.1354 109.574 32.7655 109.857L31.7175 110.668L31.1935 111.073L32.5805 112.839L32.5728 112.847Z" fill="url(#paint26_linear_2578_58)"/>
<path opacity="0.06" d="M81.0504 110.614C90.8261 110.614 98.7508 109.515 98.7508 108.159C98.7508 106.804 90.8261 105.705 81.0504 105.705C71.2747 105.705 63.35 106.804 63.35 108.159C63.35 109.515 71.2747 110.614 81.0504 110.614Z" fill="#FCFDFF"/>
<path opacity="0.11" d="M81.0504 110.492C90.3494 110.492 97.8877 109.448 97.8877 108.159C97.8877 106.871 90.3494 105.827 81.0504 105.827C71.7514 105.827 64.213 106.871 64.213 108.159C64.213 109.448 71.7514 110.492 81.0504 110.492Z" fill="#F9FBFE"/>
<path opacity="0.17" d="M81.0505 110.369C89.8686 110.369 97.017 109.38 97.017 108.159C97.017 106.939 89.8686 105.949 81.0505 105.949C72.2323 105.949 65.0839 106.939 65.0839 108.159C65.0839 109.38 72.2323 110.369 81.0505 110.369Z" fill="#F5F8FE"/>
<path opacity="0.22" d="M81.0504 110.247C89.3876 110.247 96.1462 109.312 96.1462 108.159C96.1462 107.006 89.3876 106.072 81.0504 106.072C72.7132 106.072 65.9546 107.006 65.9546 108.159C65.9546 109.312 72.7132 110.247 81.0504 110.247Z" fill="#F2F6FD"/>
<path opacity="0.28" d="M81.0504 110.132C88.9067 110.132 95.2754 109.249 95.2754 108.159C95.2754 107.07 88.9067 106.187 81.0504 106.187C73.1941 106.187 66.8253 107.07 66.8253 108.159C66.8253 109.249 73.1941 110.132 81.0504 110.132Z" fill="#EFF4FD"/>
<path opacity="0.33" d="M81.0505 110.01C88.4258 110.01 94.4048 109.181 94.4048 108.159C94.4048 107.137 88.4258 106.309 81.0505 106.309C73.6751 106.309 67.6962 107.137 67.6962 108.159C67.6962 109.181 73.6751 110.01 81.0505 110.01Z" fill="#ECF2FC"/>
<path opacity="0.39" d="M81.0504 109.888C87.9492 109.888 93.5417 109.114 93.5417 108.159C93.5417 107.205 87.9492 106.431 81.0504 106.431C74.1517 106.431 68.5592 107.205 68.5592 108.159C68.5592 109.114 74.1517 109.888 81.0504 109.888Z" fill="#E9F0FC"/>
<path opacity="0.44" d="M81.0504 109.765C87.4682 109.765 92.6709 109.046 92.6709 108.159C92.6709 107.273 87.4682 106.554 81.0504 106.554C74.6326 106.554 69.4299 107.273 69.4299 108.159C69.4299 109.046 74.6326 109.765 81.0504 109.765Z" fill="#E6EEFB"/>
<path opacity="0.5" d="M81.0505 109.651C86.9874 109.651 91.8002 108.983 91.8002 108.159C91.8002 107.336 86.9874 106.668 81.0505 106.668C75.1136 106.668 70.3008 107.336 70.3008 108.159C70.3008 108.983 75.1136 109.651 81.0505 109.651Z" fill="#E3ECFB"/>
<path opacity="0.56" d="M81.0504 109.528C86.5064 109.528 90.9294 108.915 90.9294 108.159C90.9294 107.403 86.5064 106.791 81.0504 106.791C75.5945 106.791 71.1715 107.403 71.1715 108.159C71.1715 108.915 75.5945 109.528 81.0504 109.528Z" fill="#DFE9FB"/>
<path opacity="0.61" d="M81.0504 109.406C86.0255 109.406 90.0586 108.848 90.0586 108.159C90.0586 107.471 86.0255 106.913 81.0504 106.913C76.0753 106.913 72.0422 107.471 72.0422 108.159C72.0422 108.848 76.0753 109.406 81.0504 109.406Z" fill="#DCE7FA"/>
<path opacity="0.67" d="M81.0504 109.284C85.5445 109.284 89.1878 108.78 89.1878 108.159C89.1878 107.539 85.5445 107.035 81.0504 107.035C76.5562 107.035 72.913 107.539 72.913 108.159C72.913 108.78 76.5562 109.284 81.0504 109.284Z" fill="#D9E5FA"/>
<path opacity="0.72" d="M81.0505 109.169C85.068 109.169 88.3248 108.717 88.3248 108.159C88.3248 107.602 85.068 107.15 81.0505 107.15C77.033 107.15 73.7761 107.602 73.7761 108.159C73.7761 108.717 77.033 109.169 81.0505 109.169Z" fill="#D6E3F9"/>
<path opacity="0.78" d="M81.0504 109.047C84.587 109.047 87.454 108.649 87.454 108.159C87.454 107.67 84.587 107.272 81.0504 107.272C77.5138 107.272 74.6469 107.67 74.6469 108.159C74.6469 108.649 77.5138 109.047 81.0504 109.047Z" fill="#D3E1F9"/>
<path opacity="0.83" d="M81.0504 108.924C84.1061 108.924 86.5832 108.582 86.5832 108.159C86.5832 107.737 84.1061 107.395 81.0504 107.395C77.9947 107.395 75.5176 107.737 75.5176 108.159C75.5176 108.582 77.9947 108.924 81.0504 108.924Z" fill="#D0DFF8"/>
<path opacity="0.89" d="M85.7124 108.159C85.7124 108.519 83.6241 108.802 81.0504 108.802C78.4766 108.802 76.3883 108.511 76.3883 108.159C76.3883 107.808 78.4766 107.517 81.0504 107.517C83.6241 107.517 85.7124 107.808 85.7124 108.159Z" fill="#CCDCF8"/>
<path opacity="0.94" d="M84.8417 108.159C84.8417 108.45 83.1464 108.687 81.0504 108.687C78.9544 108.687 77.2592 108.45 77.2592 108.159C77.2592 107.869 78.9544 107.632 81.0504 107.632C83.1464 107.632 84.8417 107.869 84.8417 108.159Z" fill="#C9DAF7"/>
<path d="M83.971 108.159C83.971 108.381 82.661 108.565 81.0427 108.565C79.4245 108.565 78.1145 108.381 78.1145 108.159C78.1145 107.938 79.4245 107.754 81.0427 107.754C82.661 107.754 83.971 107.938 83.971 108.159Z" fill="#C6D8F7"/>
<path d="M95.1367 106.791H75.1784C74.2846 106.791 73.6989 105.858 73.8684 104.703L79.0314 69.58C79.2009 68.4253 80.064 67.4924 80.9502 67.4924H100.908C101.802 67.4924 102.388 68.4253 102.218 69.58L97.0554 104.703C96.8859 105.858 96.0229 106.791 95.1367 106.791Z" fill="#628CD2"/>
<path d="M93.2873 105.284H73.3291C72.4352 105.284 71.8495 104.351 72.0191 103.196L77.182 68.0736C77.3516 66.9188 78.2146 65.9859 79.1008 65.9859H99.059C99.9529 65.9859 100.539 66.9188 100.369 68.0736L95.2061 103.196C95.0366 104.351 94.1735 105.284 93.2873 105.284Z" fill="white"/>
<path d="M93.2873 105.445H73.3291C72.9284 105.445 72.5662 105.277 72.2965 104.963C71.9189 104.527 71.7571 103.877 71.865 103.174L77.0279 68.0506C77.2051 66.8271 78.1453 65.8253 79.1085 65.8253H99.0667C99.4674 65.8253 99.8296 65.9936 100.099 66.3071C100.477 66.743 100.639 67.393 100.531 68.0965L95.3679 103.219C95.1907 104.443 94.2505 105.445 93.2873 105.445ZM79.1085 66.1388C78.2994 66.1388 77.5057 67.0106 77.3515 68.0888L72.1886 103.212C72.1038 103.816 72.2348 104.389 72.5431 104.749C72.7511 104.994 73.0285 105.116 73.3368 105.116H93.295C94.1041 105.116 94.8978 104.244 95.052 103.166L100.215 68.043C100.3 67.4388 100.169 66.8653 99.8604 66.5059C99.6524 66.2612 99.375 66.1388 99.0667 66.1388H79.1085Z" fill="#2C49A2"/>
<path d="M93.8498 101.407H73.907L78.6615 69.0218H98.612L93.8498 101.407Z" fill="#E0EAFF"/>
<path d="M89.0799 67.8289C89.0491 68.02 88.9104 68.173 88.764 68.173C88.6175 68.173 88.5174 68.02 88.5482 67.8289C88.579 67.6377 88.7177 67.4847 88.8641 67.4847C89.0105 67.4847 89.1107 67.6377 89.0799 67.8289Z" fill="#1A317A"/>
<path d="M84.2406 104.229H82.6917C82.4143 104.229 82.2216 103.931 82.2756 103.571C82.3295 103.212 82.5992 102.914 82.8843 102.914H84.4332C84.7106 102.914 84.9033 103.212 84.8493 103.571C84.7954 103.931 84.5257 104.229 84.2406 104.229Z" fill="#1A317A"/>
<path d="M93.5185 100.076L80.5187 99.9617C80.1026 99.9617 79.8175 99.6176 79.8791 99.2123L79.9176 98.9523C79.9793 98.5394 80.3646 98.2106 80.7807 98.2106L93.7805 98.3253C94.1966 98.3253 94.4817 98.6694 94.4201 99.0747L94.3816 99.3347C94.3199 99.7476 93.9346 100.076 93.5185 100.076Z" fill="#A7C1FF"/>
<path d="M104.615 75.9959H82.7843C81.9675 75.9959 81.3972 75.3382 81.5128 74.5277L81.8133 72.4018C81.9289 71.5912 82.6841 70.9335 83.5086 70.9335H105.339C106.156 70.9335 106.726 71.5912 106.611 72.4018L106.31 74.5277C106.195 75.3382 105.44 75.9959 104.615 75.9959Z" fill="url(#paint27_linear_2578_58)"/>
<path d="M85.1577 74.803H83.2081L83.2698 74.3747C83.4547 74.2447 83.6165 74.1224 83.7707 74.0077C83.9171 73.893 84.0481 73.7859 84.1637 73.6788C84.3101 73.5412 84.4257 73.4265 84.495 73.3194C84.5644 73.22 84.6106 73.113 84.626 73.0059C84.6414 72.8835 84.626 72.7918 84.5567 72.723C84.495 72.6541 84.3948 72.6235 84.2638 72.6235C84.1945 72.6235 84.1328 72.6312 84.0712 72.6465C84.0095 72.6618 83.9479 72.6847 83.8785 72.7077C83.8169 72.7382 83.7552 72.7612 83.709 72.7918C83.6628 72.8224 83.6242 72.8377 83.6011 72.853H83.5472L83.6319 72.2794C83.709 72.2412 83.8323 72.2106 84.0018 72.1724C84.1637 72.1341 84.3255 72.1188 84.4719 72.1188C84.7878 72.1188 85.019 72.1877 85.1577 72.3253C85.3041 72.463 85.3504 72.6618 85.3195 72.9141C85.2964 73.0671 85.2425 73.22 85.1423 73.373C85.0498 73.5259 84.9034 73.6788 84.7031 73.8547C84.5798 73.9618 84.4642 74.0535 84.3486 74.1377C84.233 74.2218 84.156 74.2753 84.102 74.3135H85.2271L85.1577 74.8106V74.803Z" fill="white"/>
<path d="M87.6004 74.1912H87.2383L87.1535 74.8106H86.5062L86.591 74.1912H85.4197L85.489 73.7018L86.853 72.1724H87.5157L87.2999 73.7171H87.6621L87.5927 74.1912H87.6004ZM86.6603 73.7171L86.7836 72.8224L85.9822 73.7171H86.6526H86.6603Z" fill="white"/>
<path d="M89.6348 74H89.2187L89.3112 73.3424C89.3112 73.2889 89.3266 73.2353 89.3266 73.1818C89.3266 73.1283 89.3266 73.09 89.3189 73.0671C89.3112 73.0365 89.2881 73.0136 89.265 73.0059C89.2418 72.9906 89.2033 72.983 89.1571 72.983C89.1263 72.983 89.0877 72.983 89.0492 72.9983C89.0107 73.0136 88.9721 73.0289 88.9259 73.0594L88.7949 74H88.3788L88.6408 72.1647H89.0569L88.9644 72.8224C89.0415 72.7689 89.1108 72.723 89.1802 72.6847C89.2495 72.6541 89.3266 72.6389 89.4037 72.6389C89.5424 72.6389 89.6348 72.6847 89.6965 72.7689C89.7581 72.853 89.7735 72.9753 89.7504 73.1359L89.6271 74H89.6348Z" fill="white"/>
<path d="M99.9685 73.3041H91.6153C91.3919 73.3041 91.2377 73.1283 91.2686 72.9065C91.2994 72.6847 91.5075 72.5089 91.7309 72.5089H100.084C100.308 72.5089 100.462 72.6847 100.431 72.9065C100.4 73.1283 100.192 73.3041 99.9685 73.3041Z" fill="#E4EEFF"/>
<path d="M104.114 74.803H91.3995C91.176 74.803 91.0219 74.6271 91.0528 74.4053C91.0836 74.1836 91.2916 74.0077 91.5151 74.0077H104.23C104.453 74.0077 104.607 74.1836 104.577 74.4053C104.546 74.6271 104.338 74.803 104.114 74.803Z" fill="#E4EEFF"/>
<path d="M80.1412 82.3582H93.7729C94.6591 82.3582 95.2987 82.8935 95.2062 83.5588L94.1197 91.2594C94.0272 91.917 93.2335 92.46 92.3473 92.46H82.3066L78.1993 94.4864C78.0144 94.5782 77.7986 94.4559 77.8757 94.3029L78.8004 92.46H78.7156C77.8294 92.46 77.1899 91.9247 77.2823 91.2594L78.3689 83.5588C78.4613 82.9012 79.255 82.3582 80.1412 82.3582Z" fill="#628CD2"/>
<path d="M79.5016 81.777H93.1333C94.0194 81.777 94.659 82.3123 94.5666 82.9776L93.48 90.6782C93.3876 91.3359 92.5939 91.8788 91.7077 91.8788H81.6669L77.5597 93.9053C77.3747 93.997 77.159 93.8747 77.236 93.7217L78.1607 91.8788H78.076C77.1898 91.8788 76.5502 91.3435 76.6427 90.6782L77.7292 82.9776C77.8217 82.32 78.6154 81.777 79.5016 81.777Z" fill="#A7C1FF"/>
<path d="M78.7926 83.7653H93.2797C93.4569 83.7653 93.6265 83.62 93.6496 83.4441L93.665 83.3294C93.6881 83.1535 93.5648 83.0082 93.3876 83.0082H78.9005C78.7233 83.0082 78.5538 83.1535 78.5307 83.3294L78.5152 83.4441C78.4921 83.62 78.6154 83.7653 78.7926 83.7653Z" fill="white"/>
<path d="M78.338 85.8682H86.3907C86.4831 85.8682 86.5602 85.7994 86.5756 85.7076V85.6541C86.5987 85.5624 86.5371 85.4935 86.4446 85.4935H78.392C78.2995 85.4935 78.2224 85.5624 78.207 85.6541V85.7076C78.1839 85.7994 78.2456 85.8682 78.338 85.8682Z" fill="#628CD2"/>
<path d="M78.0298 88.04H86.0824C86.1749 88.04 86.252 87.9712 86.2674 87.8794V87.8259C86.2905 87.7341 86.2289 87.6653 86.1364 87.6653H78.0837C77.9913 87.6653 77.9142 87.7341 77.8988 87.8259V87.8794C77.8757 87.9712 77.9373 88.04 78.0298 88.04Z" fill="#628CD2"/>
<path d="M77.8988 89.1335H89.5809C89.6888 89.1335 89.7812 89.0494 89.7967 88.9423C89.8121 88.8353 89.735 88.7512 89.6348 88.7512H77.9527C77.8448 88.7512 77.7524 88.8353 77.737 88.9423C77.7215 89.0494 77.7986 89.1335 77.8988 89.1335Z" fill="#628CD2"/>
<path d="M82.5222 86.9541H86.2365C86.3289 86.9541 86.406 86.8853 86.4214 86.7935V86.74C86.4445 86.6482 86.3829 86.5794 86.2904 86.5794H82.5762C82.4837 86.5794 82.4066 86.6482 82.3912 86.74V86.7935C82.3681 86.8853 82.4298 86.9541 82.5222 86.9541Z" fill="#628CD2"/>
<path d="M80.7036 86.9541H81.9982C82.0907 86.9541 82.1677 86.8853 82.1832 86.7935V86.74C82.2063 86.6482 82.1446 86.5794 82.0522 86.5794H80.7576C80.6651 86.5794 80.588 86.6482 80.5726 86.74V86.7935C80.5495 86.8853 80.6112 86.9541 80.7036 86.9541Z" fill="#628CD2"/>
<path d="M78.1838 86.9541H79.9716C80.0641 86.9541 80.1411 86.8853 80.1566 86.7935V86.74C80.1797 86.6482 80.118 86.5794 80.0256 86.5794H78.2378C78.1453 86.5794 78.0683 86.6482 78.0528 86.74V86.7935C78.0297 86.8853 78.0914 86.9541 78.1838 86.9541Z" fill="#628CD2"/>
<path d="M89.4036 87.6653H90.6134L91.1066 84.5835H89.8967L89.4036 87.6653Z" fill="#FFFEFE"/>
<path d="M88.7948 85.5241L88.6099 86.7247H91.7153L91.9003 85.5241H88.7948Z" fill="#FFFEFE"/>
<path opacity="0.06" d="M84.0096 120.586C93.3852 120.586 100.986 119.531 100.986 118.231C100.986 116.93 93.3852 115.875 84.0096 115.875C74.634 115.875 67.0336 116.93 67.0336 118.231C67.0336 119.531 74.634 120.586 84.0096 120.586Z" fill="#FCFDFF"/>
<path opacity="0.11" d="M84.0095 120.464C92.9255 120.464 100.153 119.464 100.153 118.231C100.153 116.997 92.9255 115.998 84.0095 115.998C75.0936 115.998 67.8657 116.997 67.8657 118.231C67.8657 119.464 75.0936 120.464 84.0095 120.464Z" fill="#F9FBFE"/>
<path opacity="0.17" d="M84.0096 120.349C92.4659 120.349 99.3212 119.4 99.3212 118.231C99.3212 117.061 92.4659 116.112 84.0096 116.112C75.5532 116.112 68.698 117.061 68.698 118.231C68.698 119.4 75.5532 120.349 84.0096 120.349Z" fill="#F5F8FE"/>
<path opacity="0.22" d="M84.0096 120.234C92.0063 120.234 98.489 119.337 98.489 118.231C98.489 117.124 92.0063 116.227 84.0096 116.227C76.0129 116.227 69.5303 117.124 69.5303 118.231C69.5303 119.337 76.0129 120.234 84.0096 120.234Z" fill="#F2F6FD"/>
<path opacity="0.28" d="M84.0095 120.119C91.5424 120.119 97.6489 119.274 97.6489 118.231C97.6489 117.187 91.5424 116.342 84.0095 116.342C76.4767 116.342 70.3701 117.187 70.3701 118.231C70.3701 119.274 76.4767 120.119 84.0095 120.119Z" fill="#EFF4FD"/>
<path opacity="0.33" d="M84.0096 120.005C91.0828 120.005 96.8167 119.21 96.8167 118.231C96.8167 117.251 91.0828 116.456 84.0096 116.456C76.9364 116.456 71.2024 117.251 71.2024 118.231C71.2024 119.21 76.9364 120.005 84.0096 120.005Z" fill="#ECF2FC"/>
<path opacity="0.39" d="M84.0096 119.89C90.6232 119.89 95.9845 119.147 95.9845 118.231C95.9845 117.314 90.6232 116.571 84.0096 116.571C77.396 116.571 72.0347 117.314 72.0347 118.231C72.0347 119.147 77.396 119.89 84.0096 119.89Z" fill="#E9F0FC"/>
<path opacity="0.44" d="M84.0095 119.775C90.1635 119.775 95.1522 119.084 95.1522 118.231C95.1522 117.377 90.1635 116.686 84.0095 116.686C77.8556 116.686 72.8668 117.377 72.8668 118.231C72.8668 119.084 77.8556 119.775 84.0095 119.775Z" fill="#E6EEFB"/>
<path opacity="0.5" d="M84.0096 119.661C89.7039 119.661 94.32 119.02 94.32 118.231C94.32 117.441 89.7039 116.801 84.0096 116.801C78.3152 116.801 73.6991 117.441 73.6991 118.231C73.6991 119.02 78.3152 119.661 84.0096 119.661Z" fill="#E3ECFB"/>
<path opacity="0.56" d="M84.0096 119.546C89.24 119.546 93.4801 118.957 93.4801 118.231C93.4801 117.504 89.24 116.915 84.0096 116.915C78.7792 116.915 74.5391 117.504 74.5391 118.231C74.5391 118.957 78.7792 119.546 84.0096 119.546Z" fill="#DFE9FB"/>
<path opacity="0.61" d="M84.0096 119.431C88.7804 119.431 92.6479 118.894 92.6479 118.231C92.6479 117.568 88.7804 117.03 84.0096 117.03C79.2388 117.03 75.3713 117.568 75.3713 118.231C75.3713 118.894 79.2388 119.431 84.0096 119.431Z" fill="#DCE7FA"/>
<path opacity="0.67" d="M84.0095 119.309C88.3207 119.309 91.8156 118.826 91.8156 118.231C91.8156 117.635 88.3207 117.152 84.0095 117.152C79.6984 117.152 76.2035 117.635 76.2035 118.231C76.2035 118.826 79.6984 119.309 84.0095 119.309Z" fill="#D9E5FA"/>
<path opacity="0.72" d="M84.0096 119.194C87.8611 119.194 90.9834 118.763 90.9834 118.231C90.9834 117.698 87.8611 117.267 84.0096 117.267C80.1581 117.267 77.0358 117.698 77.0358 118.231C77.0358 118.763 80.1581 119.194 84.0096 119.194Z" fill="#D6E3F9"/>
<path opacity="0.78" d="M84.0096 119.079C87.4015 119.079 90.1512 118.699 90.1512 118.231C90.1512 117.762 87.4015 117.382 84.0096 117.382C80.6177 117.382 77.868 117.762 77.868 118.231C77.868 118.699 80.6177 119.079 84.0096 119.079Z" fill="#D3E1F9"/>
<path opacity="0.83" d="M84.0095 118.965C86.9418 118.965 89.3189 118.636 89.3189 118.231C89.3189 117.825 86.9418 117.497 84.0095 117.497C81.0773 117.497 78.7002 117.825 78.7002 118.231C78.7002 118.636 81.0773 118.965 84.0095 118.965Z" fill="#D0DFF8"/>
<path opacity="0.89" d="M88.479 118.231C88.479 118.575 86.4755 118.85 84.0096 118.85C81.5437 118.85 79.5402 118.575 79.5402 118.231C79.5402 117.886 81.5437 117.611 84.0096 117.611C86.4755 117.611 88.479 117.886 88.479 118.231Z" fill="#CCDCF8"/>
<path opacity="0.94" d="M87.6468 118.231C87.6468 118.506 86.0208 118.735 84.0096 118.735C81.9984 118.735 80.3724 118.506 80.3724 118.231C80.3724 117.955 81.9984 117.726 84.0096 117.726C86.0208 117.726 87.6468 117.955 87.6468 118.231Z" fill="#C9DAF7"/>
<path d="M86.8145 118.231C86.8145 118.445 85.5584 118.621 84.0095 118.621C82.4606 118.621 81.2046 118.445 81.2046 118.231C81.2046 118.017 82.4606 117.841 84.0095 117.841C85.5584 117.841 86.8145 118.017 86.8145 118.231Z" fill="#C6D8F7"/>
<path d="M76.4578 117.802C76.1419 117.802 75.8799 117.55 75.8799 117.237C75.8799 116.923 76.1342 116.663 76.4501 116.663L93.2798 116.587C93.7344 116.587 94.1736 116.304 94.4125 115.875C94.505 115.707 94.6899 115.271 94.4202 114.874C92.2086 111.532 91.2685 107.349 91.754 103.089L92.016 100.818C92.0545 100.505 92.3396 100.283 92.6556 100.314C92.9715 100.352 93.195 100.635 93.1642 100.948L92.9022 103.219C92.4398 107.211 93.326 111.127 95.3835 114.247C95.7996 114.881 95.815 115.684 95.422 116.411C94.9828 117.214 94.1659 117.718 93.2798 117.726L76.4501 117.802H76.4578Z" fill="#2C49A2"/>
<path d="M91.831 101.468C89.9046 101.468 88.1939 100.727 86.9994 99.3806C85.7819 98.0118 85.2579 96.1842 85.5199 94.2342L86.514 86.893C86.8299 84.5454 88.294 82.343 90.4208 81.0048C90.6906 80.8365 91.045 80.913 91.2146 81.1806C91.3841 81.4483 91.307 81.8001 91.0373 81.9683C89.1956 83.1306 87.9319 85.0271 87.6544 87.0459L86.6604 94.3871C86.4446 96.0006 86.8684 97.5071 87.8625 98.6236C88.8334 99.7171 90.2436 100.321 91.831 100.321C91.8464 100.321 91.8619 100.321 91.8696 100.321H92.5862C95.9999 100.291 99.1439 97.5224 99.5986 94.1424L100.593 86.8012C100.824 85.0577 100.292 83.4136 99.1285 82.2971C98.8973 82.0753 98.8973 81.7159 99.1208 81.4865C99.3443 81.2571 99.7064 81.2571 99.9376 81.4789C101.363 82.8553 102.018 84.8512 101.741 86.9542L100.747 94.2953C100.215 98.2183 96.5624 101.438 92.6016 101.461H91.885C91.885 101.461 91.8541 101.461 91.8387 101.461L91.831 101.468Z" fill="#2C49A2"/>
<path d="M91.831 101.935C89.7658 101.935 87.9319 101.139 86.645 99.6942C85.335 98.2183 84.7724 96.2606 85.0499 94.1806C85.1269 93.6147 85.6509 93.2094 86.2289 93.2859C86.7991 93.3624 87.2075 93.8824 87.1304 94.4559C86.9301 95.9318 87.3154 97.3083 88.217 98.3253C89.0954 99.3194 90.3823 99.8624 91.831 99.8624C91.8464 99.8624 91.8541 99.8624 91.8696 99.8624H92.5862C95.7687 99.8394 98.7047 97.2471 99.1362 94.0889C99.2133 93.523 99.7373 93.1177 100.315 93.1941C100.885 93.2706 101.294 93.7906 101.217 94.3642C100.947 96.383 99.8991 98.2794 98.2809 99.7018C96.6626 101.132 94.6437 101.919 92.6016 101.935H91.885C91.885 101.935 91.8464 101.935 91.831 101.935Z" fill="#1A317A"/>
<path d="M90.5134 82.863C90.1435 82.863 89.8892 82.5647 89.9355 82.1977L90.0819 81.15C90.1358 80.783 90.4749 80.4847 90.8448 80.4847C91.2147 80.4847 91.4689 80.783 91.4227 81.15L91.2763 82.1977C91.2224 82.5647 90.8833 82.863 90.5134 82.863Z" fill="#1A317A"/>
<path d="M99.1902 83.0695C98.8203 83.0695 98.566 82.7712 98.6122 82.4042L98.7586 81.3565C98.8126 80.9895 99.1516 80.6912 99.5215 80.6912C99.8914 80.6912 100.146 80.9895 100.099 81.3565L99.9531 82.4042C99.8991 82.7712 99.5601 83.0695 99.1902 83.0695Z" fill="#1A317A"/>
<path d="M71.4182 116.487L71.2949 117.359H71.3103C71.4182 117.848 73.0365 118.231 75.0708 118.231C76.296 118.231 77.4134 118.093 78.1609 117.879C78.7234 117.718 79.0702 117.512 79.101 117.29L79.2089 116.525H77.5752C76.951 116.411 76.1805 116.342 75.3328 116.342C74.5391 116.342 73.7916 116.403 73.1597 116.502H71.4105L71.4182 116.487ZM76.7199 116.51L74.0151 116.495C74.4235 116.457 74.8627 116.434 75.3174 116.434C75.8183 116.434 76.296 116.457 76.7199 116.51Z" fill="#628CD2"/>
<path d="M71.6108 116.541C71.5415 117.038 73.1366 117.435 75.1786 117.435C77.2207 117.435 78.9314 117.03 79.0008 116.541C79.0701 116.044 77.475 115.646 75.4329 115.646C73.3909 115.646 71.6802 116.051 71.6108 116.541Z" fill="#E0EAFF"/>
<path d="M71.4105 116.518C71.4876 115.998 73.2907 115.569 75.4407 115.569C77.5906 115.569 79.2782 115.998 79.2011 116.518C79.1241 117.038 77.3209 117.466 75.171 117.466C73.021 117.466 71.3334 117.038 71.4105 116.518ZM71.8189 116.518C71.7496 116.984 73.2599 117.367 75.1864 117.367C77.1129 117.367 78.7234 116.984 78.7927 116.518C78.8621 116.051 77.3517 115.669 75.4253 115.669C73.4988 115.669 71.8883 116.051 71.8189 116.518Z" fill="#E0EAFF"/>
<path d="M93.0641 102.852H91.3225C90.9141 102.852 90.6367 102.524 90.6907 102.126L90.9372 100.398C90.9912 99.9924 91.3688 99.6712 91.7772 99.6712H93.5187C93.9271 99.6712 94.2045 100 94.1506 100.398L93.904 102.126C93.8501 102.531 93.4725 102.852 93.0641 102.852Z" fill="#1A317A"/>
<path d="M77.2514 82.3124C77.2976 81.8077 76.1572 75.4529 75.2479 74.0382C74.3386 72.6235 73.1519 72.1953 73.0594 72.9294C72.6125 76.3782 74.3232 80.9435 74.8549 82.2588C74.955 82.4959 74.9782 82.7635 74.9319 83.0159C74.8086 83.6659 74.5697 85.1188 74.4387 87.2218C74.4387 87.2829 74.4079 87.3365 74.3694 87.3824L73.8762 87.9406C73.8146 87.9865 73.8146 88.0859 73.8839 88.1241C73.9764 88.1777 74.0689 88.2006 74.0689 88.4912C74.0689 88.9653 73.6219 90.2271 73.4524 90.6476C73.4293 90.7088 73.4832 90.7777 73.5526 90.7547C73.8916 90.6553 74.6468 90.4259 74.8395 90.2577C75.086 90.0359 75.8566 88.6441 75.7873 87.9865C75.7719 87.8412 75.7179 87.7035 75.6948 87.6729C75.8027 87.4741 77.0202 84.9047 77.2514 82.3047V82.3124Z" fill="#FAC4B6"/>
<path d="M73.9995 88.9195C74.038 88.7512 74.0611 88.6059 74.0611 88.4989C74.0611 88.2083 73.9687 88.1853 73.8762 88.1318C73.8068 88.0936 73.8068 88.0018 73.8685 87.9483L74.3617 87.39C74.4002 87.3442 74.4233 87.2906 74.431 87.2295C74.5697 85.1189 74.8086 83.6659 74.9242 83.0236C74.9704 82.7712 74.9473 82.5112 74.8471 82.2665C74.3617 81.0659 72.9053 77.1736 72.9823 73.8777C73.0208 73.9312 73.0594 73.9924 73.1056 74.0612C74.5004 76.3095 75.8566 81.2953 75.8181 82.3812C75.7796 83.4747 74.955 87.3671 74.5081 87.933C74.3308 88.1547 74.1536 88.5371 73.9995 88.9195Z" fill="#F5B3A6"/>
<path d="M77.0357 78.3665C77.0048 77.8618 76.3498 75.2083 75.3789 73.8318C74.408 72.463 73.4524 72.3788 72.5354 72.7459C71.8419 73.0212 73.884 79.5977 73.884 79.5977C73.884 79.5977 77.0665 78.8635 77.0357 78.3588V78.3665Z" fill="#8FC64E"/>
<path d="M72.3582 110.408C72.3582 110.408 71.4643 111.44 70.6013 111.578C70.0464 111.669 69.2142 111.723 68.6902 111.746C68.2741 111.769 67.8888 111.991 67.6884 112.35C67.5805 112.541 67.5497 112.74 67.7424 112.862C68.2278 113.184 70.3161 113.122 71.0867 113.252C71.6493 113.344 73.0594 113.367 73.7761 113.375C74.0843 113.375 74.3617 113.191 74.4773 112.908C74.6391 112.503 74.7393 111.906 74.2616 111.333C73.4524 110.362 72.3659 110.4 72.3659 110.4L72.3582 110.408Z" fill="url(#paint28_linear_2578_58)"/>
<path d="M68.8905 86.5258L73.6527 85.3253C73.6527 85.3253 73.9918 86.4953 74.038 87.757C74.2153 92.7735 73.4138 100.826 73.4138 100.826C73.4138 100.826 74.3617 103.372 74.3617 111.532C74.3617 112.556 73.2906 112.396 72.6201 112.197C72.2965 112.098 72.0576 111.838 71.9806 111.516C71.5567 109.727 69.4761 98.5623 67.8425 88.2388C67.7423 87.6194 68.8905 86.5335 68.8905 86.5335V86.5258Z" fill="#2C49A2"/>
<path d="M69.7845 86.2965L70.4395 84.9429C70.2931 85.2259 70.9789 88.4759 70.6475 90.5023C69.9309 94.8994 70.1235 96.3829 71.0482 100.574C71.1484 101.032 71.395 105.162 72.9362 112.274C72.8283 112.251 72.7204 112.22 72.6202 112.189C72.2966 112.09 72.0577 111.83 71.9807 111.509C71.6031 109.903 69.8847 100.757 68.3589 91.4353L69.7845 86.3041V86.2965Z" fill="url(#paint29_linear_2578_58)"/>
<path d="M65.8545 111.746C65.8545 111.746 64.9607 112.778 64.0976 112.916C63.5428 113.008 62.7105 113.061 62.1865 113.084C61.7704 113.107 61.3851 113.329 61.1848 113.688C61.0769 113.879 61.0461 114.078 61.2387 114.201C61.7242 114.522 63.8125 114.461 64.5831 114.591C65.161 114.69 66.6174 114.705 67.3187 114.713C67.5884 114.713 67.8349 114.56 67.9428 114.315C68.1201 113.918 68.2588 113.275 67.7579 112.671C66.9488 111.7 65.8622 111.738 65.8622 111.738L65.8545 111.746Z" fill="url(#paint30_linear_2578_58)"/>
<path d="M65.4847 112.396L64.7372 100.62C64.7372 100.62 63.8279 93.0948 64.4135 89.9977C64.6832 88.583 65.5001 85.2413 65.5001 85.2413C65.5001 85.2413 69.4994 85.4707 69.6998 85.8072C69.9001 86.1436 70.8171 87.543 69.6998 92.376C68.7674 96.406 68.2742 99.0901 68.1432 99.8701C68.1201 100.023 68.1201 100.176 68.1432 100.329C68.2819 101.032 68.8213 103.686 68.7134 104.802C68.4206 107.792 67.6654 112.817 67.6654 112.817H67.6423C66.8948 113.038 66.078 112.885 65.4692 112.396H65.4847Z" fill="#628CD2"/>
<path d="M65.2843 91.9629C64.9915 96.5206 65.7929 102.111 65.8699 105.299C65.9239 107.762 65.7466 111.111 65.6696 112.518C65.6079 112.48 65.5463 112.434 65.4923 112.388L64.7449 100.612C64.7449 100.612 63.8356 93.0871 64.4212 89.99C64.6909 88.5753 65.5078 85.2335 65.5078 85.2335C65.5078 85.2335 65.9085 85.2565 66.471 85.3023L67.1106 86.0365C67.1106 86.0365 65.5848 87.3976 65.292 91.9553L65.2843 91.9629Z" fill="#2C49A2"/>
<path d="M68.8136 68.54L68.7365 73.3194C68.7365 73.3194 68.7057 74.1682 70.3624 74.6576C72.4738 75.2847 71.9498 72.6618 71.6956 72.3788C71.1407 71.7441 71.5954 68.2953 71.5954 68.2953L68.8136 68.54Z" fill="#FAC4B6"/>
<path d="M68.8136 68.54L71.5954 68.2953C71.5954 68.2953 71.4952 69.0906 71.4413 69.9776C70.5859 70.8341 69.4917 71.4612 68.7596 71.5147L68.8059 68.5323L68.8136 68.54Z" fill="#F5B3A6"/>
<path d="M72.4815 67.3624C72.1964 69.32 69.2374 71.4382 68.1277 71.0788C67.4265 70.8494 66.9179 69.3888 66.8948 67.4159C66.864 65.4582 67.6654 64.3953 69.7537 64.2041C71.056 64.0818 72.7667 65.4047 72.4815 67.3624Z" fill="#FAC4B6"/>
<path d="M67.334 64.8006C68.2819 63.6841 69.4223 63.9135 69.7614 64.0129C69.8308 64.0359 69.9001 64.0282 69.9618 64.0129C70.1005 63.9747 70.3702 63.9059 70.6938 63.9288C71.1716 63.9518 72.1117 64.6859 72.5355 65.8482C72.9593 67.0106 72.1425 69.7482 71.4105 70.4288C71.1947 70.6277 70.3393 70.4441 69.9386 70.5053C69.091 70.6429 69.1603 70.1841 68.7673 69.4271L68.5593 69.0218C68.5285 68.9606 68.5516 68.8841 68.6055 68.8535C68.7134 68.8 68.8136 68.7082 68.8829 68.5859C69.0525 68.2953 68.9908 67.9512 68.7519 67.8135C68.5747 67.7065 68.3435 67.7524 68.1663 67.9053C68.1046 67.9588 68.0045 67.9435 67.9736 67.8671L67.3418 66.6435C67.3418 66.6435 67.3109 66.5976 67.2878 66.59C67.1106 66.4982 66.3169 65.9935 67.3186 64.8082L67.334 64.8006Z" fill="url(#paint31_linear_2578_58)"/>
<path d="M66.4556 73.3118C65.8853 73.0441 64.6062 73.6023 64.1592 75.43C63.2345 79.2535 63.8201 80.9818 63.6429 81.5171C63.458 82.0523 63.0419 84.4229 63.065 85.9447C63.0804 86.8623 63.0804 87.5965 63.0727 88.0323C62.5718 87.9712 62.4716 90.4106 62.5872 90.7241C62.672 90.9612 63.2345 91.5118 63.4888 91.7565C63.535 91.8023 63.6198 91.7718 63.6275 91.7106C63.6737 91.2594 63.8818 89.9365 64.1053 89.5235C64.244 89.2712 64.3364 89.2865 64.4443 89.2865C64.5214 89.2865 64.5676 89.2023 64.5368 89.1335C64.5368 89.1335 64.4674 88.3229 64.0976 88.2159C64.4366 87.4206 65.0146 85.6235 65.292 84.7976C65.6542 83.6965 65.7852 82.2588 65.7852 82.2588C65.7852 82.2588 66.4016 80.4388 67.0643 77.4565C67.727 74.4741 67.0258 73.6023 66.4556 73.3347V73.3118Z" fill="#FAC4B6"/>
<path d="M63.6737 91.3588C63.6506 91.4965 63.6429 91.6112 63.6275 91.6953C63.6275 91.7641 63.535 91.7947 63.4888 91.7412C63.2345 91.5041 62.672 90.9459 62.5872 90.7088C62.4716 90.4029 62.5718 87.9635 63.0727 88.017C63.0727 87.5812 63.0804 86.847 63.065 85.9294C63.0341 84.4076 63.458 82.0447 63.6429 81.5017C63.8279 80.9588 63.2345 79.2459 64.1592 75.4147C64.583 73.6788 65.7543 73.09 66.3631 73.2659C66.1088 73.3959 65.8622 73.6482 65.6619 74.1147C64.7834 76.0953 64.3056 79.8576 64.3596 81.5323C64.4135 83.207 63.4117 88.4453 63.4117 88.4453C63.4117 88.4453 62.5487 89.5235 62.9031 90.3876C63.1266 90.9306 63.458 91.2135 63.6737 91.3435V91.3588Z" fill="#F5B3A6"/>
<path d="M66.7176 72.9065C63.9666 72.5088 63.6429 78.3053 63.6429 78.3053C64.3981 78.9018 65.3459 79.2 66.3092 79.1465L66.8332 79.1159C66.8332 79.1159 67.0875 78.3818 67.3109 77.4259C67.9891 74.4435 67.3495 72.9906 66.7176 72.9065Z" fill="#8FC64E"/>
<path d="M47.0598 58.8971H41.658C41.3575 58.8971 41.1494 58.6524 41.1956 58.3618L41.9508 53.0012C41.9893 52.7029 42.2668 52.4659 42.5673 52.4659H47.9691C48.2696 52.4659 48.4777 52.7106 48.4315 53.0012L47.6763 58.3618C47.6378 58.66 47.3603 58.8971 47.0598 58.8971Z" fill="#1A317A"/>
<path d="M46.636 58.4383H41.2342C40.9336 58.4383 40.7256 58.1936 40.7718 57.903L41.527 52.5424C41.5655 52.2441 41.8429 52.0071 42.1435 52.0071H47.5453C47.8458 52.0071 48.0539 52.2518 48.0076 52.5424L47.2525 57.903C47.2139 58.2012 46.9365 58.4383 46.636 58.4383Z" fill="#2C49A2"/>
<path d="M46.428 53.1465C45.8886 52.7336 45.064 53.0624 44.5786 53.873C44.3243 53.0624 43.5845 52.7336 42.9372 53.1465C42.2822 53.5594 41.9586 54.5535 42.2128 55.3641C42.444 56.1059 44.1162 57.4671 44.1316 57.4671C44.4013 57.3447 46.0735 56.1135 46.5204 55.3641C47.0059 54.5459 46.9674 53.5594 46.428 53.1465Z" fill="url(#paint32_linear_2578_58)"/>
<path d="M43.8696 56.1365C43.7925 56.1365 43.7231 56.0829 43.7077 56.0065L43.3995 54.63C43.3995 54.63 43.3995 54.6147 43.3918 54.6147C43.3764 54.6147 43.361 54.6147 43.3456 54.6453L42.9911 55.3412C42.9526 55.41 42.8832 55.4559 42.8138 55.4559H42.0356C41.9893 55.4559 41.9585 55.4177 41.9585 55.3794C41.9585 55.3412 41.997 55.3029 42.0356 55.3029H42.8138C42.8138 55.3029 42.8447 55.2953 42.8524 55.2724L43.2068 54.5765C43.2454 54.5 43.3301 54.4541 43.4072 54.4618C43.4766 54.4694 43.5382 54.5229 43.5536 54.5918L43.8618 55.9682C43.8618 55.9682 43.8618 55.9835 43.8773 55.9835C43.8927 55.9835 43.9158 55.9759 43.9235 55.9453L44.0545 55.4482C44.0776 55.3565 44.1624 55.2953 44.2471 55.2953H45.6727C45.719 55.2953 45.7498 55.3335 45.7498 55.3718C45.7498 55.41 45.7113 55.4482 45.6727 55.4482H44.2471C44.2471 55.4482 44.2086 55.4635 44.2009 55.4865L44.0699 55.9835C44.0468 56.0753 43.962 56.1365 43.8773 56.1365H43.8696Z" fill="white"/>
<path d="M78.3689 57.5894H80.2723L81.0505 52.7259H79.1472L78.3689 57.5894Z" fill="url(#paint33_linear_2578_58)"/>
<path d="M77.4133 54.217L77.1051 56.1059H82.006L82.3066 54.217H77.4133Z" fill="url(#paint34_linear_2578_58)"/>
<defs>
<linearGradient id="paint0_linear_2578_58" x1="39.2845" y1="22.2142" x2="93.8807" y2="22.2142" gradientUnits="userSpaceOnUse">
<stop stop-color="#1691CF"/>
<stop offset="1" stop-color="#8FC64E"/>
</linearGradient>
<linearGradient id="paint1_linear_2578_58" x1="39.2845" y1="22.2142" x2="93.8807" y2="22.2142" gradientUnits="userSpaceOnUse">
<stop stop-color="#1691CF"/>
<stop offset="1" stop-color="#8FC64E"/>
</linearGradient>
<linearGradient id="paint2_linear_2578_58" x1="39.2845" y1="22.2141" x2="93.8807" y2="22.2141" gradientUnits="userSpaceOnUse">
<stop stop-color="#1691CF"/>
<stop offset="1" stop-color="#8FC64E"/>
</linearGradient>
<linearGradient id="paint3_linear_2578_58" x1="39.2846" y1="22.2142" x2="93.8807" y2="22.2142" gradientUnits="userSpaceOnUse">
<stop stop-color="#1691CF"/>
<stop offset="1" stop-color="#8FC64E"/>
</linearGradient>
<linearGradient id="paint4_linear_2578_58" x1="39.2845" y1="22.2142" x2="93.8807" y2="22.2142" gradientUnits="userSpaceOnUse">
<stop stop-color="#1691CF"/>
<stop offset="1" stop-color="#8FC64E"/>
</linearGradient>
<linearGradient id="paint5_linear_2578_58" x1="39.2845" y1="22.2142" x2="93.8807" y2="22.2142" gradientUnits="userSpaceOnUse">
<stop stop-color="#1691CF"/>
<stop offset="1" stop-color="#8FC64E"/>
</linearGradient>
<linearGradient id="paint6_linear_2578_58" x1="39.2845" y1="22.2141" x2="93.8807" y2="22.2141" gradientUnits="userSpaceOnUse">
<stop stop-color="#1691CF"/>
<stop offset="1" stop-color="#8FC64E"/>
</linearGradient>
<linearGradient id="paint7_linear_2578_58" x1="39.2846" y1="22.2141" x2="93.8807" y2="22.2141" gradientUnits="userSpaceOnUse">
<stop stop-color="#1691CF"/>
<stop offset="1" stop-color="#8FC64E"/>
</linearGradient>
<linearGradient id="paint8_linear_2578_58" x1="39.2845" y1="22.2141" x2="93.8807" y2="22.2141" gradientUnits="userSpaceOnUse">
<stop stop-color="#1691CF"/>
<stop offset="1" stop-color="#8FC64E"/>
</linearGradient>
<linearGradient id="paint9_linear_2578_58" x1="39.2846" y1="22.2141" x2="93.8807" y2="22.2141" gradientUnits="userSpaceOnUse">
<stop stop-color="#1691CF"/>
<stop offset="1" stop-color="#8FC64E"/>
</linearGradient>
<linearGradient id="paint10_linear_2578_58" x1="39.2846" y1="22.2141" x2="93.8807" y2="22.2141" gradientUnits="userSpaceOnUse">
<stop stop-color="#1691CF"/>
<stop offset="1" stop-color="#8FC64E"/>
</linearGradient>
<linearGradient id="paint11_linear_2578_58" x1="39.2845" y1="22.2141" x2="93.8808" y2="22.2141" gradientUnits="userSpaceOnUse">
<stop stop-color="#1691CF"/>
<stop offset="1" stop-color="#8FC64E"/>
</linearGradient>
<linearGradient id="paint12_linear_2578_58" x1="39.2845" y1="22.2141" x2="93.8807" y2="22.2141" gradientUnits="userSpaceOnUse">
<stop stop-color="#1691CF"/>
<stop offset="1" stop-color="#8FC64E"/>
</linearGradient>
<linearGradient id="paint13_linear_2578_58" x1="35.9556" y1="104.183" x2="35.9556" y2="83.7271" gradientUnits="userSpaceOnUse">
<stop stop-color="#1691CF"/>
<stop offset="1" stop-color="#8FC64E"/>
</linearGradient>
<linearGradient id="paint14_linear_2578_58" x1="48.7165" y1="68.1271" x2="54.3764" y2="78.0064" gradientUnits="userSpaceOnUse">
<stop stop-color="#A7C1FF"/>
<stop offset="0.03" stop-color="#ACC5FF"/>
<stop offset="0.19" stop-color="#CAD9FF"/>
<stop offset="0.36" stop-color="#E1EAFF"/>
<stop offset="0.54" stop-color="#F2F5FF"/>
<stop offset="0.74" stop-color="#FBFCFF"/>
<stop offset="1" stop-color="white"/>
</linearGradient>
<linearGradient id="paint15_linear_2578_58" x1="43.0142" y1="67.9206" x2="37.7973" y2="67.9206" gradientUnits="userSpaceOnUse">
<stop stop-color="#2C49A2"/>
<stop offset="1"/>
</linearGradient>
<linearGradient id="paint16_linear_2578_58" x1="45.0563" y1="86.6406" x2="50.5968" y2="86.6406" gradientUnits="userSpaceOnUse">
<stop stop-color="#A7C1FF"/>
<stop offset="1" stop-color="white"/>
</linearGradient>
<linearGradient id="paint17_linear_2578_58" x1="46.4202" y1="66.0624" x2="40.8026" y2="66.0624" gradientUnits="userSpaceOnUse">
<stop stop-color="#2C49A2"/>
<stop offset="1"/>
</linearGradient>
<linearGradient id="paint18_linear_2578_58" x1="32.6499" y1="102.195" x2="48.4322" y2="93.0129" gradientUnits="userSpaceOnUse">
<stop stop-color="#000102"/>
<stop offset="0.1" stop-color="#0B1329"/>
<stop offset="0.21" stop-color="#152249"/>
<stop offset="0.32" stop-color="#1D2F64"/>
<stop offset="0.45" stop-color="#233879"/>
<stop offset="0.58" stop-color="#273F88"/>
<stop offset="0.75" stop-color="#2A4391"/>
<stop offset="1" stop-color="#2B4594"/>
</linearGradient>
<linearGradient id="paint19_linear_2578_58" x1="38.5356" y1="109.942" x2="36.6995" y2="111.483" gradientUnits="userSpaceOnUse">
<stop/>
<stop offset="0.2" stop-color="#0A1023"/>
<stop offset="0.58" stop-color="#1B2C60"/>
<stop offset="0.85" stop-color="#263E85"/>
<stop offset="1" stop-color="#2B4594"/>
</linearGradient>
<linearGradient id="paint20_linear_2578_58" x1="46.3741" y1="112.289" x2="46.3741" y2="114.904" gradientUnits="userSpaceOnUse">
<stop/>
<stop offset="0.2" stop-color="#0A1023"/>
<stop offset="0.58" stop-color="#1B2C60"/>
<stop offset="0.85" stop-color="#263E85"/>
<stop offset="1" stop-color="#2B4594"/>
</linearGradient>
<linearGradient id="paint21_linear_2578_58" x1="46.1505" y1="84.3391" x2="37.5045" y2="84.3391" gradientUnits="userSpaceOnUse">
<stop stop-color="white"/>
<stop offset="0.17" stop-color="#EAF0FF"/>
<stop offset="0.53" stop-color="#C5D6FF"/>
<stop offset="0.82" stop-color="#AFC6FF"/>
<stop offset="1" stop-color="#A7C1FF"/>
</linearGradient>
<linearGradient id="paint22_linear_2578_58" x1="35.3469" y1="78.5271" x2="42.9835" y2="78.5271" gradientUnits="userSpaceOnUse">
<stop stop-color="#A7C1FF"/>
<stop offset="0.03" stop-color="#ACC5FF"/>
<stop offset="0.19" stop-color="#CAD9FF"/>
<stop offset="0.36" stop-color="#E1EAFF"/>
<stop offset="0.54" stop-color="#F2F5FF"/>
<stop offset="0.74" stop-color="#FBFCFF"/>
<stop offset="1" stop-color="white"/>
</linearGradient>
<linearGradient id="paint23_linear_2578_58" x1="20.8289" y1="110.752" x2="20.8289" y2="106.989" gradientUnits="userSpaceOnUse">
<stop stop-color="#1691CF"/>
<stop offset="1" stop-color="#8FC64E"/>
</linearGradient>
<linearGradient id="paint24_linear_2578_58" x1="21.9541" y1="110.652" x2="21.9541" y2="107.701" gradientUnits="userSpaceOnUse">
<stop stop-color="#1691CF"/>
<stop offset="1" stop-color="#8FC64E"/>
</linearGradient>
<linearGradient id="paint25_linear_2578_58" x1="29.66" y1="111.784" x2="34.5378" y2="111.784" gradientUnits="userSpaceOnUse">
<stop stop-color="#1691CF"/>
<stop offset="1" stop-color="#8FC64E"/>
</linearGradient>
<linearGradient id="paint26_linear_2578_58" x1="31.1858" y1="111.272" x2="34.4454" y2="111.272" gradientUnits="userSpaceOnUse">
<stop stop-color="#1691CF"/>
<stop offset="1" stop-color="#8FC64E"/>
</linearGradient>
<linearGradient id="paint27_linear_2578_58" x1="116.004" y1="75.9959" x2="116.004" y2="70.9259" gradientUnits="userSpaceOnUse">
<stop stop-color="#1691CF"/>
<stop offset="1" stop-color="#8FC64E"/>
</linearGradient>
<linearGradient id="paint28_linear_2578_58" x1="74.6006" y1="111.891" x2="67.6037" y2="111.891" gradientUnits="userSpaceOnUse">
<stop/>
<stop offset="0.2" stop-color="#0A1023"/>
<stop offset="0.58" stop-color="#1B2C60"/>
<stop offset="0.85" stop-color="#263E85"/>
<stop offset="1" stop-color="#2B4594"/>
</linearGradient>
<linearGradient id="paint29_linear_2578_58" x1="72.9362" y1="98.6082" x2="68.3589" y2="98.6082" gradientUnits="userSpaceOnUse">
<stop stop-color="#2C49A2"/>
<stop offset="0.06" stop-color="#2B469B"/>
<stop offset="0.46" stop-color="#273B79"/>
<stop offset="0.79" stop-color="#243464"/>
<stop offset="1" stop-color="#24325D"/>
</linearGradient>
<linearGradient id="paint30_linear_2578_58" x1="68.1047" y1="113.229" x2="61.1" y2="113.229" gradientUnits="userSpaceOnUse">
<stop/>
<stop offset="0.2" stop-color="#0A1023"/>
<stop offset="0.58" stop-color="#1B2C60"/>
<stop offset="0.85" stop-color="#263E85"/>
<stop offset="1" stop-color="#2B4594"/>
</linearGradient>
<linearGradient id="paint31_linear_2578_58" x1="69.7537" y1="63.9135" x2="69.7537" y2="70.5206" gradientUnits="userSpaceOnUse">
<stop stop-color="#2C49A2"/>
<stop offset="1"/>
</linearGradient>
<linearGradient id="paint32_linear_2578_58" x1="52.7699" y1="57.4671" x2="52.7699" y2="52.9706" gradientUnits="userSpaceOnUse">
<stop stop-color="#1691CF"/>
<stop offset="1" stop-color="#8FC64E"/>
</linearGradient>
<linearGradient id="paint33_linear_2578_58" x1="78.3689" y1="55.1577" x2="81.0505" y2="55.1577" gradientUnits="userSpaceOnUse">
<stop stop-color="#1691CF"/>
<stop offset="1" stop-color="#8FC64E"/>
</linearGradient>
<linearGradient id="paint34_linear_2578_58" x1="77.1051" y1="55.1576" x2="82.3066" y2="55.1576" gradientUnits="userSpaceOnUse">
<stop stop-color="#1691CF"/>
<stop offset="1" stop-color="#8FC64E"/>
</linearGradient>
</defs>
</svg>
