<svg width="21" height="21" viewBox="0 0 21 21" fill="none" xmlns="http://www.w3.org/2000/svg">
<path d="M10.0469 0.25C15.4572 0.250226 19.8428 4.63648 19.8428 10.0469C19.8425 15.4571 15.4571 19.8425 10.0469 19.8428C4.63648 19.8428 0.250228 15.4572 0.25 10.0469C0.25 4.63634 4.63634 0.25 10.0469 0.25Z" stroke="white" stroke-width="0.5"/>
<path d="M12.7724 4.77637H7.32083C5.91611 4.77637 4.77686 5.91562 4.77686 7.32034V12.7719C4.77686 14.1766 5.91611 15.3158 7.32083 15.3158H12.7724C14.1771 15.3158 15.3163 14.1766 15.3163 12.7719V7.32034C15.3163 5.91562 14.1771 4.77637 12.7724 4.77637ZM14.4077 12.5898C14.4077 13.5931 13.5935 14.4072 12.5903 14.4072H7.50236C6.49913 14.4072 5.68503 13.5931 5.68503 12.5898V7.50187C5.68503 6.49865 6.49913 5.68453 7.50236 5.68453H12.5903C13.5935 5.68453 14.4077 6.49865 14.4077 7.50187V12.5898Z" fill="white"/>
<path d="M10.0519 7.32031C8.54759 7.32031 7.32642 8.54148 7.32642 10.0458C7.32642 11.5502 8.54759 12.7713 10.0519 12.7713C11.5563 12.7713 12.7774 11.5502 12.7774 10.0458C12.7774 8.54148 11.5563 7.32031 10.0519 7.32031ZM10.0519 11.8632C9.05072 11.8632 8.23458 11.047 8.23458 10.0458C8.23458 9.04461 9.05072 8.22848 10.0519 8.22848C11.0531 8.22848 11.8693 9.04461 11.8693 10.0458C11.8693 11.047 11.0531 11.8632 10.0519 11.8632Z" fill="white"/>
<path d="M12.9597 7.68395C12.6593 7.68395 12.4146 7.43921 12.4146 7.13885C12.4146 6.83849 12.6593 6.59375 12.9597 6.59375C13.26 6.59375 13.5048 6.83849 13.5048 7.13885C13.5048 7.43921 13.26 7.68395 12.9597 7.68395Z" fill="white"/>
</svg>
