<svg width="42" height="42" viewBox="0 0 42 42" fill="none" xmlns="http://www.w3.org/2000/svg">
<path d="M21 2.13281C25.3522 2.13685 29.5692 3.64487 32.937 6.40152C36.3049 9.15816 38.6165 12.994 39.4805 17.2596C40.3446 21.5251 39.7079 25.9582 37.6783 29.8081C35.6487 33.6581 32.351 36.6883 28.3434 38.3857C23.7411 40.286 18.5742 40.2905 13.9685 38.3982C9.36287 36.506 5.69159 32.8703 3.75455 28.2833C1.8175 23.6962 1.77165 18.5296 3.62698 13.9089C5.48231 9.28826 9.08848 5.588 13.6598 3.6143C15.9821 2.63214 18.4786 2.12827 21 2.13281ZM21 0C9.40242 0 0 9.40242 0 21C0 32.5976 9.40242 42 21 42C32.5976 42 42 32.5976 42 21C42 9.40242 32.5976 0 21 0Z" fill="#0492D2"/>
<path d="M31.5172 23.1977H10.4828C9.89993 23.1977 9.34096 22.9662 8.92882 22.5541C8.51669 22.1419 8.28516 21.583 8.28516 21.0001C8.28516 20.4173 8.51669 19.8583 8.92882 19.4462C9.34096 19.034 9.89993 18.8025 10.4828 18.8025H31.5172C31.8058 18.8025 32.0916 18.8593 32.3582 18.9698C32.6248 19.0802 32.8671 19.2421 33.0712 19.4462C33.2752 19.6502 33.4371 19.8925 33.5476 20.1591C33.658 20.4257 33.7148 20.7115 33.7148 21.0001C33.7148 21.2887 33.658 21.5745 33.5476 21.8411C33.4371 22.1077 33.2752 22.35 33.0712 22.5541C32.8671 22.7581 32.6248 22.92 32.3582 23.0304C32.0916 23.1409 31.8058 23.1977 31.5172 23.1977Z" fill="#0492D2"/>
</svg>
