<svg width="21" height="21" viewBox="0 0 21 21" fill="none" xmlns="http://www.w3.org/2000/svg">
<path d="M10.0469 0.25C15.4572 0.250226 19.8428 4.63648 19.8428 10.0469C19.8425 15.4571 15.4571 19.8425 10.0469 19.8428C4.63648 19.8428 0.250228 15.4572 0.25 10.0469C0.25 4.63634 4.63634 0.25 10.0469 0.25Z" stroke="white" stroke-width="0.5"/>
<path d="M6.48856 7.36092C7.20321 7.36092 7.78255 6.78158 7.78255 6.06693C7.78255 5.35228 7.20321 4.77295 6.48856 4.77295C5.77391 4.77295 5.19458 5.35228 5.19458 6.06693C5.19458 6.78158 5.77391 7.36092 6.48856 7.36092Z" fill="white"/>
<path d="M7.46997 8.22314H5.50649C5.45315 8.22314 5.40991 8.26639 5.40991 8.31973V14.596C5.40991 14.6493 5.45315 14.6926 5.50649 14.6926H7.46997C7.52331 14.6926 7.56655 14.6493 7.56655 14.596V8.31973C7.56655 8.26639 7.52331 8.22314 7.46997 8.22314Z" fill="white"/>
<path d="M14.8991 10.5953V14.2613C14.8991 14.4985 14.7049 14.6927 14.4678 14.6927H13.1738C12.9366 14.6927 12.7425 14.4985 12.7425 14.2613V11.242C12.7425 10.6469 12.2596 10.164 11.6644 10.164C11.0692 10.164 10.5863 10.6469 10.5863 11.242V14.2613C10.5863 14.4985 10.3922 14.6927 10.155 14.6927H8.86102C8.62386 14.6927 8.42969 14.4985 8.42969 14.2613V8.65406C8.42969 8.4169 8.62386 8.22273 8.86102 8.22273H10.155C10.3922 8.22273 10.5863 8.4169 10.5863 8.65406V8.93015C11.0177 8.3714 11.7316 8.00732 12.5271 8.00732C13.7174 8.00732 14.8991 8.86998 14.8991 10.5953Z" fill="white"/>
</svg>
