<svg width="42" height="44" viewBox="0 0 42 44" fill="none" xmlns="http://www.w3.org/2000/svg">
<path d="M21 2.20511C25.3522 2.20929 29.5692 3.76843 32.937 6.61852C36.3049 9.46861 38.6165 13.4345 39.4805 17.8446C40.3446 22.2548 39.7079 26.8381 37.6783 30.8186C35.6487 34.799 32.351 37.932 28.3434 39.6869C23.7411 41.6516 18.5742 41.6562 13.9685 39.6998C9.36287 37.7434 5.69159 33.9845 3.75455 29.242C1.8175 24.4995 1.77165 19.1577 3.62698 14.3804C5.48231 9.60311 9.08848 5.77742 13.6598 3.73682C15.9821 2.72137 18.4786 2.20042 21 2.20511ZM21 0C9.40242 0 0 9.72115 0 21.7119C0 33.7026 9.40242 43.4237 21 43.4237C32.5976 43.4237 42 33.7026 42 21.7119C42 9.72115 32.5976 0 21 0Z" fill="#0492D2"/>
<path d="M31.5172 23.9842H10.4828C9.89993 23.9842 9.34096 23.7448 8.92882 23.3187C8.51669 22.8926 8.28516 22.3147 8.28516 21.7121C8.28516 21.1095 8.51669 20.5315 8.92882 20.1054C9.34096 19.6793 9.89993 19.4399 10.4828 19.4399H31.5172C31.8058 19.4399 32.0916 19.4987 32.3582 19.6129C32.6248 19.7271 32.8671 19.8944 33.0712 20.1054C33.2752 20.3164 33.4371 20.5669 33.5476 20.8426C33.658 21.1182 33.7148 21.4137 33.7148 21.7121C33.7148 22.0104 33.658 22.3059 33.5476 22.5816C33.4371 22.8572 33.2752 23.1077 33.0712 23.3187C32.8671 23.5297 32.6248 23.697 32.3582 23.8112C32.0916 23.9254 31.8058 23.9842 31.5172 23.9842Z" fill="#0492D2"/>
</svg>
