<?xml version="1.0" encoding="UTF-8"?>
<svg id="Layer_1" xmlns="http://www.w3.org/2000/svg" version="1.1" viewBox="0 0 33.7 33.7">
  <!-- Generator: Adobe Illustrator 29.6.0, SVG Export Plug-In . SVG Version: 2.1.1 Build 207)  -->
  <defs>
    <style>
      .st0 {
        fill: #fefefe;
      }

      .st0, .st1, .st2, .st3, .st4 {
        fill-rule: evenodd;
      }

      .st1 {
        fill: #373435;
      }

      .st2 {
        fill: #00afef;
      }

      .st3 {
        fill: #ed3237;
      }

      .st4 {
        fill: #c7eafb;
      }
    </style>
  </defs>
  <path class="st0" d="M16.9,1c8.8,0,15.9,7.1,15.9,15.9s-7.1,15.9-15.9,15.9S1,25.6,1,16.9,8.1,1,16.9,1"/>
  <polygon class="st4" points="14.3 16.2 14.3 12.4 15.1 12.4 15.1 13.9 18.8 13.9 18.8 12.4 19.6 12.4 19.6 16.2 18.8 16.2 18.8 14.6 15.1 14.6 15.1 16.2 14.3 16.2"/>
  <path class="st2" d="M17,6.1c4.4,0,8,3.6,8,8,0,4.4-3.6,8-8,8s-8-3.6-8-8c0-4.4,3.6-8,8-8M16.9,9.7c2.5,0,4.4,2,4.4,4.4s-2,4.4-4.4,4.4c-2.5,0-4.4-2-4.4-4.4s2-4.4,4.4-4.4Z"/>
  <polygon class="st3" points="10.6 22 23.3 22 17 14.6 10.6 22"/>
  <path class="st2" d="M13.7,21.4h4.8c-1.9-1.4-3.9-3-5.2-4.6l-1.6,3.1c.6.6,1.3,1.1,2,1.4"/>
  <path class="st3" d="M16.9,5.5c6.3,0,11.3,5.1,11.3,11.3s-5.1,11.3-11.3,11.3-11.3-5.1-11.3-11.3,5.1-11.3,11.3-11.3h0ZM16.9,1.8c8.3,0,15.1,6.8,15.1,15.1,0,8.3-6.8,15.1-15.1,15.1S1.8,25.2,1.8,16.9c0-8.3,6.8-15.1,15.1-15.1Z"/>
  <path class="st0" d="M29.2,16h1.5c0,0,0,1.1,0,1.1h-.3s0-.8,0-.8h-.3s0,.8,0,.8h-.3s0-.8,0-.8h-.4s0,.9,0,.9h-.3s0-1.1,0-1.1ZM29.9,14.7v.2c0,.1,0,.2,0,.3,0,0,0,0,0,0,0,0,0,0,.1,0,0,0,0,0,.1,0,0,0,0,0,0-.1,0,0,0,0,0-.2v-.2s-.4,0-.4,0ZM29,14.5l1.5-.2v.6c0,.2,0,.3,0,.4,0,0,0,.1-.1.2,0,0-.1,0-.2,0-.1,0-.2,0-.3,0,0,0-.1-.2-.2-.3,0,0,0,.1-.1.2,0,0-.1.1-.2.2l-.3.2v-.4s.3-.3.3-.3c.1,0,.2-.2.2-.2,0,0,0,0,0,0,0,0,0,0,0-.2h0c0,0-.6,0-.6,0v-.3ZM29.4,13.6l.5-.4h-.6s.1.4.1.4ZM29,14.4v-.3c0,0,.2-.2.2-.2l-.2-.6h-.4s0-.3,0-.3h1.6c0,.1,0,.5,0,.5l-1.3,1ZM28.9,12.3v.3c-.1,0-.3,0-.4,0-.1,0-.2-.2-.3-.3,0-.2,0-.4,0-.5,0-.2.2-.3.4-.4.2,0,.4-.1.6,0,.2,0,.3.2.4.4,0,.2,0,.3,0,.5,0,0-.1.2-.2.2l-.2-.3c0,0,.1-.1.1-.2,0,0,0-.1,0-.2,0-.1-.1-.2-.2-.2-.1,0-.2,0-.4,0-.2,0-.3.2-.3.2,0,0,0,.2,0,.3,0,0,0,.1.2.2,0,0,.2,0,.3,0ZM27.1,10l1.3-.8.6.9h-.2c0,.1-.4-.5-.4-.5l-.3.2.3.5h-.2c0,.1-.3-.4-.3-.4l-.5.4-.2-.3ZM26.9,8.4c-.1.1-.2.2-.2.3,0,.1,0,.2,0,.3,0,0,.2.1.3.1.1,0,.2,0,.4-.2.1-.1.2-.2.2-.3,0-.1,0-.2,0-.3,0,0-.2-.1-.3-.2-.1,0-.2,0-.4.2ZM26.7,8.2c.1,0,.2-.2.3-.2,0,0,.2,0,.2,0,0,0,.2,0,.2,0,0,0,.2.1.3.2.1.2.2.4.2.5,0,.2-.1.4-.3.5-.2.2-.4.2-.6.2-.2,0-.4-.1-.5-.3-.1-.2-.2-.4-.2-.5,0-.2.1-.4.3-.5ZM25,7.6l.4-.5v-1c.1,0,.4.2.4.2v.7c-.1,0,.5-.2.5-.2l.3.2-1,.3-.4.5-.2-.2ZM23.9,6.7l.7-1-.4-.3v-.2c.1,0,1.1.7,1.1.7v.2c-.1,0-.5-.3-.5-.3l-.7,1-.3-.2ZM23.2,6.2l.8-1.3.3.2-.8,1.3-.3-.2ZM22,5.6l.7-1.3h.3c0,.1-.5,1.3-.5,1.3l.7.3v.2c-.1,0-1.1-.5-1.1-.5ZM21.6,4.8v-.6s-.4.5-.4.5h.4ZM21.9,5.6h-.3v-.5l-.6-.2-.2.3h-.3c0-.1,1.1-1.3,1.1-1.3h.3c0,.1,0,1.7,0,1.7ZM19.5,3.2h.3c0,0-.2.9-.2.9,0,.1,0,.2,0,.2,0,0,0,.1,0,.2,0,0,.1,0,.2.1,0,0,.2,0,.2,0,0,0,0,0,.1-.1,0,0,0-.1,0-.2l.2-.8h.3c0,0-.2.8-.2.8,0,.2,0,.3-.1.4,0,0,0,.1-.1.2,0,0-.1,0-.2,0,0,0-.2,0-.3,0-.1,0-.2,0-.3-.1,0,0-.1-.1-.1-.2,0,0,0-.1,0-.2,0,0,0-.2,0-.4l.2-.8ZM18.5,4.2s0,0,.1-.2c0,0,0-.1,0-.2,0-.2,0-.3,0-.4,0,0-.2-.1-.3-.2-.1,0-.2,0-.3,0,0,0-.1.2-.2.4,0,.2,0,.3,0,.4,0,0,.2.1.3.2,0,0,0,0,.1,0,0,0-.1,0-.2-.1v-.2c.2,0,.3.1.4.2ZM18.7,4.4c0,0,.1.1.2.2v.2c-.2,0-.2,0-.3,0,0,0,0,0-.2-.2-.1,0-.2,0-.3,0-.2,0-.4-.1-.5-.3-.1-.1-.2-.3-.1-.6,0-.2.1-.4.3-.6.1-.1.3-.2.6-.1.2,0,.4.1.5.3.1.2.2.3.1.6,0,.1,0,.2,0,.3,0,0,0,.1-.2.2ZM15.8,3.9c0,0-.1,0-.1.1,0,0,0,0,0,.1,0,0,0,.1,0,.1,0,0,0,0,.2,0,0,0,0,0,.1,0,0,0,0,0,.1,0l-.3-.3ZM15.9,3.5h0c0-.1,0-.2,0-.2,0,0,0,0,0,0,0,0,0,0-.1,0,0,0,0,0-.1,0,0,0,0,0,0,0,0,0,0,0,0,.1h0ZM16.7,4.3l-.2.2c0,0-.2,0-.3-.2,0,0-.1.1-.2.1,0,0-.1,0-.2,0-.2,0-.3,0-.4-.1,0,0-.1-.2-.1-.3,0,0,0-.2,0-.3,0,0,.1-.2.2-.2,0,0,0-.1-.1-.2,0,0,0-.1,0-.2,0,0,0-.2,0-.2,0,0,.2-.1.3-.1.1,0,.2,0,.3,0,0,0,.1.1.1.2,0,0,0,.1,0,.2,0,0-.1.1-.2.2l.2.3s0-.1,0-.2h.3c0,.1,0,.2,0,.2,0,0,0,0,0,.1,0,0,0,0,.1,0,0,0,0,0,.1,0ZM13.9,4.9v-.6c-.1,0-.9-.7-.9-.7h.4c0,0,.5.4.5.4l.2-.7h.3c0,0-.4.9-.4.9v.6c.1,0-.2,0-.2,0ZM12.6,5.3l-.4-1.2h-.4c0,.1,0-.1,0-.1l1.1-.4v.2c0,0-.3.1-.3.1l.4,1.2h-.3ZM11,6l-.7-1.4,1-.5v.2c.1,0-.6.4-.6.4v.3c.1,0,.8-.3.8-.3v.2c.1,0-.6.3-.6.3l.2.4.8-.4v.2c.1,0-.9.5-.9.5ZM9.9,6.7l-.8-1.3.9-.5v.2c.1,0-.5.4-.5.4l.2.3.5-.3v.2c.1,0-.4.3-.4.3l.3.5-.3.2ZM8.9,6.6l-.5-.3.2.6.3-.3ZM9.7,6.8l-.3.2-.3-.2-.5.4v.3c.1,0-.1.2-.1.2l-.5-1.6.3-.2,1.4.8ZM7.3,8.3l.2-.2c0,0,.2,0,.2,0,0,0,.1,0,.2-.1,0,0,.1-.1.1-.2,0,0,0-.1,0-.2,0,0,0,0,0,0,0,0,0,0-.1,0,0,0-.1,0-.2.1-.1,0-.3.1-.3.1-.1,0-.2,0-.3-.1,0,0,0-.1-.1-.2,0,0,0-.2,0-.2,0,0,0-.2.2-.3.1-.1.3-.2.4-.2.1,0,.2,0,.3.1l-.2.2c0,0-.1,0-.2,0,0,0-.1,0-.2.1,0,0,0,.1-.1.2,0,0,0,0,0,.1,0,0,0,0,0,0,0,0,.1,0,.3-.1.1,0,.2-.1.3-.2,0,0,.2,0,.2,0,0,0,.1,0,.2.1,0,0,.1.1.1.2,0,0,0,.2,0,.3,0,0,0,.2-.2.3-.1.1-.3.2-.4.2-.1,0-.3,0-.4-.1ZM6.7,9.8l-1-.7-.3.4-.2-.2.7-1,.2.2-.3.4,1,.7-.2.2ZM5.7,11.4l-1.3-.8v-.3c.1,0,1.3,0,1.3,0l-.9-.5v-.2c.1,0,1.5.8,1.5.8l-.2.3h-1.2s.9.5.9.5v.2ZM5.2,12.7l-1.4-.6.4-1h.2c0,0-.3.9-.3.9h.3c0,.1.3-.6.3-.6h.2c0,0-.3.8-.3.8l.4.2.3-.8h.2c0,0-.4,1.2-.4,1.2ZM5,13.3l-1.4-.5v-.3c0,0,1.5.5,1.5.5v.3ZM4.8,14.2l-1.2-.3v.4c-.1,0-.4,0-.4,0l.3-1.2h.2c0,0-.1.5-.1.5l1.2.3v.3ZM4,15h-.6c0,.1.5.4.5.4v-.4ZM4.7,14.5v.3s-.4,0-.4,0v.6c0,0,.2.2.2.2v.3s-1.5-.8-1.5-.8v-.3s1.6-.4,1.6-.4ZM3.2,16.8h.4s0-.2,0-.2c0-.1,0-.2,0-.2,0,0,0,0,0,0,0,0,0,0-.1,0,0,0-.1,0-.1,0,0,0,0,0,0,.1,0,0,0,.1,0,.2h0ZM4.5,17.1h-1.5c0,0,0-.5,0-.5,0-.2,0-.3,0-.4,0,0,0-.2.2-.2,0,0,.2,0,.3,0,0,0,.2,0,.2,0,0,0,.1,0,.1.1,0,0,0,.1,0,.2,0,0,0,.2,0,.3v.2s.6,0,.6,0v.3Z"/>
  <path class="st2" d="M21.4,25.5v-2.8h.6v1.1h1.1v-1.1h.6v2.8h-.6v-1.2h-1.1v1.2h-.6ZM18.4,24.3v.7h.5c.2,0,.3,0,.4,0,0,0,.2,0,.2-.1,0,0,0-.1,0-.2s0-.2,0-.2c0,0,0-.1-.2-.1,0,0-.2,0-.5,0h-.5ZM18.4,23.2v.6h.4c.2,0,.4,0,.4,0,0,0,.2,0,.2,0,0,0,0-.1,0-.2,0,0,0-.2,0-.2,0,0-.1,0-.2,0,0,0-.2,0-.5,0h-.3ZM17.8,22.7h1.1c.2,0,.4,0,.5,0,.1,0,.2,0,.3.1,0,0,.2.1.2.2,0,0,0,.2,0,.3s0,.3-.1.4c0,.1-.2.2-.3.2.2,0,.3.1.4.3,0,.1.1.3.1.4,0,.1,0,.3,0,.4,0,.1-.1.2-.2.3-.1,0-.2.1-.4.1,0,0-.3,0-.7,0h-1v-2.8ZM15.7,24.4l-.4-1-.4,1h.8ZM16.7,25.5h-.6l-.2-.6h-1.1l-.2.6h-.6l1.1-2.8h.6l1.1,2.8ZM10.6,25.5v-2.8h.5l1.1,1.9v-1.9h.5v2.8h-.6l-1.1-1.8v1.8h-.5Z"/>
  <path class="st1" d="M16.9,18c0-.2,0-.4,0-.7t0,0h0s0,0,0,0c0,0,0,0,0,0,0,0,.2,0,.2-.1,0,0,0,0,0,0h0s0,0,.1,0h0s0,0,.1.1c-.2,0-.3,0-.5-.2,0,.2,0,.5,0,.7h-.1"/>
  <path class="st1" d="M16.3,17.4c.2-.2.5-.4.7-.5,0,0,0,0,0-.1,0,0-.1.2-.2.2v-.2c.2,0,.4-.1.6-.2h0s0,0,0,0c0,.2,0,.3-.2.4-.3.1-.6.3-.9.4"/>
  <path class="st1" d="M16.7,17.1c-.3-.3-.3-.5.2-.7,0,0,0,0,0,0q.2,0,.2,0h0c0,0,.2-.2,0-.2,0,0,0,0,0,.1,0,0-.1,0-.2.1,0,0,0,0,0-.1h0s0,0,0,0c0,0,.3-.1.4-.1h0c0,0,.2,0,.2,0,0,.1,0,.5-.1.6,0,.2-.5.1-.6.3,0,0,0,.2,0,.3,0,0,0,0-.1,0"/>
  <path class="st1" d="M16.5,16.5c-.2-.2-.2-.6,0-.7,0,0,0,0,0,0,.2,0,.5-.2.7-.3,0-.2,0-.2-.2-.3v.4c0,0-.2,0-.2,0,0-.1,0-.2,0-.4.3-.1.4-.1.7-.2.3,0,.2.6.1.7-.2.2-.6.3-.9.4,0,0,0,.1,0,.2,0,0-.2.1-.3.2h0"/>
  <path class="st1" d="M16.4,15.7c-.7-.6.1-1,.7-1.2.2-.1.4-.2.2-.5,0,0,0,0,0,0,.2,0,.4,0,.6-.1.4.8-.6,1-1.1,1.2-.2.2-.1.3,0,.4-.2,0-.3.1-.4.2h0Z"/>
  <path class="st1" d="M16.3,14.8c-.1-.1-.3-.2-.3-.4v-.2c.3-.7.9-.6,1.6-.7.2,0,.6-.1.5-.4,0,0-.1,0-.2,0-.2.1-.4.2-.6,0,0-.6.6-.5,1-.3.4.3.2.6-.2.9-.3.1-.5.2-.8.3-.2,0-.9,0-.7.4,0,0,.1.1.2.2,0,0,0,0,0,0-.2,0-.3.1-.5.2"/>
  <path class="st1" d="M16.8,14.5c0-.2,0-.3,0-.5,0,0,.2,0,.3,0,0,.1,0,.3,0,.4,0,0-.2,0-.2,0"/>
  <path class="st1" d="M16.1,13.8c-.3-.2-.7-.4-.5-.9.2-.3.7-.3,1-.2.3.3,0,.5-.3.4-.1,0-.2-.1-.3-.1,0,.2,0,.2.3.3q.2,0,.5,0c-.1,0-.5.2-.5.3h0"/>
  <path class="st1" d="M16.9,10.6h0c.3,0,.5.5.1.7,0,.7,0,1.4,0,2.1h-.3c0-.7,0-1.4,0-2.1-.3-.2-.3-.5,0-.7,0,0,0,0,0,0"/>
  <path class="st1" d="M14,11.5h0c.5,0,1.1,0,1.6-.1.2,0,.7-.3.9,0,0,.2,0,.2.3.2v.9c-.4,0-.9.2-1.1-.2,0,0,0,0-.1,0-.3,0-.5,0-.6-.2-.2,0-.4,0-.4-.3-.2,0-.3,0-.4,0q-.1-.2-.1-.2"/>
  <path class="st1" d="M19.9,11.5h0c-.1.3-.3.3-.6.3,0,.3-.2.2-.4.3,0,.3-.2.3-.5.3,0,0-.2,0-.2,0-.2.4-.7.3-1.1.2,0-.3,0-.6,0-.9.2,0,.2,0,.3-.3.2-.1.5,0,.6,0,.6.1,1.2.1,1.8.1"/>
  <path class="st0" d="M24,28.2c0,0,0,.1,0,.2,0,0,0,.1-.1.2,0,0-.1,0-.2,0,0,0-.1,0-.2-.1,0,0,0-.1,0-.2,0,0,0-.1.1-.2,0,0,.1,0,.2,0,0,0,.1,0,.2.1M21.9,28.7l.4.8h.2c0-.1.1-.1.1-.2,0,0,0,0,0,0,0,0,0,0,0-.2,0,0,0-.1,0-.2,0,0,0-.2-.1-.2,0,0,0,0-.1,0,0,0,0,0-.1,0,0,0-.1,0-.2,0h-.1ZM21.6,28.7l.5-.2c.1,0,.2,0,.2,0,0,0,.2,0,.2,0,0,0,.2,0,.2.1,0,0,.1.2.2.3,0,.1,0,.2,0,.3,0,.1,0,.2,0,.3,0,0,0,.1-.1.2,0,0-.1,0-.2.1l-.5.2-.6-1.3ZM20.9,30.3l-.5-1.3,1-.3v.2c0,0-.6.2-.6.2v.3c.1,0,.8-.2.8-.2v.2c0,0-.6.2-.6.2v.4c.1,0,.9-.3.9-.3v.2c0,0-.9.3-.9.3ZM19.9,30.6l-.3-1.1h-.4c0,0,0-.1,0-.1l1.1-.3v.2c0,0-.3,0-.3,0l.3,1.1h-.3ZM19,30.7l-.2-1.4h.3s.2,1.3.2,1.3h-.3ZM17.7,29.7v.9c0,0,.3,0,.3,0,0,0,.1,0,.2,0,0,0,0,0,.1,0,0,0,0,0,0-.1,0,0,0-.1,0-.3,0-.1,0-.2,0-.2,0,0,0,0,0-.1,0,0,0,0-.1,0,0,0-.1,0-.2,0h-.1ZM17.4,29.5h.5c.1,0,.2,0,.3,0,0,0,.2,0,.2.1,0,0,.1.1.2.2,0,0,0,.2,0,.3,0,.1,0,.2,0,.3,0,.1,0,.2-.1.3,0,0-.1,0-.2.1,0,0-.1,0-.2,0h-.5s-.1-1.3-.1-1.3ZM16.2,30.9v-1.4s1.1,0,1.1,0v.2s-.8,0-.8,0v.3s.7,0,.7,0v.2s-.7,0-.7,0v.4s.8,0,.8,0v.2s-1.1,0-1.1,0ZM15.1,30h.2c.1,0,.2,0,.3,0,0,0,0,0,0,0,0,0,0,0,0,0,0,0,0,0,0-.1,0,0,0,0,0,0,0,0,0,0-.2,0h-.2s0,.3,0,.3ZM14.7,30.7l.2-1.4h.6c.1.1.3.1.3.2,0,0,.1,0,.1.2,0,0,0,.1,0,.2,0,.1,0,.2-.1.2,0,0-.2,0-.3,0,0,0,0,0,.1.1,0,0,0,.1.1.2v.3c.1,0-.2,0-.2,0l-.2-.3c0-.1,0-.2-.1-.2,0,0,0,0,0,0,0,0,0,0-.1,0h0s0,.6,0,.6h-.3ZM14.3,30.2h.2c0,.3-.2.4-.3.4-.1,0-.2,0-.4,0-.2,0-.3-.1-.4-.3,0-.1-.1-.3,0-.5,0-.2.2-.4.3-.5.1,0,.3-.1.5,0,.2,0,.3.1.4.2,0,0,0,.2,0,.3h-.3c0,0,0-.1,0-.2,0,0,0,0-.2-.1-.1,0-.2,0-.3,0,0,0-.1.2-.2.3,0,.2,0,.3,0,.4,0,0,.1.1.2.2,0,0,.1,0,.2,0,0,0,.1,0,.2-.2ZM12.9,29.8l.2.2c0,.1-.2.2-.3.3-.1,0-.2,0-.4,0-.2,0-.3-.2-.4-.3,0-.2,0-.3,0-.5,0-.2.2-.4.3-.5.2,0,.3,0,.5,0,.2,0,.3.1.3.3,0,0,0,.2,0,.3h-.3c0-.1,0-.2,0-.2,0,0,0,0-.2-.1,0,0-.2,0-.3,0,0,0-.2.2-.2.3,0,.2,0,.3,0,.4,0,0,.1.2.2.2,0,0,.1,0,.2,0,0,0,.1,0,.2-.2ZM11.4,29.2v-.5s-.3.4-.3.4l.3.2ZM11.7,29.9h-.3c0-.1,0-.5,0-.5l-.5-.2-.2.2h-.3c0-.1,1.1-1.2,1.1-1.2h.3c0,.1,0,1.6,0,1.6ZM10.3,28.5c0,0,0,.1-.2.1,0,0-.1,0-.2,0,0,0-.1,0-.1-.2,0,0,0-.1,0-.2,0,0,0-.1.2-.1,0,0,.1,0,.2,0,0,0,.1,0,.1.2,0,0,0,.1,0,.2Z"/>
</svg>