<svg width="52" height="52" viewBox="0 0 52 52" fill="none" xmlns="http://www.w3.org/2000/svg">
<path fill-rule="evenodd" clip-rule="evenodd" d="M25.1287 4.67813C27.3908 4.67813 28.718 4.76681 30.8221 5.29202C32.2747 5.65462 33.518 6.09959 34.7567 6.67242L36.452 7.58207C37.3834 8.14251 39.1255 9.36503 39.8712 10.1014C39.9942 10.2229 40.0822 10.3248 40.2084 10.4413C40.3497 10.5717 40.4293 10.6061 40.5747 10.752L42.7286 13.1812C42.9411 13.4528 43.0982 13.682 43.3021 13.9617C45.723 17.2815 47.1301 21.9906 47.1301 26.063C47.1301 30.952 45.4368 35.514 42.468 39.3091C42.3662 39.4392 42.27 39.5686 42.164 39.6821C41.5887 40.2987 41.5628 40.3864 40.8607 41.0871C40.6308 41.3166 40.4384 41.5074 40.2091 41.7375L39.4963 42.379C38.3485 43.2702 37.8059 43.7736 36.3875 44.5836C35.8697 44.8793 35.1524 45.296 34.6102 45.5155C33.1701 46.0984 32.2837 46.5307 30.6764 46.8968C27.0514 47.7224 24.2834 47.6899 20.667 46.9056C19.0477 46.5545 18.1253 46.0968 16.7275 45.5301C15.9078 45.1977 14.1363 44.1626 13.3603 43.5833C13.0988 43.3881 12.8667 43.2123 12.6161 43.0253C12.3479 42.825 12.1343 42.6385 11.8701 42.417C11.7216 42.2925 11.677 42.2652 11.5349 42.1271C11.3943 41.9905 11.3109 41.9573 11.1683 41.8165L9.21415 39.7604C8.84326 39.3623 8.6363 39.0376 8.32859 38.667C6.76341 36.7819 5.2606 33.3265 4.75656 30.941C4.59599 30.1811 4.47163 29.5005 4.36902 28.6742L4.25232 27.4899C4.15819 26.8567 4.22585 25.6856 4.22156 24.9697C4.21895 24.5337 4.29037 24.1206 4.32506 23.7202C4.38904 22.9817 4.53409 22.1074 4.70153 21.4423C5.17829 19.5483 5.54492 18.3764 6.44671 16.576C6.61006 16.2498 6.74227 16.0072 6.91667 15.6922C7.3566 14.8974 8.7013 12.8946 9.37007 12.2091L10.6473 10.8302C10.7887 10.6997 10.8683 10.6653 11.0137 10.5194L11.717 9.86852C12.3256 9.2645 14.0243 8.10574 14.8027 7.64084L16.0741 6.93248C17.1922 6.32682 19.2508 5.61119 20.447 5.313C21.7945 4.97709 23.476 4.67813 25.1287 4.67813L25.1287 4.67813ZM25.5625 0.515625H25.6769L27.2065 0.575258C27.6455 0.624386 28.2033 0.660552 28.6315 0.714093C30.7831 0.983087 32.9179 1.48673 34.8857 2.27716C36.9296 3.09817 38.2206 3.77996 40.0396 4.99032C41.0797 5.6824 42.5682 6.86322 43.4936 7.78701L44.6657 9.01069C46.0833 10.4673 47.5487 12.7121 48.4952 14.5545C50.1523 17.78 51.0648 21.4732 51.1967 25.1736V27.0419C51.1638 27.959 51.0826 28.8718 50.952 29.7732C50.8204 30.6812 50.6553 31.5466 50.4329 32.3771C50.1949 33.2656 49.9692 33.9895 49.6781 34.7977C48.9531 36.8107 47.4326 39.8194 46.0997 41.4246C45.7383 41.86 45.0556 42.726 44.6677 43.1173L42.6856 45.0936C41.8845 45.9004 40.1204 47.1857 39.1313 47.7902C35.3504 50.1012 31.655 51.1888 27.2114 51.5557C26.9701 51.5756 26.6774 51.5533 26.43 51.5563C26.1607 51.5596 26.0566 51.6018 25.7964 51.6104H25.5934C25.321 51.6022 25.1717 51.5642 24.9219 51.5567C24.6669 51.5491 24.3907 51.5723 24.1379 51.5586C22.9377 51.494 21.1179 51.2017 20.0324 50.9731C18.1544 50.5777 17.011 50.1244 15.3197 49.4326C14.3413 49.0324 13.1113 48.3687 12.2092 47.802C11.8712 47.5898 11.58 47.4002 11.2606 47.1878C10.9366 46.9723 10.6728 46.7735 10.352 46.5336L8.64099 45.1193C8.48074 44.9556 8.37869 44.9063 8.22262 44.7563C7.8549 44.4031 6.58207 43.1159 6.28563 42.7351C6.16105 42.575 6.06123 42.4806 5.9263 42.3132C4.9835 41.1438 4.77483 40.8711 3.95136 39.6014C3.83607 39.4236 3.76885 39.2952 3.65912 39.1126C3.25201 38.4348 2.93828 37.8033 2.57118 37.0764C1.94803 35.8426 1.22731 33.8401 0.88546 32.463C0.674169 31.6118 0.513794 30.7978 0.356325 29.8692C0.160005 28.7114 0.112983 27.8099 0.103516 26.8263V25.2305C0.103516 21.3362 1.62147 16.4243 3.67813 13.0325C4.38337 11.8694 5.71414 9.90773 6.65948 8.98361C6.82812 8.81875 6.87759 8.73488 7.02495 8.56788C7.26124 8.30009 7.54773 8.04543 7.80659 7.78701C9.00071 6.59494 10.8389 5.17779 12.2344 4.34917C13.2365 3.75409 14.237 3.19817 15.3121 2.73793L17.0276 2.05655C19.1312 1.32863 20.4149 1.01898 22.7145 0.707819C23.9791 0.536705 23.9781 0.6187 24.9204 0.567915C25.1533 0.555366 25.2937 0.521937 25.5625 0.51563L25.5625 0.515625Z" fill="#008FD5"/>
<path fill-rule="evenodd" clip-rule="evenodd" d="M37.1722 25.7037C37.057 25.5624 37.0047 25.3926 36.8936 25.3032C36.8127 25.2379 36.6259 25.163 36.5114 25.0752C36.0449 24.8869 29.8722 24.9668 28.4133 24.9712C27.6423 24.9735 27.9188 25.083 26.9369 24.1033C26.7078 23.8747 26.7972 23.6551 26.7972 23.0459L26.7846 12.4962C26.7188 12.2584 25.6522 11.0609 24.5905 12.3625C24.4394 12.5477 24.5032 13.0212 24.5032 13.4201V24.0345C24.3339 24.1477 24.28 24.186 24.1215 24.3299L23.7943 24.6798C23.1507 25.5344 23.2364 26.965 23.9943 27.7164C24.8397 28.5545 26.2176 28.5405 27.0594 27.9384C27.2245 27.8204 27.7122 27.2523 27.7603 27.233C27.9186 27.1697 33.9259 27.2041 35.2966 27.2097C35.6144 27.211 35.6993 27.1647 35.9732 27.1565C36.5953 27.1379 37.0944 26.9539 37.2127 26.3641C37.2544 26.156 37.2385 25.8352 37.1722 25.7037V25.7037Z" fill="#008FD5"/>
<path fill-rule="evenodd" clip-rule="evenodd" d="M26.0574 46.825C26.1668 46.7149 26.1476 46.7565 26.2421 46.6827C26.2977 46.6392 26.3601 46.575 26.4009 46.5342C26.4977 46.4374 26.5888 46.3239 26.6927 46.2007C26.873 45.8257 26.8344 43.7421 26.747 43.2327C26.5928 42.3333 25.5602 41.9744 24.8528 42.6474C24.5266 42.9578 24.5074 43.3265 24.5009 43.8572C24.4931 44.4965 24.3166 46.1246 24.8813 46.6035C25.162 46.8416 25.6348 47.0515 26.0574 46.825Z" fill="#8CC63F"/>
<path fill-rule="evenodd" clip-rule="evenodd" d="M33.416 10.922C33.416 11.7162 33.5383 12.2227 34.563 12.2227C35.2631 12.2227 35.6972 11.4007 35.9805 10.9318C36.4815 10.1026 37.2466 8.94291 36.4266 8.28162C36.0403 7.97009 35.2029 7.79237 34.7495 8.45444C34.5646 8.72435 34.4361 8.9391 34.2666 9.22132C34.1101 9.48205 33.416 10.6584 33.416 10.922V10.922Z" fill="#8CC63F"/>
<path fill-rule="evenodd" clip-rule="evenodd" d="M7.82031 15.5009C7.82031 16.2019 8.5313 16.6877 9.06081 17.0205C9.66508 17.4003 10.4346 17.8943 11.157 17.8943C11.8175 17.8943 12.563 16.6072 11.567 15.8721C11.0445 15.4865 9.46097 14.4082 8.91517 14.4082C8.29375 14.4082 7.82031 15.0708 7.82031 15.5009V15.5009Z" fill="#8CC63F"/>
<path fill-rule="evenodd" clip-rule="evenodd" d="M41.916 26.5836C41.916 27.9598 43.6087 27.7803 44.9399 27.7803C45.3011 27.7803 45.9049 27.7419 46.0969 27.5822C46.6298 27.1388 46.8598 25.9291 45.8173 25.6558C45.1351 25.477 43.5817 25.4362 42.7977 25.5383C42.2923 25.6041 41.916 26.0124 41.916 26.5836Z" fill="#8CC63F"/>
<path fill-rule="evenodd" clip-rule="evenodd" d="M32.4258 41.5168C32.4258 41.9232 33.4366 43.7214 33.674 44.1213C33.9447 44.5773 33.9831 44.6907 34.5634 44.6907C35.1456 44.6907 35.8146 44.3671 35.8146 43.65C35.8146 43.5171 34.6224 40.3721 33.7813 40.3721C33.4032 40.3721 33.017 40.4367 32.7801 40.7257C32.6677 40.8629 32.4258 41.2997 32.4258 41.5168Z" fill="#8CC63F"/>
<path fill-rule="evenodd" clip-rule="evenodd" d="M7.40183 36.1506C7.51247 36.2672 7.5077 36.3063 7.64402 36.4364C7.72158 36.5104 7.83087 36.5995 7.92345 36.6775C8.50158 36.9551 11.1388 35.6053 11.4101 34.9539C11.5933 34.514 11.4594 33.9298 11.1718 33.6435C10.6151 33.0894 9.83548 33.4142 9.2289 33.766C8.69906 34.0734 8.05533 34.4059 7.57809 34.7721C7.16672 35.0878 7.25498 35.8671 7.40184 36.1507L7.40183 36.1506Z" fill="#8CC63F"/>
<path fill-rule="evenodd" clip-rule="evenodd" d="M15.4824 8.4752C15.4824 8.86538 16.1383 10.0989 16.3142 10.4027C16.6393 10.9639 17.0035 11.8052 17.7764 11.8052C18.1473 11.8052 18.8713 11.0647 18.8713 10.7125C18.8713 10.212 17.9112 8.47797 17.5781 7.94466C17.3526 7.58358 17.2601 7.43457 16.6815 7.43457C15.9772 7.43457 15.4824 7.97852 15.4824 8.4752V8.4752Z" fill="#8CC63F"/>
<path fill-rule="evenodd" clip-rule="evenodd" d="M24.6602 9.23996L25.2694 9.7777C25.56 10.0071 26.0948 9.81399 26.3905 9.57938C26.9702 9.11944 26.7928 7.78606 26.7985 6.81122C26.802 6.20863 26.7666 5.9136 26.4216 5.57437C25.7475 4.91154 24.6256 5.32971 24.556 6.23962C24.5071 6.8778 24.4104 8.82045 24.6602 9.23996Z" fill="#8CC63F"/>
<path fill-rule="evenodd" clip-rule="evenodd" d="M42.9357 17.8932L43.2245 17.687C43.6319 17.4234 43.721 17.3606 43.9499 16.9535L44 16.8739C44.0299 16.6045 44.0886 16.396 43.9479 16.1335C43.8405 16.0099 43.7732 15.8419 43.6893 15.7579C43.6067 15.6754 43.4348 15.6037 43.3132 15.4998C42.9699 15.3171 42.4647 15.5317 42.2122 15.6406L41.3245 16.1076C41.0319 16.2689 40.7625 16.4388 40.486 16.6236C40.15 16.848 39.9145 16.9316 39.8403 17.384C39.7338 18.0338 39.9067 18.5827 40.4635 18.7698C41.1397 18.9971 42.7817 18.034 42.9357 17.8932L42.9357 17.8932Z" fill="#8CC63F"/>
<path fill-rule="evenodd" clip-rule="evenodd" d="M42.6304 37.7193C42.7973 37.5914 42.8705 37.6009 43.0367 37.4331C43.1008 37.3684 43.1523 37.3212 43.212 37.2474C43.3052 37.1324 43.2592 37.1497 43.3757 37.038C43.9233 36.0634 42.2631 35.1164 41.533 34.7193C41.306 34.5959 41.2051 34.5215 40.9484 34.4183C39.4481 33.8148 39.0894 35.1762 39.3378 35.8175C39.4745 36.1703 39.9642 36.45 40.2618 36.6645C40.6782 36.9645 42.2398 37.9445 42.6304 37.7193Z" fill="#8CC63F"/>
<path fill-rule="evenodd" clip-rule="evenodd" d="M9.27828 25.1362C9.18342 25.0244 9.11927 24.8593 9.04669 24.786C8.9788 24.7175 8.9516 24.7205 8.85875 24.6683C8.76953 24.6182 8.7555 24.6087 8.68836 24.555C8.4475 24.4142 5.62048 24.1555 5.16945 24.6169C4.68985 25.1075 4.63829 25.9524 5.04437 26.2829C5.60175 26.7366 6.81931 26.6361 7.81848 26.6362C8.46845 26.6363 8.75442 26.7124 9.0838 26.3381C9.35202 26.0333 9.52961 25.6079 9.27828 25.1362L9.27828 25.1362Z" fill="#8CC63F"/>
<path fill-rule="evenodd" clip-rule="evenodd" d="M17.8826 40.7243C17.8736 40.7099 17.8629 40.6922 17.8567 40.6804C17.4683 39.9395 17.5847 40.2737 16.9947 39.9561C15.9601 39.9561 15.848 40.3003 15.1738 41.4672C14.7792 42.1501 14.1626 43.253 14.8201 43.845C15.0885 44.0867 15.6758 44.2505 16.1447 44.0492C16.5175 43.8891 17.3267 42.4643 17.5362 42.0558C17.7445 41.6497 17.8826 41.3237 17.8826 40.7243Z" fill="#8CC63F"/>
<path fill-rule="evenodd" clip-rule="evenodd" d="M42.9375 17.8953L43.1982 17.7626C43.2074 17.7567 43.2201 17.7482 43.2292 17.7422C43.2384 17.7362 43.2512 17.7276 43.2603 17.7215L43.3536 17.6585C43.3627 17.6522 43.3753 17.6434 43.3844 17.6371C43.5625 17.5135 43.8306 17.3004 43.9287 17.1051C43.9804 17.002 43.9715 17.0143 44.0019 16.876L43.9518 16.9555C43.7228 17.3626 43.6337 17.4254 43.2264 17.6891L42.9375 17.8953V17.8953Z" fill="#C7C7C7"/>
<path fill-rule="evenodd" clip-rule="evenodd" d="M17.8801 40.7243C17.8319 40.4899 17.7607 40.3557 17.5874 40.1983L17.4417 40.0875C17.4322 40.0816 17.4193 40.0735 17.4095 40.068C17.3996 40.0624 17.3865 40.0547 17.3763 40.0494C17.3658 40.0441 17.3519 40.0383 17.3411 40.0333C17.3091 40.0188 17.2745 39.9647 16.9922 39.9561C17.5822 40.2737 17.4657 39.9395 17.8541 40.6804C17.8603 40.6922 17.8711 40.7099 17.8801 40.7243L17.8801 40.7243Z" fill="#C7C7C7"/>
<path fill-rule="evenodd" clip-rule="evenodd" d="M25.2713 9.777L24.6621 9.23926C24.8129 9.53738 24.9811 9.66492 25.2713 9.777Z" fill="#C7C7C7"/>
<path fill-rule="evenodd" clip-rule="evenodd" d="M26.0586 46.8236L26.1435 46.7933C26.152 46.7891 26.1718 46.7812 26.1819 46.7758L26.3057 46.6916C26.4702 46.5582 26.6397 46.4011 26.6939 46.1992C26.5899 46.3225 26.4988 46.436 26.4021 46.5327C26.3613 46.5736 26.2989 46.6378 26.2433 46.6812C26.1488 46.755 26.168 46.7135 26.0586 46.8236Z" fill="#C7C7C7"/>
<path fill-rule="evenodd" clip-rule="evenodd" d="M42.6309 37.7175C42.7655 37.6842 42.7719 37.6817 42.8719 37.6208L42.9901 37.5361C42.9981 37.5296 43.0097 37.5193 43.0174 37.5127L43.0703 37.4633C43.1108 37.4248 43.1042 37.4313 43.1476 37.3861L43.3761 37.0361C43.2596 37.1479 43.3056 37.1306 43.2125 37.2456C43.1528 37.3194 43.1013 37.3666 43.0372 37.4313C42.8709 37.5991 42.7978 37.5895 42.6309 37.7175Z" fill="#C7C7C7"/>
<path fill-rule="evenodd" clip-rule="evenodd" d="M37.1706 25.7018C37.0938 25.4086 36.817 25.1115 36.5098 25.0732C36.6243 25.1611 36.8111 25.236 36.892 25.3012C37.003 25.3907 37.0554 25.5605 37.1706 25.7018Z" fill="#C7C7C7"/>
<path fill-rule="evenodd" clip-rule="evenodd" d="M43.9531 16.1357C43.8734 15.8403 43.6134 15.5803 43.3184 15.502C43.44 15.6059 43.6119 15.6775 43.6945 15.7601C43.7784 15.8441 43.8457 16.0121 43.9531 16.1357Z" fill="#C7C7C7"/>
<path fill-rule="evenodd" clip-rule="evenodd" d="M7.92201 36.6772C7.82943 36.5993 7.72013 36.5102 7.64257 36.4361C7.50625 36.306 7.51102 36.267 7.40039 36.1504C7.40497 36.1648 7.41154 36.1715 7.41459 36.1933C7.42922 36.2983 7.59978 36.4742 7.68281 36.5495L7.92201 36.6772Z" fill="#C7C7C7"/>
<path fill-rule="evenodd" clip-rule="evenodd" d="M9.27937 25.1359L9.13569 24.8483C8.99378 24.6695 8.88422 24.6039 8.68945 24.5547C8.75659 24.6084 8.77062 24.6179 8.85984 24.668C8.95269 24.7202 8.97989 24.7172 9.04778 24.7857C9.12036 24.859 9.18451 25.0241 9.27937 25.1359Z" fill="#C7C7C7"/>
</svg>
