<svg width="76" height="77" viewBox="0 0 76 77" fill="none" xmlns="http://www.w3.org/2000/svg">
<path d="M38 1.5C58.14 1.5 74.5 18.0469 74.5 38.5C74.5 58.9531 58.14 75.5 38 75.5C17.86 75.5 1.5 58.9531 1.5 38.5C1.5 18.0469 17.86 1.5 38 1.5Z" stroke="url(#paint0_linear_1330_673)" stroke-width="3"/>
<path fill-rule="evenodd" clip-rule="evenodd" d="M27.1385 53.961H43.813C43.813 54.4171 43.8295 54.2964 43.813 54.7458C43.7932 55.5339 43.618 56.151 43.2378 56.5467C42.732 56.9292 42.1166 57.133 41.4857 57.1269L29.3071 57.0833C28.7276 57.1232 28.1561 56.9291 27.717 56.5434C27.4026 56.1986 27.2106 55.7571 27.1716 55.2891C27.1716 55.1851 27.1286 53.9476 27.1286 53.9476L27.1385 53.961ZM53.3272 29.968C54.3509 28.9362 55.7354 28.3571 57.1784 28.3571C58.6215 28.3571 60.006 28.9362 61.0297 29.968C62.0475 31.0062 62.6189 32.4109 62.6189 33.8752C62.6189 35.3394 62.0475 36.7442 61.0297 37.7823C56.6528 42.2194 52.2957 46.6128 47.9155 51.0532C47.3933 51.584 46.7687 51.9996 46.0808 52.274V55.051C46.1436 56.3925 45.8825 57.4556 45.1816 58.18C44.4808 58.9045 43.3866 59.2331 41.7932 59.0621H28.8145C27.6046 59.099 26.7253 58.7938 26.1203 58.1968C25.5153 57.5998 25.2277 56.7647 25.1848 55.7184C25.1813 55.6939 25.1813 55.669 25.1848 55.6446V34.7706C24.9302 30.736 26.5963 28.3247 28.8542 25.2727C29.079 24.9675 29.3071 24.659 29.5319 24.3471H28.7385C28.1455 24.3453 27.5772 24.1055 27.1579 23.6801C26.7386 23.2547 26.5022 22.6782 26.5005 22.0766V20.1649C26.5022 19.5633 26.7386 18.9868 27.1579 18.5614C27.5772 18.136 28.1455 17.8962 28.7385 17.8944H42.7519C43.3449 17.8962 43.9131 18.136 44.3325 18.5614C44.7518 18.9868 44.9881 19.5633 44.9899 20.1649V22.0598C44.9881 22.6614 44.7518 23.2379 44.3325 23.6633C43.9131 24.0888 43.3449 24.3285 42.7519 24.3303H41.6841C41.8923 24.6187 42.1006 24.8971 42.3056 25.1755C44.2659 27.8182 46.1238 30.3302 46.0775 33.9926V37.3463C48.4863 34.8869 50.9029 32.4275 53.3272 29.968ZM46.0808 50.6642C46.5594 50.4564 46.9946 50.1582 47.3635 49.7855L52.8478 44.2182L47.0097 38.2955L46.0775 39.2412V50.6642H46.0808ZM34.6691 39.0668H36.5766C36.7519 39.0668 36.9201 39.1375 37.0441 39.2633C37.1681 39.3891 37.2378 39.5597 37.2378 39.7376V42.6252H40.0841C40.2594 42.6252 40.4276 42.6959 40.5516 42.8217C40.6756 42.9474 40.7452 43.1181 40.7452 43.296V45.2311C40.7452 45.409 40.6756 45.5796 40.5516 45.7054C40.4276 45.8312 40.2594 45.9018 40.0841 45.9018H37.2278V48.7492C37.2278 48.9271 37.1582 49.0977 37.0342 49.2235C36.9102 49.3493 36.742 49.42 36.5667 49.42H34.6691C34.4938 49.42 34.3256 49.3493 34.2016 49.2235C34.0776 49.0977 34.008 48.9271 34.008 48.7492V45.8717H31.1716C30.9962 45.8717 30.8281 45.801 30.7041 45.6752C30.5801 45.5494 30.5104 45.3788 30.5104 45.2009V43.2725C30.5104 43.0946 30.5801 42.924 30.7041 42.7982C30.8281 42.6724 30.9962 42.6017 31.1716 42.6017H34.0179V39.7275C34.0179 39.5496 34.0876 39.379 34.2115 39.2532C34.3355 39.1274 34.5037 39.0568 34.6791 39.0568L34.6691 39.0668ZM43.9717 34.5258H27.2873C27.2501 33.9891 27.2634 33.4501 27.3269 32.916C27.6377 30.1693 29.0889 28.1939 30.7352 25.9435C31.0956 25.4538 31.4658 24.9374 31.8493 24.4007H39.37C39.7006 24.877 40.0741 25.37 40.4345 25.8596C42.0874 28.0698 43.6312 30.1793 43.9254 32.9294C43.9519 33.2011 43.9717 34.5158 43.9717 34.5158V34.5258Z" fill="url(#paint1_linear_1330_673)"/>
<defs>
<linearGradient id="paint0_linear_1330_673" x1="38" y1="0" x2="38" y2="77" gradientUnits="userSpaceOnUse">
<stop stop-color="#018FD5"/>
<stop offset="1" stop-color="#0F9DCC"/>
</linearGradient>
<linearGradient id="paint1_linear_1330_673" x1="43.889" y1="17.8944" x2="43.889" y2="59.1065" gradientUnits="userSpaceOnUse">
<stop stop-color="#018FD5"/>
<stop offset="1" stop-color="#0F9DCC"/>
</linearGradient>
</defs>
</svg>
