<svg width="42" height="44" viewBox="0 0 42 44" fill="none" xmlns="http://www.w3.org/2000/svg">
<path d="M21 3.30767C25.1082 3.30851 29.0898 4.77809 32.2698 7.46731C35.4498 10.1565 37.6325 13.8999 38.4479 18.0629C39.2634 22.2259 38.6614 26.5524 36.744 30.3089C34.8266 34.0654 31.7118 37.0209 27.9275 38.6743C23.5763 40.5738 18.6735 40.6085 14.2975 38.7706C9.92161 36.9328 6.43105 33.3729 4.59375 28.8742C2.75645 24.3755 2.72292 19.3065 4.50052 14.7822C6.27812 10.2579 9.72125 6.64905 14.0725 4.74947C16.2642 3.79168 18.6205 3.30128 21 3.30767ZM21 0C9.40242 0 0 9.72115 0 21.7119C0 33.7026 9.40242 43.4237 21 43.4237C32.5976 43.4237 42 33.7026 42 21.7119C42 9.72115 32.5976 0 21 0Z" fill="#0492D2"/>
<path d="M30.8561 20.0285H22.6283V11.5219C22.6283 11.0754 22.4568 10.6472 22.1514 10.3315C21.846 10.0157 21.4319 9.83838 21 9.83838C20.5681 9.83838 20.154 10.0157 19.8486 10.3315C19.5432 10.6472 19.3717 11.0754 19.3717 11.5219V20.0285H11.1439C10.7121 20.0285 10.2979 20.2059 9.99255 20.5216C9.68718 20.8373 9.51562 21.2656 9.51562 21.7121C9.51562 22.1586 9.68718 22.5868 9.99255 22.9025C10.2979 23.2182 10.7121 23.3956 11.1439 23.3956H19.3717V31.9022C19.3717 32.3487 19.5432 32.7769 19.8486 33.0926C20.154 33.4084 20.5681 33.5857 21 33.5857C21.4319 33.5857 21.846 33.4084 22.1514 33.0926C22.4568 32.7769 22.6283 32.3487 22.6283 31.9022V23.3956H30.8561C31.2879 23.3956 31.7021 23.2182 32.0075 22.9025C32.3128 22.5868 32.4844 22.1586 32.4844 21.7121C32.4844 21.2656 32.3128 20.8373 32.0075 20.5216C31.7021 20.2059 31.2879 20.0285 30.8561 20.0285Z" fill="#0492D2"/>
</svg>
