<svg width="12" height="12" viewBox="0 0 12 12" fill="none" xmlns="http://www.w3.org/2000/svg">
<path d="M12 6C12 9.31371 9.31371 12 6 12C2.68629 12 0 9.31371 0 6C0 2.68629 2.68629 -5.72205e-06 6 -5.72205e-06C9.31371 -5.72205e-06 12 2.68629 12 6Z" fill="white"/>
<path d="M6.19364 2.48437L9.23871 5.70693L9.31637 5.78912L9.51563 5.99999L9.26426 6.2552L9.23871 6.28117L9.12835 6.39904C9.12835 6.41077 9.11711 6.41094 9.11711 6.41094L6.19364 9.51562H6.1824L5.6398 8.9414V8.93061L8.02068 6.41096H2.48438V6.39905V5.59017H8.03192L5.6398 3.05863L6.1824 2.4844H6.19364V2.48437Z" fill="#0291D4"/>
</svg>
