<svg width="21" height="21" viewBox="0 0 21 21" fill="none" xmlns="http://www.w3.org/2000/svg">
<path d="M10.0469 0.5C15.3191 0.500226 19.5928 4.77455 19.5928 10.0469C19.5925 15.319 15.319 19.5925 10.0469 19.5928C4.77455 19.5928 0.500228 15.3191 0.5 10.0469C0.5 4.77441 4.77441 0.5 10.0469 0.5Z" stroke="white"/>
<path d="M5.71753 6.13867H14.3757C15.0375 6.13867 15.5749 6.67612 15.575 7.33789V12.7539C15.5747 13.4159 15.0374 13.9521 14.3757 13.9521H5.71753C5.05523 13.9521 4.51754 13.4159 4.51733 12.7539V7.33789C4.51734 6.6762 5.05518 6.13867 5.71753 6.13867ZM9.0896 8.11621C8.60364 7.94922 8.07526 8.30743 8.07495 8.84277V11.25C8.07495 11.7855 8.60299 12.1442 9.0896 11.9766L9.18628 11.9365L11.5945 10.7334C12.1245 10.4683 12.1571 9.74154 11.6931 9.41895L11.5945 9.36035L9.18628 8.15625L9.0896 8.11621Z" stroke="white" stroke-width="0.7"/>
</svg>
