<?xml version="1.0" encoding="UTF-8"?>
<svg id="Layer_1" xmlns="http://www.w3.org/2000/svg" version="1.1" viewBox="0 0 200 90">
  <!-- Generator: Adobe Illustrator 29.5.0, SVG Export Plug-In . SVG Version: 2.1.0 Build 137)  -->
  <defs>
    <style>
      .st0 {
        fill: none;
        stroke: #666;
        stroke-miterlimit: 10;
      }

      .st1 {
        fill: #0668b2;
      }

      .st2 {
        fill: #fbdf00;
      }

      .st3 {
        fill: #3b68ab;
      }
    </style>
  </defs>
  <rect class="st0" width="200" height="90" rx="10" ry="10"/>
  <g id="Layer_11" data-name="Layer_1">
    <g>
      <g>
        <polygon class="st1" points="112.9 30.2 114.8 30.2 114.8 35.8 121.9 35.8 121.9 30.2 123.7 30.2 123.7 43.9 121.9 43.9 121.9 37.5 114.8 37.5 114.8 43.9 112.9 43.9 112.9 30.2"/>
        <polygon class="st1" points="128 30.2 138 30.2 138 31.8 129.8 31.8 129.8 36 137.3 36 137.3 37.6 129.8 37.6 129.8 42.2 138.1 42.2 138.1 43.9 128 43.9 128 30.2"/>
        <path class="st1" d="M145.7,30.2h2.1l5,13.7h-2l-1.4-4.1h-5.4l-1.5,4.1h-1.9l5.2-13.7ZM148.8,38.3l-2.1-6.1-2.2,6.1h4.3Z"/>
        <polygon class="st1" points="155.6 30.2 157.5 30.2 157.5 42.2 164.3 42.2 164.3 43.9 155.6 43.9 155.6 30.2"/>
        <polygon class="st1" points="175.9 30.2 175.9 31.8 171.3 31.8 171.3 43.9 169.5 43.9 169.5 31.8 164.8 31.8 164.8 30.2 175.9 30.2"/>
        <polygon class="st1" points="178.8 30.2 180.7 30.2 180.7 35.8 187.8 35.8 187.8 30.2 189.6 30.2 189.6 43.9 187.8 43.9 187.8 37.5 180.7 37.5 180.7 43.9 178.8 43.9 178.8 30.2"/>
        <rect class="st3" x="112.9" y="50.5" width="1.2" height="8.8"/>
        <polygon class="st1" points="116.9 50.5 118.3 50.5 122.7 57.6 122.7 50.5 123.8 50.5 123.8 59.3 122.5 59.3 118 52.2 118 59.3 116.9 59.3 116.9 50.5"/>
        <path class="st1" d="M127.3,56.5c0,.5.1.9.3,1.2.4.6,1.1.9,2,.9s.8,0,1.2-.2c.7-.2,1-.7,1-1.3s-.1-.8-.4-1-.8-.4-1.4-.5l-1.1-.3c-.8-.2-1.3-.4-1.6-.6-.6-.4-.8-.9-.8-1.7s.3-1.5.8-2c.6-.5,1.3-.8,2.3-.8s1.7.2,2.3.7c.6.4.9,1.1.9,2.1h-1.1c0-.5-.2-.8-.4-1.1-.3-.4-.9-.7-1.8-.7s-1.2.1-1.5.4c-.3.3-.4.7-.4,1s.2.8.5,1c.2.1.8.3,1.6.5l1.2.3c.6.1,1,.3,1.3.6.6.4.8,1,.8,1.8s-.3,1.7-1,2.1-1.5.6-2.4.6-1.9-.3-2.5-.8-.9-1.3-.9-2.3h1.2Z"/>
        <path class="st1" d="M136.8,50.5v5.5c0,.7.1,1.2.4,1.6.3.7,1,1,1.8,1s1.7-.3,2.1-1c.2-.4.3-.9.3-1.5v-5.5h1.2v4.9c0,1.1-.1,1.9-.4,2.5-.6,1.1-1.6,1.6-3,1.6s-2.5-.5-3-1.6c-.3-.6-.4-1.4-.4-2.5v-4.9h1.2,0Z"/>
        <path class="st1" d="M145.2,50.5h4c.7,0,1.2.1,1.6.3.8.4,1.2,1.1,1.2,2.1s-.1,1-.3,1.3c-.2.3-.5.6-.9.8.3.1.6.3.8.6.2.2.3.6.3,1.1v1.2c0,.3,0,.6.1.8,0,.3.2.4.4.6v.2h-1.5c0,0,0-.2-.1-.3,0-.1,0-.3,0-.7v-1.5c0-.6-.3-1-.7-1.2-.2-.1-.6-.2-1-.2h-2.7v3.8h-1.2v-8.8h0ZM149.1,54.5c.6,0,1-.1,1.3-.3.3-.2.5-.6.5-1.2s-.2-1.1-.7-1.3c-.2-.1-.6-.2-1-.2h-2.8v3h2.7Z"/>
        <path class="st1" d="M157.3,50.5h1.3l3.2,8.8h-1.3l-.9-2.7h-3.5l-1,2.7h-1.2l3.3-8.8h0ZM159.3,55.7l-1.3-3.9-1.4,3.9h2.8Z"/>
        <polygon class="st1" points="163.7 50.5 165.1 50.5 169.5 57.6 169.5 50.5 170.7 50.5 170.7 59.3 169.3 59.3 164.9 52.2 164.9 59.3 163.7 59.3 163.7 50.5"/>
        <path class="st1" d="M179.6,51.1c.6.6.9,1.2,1,2h-1.2c-.1-.6-.4-1-.8-1.3-.4-.3-.9-.5-1.6-.5s-1.6.3-2.1.9c-.5.6-.8,1.6-.8,2.8s.2,1.9.7,2.5,1.2,1,2.1,1,1.5-.3,2-1c.2-.3.4-.8.6-1.4h1.2c-.1.9-.4,1.7-1,2.4-.7.8-1.6,1.1-2.8,1.1s-1.9-.3-2.6-.9c-.9-.8-1.3-2.1-1.3-3.8s.3-2.4,1-3.2c.7-.9,1.8-1.3,3-1.3s2,.3,2.6.9"/>
        <polygon class="st1" points="183.1 50.5 189.5 50.5 189.5 51.6 184.3 51.6 184.3 54.3 189.2 54.3 189.2 55.3 184.3 55.3 184.3 58.3 189.6 58.3 189.6 59.3 183.1 59.3 183.1 50.5"/>
        <rect class="st2" x="5" y="18.3" width="104.1" height="53.5"/>
        <path class="st1" d="M34.1,37.2c-.5-.2-1-.3-1.6-.5-.6-.2-1.3-.3-2-.4-.8-.1-1.6-.2-2.5-.2s-2.2.2-3.2.5c-1.1.3-2,.8-3,1.4-.9.7-1.8,1.5-2.5,2.4-.7,1-1.3,2.1-1.7,3.4s-.6,2.8-.6,4.5.2,3.3.7,4.6c.5,1.3,1.1,2.4,1.9,3.3s1.7,1.6,2.6,2.1c1,.6,1.9.9,2.9,1.2,1,.2,1.9.3,2.9.3s1.8,0,2.6-.2c.8-.1,1.5-.3,2.2-.4s1.2-.3,1.7-.5v-2.6c-.5.2-1,.4-1.6.7-.6.2-1.3.4-2,.6-.8.1-1.6.2-2.5.2-1.6,0-2.9-.3-4-.8-1.1-.5-2-1.2-2.7-2.1s-1.2-1.9-1.6-3c-.3-1.1-.5-2.3-.5-3.5s.2-2.4.5-3.5c.3-1.1.9-2.2,1.6-3.1.7-.9,1.6-1.7,2.7-2.2,1.1-.6,2.4-.8,3.8-.9.9,0,1.7,0,2.4.2.7.1,1.3.3,2,.6.6.2,1.2.4,1.7.7v-2.7h0Z"/>
        <path class="st1" d="M56.8,55.4c-.2.1-.4.3-.7.6-.3.2-.6.4-.9.7-.3.2-.7.4-1,.6-.3.2-.5.2-.7.2s-.3,0-.3,0c0,0-.1-.1-.1-.2,0,0,0-.2,0-.4v-13.3c0-.9,0-1.6,0-2.2,0-.6-.2-1.2-.4-1.7s-.5-1-1-1.5c-.4-.5-1-.9-1.7-1.2-.7-.3-1.3-.5-2-.7-.7-.1-1.4-.2-2-.2s-1.7.1-2.4.3-1.4.4-2,.7c-.6.3-1.2.5-1.7.8-.5.3-.9.5-1.2.7v2.5c.8-.6,1.6-1.1,2.3-1.5.7-.4,1.5-.7,2.2-.9.8-.2,1.6-.3,2.5-.3s2.2.2,3,.6c.7.4,1.3.9,1.6,1.6.3.7.4,1.5.4,2.4v2.9c-.5,0-1.2,0-2.1.1-.8.1-1.8.2-2.8.4-1,.2-2,.5-3,.9-1,.4-1.9.9-2.7,1.5s-1.5,1.3-2,2.2-.8,2-.8,3.2.2,1.6.5,2.3c.3.7.8,1.3,1.3,1.8.6.5,1.2.9,2,1.2.7.3,1.5.4,2.4.4.9,0,1.7-.1,2.4-.3.8-.2,1.4-.4,2-.8.6-.3,1.1-.6,1.6-.9.4-.3.8-.6,1.1-.8,0,.6.1,1.1.2,1.5,0,.4.2.8.4,1,.2.2.6.3,1,.3s1.1-.2,1.9-.6c.7-.4,1.7-1,2.7-1.8v-2h0ZM50.5,54.8c-.3.3-.7.6-1.1,1-.4.3-.9.7-1.5,1s-1.1.6-1.7.8-1.3.3-2,.3-.9,0-1.5-.2-1-.3-1.5-.7c-.4-.3-.8-.7-1.1-1.2s-.4-1.1-.4-1.7.1-1.3.4-1.9c.3-.6.6-1.1,1.1-1.5.4-.4.9-.9,1.5-1.2.6-.3,1.1-.6,1.7-.9.7-.3,1.5-.5,2.2-.6.8-.1,1.5-.2,2.2-.3.7,0,1.3,0,1.8,0v7.2h0Z"/>
        <path class="st1" d="M76,38.8c-.3-.3-.6-.6-1-.8-.4-.3-.8-.6-1.2-.9-.4-.3-.9-.5-1.4-.7-.5-.2-1-.3-1.6-.3s-1.5.2-2.2.5c-.7.3-1.4.8-2,1.3s-1.2,1.1-1.7,1.7c-.5.6-1,1.1-1.3,1.7-.3.5-.7.9-.8,1.2v-6h-2.5v22.9h2.5v-14.4c.5-.8,1-1.6,1.6-2.4.6-.8,1.2-1.5,1.8-2.1.7-.6,1.3-1.1,1.9-1.5.7-.3,1.3-.6,2-.6s1.1.1,1.7.4c.6.3,1.1.6,1.6,1,.5.4.9.8,1.3,1.1l1.4-2.3h0Z"/>
        <path class="st1" d="M97.2,47.1c0-.8,0-1.6-.2-2.5-.1-.8-.4-1.7-.8-2.6-.3-.7-.7-1.4-1.2-2.1s-1.1-1.3-1.9-1.9c-.8-.6-1.6-1-2.6-1.4-1-.3-2.1-.5-3.4-.6-1.7,0-3.1.3-4.4,1-1.3.6-2.4,1.5-3.3,2.6-.9,1.1-1.6,2.3-2.1,3.7s-.7,2.8-.7,4.4.1,2.4.5,3.6c.3,1.2.8,2.3,1.4,3.3s1.4,1.9,2.3,2.7c.9.8,2,1.4,3.2,1.8,1.2.4,2.6.7,4,.7,1.3,0,2.4-.1,3.5-.4,1.1-.3,2-.7,2.9-1.1.9-.4,1.7-1,2.4-1.5v-2.7c-.3.3-.8.7-1.3,1-.5.4-1.1.8-1.8,1.1-.7.4-1.5.7-2.4.9s-1.9.4-3,.4-1.8-.1-2.6-.4c-.9-.3-1.7-.7-2.5-1.2-.8-.6-1.5-1.2-2.1-2-.6-.8-1-1.8-1.3-2.9s-.4-2.4-.4-3.9h18ZM79.5,45.1c.2-1.2.6-2.2,1.1-3.1s1.1-1.6,1.8-2.1,1.5-1,2.2-1.2c.8-.3,1.6-.4,2.4-.4,1.3,0,2.4.3,3.5.9,1,.6,1.8,1.3,2.4,2.3.4.7.8,1.4.9,2,.2.6.3,1.2.4,1.7h-14.8Z"/>
        <rect class="st1" x="76.5" y="30.2" width="20.6" height="2.4"/>
      </g>
      <path class="st1" d="M195,26.2c0,1.2-1,2.2-2.2,2.2s-2.2-1-2.2-2.2,1-2.1,2.2-2.1,2.2.9,2.2,2.1h0ZM191.1,26.2c0,1,.7,1.7,1.7,1.7s1.6-.8,1.6-1.7-.7-1.7-1.7-1.7-1.7.8-1.7,1.7h0ZM192.4,27.3h-.5v-2.1c.2,0,.5,0,.8,0s.6,0,.7.2c.1.1.2.2.2.4s-.2.4-.4.5h0c.2.1.3.3.4.6,0,.3.1.4.2.5h-.5c0,0-.1-.3-.2-.5,0-.2-.2-.3-.4-.3h-.2v.9h0ZM192.5,26.1h.2c.3,0,.5-.1.5-.3s-.1-.3-.4-.3-.2,0-.3,0v.6h0Z"/>
    </g>
  </g>
</svg>