<?xml version="1.0" encoding="UTF-8"?>
<svg id="Layer_1" xmlns="http://www.w3.org/2000/svg" version="1.1" viewBox="0 0 200 90">
  <!-- Generator: Adobe Illustrator 29.5.0, SVG Export Plug-In . SVG Version: 2.1.0 Build 137)  -->
  <defs>
    <style>
      .st0 {
        fill: none;
        stroke: #666;
        stroke-miterlimit: 10;
      }

      .st1 {
        fill: #fb0;
      }
    </style>
  </defs>
  <rect class="st0" width="200" height="90" rx="10" ry="10"/>
  <g>
    <path d="M58.8,9.6v58.3h-10.3v-2.7c-3,2.4-6.7,3.6-10.6,3.5-10.6,0-19.1-8.6-19.1-19.2,0-.3,0-.6,0-.9-.6-10.5,7.4-19.6,18-20.2.4,0,.7,0,1.1,0,3.7,0,7.4,1.1,10.4,3.4V9.6h10.4ZM48.7,48.7c.3-5.3-3.8-9.8-9.1-10.1-.2,0-.5,0-.7,0-5.3,0-9.6,4.3-9.6,9.5,0,.2,0,.4,0,.6-.2,5.3,3.8,9.7,9.1,9.9.2,0,.3,0,.5,0,5.3.1,9.7-4,9.8-9.3,0-.2,0-.4,0-.6M69.2,29.3h10.4v38.6h-10.4V29.3ZM126,29.3v37.5c.1,9.9-7.8,18.1-17.7,18.2-.5,0-.9,0-1.4,0-8.1.4-15.4-4.7-17.9-12.4l9.6-3.6c1,3.7,4.5,6.2,8.3,5.9,4.4.3,8.3-3,8.6-7.5,0-.3,0-.7,0-1v-3.1c-2.8,2.2-6.3,3.4-9.9,3.3-10.1,0-18.3-8.2-18.3-18.3,0-.2,0-.5,0-.7-.5-10.1,7.4-18.7,17.5-19.1.2,0,.4,0,.7,0,3.7,0,7.3,1.2,10.1,3.5v-2.7h10.3s0,0,0,0ZM115.9,47.7c.1-5-3.8-9.1-8.8-9.2-5-.1-9.1,3.8-9.2,8.8,0,.2,0,.3,0,.5.1,5,4.3,8.9,9.2,8.8,4.8-.1,8.6-4,8.8-8.8M136.4,29.3h10.4v38.6h-10.4V29.3ZM169,29.3h12.2v9.9h-12.2v14.3c-.2,2.3,1.6,4.4,3.9,4.6.2,0,.4,0,.6,0h7.6v9.9h-9.8c-6.6.4-12.3-4.6-12.7-11.1,0-.4,0-.9,0-1.3v-16.3h-5.5v-5.3l10.1-12.5h5.8v8ZM74.4,9.6h51.6v8.1h-51.6v-8.1Z"/>
    <path class="st1" d="M146.8,13.7l-7.9-8.7h-2.5v17.4h2.5l7.9-8.7Z"/>
  </g>
</svg>