<?xml version="1.0" encoding="UTF-8"?>
<svg id="Layer_1" xmlns="http://www.w3.org/2000/svg" version="1.1" viewBox="0 0 200 90">
  <!-- Generator: Adobe Illustrator 29.5.0, SVG Export Plug-In . SVG Version: 2.1.0 Build 137)  -->
  <defs>
    <style>
      .st0 {
        fill: #fff;
      }

      .st1 {
        fill: #f20000;
        stroke: #666;
        stroke-miterlimit: 10;
      }
    </style>
  </defs>
  <rect class="st1" width="200" height="90" rx="10" ry="10"/>
  <g>
    <path class="st0" d="M102.4,29.6c0-10.7-7.6-14.7-13.4-14.7h-13.7v29.4h13.7c5.8,0,13.4-4,13.4-14.7M94.8,29.6c0,5.2-3.8,7.4-5.7,7.4h-5.9v-15h5.9c2.1,0,5.7,2.3,5.7,7.5"/>
    <path class="st0" d="M149.5,25.5l2.6-7.5c-3.3-1.9-8-3-13.1-2.8-8.7.9-13.8,5.9-14,14.7.2,9.1,5.3,13.8,14,14.7,5.9.4,10.6-1.1,14-3.6l-3.8-7.1c-2.2,2-4.8,3-8,3.1-5.4-.1-8.1-2.5-8.1-7.1s2.9-7.3,8.4-7.4c3.2.2,6,1.1,8.2,3"/>
    <polygon class="st0" points="111.4 22.6 124.2 22.6 124.2 15 103.8 15 103.8 44.4 111.4 44.4 111.4 33.7 123.3 33.7 123.3 26.4 111.4 26.4 111.4 22.6"/>
    <polygon class="st0" points="65.9 44.4 73.4 44.4 73.4 15 65.9 15 65.9 25.5 54.6 25.5 54.6 15 47.2 15 47.2 44.4 54.6 44.4 54.6 32.8 65.9 32.8 65.9 44.4"/>
    <path class="st0" d="M152.8,60.6c0-10-6.5-14.2-14.6-14.2s-14.6,4.2-14.6,14.2,6.5,14.2,14.6,14.2,14.6-4.2,14.6-14.2M144.8,60.6c0,4.7-1.6,8.6-6.6,8.6s-6.6-3.8-6.6-8.6,1.5-8.6,6.6-8.6,6.6,3.8,6.6,8.6M122.1,74s0-14.8,0-14.8h-12.1v5.3h4.8v4.8c-9.4,2.3-11.6-2.7-11.6-8.3,0-8.5,4.8-8.6,6.9-8.6,4.3,0,4.8,3.2,4.8,3.2h7.4c-1-9.9-13.2-9-13.2-9-14.4,0-13.7,14.3-13.7,14.3,0,13.2,11.2,14.2,14.6,14.2s6.4-.4,12.3-1M94.2,56.1c0-9.4-9.8-9-9.8-9h-13.9s0,27.5,0,27.5h7.4v-10h2.6s6.8,10,6.8,10h8.4l-7.4-10.6c5.9-1.2,5.9-7.9,5.9-7.9M87.3,56.1c0,3.8-3.7,3.7-3.7,3.7h-5.8v-6.9h5.8s3.7,0,3.7,3.2M47.2,74.5h21.1v-5.8h-13.7v-5.3h12.7v-5.3h-12.7v-5.3h13.7v-5.8h-21.1v27.5Z"/>
  </g>
</svg>