<?xml version="1.0" encoding="UTF-8"?>
<svg id="Layer_1" xmlns="http://www.w3.org/2000/svg" version="1.1" viewBox="0 0 200 90">
  <!-- Generator: Adobe Illustrator 29.5.0, SVG Export Plug-In . SVG Version: 2.1.0 Build 137)  -->
  <defs>
    <style>
      .st0 {
        stroke: #666;
        stroke-miterlimit: 10;
      }

      .st0, .st1 {
        fill: #fff;
      }

      .st2 {
        fill: #c32621;
      }

      .st3 {
        fill: #043c77;
      }
    </style>
  </defs>
  <rect class="st0" x="0" width="200" height="90" rx="10" ry="10"/>
  <g>
    <path d="M165.6,45.1c-.3-.4-.7-1.2-1.1-1.5-.5-.3-1.1.2-1.1-.7,1.2-.3,1.8,1.4,2.4,2.2,1.3.1,2.9-.2,4.2,0s.5.1.6.4h-.9c0,0,0,1.2,0,1.2-.4,0-1.8-.2-1.9.2-.2.9,1.1.4,1.4.4.7,0,1.5,1.1.8,1.7-1.1,1-2.6-.5-3.3-1.3.3-.5.6.3.8.5.6.5,1.5.9,2.2.3s.3-.4,0-.7c-1.2,0-2,.3-2.3-1.2.3-.9,1.2-.6,1.9-.6v-.6h-3.6v1.5c-3,.4-1.7,2.9.6,1.4v.6c-2.2,1.5-4.4-2-1-2.5v-1s-2.7,0-2.7,0v3.9l-.4-.2v-1.4s-1.4,0-1.4,0l-.3.6c-.5-.2-.8-.6-.8-1.2h.4c0,0,0-1.7,0-1.7h-1.3v3.9h-.2c0,0-.4-.3-.4-.4v-3.6h-1.3v3.9c-.1,0-.6-.3-.6-.4v-2.2c-.6-.1-1.2.2-1.2.9-.4,0-.4-.4-.6-.6s-.9-.3-1.1,0c-.3.6.3,1.2.6,1.6l.9.9c-1,0-2.8-2.1-1.9-3s1.5-.3,1.6.4c.5-.4.9-.8,1.6-.4v-1s-4.4,0-4.4,0v3.9c-.1,0-.4-.1-.4-.2-.4-.4,0-3-.1-3.7-.4,0-.8,0-1-.4h1.2c-.3-.6-.5-1.1-.1-1.7.9-1.4,3,.3,3.6,1.2-.6-.2-1-.8-1.6-1s-1.1-.2-1.5,0c-.3.3-.2,1.4.2,1.4h6.2c-.7-1.3.2-2.6,1.7-2s2.1,1.3,1.8,1.6c-.9-.7-1.7-1.6-2.9-1-.4.4-.2,1,0,1.5h7ZM162.1,45.5h-1.5v1.7h1.5v-1.7Z"/>
    <path d="M93.2,45.1h2.3c-.3-.4-.7-1.2-1.1-1.5-.5-.3-1.1.2-1.1-.7,1.1-.4,2,1.3,2.3,2.2h5l.2.4h-.7v3.9l-.4-.2v-1.8c-.7.2-1,.4-1.6,0l-.5.5c0,.3.9.8,1.2,1.1s.2.3,0,.4-2.3-1.9-1.8-2.5h.7c0,.1,0-1.5,0-1.5h-2c0,.8.2,1.8-.4,2.4,0,.3,1.7,1.2,1.1,1.7l-1.9-2.3c0-.4.6-.3.7-.3v-1.4s-1.6,0-1.6,0v3.9h-.4v-3.9h-1.5v3.9l-.4-.2v-1.2c-1.1.8-2.3.1-2.5-1.2.9,0,1.4-.4.8-1.3h-1.7c0,.3.2.4.3.6.2.9-.4,1.6-1,2.2,0,.3,1.2.9.6,1.4-.3-.3-.6-.9-.9-1.2s-.8-.3-.9-.7c-.2-.7.7-.6.9,0l.7-.8c-.6-.3-1.6-.7-1.3-1.5h-3.2v1c-.3,0-1.5-.2-1.6.2-.2.7.9.4,1.2.5.9.2.7,1.9-.3,1.9l.7,1-.3.3c-.1-.3-.5-.9-.7-1.1-.4-.3-.9-.2-1-.7l.2-.4c.4,0,.5.4.9.4.6,0,.8-.5.7-1-1.9.5-2.7-2.1-.1-1.7v-.4c-.2-.2-2.1.4-2.3-.4h12.8c-.1-.4-.7-1.3-.9-1.5-.5-.3-1.1,0-1.2-.7,1.3-.4,1.9,1.2,2.5,2.2ZM87.5,46.8c.2-.6,0-1.3-.6-1.3-.6.6,0,1.3.6,1.3ZM91,45.5h-1.3c.7.9.4,1.6-.7,1.7.1.9,1.5.7,1.9,0s0-1.3.1-1.8ZM99.7,45.5h-1.6s0,1.6,0,1.6c.6.3,1,0,1.5-.3v-1.3Z"/>
    <path d="M136,45.1c-1.1-2.5,2.6-2.3,4.1-1.7l2.3,1.3c-1-.3-1.8-.9-2.9-1.1s-3.4-.3-3.2,1.2c0,.1.1.4.2.4h12.2l.2.4h-.6v3.9c-.1,0-.6-.3-.6-.4v-3.6h-1.3v3.9c-.8-.2-.4-.7-.6-1.3-1.3.6-2.1,0-2.5-1.3,2.4-.3.9-1.8-.9-1.3v1.2c-.2.2-2.7-.4-1.6.8.8-.3,2.1,0,2.1,1,0,1.8-3.3.5-3.5-.8.2-.2.9.7,1.1.8.7.4,1.7.6,1.9-.3l-.2-.3c-2.2.7-3.2-2.2-.3-1.8v-.6h-5.4v3.9h-.2c0,0-.4-.3-.4-.4v-3.6h-1.2s0,1,0,1c-.6,0-1.3-.2-1.7.4.5.7,1.5,0,1.8.9s-.2,1.1-.8,1.3l.7.9c.1.3-.2.3-.4.2s-.4-.8-.6-1c-.4-.3-.9-.2-1-.7.3-.9.7,0,1,0,.6.2.8-.5.8-1-1,.2-1.6-.2-1.9-1.1,0-.6,1.2-.6,1.6-.6v-.4s-1.9,0-1.9,0l-.2-.4h3.9ZM146,45.5h-1.3c.6.8.4,1.7-.7,1.7,0,.8,1.4.7,1.8.2s.1-1.4.3-2Z"/>
    <path d="M112,45.1c0-.7-.7-1.8-1.4-1.2s.3,1.1-.4,1c-.7-2.6,2-1.8,2,.1h4.2v.4c.1,0-.6,0-.6,0v2.1c0,.3-.8.6-1,0l.6-.3v-1.8s-1.4,0-1.4,0c.3.7,0,1.5.2,2.2s2.3,1.3,2.6,2.1-.4.8-.6.3,0-.3-.1-.6c-.3-.5-2.5-1-2.5-1.9v-2.1h-1.2v3.9h-.4v-3.9h-1.5v3.9l-.4-.2v-1.4c-1.6.6-2.3-.9-2-2.3h-.9v3.7l-.2.2c0,0-.4-.3-.4-.4v-3.6h-1.5s-.1,1.4-.1,1.4c-.3.4-2.1.2-1.7,1.4s1.5.6,2,.3.5.3.1.6c-1.4,1-3.5-1-2.2-2.1s1.6,0,1.3-1.5c-.2-.2-2.1.4-2.3-.4h4.4c.1-1.5-2-2-1.3-.1-.2.2-1.1-.9-.1-1.5s1.6.9,1.9,1.7h4.9ZM110.2,45.5h-1.5c0,.6-.2,1.7.2,2,1.4.3,1.3-1.1,1.2-2Z"/>
    <path d="M163.5,58v-3.6h1.2v5.8c-.4,0-.9.1-1.2-.1s-1.7-2.7-2.1-3.3,0-.3-.3-.2v3.6h-1v-5.8c.3,0,.7,0,.9,0,.6.1,1.9,3.1,2.5,3.6Z"/>
    <path d="M98,54.4c1.8.3,1.7,2.9,0,3.3.4.2,1.9,2.4,1.7,2.5-.4,0-1,.1-1.3,0-.6-.4-1.2-2.8-2.6-2.4v2.5h-1.2v-5.8c1,.1,2.4-.2,3.4,0ZM95.8,56.8l2.2-.2c.7-1.7-1.1-1.2-2.2-1.2v1.5Z"/>
    <path d="M123.2,49.4l-.4-.2v-1.6c-.6.4-.7.1-1.3,0,.3,1.4-1,1.8-2,.9s-.9-.9-.9-1c0-.6,1,.6,1.1.7,1.6,1,2.2-1.5.3-.9l-.2-.4c1.8-.5,1.3-1.9-.4-1.2l-.3-.5c.7-.4,2.3,0,2.3.9s-.5,1.1.7,1.1.8-.9.8-1.7c0,0-1.3.3-1.2-.4h8.6s.4.3.4.4h-2v1.3c1.5-.6,2.4,1.3,1.1,2.2l-.4-.4c.3-.3.7-.7.5-1.2l-.4-.3-.8.3v2c-.8,0-.5-1-.6-1.6-1.4.5-2.1-1.1-1.9-2.3h-1v3.9h-.4v-3.9h-1.5v3.9ZM128,45.5h-1.3c0,1.2-.3,2.5,1.3,1.7v-1.7Z"/>
    <path d="M165.9,60.2v-5.8h3.1c0,0,.7.4.8.5,1.4,1.1,1.3,4.3-.4,5.1s-.7.3-.8.3h-2.8ZM167,59.2c1.8.1,2.6,0,2.6-1.9,0-1.9-.8-1.9-2.6-1.8v3.8Z"/>
    <path d="M77.5,54.4h1.2c0,.1,2.2,3.8,2.2,3.8v-3.8h1v5.8c-.3,0-.9.1-1.1,0-.4-.3-1.6-3.2-2.4-3.6v3.6h-1v-5.8Z"/>
    <path d="M106.4,54.4h1.2c0,.1,2.2,3.8,2.2,3.8v-3.8h1v5.8c-.3,0-.9.1-1.1,0-.4-.2-1.7-3.3-2.4-3.6v3.6h-1v-5.8Z"/>
    <path d="M190.5,60.2v-5.8h3c0,0,.7.3.8.4,1.4.9,1.4,4.2,0,5.1s-.9.4-.9.4h-2.8ZM191.7,59.2c1.6,0,2.4.2,2.5-1.7,0-1.9-.6-2.3-2.5-2.1v3.8Z"/>
    <path d="M148.6,55c1.2,1.2,1,4.1-.6,4.9-2.7,1.4-4.9-1.1-4.1-3.8.6-2,3.3-2.5,4.7-1.1ZM146.1,55.3c-1.7.4-1.5,4.2.5,4,2.2-.2,2-4.6-.5-4Z"/>
    <path d="M50.5,54.4c0,.4.1.8-.2,1h-3v1.3h2.9v.9h-2.9v1.6h3.2v1h-4.4v-5.8h4.4Z"/>
    <polygon points="122.3 54.4 122.3 55.4 119.3 55.4 119.3 56.7 122.2 56.7 122.2 57.6 119.3 57.6 119.3 59.2 122.5 59.2 122.5 60.2 118.1 60.2 118.1 54.4 122.3 54.4"/>
    <polygon points="41.5 54.4 41.5 56.7 43.6 56.7 43.8 56.5 43.8 54.4 45 54.4 45 60 44.8 60.1 43.8 60.2 43.8 57.8 43.6 57.6 41.5 57.6 41.5 60.2 40.4 60.2 40.4 54.4 41.5 54.4"/>
    <polygon points="67.9 54.4 67.9 56.7 70.2 56.7 70.2 54.4 71.4 54.4 71.4 60.2 70.2 60.2 70.2 57.6 67.9 57.6 67.9 60.2 66.8 60.2 66.8 54.4 67.9 54.4"/>
    <path d="M87.5,56h-1c-.1-.9-2.2-1-2.1-.2s3.1.6,3.3,2.2c.5,3.1-4.4,3.1-4.6.4h1.2c-.2,1.2,2.3,1.4,2.3.2s-2.8-.7-3.2-2.1c-.7-2.7,4.1-3,4.2-.5Z"/>
    <path d="M103.5,54.4l2.2,5.8h-1.3c0-1.8-1.3-1.3-2.7-1.3l-.5,1.3h-1.3s2.2-5.6,2.2-5.6c.3-.4,1-.2,1.4-.2ZM103.5,57.8c0,0-.5-2-.9-2l-.6,2h1.4Z"/>
    <path d="M141.1,60.2h-1.3s-.4-1.2-.4-1.2h-2.5c0,0-.4,1.1-.4,1.1h-1.2c0,0,2.2-5.7,2.2-5.7h1.4c0,.1,2.2,5.8,2.2,5.8ZM138.9,57.8c0-.2-.7-2.2-.9-2l-.7,2h1.6Z"/>
    <path d="M177,54.4l2.2,5.8h-1.2c0,0-.7-1.3-.7-1.3-.6,0-1.3-.1-1.9,0s-.5.8-.8,1.3h-1.1s2-5.6,2-5.6c.3-.4,1-.2,1.4-.2ZM176.5,55.8c-.4,0-.2,0-.3.2s-.6,1.8-.6,1.8h1.4l-.6-2Z"/>
    <path d="M54.6,54.4l2.2,5.8h-1.2c0,0-.7-1.3-.7-1.3-.6,0-1.3-.1-1.9,0s-.5.8-.8,1.3h-1.1s2-5.6,2-5.6c.3-.4,1-.2,1.4-.2ZM54.6,57.8l-.7-2c-.5.6-.6,1.4-.8,2h1.4Z"/>
    <path d="M89.8,54.4v3.4s.2.9.2.9c.4,1,2.1.4,2.1,0v-4.3h1.2v4.4c0,.4-.6,1.1-1.1,1.3-1.1.4-3,.3-3.4-1s-.2-1-.2-1.1v-3.6h1.2Z"/>
    <path d="M132.2,58v2.2h-1.2v-5.8h3.1c.3,0,1.1.7,1.2,1,.7,2.2-1.3,2.8-3.1,2.6ZM134.1,55.6c-.3-.3-1.4-.1-1.9-.2v1.6c.7,0,2,.2,2-.8s0-.5-.2-.6Z"/>
    <path d="M117,56c-1.3.6-1.1-.2-1.7-.6-2.1-1.1-2.9,2.9-1.3,3.7s1.6,0,1.9-1l1.1.2c0,2-3,2.5-4.2,1.2-1.1-1.1-1-3.7.2-4.7s3.8-.6,4,1.2Z"/>
    <polygon points="154.3 54.4 154.3 55.4 151.5 55.4 151.5 56.7 153.8 56.7 153.8 57.7 151.5 57.7 151.5 60 151.3 60.1 150.3 60.2 150.3 54.4 154.3 54.4"/>
    <polygon points="189.8 54.4 189.7 55.3 188.1 55.4 188.1 60.2 186.9 60.2 186.9 55.4 185.2 55.4 185.2 54.4 189.8 54.4"/>
    <polygon points="66 54.4 65.9 55.3 64.3 55.4 64.3 60.2 63.1 60.2 63.1 55.4 61.4 55.4 61.4 54.4 66 54.4"/>
    <polygon points="130.2 54.4 130.2 55.4 128.6 55.4 128.6 60 128.3 60.1 127.4 60.2 127.4 55.4 125.7 55.4 125.7 54.4 130.2 54.4"/>
    <polygon points="58.6 54.4 58.6 59.2 61.5 59.2 61.5 60.2 57.5 60.2 57.5 54.4 58.6 54.4"/>
    <polygon points="183.4 59.2 186.3 59.2 186.3 60.2 182.3 60.2 182.3 54.4 183.2 54.4 183.4 54.6 183.4 59.2"/>
    <path d="M74.5,45.5h-3.9v1c-.4,0-1.9-.2-2,.2-.2.7.8.3,1.1.4.8.1,1.6,1.2.8,1.9l-.3-.4c.9-1.2-1.1-1.6-1.4-.5s.7,1.2,1.3,1.4.4,0,.1.3c-1.2-.2-2.8-1.4-1.5-2.5-1.6-1.3.3-1.3,1.5-1.2v-.6h-2.4s-.4-.3-.4-.4h2.5c-.1-.3-.6-.6-.9-.6-.6-.2-.9.2-1.1-.5.9-.3,1.6.3,2.2.8-.2-.8-.7-1.5-1.6-1.5v-.4c1.3-.2,1.5,1.3,2.2,2.1.6.3,2.7,0,3.6,0s.4.2.5.4Z"/>
    <rect x="157.7" y="54.4" width="1.2" height="5.8"/>
    <rect x="75.2" y="54.4" width="1.2" height="5.8"/>
    <path d="M171.8,54.4h1c.2.2.2,5.6,0,5.8h-1s0-5.8,0-5.8Z"/>
    <path d="M77.9,49.4l-.4-.2v-1.2c-1,.9-2.3.5-2.8-.7l1-.4c0-.1-1.9-.8-.9-1.7,1.4-1.2,2.9,2.2.4,2.4,1.3,1.4,2.6-.4,2.2-1.9l-.7-.5h1.6s.2.4.2.4h-.7v3.9ZM75.7,45.3c-.4,0-.6.3-.5.7.8,1.5,1.9-.2.5-.7Z"/>
    <path d="M74.6,46.8c-.6,0-.9.6-1.2,1h-.4c0-.1.3-.6.3-.6-.8-.8-1.9,0-1.3,1l1,1.2c-1.1-.1-2.4-2.8-.9-3s1.1.4,1.4.4.8-.7,1.1,0Z"/>
    <path d="M85.6,47v.4s-1.2,0-1.2,0l-.2.9c-1.6-1.4,0-1.4,1.4-1.3Z"/>
    <path d="M139.5,47v.4c-.8,0-1.5-.2-1.3.9-.2.2-.9-.6-.7-1.1l.2-.2h1.8Z"/>
    <rect x="196.3" y="59" width="1.2" height="1.2"/>
    <path d="M123.6,43.5c.4,0,.5.4,1,.4s.8-.2,1.1-.6l.4.4c-.8,1.1-1.9,1-2.5-.2Z"/>
    <rect class="st1" x="160.6" y="45.5" width="1.5" height="1.7"/>
    <path class="st1" d="M91,45.5c0,.6.2,1.3-.1,1.8s-1.7.8-1.9,0c1.1-.1,1.4-.9.7-1.7h1.3Z"/>
    <path class="st1" d="M99.7,45.5v1.3c-.5.3-1,.6-1.6.3v-1.6s1.6,0,1.6,0Z"/>
    <path class="st1" d="M87.5,46.8c-.7,0-1.2-.8-.6-1.3.7,0,.8.7.6,1.3Z"/>
    <path class="st1" d="M146,45.5c-.2.6,0,1.4-.3,2s-1.7.6-1.8-.2c1.1,0,1.3-.9.7-1.7h1.3Z"/>
    <path class="st1" d="M110.2,45.5c0,1,.1,2.3-1.2,2-.5-.3-.1-1.5-.2-2h1.5Z"/>
    <path class="st1" d="M95.8,56.8v-1.5c1,0,2.9-.4,2.2,1.2l-2.2.2Z"/>
    <path class="st1" d="M128,45.5v1.7c-1.6.8-1.3-.5-1.3-1.7h1.3Z"/>
    <path class="st1" d="M167,59.2v-3.8c1.7,0,2.5,0,2.6,1.8,0,2-.8,2-2.6,1.9Z"/>
    <path class="st1" d="M191.7,59.2v-3.8c1.8-.2,2.6.2,2.5,2.1,0,1.9-.9,1.7-2.5,1.7Z"/>
    <path class="st1" d="M146.1,55.3c2.6-.6,2.7,3.9.5,4-2.1.2-2.3-3.6-.5-4Z"/>
    <path class="st1" d="M103.5,57.8h-1.4s.6-2,.6-2c.3,0,.9,2,.9,2Z"/>
    <path class="st1" d="M138.9,57.8h-1.6s.7-2,.7-2c.2-.2.8,1.8.9,2Z"/>
    <path class="st1" d="M176.5,55.8l.6,2h-1.4c0,0,.5-1.6.6-1.8s0-.3.3-.2Z"/>
    <path class="st1" d="M54.6,57.8h-1.4c.2-.7.3-1.5.8-2l.7,2Z"/>
    <path class="st1" d="M134.1,55.6c.1.1.2.5.2.6,0,1-1.4.8-2,.8v-1.6c.5,0,1.5-.1,1.9.2Z"/>
    <path class="st1" d="M75.7,45.3c1.4.6.3,2.3-.5.7,0-.4.1-.7.5-.7Z"/>
    <polygon class="st3" points="21 47.3 21 42.6 11.5 42.6 20.9 33 17.7 29.7 2.5 44.9 17.7 60.2 20.9 57 11.6 47.3 21 47.3"/>
    <path class="st2" d="M24.6,29.9c-.4-.2-.7.3-1,.5-.8.6-1.6,1.8-2.4,2.5v.4s9.2,9.3,9.2,9.3h-9.4v4.6h9.4l-9.5,9.6,3.2,3.2h.3l15.1-15.1-15-15.1Z"/>
  </g>
</svg>