<?xml version="1.0" encoding="UTF-8"?>
<svg id="Layer_1" xmlns="http://www.w3.org/2000/svg" version="1.1" viewBox="0 0 200 90">
  <!-- Generator: Adobe Illustrator 29.5.0, SVG Export Plug-In . SVG Version: 2.1.0 Build 137)  -->
  <defs>
    <style>
      .st0 {
        fill: none;
        stroke: #666;
        stroke-miterlimit: 10;
      }

      .st1 {
        fill: #002653;
      }
    </style>
  </defs>
  <g>
    <path class="st1" d="M179.2,12.9c.7.5,1.2,1.3,1.2,2.2l-.9,9.1c1.9,0,3.4-.5,5.3,0s3.3,1.1,3.3,2.3v3.4c-1.2-.4-8.6-.3-9.1.4l-1.3,10.3c-.5,6.9,2.3,17.2,11.4,13.3s1.6-1.6,3.3-1.6c4.4,0,2.7,5.8.7,7.9-5.5,5.7-16.1,1-19.5-5s-1.9-6.6-2.6-10.6c0-.2-.2-.5-.3-.6-.5,0-5.6,4.6-8.3,4.6s-2.6-3.1-4.4-4.9c-4.1,5.7-10.4,8.4-15.8,2.4s-2.5-3.8-3.1-4.3-.4-.3-.7-.2c-1,.3-.2,5-1.5,6.3s-3.9,1.7-4.5,1.7c-2.6,0-1.6-2.9-2-4.1s-2.9,1-3.6,1.4c-4,2.2-7.9,3.1-9-2.5s-.1-2.9-.5-3.9-1.1-.4-1.6.2c-2.2,2.3-4.5,8.3-8.4,7.7s-1.9-3.9-2.8-3.7-2.1,2.4-2.7,2.9c-3,2.7-5.1,3.1-8.4.6s-.8-1.2-1.6-1.2-4.1,2.2-5.3,2.6c-4,1.5-7.8,1.3-11.1-1.7-3,1.7-5.6,3.6-9.3,2.3s-2.5-1.5-2.8-1.5-2.6,1.4-3.4,1.6c-5.3,1.6-7.5-1.8-9.2-6.2s-.3-1.7-.6-2.4,0-.3-.4-.3-3,2.2-3.7,2.7c-3,2.1-6.8,4.2-10.2,5.5-11.2,4.3-27.1,3.9-30.3-10.1.2-1.7-.2-3.8,0-5.5,1.2-9.6,12.6-16.7,21.4-18,6.1-.9,14.8.3,20.4,3.2,4.5,2.3,6.8,9.2,1.1,11.6s-5.7-.2-8.8-.9c-7-1.5-13.4-1.4-19.3,3.1-7.2,5.5-1.8,11.9,5.6,11.9s15.2-6,19.4-9.2,3.8-3.6,5.5-4.7,1.5-.9,2.2-.4,2.7,10,4.3,12.1,2.5,1.7,3.3.6.3-4.8.3-6.1c.3-5.9.8-14.1,2.4-19.8.8-2.9,4.9-3.9,6.2-.8s-.4,13.9-1,18-1.7,6.6,1.7,8.2,4.7-3,6.3-5.3,7.6-7.2,11.4-7.6,4.2-.2,3.7,2.1-1.9,2.3-3,3.5-4.3,4-4.5,5.5.3,2,1.8,1.3c2.2-1.1,7.2-6,9.2-6s2.1,6.9,6,4.2,3.8-3.5,3.9-3.7c.3-.7,0-2.6.1-3.6.3-2.7,1-5.6,4.3-5.7s1.6,6.4,3.2,8.3c2.8-1,6.9-11.6,9.8-5.4s1.7,6.2,2.9,8.9c.9,1.6,3.4,0,4.4-.9,3.5-3.6,1.6-10,2.6-14.6.5-2.5-1.2-7,.6-8.9s4.7-1.8,6.3-1.1.6,5.3.5,6.9c-.2,3.5-.3,7-.7,10.5.6.6,6.3-5,7.9-4.8s2.3,1.7,2.6,2.8,0,1.4-.7,2-4.1,2.7-4.4,3.2,0,1.3.2,1.8c.5.9,4.5,6,5.3,6.7,1.2,1.1,1.9.6,3-.2,1.9-1.5,4.8-5.3,5.3-7.7s-.3-4.6,1.7-6.6,4.6-1.3,5.5.5c1.5,3.2-.3,6.6.5,9.2,1.1,3.5,5.2-.2,5.6-2.5.2-1.4,0-3.1.3-4.5,0-1.2-2.4-1.5-3.2-2.8s-.5-3.2.2-4.1,3,.4,3.6-.4.2-5.4.3-6.4c.3-2.7,1.9-3.7,4.2-4.7h2.8Z"/>
    <path class="st1" d="M155.3,77.1c-1-.6-1.4-.9-1.6-2.1,1-.3,1.2.8,1.8,1.1,1.7.6,2.9-.5,2.6-2.2-.7,0-1,.6-1.7.7-3.9,0-3.6-7.6.6-6.6s.9.6,1.3.6.2-.8,1-.5v6.6c0,1-1,2-1.8,2.4h-2.1ZM156,68.9c-1.7.4-1.8,3.9-.1,4.6,2.9,1.2,3.3-5.4.1-4.6Z"/>
    <path class="st1" d="M124.4,74.6c-.6,0-1,.1-1.2-.6s-.1-7.9.1-8.2,1.5-.3,1.7-.2,1.9,6.1,2.3,7-.1.4.5.3l2.3-7.3h1.6c0-.1,0,8.5,0,8.5,0,.4-1.2.4-1.2,0v-6.8l-2.5,6.9c0,.5-.8.3-1.1,0-.5-.5-1.8-5.4-2.3-6.5s0-.7-.4-.6v7.4Z"/>
    <path class="st1" d="M57.1,65.6c.3.2,1.5,6.5,1.7,7.4l2.1-7c0-.5,1.4-.5,1.6-.4.4.3,1.5,6.5,2,7.4l1.7-7.3h1.2c-.5,1-2,8.4-2.5,8.8s-.8.2-1.1-.1l-2.1-7.4-2.1,7.4c-.3.4-.9.3-1.2,0-.8-.8-1.6-7.2-2.4-8.7,0-.2,1-.2,1.1,0Z"/>
    <path class="st1" d="M102.2,65.6c.3.3,1.1,6.3,1.5,7.2l.3.2,1.8-7.3c.2-.2,1-.2,1.3-.1.4.1,1.9,6.5,2.1,7.4.6-.9,1.5-7.1,1.7-7.4s.9,0,1.1,0c-.3,1.1-1.9,8.7-2.3,9s-1,0-1.2-.5c-.9-1.6-1.3-5.3-1.8-7.1-.6,0-.4,0-.5.3-.3,1.1-1.6,6.9-2.2,7.2s-.8,0-.9-.1l-2.2-8.8c.3,0,1,0,1.1,0Z"/>
    <path class="st1" d="M175.6,65.6c1.4.3,2.4,2.1,1.6,3.4s-.9.4-.7,1c2.8.8,1.4,4.6-1.3,4.6h-3.8v-9c1.3.2,3.1-.2,4.3,0ZM172.4,69.3c1.2-.2,3.4.6,3.8-.9s-2.6-1.7-3.8-1.9v2.8ZM172.4,73.4h3.4c0,0,.7-.7.8-.9.8-2.7-2.5-2.2-4.1-2.2v3Z"/>
    <path class="st1" d="M49.4,65.9c.8.7.7,2.2,0,3s-1,.3-.8,1,1.1,1.5,1.2,1.5c.6.2.2-.7.7-.9,1.8-.6.3,1.6.3,2,0,.6,1.2,1.1,1.1,1.6s-.5.6-.8.6-1-1.1-1.2-1.1-.9.9-1.7,1.1c-3.9.8-5.1-3.6-1.7-5,.2-.2-.8-1.3-.9-1.8-.3-1.9,2.2-3,3.6-1.8ZM48.7,66.6c-.4-.4-1.6-.3-1.8.3-.3.9.5,1.2.7,1.9.4.3,2-1.4,1.1-2.3ZM47.6,70.2c-.7-.4-2.3,1.3-1.5,2.7.8,1.2,2.2.7,3.1-.1,0-.3-1.5-2.5-1.6-2.6Z"/>
    <path class="st1" d="M6.2,65.6c.3,0,.7-.2.9.1s.2,2,.2,2.3-.4,1.3.1,1.3h4.3c0-.6.3-1.1.3-1.7,0-1.1-.9-2.1.9-2v9c-.4,0-.9.1-1.1-.3.3-.5.3-4.1-.2-4.1h-4.2c-.9,0,.9,5.2-1.3,4.4v-9Z"/>
    <path class="st1" d="M189.6,65.6h1.2s0,3,0,3c1.1-1.2,4.2-.7,4.2,1v4.6c0,.4-1.2.4-1.2,0v-4.6s-.6-.6-.7-.7c-.8-.4-2.3.4-2.3,1.2v4.2c0,.4-1.2.4-1.2,0v-8.7Z"/>
    <path class="st1" d="M34.7,65.6h1.2s0,3,0,3c2-1.3,3.9-.8,4.2,1.7s.1,4-.2,4.2-.6,0-.9.1v-5c0-.3-1.1-.8-1.5-.8s-1.5.8-1.5,1v4.4c0,.4-1.2.4-1.2,0v-8.7Z"/>
    <path class="st1" d="M138.2,68.4c1.1,1,.1,4.8.8,6.2-.8.4-1.2-.7-1.3-.7-.4,0-1.1.6-1.8.7-1.7.2-3-.5-2.6-2.4s4.2-1.3,4.4-1.9c.3-1.4-1.3-1.7-2.3-1.4s-.7,1.4-1.8,1.1c-.2-2.2,3.7-2.6,4.8-1.6ZM137.5,71.4c-.9.2-3.1.1-3.2,1.3-.3,2.3,4.1,1,3.2-1.3Z"/>
    <path class="st1" d="M152.6,74.6c-.8.4-1.2-.7-1.3-.7-.4,0-.9.5-1.3.6-1.4.4-3.4,0-3.2-1.8s4.3-1.7,4.4-2.4c.4-1.5-1.7-1.9-2.6-1.3s0,1.3-1.5.9c0-2.6,4.9-2.9,5.3-.6s-.3,3.5.2,5.2ZM151.2,71.4c-.9.2-3.1.1-3.2,1.3-.2,2.2,4.1,1.2,3.2-1.3Z"/>
    <path class="st1" d="M87.8,65.6h1.2s0,3,0,3c2.5-1.5,3.9-.6,4.2,2.2s.5,4.3-1.2,3.8v-4.7c0-1.3-2.7-1.6-3,.5-.2,1.4.8,4.6-1.1,4.3v-9Z"/>
    <path class="st1" d="M20.3,71.6h-4.6c-.2,1.5,1.2,2.5,2.6,2s.6-.9,1-1.1c2-.8.5,1.8-1,2s-3.6-.4-3.8-2.4c-.7-5.5,6-5.8,5.8-.6ZM19.2,70.7c0-2.5-3.4-2.5-3.5,0h3.5Z"/>
    <path class="st1" d="M73.5,71.6h-4.6c-.2,1.5,1.2,2.5,2.6,2s.6-.9,1-1.1c2-.8.5,1.8-1,2s-3.6-.4-3.8-2.4c-.7-5.6,6-5.7,5.8-.6ZM72.3,70.7c0-2.5-3.5-2.5-3.5,0h3.5Z"/>
    <path class="st1" d="M118.4,71.6h-4.6c-.2,1.6,1.3,2.6,2.8,2s.5-1.5,1.9-1c-.4,2.9-4.7,2.8-5.6.2-1.8-5.5,6.2-6.8,5.6-1.1ZM117.4,70.7c-.3-2.5-3.4-2.5-3.7,0h3.7Z"/>
    <path class="st1" d="M27,74.6c-.6.6-1.2-.7-1.3-.7-.3,0-.7.4-1.1.5-3.8,1-4.3-2.7-2.1-3.4s3.2-.3,3.3-.7c.2-1.2-1.6-1.8-2.6-1.4s-.4,1.3-1.5,1,.6-1.7,1.3-1.9c4.4-1.2,3.6,2,3.6,4.8s.4,1.6.2,1.7ZM25.9,71.4c-1,.2-4.1.2-3.4,1.8s3.8,0,3.4-1.8Z"/>
    <path class="st1" d="M166.4,71.6h-4.9c0,1.6,1.4,2.6,3,1.9s.2-1.4,1.7-1c0,2.6-4.4,2.7-5.4.6-2.4-5.3,5.6-7.9,5.6-1.6ZM165.3,70.7c-.2-2.5-3.4-2.5-3.7,0h3.7Z"/>
    <path class="st1" d="M80.2,74.6c-.8.2-1.2-.7-1.3-.7-.4,0-1,.6-1.4.7-3.3.7-4.1-2.8-1.5-3.6s2.9-.4,3.1-.5c0-1.6-1.3-2-2.7-1.5s-.2,1.4-1.7,1c0-2.5,4.9-2.9,5.3-.6s-.3,3.5.2,5.2ZM79,71.4c-1,.2-4.2.2-3.4,1.8s3.7,0,3.4-1.8Z"/>
    <path class="st1" d="M181.4,67.9c4.6-.7,4.9,7.2,0,6.7s-3.5-6.1,0-6.7ZM181.4,68.9c-2.1.4-2,5.7,1.3,4.8s1.8-5.4-1.3-4.8Z"/>
    <path class="st1" d="M144.5,74.6v-4.7c0-1-2.8-1.8-3,.5s.7,4.6-1.2,4.3v-6.5c.9,0,.9-.1,1,.7.8-1.1,3.1-1.3,3.8,0s.2,3.5.2,4.6.6,1.3-.9,1.3Z"/>
    <path class="st1" d="M187.5,68.1c0,0,.9,0,1.2,0v.7c-.3,0-1.1,0-1.2,0-.2.2,0,4.5.1,4.7.6.4,1.3-.2,1,1.1-3.7.5-1.8-3.8-2.3-5.7s-1.3-.2-.7-.8.6,0,.7,0c.2-.2-.4-2.2,1.2-2.3,0,.4,0,2.2,0,2.3Z"/>
    <path class="st1" d="M32.6,68.1c.1.1,1-.3,1.2.6-.2.3-1,0-1.2.1-.2.2,0,4.6.2,4.8.5.4,1.2-.4.9,1-3.7.5-1.8-3.8-2.3-5.7s-1.3-.2-.7-.8.6,0,.7,0c.2-.2-.4-2.2,1.2-2.3,0,.4,0,2.2,0,2.3Z"/>
    <path class="st1" d="M85.8,68.1c0,0,.8,0,.9,0s0,.7,0,.7c0,0-.8,0-.9,0-.2.2,0,4.6.2,4.8.5.4,1.2-.4.9,1-3.7.6-1.8-3.8-2.3-5.7s-1.3-.2-.7-.8.6,0,.7,0c.2-.2-.4-2.2,1.2-2.3,0,.4,0,2.2,0,2.3Z"/>
    <path class="st1" d="M82.7,65.6v9c-.3,0-1.2,0-1.2-.3v-8.7h1.2Z"/>
    <path class="st1" d="M29.6,65.6v8.7c0,.4-1.2.4-1.2,0v-8.7h1.2Z"/>
    <path class="st1" d="M96.2,73.2c0,1.2.4,2.7-1.2,3-.2-.2.7-1.2.7-1.5s-1.1-.5-.7-1.5h1.2Z"/>
    <path class="st1" d="M165,25.5c-1.3,1.6-8.1,1.6-7.5-1.6s10.2-1.6,7.5,1.6Z"/>
  </g>
  <rect class="st0" width="200" height="90" rx="10" ry="10"/>
</svg>