<?xml version="1.0" encoding="UTF-8"?>
<svg id="Layer_1" xmlns="http://www.w3.org/2000/svg" version="1.1" viewBox="0 0 200 90">
  <!-- Generator: Adobe Illustrator 29.5.0, SVG Export Plug-In . SVG Version: 2.1.0 Build 137)  -->
  <defs>
    <style>
      .st0 {
        fill: #fff;
        stroke: #666;
        stroke-miterlimit: 10;
      }

      .st1 {
        font-family: Roboto-Medium, Roboto;
        font-size: 13px;
        font-weight: 500;
      }

      .st1, .st2 {
        fill: #258dd4;
      }
    </style>
  </defs>
  <rect class="st0" width="200" height="90" rx="10" ry="10"/>
  <g>
    <polygon class="st2" points="49 5 49 25.8 69.2 25.8 69.2 5 89.9 5 89.9 26.4 69.8 26.4 69.8 46.5 89.9 46.5 89.9 67.3 69.2 67.3 69.2 47.1 49 47.1 49 67.3 28.2 67.3 28.2 5 49 5"/>
    <path class="st2" d="M130.8,5v20.2h20.2V5h20.8v62.3h-20.8v-20.8h-20.2v20.8h-20.8v-20.5c0,0,.9-.9.9-.9h19.2v-20.2h-20.2V5h20.8Z"/>
    <text class="st1" transform="translate(29.4 80.8)"><tspan x="0" y="0">HERITAGE HEALTH</tspan></text>
    <g>
      <rect class="st2" x="28.2" y="67.9" width="143.5" height="1.8"/>
      <rect class="st2" x="28.2" y="83.2" width="143.5" height="1.8"/>
    </g>
  </g>
</svg>