<?xml version="1.0" encoding="UTF-8"?>
<svg id="Layer_1" data-name="Layer 1" xmlns="http://www.w3.org/2000/svg" viewBox="0 0 200 90">
  <defs>
    <style>
      .cls-1 {
        fill: #fcfdfc;
      }

      .cls-1, .cls-2, .cls-3, .cls-4, .cls-5, .cls-6, .cls-7, .cls-8, .cls-9, .cls-10, .cls-11, .cls-12 {
        stroke-width: 0px;
      }

      .cls-2 {
        fill: #e4e4e4;
      }

      .cls-3 {
        fill: #020202;
      }

      .cls-13 {
        fill: #fff;
        stroke: #666;
        stroke-miterlimit: 10;
      }

      .cls-4 {
        fill: #040404;
      }

      .cls-5 {
        fill: #030303;
      }

      .cls-7 {
        fill: #00a650;
      }

      .cls-8 {
        fill: #0f0f0f;
      }

      .cls-9 {
        fill: #f8f8f8;
      }

      .cls-10 {
        fill: #01a0e4;
      }

      .cls-11 {
        fill: #070707;
      }

      .cls-12 {
        fill: #f2f2f2;
      }
    </style>
  </defs>
  <rect class="cls-13" width="200" height="90" rx="10" ry="10"/>
  <g>
    <path class="cls-1" d="m12.16,14.24q.46,0,.94,0c.35,0,.71,0,1.07,0,.4,0,.8,0,1.2,0,.42,0,.84,0,1.26,0,1.16,0,2.32,0,3.48,0,1.25,0,2.49,0,3.74,0,2.16,0,4.33,0,6.49,0,3.13,0,6.25,0,9.38,0,5.07,0,10.15,0,15.22,0,4.93,0,9.86,0,14.79,0,.3,0,.61,0,.92,0,1.52,0,3.05,0,4.57,0,12.64,0,25.29,0,37.93.01-.31.94-.61,1.85-1.06,2.74q-.14.29-.29.58c-.1.2-.2.4-.31.6-.1.21-.21.42-.32.63-.33.66-.67,1.32-1,1.98-.23.45-.45.9-.68,1.35-.55,1.1-1.11,2.2-1.66,3.29h4.19c.18-.55.37-1.11.56-1.68q2.35-4.7,4.75-9.5h71.51v61.45h-101.67q.31-1.57.75-2.43c.1-.19.19-.38.29-.58.1-.2.2-.4.31-.61.11-.21.21-.42.32-.63.33-.66.67-1.33,1.01-1.99.23-.45.46-.9.68-1.35.56-1.1,1.11-2.21,1.67-3.31h-4.19c-.18.55-.37,1.11-.56,1.68-.33.71-.67,1.41-1.02,2.11-.1.2-.2.39-.3.59-.21.41-.41.82-.62,1.23-.32.63-.63,1.26-.95,1.89-.2.4-.4.8-.6,1.2q-.14.28-.29.57-.67,1.32-.98,1.63c-.38.03-.76.04-1.15.04-.25,0-.5,0-.75,0-.28,0-.55,0-.84,0-.29,0-.58,0-.88,0-.98,0-1.97,0-2.95,0-.7,0-1.4,0-2.1,0-1.71,0-3.42,0-5.14,0-1.39,0-2.78,0-4.17,0-.2,0-.4,0-.6,0h-1.2c-3.77,0-7.53,0-11.3,0-3.24,0-6.47,0-9.71,0-3.75,0-7.51,0-11.26,0-.4,0-.8,0-1.2,0-.2,0-.39,0-.6,0-1.39,0-2.78,0-4.17,0-1.87,0-3.74,0-5.61,0-.69,0-1.38,0-2.06,0-.94,0-1.87,0-2.8,0-.28,0-.55,0-.84,0-.25,0-.5,0-.75,0q-.32,0-.65,0-.49-.04-.77-.31c-.03-.78-.04-1.56-.04-2.34,0-.25,0-.5,0-.75,0-.84,0-1.68,0-2.52,0-.6,0-1.2,0-1.8,0-1.63,0-3.27,0-4.9,0-1.71,0-3.41,0-5.12,0-2.86,0-5.73,0-8.59,0-3.32,0-6.63,0-9.95,0-2.84,0-5.68,0-8.52,0-1.7,0-3.4,0-5.1,0-1.6,0-3.19,0-4.79,0-.59,0-1.18,0-1.76,0-.8,0-1.6,0-2.4,0-.24,0-.47,0-.71q0-1.89,1-1.94Z"/>
    <path class="cls-7" d="m12.16,14.24q.46,0,.94,0c.35,0,.71,0,1.07,0,.4,0,.8,0,1.2,0,.42,0,.84,0,1.26,0,1.16,0,2.32,0,3.48,0,1.25,0,2.49,0,3.74,0,2.16,0,4.33,0,6.49,0,3.13,0,6.25,0,9.38,0,5.07,0,10.15,0,15.22,0,4.93,0,9.86,0,14.79,0,.3,0,.61,0,.92,0,1.52,0,3.05,0,4.57,0,12.64,0,25.29,0,37.93.01-.3.94-.61,1.85-1.06,2.74q-.14.29-.29.58c-.1.2-.2.4-.31.6-.1.21-.21.42-.32.63-.33.66-.67,1.32-1,1.98-.23.45-.45.9-.68,1.35-.55,1.1-1.11,2.2-1.66,3.29-.32,0-.64,0-.96,0-7.77,0-15.53.02-23.3.04-.75,0-1.5,0-2.25,0-.19,0-.37,0-.56,0-2.82,0-5.64,0-8.45.01-3.28,0-6.55,0-9.83.02-1.73,0-3.46,0-5.2,0-1.64,0-3.27,0-4.91.01-.6,0-1.19,0-1.79,0-7.87-.03-15.3,1.76-21.18,7.24-3.11,3.28-5.2,7.74-5.17,12.29,0,.21,0,.41,0,.63.09,4.08,1.55,8,4.27,11.04.18.21.37.42.56.64,3.9,4.19,9.73,6.48,15.36,6.91,1.43.05,2.86.05,4.29.06.43,0,.86,0,1.29,0,1.16,0,2.32.01,3.48.02,1.21,0,2.43.01,3.64.02,2.3.01,4.59.03,6.89.04,2.62.01,5.23.03,7.85.04,5.38.03,10.76.06,16.14.09-.17.88-.34,1.62-.74,2.42-.09.19-.19.38-.29.57q-.15.3-.31.6c-.1.21-.21.42-.32.63-.22.44-.44.88-.66,1.31-.34.67-.68,1.34-1.02,2.02-.21.43-.43.85-.64,1.28-.1.2-.2.4-.31.61q-.72,1.41-1.03,1.72c-.38.03-.76.04-1.15.04-.25,0-.5,0-.75,0-.28,0-.55,0-.84,0-.29,0-.58,0-.88,0-.98,0-1.97,0-2.95,0-.7,0-1.4,0-2.1,0-1.71,0-3.42,0-5.14,0-1.39,0-2.78,0-4.17,0-.2,0-.4,0-.6,0h-1.2c-3.77,0-7.53,0-11.3,0-3.24,0-6.47,0-9.71,0-3.75,0-7.51,0-11.26,0-.4,0-.8,0-1.2,0-.2,0-.39,0-.6,0-1.39,0-2.78,0-4.17,0-1.87,0-3.74,0-5.61,0-.69,0-1.38,0-2.06,0-.94,0-1.87,0-2.8,0-.28,0-.55,0-.84,0-.25,0-.5,0-.75,0q-.32,0-.65,0-.49-.04-.77-.31c-.03-.78-.04-1.56-.04-2.34,0-.25,0-.5,0-.75,0-.84,0-1.68,0-2.52,0-.6,0-1.2,0-1.8,0-1.63,0-3.27,0-4.9,0-1.71,0-3.41,0-5.12,0-2.86,0-5.73,0-8.59,0-3.32,0-6.63,0-9.95,0-2.84,0-5.68,0-8.52,0-1.7,0-3.4,0-5.1,0-1.6,0-3.19,0-4.79,0-.59,0-1.18,0-1.76,0-.8,0-1.6,0-2.4,0-.24,0-.47,0-.71q0-1.89,1-1.94Z"/>
    <path class="cls-10" d="m117.34,14.27h71.51v61.45h-101.67q.31-1.57.74-2.42c.09-.19.19-.38.29-.57q.15-.3.31-.6t.32-.63c.22-.44.44-.88.66-1.31.34-.67.68-1.34,1.02-2.02.21-.43.43-.85.64-1.28.1-.2.2-.4.31-.61q.72-1.41,1.03-1.72c.81-.03,1.61-.04,2.41-.04.26,0,.51,0,.78,0,.87,0,1.73,0,2.6,0,.62,0,1.24,0,1.85,0,1.33,0,2.67,0,4,0,2.11,0,4.23,0,6.34-.01,2.97,0,5.93-.02,8.9-.02.19,0,.38,0,.57,0,3.04,0,6.09-.01,9.13-.02,3.13,0,6.26-.01,9.38-.02,1.75,0,3.51-.01,5.26-.01,1.65,0,3.31,0,4.96-.01.6,0,1.21,0,1.81,0,3.31,0,6.38-.12,9.59-.96.22-.06.43-.11.65-.17,5.24-1.46,9.9-4.33,12.76-9.05,2.27-4.08,3.07-9.1,1.8-13.63-1.83-5.07-5.23-9.36-10.14-11.78-4.86-2.26-9.61-3.16-14.96-3.17-.42,0-.84,0-1.26,0-1.13,0-2.25-.01-3.38-.02-1.18,0-2.36-.01-3.54-.02-2.23-.01-4.46-.02-6.69-.03-2.54-.01-5.08-.02-7.62-.04-5.22-.03-10.44-.05-15.66-.08,1.3-3.91,3.46-7.49,5.31-11.17Z"/>
    <path class="cls-4" d="m119.29,33.83c1.26.59,2.04,1.35,2.79,2.51.6,1.66.64,3.19.63,4.94q0,.42,0,.86c0,.6,0,1.19,0,1.79,0,.91,0,1.82,0,2.73,0,.58,0,1.16,0,1.75,0,.27,0,.54,0,.82-.02,2.28-.23,4.3-1.75,6.12-1.39,1.08-2.52,1.31-4.27,1.24-1.42-.23-2.45-.87-3.37-1.97-1.22-1.89-1.07-4.25-1.07-6.42,0-.25,0-.5,0-.76,0-.53,0-1.05,0-1.58,0-.8,0-1.59-.01-2.39q-.02-6.34,1.13-8.24c1.81-1.66,3.55-1.65,5.92-1.4Z"/>
    <path class="cls-3" d="m91.08,33.83c1.53.64,2.41,1.86,3.07,3.35.3,1.42.32,2.79.33,4.24q0,.37,0,.74c0,.52,0,1.03,0,1.55,0,.78,0,1.56.01,2.34q.02,6.94-1.74,9.01c-1.38,1.25-2.47,1.51-4.29,1.49-1.21-.16-2.07-.7-2.97-1.49q-.52-.7-.84-1.4c-.1-.21-.19-.43-.29-.65-.28-.8-.34-1.4-.34-2.24,0-.29,0-.58,0-.88,0-.31,0-.62,0-.94,0-.32,0-.65,0-.98,0-.68,0-1.36,0-2.04,0-1.04,0-2.08-.01-3.12,0-.66,0-1.33,0-1.99,0-.31,0-.62,0-.94.01-2.04.23-3.3,1.65-4.86,1.69-1.52,3.25-1.38,5.45-1.19Z"/>
    <path class="cls-3" d="m148.9,33.83c1.4.47,2.04,1.08,2.81,2.34.74,1.52.7,3,.69,4.66,0,.32,0,.64,0,.97,0,.67,0,1.35,0,2.02,0,1.02,0,2.05,0,3.07,0,.66,0,1.31,0,1.97,0,.3,0,.61,0,.92-.02,1.87-.28,3.39-1.27,5-1.16,1.13-2.25,1.76-3.88,1.76-1.49-.04-2.49-.31-3.57-1.39-1.13-1.26-1.52-2.12-1.54-3.83,0-.31,0-.61-.01-.93,0-.33,0-.66,0-1.01,0-.34,0-.68,0-1.03,0-.72,0-1.45,0-2.17,0-1.1-.02-2.21-.03-3.31,0-.7,0-1.41,0-2.11,0-.33,0-.66-.01-1,0-1.86.12-3.04,1.25-4.54,1.76-1.59,3.26-1.63,5.59-1.4Z"/>
    <path class="cls-4" d="m124.32,34.11h4.47c.09,2.12.18,4.24.28,6.42.46-2.12.92-4.24,1.4-6.42h4.47c-.3,1.39-.62,2.77-.99,4.14q-.11.42-.23.86c-.15.58-.31,1.16-.47,1.74-.47,1.79-.64,3.18-.26,5,.07.33.14.67.21,1.01.25,1.18.52,2.36.79,3.54.14.61.28,1.22.41,1.83.12.55.25,1.1.37,1.65q.18.91.18,2.02h-4.47q-.69-3.46-1.4-6.98c-.09,2.3-.18,4.61-.28,6.98h-4.47v-21.79Z"/>
    <path class="cls-11" d="m79.07,33.83c1.14.46,1.88.91,2.6,1.9q.21.27.42.55c.81,1.51.65,3.25.63,4.92,0,.23,0,.46,0,.7,0,.57,0,1.14-.01,1.71h-4.75v-6.15c-.37.09-.74.18-1.12.28v15.08q.41-.14.84-.28c.09-1.75.18-3.5.28-5.31h4.75q.11,5.69-1.31,7.51c-1.22,1.27-2.52,1.75-4.26,1.85-1.49-.05-2.54-.56-3.65-1.54-2.07-2.55-1.8-5.74-1.77-8.85,0-.77,0-1.54,0-2.31q.01-7.2,2.43-9.62c1.58-.71,3.21-.67,4.92-.45Z"/>
    <path class="cls-5" d="m63.43,34.11h7.54v4.47h-3.07v4.19h2.79v3.91h-2.79v9.22h-4.47v-21.79Z"/>
    <path class="cls-3" d="m101.7,34.11h9.5v4.47h-2.51v17.32h-4.47v-17.32h-2.51v-4.47Z"/>
    <path class="cls-5" d="m55.05,34.11h7.26v4.47h-3.07v4.19h2.79v4.19h-2.51v8.94h-4.47v-21.79Z"/>
    <path class="cls-6" d="m48.62,34.11h4.47v21.79h-4.47v-21.79Z"/>
    <path class="cls-6" d="m136.05,34.11h4.19v21.79h-4.19v-21.79Z"/>
    <path class="cls-2" d="m146.95,37.46h.84c.34.68.32,1.13.32,1.89q0,.42,0,.84c0,.3,0,.6,0,.91,0,.31,0,.61,0,.93,0,.65,0,1.3,0,1.95,0,1,0,1.99.01,2.99,0,.63,0,1.26,0,1.89,0,.3,0,.6,0,.91,0,.28,0,.56,0,.84,0,.24,0,.49,0,.74q-.07.63-.63,1.47c-.28-.09-.55-.18-.84-.28-.34-.68-.32-1.13-.32-1.9,0-.28,0-.56,0-.84,0-.3,0-.6,0-.91q0-.46,0-.93c0-.65,0-1.3,0-1.96,0-1,0-2-.01-3,0-.63,0-1.26,0-1.9,0-.3,0-.6,0-.91,0-.28,0-.56,0-.84,0-.25,0-.49,0-.74q.07-.59.63-1.15Z"/>
    <path class="cls-8" d="m95.55,45h5.59v3.91h-5.59v-3.91Z"/>
    <path class="cls-12" d="m88.85,37.46q.58.12,1.12.28c0,2.01.01,4.03.02,6.04,0,.69,0,1.37,0,2.06,0,.98,0,1.97,0,2.95,0,.31,0,.61,0,.93,0,.29,0,.57,0,.86,0,.25,0,.5,0,.76q-.03.64-.31,1.48c-.37-.09-.74-.18-1.12-.28,0-2.1-.01-4.21-.02-6.31,0-.72,0-1.43,0-2.15,0-1.03,0-2.05,0-3.08,0-.32,0-.64,0-.98,0-.3,0-.59,0-.9,0-.26,0-.52,0-.8q.03-.6.31-.87Z"/>
    <path class="cls-9" d="m117.06,37.46q.58.12,1.12.28c0,2.01.01,4.03.02,6.04,0,.69,0,1.37,0,2.06,0,.98,0,1.97,0,2.95,0,.31,0,.61,0,.93,0,.29,0,.57,0,.86,0,.25,0,.5,0,.76q-.03.64-.31,1.48h-.84c-.28-.83-.31-1.37-.32-2.24,0-.28,0-.57,0-.86,0-.31,0-.61,0-.93,0-.31,0-.63,0-.95,0-.66,0-1.33,0-1.99,0-1.02,0-2.04,0-3.06,0-.64,0-1.29,0-1.93,0-.31,0-.62,0-.93,0-.28,0-.56,0-.86,0-.25,0-.5,0-.76q.04-.57.31-.85Z"/>
  </g>
</svg>