<?xml version="1.0" encoding="UTF-8"?>
<svg id="Layer_1" xmlns="http://www.w3.org/2000/svg" version="1.1" viewBox="0 0 200 90">
  <!-- Generator: Adobe Illustrator 29.5.0, SVG Export Plug-In . SVG Version: 2.1.0 Build 137)  -->
  <defs>
    <style>
      .st0 {
        fill: #033671;
      }

      .st1 {
        fill: #fff;
        stroke: #666;
        stroke-miterlimit: 10;
      }

      .st2 {
        fill: #2e3192;
      }

      .st3 {
        fill: #c00;
      }
    </style>
  </defs>
  <rect class="st1" width="200" height="90" rx="10" ry="10"/>
  <g>
    <path class="st2" d="M79.8,23.8l5-18.7h15.4v34.9h-10.8V14.7l-7.1,25.2h-7.2c0,0-7.4-25.4-7.4-25.4l.5,25.3h-8.7V5h14.5l5.7,18.9c0,0,0,0,.1,0Z"/>
    <rect class="st2" x="47.9" y="80.4" width="104.1" height="4.6"/>
    <path class="st2" d="M79,77.6h-5c0-.8,0-1.5,0-2.3,0-4,.3-7.9.4-11.9,0-2,0-5.5-1.6-6.9-1.8-1.5-5.9-.9-7.4.9-1.1,1.4-1.2,5.7-1.3,7.5-.1,3.3-.2,7,0,10.2s.4,1.7,1,2.4h-5.9c.7-.7.9-1.6,1-2.5v-18.3c-.1-1-.4-2-.9-2.8l4.8-.5.2,3.4,1.2-1.4c1.8-1.8,4.3-2.7,6.9-2.5,4.2.2,5,3.2,5.3,6.8.5,4.8,0,9.6.3,14.4,0,1.1.2,2.6.9,3.5Z"/>
    <path class="st2" d="M79.9,43.6v4.6h-23.5s-.1,0-.1-.1v-4.5h23.6Z"/>
    <path class="st2" d="M129.2,77.7h-5.9c.2-.4.5-.7.6-1.1.6-1.4.3-5.9.4-7.7,0-4.1.5-8.7,0-12.7-.1-.9-.3-1.9-.9-2.6,1.7,0,3.5,0,5.2-.6-.2,1.3-.2,2.5-.3,3.8-.3,6.3,0,12.8,0,19.1.1.7.4,1.3.9,1.8Z"/>
    <path class="st2" d="M48.1,77.6c.2-.4.5-.7.6-1.1.5-1.2.3-3.3.3-4.7.1-4,.3-8,.2-12.1s0-4.6-1.1-6.4c1.7.2,3.5,0,5.1-.5,0,0,0,.2,0,.3-.7,7.5-.2,15.1-.2,22.5.1.7.4,1.3.9,1.9h-5.9Z"/>
    <rect class="st2" x="132.7" y="43.8" width="19.4" height="4.3"/>
    <polygon class="st2" points="53.6 43.7 53.6 48.2 48.7 48.1 48.7 43.7 53.6 43.7"/>
    <polygon class="st2" points="128.7 43.6 128.7 48.1 123.8 48.1 123.8 43.6 128.7 43.6"/>
    <polygon class="st0" points="79.8 23.8 79.7 24 79.7 23.9 79.8 23.8"/>
    <path class="st3" d="M130.6,6.9c-3.2-1.2-6.8-1.6-10.2-1.7-4.5-.1-9,.1-13.5,0v36.6c4.3,0,8.5.1,12.8,0,9.6-.2,18.2-2.9,21.2-13,2.7-9-1.3-18.7-10.3-22ZM132,29.1c-2,5-5.8,5.8-10.7,6-1.7,0-4.1.3-5.7,0,0,0-.2,0-.2-.1V11.8c.7,0,1.3,0,2,0,4.8,0,10.9-.5,13.6,4.2,2.4,3.9,2.7,8.8,1,13.1Z"/>
    <path class="st3" d="M100.7,43.9c-3.8.2-7.7.9-10.9,3.2-7.6,5.4-8.5,17-3.6,24.5,3.3,5.1,9.7,6.8,15.5,7,3.9.1,7.8-.1,11.7,0v-34.6h-12.6ZM106.1,72.3c-5-.1-11.2.9-13.9-4.4-2.2-4.3-2-10.3.6-14.4,2.7-4.2,9-3.1,13.2-3.4v22.2Z"/>
    <path class="st2" d="M151.2,76.3c-2.2-5.9-.4-12.4-.7-18.4-.2-4-2.4-4.8-6-4.9-2.8-.1-10.2.7-10.8,4.3-.3,1.7.6,2.3,2.3,2.2,1.7-.2,1.6-1.6,2.3-2.8,1.4-2.4,4.1-2.6,6.5-1.4,2.5,1.2,2.7,5.7,1,7.7-1.5,1.8-6.3,3.1-8.6,4.4-3.7,2.1-6.2,6-2.2,9.4,3.6,3.1,8.4,1.9,11-1.9,0-.1.6-1.2.8-1,0,1.4.2,2.9.7,4.2l4.5-.3-.7-1.3ZM146.5,69c0,1.7,0,3.3-1.3,4.7-1.9,2.2-6.9,2-7.8-1.1-.8-2.8,1.4-4.4,3.6-5.6,1.7-.9,3.6-1.6,5.4-2.4,0,1.5,0,2.9,0,4.4Z"/>
  </g>
</svg>