<?xml version="1.0" encoding="UTF-8"?>
<svg id="Layer_1" xmlns="http://www.w3.org/2000/svg" version="1.1" viewBox="0 0 200 90">
  <!-- Generator: Adobe Illustrator 29.5.0, SVG Export Plug-In . SVG Version: 2.1.0 Build 137)  -->
  <defs>
    <style>
      .st0 {
        fill: #0b0b0b;
      }

      .st1 {
        fill: #fff;
        stroke: #666;
        stroke-miterlimit: 10;
      }

      .st2 {
        fill: #060606;
      }

      .st3 {
        fill: #dc2227;
      }

      .st4 {
        fill: #577abc;
      }
    </style>
  </defs>
  <rect class="st1" width="200" height="90" rx="10" ry="10"/>
  <g>
    <path class="st3" d="M41.1,44c2.4.9,4.5,3.6,5.7,5.8l1.3,2.5c3.9-11.1-1.8-23.4-12.6-27.7C18.2,17.6.5,33.8,6,51.6c.6,2.1,1.7,4.3,3,6,1-3.6,2.1-7.3,4.1-10.5,7.2-11.5,14.4-.3,17.2,7.3.4,1,.8,2.1,1,3.1l-1.3-2.1c-1.2-1.8-2.6-3.7-4.2-5.2-7.1-6.1-12.8,3.3-15.6,8.9,2.9,3.7,7.4,6.4,12,7.5.9.2,2.3.5,3.3.6.2,0,.4,0,.7,0h2.8c7-.6,13.6-4.6,17.2-10.6.3-.5,1.1-1.9,1.2-2.3,0-.2-.7-1-.8-1.2-1.5-1.7-3.9-3.8-6.2-4.2-4.8-.9-6.9,4.6-8,8.2v-.4c.2-4.3,2.5-14.8,8.8-12.6ZM20.5,40.7c-2.1,2.6-4,.2-4.2-2.2-.2-1.9.7-6.6,3.2-6.7.8,0,1.4.5,1.7,1.1,1.2,2.1.7,6-.8,7.8ZM35.6,36.4c3.5-.5,4.8,6.8,1.6,7.4-3.7.6-5.1-6.9-1.6-7.4Z"/>
    <g>
      <polygon class="st4" points="61.2 36.1 64.5 48.1 67.7 36.1 73.3 36.1 73.3 53.9 69.8 53.9 69.8 40.1 66.3 53.7 66.2 53.8 62.7 53.8 59.1 40.2 59.1 53.9 55.7 53.9 55.7 36.1 61.2 36.1"/>
      <path class="st4" d="M183.8,44.1l-3.1.6c-.2,0-.6-.9-1-1.2-.8-.5-3.8-.6-4,.6s.9,1,1.6,1.2c2.1.6,6.1.9,6.8,3.4.8,2.6-1.1,4.6-3.5,5.2s-7.8,0-8.6-3.7l3.4-.5c.4.6.5,1.3,1.2,1.6s3.4.5,4-.5.2-1.1-.3-1.4c-1-.6-3.5-.8-4.8-1.3s-2.8-1.4-3-3.2c-.3-4.3,5.2-4.8,8.3-4s2.6,1.6,3.1,3.1Z"/>
      <path class="st4" d="M148.6,44.1l-3.3.6c-.3-.6-.5-1.1-1.2-1.3s-3-.3-3.5.4,1.1,1.4,1.7,1.6c1.9.6,5.7.9,6.5,3.1s-1,4.8-3.6,5.4-7.7,0-8.5-3.8l3.4-.5c.5,1.8,2.1,2.2,3.8,1.9s2.3-1.2,1.1-2.1c-2.3-.8-7.3-1-7.8-4.1-.6-4.5,4.7-5.1,7.9-4.4s2.9,1.5,3.4,3.2Z"/>
      <path class="st4" d="M162.6,44.1l-3.2.6c-.5-1.6-2.6-1.8-4-1.4s-1.3,1.2-.3,1.7c2.3,1,7.4.9,7.9,4.1.7,5-6.1,6-9.5,4.4s-2.5-1.9-2.7-3.3l3.4-.5c.3.6.4,1.1,1,1.5.9.6,2.9.6,3.8,0s.8-1,.4-1.5-2.9-.9-3.7-1.1c-2.4-.7-5-1.6-4.4-4.7.7-3.3,5.1-3.6,7.8-3s3.1,1.5,3.4,3.2Z"/>
      <path class="st4" d="M191,41.8h2.4v2.7h-2.4v6.7c0,0,.2.5.2.6.6.7,2-.1,2.2,0l.3,2.6c-1.8.7-5.2,1-5.9-1.3s-.3-2-.3-2.8c0-2,0-3.9,0-5.9h-1.6v-2.7h1.6v-2.5c1.1-.8,2.4-1.4,3.5-2.1v4.5Z"/>
      <path class="st4" d="M166.2,53.9v-12.8s.1-.1.1-.1h3.3s.1.1.1.1v12.6s-.1.1-.1.1h-3.4Z"/>
      <path class="st4" d="M109.9,40.9v12.9h-3.4v-12.8s.1-.1.1-.1h3.3Z"/>
      <path class="st4" d="M169.7,36.1v3s-.1.1-.1.1h-3.4v-3.2h3.5Z"/>
      <rect class="st4" x="106.5" y="36.1" width="3.4" height="3.2"/>
      <path class="st2" d="M192.1,29.5c.2,0,.5,0,.6,0s.7,2.3.8,2.3c.3-.4.6-2,.8-2.3s.4,0,.6,0v3s-.4,0-.4,0v-2.3c-.2,0-.2.2-.2.3-.1.4-.5,1.8-.7,1.9s-.3.2-.4,0c-.3-.5-.4-1.4-.6-1.9s0-.3-.2-.3v2.3s-.4,0-.4,0v-3Z"/>
      <path class="st0" d="M191.7,29.5c.2.6-1,.3-1,.4v2.6c-.1,0-.5,0-.5-.1v-2.5c0,0-1.2.3-.9-.4h2.4Z"/>
      <path class="st4" d="M128.7,36.1h-3.8c0,0-7,17.7-7,17.7h3.9l1.6-4.1h7.1s1.6,4.1,1.6,4.1h4l-7.4-17.7ZM124.3,46.8l2.5-6.5,2.5,6.5h-4.9Z"/>
      <path class="st4" d="M99.6,36.1v6.3c-2.7-2.9-7.5-2-8.9,1.7-1.2,3.2-.5,8.1,2.9,9.6,2.3,1,4.5.2,6.1-1.6v1.6s.1.1.1.1h3.1v-17.7h-3.4ZM97.5,51.3c-4.5,1.5-5.3-7.8-1-8,3.9-.2,4.1,7,1,8Z"/>
      <path class="st4" d="M88.2,48.4c0-2.9-.7-6-3.6-7.2-3.7-1.6-7.9.4-8.6,4.5-.7,3.8.6,7.7,4.8,8.4,3.1.5,6-.6,7.2-3.7l-3.5-.6c-1,3.3-5.3,1.7-5.1-1.4h8.7ZM84.6,45.3c0,.2.2,1,0,1h-5.1c-.3-3.3,4.2-4.3,5.1-1Z"/>
    </g>
  </g>
</svg>