<?xml version="1.0" encoding="UTF-8"?>
<svg id="Layer_1" xmlns="http://www.w3.org/2000/svg" version="1.1" viewBox="0 0 200 90">
  <!-- Generator: Adobe Illustrator 29.5.0, SVG Export Plug-In . SVG Version: 2.1.0 Build 137)  -->
  <defs>
    <style>
      .st0 {
        fill: #fff;
        stroke: #666;
        stroke-miterlimit: 10;
      }

      .st1 {
        fill: #e91650;
      }

      .st2 {
        fill: #ea1650;
      }

      .st3 {
        fill: #7f8083;
      }

      .st4 {
        fill: #af103c;
      }

      .st5 {
        fill: #e8164f;
      }

      .st6 {
        fill: #010000;
      }

      .st7 {
        fill: #7e7f82;
      }

      .st8 {
        fill: #7e7e81;
      }
    </style>
  </defs>
  <rect class="st0" width="200" height="90" rx="10" ry="10"/>
  <g>
    <path class="st2" d="M93.2,11.8c-.1.6.5.6.4,0h24c-.1.6.3.4.7.4,11.6.4,23.8,2.1,35,4.8,14.3,3.5,39.7,12.1,43.8,28.1,0,.3-.2.8.4.6v5.6c-.6-.1-.3.3-.4.6-3,11.5-16.8,19.3-26.9,24-1.4.6-2.9,1.4-4.3,1.7v-.2c15.9-9.5,26-25,8.5-39.5-18.1-15-50.6-19.6-73.4-19.2-32.7.6-65.4,5.8-96.7,15l-.2-.2C28.4,22.9,52.4,16,79,13.1s.6,0,1,0c3.5-.4,7.1-.6,10.6-1s.8.2.7-.4h1.9Z"/>
    <path class="st6" d="M93.6,11.8c.1.6-.5.6-.4,0h.4Z"/>
    <path class="st1" d="M30.8,31.7l5.9,24,5.7-24c1.2.1,10.2-.3,10.5.2s.2,1.8,0,1.9-1.4.3-1.8.4c-1.5.6-1.4,1.5-1.7,2.9.4,8.4-.6,17.4,0,25.7,0,1.3.2,2.6,1.5,3.3s1.8.4,1.9.5c.1.2,0,1.7,0,2.1h-12.8c0-.4,0-2,0-2.1s2.1-.3,2.7-.8.9-1.4.9-1.6v-27.9l-8,31.7h-1.9c0,.1-7.9-32.1-7.9-32.1v23.7c.4,2.1,0,4.7,2,6.1s2.2.8,2.2.9c.2.3,0,1.6,0,2.1h-10.2c0-.4-.1-1.9,0-2.1s1.2-.3,1.6-.4c1.8-.8,2-2.1,2.2-3.9.7-6.1.6-16.6.2-22.8-.1-2.1-.4-4.4-2.6-5.3s-1,0-1.2-.3c-.2-.3,0-1.6,0-2.1h10.6Z"/>
    <path class="st1" d="M93,64c0,.2.3.9.4,1.1.7,1.2,2.5.9,2.6,1.1s0,1.8,0,1.9c-.3.3-7.3.6-8.3.8-.5-.1-.2-2.1-.4-2.5-3.1,4.4-7.7,4.1-10.4-.6-2.5-4.4-2.9-11.8-1.4-16.5,1.8-5.4,6.2-9.4,11.8-5.7v-9.5c0-.1-.4-1.2-.5-1.4-.9-1.6-2.9-1.4-3.1-1.6s0-1.7,0-2.1c2.7.1,5.3-.5,8-.6s1.3,0,1.3.3v35.3ZM83.9,44.8c-1.3.3-2.3,2.8-2.6,3.9-.9,3.5-1.3,13.4,1.2,16.1s4.3.6,5.1-1.6c-.3-4.5.4-9.4,0-13.8s-1.2-5.2-3.7-4.7Z"/>
    <path class="st3" d="M113.1,33.3c.4-1.2,1-1.8,2.3-1.5l.2,12.7c-.4,0-1.3.1-1.5,0s-1.3-4.5-1.6-5.3c-.8-2-2-4.8-4.3-5.5-2.5-.7-4.2,1-4.8,3.3-2.2,8.4,7.1,8.1,10.9,12.7,3.5,4.2,3.3,12.4,0,16.7-3.7,4.7-10,4.4-14.4.8-1,1-.7,2.1-2.6,1.7l-.2-13.3c.4-.1,1.2-.2,1.5.1s.8,2.9,1,3.6c1,2.6,3.1,7.5,6.3,7.9,4.8.6,6.4-5.1,4.9-8.7-1.4-3.3-6.1-4.2-8.8-6.1-6.4-4.5-5.8-18.8,2.5-21s5.8.4,8.6,2.2Z"/>
    <path class="st7" d="M138.1,66.2c0,.5.2,1.8,0,2.1s-1.7.8-1.9.9c-2.8.9-5.7,0-6.1-3.2-.3-.3-.9,1-1.2,1.2-3.8,4.2-9,2.4-9.4-3.2-.3-3.5.4-6.3,3.4-8.3s6.1-2.6,6.7-3.4.2-2.8.2-3.5c-.1-2-.4-5.1-3.1-4.5s-1.1.5-1.1.7c-.2.8.5,2.9.4,4.2-.4,4.4-6.3,4-5.7-1.5s10.7-7.7,13.8-3c2.9,4.3.5,14.2,1.2,19.5.2,1.7,1.2,2.2,2.8,2.1ZM129.8,54.7c-1.8.7-3.6,2-4.2,3.9-.7,2-.9,8.1,2.6,6.7s1.6-1.6,1.6-1.9v-8.7Z"/>
    <path class="st7" d="M176,54.9h-11.1v3.4c0,.5.3,2,.5,2.6,1.7,6.8,7.5,6.2,9.7.2,2,1.2,1.3,2,.3,3.7-2.3,4-6.5,6.2-11,3.9-9.3-4.7-7.1-29.4,5.6-26.3,3.6.9,5.9,5.4,5.9,8.8v3.7ZM170.1,52.6v-3.4c0-.6-.3-2.2-.4-2.8-.3-1.2-1.2-2.8-2.7-2-2.1,1.1-2.1,6.3-2.2,8.4.3.1.6-.2.7-.2h4.7Z"/>
    <path class="st5" d="M72.5,54.9h-11.1v3.4c0,.6.5,2.4.6,3,.4,1.6,1.3,3.5,3,4.1,3.5,1.3,5.2-1.6,6.7-4.2,2,.9,1,2.4.1,3.8-2.2,3.8-6.2,5.7-10.5,3.9-10-4.3-7.4-30.4,5.7-26.4,3.2,1,5.5,5.4,5.5,8.5v3.9ZM66.7,52.6c-.3-1.8.2-8.1-2.4-8.4s-3.1,6.7-3.1,8.6l5.6-.2Z"/>
    <path class="st8" d="M147.9,42.8c.4.1.4,1.6.2,1.9s-1.8.3-2,1.1c.8,4.9,2.8,9.6,3.8,14.4.3.4.6-1,.7-1.2,1.2-3.9,2.1-7.9,3.2-11.8,0-2.2-2-2-2.4-2.6s-.3-1.8.6-1.9,6,0,6.3,0,.3,1.5,0,1.8-1.3.8-1.7,1.3c-1.4,1.8-4,12.1-4.8,15s-1.4,5.3-2.1,7.9h-3.1s-6-21-6-21c-.3-1.1-.9-2.2-1.9-2.8s-.8-.2-.8-.2c-.1-.2,0-1.7,0-2.1h10.1Z"/>
    <path class="st4" d="M165.9,77.4v.6c-.1,0-1.5.3-1.5.3,0-.7,1.2-.7,1.5-.9Z"/>
    <path class="st4" d="M4,33.4l.2.2c0,.6-1.2.5-1.7.6.3-.4,1.1-.6,1.5-.8Z"/>
    <path class="st6" d="M79,13.1c-.2-.6,1.2-.6,1,0-.3,0-.6,0-1,0Z"/>
  </g>
</svg>