<?xml version="1.0" encoding="UTF-8"?>
<svg id="Layer_1" xmlns="http://www.w3.org/2000/svg" version="1.1" xmlns:xlink="http://www.w3.org/1999/xlink" viewBox="0 0 200 90">
  <!-- Generator: Adobe Illustrator 29.5.0, SVG Export Plug-In . SVG Version: 2.1.0 Build 137)  -->
  <defs>
    <style>
      .st0 {
        fill: #009498;
      }

      .st0, .st1, .st2, .st3 {
        fill-rule: evenodd;
      }

      .st4 {
        stroke: #666;
      }

      .st4, .st1 {
        fill: #fff;
      }

      .st4, .st2 {
        stroke-miterlimit: 10;
      }

      .st5 {
        fill: none;
      }

      .st2 {
        stroke: #000;
        stroke-width: .2px;
      }

      .st2, .st3 {
        fill: #112972;
      }

      .st6 {
        clip-path: url(#clippath);
      }
    </style>
    <clipPath id="clippath">
      <rect class="st5" x="5" y="8.9" width="85.8" height="72.2"/>
    </clipPath>
  </defs>
  <rect class="st4" width="200" height="90" rx="10" ry="10"/>
  <g>
    <path class="st0" d="M5,81.1h190V8.9H5v72.2Z"/>
    <g class="st6">
      <path class="st1" d="M5,8.9h85.6l-31.4,72.2h-21.1L5,8.9Z"/>
      <path class="st3" d="M5,8.9h85.6l-31.4,72.2-9.6-42.3,8-2.8-11.9-4.6-7.6,49.7L5,8.9Z"/>
    </g>
    <path class="st2" d="M47.5,33.7c.6,0,1.1.5,1.1,1.1s-.5,1.1-1.1,1.1-1.1-.5-1.1-1.1.5-1.1,1.1-1.1Z"/>
    <path class="st1" d="M78.2,72.7v-13h1.2l4.9,11.3v-11.3h1v13h-1.3l-4.9-11.1v11.1h-1ZM92.9,72.7c-.2,0-.3,0-.4,0-.1,0-.2,0-.3,0-.3,0-.5,0-.6-.2-.2-.1-.3-.3-.4-.6-.3.3-.6.6-.9.7-.4.2-.7.2-1.2.2-.7,0-1.3-.2-1.6-.7-.4-.5-.6-1.1-.6-2s.2-1.3.5-1.8c.4-.4,1-.8,1.8-1.2.2,0,.4-.2.7-.3.8-.3,1.3-.7,1.3-1.2v-.8c0-.5-.1-.9-.3-1.1-.2-.2-.6-.3-1.1-.3s-.9.2-1.2.4c-.3.3-.4.8-.4,1.3h-1v-.2c0-.7.2-1.3.7-1.7.5-.4,1.1-.6,1.9-.6s.9,0,1.2.2c.3.1.6.3.8.6.1.2.2.4.3.6,0,.2,0,.6,0,1v5.7c0,.5,0,.8.1.9,0,.1.3.2.5.2h.1v.7ZM91.1,67.6c-1.5.6-2.4,1-2.7,1.4-.4.4-.5.8-.5,1.4s.1,1,.4,1.3c.2.3.6.5,1,.5.6,0,1.1-.2,1.4-.7.3-.5.5-1.2.5-2.2v-1.6ZM96.6,72.7c-.1,0-.2,0-.4,0-.1,0-.3,0-.4,0-.6,0-1-.1-1.2-.4-.2-.3-.3-.9-.3-2v-6.4h-1v-.9h1v-2.7h1v2.7h1.3v.9h-1.3v6.6c0,.6,0,1,.2,1.2.1.2.3.2.6.2s.1,0,.2,0c0,0,.2,0,.3,0v.8ZM98.1,63.1h1.1v9.6h-1.1v-9.6ZM102.2,67.9c0,1.3.2,2.4.5,3.1.3.7.8,1,1.5,1s1.1-.3,1.5-1c.3-.7.5-1.7.5-3.1s-.2-2.4-.5-3.1c-.3-.7-.8-1-1.5-1s-1.1.3-1.5,1c-.3.7-.5,1.7-.5,3.1ZM101.1,67.9c0-1.7.3-2.9.8-3.8.5-.8,1.3-1.3,2.3-1.3s1.8.4,2.3,1.3c.5.8.8,2.1.8,3.8s-.3,2.9-.8,3.8c-.5.8-1.3,1.3-2.3,1.3s-1.8-.4-2.3-1.3c-.5-.8-.8-2.1-.8-3.8ZM113.3,72.7v-6.4c0-1-.1-1.7-.3-2-.2-.3-.6-.5-1.1-.5s-1,.2-1.4.5c-.4.3-.6.7-.6,1.1v7.3h-1v-9.6h.9v1c.3-.4.7-.8,1-1,.4-.2.8-.3,1.3-.3.8,0,1.4.2,1.7.7.4.5.5,1.3.5,2.3v6.8h-1ZM121.7,72.7c-.2,0-.3,0-.4,0-.1,0-.2,0-.3,0-.3,0-.5,0-.6-.2-.2-.1-.3-.3-.4-.6-.3.3-.6.6-.9.7-.4.2-.7.2-1.2.2-.7,0-1.3-.2-1.6-.7-.4-.5-.6-1.1-.6-2s.2-1.3.5-1.8c.4-.4,1-.8,1.8-1.2.2,0,.4-.2.7-.3.8-.3,1.3-.7,1.3-1.2v-.8c0-.5-.1-.9-.3-1.1-.2-.2-.6-.3-1.1-.3s-.9.2-1.2.4c-.3.3-.4.8-.4,1.3h-1v-.2c0-.7.2-1.3.7-1.7.5-.4,1.1-.6,1.9-.6s.9,0,1.2.2c.3.1.6.3.8.6.1.2.2.4.3.6,0,.2,0,.6,0,1v5.7c0,.5,0,.8.1.9s.3.2.5.2h.1v.7ZM119.9,67.6c-1.5.6-2.4,1-2.7,1.4-.4.4-.5.8-.5,1.4s.1,1,.4,1.3c.3.3.6.5,1,.5.6,0,1.1-.2,1.4-.7.3-.5.5-1.2.5-2.2v-1.6ZM123.3,59.7h1v13h-1v-13ZM131.1,59.7h1.1v13h-1.1v-13ZM138.7,72.7v-6.4c0-1-.1-1.7-.3-2-.2-.3-.6-.5-1.1-.5s-1,.2-1.4.5c-.4.3-.6.7-.6,1.1v7.3h-1v-9.6h.9v1c.3-.4.7-.8,1-1,.4-.2.8-.3,1.3-.3.8,0,1.4.2,1.7.7.4.5.5,1.3.5,2.3v6.8h-1ZM141.2,70.1h1c0,.6.1,1.1.4,1.5.3.3.7.5,1.3.5s1-.2,1.3-.5c.3-.3.5-.7.5-1.3,0-.8-.7-1.6-2.1-2.3-.1,0-.2-.1-.3-.2-.8-.4-1.3-.8-1.5-1.1s-.4-.9-.4-1.5.2-1.3.6-1.7c.4-.4,1-.6,1.7-.6s1.5.2,1.9.7c.4.4.7,1.1.7,2h-1c0-.6-.3-1-.5-1.3-.3-.3-.6-.4-1.1-.4s-.8.1-1.1.4c-.3.3-.4.6-.4,1,0,.7.8,1.5,2.3,2.3.2,0,.3.2.4.2.5.3.9.6,1.2,1.1.3.4.4,1,.4,1.5,0,.8-.3,1.5-.8,1.9-.5.5-1.2.7-2,.7s-1.6-.2-2-.7c-.5-.5-.7-1.2-.7-2.1h0ZM149.2,63.1v6.5c0,1,.1,1.7.3,2,.2.3.6.5,1.1.5s1-.2,1.4-.5c.4-.3.6-.7.6-1.1v-7.3h1v9.6h-.9v-1c-.3.4-.7.8-1.1,1-.4.2-.8.3-1.3.3-.8,0-1.4-.2-1.7-.7s-.5-1.2-.5-2.3v-6.8h1ZM155.6,72.7v-9.6h1v1c.2-.4.5-.7.8-.9.3-.2.8-.3,1.3-.3h.2v1c-.9,0-1.5.3-1.8.7-.3.4-.5,1.2-.5,2.5v5.5h-1ZM165.4,72.7c-.2,0-.3,0-.4,0-.1,0-.2,0-.3,0-.3,0-.5,0-.6-.2-.2-.1-.3-.3-.4-.6-.3.3-.6.6-.9.7-.4.2-.7.2-1.2.2-.7,0-1.3-.2-1.6-.7-.4-.5-.6-1.1-.6-2s.2-1.3.5-1.8c.4-.4,1-.8,1.8-1.2.2,0,.4-.2.7-.3.8-.3,1.3-.7,1.3-1.2v-.8c0-.5-.1-.9-.3-1.1-.2-.2-.6-.3-1.1-.3s-.9.2-1.2.4c-.3.3-.4.8-.4,1.3h-1v-.2c0-.7.2-1.3.7-1.7.5-.4,1.1-.6,1.9-.6s.9,0,1.2.2c.3.1.6.3.8.6.1.2.2.4.3.6,0,.2,0,.6,0,1v5.7c0,.5,0,.8.1.9,0,.1.3.2.5.2h.1v.7ZM163.7,67.6c-1.5.6-2.4,1-2.7,1.4-.4.4-.5.8-.5,1.4s.1,1,.4,1.3c.2.3.6.5,1,.5.6,0,1.1-.2,1.4-.7.3-.5.5-1.2.5-2.2v-1.6ZM171.1,72.7v-6.4c0-1-.1-1.7-.3-2-.2-.3-.6-.5-1.1-.5s-1,.2-1.4.5c-.4.3-.6.7-.6,1.1v7.3h-1v-9.6h.9v1c.3-.4.7-.8,1-1,.4-.2.8-.3,1.3-.3.8,0,1.3.2,1.7.7.4.5.5,1.3.5,2.3v6.8h-1ZM179.6,69.4c0,1.2-.3,2-.8,2.6s-1.1.9-1.9.9-1.7-.4-2.2-1.3c-.5-.9-.7-2.1-.7-3.8s.2-2.9.7-3.8c.5-.8,1.2-1.3,2.2-1.3s1.4.3,1.9.8c.5.5.7,1.2.8,2.2h-1c0-.6-.2-1.1-.5-1.5-.3-.4-.7-.5-1.1-.5s-1.1.4-1.4,1.1c-.3.7-.5,1.7-.5,3s.2,2.3.5,3c.3.7.8,1.1,1.4,1.1s.9-.2,1.2-.7c.3-.5.5-1.1.5-1.9h1ZM186.4,69.6c0,1.1-.3,1.9-.8,2.5s-1.1.9-2,.9-1.7-.4-2.1-1.2c-.5-.8-.7-2.1-.7-3.8s.2-3,.7-3.8c.5-.8,1.2-1.2,2.2-1.2s1.6.3,2,1c.5.7.7,1.7.7,3.1v.8h-4.5v.5c0,1.2.1,2.2.4,2.8.3.6.7.9,1.3.9s.9-.2,1.2-.6c.3-.4.5-1,.5-1.8h1ZM181.9,67h3.5s0-.1,0-.2c0,0,0-.2,0-.2,0-.9-.1-1.6-.4-2-.3-.5-.7-.7-1.3-.7s-1,.3-1.3.8c-.3.5-.5,1.3-.5,2.3h0Z"/>
    <path class="st1" d="M38.1,21h7.3v8.3l-7.3-8.3Z"/>
    <path class="st1" d="M96.6,58.7h2.5v2.9l-2.5-2.9Z"/>
    <path class="st1" d="M89.9,39.9h2.5v2.9l-2.5-2.9Z"/>
    <path class="st1" d="M88,51.2c-.3,0-.7-.4-1.3-1.1-.6-.7-.9-1.3-.9-1.7s0-.3.1-.4c0-.1.2-.2.3-.2h5.2v-2h-6.2v-1.4h9.3v1.4h-1.6v8.4h-1.6v-5h-2.6c0,0-.2,0-.2.1,0,0-.1.2-.1.3v1.1c0,.1,0,.2-.2.3-.1,0-.2.1-.4.1ZM179.9,54.7l-3.5-5.3h-2.2c0,0-.2,0-.2.1,0,0-.1.2-.1.3v1.1c0,.1,0,.2-.2.3-.1,0-.2.1-.4.1-.3,0-.7-.4-1.3-1.1-.6-.7-.9-1.3-.9-1.7s0-.3.1-.4c0-.1.2-.2.3-.2h4.5l1-.6c.6,1,1,1.5,1.2,1.5s.4,0,.5-.2c.1-.1.2-.3.2-.5v-2.2h-9.4v2.1c0,.6-.2,1.1-.5,1.5-.3.4-.7.6-1.1.6s-.7,0-.7,0l2.9,3.9-1.2.8-4.9-6.7,1.3-1c.2.5.4.9.8,1.2s.7.4,1,.4.5,0,.6-.3c.2-.2.3-.4.3-.6v-1.8h-5.8v8.4h-1.6v-8.4h-2.8v8.4h-1.6v-2.4c-.3.3-.6.5-1,.6s-.8.2-1.2.2c-1,0-1.9-.4-2.7-1.2s-1.1-1.8-1.1-2.9c.4.1.8.2.9.2.4,0,.8-.1,1.1-.4s.4-.6.4-1,0-.5-.2-.8c-.1-.2-.3-.5-.5-.7h-2.3v-1.4h11l-4.1-4,1-.9,4.5,4.9h5.6l-4.1-4,1-.9,4.5,4.9h17.2v1.4h-1.6v8.4h-1.6v-4.3h-1.8l-.6-1.4h2.4v-2.7h-2.7v2.5c0,.5-.1.9-.4,1.3-.3.4-.6.5-1,.5s-.2,0-.3,0-.2,0-.2-.1l2.5,3.7-1.3.9ZM154.2,51.3c.4,0,.7-.1,1.1-.3.4-.2.7-.5,1.1-.9v-4.1h-2.5c.4.7.6,1.2.6,1.4,0,.6-.2,1.2-.6,1.7-.4.5-.9.8-1.6.9.1.4.4.7.8,1s.8.4,1.2.4ZM147.8,54.7l-4.4-4.1,1.1-1.1.8.7c.6,0,1.1-.2,1.5-.5.4-.4.7-.8.8-1.4-.2.1-.4.3-.6.3s-.5.1-.7.1c-.7,0-1.2-.2-1.7-.6h0v1.2h-2.8c0,0-.2,0-.2.1,0,0-.1.2-.1.3v1.1c0,.1,0,.2-.2.3-.1,0-.2.1-.4.1-.3,0-.7-.4-1.3-1.1-.6-.7-.9-1.3-.9-1.7s0-.3.1-.4c0-.1.2-.2.3-.2h5.1c-.3-.4-.5-.8-.5-1.3s.3-1.2.8-1.7c.5-.5,1.1-.7,1.8-.7s1.6.3,2.1.9.8,1.5.8,2.5-.3,1.7-.8,2.4c-.5.7-1.2,1.1-2,1.2l2.4,2.2-1.1,1.2ZM146.4,47.5c.3,0,.5,0,.8-.3.2-.2.3-.4.3-.6s-.1-.5-.3-.6c-.2-.2-.5-.3-.8-.3s-.6,0-.8.3c-.2.2-.3.4-.3.6s.1.5.3.6.5.3.8.3ZM138.6,44.5h4.6v1.4h-6.4v2.3h-3.4c-.1,0-.2,0-.3.1s-.1.2-.1.2c0,.2.1.4.4.7.3.3.5.4.7.4s.5,0,.9-.2c.4-.1.7-.2.9-.2.5,0,1,.2,1.3.6.4.4.5.9.5,1.4s-.2,1.3-.7,1.9c-.4.5-1,.9-1.7,1,.5.5,1.1,1,2,1.4l-.8,1.3c-1.3-.8-2.3-1.5-3-2.3-.7,0-1.3-.2-1.8-.5-.5-.3-.7-.7-.7-1.1s.1-.6.3-.8c.2-.2.5-.3.8-.3s1,.4,1.9,1.2c.6,0,1.1-.2,1.5-.5s.6-.7.6-1.2,0-.3-.1-.4c0-.1-.2-.2-.3-.2-.2,0-.6,0-1,.2-.4.1-.8.2-1,.2-.4,0-.9-.3-1.6-.9-.6-.6-.9-1.2-.9-1.6s.2-.8.6-1.1.9-.5,1.5-.5h1.8v-1.1h-4.9v-1.4h8.3ZM122.8,54.4v-5.5c-.4.1-.8.4-1.1.7-.4.4-.7,1-1,1.7l-1.3-.7c0-.3.2-.5.3-.7s.2-.4.4-.6c-.2-.2-.4-.3-.6-.4s-.6-.1-.9-.1-.7.1-1,.4-.4.6-.4.9c0,.6.2,1.2.7,1.7s1.1,1,1.9,1.3l-.8,1.3c-1.1-.5-1.9-1.1-2.5-1.9-.6-.8-.9-1.6-.9-2.4s.3-1.4.9-2c.6-.5,1.3-.8,2.1-.8s.8,0,1.2.3c.4.2.7.4,1,.7.3-.3.6-.6,1-.7.4-.1.7-.2,1.1-.3v-1.4h-9.3v8.4h-1.6v-5h-2.6c0,0-.2,0-.2.1,0,0-.1.2-.1.3v1.1c0,.1,0,.2-.2.3-.1,0-.2.1-.4.1-.3,0-.7-.4-1.3-1.1-.6-.7-.9-1.3-.9-1.7s0-.3.1-.4c0-.1.2-.2.3-.2h5.2v-2h-7.3v8.4h-1.6v-8.4h-1.6v-1.4h24.6v1.4h-1.6v8.4h-1.6ZM99.4,54.7l-4.4-4.1,1.1-1.1.8.7c.6,0,1.1-.2,1.5-.5.4-.4.7-.8.8-1.4-.2.1-.4.3-.6.3s-.5.1-.7.1c-.7,0-1.2-.2-1.7-.6-.5-.4-.7-.9-.7-1.5s.3-1.2.8-1.7c.5-.5,1.1-.7,1.8-.7s1.6.3,2.1.9.8,1.5.8,2.5-.3,1.7-.8,2.4c-.5.7-1.2,1.1-2,1.2l2.4,2.2-1.1,1.2ZM98,47.5c.3,0,.5,0,.8-.3s.3-.4.3-.6-.1-.5-.3-.6c-.2-.2-.5-.3-.8-.3s-.6,0-.8.3c-.2.2-.3.4-.3.6s.1.5.3.6c.2.2.5.3.8.3Z"/>
  </g>
</svg>