<?xml version="1.0" encoding="UTF-8"?>
<svg id="Layer_1" xmlns="http://www.w3.org/2000/svg" version="1.1" xmlns:xlink="http://www.w3.org/1999/xlink" viewBox="0 0 200 90">
  <!-- Generator: Adobe Illustrator 29.5.0, SVG Export Plug-In . SVG Version: 2.1.0 Build 137)  -->
  <defs>
    <style>
      .st0 {
        fill: #fbae17;
      }

      .st1 {
        stroke: #666;
        stroke-miterlimit: 10;
      }

      .st1, .st2 {
        fill: #fff;
      }

      .st3 {
        fill: none;
      }

      .st4 {
        fill: #00adee;
      }

      .st5 {
        clip-path: url(#clippath);
      }
    </style>
    <clipPath id="clippath">
      <rect class="st3" x="31.2" y="5" width="137.7" height="80"/>
    </clipPath>
  </defs>
  <rect class="st1" width="200" height="90" rx="10" ry="10"/>
  <g id="g10">
    <path id="path12" class="st2" d="M31.2,85h137.7V5H31.2v80Z"/>
    <g id="g14">
      <path id="path16" class="st4" d="M53.6,68.7h1.1v2.9h3.3v-2.9h1.1v6.9h-1.1v-3h-3.3v3h-1.1v-6.9Z"/>
    </g>
    <g id="g18">
      <g class="st5">
        <g id="g20">
          <g id="g26">
            <path id="path28" class="st4" d="M65.1,72.3c0-.9-.7-1.4-1.6-1.4s-1.6.5-1.7,1.4h3.3ZM60.7,72.8c0-1.7,1.1-2.8,2.8-2.8s2.8,1.3,2.6,3.1h-4.3c0,1.1.7,1.7,1.7,1.7s1.3-.3,1.5-.8h1c-.4,1.2-1.3,1.7-2.5,1.7-1.7,0-2.8-1.1-2.8-2.8"/>
          </g>
          <g id="g30">
            <path id="path32" class="st4" d="M72,72.8c0-1.2-.7-1.9-1.7-1.9s-1.7.7-1.7,1.9.7,1.9,1.7,1.9c1,0,1.7-.7,1.7-1.9M67.6,72.8c0-1.9,1.1-2.8,2.5-2.8s1.6.4,1.9,1.2v-1.1h1.1v5.4h-1.1v-1c-.3.7-1.1,1.2-1.9,1.2-1.4,0-2.5-1-2.5-2.8"/>
          </g>
          <path id="path34" class="st4" d="M75.1,68.4h1.1v7.2h-1.1v-7.2Z"/>
          <g id="g36">
            <path id="path38" class="st4" d="M78.5,73.4v-2.4h-.8v-.8h.8v-1l1.1-.2v1.2h1.6v.8h-1.6v2.3c0,1.1.3,1.5,1.1,1.5s.2,0,.4,0v.8c0,0-.4,0-.6,0-1.4,0-2-.6-2-2.3"/>
          </g>
          <g id="g40">
            <path id="path42" class="st4" d="M82.8,68.4h1.1v2.8c.2-.6.8-1.1,1.8-1.1,1.4,0,2.2.8,2.2,2.6v3h-1.1v-2.9c0-1.2-.5-1.7-1.5-1.7s-1.5.7-1.5,1.9v2.7h-1.1v-7.2Z"/>
          </g>
          <path id="path44" class="st4" d="M93.2,68.7h1.1v6.9h-1.1v-6.9Z"/>
          <g id="g46">
            <path id="path48" class="st4" d="M96.4,70.1h1.1v1c.2-.7.9-1.1,1.8-1.1,1.5,0,2.2.9,2.2,2.6v3h-1.1v-2.9c0-1.2-.5-1.7-1.5-1.7s-1.5.7-1.5,1.9v2.7h-1.1v-5.4Z"/>
          </g>
          <g id="g50">
            <path id="path52" class="st4" d="M103,74.3l1-.3c.3.5.8.8,1.6.8s1.3-.3,1.3-.8c0-1.2-3.6-.1-3.6-2.4s1-1.6,2.3-1.6,2,.5,2.3,1.2l-.9.3c-.2-.4-.8-.6-1.3-.6s-1.2.3-1.2.7c0,1.2,3.7,0,3.7,2.3s-.9,1.7-2.4,1.7-2.2-.6-2.6-1.4"/>
          </g>
          <g id="g54">
            <path id="path56" class="st4" d="M109.5,73.1v-3h1.1v2.9c0,1.2.4,1.7,1.5,1.7s1.5-.7,1.5-1.9v-2.7h1.1v5.4h-1.1v-1c-.2.7-.9,1.1-1.8,1.1-1.5,0-2.2-.9-2.2-2.6"/>
          </g>
          <g id="g58">
            <path id="path60" class="st4" d="M116.5,70.1h1.1v.9c.2-.6.8-1.1,1.9-.9v1c-1.3-.2-1.9.4-1.9,1.8v2.7h-1.1v-5.5Z"/>
          </g>
          <g id="g62">
            <path id="path64" class="st4" d="M124.8,72.8c0-1.2-.7-1.9-1.7-1.9s-1.7.7-1.7,1.9.7,1.9,1.7,1.9c1,0,1.7-.7,1.7-1.9M120.3,72.8c0-1.9,1.1-2.8,2.5-2.8s1.6.4,1.9,1.2v-1.1h1.1v5.4h-1.1v-1c-.3.7-1.1,1.2-1.9,1.2-1.4,0-2.5-1-2.5-2.8"/>
          </g>
          <g id="g66">
            <path id="path68" class="st4" d="M127.9,70.1h1.1v1c.2-.7.9-1.1,1.8-1.1,1.5,0,2.2.9,2.2,2.6v3h-1.1v-2.9c0-1.2-.5-1.7-1.5-1.7s-1.5.7-1.5,1.9v2.7h-1.1v-5.4Z"/>
          </g>
          <g id="g70">
            <path id="path72" class="st4" d="M134.4,72.8c0-1.6,1.1-2.8,2.7-2.8s2.2.6,2.5,1.9l-.9.2c-.3-.8-.8-1.1-1.6-1.1s-1.7.8-1.7,1.9.7,1.9,1.7,1.9,1.3-.4,1.6-1.1l.9.2c-.3,1.2-1.2,1.9-2.5,1.9-1.6,0-2.7-1.2-2.7-2.8"/>
          </g>
          <g id="g74">
            <path id="path76" class="st4" d="M145.4,72.3c0-.9-.7-1.4-1.6-1.4s-1.6.5-1.7,1.4h3.3ZM141,72.8c0-1.7,1.1-2.8,2.8-2.8s2.8,1.3,2.6,3.1h-4.3c0,1.1.7,1.7,1.7,1.7s1.3-.3,1.5-.8h1c-.4,1.2-1.3,1.7-2.5,1.7-1.7,0-2.8-1.1-2.8-2.8"/>
          </g>
          <path id="path78" class="st4" d="M113.5,14.3h46.5v46.5h-46.5V14.3Z"/>
          <g id="g80">
            <path id="path82" class="st2" d="M157.1,28.5c-.5,0-1.2,0-1.6-.2-.5-.2-.9-.5-1.4-.8-.2-.2-.5-.4-.7-.5-.3-.2-.6-.3-.8-.3s-.6.2-1,.6c-.5.5-1.4,1.8-1.7,2.3,0,0,0,0,0,0,0,0,0-.1,0-.1,0-1.4-.2-9.1-.4-11.4,0-1-.4-1.6-.8-1.6s-.9.5-1.2,1.8c-.8,3.4-2.6,10.8-3.4,14.6,0,.1-.1.1-.2,0,0-.4-.2-.8-.2-1.2-.2-1.2-.4-2.2-.8-2.7-.4-.6-1.1-.7-1.9-.1-.2.1-.4.3-.5.4-.5.4-1.1.9-2.1.9h-9.5l-.2,1.3h10c1,0,2-.6,2.5-1,.3-.2.5-.3.6-.3s.3.2.4.6c0,.2,0,.4.1.7.2.9.5,2.2.8,3.1.2.4.4.7.7.7.4,0,.9-.5,1.1-1.3.3-1.1,2.3-9.8,3.2-13.4,0-.1,0-.2,0-.2,0,0,0-.1.1-.1s0,0,0,.1h0c0,3.7.2,10.2.5,10.9.1.4.4.6.7.6s.7-.3,1-.7c.1-.2.3-.5.5-.8.5-.7,1-1.5,1.2-1.7.2-.3.5-.3.9,0,0,0,.1,0,.2.1.4.3,1.1.7,1.9.9.5.1,1.2.2,1.7.2s.6,0,.7,0l.2-1.2c-.1,0-.4,0-.7,0M131.8,21.7c1.8,0,1.2,3.9-.7,3.8-2-.1-1.3-3.9.7-3.8M129,28.4l.6-3c.2.4.8,1,1.8,1,1.7,0,2.8-1.4,2.9-2.9.1-1.7-.9-2.7-2-2.7s-1.7.5-2,1h0c.1-.6-.3-.9-.7-.9h-.4s-1,5.8-1.2,6.5c-.2.8.5,1,.7,1h.3ZM127.1,20.9h-.3s-.5,3-.6,3.3c-.1.7-.5,1.2-1.5,1.2s-1.1-.3-1-1.1c0-.3.4-2.4.5-2.6,0-.6-.4-.8-.8-.8h-.3c0,.5-.4,2.3-.5,3.1,0,.3,0,.6,0,.8.1,1,1,1.6,2.1,1.6,1.9,0,2.6-1,2.8-2.2,0-.4.4-2.3.5-2.5,0-.6-.4-.8-.8-.8M119.6,21.9c-.2,0-.4,0-.8,0h-.9l.4-2.4h1.2c1.4,0,1.3,1.9,0,2.3M119.1,25.3c-.1,0-.4,0-.9,0h-.9l.4-2.5h1.3c1.7,0,1.6,2.1,0,2.5M121.9,20.5c0-1.2-.8-1.8-2.2-1.8h-2.7l-1.3,7.5h2.4c.6,0,1.1,0,1.4,0,1.4-.3,1.9-1.3,2-2,.1-1-.5-1.7-1.2-1.8.5-.1,1.5-.7,1.5-1.8M138,21.6c2,.1,1.3,3.9-.7,3.8-1.8,0-1.2-3.9.7-3.8M137,26.4c1.1,0,1.6-.5,2-1h0c0,.6.3.9.7.9h.3l.9-5.4h-1.2l-.2.8c-.2-.4-.8-.9-1.8-.9-1.7,0-2.7,1.4-2.9,2.9-.2,1.7.9,2.7,2,2.7"/>
          </g>
          <g id="g84">
            <path id="path86" class="st4" d="M63,42.6c-.6,0-1.2-.1-1.8-.3v18.6h3.6v-18.6c-.6.2-1.2.3-1.8.3M82.6,43.6l-5.4,13.2-6-14.6h-4l8.1,18.6h3.7l8.2-18.6h-2.5c-.9,0-1.7.6-2.1,1.4M97,58.1c-3.5,0-5.8-2.5-5.8-6.6s2.3-6.6,5.8-6.6,5.8,2.5,5.8,6.6-2.3,6.6-5.8,6.6M102.6,42.2v3.6c-1.1-2.6-3.7-4-6.6-4-4.6,0-8.5,3.2-8.5,9.7s3.9,9.7,8.6,9.7,5.5-1.5,6.6-4v1.7c0,1,.8,1.8,1.8,1.8h1.8v-18.6h-3.6ZM49.7,41.9c-3.1,0-5.2,1.4-6.1,3.7v-3.4h-1.8c-1,0-1.8.8-1.8,1.8v16.8h3.6v-9.4c0-4.1,1.4-6.4,4.9-6.4s5,1.9,5,6v9.8h3.6v-10.1c0-5.9-2.4-8.8-7.5-8.8"/>
          </g>
          <g id="g88">
            <path id="path90" class="st0" d="M63,35.1c-1.2,0-2.2-1-2.2-2.2s1-2.2,2.2-2.2,2.2,1,2.2,2.2-1,2.2-2.2,2.2M63,28.4c-2.5,0-4.6,2-4.6,4.6s2.1,4.6,4.6,4.6,4.6-2,4.6-4.6-2.1-4.6-4.6-4.6"/>
          </g>
        </g>
      </g>
    </g>
  </g>
</svg>