<?xml version="1.0" encoding="UTF-8"?>
<svg id="Layer_1" xmlns="http://www.w3.org/2000/svg" version="1.1" viewBox="0 0 200 90">
  <!-- Generator: Adobe Illustrator 29.5.0, SVG Export Plug-In . SVG Version: 2.1.0 Build 137)  -->
  <defs>
    <style>
      .st0 {
        fill: #03a9b8;
      }

      .st1 {
        fill: #e2010f;
      }

      .st2 {
        fill: #04a9b9;
      }

      .st3 {
        fill: #fff;
        stroke: #666;
        stroke-miterlimit: 10;
      }

      .st4 {
        fill: #e30514;
      }

      .st5 {
        fill: #e20110;
      }

      .st6 {
        fill: #02a8b8;
      }

      .st7 {
        fill: #06aab9;
      }

      .st8 {
        fill: #0aabba;
      }

      .st9 {
        fill: #e30816;
      }

      .st10 {
        fill: #01a8b8;
      }
    </style>
  </defs>
  <rect class="st3" width="200" height="90" rx="10" ry="10"/>
  <g>
    <path class="st2" d="M190,66.4v.8c-.8,2.3-3,.9-2.3-1.1.4-1.2,1.7-1.3,2.2-.1l.2.5Z"/>
    <path class="st5" d="M128.4,29.8l2.4,12.9,3.2-12.7c0-.1.2-.1.3-.1.4,0,3.8,0,4,0,1.1,4.2,2.2,8.5,3.1,12.8.6-4.3,1.6-8.4,2.5-12.7v-.2h5.3l-5.3,17.4h-5.1c-.6-2.4-1.3-4.8-1.9-7.2-.3-1.4-.5-2.9-.9-4.3-.5,3.9-1.8,7.7-2.9,11.5h-.3c0,0-4.8,0-4.8,0-1.7-5.8-3.5-11.6-5-17.4h5.5Z"/>
    <path class="st5" d="M69.6,28.4c-1-.3-2-.8-3.1-.9s-5-.4-5.4,1.6c-.6,2.7,3.8,3.6,5.7,4.4s4.6,2.9,4.9,5.6c.8,8.2-8.6,9.6-14.6,7.7-.3,0-1.6-.5-1.7-.7s-.1-.1,0-.2l1-4.2c1.2.4,2.3.9,3.6,1.2,2.3.5,6.7.7,6.3-2.8-.2-1.9-3.8-2.8-5.3-3.4-3.8-1.7-6.6-4.8-4.8-9.2,2.1-5.2,10.3-5.5,14.7-3.3l-1.1,4.3Z"/>
    <path class="st10" d="M21.7,61.1h-5.6c-.2,0-1-.2-1.3-.3-4.2-1.3-4.5-6.2-4.6-9.8-.1-2.6-.3-5.7,0-8.3s.3-2,1.2-2.1,1.5,1,1.5,1.9c.2,2.1-.5,6.5.4,8.2s.4.6.7.8c2.1,1.7,7.9.8,10.6,1s3,1.2,3.2,3.3c.2,3.4-.2,7,0,10.4-.3,2.6-4.9,2.8-5.8.7s-.2-.5-.2-.6v-5.3Z"/>
    <path class="st10" d="M35.6,61.1v5.5c0,.1-.3.6-.4.7-1.2,1.7-4.7,1.5-5.5-.5v-11.4c.1-1.9,1.2-2.8,3.1-2.9,2.7-.2,8.4.6,10.5-1,1.3-.9,1.2-2.2,1.2-3.5s-.2-4.6.1-6.1c.5-2,2.5-1.5,2.6.4-.4,4.7,1.4,15-3.3,17.9-.5.3-2,.9-2.6.9h-5.7Z"/>
    <path class="st5" d="M173.8,29.8l3.7,11.8,3-11.8h5.6c0,.4-.2.9-.3,1.3-1.4,4-2.8,8.3-4.4,12.2s-4.4,11-10.6,11.8l-1.2-4.6c1.6-.3,3.2-1.2,4.2-2.5s.9-1.2.5-2c-1.8-5.2-4.7-10.6-6.4-15.8,0-.1-.1-.3,0-.4h5.9Z"/>
    <path class="st5" d="M90.2,47.3h-4.7c-.2-.1-.3-1.7-.4-1.7-.8.8-1.6,1.4-2.7,1.7-4.3,1.4-8.4-1.1-8-5.9.5-4.7,6.3-5.9,10.2-5.8,0-3.3-4.5-2.6-6.6-1.8s-1.4.7-1.4.6l-1-3.5c3.9-1.9,11.1-2.7,13.5,1.8,1.6,2.9.8,9,.9,12.5,0,.7.2,1.4.2,2.1ZM84.7,39c-1.9,0-5.1.3-5.1,2.7s3.6,2.6,4.7.6.3-.7.3-.8v-2.6Z"/>
    <path class="st5" d="M166.2,47.3h-4.7c-.2-.1-.3-1.7-.4-1.7-.8.8-1.6,1.4-2.7,1.7-4.3,1.4-8.4-1.1-8-5.9.5-4.7,6.3-5.9,10.2-5.8,0-3.3-4.5-2.6-6.6-1.8s-1.4.7-1.4.6l-1-3.5c3.9-1.9,11.1-2.7,13.5,1.8,1.6,2.9.8,9,.9,12.5,0,.7.2,1.4.2,2.1ZM160.7,39c-1.9,0-5.1.3-5.1,2.7s3.6,2.6,4.7.6c0-.1.3-.7.3-.8v-2.6Z"/>
    <path class="st5" d="M110.4,40.2c-.2,0,0,.7,0,.8,1.1,3.4,6.9,2.6,9.6,1.9l.7,3.6c-.9.3-1.9.6-2.8.8-4.8.8-10.4,0-12.2-5.1-1.8-5.2.8-11.8,6.7-12.6s9.7,3.6,9.3,9.6c0,.2-.1,1.1-.2,1.1h-11.1ZM116.6,36.6c.2-4.9-6.1-4.6-6.4,0h6.4Z"/>
    <path class="st1" d="M100.4,27.7c.6-2.1,2.3-2,4.1-1.7l.3-4c0-.2-1.7-.4-2-.4h0c0,0-1.6,0-1.6,0h0c-3.7.3-6,3-6.3,6.7,0,.3,0,1.7-.1,1.7h-2.1v3.9h2.3v13.5h5.4v-13.3s.1-.1.1-.1h3.4v-3.9h-3.4s-.1-.1-.1-.1v-1.4c0,0,.1-.5.1-.6Z"/>
    <path class="st6" d="M186.2,55.6v12.6c0,0-1.7,0-1.7,0v-1.1c0,0-.9,1-.9,1-2.6,1.5-3.9-1.5-4.1-3.6-.1-2.4,1-6,4-4.8l.7.7v-4.7h2ZM182.7,61.4c-1.5.3-1.6,4.9.3,4.9s1.3-2.5,1.2-3.4-.6-1.6-1.5-1.4Z"/>
    <path class="st0" d="M130,68.2l2.7-12h2.6s2.9,12,2.9,12h-2.1c-.2-.3-.6-3-.8-3h-2.6s-.6,3-.6,3h-2.1ZM135,63.1l-1-4.9-.9,4.9h1.9Z"/>
    <path class="st10" d="M144.3,63.9v4.3h-2v-11.8l2.7-.3c2.2,0,3.6,1.1,3.8,3.4.2,2.9-1.4,4.9-4.4,4.5ZM144.3,61.8c3.2.8,3.3-4.5,0-3.6v3.6Z"/>
    <path class="st10" d="M125.4,63.9v4.3h-2v-11.8l2.7-.3c2.2,0,3.6,1.1,3.8,3.4.2,2.9-1.4,4.9-4.4,4.5ZM125.4,61.8c3.2.8,3.3-4.5,0-3.6v3.6Z"/>
    <path class="st2" d="M74.7,59.5v5.4c0,.1.2.8.3.9.3.4.9.5,1.3.1s.5-.8.5-.9v-5.6h2s.1.1.1.1v8.7h-1.7v-1.2c-.4.3-.5.6-.8.8-1.1,1-2.6.6-3.3-.7-.2-.4-.5-1.5-.5-1.9v-5.9h2.1Z"/>
    <path class="st2" d="M63.1,62.6c-.1-.8-1-1.5-1.7-.8s-.4.8-.4.9v5.4s-.1.1-.1.1h-1.8s-.1-.1-.1-.1v-8.7h1.7v1.2c1-1.7,3.2-2,4.1-.1s.4,1.3.4,1.6v5.9s-.1.1-.1.1h-1.8s-.1-.1-.1-.1v-5.6Z"/>
    <path class="st6" d="M98.7,68.2h-2c0-1.5,0-3.1,0-4.7s-.2-2.2-1.2-2-1,.8-1,1.2v5.4h-2.1v-8.7h1.7v1.2c.7-.9,1.4-1.6,2.5-1.4s2,1.8,2,2.9v6Z"/>
    <path class="st0" d="M91,68.2h-1.8s0-.5,0-.6,0-.3-.1-.2-.5.7-1.1.9c-1.9.6-3-1.3-2.9-2.9s1.9-3.1,3.8-2.9c.1-1.5-1.2-1.4-2.3-1s-.6.5-.7.2-.3-1.5-.3-1.6c2.6-1.4,5.1-.8,5.4,2.5.1,1.9-.2,3.8,0,5.7ZM88.9,64.1c-1.2-.2-2.5,1-1.7,2.1s1.7-.1,1.7-.7v-1.4Z"/>
    <path class="st0" d="M112.1,64.7h-4.2c0,2.1,2.2,1.8,3.7,1.4l.2,1.8c-.9.5-2.4.7-3.4.4-3.6-1-3.1-8.9.9-8.9s3.2,3.4,2.8,5.4ZM110.2,62.9c.1-2.4-2.4-2.3-2.4,0h2.4Z"/>
    <path class="st7" d="M122,56.2v2.3h-2.4v9.6s-.1.1-.1.1h-1.8s-.1-.1-.1-.1v-9.6h-2.4v-2.2s.1-.1.1-.1h6.8Z"/>
    <path class="st8" d="M26.8,22.1c4.1-.2,13.1.7,14.8,5.3s-6.5,7.4-10.1,7.8-14.7-.4-16.1-5.5c-1.5-5.3,7.7-7.4,11.3-7.6ZM27.3,22.6c-3.1.2-7,.9-9.5,2.8s-2.2,5.4,1,7.2c5.2,2.9,14.9,3,19.9-.2s3.2-5.5-.5-7.6c-3.1-1.7-7.5-2.3-11-2.1Z"/>
    <polygon class="st10" points="170.3 56.2 170.3 65.9 173.9 65.9 173.9 68.2 168.3 68.2 168.3 56.2 170.3 56.2"/>
    <path class="st2" d="M151.6,59.5l1.3,6.1,1.3-6.1h2.1c0,.3-.1.7-.2,1-.6,2.3-1.3,5-2,7.2s-.1.4-.2.5c-.1.2-1.9.2-2.1,0l-2.3-8.6h2.2Z"/>
    <path class="st2" d="M159.5,57v2.4h1.4v2h-1.4v4c0,.6.9.8,1.4.6v2c0,.1-1,.3-1.2.3-1.9,0-2.2-1.7-2.3-3.3,0-.5.1-3.6,0-3.7s-.7,0-.9,0v-1.9c0-.2.8,0,.9-.1,0,0-.1-1.7,0-1.9s1.6-.5,2-.6Z"/>
    <path class="st0" d="M177.3,57v2.4h1.3s.1.1.1.1v1.9h-1.5v3.9s.2.5.2.5c.3.5,1.2.2,1.2.3v2c0,.2-1.4.2-1.6.2-.6,0-1.1-.5-1.4-1s-.4-1.1-.4-1.4v-4.6s-.9,0-.9,0v-2s.9,0,.9,0v-1.9l2-.5Z"/>
    <path class="st0" d="M71.1,59.7l-.3,1.9c-.6-.4-2.2-.9-2.2.2,0,.8,1.2,1,1.8,1.4,1.5,1.2,1.4,4.1-.5,4.9s-2.5.3-3.2-.3.2-1.5.1-2c0,0,.9.4,1.1.5.5.1,1.2.3,1.5-.3.5-1-1.2-1.4-1.8-1.9-1.8-1.4-1.1-4.6,1.2-4.9s1.6.1,2.3.4Z"/>
    <path class="st0" d="M105.3,59.6l-.3,2.1c-1.6-.7-2.8,0-2.9,1.8s.8,3.4,3,2.6c0,.5.3,1.6.2,1.9s-.8.4-1,.4c-2.3.4-3.8-1-4.2-3.3-.5-3.4,1.4-6.7,5.2-5.5Z"/>
    <path class="st9" d="M35.3,37.2l-1.2,11.3h-.8l-.9-8.4c-.2,0-.2.2-.2.3-.4,2.4-.6,5.1-.9,7.6,0,.1,0,.5,0,.6s-.6,0-.7,0l-1.2-10.6c.4,0,.6-.2.7.3.4,2.6.5,5.3.8,7.9l1-8.3h.8s1,8.3,1,8.3l.9-8.6h.7Z"/>
    <rect class="st10" x="55.2" y="56.2" width="2" height="12"/>
    <path class="st7" d="M84.5,61.9c-.7-.2-1.5,0-1.8.7s-.2.5-.2.6v5s-.1.1-.1.1h-1.8s-.1-.1-.1-.1v-8.7h1.7c0,.5,0,1,.1,1.6.2-.7.8-1.7,1.7-1.7s.6,0,.6.1v2.5Z"/>
    <path class="st9" d="M17.5,37.6c0-.2-.7-.6-.7-.7,0-.2,0-.6,0-.9,0-.6-.4-2.1-.8-2.6-.7-.9-1,.4-1.1,1-.4,2.4,0,3.4,1.2,5.4s1.9,3.4,1.5,6.1c-.2,1.6-1.6,4.2-2.9,1.7-.6-1.3-.6-2.9-.7-4.3.1,0,.6,0,.6,0,0,0,0,1.2,0,1.3,0,.6.4,2.9,1.4,2.4s.9-2.8.9-3.6c-.2-2.1-1.9-3.2-2.5-5.1s-.6-5.4.5-6.3,2,1.8,2.2,2.6c.2.9.4,1.9.4,2.8Z"/>
    <path class="st9" d="M37.9,36.1l1.7,12.3h-.7s-.4-3.9-.4-3.9l-1.7.3c-.2.5-.4,3.6-.5,3.7s-.6,0-.7,0l1.7-11.9c0-.2.7-.7.8-.6ZM38.2,43.4l-.8-5.6-.6,5.8,1.4-.3Z"/>
    <path class="st9" d="M22,48.5c-.1,0-.6,0-.7,0-.1-.1-.3-3.2-.4-3.6-.5,0-1.2-.3-1.6-.3s-.2,0-.2.1l-.4,3.7h-.7s1.7-12.1,1.7-12.1c.3,0,.7.2.8.5l1.7,11.7ZM20,38.2c-.2,0-.1,0-.2.1-.2,1.6-.3,3.3-.6,4.9,0,.2,1.2.4,1.5.4l-.7-5.5Z"/>
    <path class="st9" d="M43.5,31.8l-1.6,9.5v7s-.7,0-.7,0v-6.7c-.3-1.5-.6-3-.9-4.5s-.8-2.7-.7-2.9.6-.8.7-.8c.5,1.9.9,3.8,1.2,5.8s0,.1.2.1l1.1-7.5c0-.2.5-.2.7-.2Z"/>
    <path class="st4" d="M29.2,37.9v1.1h-2.3v3.3h2v1.1c-.4,0-.9,0-1.4,0s-.6-.2-.6,0v3.8s.1.1.1.1h2.1v1h-3v-10.6h3Z"/>
    <path class="st4" d="M22.4,37.4c.4.2,2.9.3,3,.4s0,.8,0,1l-2.3-.3v3.7c.3,0,2,0,2.1.2s0,.7,0,.9l-2.1-.2v5.3h-.7v-11.1Z"/>
    <path class="st2" d="M162.8,65.1c1.8-.4,2,3.2.3,3.3s-1.7-3-.3-3.3Z"/>
    <polygon class="st4" points="30.5 23.5 30.5 27.5 34.5 27.5 34.5 29.9 30.5 29.9 30.5 33.9 28 33.9 28 29.9 24 29.9 24 27.5 28 27.5 28 23.5 30.5 23.5"/>
  </g>
</svg>