<?xml version="1.0" encoding="UTF-8"?>
<svg xmlns="http://www.w3.org/2000/svg" version="1.1" viewBox="0 0 200 90">
  <!-- Generator: Adobe Illustrator 29.5.0, SVG Export Plug-In . SVG Version: 2.1.0 Build 137)  -->
  <defs>
    <style>
      .st0 {
        stroke: #666;
        stroke-miterlimit: 10;
      }

      .st0, .st1 {
        fill: #fff;
      }

      .st2 {
        fill: none;
      }

      .st3 {
        isolation: isolate;
      }

      .st4 {
        fill: #00a9ed;
      }

      .st5 {
        fill: #0d1963;
      }

      .st6 {
        mix-blend-mode: multiply;
        opacity: .8;
      }

      .st7 {
        fill: #65106b;
      }
    </style>
  </defs>
  <g class="st3">
    <g id="Layer_1">
      <rect class="st0" width="200" height="90" rx="10" ry="10"/>
      <g>
        <path class="st7" d="M175.4,61.3H31.4c-10.8,0-19.6-8.8-19.6-19.6s8.8-19.6,19.6-19.6h144c10.8,0,19.6,8.8,19.6,19.6s-8.8,19.6-19.6,19.6Z"/>
        <g class="st6">
          <rect class="st2" x="5" y="15.9" width="99.4" height="57.6"/>
        </g>
        <path class="st1" d="M30.9,60.1c-10.2,0-18.4-8.3-18.4-18.4s8.3-18.4,18.4-18.4h41.9c10.2,0,18.4,8.3,18.4,18.4s-8.3,18.4-18.4,18.4H30.9Z"/>
        <path class="st4" d="M30.3,31.4c-5.5,0-10,4.3-10.3,9.8-.3,5.5,3.8,10.2,9.2,10.8v-7.5c-1.3-.5-2.1-1.9-1.9-3.3.3-1.4,1.5-2.4,2.9-2.4s2.7,1,2.9,2.4c.3,1.4-.5,2.8-1.9,3.3v7.5c5.5-.6,9.5-5.3,9.2-10.8-.3-5.5-4.8-9.8-10.3-9.8Z"/>
        <path class="st5" d="M55.7,41.8c-1.2-.9-2.4-1.5-3.8-2-1.7-.7-3.2-1.4-3.2-2.5,0-.5.2-1,.7-1.3.5-.4,1.1-.6,1.8-.5,1.4,0,2.8.6,3.9,1.5l.4.4,2-3.6-.2-.2c-1.6-1.5-3.8-2.3-6-2.2-1.8,0-3.5.6-4.9,1.7-1.3,1.1-2,2.6-2,4.3,0,1.6.7,3.1,1.9,4,1.1.9,2.4,1.6,3.8,2.1,1.8.8,3.3,1.4,3.3,2.6s-.6,1.9-2.3,1.9c-1.7-.1-3.2-.8-4.5-1.9l-.4-.4-2.4,3.3.2.3c.5.5,1.1,1,1.8,1.4,1.6.9,3.3,1.4,5.1,1.4,1.8,0,3.6-.6,5-1.8,1.2-1.1,1.8-2.7,1.8-4.3,0-1.6-.7-3.2-2-4.2"/>
        <path class="st5" d="M73.2,42.7c-.4-.7-1-1.3-1.8-1.6,1.2-1,1.9-2.5,1.8-4,0-1.6-.6-3-1.8-4-1.3-1-2.9-1.5-4.6-1.4h-7.3v20.1h7.4c1.8,0,3.5-.5,4.9-1.4,1.4-1.1,2.2-2.8,2.2-4.6,0-1.1-.3-2.1-.8-3M67.2,48h-3.4v-12.6h3c.6,0,1.1.1,1.6.5.4.4.6,1,.6,1.5,0,.6-.1,1.1-.5,1.5-.4.4-1,.6-1.5.5h-1v3.7h1.4c.7,0,1.3.2,1.8.7.4.4.7,1,.6,1.6,0,.7-.2,1.3-.7,1.8-.5.5-1.1.7-1.8.7"/>
        <rect class="st5" x="76" y="31.6" width="4.5" height="20.1"/>
        <path class="st1" d="M102.5,48.6c.5.3,1,.6,1.6.7.7.2,1.3.2,2,.2.7,0,1.5-.2,2-.7.6-.5.9-1.3.8-2.1v-1.3c-.4.4-.9.6-1.4.9-.6.2-1.3.4-2,.3-.8,0-1.6-.1-2.4-.4-.7-.3-1.3-.7-1.8-1.3-.5-.5-.9-1.2-1.1-1.9-.3-.8-.4-1.6-.4-2.4,0-.9.2-1.8.5-2.6.3-.8.8-1.5,1.4-2.1.6-.6,1.4-1.1,2.2-1.4.9-.4,1.9-.5,2.9-.5,1,0,2,0,3,.3.7.1,1.5.3,2.2.6v12.1c0,.8-.1,1.6-.4,2.3-.3.6-.7,1.2-1.2,1.7-.5.5-1.2.8-1.9,1-.8.2-1.6.4-2.4.4-.6,0-1.2,0-1.7,0-.5,0-.9-.1-1.3-.3-.4,0-.7-.2-1.1-.4-.3-.2-.6-.3-.9-.6l1.4-2.3ZM109,36.9c-.2,0-.5-.2-.8-.2-.4,0-.8,0-1.2,0-.6,0-1.1,0-1.7.3-.5.2-.9.5-1.2.8-.3.4-.6.8-.8,1.2-.2.5-.3,1-.3,1.5,0,.9.2,1.7.7,2.4.6.7,1.4,1.1,2.3,1,.8,0,1.5-.2,2.2-.6.5-.5.8-1.2.7-1.9v-4.4Z"/>
        <path class="st1" d="M126.1,44.8l-.4.4c-.3.3-.7.5-1,.8-.5.3-1.1.5-1.7.7-.8.2-1.7.3-2.5.3-.9,0-1.8-.2-2.7-.5-1.6-.6-2.8-1.9-3.4-3.5-.3-.9-.5-1.8-.5-2.7,0-.9.1-1.7.5-2.6.3-.8.7-1.5,1.3-2,.6-.6,1.2-1.1,2-1.4.8-.3,1.7-.5,2.6-.5,1,0,2,.2,2.9.6.7.4,1.4.9,1.9,1.6.5.7.8,1.5,1,2.3.2.8.3,1.7.3,2.6v.4h-9.2c0,.4,0,.9.3,1.2.2.4.5.7.8,1,.3.3.7.5,1.1.6.4.1.8.2,1.2.2.9,0,1.9-.2,2.7-.6.3-.1.5-.3.8-.5.2-.2.4-.3.5-.4l1.7,1.9ZM123.1,39.1c0-.3,0-.6-.2-1-.1-.3-.3-.6-.5-.9-.3-.3-.6-.5-.9-.6-.4-.2-.8-.3-1.3-.3-.5,0-.9,0-1.4.3-.4.1-.7.4-1,.6-.3.2-.5.5-.6.9-.1.3-.2.6-.2,1h6.1Z"/>
        <path class="st1" d="M128.1,34.2h3v1.4c.3-.2.4-.4.6-.6.2-.2.5-.4.8-.5.3-.2.7-.3,1-.4.4-.1.9-.2,1.3-.2,1.3,0,2.6.4,3.5,1.4.9,1.1,1.3,2.4,1.2,3.7v7.5h-3.1v-7.5c0-.7-.2-1.3-.6-1.8-.4-.4-1.1-.7-1.7-.6-.4,0-.8,0-1.2.3-.4.2-.7.4-1,.7-.3.3-.5.7-.6,1-.2.4-.2.8-.2,1.3v6.7h-3.1v-12.4Z"/>
        <path class="st1" d="M153.6,44.8l-.4.4c-.3.3-.7.5-1,.8-.5.3-1.1.5-1.7.7-.8.2-1.7.3-2.5.3-.9,0-1.8-.2-2.7-.5-1.6-.6-2.8-1.9-3.4-3.5-.3-.9-.5-1.8-.5-2.7,0-.9.1-1.7.5-2.6.3-.8.7-1.5,1.3-2,.6-.6,1.2-1.1,2-1.4.8-.3,1.7-.5,2.6-.5,1,0,2,.2,2.9.6.7.4,1.4.9,1.9,1.6.5.7.8,1.5,1,2.3.2.8.3,1.7.3,2.6v.4h-9.2c0,.4,0,.9.3,1.2.2.4.5.7.8,1,.3.3.7.5,1.1.6.4.1.8.2,1.2.2.9,0,1.9-.2,2.7-.6.3-.1.5-.3.8-.5.2-.2.4-.3.5-.4l1.7,1.9ZM150.6,39.1c0-.3,0-.6-.2-1-.1-.3-.3-.6-.5-.9-.3-.3-.6-.5-.9-.6-.4-.2-.8-.3-1.3-.3-.5,0-.9,0-1.4.3-.4.1-.7.4-1,.6-.3.2-.5.5-.6.9-.1.3-.2.6-.2,1h6.1Z"/>
        <path class="st1" d="M155.5,34.2h3v1.6c.2-.2.4-.4.6-.6.2-.2.5-.4.8-.6.3-.2.7-.3,1-.4.4-.1.9-.2,1.4-.2.3,0,.5,0,.8,0,.2,0,.5,0,.7.2l-.6,2.9c-.2,0-.4-.1-.6-.2-.3,0-.5,0-.8,0-.4,0-.8,0-1.2.2-.4.1-.7.3-1,.6-.6.6-.9,1.4-.9,2.2v6.7h-3.1v-12.4Z"/>
        <path class="st1" d="M172,45.4c-.4.5-.9.8-1.5,1.1-.7.3-1.5.5-2.3.5-.5,0-1,0-1.5-.2-.5-.2-1-.4-1.4-.7-.4-.3-.8-.8-1-1.3-.3-.6-.4-1.2-.4-1.8,0-.7.1-1.3.4-1.9.3-.5.6-1,1.1-1.4.5-.4,1.1-.7,1.7-.9.7-.2,1.5-.3,2.2-.3.2,0,.5,0,.8,0,.3,0,.6,0,.9,0h1c0,0,0-.2,0-.2,0-.6-.3-1.1-.7-1.5-.6-.4-1.2-.6-1.9-.5-.7,0-1.4,0-2.1.3-.5.2-1,.5-1.4.7l-1.4-2.1c.2-.2.5-.4.8-.5.4-.2.7-.4,1.1-.5.5-.2,1-.3,1.5-.4.6-.1,1.3-.2,1.9-.1.7,0,1.5.1,2.2.3.6.2,1.2.5,1.7.9.5.4.8.9,1.1,1.4.2.6.4,1.2.4,1.8v8.3h-2.9v-1.2ZM172,41h-.9c-.2,0-.5,0-.8,0-.3,0-.5,0-.7,0-.8,0-1.5.1-2.1.6-.4.3-.6.8-.6,1.4,0,.5.2.9.6,1.2.5.3,1.1.5,1.7.4.7,0,1.4-.2,2-.7.3-.2.5-.5.6-.7.2-.3.3-.6.3-.9v-1.2Z"/>
        <path class="st1" d="M177.3,29h3.1v17.6h-3.1v-17.6Z"/>
        <path class="st1" d="M134.2,50.4h1v4.7h-1v-4.7Z"/>
        <path class="st1" d="M136.9,50.4h1l2.4,3.3v-3.3h.9v4.7h-.9l-2.5-3.4v3.4h-.9v-4.7Z"/>
        <path class="st1" d="M143.5,53.8c0,0,.1.1.2.2,0,0,.2.1.3.2.1,0,.2.1.3.2.1,0,.3,0,.4,0,.2,0,.5,0,.7-.2.1-.1.2-.3.2-.5,0,0,0-.2,0-.3,0,0-.1-.2-.2-.2-.1,0-.2-.1-.4-.2-.2,0-.4,0-.6-.1-.2,0-.4-.1-.6-.2-.2,0-.3-.2-.4-.3-.1-.1-.2-.3-.3-.4,0-.1,0-.3,0-.5,0-.2,0-.4.1-.5,0-.2.2-.3.3-.4.2-.1.3-.2.5-.3.3,0,.5-.1.8-.1.2,0,.5,0,.7,0,.2,0,.3.1.5.2.1,0,.2.1.3.2,0,0,.1.1.2.2l-.6.6s0,0-.1-.1c0,0-.1-.1-.2-.1,0,0-.2,0-.3-.1-.1,0-.3,0-.4,0-.1,0-.2,0-.3,0,0,0-.2,0-.2.1,0,0-.1.1-.1.2,0,0,0,.1,0,.2,0,0,0,.2,0,.2,0,0,0,.1.2.2,0,0,.2.1.3.2.2,0,.3,0,.5.1.2,0,.4,0,.6.2.2,0,.3.2.5.3.1.1.3.3.3.4,0,.2.1.4.1.6,0,.2,0,.4-.1.6,0,.2-.2.3-.4.5-.2.1-.4.2-.6.3-.2,0-.5.1-.7.1-.2,0-.5,0-.7,0-.2,0-.4-.1-.6-.2-.2,0-.3-.2-.4-.3-.1,0-.2-.2-.3-.3l.7-.6Z"/>
        <path class="st1" d="M148.3,50.4h1v2.8c0,.2,0,.3,0,.5,0,.1,0,.3.2.4,0,.1.2.2.3.2.3.1.7.1,1,0,.1,0,.3-.1.3-.2,0-.1.2-.2.2-.4,0-.2,0-.3,0-.5v-2.8h1v3c0,.3,0,.5-.1.7,0,.2-.2.4-.4.6-.2.2-.4.3-.6.4-.6.2-1.2.2-1.8,0-.2,0-.5-.2-.6-.4-.2-.2-.3-.4-.4-.6,0-.2-.1-.5-.1-.7v-3Z"/>
        <path class="st1" d="M154.2,50.4h1.7c.3,0,.6,0,.8.1.2,0,.4.2.5.3.2.2.4.6.4.9,0,.3,0,.5-.2.8-.2.2-.4.4-.6.5l1.2,2h-1.1l-1-1.9h-.7v1.9h-.9v-4.7ZM155.9,52.5c.2,0,.4,0,.6-.2.1-.1.2-.3.2-.5,0-.2,0-.4-.2-.5-.2-.1-.4-.2-.6-.2h-.8v1.4h.8Z"/>
        <path class="st1" d="M160.9,50.4h1l1.9,4.7h-1.1l-.4-1.2h-1.9l-.4,1.2h-1l1.9-4.7ZM162,53.2l-.7-1.8-.7,1.8h1.3Z"/>
        <path class="st1" d="M165.2,50.4h1l2.4,3.3v-3.3h.9v4.7h-.9l-2.5-3.4v3.4h-.9v-4.7Z"/>
        <path class="st1" d="M175.8,54.2c0,.1-.2.2-.3.3-.1.1-.3.2-.5.3-.2.1-.4.2-.6.2-.2,0-.5,0-.7,0-.4,0-.7,0-1-.2-.3-.1-.6-.3-.8-.5-.2-.2-.4-.5-.5-.8-.3-.6-.3-1.3,0-1.9.1-.3.3-.6.5-.8.2-.2.5-.4.8-.5.3-.1.7-.2,1.1-.2.2,0,.5,0,.7,0,.2,0,.4.1.6.2.2,0,.3.2.5.3.1.1.2.2.3.4l-.7.6c-.2-.2-.3-.4-.6-.5-.2-.1-.5-.2-.8-.2-.7,0-1.3.4-1.5,1,0,.2-.1.4-.1.6,0,.2,0,.4.1.6,0,.2.2.4.3.5.1.1.3.3.5.3.2,0,.4.1.6.1.2,0,.4,0,.6,0,.1,0,.3,0,.4-.2,0,0,.2-.1.3-.2,0,0,.1-.1.2-.2l.7.5Z"/>
        <path class="st1" d="M177.2,50.4h3.3v.8h-2.3v1.1h1.7v.8h-1.7v1.2h2.5v.8h-3.4v-4.7Z"/>
        <path class="st5" d="M24.2,72.1c0,.1.2.2.3.3.1.1.2.2.4.3.1,0,.3.2.5.2.2,0,.4,0,.6,0,.3,0,.6,0,.9-.3.2-.2.3-.4.3-.6,0-.1,0-.3,0-.4,0-.1-.2-.2-.3-.3-.2,0-.3-.2-.5-.2-.3,0-.5-.1-.8-.2-.3,0-.6-.1-.8-.3-.2-.1-.4-.3-.6-.4-.1-.2-.3-.4-.3-.6,0-.2-.1-.4-.1-.6,0-.2,0-.5.1-.7,0-.2.2-.4.4-.6.2-.2.5-.3.7-.4.3-.1.7-.2,1-.2.3,0,.6,0,.9.1.2,0,.4.2.6.3.1,0,.3.2.4.3,0,.1.2.2.2.2l-.8.8s0,0-.2-.1c0,0-.2-.1-.3-.2-.1,0-.3-.1-.4-.2-.2,0-.3,0-.5,0-.2,0-.3,0-.5,0-.1,0-.2,0-.3.2,0,0-.1.1-.2.2,0,0,0,.2,0,.3,0,.2.1.4.3.6.1,0,.3.2.4.2.2,0,.5.1.7.2.3,0,.5.1.8.2.2,0,.5.2.6.4.2.2.3.4.4.6.1.3.2.6.2.9,0,.3,0,.5-.2.8-.1.2-.3.5-.5.6-.2.2-.5.3-.8.4-.3.1-.6.2-1,.2-.3,0-.6,0-.9-.1-.3,0-.5-.2-.7-.3-.2-.1-.4-.2-.6-.4-.1-.1-.3-.3-.4-.4l.9-.8Z"/>
        <path class="st5" d="M29.8,67.4h1.3v3.9c0,.2,0,.5,0,.7,0,.2.1.4.2.5.1.1.3.3.5.3.5.2.9.2,1.4,0,.2,0,.3-.2.5-.3.1-.1.2-.3.2-.5,0-.2,0-.4,0-.7v-3.9h1.3v4.1c0,.3,0,.7-.2,1-.1.3-.3.6-.5.8-.2.2-.5.4-.9.5-.8.3-1.6.3-2.3,0-.3-.1-.6-.3-.9-.5-.2-.2-.4-.5-.5-.8-.1-.3-.2-.7-.2-1v-4.1Z"/>
        <path class="st5" d="M36.9,67.4h2.2c.4,0,.7,0,1.1.2.3.1.5.3.7.5.2.2.3.4.4.6,0,.2.1.4.1.7,0,.4,0,.8-.3,1.1-.2.3-.5.6-.9.8l1.6,2.7h-1.4l-1.4-2.6h-1v2.6h-1.2v-6.5ZM39.1,70.3c.3,0,.6,0,.8-.3.2-.2.3-.4.3-.7,0-.3,0-.5-.3-.7-.2-.2-.5-.3-.7-.3h-1v1.9h1Z"/>
        <path class="st5" d="M44.9,67.4h1.3l2.6,6.5h-1.4l-.6-1.7h-2.5l-.6,1.7h-1.3l2.6-6.5ZM46.4,71.2l-.9-2.5-.9,2.5h1.8Z"/>
        <path class="st5" d="M49.7,67.4h1.3v2.7l2.5-2.7h1.4l-2.5,2.7,2.8,3.9h-1.5l-2.1-3-.6.7v2.3h-1.3v-6.5Z"/>
        <path class="st5" d="M56.7,72.1c0,.1.2.2.3.3.1.1.2.2.4.3.1,0,.3.2.5.2.2,0,.4,0,.6,0,.3,0,.6,0,.9-.3.2-.2.3-.4.3-.6,0-.1,0-.3,0-.4,0-.1-.2-.2-.3-.3-.2,0-.3-.2-.5-.2-.3,0-.5-.1-.8-.2-.3,0-.6-.1-.8-.3-.2-.1-.4-.3-.6-.4-.1-.2-.3-.4-.3-.6,0-.2-.1-.4-.1-.6,0-.2,0-.5.1-.7,0-.2.2-.4.4-.6.2-.2.5-.3.7-.4.3-.1.7-.2,1-.2.3,0,.6,0,.9.1.2,0,.4.2.6.3.1,0,.3.2.4.3,0,.1.2.2.2.2l-.8.8s0,0-.2-.1c0,0-.2-.1-.3-.2-.1,0-.3-.1-.4-.2-.2,0-.3,0-.5,0-.2,0-.3,0-.5,0-.1,0-.2,0-.3.2,0,0-.1.1-.2.2,0,0,0,.2,0,.3,0,.1,0,.2,0,.3,0,.1.1.2.2.3.1,0,.3.2.4.2.2,0,.5.1.7.2.3,0,.5.1.8.2.2,0,.5.2.6.4.2.2.3.4.4.6.1.3.2.6.2.9,0,.3,0,.5-.2.8-.1.2-.3.5-.5.6-.2.2-.5.3-.8.4-.3.1-.6.2-1,.2-.3,0-.6,0-.9-.1-.3,0-.5-.2-.7-.3-.2-.1-.4-.2-.6-.4-.1-.1-.3-.3-.4-.4l.9-.8Z"/>
        <path class="st5" d="M62.4,67.4h1.3v2.6h3.4v-2.6h1.3v6.5h-1.3v-2.8h-3.4v2.8h-1.3v-6.5Z"/>
        <path class="st5" d="M71.8,67.4h1.3l2.6,6.5h-1.4l-.6-1.7h-2.5l-.6,1.7h-1.3l2.6-6.5ZM73.3,71.2l-.9-2.5-.9,2.5h1.8Z"/>
        <path class="st5" d="M81.8,67.4h1.3l2.6,6.5h-1.4l-.6-1.7h-2.5l-.6,1.7h-1.3l2.6-6.5ZM83.3,71.2l-.9-2.5-.9,2.5h1.8Z"/>
        <path class="st5" d="M86.3,67.4h1.3v3.9c0,.2,0,.5,0,.7,0,.2.1.4.2.5.1.1.3.3.5.3.5.2.9.2,1.4,0,.2,0,.3-.2.5-.3.1-.1.2-.3.2-.5,0-.2,0-.4,0-.7v-3.9h1.3v4.1c0,.3,0,.7-.2,1-.1.3-.3.6-.5.8-.2.2-.5.4-.9.5-.8.3-1.6.3-2.3,0-.3-.1-.6-.3-.9-.5-.2-.2-.4-.5-.5-.8-.1-.3-.2-.7-.2-1v-4.1Z"/>
        <path class="st5" d="M93.4,67.4h2.2c.4,0,.7,0,1.1.2.3.1.5.3.7.5.2.2.3.4.4.6,0,.2.1.4.1.7,0,.4,0,.8-.3,1.1-.2.3-.5.6-.9.8l1.6,2.7h-1.4l-1.4-2.6h-1v2.6h-1.2v-6.5ZM95.6,70.3c.3,0,.6,0,.8-.3.2-.2.3-.4.3-.7,0-.3,0-.5-.3-.7-.2-.2-.5-.3-.7-.3h-1v1.9h1Z"/>
        <path class="st5" d="M102.5,67.4h2.3c.3,0,.6,0,.9.1.3,0,.5.2.7.4.2.1.3.3.4.5,0,.2.1.4.1.7,0,.2,0,.4-.1.6,0,.2-.2.3-.3.4-.1.1-.2.2-.4.3,0,0-.2,0-.3,0,.1,0,.3,0,.4.1.2,0,.3.2.5.3.2.1.3.3.4.5.1.2.2.5.2.7,0,.3,0,.6-.2.9-.1.2-.3.4-.5.6-.2.2-.5.3-.8.3-.3,0-.7,0-1,0h-2.3v-6.6ZM104.7,70c.1,0,.3,0,.4,0,.1,0,.2,0,.3-.1,0,0,.2-.1.2-.2,0-.1,0-.2,0-.4,0-.2-.1-.5-.3-.6-.1,0-.2-.1-.3-.1-.1,0-.2,0-.4,0h-1v1.6h1ZM104.8,72.9c.1,0,.3,0,.4,0,.1,0,.3,0,.4-.1.1,0,.2-.2.3-.3,0-.1.1-.3.1-.5,0-.2,0-.3-.1-.5,0-.1-.2-.2-.3-.3-.1,0-.3-.1-.4-.1-.1,0-.3,0-.4,0h-1.1v1.9h1.1Z"/>
        <path class="st5" d="M108.7,67.4h1.3v2.6h3.4v-2.6h1.3v6.5h-1.3v-2.8h-3.4v2.8h-1.3v-6.5Z"/>
        <path class="st5" d="M118.1,67.4h1.3l2.6,6.5h-1.4l-.6-1.7h-2.5l-.6,1.7h-1.3l2.6-6.5ZM119.6,71.2l-.9-2.5-.9,2.5h1.8Z"/>
        <path class="st5" d="M122.9,67.4h2.2c.4,0,.7,0,1.1.2.3.1.5.3.7.5.2.2.3.4.4.6,0,.2.1.4.1.7,0,.4,0,.8-.3,1.1-.2.3-.5.6-.9.8l1.6,2.7h-1.4l-1.4-2.6h-1v2.6h-1.2v-6.5ZM125.2,70.3c.3,0,.6,0,.8-.3.2-.2.3-.4.3-.7,0-.3,0-.5-.3-.7-.2-.2-.5-.3-.7-.3h-1v1.9h1Z"/>
        <path class="st5" d="M132.2,74.1c-1.4,0-2.7-.8-3.2-2.1-.4-.9-.4-1.8,0-2.7.4-.8,1-1.5,1.9-1.8.4-.2.9-.3,1.4-.3.5,0,.9,0,1.4.3.4.2.8.4,1.1.7.3.3.6.7.8,1.1.4.9.4,1.8,0,2.7-.6,1.3-1.8,2.1-3.2,2.1h0ZM132.2,72.9c.3,0,.6,0,.9-.2.3-.1.5-.3.7-.5.2-.2.3-.5.4-.7.2-.6.2-1.2,0-1.8,0-.3-.2-.5-.4-.7-.2-.2-.4-.4-.7-.5-.6-.2-1.2-.2-1.8,0-.3.1-.5.3-.7.5-.2.2-.3.5-.4.7-.2.6-.2,1.2,0,1.8,0,.3.2.5.4.7.2.2.4.4.7.5.3.1.6.2.9.2h0Z"/>
        <path class="st5" d="M137.5,72.1c0,.1.2.2.3.3.1.1.2.2.4.3.1,0,.3.2.5.2.2,0,.4,0,.6,0,.3,0,.6,0,.9-.3.2-.2.3-.4.3-.6,0-.1,0-.3,0-.4,0-.1-.2-.2-.3-.3-.2,0-.3-.2-.5-.2-.3,0-.5-.1-.8-.2-.3,0-.6-.1-.8-.3-.2-.1-.4-.3-.6-.4-.1-.2-.3-.4-.3-.6,0-.2-.1-.4-.1-.6,0-.2,0-.5.1-.7,0-.2.2-.4.4-.6.2-.2.5-.3.7-.4.3-.1.7-.2,1-.2.3,0,.6,0,.9.1.2,0,.4.2.6.3.1,0,.3.2.4.3,0,.1.2.2.2.2l-.8.8s0,0-.2-.1c0,0-.2-.1-.3-.2-.1,0-.3-.1-.4-.2-.2,0-.3,0-.5,0-.2,0-.3,0-.5,0-.1,0-.2,0-.3.2,0,0-.1.1-.2.2,0,0,0,.2,0,.3,0,.2.1.4.3.6.1,0,.3.2.4.2.2,0,.5.1.7.2.3,0,.5.1.8.2.2,0,.5.2.6.4.2.2.3.4.4.6.1.3.2.6.2.9,0,.3,0,.5-.2.8-.1.2-.3.5-.5.6-.2.2-.5.3-.8.4-.3.1-.6.2-1,.2-.3,0-.6,0-.9-.1-.3,0-.5-.2-.7-.3-.2-.1-.4-.2-.6-.4-.1-.1-.3-.3-.4-.4l.9-.8Z"/>
        <path class="st5" d="M145,67.4h1.3l2.6,6.5h-1.4l-.6-1.7h-2.5l-.6,1.7h-1.3l2.6-6.5ZM146.5,71.2l-.9-2.5-.9,2.5h1.8Z"/>
        <path class="st5" d="M152.8,67.4h2.5c.5,0,1,0,1.4.2.4.1.8.3,1.1.6.3.3.6.6.7,1,.2.5.3,1,.3,1.5,0,.5,0,1-.3,1.4-.2.4-.4.7-.7,1-.3.3-.7.5-1.1.6-.5.1-1,.2-1.4.2h-2.5s0-6.5,0-6.5ZM155.2,72.8c.6,0,1.3-.1,1.8-.5.4-.4.7-1,.6-1.6,0-.6-.2-1.2-.6-1.6-.5-.4-1.1-.7-1.8-.6h-1.1v4.3h1.1Z"/>
        <path class="st5" d="M163.5,74.1c-1.4,0-2.7-.8-3.2-2.1-.4-.9-.4-1.8,0-2.7.4-.8,1-1.5,1.9-1.8,1.3-.6,2.8-.3,3.9.7.3.3.6.7.8,1.1.4.9.4,1.8,0,2.7-.6,1.3-1.8,2.1-3.2,2.1ZM163.5,72.9c.3,0,.6,0,.9-.2.3-.1.5-.3.7-.5.2-.2.3-.5.4-.7.2-.6.2-1.2,0-1.8,0-.3-.2-.5-.4-.7-.2-.2-.4-.4-.7-.5-.6-.2-1.2-.2-1.8,0-.3.1-.5.3-.7.5-.2.2-.3.5-.4.7-.2.6-.2,1.2,0,1.8,0,.3.2.5.4.7.2.2.4.4.7.5.3.1.6.2.9.2h0Z"/>
        <path class="st5" d="M168.3,67.4h1.3l3.3,4.6v-4.6h1.2v6.5h-1.3l-3.3-4.7v4.7h-1.2v-6.5Z"/>
        <path class="st5" d="M178.9,74.1c-1.4,0-2.7-.8-3.2-2.1-.4-.9-.4-1.8,0-2.7.4-.8,1-1.5,1.9-1.8.4-.2.9-.3,1.4-.3.5,0,.9,0,1.4.3.4.2.8.4,1.1.7.3.3.6.7.7,1.1.4.9.4,1.8,0,2.7-.6,1.3-1.8,2.1-3.2,2.1h0ZM178.9,72.9c.3,0,.6,0,.9-.2.3-.1.5-.3.7-.5.2-.2.3-.5.4-.7.2-.6.2-1.2,0-1.8,0-.3-.2-.5-.4-.7-.2-.2-.4-.4-.7-.5-.6-.2-1.2-.2-1.8,0-.3.1-.5.3-.7.5-.2.2-.3.5-.4.7-.2.6-.2,1.2,0,1.8,0,.3.2.5.4.7.2.2.4.4.7.5.3.1.6.2.9.2h0Z"/>
      </g>
    </g>
  </g>
</svg>