<?xml version="1.0" encoding="UTF-8"?>
<svg id="Layer_1" xmlns="http://www.w3.org/2000/svg" version="1.1" viewBox="0 0 200 90">
  <!-- Generator: Adobe Illustrator 29.5.0, SVG Export Plug-In . SVG Version: 2.1.0 Build 137)  -->
  <defs>
    <style>
      .st0 {
        fill: #4f4c4d;
      }

      .st1 {
        fill: #fff;
        stroke: #666;
        stroke-miterlimit: 10;
      }

      .st2 {
        fill: none;
        stroke: #4f4c4d;
        stroke-width: 1.1px;
      }

      .st3 {
        fill: #1c63b7;
      }
    </style>
  </defs>
  <rect class="st1" width="200" height="90" rx="10" ry="10"/>
  <g id="layer1">
    <path id="path1086" class="st3" d="M190,79.4h-.1c0,0-1.2,0-1.2,0l.2-1.1h0c0,0,0-.1,0-.1h-.1s-.2,0-.2,0h-.2s-.1,0-.1,0h0c0,0,0,.1,0,.1l-.2,1.1h-.8c0,0,0,.2,0,.2v.2s0,.2,0,.2h0c0,.1,0,.2,0,.2h.6l-.5,2.6v.2s0,.2,0,.2v.2s0,.1,0,.1c0,.2,0,.3,0,.5,0,.1.1.2.2.3,0,0,.2.2.4.2.1,0,.3,0,.5,0h.2s.2,0,.2,0h.2c0,0,.1-.1.1-.1h0c0,0,0-.2,0-.2v-.2s0-.1,0-.1h0c0-.1,0-.1,0-.1h0s-.1,0-.1,0h-.2s-.2,0-.2,0c-.2,0-.3,0-.4-.1,0,0-.1-.2-.1-.4v-.2s0-.2,0-.2l.5-2.6h1.3s0,0,0,0h0c0,0,0-.2,0-.2h0c0-.1,0-.2,0-.2h0c0-.1,0-.1,0-.1ZM185.8,79.5h-.2c0-.1-.3-.2-.3-.2-.1,0-.2,0-.3,0-.1,0-.2,0-.4,0-.3,0-.5,0-.8.1-.2,0-.4.2-.6.3-.2.1-.3.3-.4.5s-.1.4-.1.6,0,.4.1.5c0,.1.2.3.3.4.1,0,.3.2.4.3.2,0,.3.1.4.2.1,0,.2.2.3.2,0,0,.1.2.1.3s0,.2,0,.3l-.2.3c0,0-.2.1-.3.2-.1,0-.3,0-.5,0s-.4,0-.5,0c-.1,0-.3,0-.3-.1h-.2c0-.1-.2-.2-.2-.2h0s0,.1,0,.1h0c0,.1,0,.2,0,.2h0c0,.1,0,.2,0,.2h0c0,.1,0,.2,0,.2h.2c0,.2.2.2.3.3.1,0,.2,0,.4,0,.1,0,.3,0,.5,0,.3,0,.6,0,.8-.1.2,0,.5-.2.6-.3.2-.1.3-.3.4-.5,0-.2.1-.4.1-.7s0-.4-.1-.5c0-.1-.2-.3-.3-.4-.1,0-.3-.2-.4-.3-.2,0-.3-.1-.4-.2-.1,0-.3-.2-.3-.2,0,0-.1-.2-.1-.3v-.3c0,0,.2-.2.2-.2,0,0,.2-.1.3-.2.1,0,.2,0,.4,0s.3,0,.4,0c.1,0,.2,0,.3.1h.2c0,.1.1.2.1.2h0c0,0,0-.2,0-.2v-.2s0-.1,0-.1v-.2c0,0,0,0,0,0ZM181.3,79.4h0c0,0,0-.1,0-.1h-.1s-.2,0-.2,0h-.2s-.1,0-.1,0h0c0,0,0,.1,0,.1l-.9,4.6h0c0,0,0,.1,0,.1h.1s.2,0,.2,0h.2s.1,0,.1,0h0c0,0,0-.1,0-.1l.9-4.6h0ZM181.7,77.7v-.2c0,0-.2,0-.2,0h-.2s-.3,0-.3,0h-.2c0,0-.1.2-.1.2v.2c0,0,0,.2,0,.2v.2c0,0,.2,0,.2,0h.2s.3,0,.3,0h.2c0,0,.1-.2.1-.2v-.2c0,0,0-.2,0-.2ZM178.9,77.2h0c0,0,0-.1,0-.1h-.1s-.2,0-.2,0h-.2s-.1,0-.1,0h0c0,0,0,.1,0,.1l-1.4,6.8h0c0,0,0,.1,0,.1h.1s.2,0,.2,0h.2s.1,0,.1,0h0c0,0,0-.1,0-.1l1.4-6.8h0ZM174.4,81.5c0,.3-.2.6-.3.8-.1.2-.3.5-.4.6-.2.2-.3.3-.5.4-.2.1-.4.2-.6.2s-.3,0-.4,0l-.2-.2c0,0,0-.2-.1-.3,0-.1,0-.2,0-.4s0-.3,0-.5c0-.2,0-.4.1-.6,0-.2.1-.4.2-.6,0-.2.2-.3.3-.5.1-.1.2-.3.4-.3.2,0,.3-.1.5-.1s.4,0,.6.2c.2.1.4.3.5.5l-.2.8h0ZM175.6,79.4h0c0,0,0-.1,0-.1h-.1s-.2,0-.2,0c-.1,0-.2,0-.3,0h-.1c0,.1,0,.6,0,.6-.2-.2-.4-.4-.6-.5-.2-.1-.5-.2-.8-.2s-.6,0-.8.2c-.2.1-.4.3-.6.5-.2.2-.3.4-.5.6-.1.2-.2.5-.3.7,0,.3-.1.5-.2.7,0,.2,0,.5,0,.6s0,.4,0,.6.1.4.2.5c.1.2.2.3.4.4.2,0,.4.1.7.1s.4,0,.6-.1c.2,0,.4-.2.5-.3.2-.1.3-.2.4-.4.1-.1.2-.2.2-.4l-.2.9h0c0,0,0,.1,0,.1h.1s.2,0,.2,0c.1,0,.2,0,.3,0h.1c0-.1.9-4.7.9-4.7h0ZM169.9,79.5h0c0,0,0-.1,0-.1h-.1s-.2,0-.2,0h-.2s-.1,0-.1,0h0c0,0,0,.1,0,.1l-.9,4.6h0c0,0,0,.1,0,.1h.1s.2,0,.2,0h.2s.1,0,.1,0h0c0,0,0-.1,0-.1l.9-4.6h0ZM170.3,77.7v-.2c0,0-.2,0-.2,0h-.2s-.3,0-.3,0h-.2c0,0-.1.2-.1.2v.2c0,0,0,.2,0,.2v.2s.2,0,.2,0h.2s.3,0,.3,0h.2c0,0,.1-.2.1-.2v-.2c0,0,0-.2,0-.2h0ZM167.3,79.8h0c0-.1-.2-.3-.2-.3,0,0-.2-.1-.3-.1-.1,0-.2,0-.4,0-.1,0-.3,0-.4,0-.3,0-.6,0-.9.2-.3.1-.5.3-.7.4-.2.2-.4.4-.5.6-.1.2-.2.5-.3.7,0,.3-.1.5-.2.7,0,.2,0,.5,0,.7,0,.6.1,1,.4,1.2.3.3.7.4,1.2.4s.3,0,.5,0c.2,0,.3,0,.4-.1.1,0,.3-.1.4-.2l.2-.2h0c0-.1,0-.3,0-.3v-.2s0-.1,0-.1h0c0-.1,0-.1,0-.1h-.2c0,.1-.2.2-.3.3-.1,0-.2.1-.4.2-.2,0-.3,0-.6,0s-.5,0-.7-.3c-.2-.2-.2-.4-.2-.8s0-.3,0-.5c0-.2,0-.4.1-.5,0-.2.1-.4.2-.6,0-.2.2-.3.3-.5.1-.1.3-.3.4-.4.2,0,.4-.1.6-.1s.4,0,.5,0c.1,0,.2.1.3.2l.2.2h.1c0,0,.1,0,.1,0h0c0-.1,0-.3,0-.3v-.2s0-.1,0-.1h0ZM161.4,80.8c0,.1-.2.2-.3.3-.1,0-.3.1-.6.2-.2,0-.5,0-.9,0h-.5c0-.2.1-.4.2-.5s.2-.3.3-.5c.1-.1.3-.2.5-.3.2,0,.4-.1.6-.1s.4,0,.6.2c.1.1.2.2.2.4s0,.2,0,.3M162.2,80c0-.1-.2-.3-.3-.4s-.3-.2-.5-.3c-.2,0-.4-.1-.7-.1s-.6,0-.9.2c-.3.1-.5.2-.7.4-.2.2-.4.4-.5.6-.1.2-.3.5-.4.7,0,.2-.2.5-.2.8,0,.3,0,.5,0,.7s0,.5.1.7c0,.2.2.4.3.5.2.1.3.2.6.3.2,0,.5.1.8.1s.3,0,.5,0c.2,0,.3,0,.5,0,.1,0,.3,0,.4-.1.1,0,.2,0,.2-.1h0c0-.1,0-.3,0-.3h0c0-.1,0-.3,0-.3h0c0,0,0-.1,0-.1h-.2c0,0-.2.1-.3.2-.1,0-.3,0-.5.1-.2,0-.4,0-.6,0-.4,0-.7,0-.8-.3-.2-.2-.3-.4-.3-.8s0-.2,0-.3c0-.1,0-.2,0-.3h.5c.5,0,.9,0,1.3-.1.4,0,.7-.2.9-.3.2-.1.4-.3.5-.5.1-.2.2-.4.2-.6s0-.3,0-.4M155.8,81.5c0,.2,0,.4-.1.6,0,.2-.1.4-.2.6,0,.2-.2.3-.3.5-.1.1-.2.3-.4.3-.1,0-.3.1-.5.1s-.4,0-.6-.2c-.2-.1-.4-.3-.5-.5l.2-.8c0-.3.2-.6.3-.8.1-.2.3-.5.4-.7.2-.2.3-.3.5-.4.2-.1.4-.2.6-.2s.2,0,.3,0l.2.2c0,0,0,.2.1.3,0,.1,0,.3,0,.4s0,.3,0,.5M156.7,80.2c0-.2-.1-.4-.2-.5-.1-.1-.3-.3-.4-.4-.2,0-.4-.1-.7-.1s-.4,0-.6.1c-.2,0-.4.2-.5.3-.2.1-.3.2-.4.4-.1.1-.2.2-.2.4l.2-.9h0c0,0,0-.1,0-.1h-.1s-.2,0-.2,0c-.1,0-.2,0-.3,0h-.1c0,.1-1.3,6.5-1.3,6.5h0c0,0,0,.1,0,.1h.1s.2,0,.2,0h.2s.1,0,.1,0h0c0,0,0-.1,0-.1l.4-2.2.2.2c0,0,.2.1.3.2.1,0,.2,0,.3.1.1,0,.3,0,.4,0,.3,0,.6,0,.8-.2.2-.1.4-.3.6-.4.2-.2.3-.4.5-.6.1-.2.2-.5.3-.7,0-.3.1-.5.2-.7,0-.2,0-.5,0-.7s0-.4,0-.7M151.3,77.9h0c0,0-.2-.2-.2-.2,0,0-.2,0-.3-.1-.1,0-.3,0-.4,0-.1,0-.3,0-.5,0-.3,0-.6,0-.9.2-.3.1-.5.2-.7.4-.2.2-.3.4-.4.6-.1.2-.2.5-.2.8s0,.4,0,.6c0,.2.2.3.3.4.1.1.2.2.4.3.1,0,.3.2.4.3.1,0,.3.2.4.2.1,0,.3.2.4.3.1,0,.2.2.3.3,0,.1,0,.2,0,.4s0,.3-.1.5c0,.2-.2.3-.3.4-.1.1-.3.2-.5.3-.2,0-.4,0-.6,0s-.4,0-.6,0c-.2,0-.3-.1-.4-.2-.1,0-.2-.1-.3-.2h-.2c0,0,0,0,0,0h0c0,0,0,.2,0,.2h0c0,.1,0,.3,0,.3h0c0,0,0,.3,0,.3l.2.2c0,0,.2.1.4.2.1,0,.3,0,.5.1.2,0,.4,0,.6,0,.4,0,.7,0,1-.2.3-.1.6-.3.8-.4.2-.2.4-.4.5-.7.1-.3.2-.5.2-.8s0-.4,0-.6c0-.2-.2-.3-.3-.4-.1-.1-.2-.2-.4-.3-.1,0-.3-.2-.4-.3-.1,0-.3-.2-.4-.2-.1,0-.3-.2-.4-.3-.1,0-.2-.2-.3-.3,0-.1-.1-.2-.1-.4s0-.3,0-.4c0-.1.1-.3.2-.4.1-.1.2-.2.4-.3.2,0,.3,0,.5,0s.4,0,.5,0c.1,0,.3,0,.4.1.1,0,.2,0,.3.1h.2c0,0,0,0,0,0h0c0,0,0-.2,0-.2h0c0-.1,0-.2,0-.2h0c0,0,0-.2,0-.2h0ZM139.5,81.3c0-.2,0-.4,0-.5,0-.2.1-.3.2-.5.1-.1.2-.2.4-.3.2,0,.3-.1.6-.1.4,0,.7.1.9.4.2.3.3.6.3,1h-2.5ZM142.9,81.4c0-.3,0-.6-.1-.8,0-.3-.2-.5-.4-.7-.2-.2-.4-.4-.6-.5-.3-.1-.6-.2-.9-.2s-.6,0-.9.2c-.3.1-.5.3-.7.5-.2.2-.3.5-.4.8-.1.3-.2.7-.2,1.1s0,.8.1,1.1c0,.3.2.6.4.8.2.2.4.4.7.5.3.1.6.2,1,.2s.4,0,.6,0,.4,0,.5-.1c.1,0,.3,0,.4-.1h.2c0,0,0-.2,0-.2h0c0,0,0-.2,0-.2h0c0-.1,0-.3,0-.3h0c0,0,0-.2,0-.2h0s-.2,0-.2,0c0,0-.2,0-.3.1-.1,0-.3,0-.4.1-.2,0-.4,0-.6,0s-.5,0-.7-.1c-.2,0-.3-.2-.5-.3-.1-.1-.2-.3-.3-.5,0-.2,0-.4,0-.7h3.3c0-.1.1-.2.1-.4v-.2h0ZM137.4,83.2h0c0-.1,0-.2,0-.2h0s-.2,0-.2,0c0,0-.2.1-.3.2-.1,0-.2.1-.4.2-.1,0-.3,0-.5,0s-.4,0-.5-.1c-.2,0-.3-.2-.4-.3-.1-.2-.2-.3-.2-.6,0-.2,0-.5,0-.8,0-.6.1-1,.3-1.4.2-.3.5-.5.9-.5s.4,0,.5,0c.1,0,.3.1.4.2l.3.2h.2c0,0,.1,0,.1,0,0,0,0-.1,0-.3v-.2s0-.1,0-.1h0c0,0,0-.2,0-.2h-.2c0-.2-.2-.3-.3-.3-.1,0-.2,0-.4-.1-.1,0-.3,0-.4,0-.3,0-.6,0-.8.2-.3.1-.5.3-.7.5-.2.2-.3.5-.5.8-.1.3-.2.7-.2,1.2s0,.8.1,1.1c0,.3.2.6.4.8.2.2.4.4.6.5.3.1.5.2.9.2s.3,0,.5,0,.3,0,.4-.1c.1,0,.2-.1.3-.2l.2-.2h0c0,0,0-.2,0-.2h0c0-.1,0-.3,0-.3v-.2s0,0,0,0ZM132.2,81.2c0-.3,0-.6,0-.8,0-.2-.2-.4-.3-.6-.1-.2-.3-.3-.5-.4-.2-.1-.5-.2-.8-.2s-.5,0-.8.2c-.3.1-.5.3-.8.6v-.6h0c0,0,0-.1,0-.1h-.1s-.2,0-.2,0h-.2s-.1,0-.1,0h0c0,0,0,.1,0,.1v4.6h0c0,0,0,.1,0,.1h.1s.2,0,.2,0h.2s.1,0,.1,0h0c0,0,0-.1,0-.1v-3.2c.2-.3.5-.5.7-.7.2-.2.4-.2.6-.2s.3,0,.4,0c.1,0,.2.1.3.3,0,.1.1.3.2.4,0,.2,0,.4,0,.6v2.7h0c0,0,0,.1,0,.1h.1s.2,0,.2,0h.2s.1,0,.1,0h0c0,0,0-.1,0-.1v-2.8h0ZM125.4,82.9c-.2.2-.4.4-.6.5-.2.1-.4.2-.6.2s-.5,0-.6-.2c-.2-.1-.2-.3-.2-.6s0-.3,0-.4c0-.1.1-.2.2-.3.1,0,.3-.1.4-.2.2,0,.4,0,.6,0h.7v1h0ZM126.3,81c0-.3,0-.5,0-.8,0-.2-.2-.4-.3-.5-.1-.1-.3-.3-.6-.3-.2,0-.5-.1-.8-.1s-.4,0-.5,0c-.2,0-.3,0-.5.1-.1,0-.3.1-.4.2-.1,0-.2.1-.2.2h0c0,.1,0,.3,0,.3h0c0,.1,0,.2,0,.2h0c0,0,0,0,0,0h.2c0-.1.2-.2.3-.2.1,0,.3-.1.4-.2.2,0,.4,0,.6,0s.4,0,.5,0c.1,0,.2.1.3.2,0,0,.1.2.2.3,0,.1,0,.3,0,.5v.4h-.6c-.4,0-.7,0-1,0-.3,0-.5.2-.7.3-.2.1-.3.3-.5.5-.1.2-.2.4-.2.7s0,.4.1.6c0,.2.2.3.3.4.1.1.3.2.5.3.2,0,.4,0,.7,0s.5,0,.8-.2c.2-.1.5-.3.7-.5v.5h0c0,0,.1.1.1.1h.2s.2,0,.2,0h.1s0-.1,0-.1v-3.1h0ZM121.6,79.6h0c0-.1,0-.2,0-.2h0s-.1,0-.1,0h-.2s-.2,0-.2,0h-.2s-.3,0-.3,0h-.3c0,.2-.2.3-.3.4-.1.1-.2.3-.4.4v-.7h0c0,0,0-.1,0-.1h-.1s-.2,0-.2,0h-.2s-.1,0-.1,0h0c0,0,0,.1,0,.1v4.6h0c0,0,0,.1,0,.1h.1s.2,0,.2,0h.2s.1,0,.1,0h0c0,0,0-.1,0-.1v-3c.1-.2.2-.3.3-.5,0-.1.2-.2.3-.3l.3-.2h.2c0,0,.2,0,.2,0h.2s.1,0,.1,0h0s0,0,0,0h0c0,0,0-.2,0-.2v-.2s0-.2,0-.2h0ZM117,79.5h0c0,0,0-.1,0-.1h-.1s-.2,0-.2,0h-.2s-.1,0-.1,0h0c0,0,0,.1,0,.1v3.2c-.2.3-.5.5-.7.7-.2.2-.4.2-.6.2s-.3,0-.4,0c-.1,0-.2-.2-.3-.3,0-.1-.1-.3-.2-.4,0-.2,0-.4,0-.6v-2.7h0c0,0,0-.1,0-.1h-.1s-.2,0-.2,0h-.2s-.1,0-.1,0h0c0,0,0,.1,0,.1v2.8c0,.3,0,.6,0,.8,0,.2.2.4.3.6.1.2.3.3.5.4.2.1.5.2.8.2s.5,0,.8-.2c.3-.1.5-.3.8-.6v.6h0c0,0,0,.1,0,.1h.1s.2,0,.2,0h.2s.1,0,.1,0h0c0,0,0-.1,0-.1v-4.6h0ZM111.3,82.3c0-.1-.2-.3-.3-.4-.1-.1-.2-.2-.4-.3-.1,0-.3-.1-.4-.2-.1,0-.3-.1-.4-.2-.1,0-.3-.1-.4-.2-.1,0-.2-.1-.3-.2,0,0-.1-.2-.1-.3v-.3c0,0,.2-.2.2-.2,0,0,.2-.1.3-.1.1,0,.2,0,.4,0s.3,0,.4,0c.1,0,.2,0,.3.1h.2c0,.1.1.2.1.2h0s0,0,0,0h0c0-.1,0-.3,0-.3h0c0-.1,0-.2,0-.2h0c0,0,0-.1,0-.1h-.2c0,0-.3-.2-.3-.2,0,0-.2,0-.3,0-.1,0-.2,0-.4,0-.3,0-.5,0-.7.1-.2,0-.4.2-.5.3-.1.1-.2.3-.3.4,0,.2-.1.3-.1.5s0,.4.1.5c0,.1.2.3.3.4.1.1.2.2.4.3.1,0,.3.1.4.2.1,0,.3.1.4.2.1,0,.3.1.4.2.1,0,.2.1.3.2,0,0,0,.2,0,.3s0,.2,0,.3l-.2.2c0,0-.2.1-.3.1-.1,0-.2,0-.4,0s-.4,0-.5,0c-.1,0-.3,0-.4-.2-.1,0-.2-.1-.3-.2h-.2c0,0,0,0,0,0h0c0,0,0,.2,0,.2v.2c0,.1,0,.2,0,.2h0c0,.1.2.3.2.3,0,0,.2,0,.3.1.1,0,.3,0,.4,0,.1,0,.3,0,.5,0,.3,0,.5,0,.7,0,.2,0,.4-.2.6-.3.2-.1.3-.3.4-.5,0-.2.1-.4.1-.6s0-.4,0-.5M106.6,81.2c0-.3,0-.6,0-.8,0-.2-.1-.4-.3-.6-.1-.2-.3-.3-.5-.4-.2-.1-.5-.2-.8-.2s-.5,0-.8.2c-.3.1-.5.3-.8.6v-.6h0c0,0,0-.1,0-.1h-.1s-.2,0-.2,0h-.2s-.1,0-.1,0h0c0,0,0,.1,0,.1v4.6h0c0,0,0,.1,0,.1h.1s.2,0,.2,0h.2s.1,0,.1,0h0c0,0,0-.1,0-.1v-3.2c.2-.3.5-.5.7-.7.2-.2.4-.2.6-.2s.3,0,.4,0c.1,0,.2.1.3.3,0,.1.1.3.2.4,0,.2,0,.4,0,.6v2.7h0c0,0,0,.1,0,.1h.1s.2,0,.2,0h.2s.1,0,.1,0h0c0,0,0-.1,0-.1v-2.8h0ZM100.5,77.7h0c0,0,0-.1,0-.1h-.1s-.2,0-.2,0h-.2s-.1,0-.1,0h0s0,.1,0,.1v6.3h0c0,0,0,.1,0,.1h.1s.2,0,.2,0h.2s.1,0,.1,0h0s0-.1,0-.1v-6.3ZM94.8,81.2c0-.3,0-.6,0-.8,0-.2-.2-.4-.3-.6-.1-.2-.3-.3-.5-.4-.2-.1-.5-.2-.8-.2s-.5,0-.7.2c-.2.1-.5.3-.7.6v-2.8h0c0,0,0-.1,0-.1h-.1s-.2,0-.2,0h-.2s-.1,0-.1,0h0c0,0,0,.1,0,.1v6.8h0c0,0,0,.1,0,.1h.1s.2,0,.2,0h.2s.1,0,.1,0h0c0,0,0-.1,0-.1v-3.2c.2-.3.5-.5.7-.7.2-.2.4-.2.6-.2s.3,0,.4,0c.1,0,.2.1.3.3,0,.1.1.3.2.4,0,.2,0,.4,0,.6v2.7h0c0,0,0,.1,0,.1h.1s.2,0,.2,0h.2s.1,0,.1,0h0c0,0,0-.1,0-.1v-2.8h0ZM89.3,83.6h0c0,0,0-.1,0-.1h0s0,0,0,0h-.1s-.2,0-.2,0h-.2c-.2,0-.4,0-.5-.2,0-.2-.1-.4-.1-.7v-2.6h1.3c0-.1,0-.2,0-.3v-.2s0-.1,0-.1h0c0,0,0,0,0,0h-1.2v-1.1h0c0,0,0-.1,0-.1h-.1s-.2,0-.2,0h-.2s-.1,0-.1,0h0c0,0,0,.1,0,.1v1.1h-.7s0,0,0,0h0c0,.1,0,.3,0,.3,0,.1,0,.2,0,.3h.1c0,0,.6,0,.6,0v2.7c0,.3,0,.5,0,.7,0,.2.1.4.2.5.1.1.2.2.4.3.2,0,.4,0,.6,0h.2s.2,0,.2,0h.2c0,0,.1-.1.1-.1h0c0-.1,0-.4,0-.4v-.2s0,0,0,0ZM84.9,77.2h0c0,0,0-.1,0-.1h-.1s-.2,0-.2,0h-.2s-.1,0-.1,0h0c0,0,0,.1,0,.1v6.8h0c0,0,0,.1,0,.1h.1s.2,0,.2,0h.2s.1,0,.1,0h0c0,0,0-.1,0-.1v-6.8ZM81.3,82.9c-.2.2-.4.4-.6.5-.2.1-.4.2-.6.2s-.5,0-.6-.2c-.2-.1-.2-.3-.2-.6s0-.3,0-.4c0-.1.1-.2.2-.3.1,0,.3-.1.4-.2.2,0,.4,0,.6,0h.7v1h0ZM82.1,80.9c0-.3,0-.5,0-.8,0-.2-.2-.4-.3-.5-.1-.1-.3-.3-.6-.3-.2,0-.5-.1-.8-.1s-.4,0-.5,0c-.2,0-.3,0-.5.1-.1,0-.3.1-.4.2-.1,0-.2.1-.2.2h0c0,.1,0,.3,0,.3h0c0,.1,0,.2,0,.2h0c0,0,0,0,0,0h.2c0-.1.2-.2.3-.2.1,0,.3-.1.4-.2.2,0,.4,0,.6,0s.4,0,.5,0c.1,0,.2.1.3.2,0,0,.1.2.2.3,0,.1,0,.3,0,.5v.4h-.6c-.4,0-.7,0-1,0-.3,0-.5.2-.7.3-.2.1-.3.3-.5.5-.1.2-.2.4-.2.7s0,.4.1.6c0,.2.2.3.3.4.1.1.3.2.5.3.2,0,.4,0,.7,0s.5,0,.8-.2.5-.3.7-.5v.5h0c0,0,.1.1.1.1h.2s.2,0,.2,0h.1s0-.1,0-.1v-3.1h0ZM73.6,81.3c0-.2,0-.4,0-.5,0-.2.1-.3.2-.5.1-.1.2-.2.4-.3.2,0,.3-.1.5-.1.4,0,.7.1.9.4.2.3.3.6.3,1h-2.5ZM76.9,81.4c0-.3,0-.6-.1-.8,0-.3-.2-.5-.4-.7-.2-.2-.4-.4-.6-.5-.3-.1-.6-.2-.9-.2s-.6,0-.9.2c-.3.1-.5.3-.7.5-.2.2-.3.5-.4.8-.1.3-.2.7-.2,1.1s0,.8.1,1.1c0,.3.2.6.4.8.2.2.4.4.7.5.3.1.6.2,1,.2s.4,0,.6,0,.4,0,.5-.1c.1,0,.3,0,.4-.1h.2c0,0,0-.2,0-.2h0c0,0,0-.2,0-.2h0c0-.1,0-.3,0-.3h0c0,0,0-.2,0-.2h0s-.2,0-.2,0c0,0-.2,0-.3.1-.1,0-.3,0-.4.1-.2,0-.4,0-.6,0s-.5,0-.7-.1c-.2,0-.3-.2-.5-.3-.1-.1-.2-.3-.3-.5,0-.2,0-.4,0-.7h3.3c0-.1.1-.2.1-.4v-.2h0ZM70.9,77.7h0c0,0,0-.1,0-.1h-.1s-.2,0-.2,0h-.2s-.1,0-.1,0h0s0,.1,0,.1v2.6h-3v-2.6h0c0,0,0-.1,0-.1h-.1s-.2,0-.2,0h-.2s-.1,0-.1,0h0s0,.1,0,.1v6.3h0c0,0,0,.1,0,.1h.1s.2,0,.2,0h.2s.1,0,.1,0h0s0-.1,0-.1v-2.9h3v2.9h0c0,0,0,.1,0,.1h.1s.2,0,.2,0h.2s.1,0,.1,0h0s0-.1,0-.1v-6.3ZM58.2,81.3c0-.2,0-.4,0-.5,0-.2.1-.3.2-.5.1-.1.2-.2.4-.3.2,0,.3-.1.5-.1.4,0,.7.1.9.4.2.3.3.6.3,1h-2.5,0ZM61.6,81.4c0-.3,0-.6-.1-.8,0-.3-.2-.5-.4-.7-.2-.2-.4-.4-.6-.5-.3-.1-.6-.2-.9-.2s-.6,0-.9.2c-.3.1-.5.3-.7.5s-.3.5-.4.8c-.1.3-.2.7-.2,1.1s0,.8.1,1.1c0,.3.2.6.4.8.2.2.4.4.7.5.3.1.6.2,1,.2s.4,0,.6,0c.2,0,.4,0,.5-.1.1,0,.3,0,.4-.1h.2c0,0,0-.2,0-.2h0c0,0,0-.2,0-.2h0c0-.1,0-.3,0-.3h0c0,0,0-.2,0-.2h0s-.2,0-.2,0c0,0-.2,0-.3.1-.1,0-.3,0-.4.1-.2,0-.4,0-.6,0s-.5,0-.7-.1c-.2,0-.3-.2-.5-.3-.1-.1-.2-.3-.3-.5,0-.2,0-.4,0-.7h3.3c0-.1,0-.2,0-.4v-.2h0ZM55.7,81.2c0-.3,0-.6,0-.8,0-.2-.1-.4-.3-.6-.1-.2-.3-.3-.5-.4-.2-.1-.5-.2-.8-.2s-.5,0-.7.2c-.2.1-.5.3-.7.6v-2.8h0c0,0,0-.1,0-.1h-.1s-.2,0-.2,0h-.2s-.1,0-.1,0h0c0,0,0,.1,0,.1v6.8h0c0,0,0,.1,0,.1h.1s.2,0,.2,0h.2s.1,0,.1,0h0c0,0,0-.1,0-.1v-3.2c.2-.3.5-.5.7-.7.2-.2.4-.2.6-.2s.3,0,.4,0c.1,0,.2.1.3.3,0,.1.1.3.2.4,0,.2,0,.4,0,.6v2.7h0c0,0,0,.1,0,.1h.1s.2,0,.2,0h.2s.1,0,.1,0h0c0,0,0-.1,0-.1v-2.8h0ZM50.4,77.8h0c0-.1,0-.2,0-.2h0s-4.6,0-4.6,0h0s0,0,0,0h0c0,.1,0,.3,0,.3v.2s0,.1,0,.1h0c0,0,0,0,0,0h1.9v5.7h0c0,0,0,.1,0,.1h.1s.2,0,.2,0h.2s.1,0,.1,0h0s0-.1,0-.1v-5.7h1.9s0,0,0,0h0c0-.1,0-.3,0-.3v-.2h0Z"/>
    <path id="path1090" class="st0" d="M133.8,66.5l-.2.2c0,0-.2.1-.3.2-.1,0-.3,0-.5,0-.3,0-.6,0-.7-.1-.2,0-.3-.2-.3-.4v-.2s0-.2,0-.2v-.2c.1,0,.3-.2.3-.2h.9c.2,0,.4,0,.5.2.1,0,.2.2.2.4v.3c0,0,0,0,0,0ZM133.5,63.7v.3c-.1,0-.4.2-.4.2,0,0-.2,0-.3,0-.2,0-.4,0-.6-.2-.1-.1-.2-.3-.2-.6s0-.2,0-.3v-.3c.1,0,.4-.2.4-.2,0,0,.2,0,.3,0,.2,0,.4,0,.6.2.1.1.2.3.2.6s0,.2,0,.3M134.5,62.3h-.1c0,0-1.1,0-1.1,0h-.3c0,0-.2,0-.3,0-.2,0-.4,0-.6,0-.2,0-.3.1-.4.3-.1.1-.2.2-.3.4,0,.2-.1.3-.1.6s0,.3,0,.5c0,.1.1.2.2.3-.1.1-.2.2-.2.3,0,.1-.1.3-.1.4s0,.2,0,.3c0,.1.2.2.3.3l-.2.2-.2.2v.2c0,0-.1.3-.1.3,0,.1,0,.3,0,.4,0,.1.2.2.3.3.1,0,.3.2.5.2.2,0,.5,0,.7,0s.6,0,.8,0c.2,0,.4-.2.5-.3.1-.1.2-.2.3-.4,0-.2.1-.3.1-.5s0-.3,0-.4c0-.1-.1-.2-.3-.3-.1,0-.2-.1-.4-.2-.2,0-.3,0-.5,0h-.9c-.1,0-.3,0-.3-.1v-.2c-.1,0,0-.2,0-.2v-.2c.2,0,.3.1.4.1.1,0,.3,0,.4,0s.4,0,.6,0c.2,0,.3-.1.4-.3.1-.1.2-.2.3-.4,0-.2.1-.3.1-.6s0-.2,0-.4c0-.1-.1-.2-.2-.3h.6c0,0,0-.3,0-.3v-.2s0,0,0,0ZM129.3,63.7c0-.3,0-.5,0-.7,0-.2-.1-.3-.2-.5-.1-.1-.2-.2-.4-.3-.2,0-.4-.1-.6-.1s-.4,0-.6.2c-.2.1-.4.3-.6.5v-.5h0c0,0,0,0,0,0h0s-.1,0-.1,0h-.1s0,0,0,0h0s0,0,0,0v3.6h0c0,0,0,0,0,0h.1s.2,0,.2,0h.2s.1,0,.1,0h0s0,0,0,0v-2.5c.2-.2.4-.4.5-.5.2-.1.3-.2.5-.2s.2,0,.3,0l.2.2c0,0,.1.2.1.3,0,.1,0,.3,0,.5v2.1h0c0,0,0,0,0,0h.1s.2,0,.2,0h.2s.1,0,.1,0h0s0,0,0,0v-2.2h0ZM123.9,60.8c0,0-.2,0-.3,0s-.3,0-.3,0c0,0,0,.2,0,.3s0,.3,0,.3c0,0,.2,0,.3,0s.3,0,.3,0c0,0,0-.2,0-.3s0-.3,0-.3M123.9,62.3h0c0,0,0,0,0,0h-.1s-.2,0-.2,0h-.2s-.1,0-.1,0h0s0,0,0,0v3.6h0c0,0,0,0,0,0h.1s.2,0,.2,0h.2s.1,0,.1,0h0s0,0,0,0v-3.6ZM121.4,62.4h0c0,0,0-.1,0-.1h0s0,0,0,0h-.1s-.1,0-.1,0h-.1s-.2,0-.2,0h-.2c0,.1-.2.3-.2.3,0,0-.2.2-.3.4v-.5h0c0,0,0,0,0,0h0s-.1,0-.1,0h-.1s0,0,0,0h0s0,0,0,0v3.6h0c0,0,0,0,0,0h.1s.2,0,.2,0h.2s.1,0,.1,0h0s0,0,0,0v-2.4c0-.1.2-.3.3-.4l.2-.2h.2c0-.1.2-.2.2-.2h.2s.1,0,.1,0h.1s0,0,0,0h0s0,0,0,0h0c0,0,0-.2,0-.2h0c0-.1,0-.1,0-.1ZM116.4,65c-.2.2-.3.3-.5.4-.1,0-.3.1-.5.1s-.4,0-.5-.2c-.1-.1-.2-.3-.2-.4s0-.2,0-.3l.2-.2c0,0,.2-.1.3-.1.1,0,.3,0,.5,0h.6v.8h0ZM117,63.5c0-.2,0-.4,0-.6,0-.2-.1-.3-.2-.4-.1-.1-.3-.2-.4-.3-.2,0-.4,0-.7,0s-.3,0-.4,0c-.1,0-.3,0-.4,0-.1,0-.2,0-.3.1h-.2c0,.1,0,.2,0,.2v.2s0,.1,0,.1h0c0,0,0,.1,0,.1h0s.1,0,.1,0h.2c0-.2.2-.2.3-.3.1,0,.3,0,.4,0s.3,0,.4,0c.1,0,.2,0,.3.2,0,0,.1.2.1.3,0,.1,0,.2,0,.4v.3h-.5c-.3,0-.5,0-.8,0-.2,0-.4.1-.6.2-.2,0-.3.2-.4.4,0,.1-.1.3-.1.5s0,.3,0,.5c0,.1.1.3.3.3.1,0,.2.2.4.2.2,0,.3,0,.5,0s.4,0,.6-.1c.2,0,.4-.2.5-.4v.4h0c0,0,0,.1,0,.1h.2s.2,0,.2,0h0s0-.1,0-.1v-2.4h0ZM112.4,65.1h0c0,0,0-.1,0-.1h0s-.2,0-.2,0c0,0-.2.1-.3.2-.1,0-.2.1-.4.2-.2,0-.3,0-.5,0s-.5,0-.7-.1c-.2,0-.4-.2-.5-.4-.1-.2-.2-.4-.3-.6,0-.3-.1-.5-.1-.9s0-.6.1-.9c0-.3.2-.5.3-.7.1-.2.3-.3.5-.4.2,0,.4-.1.6-.1s.4,0,.5,0c.2,0,.3.1.4.2.1,0,.2.1.3.2h.2c0,0,0,0,0,0h0c0,0,0-.1,0-.1h0c0-.1,0-.3,0-.3h0c0,0,0-.2,0-.2h0c0,0-.2-.2-.2-.2,0,0-.2-.1-.3-.1-.1,0-.3,0-.4-.1-.1,0-.3,0-.4,0-.3,0-.6,0-.9.2-.3.1-.5.3-.7.5-.2.2-.4.5-.5.9-.1.3-.2.7-.2,1.2s0,.8.2,1.1c.1.3.2.6.4.8.2.2.4.4.7.5.3.1.6.2.9.2s.4,0,.5,0c.2,0,.3,0,.4-.1.1,0,.2-.1.3-.2h.2c0-.1,0-.2,0-.2h0c0,0,0-.1,0-.1h0c0-.1,0-.3,0-.3h0ZM99.8,64.3v-.3c.1,0,.3-.3.3-.3,0,0,.2-.2.3-.3,0,.1.2.2.3.4.1.1.2.3.4.4.1.1.3.3.4.4.1.1.3.3.4.4l-.2.2h-.3c0,.2-.2.2-.3.2-.1,0-.2,0-.3,0-.2,0-.3,0-.5,0-.1,0-.2-.1-.3-.2,0,0-.2-.2-.2-.3,0-.1,0-.2,0-.4v-.3s0,0,0,0ZM100.3,61.5v-.2c.1,0,.4-.1.4-.1,0,0,.2,0,.4,0s.2,0,.3,0h.2c0,.1.1.3.1.3v.2s0,.3,0,.3l-.2.3c0,0-.2.2-.3.3-.1,0-.3.2-.5.3,0-.1-.2-.2-.2-.3l-.2-.3v-.2c0,0-.1-.2-.1-.2v-.2s0,0,0,0ZM99.1,65.1c0,.1,0,.2.2.4,0,.1.2.2.3.3.1,0,.2.2.3.2.1,0,.3,0,.4.1.2,0,.3,0,.5,0s.3,0,.5,0c.2,0,.3,0,.4-.1.1,0,.3-.1.4-.2.1,0,.2-.2.4-.3.2.1.3.2.4.3.1,0,.2.1.3.2h.2c0,0,.2.1.2.1h.2s0,0,0,0h0c0,0,0-.1,0-.1v-.2s0-.1,0-.1h0c0,0,0,0,0,0h-.2s-.2-.1-.2-.1l-.2-.2c0,0-.2-.1-.3-.2,0-.1.2-.2.2-.3,0-.1.1-.3.2-.4,0-.1,0-.3.1-.4,0-.1,0-.3,0-.4h0c0,0,0-.2,0-.2h0s-.1,0-.1,0h-.3s0,0,0,0h0s0,.1,0,.1h0c0,.3,0,.4,0,.5,0,.1,0,.2,0,.3v.3c-.1,0-.3.2-.3.2-.1-.1-.2-.2-.4-.3-.1-.1-.2-.2-.4-.4-.1-.1-.2-.2-.3-.4-.1-.1-.2-.2-.3-.3.2-.1.5-.3.6-.4.2-.1.3-.2.4-.4.1-.1.2-.2.2-.4,0-.1,0-.3,0-.4s0-.3,0-.4c0-.1-.1-.2-.3-.3-.1,0-.3-.2-.4-.2-.2,0-.4,0-.6,0s-.5,0-.7.1c-.2,0-.4.2-.5.3-.1.1-.2.3-.3.4,0,.2,0,.3,0,.5v.3s.1.3.1.3c0,.1.1.2.2.3,0,.1.2.2.3.4-.2.1-.4.2-.5.4-.1.1-.2.2-.3.4,0,.1-.1.3-.2.4,0,.1,0,.3,0,.4s0,.3,0,.4M94.1,60.6h0c0,0,0,0,0,0h-.1s-.2,0-.2,0h-.2s-.1,0-.1,0h0s0,0,0,0v5.4h0c0,0,0,0,0,0h.1s.2,0,.2,0h.2s.1,0,.1,0h0s0,0,0,0v-5.4ZM90.5,65c-.2.2-.3.3-.5.4-.1,0-.3.1-.5.1s-.4,0-.5-.2c-.1-.1-.2-.3-.2-.4s0-.2,0-.3l.2-.2c0,0,.2-.1.3-.1.1,0,.3,0,.5,0h.6v.8h0ZM91.1,63.5c0-.2,0-.4,0-.6,0-.2-.1-.3-.2-.4-.1-.1-.3-.2-.4-.3-.2,0-.4,0-.7,0s-.3,0-.4,0c-.1,0-.3,0-.4,0-.1,0-.2,0-.3.1h-.2c0,.1,0,.2,0,.2v.2s0,.1,0,.1h0c0,0,0,.1,0,.1h0s.1,0,.1,0h.2c0-.2.2-.2.3-.3.1,0,.3,0,.4,0s.3,0,.4,0c.1,0,.2,0,.3.2,0,0,.1.2.1.3,0,.1,0,.2,0,.4v.3h-.5c-.3,0-.5,0-.8,0-.2,0-.4.1-.6.2-.2,0-.3.2-.4.4,0,.1-.1.3-.1.5s0,.3,0,.5c0,.1.1.3.3.3.1,0,.2.2.4.2.2,0,.3,0,.5,0s.4,0,.6-.1c.2,0,.4-.2.5-.4v.4h0c0,0,0,.1,0,.1h.2s.2,0,.2,0h0s0-.1,0-.1v-2.4h0ZM86.1,63.7c0-.3,0-.5,0-.7,0-.2-.1-.3-.2-.5-.1-.1-.2-.2-.4-.3-.2,0-.4-.1-.6-.1s-.4,0-.6.2c-.2.1-.4.3-.6.5v-.5h0c0,0,0,0,0,0h0s-.1,0-.1,0h-.1s0,0,0,0h0s0,0,0,0v3.6h0c0,0,0,0,0,0h.1s.2,0,.2,0h.2s0,0,0,0h0s0,0,0,0v-2.5c.2-.2.4-.4.5-.5.2-.1.3-.2.5-.2s.2,0,.3,0l.2.2c0,0,.1.2.1.3,0,.1,0,.3,0,.5v2.1h0c0,0,0,0,0,0h.1s.2,0,.2,0h.2s.1,0,.1,0h0s0,0,0,0v-2.2h0ZM80.2,64.7c0,.2-.1.3-.2.4,0,.1-.2.2-.4.3-.1,0-.3.1-.5.1s-.4,0-.5-.1c-.1,0-.3-.2-.3-.3,0-.1-.1-.3-.2-.5,0-.2,0-.4,0-.6s0-.4,0-.6c0-.2.1-.3.2-.5,0-.1.2-.2.4-.3.1,0,.3-.1.5-.1s.4,0,.5.1c.1,0,.3.2.3.3,0,.1.1.3.2.5,0,.2,0,.4,0,.6s0,.4,0,.6M80.9,63.3c0-.2-.2-.4-.3-.6-.1-.2-.3-.3-.6-.4-.2,0-.5-.1-.8-.1s-.6,0-.8.1c-.2,0-.4.2-.6.4-.2.2-.3.4-.3.6,0,.2-.1.5-.1.8s0,.6.1.8c0,.2.2.4.3.6.1.2.3.3.6.4.2,0,.5.1.8.1s.6,0,.8-.2c.2,0,.4-.2.6-.4.2-.2.3-.4.3-.6,0-.2.1-.5.1-.8s0-.6-.1-.8M75.5,64.5c0-.1-.1-.2-.2-.3,0,0-.2-.1-.3-.2-.1,0-.2-.1-.3-.2-.1,0-.2,0-.3-.1-.1,0-.2,0-.3-.1l-.2-.2c0,0,0-.2,0-.3v-.2s.2-.2.2-.2h.2c0-.1.2-.1.3-.1s.2,0,.3,0h.3c0,0,.2.2.2.2h.1s0,0,0,0h0s0-.1,0-.1h0c0-.1,0-.2,0-.2h0c0,0,0-.1,0-.1h0c0,0-.1-.1-.1-.1h-.2c0,0-.3-.1-.3-.1h-.3c-.2,0-.4,0-.6,0-.2,0-.3.1-.4.2-.1,0-.2.2-.2.3,0,.1,0,.3,0,.4s0,.3,0,.4c0,.1.1.2.2.3,0,0,.2.2.3.2.1,0,.2.1.3.2.1,0,.2,0,.3.1.1,0,.2,0,.3.1l.2.2v.3c0,0,0,.3,0,.3l-.2.2h-.2c0,.1-.2.1-.3.1s-.3,0-.4,0c-.1,0-.2,0-.3-.1h-.2c0-.1-.1-.2-.1-.2h0s0,0,0,0h0c0,0,0,.2,0,.2v.2s0,.1,0,.1h.1c0,0,.2.2.2.2,0,0,.2,0,.3,0,.1,0,.2,0,.4,0,.2,0,.4,0,.6,0,.2,0,.3-.1.4-.2.1,0,.2-.2.3-.4,0-.1.1-.3.1-.5s0-.3,0-.4M71.7,62.4h0c0,0,0-.1,0-.1h0s0,0,0,0h-.1s-.1,0-.1,0h-.1s-.2,0-.2,0h-.2c0,.1-.2.3-.2.3,0,0-.2.2-.3.4v-.5h0c0,0,0,0,0,0h0s-.1,0-.1,0h-.1s0,0,0,0h0s0,0,0,0v3.6h0c0,0,0,0,0,0h.1s.2,0,.2,0h.2s.1,0,.1,0h0s0,0,0,0v-2.4c0-.1.2-.3.3-.4l.2-.2h.2c0-.1.2-.2.2-.2h.2s.1,0,.1,0h.1s0,0,0,0h0s0,0,0,0h0c0,0,0-.2,0-.2h0c0-.1,0-.1,0-.1ZM64.8,63.8c0-.1,0-.3,0-.4,0-.1.1-.3.2-.4,0-.1.2-.2.3-.2.1,0,.3,0,.4,0,.3,0,.6,0,.7.3.2.2.2.5.2.8h-2ZM67.5,63.8c0-.2,0-.5,0-.7,0-.2-.2-.4-.3-.5-.1-.2-.3-.3-.5-.4-.2,0-.4-.1-.7-.1s-.5,0-.7.1c-.2,0-.4.2-.5.4-.2.2-.3.4-.3.6,0,.2-.1.5-.1.8s0,.6.1.9c0,.2.2.5.3.6.2.2.3.3.6.4.2,0,.5.1.8.1s.3,0,.5,0c.2,0,.3,0,.4,0,.1,0,.2,0,.3,0h.1c0,0,0-.1,0-.1h0c0,0,0-.1,0-.1h0c0,0,0-.2,0-.2h0c0,0,0-.1,0-.1h0s-.1,0-.1,0h-.2c0,.1-.2.2-.3.2-.1,0-.3,0-.5,0s-.4,0-.6,0c-.2,0-.3-.1-.4-.3,0-.1-.2-.3-.2-.4,0-.2,0-.3,0-.5h2.6c0-.1,0-.2,0-.3h0c0-.1,0-.1,0-.1ZM61.7,62.8c0,.1-.1.2-.2.3,0,0-.2.2-.3.2-.1,0-.3,0-.5,0h-.6v-2.1h.6c.1,0,.2,0,.4,0,.1,0,.2,0,.4.1.1,0,.2.2.3.3s.1.3.1.5,0,.3,0,.4M62.4,61.8c0-.2-.1-.3-.2-.4-.1-.1-.2-.2-.4-.3-.1,0-.3-.1-.4-.2-.1,0-.3,0-.4,0-.1,0-.2,0-.3,0h-1.3c0,.1,0,.2,0,.3v4.8h0c0,0,0,0,0,0h.1s.2,0,.2,0h.2s.1,0,.1,0h0s0,0,0,0v-1.9h.6c.3,0,.6,0,.8-.1.2,0,.4-.2.6-.3.2-.1.3-.3.4-.5,0-.2.1-.4.1-.7s0-.4,0-.5"/>
    <path id="path1094" class="st3" d="M186.6,62.8c0-.2,0-.3,0-.5,0-.1.1-.3.2-.4,0-.1.2-.2.3-.3.1,0,.3,0,.4,0,.3,0,.6.1.8.3.2.2.2.5.2.9h-2ZM189.9,63c0-.3,0-.6-.1-.9,0-.3-.2-.5-.4-.7s-.4-.4-.7-.5c-.3-.1-.6-.2-1-.2s-.7,0-1,.2c-.3.1-.6.3-.8.5-.2.2-.4.5-.5.9-.1.3-.2.7-.2,1.1s0,.8.2,1.2c.1.3.3.6.5.8.2.2.5.4.8.5.3.1.7.2,1.1.2s.5,0,.7,0c.2,0,.4,0,.6-.1.2,0,.3,0,.4-.1.1,0,.2,0,.2-.1h0c0,0,0-.2,0-.2h0c0-.1,0-.3,0-.3v-.2s0-.1,0-.1h0c0,0,0,0,0,0h-.2c0,0-.2.1-.3.2-.1,0-.3,0-.5.1-.2,0-.4,0-.6,0s-.4,0-.6,0c-.2,0-.3-.1-.4-.3-.1-.1-.2-.3-.2-.4,0-.2,0-.4,0-.6h2.9c.1,0,.2,0,.3-.1,0,0,.1-.2.1-.4v-.2h0ZM184.5,64.7v-.2s0,0,0,0h0s-.2,0-.2,0l-.3.2c0,0-.2.1-.3.2-.1,0-.3,0-.5,0s-.3,0-.5,0c-.1,0-.3-.2-.3-.3,0-.1-.2-.3-.2-.5,0-.2,0-.4,0-.7,0-.5,0-.9.3-1.2.2-.3.5-.4.8-.4s.3,0,.5,0c.1,0,.2.1.3.2l.2.2h.2c0,0,.1,0,.1,0,0,0,0-.2,0-.4v-.2s0-.2,0-.2h0c0-.1,0-.2,0-.2h-.2c0-.2-.2-.2-.3-.3-.1,0-.2,0-.4-.1-.1,0-.3,0-.4,0-.3,0-.7,0-1,.2-.3.1-.5.3-.8.5-.2.2-.4.5-.5.9-.1.3-.2.8-.2,1.2s0,.8.1,1.1c0,.3.2.6.4.8.2.2.4.4.7.5.3.1.6.2,1,.2s.3,0,.5,0c.2,0,.3,0,.4-.1.1,0,.3,0,.4-.2.1,0,.2-.1.2-.1h0c0-.1,0-.2,0-.2v-.2s0-.2,0-.2c0-.1,0-.2,0-.3M179.6,62.8c0-.3,0-.6,0-.9,0-.2-.2-.5-.3-.6-.1-.2-.3-.3-.5-.4-.2-.1-.5-.2-.8-.2s-.6,0-.9.2c-.3.1-.5.4-.8.6v-.6h0c0,0,0-.2,0-.2h-.2c0,0-.2,0-.3,0s-.2,0-.3,0h-.2s0,.1,0,.1h0v4.9h0c0,0,.1.2.1.2h.2c0,0,.2,0,.3,0s.2,0,.3,0h.2s.1-.1.1-.1h0v-3.3c.2-.2.4-.4.5-.5.2-.1.3-.2.5-.2s.3,0,.4,0l.2.2c0,0,.1.2.1.3,0,.1,0,.3,0,.5v2.7h0c0,0,.1.2.1.2h.2c0,0,.2,0,.3,0s.2,0,.3,0h.2s.1-.1.1-.1h0v-3h0ZM172.4,64.5c-.2.2-.3.3-.5.4-.2,0-.3.1-.5.1s-.4,0-.5-.2c-.1-.1-.2-.3-.2-.5s0-.2,0-.3l.2-.2c0,0,.2-.1.4-.1.2,0,.3,0,.6,0h.5v.8h0ZM173.7,62.5c0-.3,0-.6-.1-.8,0-.2-.2-.4-.4-.6-.2-.2-.4-.3-.7-.3-.3,0-.6-.1-1-.1s-.4,0-.6,0c-.2,0-.4,0-.5.1-.2,0-.3.1-.4.2-.1,0-.2.1-.3.2v.2c-.1,0-.1.2-.1.3v.2s0,.2,0,.2h0c0,.1.1.1.1.1h.2c0-.1.2-.2.3-.2.1,0,.3-.1.5-.2.2,0,.4,0,.6,0s.3,0,.4,0c.1,0,.2,0,.3.2,0,0,.1.2.2.3,0,.1,0,.2,0,.4v.3h-.5c-.4,0-.8,0-1.1,0-.3,0-.6.2-.8.3-.2.1-.4.3-.5.5-.1.2-.2.4-.2.7s0,.5.1.7c0,.2.2.4.4.5.2.1.3.2.6.3.2,0,.4,0,.7,0s.6,0,.8-.2c.3-.1.5-.3.7-.5v.4h0c0,.1.2.2.2.2,0,0,.2,0,.4,0s.3,0,.3,0h.2c0,0,0-.2,0-.2v-3.2h0ZM169,61.1v-.2s0,0,0,0h0c0,0,0-.1,0-.1h-.2s-.2,0-.2,0h-.2s-.3,0-.3,0h-.3c0,.2-.2.3-.3.4-.1.1-.2.3-.4.4v-.6h0c0,0,0-.2,0-.2h-.2c0,0-.2,0-.3,0s-.2,0-.3,0h-.2s0,.1,0,.1h0v4.9h0c0,0,.1.2.1.2h.2c0,0,.2,0,.3,0s.2,0,.3,0h.2s.1-.1.1-.1h0v-3.1c0-.2.2-.3.3-.4,0-.1.2-.2.2-.3h.2c0-.1.2-.2.2-.2h.2s.1,0,.1,0h.1s0,0,0,0h0s0-.1,0-.1v-.2c0,0,0-.2,0-.3s0-.2,0-.3M164.6,60.9h0c0,0-.1-.2-.1-.2h-.2c0,0-.2,0-.3,0s-.2,0-.3,0h-.2s-.1.1-.1.1h0v3.3c-.2.2-.4.4-.6.5-.2.1-.3.2-.5.2s-.3,0-.4,0l-.3-.2c0,0-.1-.2-.1-.3,0-.1,0-.3,0-.6v-2.7h0c0,0-.1-.2-.1-.2h-.2c0,0-.2,0-.3,0s-.2,0-.3,0h-.2s-.1.1-.1.1h0v3c0,.4,0,.7,0,.9,0,.2.2.5.3.6.1.2.3.3.5.4s.5.2.8.2.6,0,.8-.2c.3-.1.5-.4.8-.6v.5h0c0,0,0,.2,0,.2h.2c0,0,.2,0,.3,0s.2,0,.3,0h.2s0-.1,0-.1h0v-4.9h0ZM159,63.8c0-.2-.2-.3-.3-.4-.1-.1-.2-.2-.4-.3-.1,0-.3-.1-.4-.2-.1,0-.3-.1-.4-.2-.1,0-.3-.1-.4-.2-.1,0-.2-.1-.3-.2,0,0-.1-.2-.1-.3v-.2s.2-.2.2-.2h.2c0-.1.2-.1.3-.1.2,0,.3,0,.5,0,.1,0,.3,0,.4.1h.3c0,.1.2.2.2.2h0s0,0,0,0h0c0-.1,0-.4,0-.4v-.2s0-.1,0-.1h0c0,0,0-.2,0-.2h-.2c0-.1-.2-.2-.3-.2-.1,0-.2,0-.4,0-.1,0-.3,0-.4,0-.3,0-.6,0-.8.1-.2,0-.4.2-.6.3-.2.1-.3.3-.4.5,0,.2-.1.4-.1.6s0,.4,0,.6c0,.2.2.3.3.4.1.1.2.2.4.3.1,0,.3.1.4.2.1,0,.3.1.4.2.1,0,.3.1.4.2.1,0,.2.1.3.2,0,0,0,.2,0,.3v.2c0,0-.2.2-.2.2h-.2c0,.1-.2.1-.3.1-.2,0-.4,0-.5,0-.2,0-.3,0-.4-.2-.1,0-.2-.1-.3-.1h-.2c0,0,0,0,0,0h0c0,0,0,.2,0,.2,0,0,0,.1,0,.2,0,.2,0,.3,0,.4v.2c0,0,.3.1.3.1,0,0,.2,0,.3.1.1,0,.3,0,.4.1.2,0,.3,0,.5,0,.3,0,.6,0,.8-.1.3,0,.5-.2.7-.3.2-.1.3-.3.4-.5.1-.2.2-.4.2-.7s0-.4-.1-.6M154.4,62.8c0-.3,0-.6,0-.9,0-.2-.2-.5-.3-.6-.1-.2-.3-.3-.5-.4-.2-.1-.5-.2-.8-.2s-.6,0-.9.2c-.3.1-.5.4-.8.6v-.6h0c0,0,0-.2,0-.2h-.2c0,0-.2,0-.3,0s-.2,0-.3,0h-.2s0,.1,0,.1h0v4.9h0c0,0,.1.2.1.2h.2c0,0,.2,0,.3,0s.2,0,.3,0h.2s.1-.1.1-.1h0v-3.3c.2-.2.4-.4.5-.5.2-.1.3-.2.5-.2s.3,0,.4,0l.2.2c0,0,.1.2.1.3,0,.1,0,.3,0,.5v2.7h0c0,0,.1.2.1.2h.2c0,0,.2,0,.3,0s.2,0,.3,0h.2s.1-.1.1-.1h0v-3h0ZM148.4,59.2h0c0,0-.1-.2-.1-.2h-.2c0,0-.2,0-.3,0s-.2,0-.3,0h-.2s-.1.1-.1.1h0v6.6h0c0,0,.1.2.1.2h.2c0,0,.2,0,.3,0s.3,0,.3,0h.2s.1-.1.1-.1h0v-6.6h0Z"/>
    <path id="path1098" class="st3" d="M175.8,51.5c0-.4,0-.7,0-.9,0-.2-.2-.5-.3-.6-.1-.2-.3-.3-.5-.4-.2-.1-.5-.2-.8-.2s-.5,0-.8.2c-.2.1-.5.3-.7.5v-2.6h0c0,0-.1-.2-.1-.2h-.2c0,0-.2,0-.3,0s-.2,0-.3,0h-.2s-.1.1-.1.1h0v7.1h0c0,0,.1.2.1.2h.2c0,0,.2,0,.3,0s.2,0,.3,0h.2s.1-.1.1-.1h0v-3.3c.2-.2.4-.4.5-.5.2-.1.3-.2.5-.2s.3,0,.4,0l.2.2c0,0,.1.2.1.3,0,.1,0,.3,0,.5v2.7h0c0,0,.1.2.1.2h.2c0,0,.2,0,.3,0s.2,0,.3,0h.2s.1-.1.1-.1h0v-3h0ZM170.3,53.7v-.2s0,0,0,0h0s0,0,0,0h-.1s-.2,0-.2,0h-.2c-.2,0-.4,0-.4-.2,0-.1-.1-.3-.1-.6v-2.2h1.2c0-.2,0-.3,0-.5s0-.2,0-.3v-.2s-.1,0-.1,0h0s-1,0-1,0v-1.1h0c0,0-.1-.2-.1-.2h-.2c0,0-.2,0-.3,0s-.2,0-.3,0h-.2s-.1.1-.1.1h0v1.2h-.7s0,.1,0,.1v.2c0,0,0,.2,0,.3,0,.2,0,.3,0,.4h.2c0,.1.6.1.6.1v2.4c0,.3,0,.5,0,.8,0,.2.2.4.3.5.1.1.3.2.5.3.2,0,.4.1.7.1h.3s.3,0,.3,0h.2c0,0,.1-.2.1-.2v-.2c0,0,.1-.2.1-.4v-.2s0,0,0,0ZM166.1,47.4h0c0,0-.1-.2-.1-.2h-.2c0,0-.2,0-.3,0s-.2,0-.3,0h-.2s-.1.1-.1.1h0v7.1h0c0,0,.1.2.1.2h.2c0,0,.2,0,.3,0s.2,0,.3,0h.2s.1-.1.1-.1h0v-7.1ZM162.1,53.2c-.2.2-.3.3-.5.4-.2,0-.3.1-.5.1s-.4,0-.5-.2c-.1-.1-.2-.3-.2-.5s0-.2,0-.3l.2-.2c0,0,.2-.1.4-.1.2,0,.3,0,.6,0h.5v.8h0ZM163.4,51.3c0-.3,0-.6-.1-.8,0-.2-.2-.4-.4-.6-.2-.2-.4-.3-.7-.3-.3,0-.6-.1-1-.1s-.4,0-.6,0c-.2,0-.4,0-.5.1-.2,0-.3.1-.4.2-.1,0-.2.1-.3.2v.2c-.1,0-.1.2-.1.3v.2s0,.2,0,.2h0c0,.1.1.1.1.1h.2c0-.1.2-.2.3-.2.1,0,.3-.1.5-.2.2,0,.4,0,.6,0s.3,0,.4,0c.1,0,.2,0,.3.2,0,0,.1.2.2.3,0,.1,0,.2,0,.4v.3h-.5c-.4,0-.8,0-1.1,0-.3,0-.6.2-.8.3-.2.1-.4.3-.5.5-.1.2-.2.4-.2.7s0,.5.1.7c0,.2.2.4.4.5.2.1.3.2.6.3.2,0,.4,0,.7,0s.6,0,.8-.2c.3-.1.5-.3.7-.5v.4h0c0,.1.2.2.2.2,0,0,.2,0,.4,0s.3,0,.3,0h.2c0,0,0-.2,0-.2v-3.2h0ZM154.9,51.5c0-.2,0-.3,0-.5,0-.1.1-.3.2-.4,0-.1.2-.2.3-.3.1,0,.3,0,.4,0,.3,0,.6.1.8.3.2.2.2.5.2.9h-2ZM158.2,51.7c0-.3,0-.6-.1-.9,0-.3-.2-.5-.4-.7-.2-.2-.4-.4-.7-.5-.3-.1-.6-.2-1-.2s-.7,0-1,.2c-.3.1-.6.3-.8.5-.2.2-.4.5-.5.9-.1.3-.2.7-.2,1.1s0,.8.2,1.2c.1.3.3.6.5.8.2.2.5.4.8.5.3.1.7.2,1.1.2s.5,0,.7,0c.2,0,.4,0,.6-.1.2,0,.3,0,.4-.1.1,0,.2,0,.2-.1h0c0,0,0-.2,0-.2h0c0-.1,0-.3,0-.3v-.2s0-.1,0-.1h0c0,0,0,0,0,0h-.2c0,0-.2.1-.3.2-.1,0-.3,0-.5.1-.2,0-.4,0-.6,0s-.4,0-.6,0c-.2,0-.3-.1-.4-.3-.1-.1-.2-.3-.2-.4,0-.2,0-.4,0-.6h2.9c.1,0,.2,0,.3-.1,0,0,.1-.2.1-.4v-.2h0ZM152.4,47.9h0c0,0-.1-.2-.1-.2h-.2c0,0-.2,0-.3,0s-.3,0-.3,0h-.2s-.1.1-.1.1h0v2.6h-2.6v-2.5h0c0,0-.1-.2-.1-.2h-.2c0,0-.2,0-.3,0s-.2,0-.3,0h-.2s-.1.1-.1.1h0v6.6h0c0,0,.1.2.1.2h.2c0,0,.2,0,.3,0s.3,0,.3,0h.2s.1-.1.1-.1h0v-2.9h2.6v2.8h0c0,0,.1.2.1.2h.2c0,0,.2,0,.3,0s.2,0,.3,0h.2s.1-.1.1-.1h0v-6.6Z"/>
    <path id="path1102" class="st3" d="M127.3,46.5c1-.2,1.8-.5,2.4-.9.6-.3,1.1-.8,1.5-1.2h-18.5v2.2h14.9-.3q0-.1,0-.1ZM125.3,42.1c-.3.4-.7.6-1.1.7-.6.1-1,.2-1.4.3h9.2c.3-.7.5-1.4.6-2.2h-6.8c0,.5-.1.9-.4,1.3M119.5,38.6h3c1.2,0,2.1.2,2.6.6.1.1.2.2.3.4h7.2c0-.8-.3-1.6-.6-2.2h-19.3v2.2h6.8s0-.9,0-.9ZM88,37.3h-20.8v2.2h20.8v-2.2ZM53.1,38.4c.4-.3,1-.5,1.8-.5s1.7.2,2.3.7c.3.2.5.6.7,1h6.7c-.2-.8-.4-1.6-.8-2.2h-16.8c-.4.7-.7,1.5-.8,2.2h6.3c0-.4.2-.8.6-1.1M74.2,53.6h6.8v-2.2h-6.8v2.2ZM112.7,53.6h6.8v-2.2h-6.8v2.2ZM131.9,51.4h-7.8l1.2,2.2h7.8l-1.2-2.2ZM128.9,34.7c-1.1-.4-2.7-.5-4.8-.5h-11.4v1.9h18.4c-.6-.6-1.3-1.1-2.1-1.3M112.7,56.2h6.8v-1.3h-6.8v1.3ZM133.7,54.9h-7.7l.7,1.3h7.7l-.7-1.3ZM103.1,54.9l.4,1.3h7.1l-.5-1.3h-7.1ZM74.2,56.2h6.8v-1.3h-6.8v1.3ZM88,34.1h-20.8v1.9h20.8v-1.9ZM62,35.3c-1.5-1-3.6-1.6-6.5-1.6s-4.1.3-5.4.9c-.8.4-1.6.8-2.1,1.4h14.8c-.2-.2-.5-.5-.8-.7M102.3,34.1h-7.4l-.7,1.9h8.9l-.7-1.9ZM86.6,56.2h7l.4-1.3h-6.9l-.5,1.3ZM55.6,56.6c2.1,0,3.9-.3,5.3-.9.5-.2.9-.5,1.3-.7h-13.9c1.5,1.1,3.9,1.7,7.2,1.7M107.5,47.9h-17.8l-.8,2.2h19.5l-.8-2.2ZM112.7,50.1h6.8v-2.2h-6.8v2.2ZM99.5,43.1h6.2l-.8-2.2h-6l.7,2.2ZM58,51.6c-.5.5-1.3.7-2.3.7s-1.9-.3-2.5-.8h-7.3c.3.8.7,1.6,1.2,2.2h16.6c.2-.2.4-.4.5-.7.3-.5.6-1,.8-1.5h-6.9l-.2.2h0ZM131.1,49.8c-.2-.3-.5-.8-1-1.4-.2-.2-.3-.4-.5-.6h-7.7c.3.3.7.8,1.1,1.6l.3.6h7.9v-.3ZM119.5,40.8h-6.8v2.2h6.8v-2.2ZM108.8,51.4h-20.4l-.8,2.2h6.8l.3-1.1h7.7l.3,1.1h7l-.8-2.2ZM103.5,37.3h-9.8l-.8,2.2h11.5s-.8-2.2-.8-2.2ZM61.1,43.1c-1.3-.6-3.3-1.1-5.8-1.7-.8-.2-1.4-.3-1.8-.5h-7.2c0,.8.3,1.6.7,2.2h14.2ZM57,47.9c.5.2.8.4,1,.6.5.5.7,1,.7,1.5h0c0,.1,6.6.1,6.6.1,0-.3,0-.7,0-1.1s0-.8,0-1.2h-8.3ZM74.2,43.1h6.8v-2.2h-6.8v2.2ZM100.6,46.6h6.4l-.8-2.2h-6.3l.7,2.2ZM74.2,50.1h6.8v-2.2h-6.8v2.2ZM52,48.9h-6.7c0,.4.1.8.2,1.2h6.7c-.2-.4-.1-.6-.2-1.2M74.2,46.6h6.8v-2.2h-6.8v2.2ZM97.2,44.4h-6.1l-.8,2.2h6.3l.7-2.2ZM63.3,44.4h-15.3.1c.9.9,2.3,1.6,4.2,2.2h12.6c-.1-.3-.3-.6-.4-.8-.3-.5-.7-1-1.2-1.4M98.2,40.8h-5.9l-.8,2.2h6l.7-2.2Z"/>
    <path id="path1106" class="st3" d="M42.1,4l-10.7,21.7-21.4,2.8,14,16.5-3.4,24.1,19.6-10.4,15.3,10.6,2.3-1-17.6-14.7-14.9,8,3.9-17.7-10.7-12.6,15.7-2.2,7.9-15.7,9.7,17.5,1.3-1.2L42.1,4h0Z"/>
    <path id="path1110" class="st2" d="M141.2,32.2v35.6"/>
  </g>
</svg>