<?xml version="1.0" encoding="UTF-8"?>
<svg id="Layer_1" xmlns="http://www.w3.org/2000/svg" version="1.1" viewBox="0 0 200 90">
  <!-- Generator: Adobe Illustrator 29.5.0, SVG Export Plug-In . SVG Version: 2.1.0 Build 137)  -->
  <defs>
    <style>
      .st0, .st1 {
        fill: #fff;
      }

      .st2 {
        fill: #01448e;
        stroke: #666;
        stroke-miterlimit: 10;
      }

      .st1 {
        font-family: Roboto-Medium, Roboto;
        font-size: 12px;
        font-weight: 500;
      }
    </style>
  </defs>
  <rect class="st2" x="0" width="200" height="90" rx="10" ry="10"/>
  <g>
    <g>
      <path class="st0" d="M77.2,49.2l-1.2,2.9c-.2.5-.7,1.5-.7,2.1,0,1.1,1.2,1.3,2.4,1.4v.6h-6.4v-.6c1.6-.2,2.3-1,3.2-3.1l7.3-17.2h.6l6.9,16.7c.8,1.9,1.4,3.6,3.6,3.7v.6h-8.1v-.6c1.3,0,2.1-.3,2.1-1.4s-.5-1.7-.7-2.3l-1.1-2.6h-7.9ZM81.2,39.9l-3.6,8.2h7l-3.5-8.2Z"/>
      <path class="st0" d="M101.5,52.2c0,2.6,0,3.4,2.9,3.4v.6h-8.7v-.6c2.9,0,2.9-.8,2.9-3.4v-12.6c0-2.6,0-3.4-2.9-3.4v-.6h8.7v.6c-2.9,0-2.9.8-2.9,3.4v12.6Z"/>
      <path class="st0" d="M126.5,54.7c-2.1,1.2-4.6,1.8-7,1.8-9,0-11.4-6.7-11.4-10.3s3.5-11,10.8-11,2.7.3,3.8.7c.5.2,1.5.6,1.9.6.7,0,.7-.8.8-1.3h.6l.5,6.5h-.6c-1-3.4-3.2-5.4-6.8-5.4-5.2,0-7.5,4.7-7.5,9.3s3.3,10,7.9,10,2.9-.3,4.1-1.1v-5.5c0-2.6,0-3.4-2.9-3.4v-.6h8.1v.6c-2,0-2.3.7-2.3,2.9v6.4Z"/>
    </g>
    <g>
      <polygon class="st0" points="67 13 83.6 13 83.6 18.3 78.8 18.3 78.8 29.9 71.7 29.9 71.7 18.3 67 18.3 67 13"/>
      <polygon class="st0" points="87.3 13 80.4 29.9 87.5 29.9 90.9 22.3 94.3 29.9 101.4 29.9 94.5 13 87.3 13"/>
      <polygon class="st0" points="98.6 13 115.2 13 115.2 18.3 110.5 18.3 110.5 29.9 103.4 29.9 103.4 18.3 98.6 18.3 98.6 13"/>
      <polygon class="st0" points="118.9 13 112.1 29.9 119.2 29.9 122.6 22.3 125.9 29.9 133 29.9 126.2 13 118.9 13"/>
    </g>
    <text class="st1" transform="translate(62.4 73.8)"><tspan x="0" y="0">INSURANCE</tspan></text>
  </g>
</svg>