<?xml version="1.0" encoding="UTF-8"?>
<svg id="Layer_1" xmlns="http://www.w3.org/2000/svg" version="1.1" viewBox="0 0 200 90">
  <!-- Generator: Adobe Illustrator 29.5.0, SVG Export Plug-In . SVG Version: 2.1.0 Build 137)  -->
  <defs>
    <style>
      .st0 {
        stroke: #666;
        stroke-miterlimit: 10;
      }

      .st0, .st1 {
        fill: #fff;
      }

      .st1, .st2 {
        fill-rule: evenodd;
      }

      .st3, .st2 {
        fill: #0d0f8c;
      }

      .st4 {
        fill: none;
        stroke: #383336;
        stroke-miterlimit: 2.6;
        stroke-width: .2px;
      }
    </style>
  </defs>
  <rect class="st0" width="200" height="90" rx="10" ry="10"/>
  <g>
    <g>
      <polygon class="st1" points="21.2 28.8 22.1 28.8 22.9 28.8 23.7 28.9 24.5 29.1 25.3 29.3 26.1 29.5 26.8 29.7 27.6 30 28.3 30.4 29 30.7 29.7 31.1 30.3 31.5 31 32 31.6 32.5 32.2 33 32.7 33.5 33.3 34.1 33.8 34.7 34.3 35.3 34.7 35.9 35.1 36.6 35.5 37.3 35.9 38 36.2 38.7 36.5 39.4 36.8 40.2 37 40.9 37.2 41.7 37.3 42.5 37.4 43.4 37.5 44.2 37.5 45 37.5 45.8 37.4 46.6 37.3 47.5 37.2 48.3 37 49.1 36.8 49.8 36.5 50.6 36.2 51.3 35.9 52 35.5 52.7 35.1 53.4 34.7 54.1 34.3 54.7 33.8 55.3 33.3 55.9 32.7 56.5 32.2 57 31.6 57.5 31 58 30.3 58.5 29.7 58.9 29 59.3 28.3 59.6 27.6 60 26.8 60.3 26.1 60.5 25.3 60.7 24.5 60.9 23.7 61.1 22.9 61.2 22.1 61.2 21.2 61.2 20.4 61.2 19.6 61.2 18.8 61.1 18 60.9 17.2 60.7 16.4 60.5 15.7 60.3 14.9 60 14.2 59.6 13.5 59.3 12.8 58.9 12.2 58.5 11.5 58 10.9 57.5 10.3 57 9.8 56.5 9.2 55.9 8.7 55.3 8.2 54.7 7.8 54.1 7.4 53.4 7 52.7 6.6 52 6.3 51.3 6 50.6 5.7 49.8 5.5 49.1 5.3 48.3 5.2 47.5 5.1 46.6 5 45.8 5 45 5 44.2 5.1 43.4 5.2 42.5 5.3 41.7 5.5 40.9 5.7 40.2 6 39.4 6.3 38.7 6.6 38 7 37.3 7.4 36.6 7.8 35.9 8.2 35.3 8.7 34.7 9.2 34.1 9.8 33.5 10.3 33 10.9 32.5 11.5 32 12.2 31.5 12.8 31.1 13.5 30.7 14.2 30.4 14.9 30 15.7 29.7 16.4 29.5 17.2 29.3 18 29.1 18.8 28.9 19.6 28.8 20.4 28.8 21.2 28.8"/>
      <polygon class="st4" points="21.2 28.8 22.1 28.8 22.9 28.8 23.7 28.9 24.5 29.1 25.3 29.3 26.1 29.5 26.8 29.7 27.6 30 28.3 30.4 29 30.7 29.7 31.1 30.3 31.5 31 32 31.6 32.5 32.2 33 32.7 33.5 33.3 34.1 33.8 34.7 34.3 35.3 34.7 35.9 35.1 36.6 35.5 37.3 35.9 38 36.2 38.7 36.5 39.4 36.8 40.2 37 40.9 37.2 41.7 37.3 42.5 37.4 43.4 37.5 44.2 37.5 45 37.5 45.8 37.4 46.6 37.3 47.5 37.2 48.3 37 49.1 36.8 49.8 36.5 50.6 36.2 51.3 35.9 52 35.5 52.7 35.1 53.4 34.7 54.1 34.3 54.7 33.8 55.3 33.3 55.9 32.7 56.5 32.2 57 31.6 57.5 31 58 30.3 58.5 29.7 58.9 29 59.3 28.3 59.6 27.6 60 26.8 60.3 26.1 60.5 25.3 60.7 24.5 60.9 23.7 61.1 22.9 61.2 22.1 61.2 21.2 61.2 20.4 61.2 19.6 61.2 18.8 61.1 18 60.9 17.2 60.7 16.4 60.5 15.7 60.3 14.9 60 14.2 59.6 13.5 59.3 12.8 58.9 12.2 58.5 11.5 58 10.9 57.5 10.3 57 9.8 56.5 9.2 55.9 8.7 55.3 8.2 54.7 7.8 54.1 7.4 53.4 7 52.7 6.6 52 6.3 51.3 6 50.6 5.7 49.8 5.5 49.1 5.3 48.3 5.2 47.5 5.1 46.6 5 45.8 5 45 5 44.2 5.1 43.4 5.2 42.5 5.3 41.7 5.5 40.9 5.7 40.2 6 39.4 6.3 38.7 6.6 38 7 37.3 7.4 36.6 7.8 35.9 8.2 35.3 8.7 34.7 9.2 34.1 9.8 33.5 10.3 33 10.9 32.5 11.5 32 12.2 31.5 12.8 31.1 13.5 30.7 14.2 30.4 14.9 30 15.7 29.7 16.4 29.5 17.2 29.3 18 29.1 18.8 28.9 19.6 28.8 20.4 28.8 21.2 28.8"/>
      <path class="st2" d="M33.5,44.5c.3,0,.5.2.5.5s-.2.5-.5.5-.5-.2-.5-.5.2-.5.5-.5Z"/>
      <path class="st4" d="M33.5,44.5c.3,0,.5.2.5.5s-.2.5-.5.5-.5-.2-.5-.5.2-.5.5-.5Z"/>
      <path class="st2" d="M9,44.5c.3,0,.5.2.5.5s-.2.5-.5.5-.5-.2-.5-.5.2-.5.5-.5Z"/>
      <path class="st4" d="M9,44.5c.3,0,.5.2.5.5s-.2.5-.5.5-.5-.2-.5-.5.2-.5.5-.5Z"/>
      <path class="st2" d="M34.1,46c0,0,.1,0,.1,0,0,0,0,0,0,.1,0,0,0,.1,0,.1,0,0,0,0-.2,0,0,0-.1,0-.1,0,0,0,0,0,0-.1,0,0,0,0,0-.1,0,0,0,0,.2,0M34,47.5l-1.7-.3v-.3c0-.2.2-.4.4-.5.2,0,.4-.1.7,0,.2,0,.3,0,.4.1.1,0,.2.1.3.3,0,0,0,.1,0,.2,0,0,0,.2,0,.3v.2ZM33.8,47.2h0c0-.1,0-.2,0-.3,0,0-.2-.1-.4-.2-.2,0-.3,0-.4,0-.1,0-.2.1-.2.2h0s1.1.2,1.1.2ZM33.8,48.4l-1.4-.3v.2c0,0-.4,0-.4,0l.2-.8h.3c0,0,0,.3,0,.3l1.4.3v.3ZM33.5,49.3l-1.6-.6v-.3c.1,0,1.4.5,1.4.5v-.3c.1,0,.4.1.4.1l-.2.6ZM32.9,50.7l-.7-.4h-1c0,0,.1-.4.1-.4h.3c0,0,.1,0,.2,0,0,0,.1,0,.2,0,0,0-.1,0-.1-.1,0,0,0,0-.1-.1l-.2-.2v-.3c.1,0,.8.7.8.7l.7.4v.3ZM32.2,52l-1.5-.9.2-.3,1,.2s0,0,.1,0c0,0,.1,0,.2,0-.1,0-.2,0-.3-.1-.1,0-.2,0-.3-.1l-.6-.3v-.2c.1,0,1.6.9,1.6.9v.3c-.1,0-1.2-.2-1.2-.2,0,0,0,0-.2,0,0,0,0,0-.1,0,0,0,.1,0,.2.1,0,0,.2,0,.3.1l.6.4v.2ZM31.4,53.1l-1.2-1.3.2-.3,1.6.7-.2.3h-.3c0-.1-.2.1-.2.1l.2.2-.2.3ZM31.2,52.4v-.2c0,0-.1-.1-.2-.2-.1,0-.2-.1-.4-.2.1,0,.2.2.3.3.1,0,.2.2.3.3ZM30.8,53.8l-1.3-1.1.2-.2c.1-.1.2-.2.3-.2.1,0,.2,0,.4.2.1.1.2.2.2.3,0,.1,0,.2-.1.3,0,0,0,0,0,0t0,0l.5.5-.2.2ZM30.3,52.9s0,0,0,0c0,0,0,0,0,0,0,0,0-.1,0-.2,0,0,0-.1-.1-.2,0,0-.1,0-.2,0s-.1,0-.1,0h0s0,0,0,0l.4.3ZM29.6,55l-1.1-1.3.3-.3.5.4c0,0,.1.1.2.2,0,0,.1.1.2.2,0-.1-.2-.2-.2-.3,0,0,0-.1-.1-.2l-.4-.5.3-.3,1.3,1.1-.2.2-.6-.6s0,0,0,0c-.2-.1-.3-.3-.4-.4l.8,1.1-.2.2-1.1-.9c0,0,.2.2.3.4,0,0,0,0,0,0l.5.6-.2.2ZM28.9,54.5c.2.2.2.4.2.6,0,.2,0,.3-.2.4-.1.1-.3.1-.5,0-.2,0-.3-.2-.5-.4-.2-.2-.2-.4-.3-.6,0-.2,0-.3.2-.4.1-.1.3-.1.5,0,.2,0,.3.2.5.4ZM28.7,55.2c0,0,0-.1,0-.2,0,0,0-.2-.2-.4-.1-.2-.2-.3-.3-.3,0,0-.2,0-.2,0,0,0,0,.1,0,.2,0,0,0,.2.2.4.1.1.2.2.3.3,0,0,.2,0,.2,0ZM28.2,55.9s0,0,0,0c0,0,0,0,0,0-.2.1-.4.1-.5,0-.2,0-.4-.2-.5-.4-.1-.2-.2-.4-.2-.7,0-.2.1-.4.3-.5,0,0,0,0,0,0,0,0,0,0,0,0l.2.3s0,0,0,0c0,0,0,0,0,0,0,0-.1.1-.1.3,0,.1,0,.3.1.4,0,.1.2.2.3.3.1,0,.2,0,.3,0,0,0,0,0,0,0,0,0,0,0,0,0l.2.3ZM26,57l-.6-1.6.6-.2v.3c.1,0-.2.1-.2.1v.3c.1,0,.4-.1.4-.1v.3c.1,0-.2.1-.2.1l.2.4h.3c0-.1.1.2.1.2l-.6.3ZM25.7,57.2s0,0,0,0c0,0,0,0,0,0-.2,0-.4,0-.5,0-.2-.1-.3-.3-.4-.5,0-.3-.1-.5,0-.7,0-.2.2-.3.4-.4,0,0,0,0,.1,0h.1v.3c0,0,0,0,0,0,0,0,0,0,0,0-.1,0-.2.1-.2.2,0,.1,0,.3,0,.4,0,.2.1.3.2.3,0,0,.2,0,.3,0,0,0,0,0,0,0,0,0,0,0,0,0v.3ZM23.6,57.7l-.4-1.7h.3c0,0,.5.8.5.8,0,0,0,0,0,.1,0,0,0,.1.1.2,0-.1,0-.2-.1-.3,0-.1,0-.2,0-.3v-.6c-.1,0,.1,0,.1,0l.4,1.7h-.3c0,0-.5-.8-.5-.8,0,0,0,0,0-.2,0,0,0,0,0-.1,0,0,0,.1,0,.2,0,0,0,.2,0,.3l.2.7h-.3ZM22.3,57.9l.2-1.7h.3s.6,1.6.6,1.6h-.3s0-.3,0-.3h-.3s0,.3,0,.3h-.3ZM22.6,57.3h.2c0-.1,0-.3-.1-.4,0-.1,0-.3,0-.4,0,.1,0,.3,0,.4v.4ZM21.3,58v-1.7c0,0,.3,0,.3,0,.2,0,.3,0,.4.1,0,0,.1.2.1.4,0,.1,0,.2,0,.3,0,0-.1.1-.2.2l.3.8h-.3s-.3-.7-.3-.7v.7s-.3,0-.3,0ZM21.5,57h0c0,0,.1,0,.2,0,0,0,0-.1,0-.2,0,0,0-.1,0-.2,0,0,0,0-.2,0h0v.5ZM21,56.2v1.1c-.1.1-.1.2-.1.3,0,0,0,.1,0,.1,0,0-.1.1-.2.2,0,0-.2,0-.3,0-.1,0-.2,0-.3,0,0,0-.1-.1-.1-.2,0,0,0,0,0-.1,0,0,0-.1,0-.3h0c0,0,0-1.1,0-1.1h.3s-.1,1.1-.1,1.1c0,.1,0,.2,0,.3,0,0,0,0,.1,0,0,0,.1,0,.1,0,0,0,0-.1,0-.3v-1.1c.1,0,.4,0,.4,0ZM18.9,57.7v-.4c0,0,.1,0,.2.1,0,0,0,0,.1,0,0,0,0,0,.1,0,0,0,0,0,0-.1,0,0,0-.1,0-.2,0,0,0,0,0,0,0-.1-.1-.2-.1-.3,0,0,0-.2,0-.3,0-.1,0-.3.2-.3,0,0,.2-.1.3,0,0,0,0,0,.1,0,0,0,0,0,.1,0v.3c-.1,0-.1,0-.2,0,0,0,0,0,0,0,0,0,0,0-.1,0,0,0,0,0,0,.1,0,0,0,0,0,.1,0,0,0,.1.1.2,0,.1.1.2.2.3,0,0,0,.1,0,.2,0,.2-.1.3-.2.3-.1,0-.2,0-.4,0,0,0-.1,0-.1,0,0,0,0,0-.1,0ZM17.9,57.5v-.4c.1,0,.1,0,.2.1,0,0,0,0,.1,0,0,0,.1,0,.1,0,0,0,0,0,0-.1,0,0,0-.1,0-.2,0,0,0,0,0,0,0-.1-.1-.2-.1-.3,0,0,0-.2,0-.3,0-.1.1-.2.2-.3.1,0,.2,0,.3,0,0,0,0,0,.1,0,0,0,0,0,.1.1v.3c-.1,0-.2,0-.2,0,0,0,0,0,0,0,0,0,0,0-.1,0,0,0,0,0,0,.1,0,0,0,0,0,.1,0,0,0,.1.1.2,0,.1.1.2.1.3,0,0,0,.2,0,.2,0,.2-.1.3-.2.3-.1,0-.2,0-.4,0,0,0-.1,0-.1,0,0,0,0,0-.1,0ZM16.7,57.1l.9-1.5h.3c0,.1-.3,1.8-.3,1.8h-.3c0-.1,0-.4,0-.4h-.3c0-.1-.2.2-.2.2h-.3ZM17.3,56.7h.2c0,0,0-.2,0-.3,0-.1,0-.3.1-.4,0,.1-.1.2-.2.3,0,.1-.1.2-.2.4ZM15.1,56.4l1.1-1.4h.3c0,.1-.5,1.8-.5,1.8h-.3c0-.1,0-.4,0-.4h-.3c0-.1-.2.1-.2.1h-.3ZM15.7,56.1h.2s0-.1.1-.3c0-.1,0-.3.1-.4,0,.1-.1.2-.2.3,0,.1-.2.2-.2.3ZM14.5,56.1l.9-1.5.3.2-.9,1.5-.3-.2ZM13.4,55.4l1-1.4.2.2c.2.1.3.3.3.5,0,.2,0,.4-.2.6-.1.1-.2.2-.3.3-.1,0-.2.1-.3.1,0,0-.1,0-.2,0,0,0-.2,0-.3-.2h-.2ZM13.9,55.3h0c0,0,.2,0,.3,0,.1,0,.2-.1.3-.3.1-.2.2-.3.2-.4,0-.1,0-.2-.1-.3h0s-.6.9-.6.9ZM12.3,54.5l1.1-1.3.2.2-.4.9s0,0,0,.1c0,0,0,.1-.1.2,0-.1.1-.2.2-.3,0,0,.1-.2.2-.2l.4-.5.2.2-1.1,1.3-.2-.2.4-1s0,0,0-.2c0,0,0,0,0-.1,0,0,0,.1-.1.2,0,0-.1.1-.2.2l-.5.5-.2-.2ZM11.8,53.9l1.3-1.2.2.2-1.3,1.2-.2-.2ZM11.6,51l.2.3-.6.5s-.1.1-.2.2c0,0-.1.1-.2.2l1.2-.6.2.2-.9.9c0,0,.1,0,.2-.1,0,0,.1,0,.2-.1l.7-.4.2.3-1.6.7-.2-.2.7-.7s0,0,.1-.1c0,0,.1,0,.2-.1,0,0-.1,0-.2.1,0,0-.1,0-.1,0l-.9.4-.2-.2,1.2-1.2ZM9.8,51.2l1.5-.8.3.6-.3.2-.2-.3-.3.2.2.3-.3.2-.2-.3-.4.2.2.3-.3.2-.3-.6ZM9.2,50l1.6-.7v.3c.1,0-.6.7-.6.7,0,0,0,0-.1,0,0,0-.1,0-.2.1.1,0,.2-.1.3-.2,0,0,.2,0,.3-.1l.6-.3v.3c.1,0-1.5.7-1.5.7v-.3c-.1,0,.6-.7.6-.7,0,0,0,0,.1-.1,0,0,0,0,0,0,0,0-.1,0-.2.1,0,0-.2,0-.3.1l-.7.3v-.3ZM8.6,48.4l1.7-.4.2.6h-.3c0,0,0-.3,0-.3h-.3c0,0,0,.4,0,.4h-.3c0,0,0-.2,0-.2h-.4c0,.1,0,.4,0,.4h-.3c0,0-.2-.5-.2-.5ZM8.3,47.1l1.7-.4v.3c0,0-.6.1-.6.1v.3c0,0,.7-.1.7-.1v.3c0,0-1.6.4-1.6.4v-.3c0,0,.7-.2.7-.2v-.3c0,0-.8.2-.8.2v-.3ZM8.2,46.2l1.4-.2v-.2s.3,0,.3,0v.8c.1,0-.2,0-.2,0v-.2s-1.4.2-1.4.2v-.3Z"/>
      <path class="st2" d="M10.9,40l-.2.4-.6-.2v.4c-.1,0,0,0,0,0,0,0,0,0,0,0,0,0,0,0,0,0,0,0-.1,0-.2.1-.1,0-.2,0-.3,0,0,0,0,0,0-.1l.3-.7h-.3c0-.1-.3.6-.3.6h-.2c0,0,.5-1.4.5-1.4h.2c0,0-.1.4-.1.4l.9.4s0,0,.1,0c0,0,0,0,0,0,0,0,0,0,0,0h.1ZM10.7,38.9l-.5-.3-.2.3s0,0,0,0c0,0,.1,0,.2,0,.1,0,.2.1.2.3,0,0,0,0,0,.2h0c0,0,.1,0,.1,0,0,0,0-.1,0-.2,0-.1,0-.2,0-.2ZM11.6,38.8l-.2.4-.3-.2s0,0,0,.1c0,0,0,.1,0,.2-.1.2-.3.3-.5.2-.2,0-.3,0-.3,0,0,0,0-.1,0-.2,0-.1,0-.2-.1-.3,0,0,0,0-.1,0,0,0,0,0,0,0l-.2.3h-.2c0,0,.3-.8.3-.8l.4-.7h.2c0,.1-.2.4-.2.4l.8.5s0,0,.1,0c0,0,0,0,0,0,0,0,0,0,0,0h.1ZM12.4,38.7h0c0,.1-.1.1-.3.2-.2,0-.4.2-.5.3,0,0,0,.1,0,.2s0,.1,0,.1c0,0,0,0,.1,0,0,0,0,0,0-.2,0,0,0-.1,0-.1h.2c0,0,0,.1,0,.2,0,0,0,0,0,.1,0,0-.1.1-.3.2-.1,0-.2,0-.3,0,0,0-.1-.1-.1-.2,0,0,0-.2,0-.3,0-.1.2-.2.4-.3.1,0,.3-.1.5-.2.1,0,.2,0,.2,0ZM14.4,34.9l-.3-.4-.3.2s0,0,0,0c0,0,.1.1.2.2,0,.1,0,.2,0,.3,0,0,0,0,0,.1,0,0,0,0,0,0,0,0,.1,0,.2,0,0,0,.1-.1.1-.2,0-.1,0-.2,0-.2ZM15.8,34.9l-.4.2-.6-1.1c-.2.1-.3.1-.4.2l.6.8s0,0,0,0c0,0,0,0,0,0,0,0,0,0,0,0h0c0,.1-.4.4-.4.4l-.2-.3s0,0,0,0c0,0,0,.1-.1.1-.2.1-.3.1-.5,0-.1,0-.2-.1-.2-.2,0,0,0-.1.1-.1,0-.1,0-.2,0-.3,0,0,0,0,0,0,0,0,0,0,0,0-.2.1-.3.2-.5.4l.3.3-.3.3s0,0,0,.1c0,0,0,0,0,0,0,0,0,0,0,0,0,0,0,0,0,0,0,0,0,0,0-.1,0,0,.2,0,.3,0,.1,0,.2,0,.2.1,0,0,.1.2,0,.3,0,.1,0,.2-.1.2-.1.1-.3.1-.5.1-.2,0-.3,0-.3,0h0c0,0,.2,0,.3,0,.1,0,.2,0,.3-.1,0,0,.1-.1.1-.2,0,0,0-.1,0-.2,0,0,0,0,0,0,0,0,0,0,0,0,0,0,0,0,0,0,0,0,0,0,0,0,0,0-.2,0-.2,0,0,0-.1,0-.2,0h0c0,0-.3.3-.3.3h.1c0,.2,0,.2,0,.2,0,0,0,0,0,0,0,0-.1,0-.3,0-.2,0-.3,0-.3-.1,0,0,0,0,0-.1l.5-.5s0,0,0,0c0,0,0,0,0,0,0,0,0,0,0,0l.3-.2v-.2c-.5.3-.7.6-1.1.9l-.2.2.7.7s0,0,.1,0c0,0,0,0,0,0,0,0,0,0,0,0h.1c0,.1-.3.4-.3.4l-.9-.9c-.1.1-.2.2-.3.4l.3.2-.3.4s0,0,0,0c0,0,0,0,0,0,0,0,0,0,0,0,0,0,0,0,0,0,0,0,0,0,0,0,0,0,0-.1,0-.2,0,0,.1-.1.2-.1.1,0,.2,0,.3,0,0,0,.1.1.1.2,0,.1,0,.2,0,.3h.4s0,.1,0,.1h-.4s0,0,0,.1c0,0-.1.1-.2.1,0,0-.1,0-.1,0,0,0,0,0,0-.1,0,0,0,0,0-.1,0,0,.1-.1.2-.1h0c0,0,0-.1,0-.2,0-.1,0-.2,0-.2,0,0,0,0,0,0,0,0,0,0,0,0,0,0,0,0-.1.2,0,0,0,.1,0,.1,0,0-.1,0-.2,0-.2,0-.3,0-.4-.1,0,0,0,0,0,0s0,0,0-.1l.2-.3h-.1c0-.1-.4.3-.4.3h-.2c0-.1.7-1,.7-1l.2-.2s0,0-.1,0c0,0-.2,0-.2-.1,0,0,0,0,0,0,0,0-.1-.1-.1-.2s0-.2.1-.3c.1-.1.3-.2.5-.3.1,0,.3,0,.5,0,0,0,.1,0,.2,0h0c0,0-.2,0-.4.2-.2,0-.3.1-.4.2,0,0-.1.2-.1.2,0,0,0,.1,0,.2,0,0,0,0,.1,0,0,0,0,0,0,0l.3-.3h0c.7-.7,1.4-1.3,2.1-1.8.3-.2.7-.4,1.1-.6v.2c.1,0-.1.2-.1.2l.5.8s0,0,0,0c0,0,0,0,0,0,0,0,0,0,0,0,0,0,0,0,0,0h0ZM18.2,33.2v-.5c-.1,0-.5.1-.5.1,0,0,0,0,0,0,0,0,0,.1.1.2,0,.1,0,.2,0,.3,0,0,0,0-.1,0,0,0,0,0,0,0,0,0,.1,0,.2,0,0,0,.1,0,.2-.1,0-.1.1-.2.1-.2ZM19.3,32.6c0-.2-.1-.2-.2-.2,0,0-.1,0-.1,0,0,0,0,0,0,.1,0,0,0,.1.2.2.1,0,.2,0,.2,0,0,0,0,0,0-.1,0,0,0,0,0-.1ZM19.5,32.8c0,.1,0,.2,0,.4,0,0,0,.2-.2.3l.3.2h-.1c0,.1-.3-.2-.3-.2,0,0,0,0,0,0,0,0-.2,0-.2,0,0,0-.1,0-.1-.2,0,0,0,0,0-.1,0,0,0,0,.1,0,0,0,0,0,.1,0,0,0,0,0,0,0,0,0,0,0,0,0,0,0,0,0,0,0,0,0,0,0,0-.2,0,0-.1,0-.3,0-.2,0-.3-.2-.3-.3,0,0,0-.2,0-.2,0,0,.1-.1.2-.1.1,0,.3,0,.4.1.1.1.2.2.2.4ZM20.6,32.8v-.5s-.4,0-.4,0c0,0,0,0,0,0,0,0,0,.1,0,.2,0,.1,0,.2-.1.3,0,0,0,0-.1,0,0,0,0,0,0,0,0,0,.1,0,.2,0,0,0,.2,0,.2,0,.1,0,.2-.1.2-.2ZM25,33.2v-.4s-.2,0-.3-.1h0c0,.1,0,.2,0,.2,0,0,0,0,0,.1,0,0,0,0,0,0,0,0,0,0,0,0,0,0,0,0,0,0,0,0,.1,0,.2,0,0,0,0,0,.1,0ZM25.2,34.2c-.2,0-.3,0-.4-.1l.2-.6s0,0,0,0c0,0,0,0-.1,0,0,0,0,0-.1,0,0,0,0,0,0-.1,0,0,0,0,0,0,0,0,0,0,0,0,0,0,0,0,0,0,0,0,0,0-.1,0,0,0,0,0,0,0,0,0,0,0,0,0,0,0,0,.1,0,.2,0,0,0,0,.1.2,0,0,0,0,0,.1,0,0-.1,0-.2,0,0,0-.1-.2-.3-.6,0-.2-.1-.3,0-.4,0,0,0,0,0,0,0,0,0,0,0,0,0,0,.1,0,.2,0,0-.1,0-.2,0-.4-.2,0-.4-.1-.6-.1,0,.3-.1.6-.2,1,0,0,0,0,0,0,0,0,0,0,0,0,0,0,0,0,0,0,0,0,0,.1,0,.1-.1,0-.3,0-.5,0,0-.2,0-.4.1-.6-.1,0-.3,0-.4,0,0,0,0,.1,0,.2,0,0,0,0,0,0,0,0,0,0,0,0,0,0-.1,0-.2-.2,0-.1-.1-.2,0-.3,0,0,0,0,0,0,.2,0,.5,0,.7.1,0-.1,0-.2,0-.3-.4,0-.7-.1-1.1-.2,0,0,0,.2,0,.4,0,.1,0,.2-.1.3,0,0-.1,0-.1,0,0,0,0,0,0,0,0,0,0,.1.1.1,0,0,0,.1.1.2,0,0,0,0,0,.1,0,0,0,0-.1,0,0,0-.2-.2-.4-.5-.1-.2-.2-.3-.2-.4,0,0,0,0,0,0,0,0,.1,0,.2,0,0-.1,0-.3,0-.4-.2,0-.3,0-.5,0,0,.3,0,.6,0,1h0c0,0,0,0,0,0,0,0,0,0,0,0,0,0,0,0,0,0,0,0,0,.1,0,.1-.2,0-.3,0-.5,0,0-.4,0-.8,0-1.2-.2,0-.3,0-.5,0v1c0,0,0,0,.1,0,0,0,0,0,0,0h0s0,.1,0,.1h-.5s0-.3,0-.3c0,0,0,0,0,0,0,0-.1,0-.2,0-.2,0-.4,0-.5-.2,0-.1-.1-.2-.1-.3,0,0,.1,0,.2,0,.1,0,.2-.1.2-.2,0,0,0,0,0,0,0,0,0,0,0,0h-.3s0-.2,0-.2c.6,0,1.1-.1,1.7,0l-.2-.3s0,0,0,0c0,0,0,0,0,0,0,0-.1,0-.2,0,0,0-.1,0-.1,0v-.3c-.1,0,.2,0,.2,0,0,0,.1,0,.2.1,0,0,.2.2.3.4,0,0,0,.1.1.2.6,0,1.2,0,1.8.2.8.1,1.6.4,2.4.6v.2c0,0-.4,0-.4,0l-.3.9s0,0,0,.1c0,0,0,0,0,0,0,0,0,0,0,0h0ZM28.1,33.5h-.3c0,0,0-.2,0-.2h.3c0,0,0,.2,0,.2ZM28.2,35l.3-.4-.3-.2-.4.5s0,0,.1,0c0,0,0,0,0,0,0,0,0,0,.1,0s0,0,.1,0ZM32.6,40.6l.4-.2v-.4c-.1,0-.6.2-.6.2v.4ZM15.8,33.2v.2c0,0,.2,0,.2,0l.3.7c0,0,.2,0,.3,0,.1,0,.3,0,.5,0,.2,0,.3,0,.3,0,0,0,0,0,0,.1,0,0,0,0,0,0h.3c0,0,0,0,0,0,0,0,0-.1,0-.2,0,0,0,0,0,0,0,0,0,0-.1,0l-.8-.2-.3-.7.4-.2.2.5s0,0,0,0c0,0,0,0,0,0,0,0,0,0,0,0h.3c0,0,0,0,0,0,0,0,0,0,0-.1,0,0,0,0,0,0s0,0,0-.1l-.2-.5c.2,0,.2,0,.5-.2,0,0,0,0,0,0,0,0,0,0,0,0,0,.1,0,.2-.1.3,0,0,0,0-.1,0,0,0,0,.2.2.3.1.2.3.2.5.2,0,0,.1,0,.2,0,0,0,0,0,0,0v.3c0,0,.5-.1.5-.1h0c0-.1,0-.1,0-.1,0,0,0,0-.1,0,0,0,0,0,0,0l-.3-.9h.3c0,0,0-.3,0-.3-.5.1-1,.3-1.4.4-.4.1-.8.3-1.3.5ZM30.4,35.9c0-.1,0-.2,0-.2,0-.2,0-.3,0-.4,0,0-.1,0-.2,0,0,0,0,0-.1,0,0,0,0,0,0,.1h0c0,0,0,0,0,0h0c0-.2,0-.3.1-.4,0,0,.2-.1.2,0,0,0,.2,0,.3.1.1.1.1.3,0,.6,0,0,0,.2-.1.4l.3.3-.2.2-.2-.2-.7.7s0,0,0,.1c0,0,0,0,0,0,0,0,0,0,0,0h-.1c0,.1-.3-.2-.3-.2l.9-.9c-.2-.2-.1-.1-.4-.3l-.6.7s0,0,0,.1c0,0,0,0,0,0,0,0,0,0,0,0h0c0,.1-.4-.2-.4-.2l.4-.5-.3-.2v.2c-.1,0-.2,0-.2,0,0,0,0,0,0,0,0,0,0-.1,0-.3,0-.1,0-.3,0-.3,0,0,0,0,.1,0l.5.5.2-.3c-.3-.2-.5-.5-.8-.7l-.6.8s0,0,0,.1c0,0,0,0,0,0,0,0,0,0,0,0h0c0,.1-.4-.1-.4-.1l.3-.4s0,0,0,0c0,0-.1,0-.1,0,0,0-.1-.1-.1-.3,0-.1,0-.2,0-.2l.3-.4h0c0,0-.7-.4-.7-.4v.3c-.1,0,0,0,0,0,0,0,0,0,.1,0,0,0,.2.1.2.2,0,.1,0,.2,0,.4,0,.1-.1.2-.2.2,0,0,0,0-.1,0l-.2-.3s0,0,.2,0c.1,0,.2,0,.2-.1,0,0,0-.1-.1-.2,0,0-.1,0-.2,0,0,0,0,0,0,0v.3c-.2,0-.2,0-.1.1,0,0,0,0,0,0,0,0,0,0,0,0h0c0,.1-.4,0-.4,0l.2-.3s0,0-.1,0c0,0-.1,0-.1,0,0,0-.2-.1-.2-.3s0-.2,0-.3c0,0,.1-.1.2-.1.2,0,.3,0,.3,0v.3s0,0,0,0c0,0-.2,0-.2,0-.1,0-.2,0-.2,0,0,0,0,0,0,0,0,0,0,0,0,0h0c0,0,.2,0,.3,0,0,0,0,0,.1,0l.2-.5-.7-.3v-.2c.7.3,1.2.5,1.6.7.2,0,.3.2.5.3.4.3.8.6,1.2.9.3.3.6.6.9.8ZM31.4,37.1s0,0,0,0c0,0,0-.1,0-.1,0,0,.1,0,.2,0,0,0,.1,0,.2.2,0,.1.2.3.2.4,0,.2,0,.4,0,.4h.1c0,0,0-.1,0-.2,0-.2,0-.3,0-.5,0-.2-.1-.4-.2-.5,0,0-.2-.1-.2-.2,0,0-.2,0-.2,0,0,0,0,0,0,0,0,0-.1.1-.1.2,0,0,0,0,0,.1l-.2-.2h-.2c0,.1.1.3.1.3l-1,.8.3.4h.1c0-.1,0-.1,0-.1,0,0,0,0,0,0,0,0,0,0,0,0l.8-.6c.3.3.4.6.8,1.1l-.4.2v-.2s0,0,0,0c0,0,0,0,0,0,0,0,0,0,0,0,0,0,0,0,0,0,0,0,0,0,0-.1,0,0,0-.1,0-.2,0,0-.1-.1-.2-.1,0,0-.1,0-.2,0-.1,0-.2.2-.3.4,0,.2-.1.3,0,.3h.1s0,0,0-.2c0-.2.1-.3.2-.3,0,0,.1,0,.2,0,0,0,0,0,0,0,0,0,0,0,0,0,0,0,0,0,0,0h-.2c0,.1,0,.4,0,.4l.2-.2s0,0,.1,0c0,0,0,0,0,0,0,0,0,0,0,0,0,0,0,0,0,0l-.6.4.3.4h.1c0-.1,0-.1,0-.1,0,0,0,0,0,0s0,0,0,0c0,0,0,0,0,0l.8-.5v.3c.1,0,.2.2.2.2l-1.1.6.2.4h.1c0,0,0,0,0-.1,0,0,0,0,0,0,0,0,0,0,0,0l.9-.4v.3c.1,0,.2.2.2.2l-.4.2h0c0-.1,0-.1,0-.1,0,0-.1.1-.1.2,0,.1,0,.2,0,.3,0,0,0,0,0,0h.1c0,0,.1.3.1.3l-.5.2.2.4h.1c0,0,0,0,0-.1,0,0,0,0,0,0,0,0,0,0,0,0,0,0,0,0,0,0l.9-.4v.3h.1l.2.6h-.2c0,0,0-.2,0-.2,0,0,0-.1-.1-.2,0,0-.1,0-.2,0-.2,0-.3.1-.4.3-.1.1-.1.3,0,.4,0,0,0,.2.1.2,0,0,0,.1.1.2l.2-.2s0,0-.1,0c0,0-.1-.2-.1-.3,0,0,0-.1,0-.2,0,0,.1-.1.2-.1,0,0,.1,0,.1,0,0,0,0,0,0,.1v.4c.1,0,.6-.1.6-.1,0,.3.1.6.2,1h-.2s0-.3,0-.3c0,0,0,0,0,0,0,0,0,0,0,0-.1,0-.2.1-.3.2,0,0,0,.1-.1.2,0,0,0,0,0,0,0,0,0,0,0,.1,0,0,0,0,0,.1,0,0,0,0,0,0,0,0,0,0-.1,0,0,0,0-.1,0-.2,0-.1,0-.2,0-.3,0-.1,0-.2.2-.2h-.1c0,0-.1,0-.2.1-.1.2-.1.3-.1.5,0,0,0,.2.1.2,0,0,.2.1.3,0,0,0,.2,0,.2-.2,0,0,0-.2,0-.3,0,0,0,0,0-.1,0,0,0,0,0,0,0,0,0,0,0,0,0,0,0,0,0,0,0,0,0,0,0,0v.4c0,0,.5,0,.5,0v.3c0,0,.3,0,.3,0-.1-.5-.2-1.1-.3-1.6,0,0,.1-.1.2-.2.1-.1.2-.2.3-.3,0,0,0-.2,0-.2v-.3c0,0-.3.2-.3.2,0,0,0,0,0,.1,0,0,0,.1,0,.2,0,0,0,0,0,.1,0,0,0,0,0,0l-.3.3c-.2-.7-.3-1-.6-1.7-.1-.2-.2-.5-.3-.7,0,0,0,0,0,0,0,0,0,0,0-.1,0,0,.1,0,.2,0,0,0,.1.1.2.2,0,.1.1.3,0,.5,0,.2,0,.4,0,.4h.1s0-.1,0-.2c0-.2,0-.3,0-.5,0-.2,0-.4-.1-.5,0-.1-.1-.2-.2-.2,0,0-.2,0-.2,0,0,0,0,0,0,0,0,0-.1,0-.2.2,0,0,0,0,0,.1l-.2-.4c-.4-.6-.7-1.1-1-1.5ZM8.6,41.6h0c0,.1-.2.2-.3.4-.1.1-.2.3-.2.4,0,.1,0,.2,0,.3,0,0,0,.1.2.1,0,0,0,0,.1,0,0,0,0,0,0,0v-.3c0,0,0,0,0,0l.3-1.1h.2c0,0,0,.3,0,.3h.4c0,.1-.1.5-.1.5,0,0,0,.1,0,.1,0,0,0,0,.1,0,0,0,.1,0,.2,0,0,0,.1,0,.1-.2,0,0,0,0,0,0h0q0,0,0,0s0,0,0,0c0,0,0,0,0,0,0,0,0,0,0-.1,0,0,0,0,0-.1,0,0,0,0,.1,0,0,0,.1,0,.1,0,0,0,0,0,0,0h.3c0-.1,0,0,0,0h-.2c0,0,0,0,0,.1s0,0,0,0c0,.1-.1.2-.3.3-.2,0-.3.1-.4,0,0,0-.1,0-.2-.1,0,0,0-.1,0-.2v-.3c0,0-.1,0-.1,0v.5c-.1,0-.1,0-.1,0v.3c0,0,.9.2.9.2,0,0,0,0,.1,0,0,0,0,0,0,0,0,0,0,0,0,0h.1s0,.5,0,.5l-1.2-.2v.2s-.3,0-.3,0v-.3s0,0,0,0c0,0-.2,0-.2,0,0,0,0,0,0,0,0,0-.2,0-.2-.1,0,0,0-.2,0-.3,0-.2.1-.3.2-.5,0-.1.2-.2.3-.3,0,0,.1,0,.2-.1Z"/>
      <path class="st2" d="M21.2,36.7c4.6,0,8.4,3.8,8.4,8.3s-3.8,8.3-8.4,8.3-8.3-3.8-8.3-8.3,3.7-8.3,8.3-8.3M28.3,42.4s0,0-.1,0c0,0,0-.1-.1-.2-.2,0-.3,0-.3,0,0-.1,0-.2,0-.3,0,0-.1,0-.3,0,0,0,.1-.1.1-.1-.2,0-.3.2-.3.2-.3,0-.2-.2-.3-.2-.2,0-.3.2-.4.2-.2.1-.1.3-.2.4,0,0,0,.1,0,.1,0,0-.1,0-.2,0,0,0,0,0-.1,0v.2s0,0,.1,0h0c-.1.1-.2,0-.3,0-.2.1-.2.1-.2.1,0,0,0,0-.2,0s-.1,0-.2,0-.1,0-.2,0c-.1-.1-.2-.1-.3-.1-.1,0-.1-.4-.2-.4,0,0-.2,0-.3.1v.2c0,.1.1.3.1.3-.2.1-.3.1-.3.1-.1,0-.2-.1-.4-.1s-.2,0-.4,0-.3,0-.3,0c0,0-.2-.3-.3-.4-.1,0-.2,0-.4,0s0,0-.1,0c-.1,0-.2-.1-.3-.2-.1,0-.2,0-.3,0-.2,0-.4,0-.5-.1-.1,0-.2,0-.2-.1s.1-.2.1-.3c0-.1,0-.2,0-.3,0,0,0-.1,0-.3,0,0,0,0-.1,0,0,0-.2,0-.3,0-.1,0-.2-.1-.2-.2,0,0-.1,0-.2,0,0,0,0,0,0-.2,0,0-.1,0-.2,0,0,0,0-.1,0-.1,0,0,0,0,0-.1,0,0,.1,0,.1,0,0,0,0,.1.1.1,0,0,0,0,0-.1s.1,0,.1-.1h-.2c0,0-.1,0-.1-.2s.2,0,.2-.1c0,0-.1,0-.1-.1,0,0,.2,0,.2-.1,0,0,.2,0,.3-.4,0,0,.2-.2.2-.3,0-.1-.2-.1-.2-.1,0,0,0,0-.1,0-.1,0-.2,0-.2-.1,0,0-.2.1-.2.1-.3,0-.4.3-.4.3,0,0,0,0,0-.3,0,0-.3,0-.3,0v-.2s-.9-.3-1.1-.4c0,0,0,.2-.4.3-.1,0-.2,0-.2,0v.3c0,0,.2,0,.3,0,0,0,0,.2.1.2,0,0,.2,0,.2,0,0,.3-.2.3-.2.3,0,.1-.1.1-.1.2s0,0,.1.2c0,0,0,.4.2.4.1,0,.2-.1.2-.1,0,0,0,.2,0,.2h0c-.2.2-.2.3-.2.5-.1,0-.2.1-.2.2s.1.2.1.2h-.2c0,.1.2.1.2.2s-.2.3-1.2.6c-.1,0-.1.1-.2.1,0,0-.1-.2-.2-.2s0,.1-.2.1c0,0-.4.2-.4.4.4,0,.4,0,.4,0,0,0-.1.2-.1.3s.1,0,.2.1c0,0,0,0,0,.1.1.1.2.2.2.2s-.2,0-.3.1c0,0-.1,0-.3,0-.2,0-.4,0-.4,0,0,0,0,0-.1,0,0,0,0,0-.1,0,0,0,0,0-.1.1h0c0,.1,0,.2,0,.2,0,0,.2,0,.3-.1l-.2.2c0,0,.3.3.6.3s.3,0,.4,0c-.2.2-.4.3-.6.3,0,0,0,0,0,0h-.1c0,.1.4.7.9.7s.6-.5.6-.5c0,0,.4,2.3.5,2.7.1.7.5,1.2.6,1.3.1.2,0,.4.3.7.2.4.3.5.4.6,0,.1.1.2.1.2,0,.4,0,1.2.5,1.2s.3-.5.5-.5c0,0,0,0,.2-.1,0,0,0-.3.2-.5,0,0,0-.2,0-.2h.2c0-.2,0-.3,0-.4,0-.4.2-.4.2-1,0,0-.1-.2-.1-.4,0,0,0-.1,0-.2,0-.1,0-.3.2-.4.2,0,.2,0,.3,0h.1c0,0,0-.1,0-.2s0,0,.1-.2c.5,0,.6-.2.6-.2,0,0,0,0,0,0,.3-.2.5-.4.6-.7.2-.3.1-.2.5-.4,0,0,0,0,0-.1.1,0,0,0,.1,0,.2,0,.4,0,.4-.2,0,0,.2-.2.2-.3-.1-.1-.1-.2-.1-.2.3,0,.3-.5.3-.5,0,0,0,.1,0,.2h0c0,0,0,0,.1,0s0,0,0,0,0,0,0,0c0,0,0,.1.1.1,0-.1,0-.2,0-.2,0,0,0-.1,0-.1h0c0-.2-.1-.2-.1-.2,0-.2.1-.6.1-.6,0,0,0,0,0,0,0,0,0,0,0,0-.1,0-.2,0-.2,0,0,0,0-.1,0-.1,0,0,0,0,.2,0,0,0,0-.1,0-.2,0,0,.2,0,.2,0,0,0,0-.1,0-.2,0,0-.1,0-.2,0,0,0-.1-.1-.1-.2,0-.1.1-.2.2-.2,0,0,0,0,.1,0s0,0,.1,0c0,0,.1.2.2.2,0,0,0,0,0,0,0,0,0,.2.1.2,0,0,.1,0,.1,0,0,0,0,0,0,.2,0,0,0,0,0,0,0,0,0,0,.2,0,.2,0,.4,0,.9,0,0,0,0,0,0,.1s0,0,0,0c0,0-.3,0-.4.1-.2,0-.2.2-.2.2,0,0,0,0,.1,0,0,0,0,.1,0,.1,0,0,0,.1,0,.1.1-.2.1-.3.2-.4h.1s0,0,0,.1v.2c0,0,0,.1,0,.2v.3s0,0,0,0c0,0,0,0,.1,0,0,0,0-.1,0-.2s0-.1,0-.2.1,0,.2,0c0,0,0-.1,0-.1,0,0-.1,0-.1-.1,0,0,0,0,.1,0,0,0,.2,0,.2,0s0,0,0,0c0-.2,0-.3.2-.5,0,0,0,0,0-.2s0,0,0-.1c0-.1,0-.3.1-.4,0,0,.2,0,.2-.1,0,0,0-.2.1-.2,0,0,.1,0,.1,0,.1,0,.3.1.4.1,0-.1,0-.3-.1-.4,0,0,.1-.1.1-.2Z"/>
      <path class="st2" d="M21.2,36c1.2,0,2.4.3,3.5.7,1.1.5,2,1.1,2.9,1.9.8.8,1.5,1.8,1.9,2.8.5,1.1.7,2.3.7,3.5s-.3,2.4-.7,3.5c-.4,1.1-1.1,2-1.9,2.9-.8.8-1.8,1.5-2.9,1.9-1.1.5-2.2.7-3.5.7s-2.4-.3-3.5-.7c-1.1-.5-2-1.1-2.8-1.9-.8-.8-1.5-1.8-1.9-2.9-.5-1.1-.7-2.2-.7-3.5s.3-2.4.7-3.5c.5-1.1,1.1-2,1.9-2.8.8-.8,1.8-1.5,2.8-1.9,1.1-.5,2.2-.7,3.5-.7M21.2,35.7c1.3,0,2.5.3,3.6.7,1.1.5,2.1,1.2,3,2,.8.8,1.5,1.8,2,3,.5,1.1.7,2.3.7,3.6s-.3,2.5-.7,3.6c-.5,1.1-1.2,2.1-2,3-.8.8-1.8,1.5-3,2-1.1.5-2.3.7-3.6.7s-2.5-.3-3.6-.7c-1.1-.5-2.1-1.2-3-2-.8-.8-1.5-1.8-2-3-.5-1.1-.7-2.3-.7-3.6s.3-2.5.7-3.6c.5-1.1,1.2-2.1,2-3,.8-.8,1.9-1.5,3-2,1.1-.5,2.3-.7,3.6-.7Z"/>
      <path class="st2" d="M21.2,34.8c5.6,0,10.2,4.6,10.2,10.2s-4.6,10.2-10.2,10.2-10.2-4.6-10.2-10.2,4.6-10.2,10.2-10.2M21.2,35.2c5.4,0,9.8,4.4,9.8,9.8s-4.4,9.8-9.8,9.8-9.8-4.4-9.8-9.8,4.4-9.8,9.8-9.8Z"/>
      <path class="st2" d="M21.2,30.4h.7s.7,0,.7,0h.7c0,0,.7.2.7.2l.7.2.7.2.7.2.7.3.6.3.6.3.6.4.6.4.6.4.6.4.5.5.5.5.5.5.5.5.4.5.4.6.4.6.4.6.3.6.3.6.3.7.2.7.2.7.2.7v.7c.1,0,.2.7.2.7v.7c0,0,0,.7,0,.7v.7s0,.7,0,.7v.7c-.1,0-.2.7-.2.7l-.2.7-.2.7-.2.7-.3.7-.3.6-.3.6-.4.6-.4.6-.4.6-.4.5-.5.5-.5.5-.5.5-.5.5-.6.4-.6.4-.6.4-.6.4-.6.3-.6.3-.7.3-.7.2-.7.2-.7.2h-.7c0,.1-.7.2-.7.2h-.7c0,0-.7,0-.7,0h-.7s-.7,0-.7,0h-.7c0,0-.7-.2-.7-.2l-.7-.2-.7-.2-.7-.2-.7-.3-.6-.3-.6-.3-.6-.4-.6-.4-.6-.4-.5-.4-.5-.5-.5-.5-.5-.5-.5-.5-.4-.5-.4-.6-.4-.6-.3-.6-.3-.6-.3-.6-.3-.7-.2-.7-.2-.7-.2-.7v-.7c-.1,0-.2-.7-.2-.7v-.7c0,0,0-.7,0-.7v-.7s0-.7,0-.7v-.7c.1,0,.2-.7.2-.7l.2-.7.2-.7.2-.7.3-.7.3-.6.3-.6.3-.6.4-.6.4-.6.4-.5.5-.5.5-.5.5-.5.5-.5.5-.4.6-.4.6-.4.6-.4.6-.3.6-.3.7-.3.7-.2.7-.2.7-.2h.7c0-.1.7-.2.7-.2h.7c0,0,.7,0,.7,0ZM21.2,30.8h.7s.7,0,.7,0h.7c0,0,.7.2.7.2l.7.2.7.2.7.2.6.3.6.3.6.3.6.3.6.4.6.4.5.4.5.4.5.5.5.5.4.5.4.5.4.6.4.6.3.6.3.6.3.6.3.6.2.7.2.7.2.7v.7c.1,0,.2.7.2.7v.7c0,0,0,.7,0,.7v.7s0,.7,0,.7v.7c0,0-.2.7-.2.7l-.2.7-.2.7-.2.7-.3.6-.3.6-.3.6-.3.6-.4.6-.4.6-.4.5-.4.5-.5.5-.5.5-.5.4-.5.4-.6.4-.6.4-.6.3-.6.3-.6.3-.6.3-.7.2-.7.2-.7.2h-.7c0,.1-.7.2-.7.2h-.7c0,0-.7,0-.7,0h-.7s-.7,0-.7,0h-.7c0,0-.7-.2-.7-.2l-.7-.2-.7-.2-.7-.2-.6-.3-.6-.3-.6-.3-.6-.3-.6-.4-.6-.4-.5-.4-.5-.4-.5-.5-.5-.5-.4-.5-.4-.5-.4-.6-.4-.6-.3-.6-.3-.6-.3-.6-.2-.6-.2-.7-.2-.7-.2-.7v-.7c-.1,0-.2-.7-.2-.7v-.7c0,0,0-.7,0-.7v-.7s0-.7,0-.7v-.7c0,0,.2-.7.2-.7l.2-.7.2-.7.2-.7.2-.6.3-.6.3-.6.3-.6.4-.6.4-.6.4-.5.4-.5.5-.5.5-.5.5-.4.5-.4.6-.4.6-.4.6-.3.6-.3.6-.3.6-.3.7-.2.7-.2.7-.2h.7c0-.1.7-.2.7-.2h.7c0,0,.7,0,.7,0Z"/>
      <path class="st2" d="M21.2,30.1h.8s.8,0,.8,0h.8c0,.1.7.2.7.2l.7.2.7.2.7.2.7.3.7.3.6.3.6.4.6.4.6.4.6.4.5.5.5.5.5.5.5.5.4.6.4.6.4.6.4.6.3.6.3.7.3.7.2.7.2.7.2.7v.7c.1,0,.2.7.2.7v.8c0,0,0,.8,0,.8v.8s0,.8,0,.8v.7c0,0-.2.7-.2.7l-.2.7-.2.7-.2.7-.3.7-.3.7-.3.6-.4.6-.4.6-.4.6-.4.6-.5.5-.5.5-.5.5-.5.5-.6.4-.6.4-.6.4-.6.4-.6.3-.7.3-.7.3-.7.2-.7.2-.7.2h-.7c0,.1-.8.2-.8.2h-.8c0,0-.8,0-.8,0h-.8s-.8,0-.8,0h-.7c0,0-.7-.2-.7-.2l-.7-.2-.7-.2-.7-.2-.7-.3-.7-.3-.6-.3-.6-.4-.6-.4-.6-.4-.6-.4-.5-.5-.5-.5-.5-.5-.5-.5-.4-.6-.4-.6-.4-.6-.4-.6-.3-.6-.3-.7-.3-.7-.2-.7-.2-.7-.2-.7v-.7c-.1,0-.2-.7-.2-.7v-.8c0,0,0-.8,0-.8v-.8s0-.8,0-.8v-.7c.1,0,.2-.7.2-.7l.2-.7.2-.7.2-.7.3-.7.3-.7.3-.6.4-.6.4-.6.4-.6.4-.6.5-.5.5-.5.5-.5.5-.5.6-.4.6-.4.6-.4.6-.4.6-.3.7-.3.7-.3.7-.2.7-.2.7-.2h.7c0-.1.7-.2.7-.2h.8c0,0,.8,0,.8,0ZM21.2,29.7h.8s.8,0,.8,0h.8c0,.1.8.2.8.2l.7.2.7.2.7.2.7.3.7.3.7.3.6.4.6.4.6.4.6.5.6.5.5.5.5.5.5.5.5.6.4.6.4.6.4.6.3.7.3.7.3.7.2.7.2.7.2.7v.7c.1,0,.2.8.2.8v.8c0,0,0,.8,0,.8v.8s0,.8,0,.8v.8c-.1,0-.2.8-.2.8l-.2.7-.2.7-.2.7-.3.7-.3.7-.3.7-.4.6-.4.6-.4.6-.5.6-.5.6-.5.5-.5.5-.6.5-.6.5-.6.4-.6.4-.6.4-.7.3-.7.3-.7.3-.7.2-.7.2-.7.2h-.8c0,.1-.8.2-.8.2h-.8c0,0-.8,0-.8,0h-.8s-.8,0-.8,0h-.8c0-.1-.7-.2-.7-.2l-.7-.2-.7-.2-.7-.2-.7-.3-.7-.3-.7-.3-.6-.4-.6-.4-.6-.4-.6-.5-.5-.5-.5-.5-.5-.5-.5-.6-.5-.6-.4-.6-.4-.6-.4-.6-.3-.7-.3-.7-.3-.7-.2-.7-.2-.7-.2-.7v-.8c-.1,0-.2-.8-.2-.8v-.8c0,0,0-.8,0-.8v-.8s0-.8,0-.8v-.8c.1,0,.2-.7.2-.7l.2-.7.2-.7.2-.7.3-.7.3-.7.3-.7.4-.6.4-.6.4-.6.5-.6.5-.5.5-.5.5-.5.5-.5.6-.5.6-.4.6-.4.6-.4.7-.3.7-.3.7-.3.7-.2.7-.2.7-.2h.7c0-.1.8-.2.8-.2h.8c0,0,.8,0,.8,0Z"/>
    </g>
    <g>
      <path class="st3" d="M194.6,46v.4H45.4s0-.4,0-.4h149.2Z"/>
      <path class="st3" d="M66.8,34.8c0,0,.3.4.4.5l2.7,4.5v-5h1v7.2c-.4-.2-1.1,0-1.3-.2-1-1.6-1.8-3.2-2.8-4.8,0,0,0-.2-.2-.2v5.1c-.4,0-.7,0-1.1,0v-7.2c.4,0,1.1,0,1.4,0Z"/>
      <path class="st3" d="M78.6,36.7l1,3.4,1-3.5c.2.2.9,0,1.1,0s.7,3,1,3.4l1-3.4h1s-1.5,5.3-1.5,5.3c-.3-.2-1,0-1.1-.2l-.9-3.6-.9,3.6c-.1.2-.9,0-1.1,0l-1.6-5.2h1.2Z"/>
      <path class="st3" d="M168.3,37.4c0-1.8-2.2-2.3-2.8-.4s-.3,3,.5,3.7,2.2,0,2.3-1.1c.4,0,.8,0,1.1,0s.1,0,.1.1c0,1.2-1.2,2.2-2.3,2.4-4.1.5-4.3-7-.8-7.4s2.4.4,2.9,1.6,0,.9-1,1.1Z"/>
      <path class="st3" d="M52.5,34.8v2.7c.1,0,.1-.2.2-.4.6-.7,1.7-.9,2.4-.3s.5.7.5.9v4.3c-.3-.1-.8-.1-1.2,0v-3.8c0-.7-.8-.9-1.4-.6s-.6.8-.6,1v3.3h-1.2v-7c0-.2,1,0,1.2-.1Z"/>
      <path class="st3" d="M131.2,36.7v3.9c0,.4.7.5,1.1.4s.8-.8.8-1.3v-3h1.2v5.3c-.3-.2-.7,0-1.1,0v-1c-.4,1.2-2.1,1.6-2.9.6s-.3-.6-.3-.8v-4.1h1.2Z"/>
      <path class="st3" d="M50.6,34.8c0,.3,0,1,0,1.1s-1.5-.1-1.8,0v6h-1.4v-6.1c-.3,0-1.7.1-1.8,0-.2-.1,0-.9,0-1.1h5.2Z"/>
      <path class="st3" d="M95.4,42h-1.2v-3.7c0-.4-.5-.7-.9-.6-.9,0-1.1,1.2-1.1,1.9s0,1.7,0,2.5h-1.2v-5.2h1.1v1.2l.7-1c.8-.7,2.1-.4,2.5.6s.2.6.2.6v3.8Z"/>
      <path class="st3" d="M149.5,42h-1.2v-3.7s-.2-.4-.2-.4c-.5-.6-1.4,0-1.6.6s-.1.5-.1.5v3c-.4-.2-.8,0-1.2,0v-5.2h1.1s0,1.1,0,1.1l.7-.9c.8-.7,2.3-.2,2.5.8s0,2.9.1,4.3Z"/>
      <path class="st3" d="M127.6,38s0-.3-.3-.5c-1-.6-2.4.5-1,1s2.8.1,2.6,2-3.5,2-4.4.6-.2-.3,0-.4.9-.2,1-.2.3.4.5.5c.5.3,1.8.2,1.8-.5s-.3-.5-.7-.6c-.8-.2-2-.2-2.4-1.2-.9-2.4,3.3-3.1,4-1.1,0,0-1,.3-1.1.3Z"/>
      <path class="st3" d="M123.8,37.8c-.2,0-.8.2-1,.2s-.2-.4-.4-.5c-.5-.3-1.7-.2-1.5.7s1.8.5,2.3.7c.9.4,1.2,1.4.7,2.2-.7,1.4-3.9,1.3-4.4-.3,0,0,1.1-.3,1.2-.3s0,.2,0,.3c.5.6,2.4.6,2.1-.5s-2.2-.3-2.9-1.2-.3-1.5.2-2c.9-.9,3.3-.7,3.6.7Z"/>
      <path class="st3" d="M182.8,34.8v6h3c.2,0,.1,1,.1,1.2h-4.3s0,.1-.1,0v-7.2h1.3Z"/>
      <path class="st3" d="M87,49.1l1,3.4c.2-.4.8-3.3,1-3.4s1,0,1.1,0c.2.3,0,4,0,4.6,0,.3-.5.1-.7.2v-4.1l-1.3,4.1h-.5s-1.1-4.1-1.1-4.1v4.1c-.1,0-.7,0-.7-.1v-4.8h1.2Z"/>
      <path class="st3" d="M155,38.4c-.2,0-1,.2-1.1.2,0,0,0-.7-.6-.9-2.1-.7-1.9,4.3,0,3.3s.5-.9.6-.9c.1,0,.9.2,1.1,0-.3,1.4-1.4,2.3-2.8,1.9s-2.1-4.1-.5-5.1c1.4-.9,3-.2,3.3,1.4Z"/>
      <path class="st3" d="M188.1,35.2v1.5h1.1s0,.9,0,.9h-1.1v3.1c0,.4.9.4,1.2.4,0,.2.1.9-.1,1-.5.2-1.5.1-1.9-.4s-.3-.6-.3-.7v-3.4c-.1,0-.6,0-.7,0s0-.9,0-.9c0,0,.6,0,.7,0s0-1.2.1-1.3.9,0,1,0Z"/>
      <path class="st3" d="M73.6,54c-.2,0-.7,0-.7-.1,0-.4-.1-3.4,0-3.5s.5,0,.6,0v.5c.4-.7,1.5-.8,1.7,0,.2-.6.9-.8,1.4-.5s.4.4.4.5v3.1c-.2,0-.6.1-.7-.1-.2-.5,0-2,0-2.6s-.5-.5-.7-.2c-.4.5,0,2.2-.2,2.8s-.5.1-.7.1v-2.8c0-.3-.6-.4-.8-.2s-.2.5-.2.5v2.5Z"/>
      <path class="st3" d="M178.7,54c-.2,0-.7,0-.7-.1,0-.4-.1-3.4,0-3.5s.4,0,.6,0v.5c.5-.8,1.4-.8,1.7,0,.2-1,1.8-.8,1.8.1v3c-.1,0-.7,0-.7-.1v-2.7c0-.2-.6-.4-.8,0s0,2.8-.2,2.9-.4,0-.6,0v-2.7c0-.6-1-.5-1,0v2.6Z"/>
      <rect class="st3" x="88.2" y="34.8" width="1.2" height="7.2"/>
      <path class="st3" d="M125.4,54c-.5,0-.4,0-.5-.5-.3.2-.3.4-.7.5-2.5.8-2.8-4.2-1-4.8s2,.2,2.2,1.4c-.1,0-.7.2-.7.2,0,0,0-.8-.6-1-1.5-.5-1.5,3.1-.7,3.6s1.3-.5,1.2-1.2h-.8s0-.6,0-.6h1.6v2.5Z"/>
      <path class="st3" d="M138.4,36.5v1.2c-.6,0-1,.2-1.3.7s-.2.6-.2.6v2.9h-1.2v-5.2s1.1,0,1.1,0c0,.3,0,.6,0,1s0,.2,0,.2c.2-.7.8-1.4,1.6-1.3Z"/>
      <path class="st3" d="M174.1,50.7c-.2,0-.6.2-.7,0s0-.9-.6-1c-1.3-.4-1.2,2.1-1.1,2.9s1,1.2,1.4.4,0-.8.9-.6c.1,1.6-2,2.3-2.8.9s-.7-4,1-4.3,1.8.6,1.9,1.6Z"/>
      <rect class="st3" x="102.5" y="36.7" width="1.2" height="5.2"/>
      <path class="st3" d="M131.7,54c-.2,0-.7,0-.7-.1v-2.7c0-.3-.8-.4-.9.3s.1,2,0,2.4-.5.1-.7.1v-3.7c.1,0,.6,0,.7,0,0,0-.1.5,0,.5.2-.6.8-.7,1.3-.4s.4.4.4.5v3.1Z"/>
      <path class="st3" d="M91,50.4c.2,0,.7,0,.7.1.1.5,0,1.9,0,2.6s.8.5.9-.1,0-2.3,0-2.5.5,0,.7,0v3.7c-.6-.1-.7.3-.7-.5-.2.8-1.7.6-1.7-.1v-3Z"/>
      <path class="st3" d="M169,52.3h-2c0,.5.1,1.3.7,1.2s.5-.7.6-.7c.2,0,.4,0,.6,0,0,1.1-1.4,1.5-2.1.8s-.7-3,.4-3.4,1.9.8,1.8,1.9Z"/>
      <path class="st3" d="M152.4,50.4v2.6c0,.5.6.6.8.4s.2-.5.2-.5v-2.5h.7v3.7h-.7s0-.5,0-.5c-.2.5-1,.7-1.5.4s-.3-.4-.3-.4v-3.1h.7Z"/>
      <path class="st3" d="M145.6,50.4c.1,0,.6,0,.7,0,0,0-.1.5,0,.5.2-.6,1-.7,1.4-.3s.2.4.2.4v3.1h-.7v-2.5s-.1-.4-.1-.5c-.2-.3-.9,0-.9.4v2.6h-.7v-3.7Z"/>
      <path class="st3" d="M49.6,54c-.2,0-.7,0-.7-.1-.2-.6.2-2.4-.1-2.8s-.7-.2-.8.1-.1.5-.1.5v2.3h-.7v-3.7c.2,0,.5,0,.6,0s0,.4.2.4c.2-.6,1-.6,1.4-.3s.3.4.3.5v3Z"/>
      <path class="st3" d="M189.6,50.4c.1,0,.6,0,.7,0,0,0-.1.5,0,.5.2-.6,1-.7,1.4-.3s.2.4.2.4v3.1h-.7v-2.5s-.1-.5-.2-.6c-.2-.2-.6,0-.7.1-.4.5,0,2.2-.1,2.8s-.5.1-.7.1v-3.7Z"/>
      <path class="st3" d="M160.3,50.4c.6,0,.8-.2.7.5.2,0,.2-.3.4-.4.6-.4,1.3,0,1.4.6s0,2.3,0,2.8-.4.1-.7.2v-2.5c0-.5-.5-.8-.8-.4s0,2.2-.2,2.8-.5.1-.7.1v-3.7Z"/>
      <path class="st3" d="M115.1,54h-.7v-2.9c0-.3-.7-.3-.9,0s-.1.4-.1.5v2.4h-.7v-3.7c.4,0,.7,0,.7.4.4-.8,1.7-.5,1.7.4v2.9Z"/>
      <path class="st3" d="M101.8,54h-.7v-2.9c0-.3-.5-.3-.7-.2-.6.3-.2,2.4-.3,2.9s-.5,0-.7.1v-3.7c.4,0,.7,0,.7.4.4-.8,1.7-.5,1.7.4v2.9Z"/>
      <path class="st3" d="M193.7,52.8c.1,0,.1-.1.1-.2,0-.3.4-2.1.5-2.2s.6,0,.7.1l-1.3,4.3c-.3.5-.7.6-1.2.5v-.7c.6.2.8-.3.8-.8l-.9-3.5c.2,0,.6,0,.7,0,.2.3.4,1.9.5,2.3Z"/>
      <path class="st3" d="M62.3,51.3c-.8.3-.5-.2-.9-.4s-.7,0-.7.4,1.3.5,1.6,1.2c.7,1.6-2.3,2.3-2.5.5.9-.3.6.2.9.4s1,.2,1-.3-1.2-.5-1.6-1.2c-.8-1.5,1.9-2.4,2.2-.6Z"/>
      <path class="st3" d="M149.5,51.6c0,.1.9.3,1.1.5,1.4.8.2,2.5-1.3,1.9s-.9-1.2,0-1,.1.6.7.6.6-.1.6-.5c0-.7-1.9-.5-1.7-1.7s1.9-1.4,2.3-.2c-.6.5-.6-.1-.9-.2-.6-.3-.9.4-.6.7Z"/>
      <path class="st3" d="M165.9,51.6c-.1,0-.6.1-.7,0s0-.7-.4-.8c-.9-.2-1,2.3-.3,2.5s.6-.7.7-.7c1.1-.2.6,1,0,1.3-2.2,1-2.5-3.5-.7-3.7s1.4.5,1.4,1.3Z"/>
      <path class="st3" d="M106,51s-.4,0-.4,0,0-.6,0-.7.4,0,.4,0,0-.9,0-.9.5,0,.6,0c.2.1,0,.9,0,1,0,0,.8-.3.7.5s-.6.1-.7.2,0,2.2,0,2.3c.1.2.7.1.7.2s0,.5,0,.5-.4.1-.5.1c-.4,0-1-.3-1-.8s0-2.2,0-2.3Z"/>
      <path class="st3" d="M95.9,51s-.4,0-.4,0,0-.6,0-.7.5,0,.5,0,0-.9,0-.9.5,0,.7,0c0,.2,0,1,0,1s.5,0,.7,0c.2,1-.6.6-.7.7s0,2.2,0,2.3c.1.2.7.1.7.2s0,.5,0,.5c0,.2-1.1.2-1.4-.3s-.1-.5-.1-.5c0-.3,0-2.1,0-2.1Z"/>
      <path class="st3" d="M143.9,49.1c.2,0,.5,0,.7,0,.3.1,0,1.4,0,1.7,0,1.1,0,2.1,0,3.2h-.8v-4.9Z"/>
      <rect class="st3" x="45.5" y="49.1" width=".7" height="4.9"/>
      <path class="st3" d="M119.9,49.1v4.9c-.1,0-.7,0-.7-.1v-4.8h.7Z"/>
      <path class="st3" d="M95,49.1v4.9c-.2,0-.6,0-.7,0-.2-.3,0-4,0-4.6,0-.3.5-.2.7-.2Z"/>
      <path class="st3" d="M141.8,49.1v4.8c0,.2-.6,0-.7.1v-4.9h.7Z"/>
      <path class="st3" d="M154.9,50.4h.7s0,.7,0,.7c.2-.4.5-.7,1-.7,0,.1,0,.7,0,.7,0,0-.9,0-.9.6v2.3h-.7v-3.7Z"/>
      <path class="st3" d="M68.6,54c-.2,0-.6.1-.7-.1v-3.4c0-.2.5-.1.7-.1v.7s.5-.7.5-.7l.4-.2c.2,0,.2.8.1.8s-.4,0-.6.1-.3.5-.3.6v2.2Z"/>
      <path class="st3" d="M135.7,50.4c.6,0,.7,0,.7.7.1,0,.1-.2.2-.4.2-.3.7-.6.8,0,0,.9-.2.4-.6.6-.6.4,0,2.2-.3,2.7s-.6,0-.7,0v-3.7Z"/>
      <path class="st3" d="M82.6,50.4c.6,0,.8,0,.6.7.3,0,.2-.3.4-.5s.7-.4.7,0c0,.9-.2.4-.6.6s0,2.4-.3,2.7-.5,0-.7,0v-3.7Z"/>
      <path class="st3" d="M78.6,50.4v3.5c0,.2-.7.2-.7,0v-3.5h.7Z"/>
      <path class="st3" d="M108.5,50.4v3.7c-.2,0-.6,0-.7,0-.2-.2,0-2.9,0-3.5,0-.2.5-.1.7-.1Z"/>
      <rect class="st3" x="97.8" y="50.4" width=".7" height="3.7"/>
      <rect class="st3" x="53.8" y="50.4" width=".7" height="3.7"/>
      <path class="st3" d="M177.3,40.6v1.3c-.4,0-.9,0-1.2,0v-1.4h1.2Z"/>
      <path class="st3" d="M103.8,34.8v1.2h-1.2c0-.3,0-1,0-1.2s1,0,1.2,0Z"/>
      <path class="st3" d="M59.4,49.1c.2.2-.1,2-.7,1.8l.3-.9c0-.1-.3,0-.3,0s0-.8,0-.9h.8Z"/>
      <path class="st3" d="M54.6,49.1c0,.7,0,1-.8.8-.3-.8,0-.9.8-.8Z"/>
      <path class="st3" d="M98.5,49.1c0,.7,0,1-.8.8-.3-.8,0-.9.8-.8Z"/>
      <rect class="st3" x="107.8" y="49.1" width=".8" height=".8"/>
      <rect class="st3" x="77.9" y="49.1" width=".8" height=".8"/>
      <path class="st3" d="M117,34.9c-.2-.2-1.3,0-1.6,0l-2.4,7.2c.4,0,.7,0,1.1,0l.5-1.7c.4,0,2.7,0,2.8,0l.5,1.6h1.4l-2.4-7.1ZM115.2,39.2s0,.1-.2,0c.3-.9.5-2,.9-2.8,0,0,0-.2.2-.2l.9,3.1h-1.8Z"/>
      <path class="st3" d="M193.4,34.8v2.5c-.5-.6-.9-.9-1.8-.8-2.2.3-2.3,4.7-.5,5.5,1,.4,1.9,0,2.3-1v1s1.1,0,1.1,0v-7.2h-1.2ZM192.4,41.1c-1.5.3-1.6-2.7-.8-3.4.6-.5,1.5-.2,1.7.5.3.8.2,2.6-.9,2.8Z"/>
      <path class="st3" d="M100,34.8v2.5l-.6-.6c-3.5-1.5-3.9,5.5-.9,5.5.8,0,1.1-.5,1.5-1.1v.9c.4,0,.7,0,1.1,0v-7.2h-1.2ZM100,39.8c-.1,1.6-2,1.8-2.2,0,0-.8,0-2.3,1.1-2.3,1.2-.1,1.3,1.5,1.2,2.4Z"/>
      <path class="st3" d="M109.6,38.7c0-.5,0-1.2-.4-1.6-.9-1-4.1-.7-4.2,1,.3,0,.7.2.9,0,.1,0,.2-.4.5-.6.9-.4,2.1-.1,1.9,1-1.3,0-3.6,0-3.6,1.9,0,1.4,1.4,1.9,2.6,1.4.5-.2.6-.5,1-.9,0,.1,0,.9,0,.9,0,0,1,0,1.2,0-.2-1.1,0-2.3,0-3.4ZM107.4,41.2c-.7.2-1.4-.2-1.2-1,.1-.8,1.7-.9,2.3-.9,0,.8-.2,1.7-1.1,1.9Z"/>
      <path class="st3" d="M142.7,36.7c-1.1-.4-3.1-.2-3.5,1.2,0,0-.1.1,0,.2,0,0,.9.2,1,.1,0,0,0-.5.6-.7.9-.3,2,0,1.8,1.1-1,0-3,0-3.4,1.2-.8,1.8,1.5,3,2.9,1.9l.5-.8c0,.2,0,.9.2,1,.2.1.9,0,1.2,0-.6-1.4.7-4.7-1.2-5.3ZM142,40.9c-.6.5-1.9.4-1.8-.6,0-1,1.6-1.1,2.3-1,0,.6,0,1.2-.5,1.6Z"/>
      <path class="st3" d="M75.1,41.1c-1.2.4-1.9-.5-1.8-1.6h3.7c0-4.5-6-3.4-4.8.9.6,2.3,4,2.3,4.6,0,0,0-1-.2-1-.2,0,0-.2.6-.7.8ZM75.7,38.7h-2.4c.1-1.7,2.3-1.7,2.4,0Z"/>
      <path class="st3" d="M156.9,39.5h3.6c.2-4-5.2-3.8-4.8.3.2,2.8,3.8,3.2,4.8.7l-1-.2c-.7,1.6-2.8.9-2.5-.8ZM159.2,38.7h-2.3c0-1.7,2.4-1.7,2.3,0Z"/>
      <path class="st3" d="M59.8,41.1c-1.2.4-1.9-.5-1.8-1.6h3.7c0-4.6-6-3.4-4.7,1,.6,2.3,3.9,2.3,4.7,0-.2,0-.9-.2-1-.2-.1,0-.3.6-.7.8ZM60.4,38.7h-2.4c.2-1.7,2.3-1.7,2.4,0Z"/>
      <path class="st3" d="M172.3,36.6c-3.5.4-2.6,6.6,1.1,5.4,2.6-.9,2-5.8-1.1-5.4ZM173.8,39.8c-.2,1.8-2.2,1.7-2.3,0,0-.8,0-2.2,1-2.4,1.3-.2,1.4,1.3,1.4,2.3Z"/>
      <path class="st3" d="M53,49.3c0-.3-.5-.2-.8-.2v1.7c-.1,0-.1-.2-.2-.3,0,0-.2-.1-.3-.1-1.9-.3-1.8,3.2-.8,3.6.5.2,1.1,0,1.4-.4v.5c.1,0,.5,0,.6,0,.2-.3,0-4,0-4.6ZM51.9,53.4c-1,.9-1.4-2.3-.4-2.5.9-.1.9,2.1.4,2.5Z"/>
      <path class="st3" d="M66,49.1c-.5,0-1.1,0-1.6,0v4.9h.7v-1.9c.9,0,1.7,0,2-.9.3-.9-.1-2-1.2-2.1ZM65.1,51.5v-1.7c.4.2.9,0,1.2.4.5.9-.2,1.6-1.2,1.4Z"/>
      <path class="st3" d="M185.3,50.8c-.4-.6-1.4-.6-1.7.2-.1,0,0-.5,0-.6,0,0-.5,0-.7,0v4.8h.7v-1.5c1.8,1.4,2.4-1.8,1.6-2.9ZM183.8,53.3c-.2-.2-.2-1.5-.2-1.8,0-.4.5-.9.9-.5.6.5.3,3.3-.7,2.3Z"/>
      <path class="st3" d="M140.1,50.8c-.5-.9-2.4-.5-2.4.6.2,0,.5,0,.7,0,.1,0,0-.6.7-.5.4,0,.3.6.3.9-.8,0-1.8.2-1.9,1.2,0,1,1,1.5,1.7.8.1-.1,0-.3.2-.3,0,.7.2.6.8.6-.3-.8.2-2.5-.2-3.2ZM139.4,52.8c-.1.8-1.1,1.1-1.1,0,0-.7.6-.7,1.1-.7,0,.2,0,.4,0,.6Z"/>
      <path class="st3" d="M57.8,53.4c0-.6.1-2.2-.2-2.7-.4-.6-1.4-.6-2-.1-.2.2-.6.7-.2.8.8.1.4-.3.8-.5.7-.3.8.3.7.9-1.1,0-2.1.4-1.8,1.7.1.6.9.8,1.4.5.2-.1.3-.4.5-.5,0,.1,0,.5,0,.5,0,0,.5,0,.5,0,.2-.1,0-.4,0-.6ZM56.9,53.2c-.3.4-.9.4-.9-.2,0-.7.5-.9,1.1-.9,0,.3,0,.7-.2,1Z"/>
      <path class="st3" d="M188.8,51.2c-.1-1-1.3-1.2-2-.7-.2.1-.6.7-.4.8,0,0,.5,0,.6,0,.1,0,0-.6.7-.5.4,0,.6.8.3.9-.7.1-1.6,0-1.7,1-.1,1.4,1.1,1.6,1.9.7,0,.6.2.5.8.5-.2-.9,0-1.9,0-2.8ZM188,52.9c-.1.7-1.1,1-1.1,0,0-.7.5-.8,1.1-.8,0,.2,0,.5,0,.7Z"/>
      <path class="st3" d="M105,50.9c-.6-1-2.1-.7-2.4.4,0,0,.7.2.7.2,0,0,0-.5.5-.6.6,0,.6.5.6.9-1.1,0-2.1.3-1.9,1.5.1.7.9.9,1.5.6.2-.1.2-.3.4-.4,0,.6.1.5.8.5v-3.1ZM103.3,53.4c-.2-.2-.1-.7,0-.9.1-.1.8-.4.9-.3.4.3-.4,1.8-1,1.2Z"/>
      <path class="st3" d="M118.4,52.9c0-.6.2-1.9-.2-2.3-.6-.7-2.3-.4-2.2.7.2,0,.6.1.7,0,0,0,0-.3.2-.5.6-.5,1,.2.9.8-1.1,0-2.1.3-1.9,1.5.1.7,1,1,1.6.6.2-.1.2-.4.4-.4,0,.7,0,.5.7.5,0-.4,0-.8,0-1.1ZM117.3,53.4c-.6.5-1.2-.6-.5-1,1.1-.7,1,.7.5,1Z"/>
      <path class="st3" d="M159.2,50.6c-.5-.6-2.2-.4-2.3.6,0,.1.6.2.7.1,0,0,0-.4.3-.5.6-.2.7.3.8.8,0,.2-.5.1-.7.1-2.4.4-1,3.6.7,1.7,0,.6.2.5.8.5-.3-.7.2-2.9-.3-3.4ZM157.7,53.4c-.2-.2-.1-.7,0-.9.1-.2.8-.5,1-.3.3.2-.4,1.8-1,1.2Z"/>
      <path class="st3" d="M112,51.7c0-.8-.6-1.4-1.5-1.4-2,.2-1.5,4.8.9,3.6.7-.4.7-1.5.7-2.3ZM110.2,53.4c-.3-.3-.3-1.5-.2-1.9,0-.4.5-.9.9-.5.6.5.3,3.4-.7,2.4Z"/>
      <path class="st3" d="M176,50.3c-.3,0-.8.1-1.1.3-.7.7-.6,2.9.4,3.3,2.2,1,2.7-3.5.7-3.7ZM176.4,53.1c-.1.3-.6.6-.9.3-.4-.4-.4-2.6.3-2.6.8,0,.7,1.7.5,2.3Z"/>
      <path class="st3" d="M133.6,53.5c-.5-.2-.5-.8-.5-1.2h2c0-2.9-3.1-2.5-2.7.4.2,1.7,2.3,2,2.7.3-.2,0-.4-.1-.6,0,0,0-.1.9-.8.6ZM134.4,51.8h-1.2c0-1.2,1.3-1.3,1.2,0Z"/>
      <path class="st3" d="M80.5,53.5c-.5-.1-.5-.8-.5-1.2h2c0-2.9-3.1-2.5-2.7.4.2,1.8,2.3,2,2.7.3-.2,0-.4-.1-.6,0,0,0,0,.8-.8.6ZM81.3,51.8h-1.2c0-1.2,1.2-1.3,1.2,0Z"/>
      <path class="st3" d="M168.3,51.8h-1.2c0-1.2,1.3-1.3,1.2,0Z"/>
      <path class="st3" d="M127.2,53.5c-.5-.1-.5-.8-.5-1.2h2c0-.9-.3-2-1.4-2-1.6,0-1.8,2.9-.7,3.6.9.6,1.9,0,2-.9-.2,0-.4-.1-.6,0,0,0-.1.8-.8.6ZM127.9,51.8h-1.2c0-1.2,1.3-1.3,1.2,0Z"/>
      <path class="st3" d="M72.3,52.3c.2-1.2-.7-2.5-2-1.8-.7.4-.8,1.4-.7,2.1.2,1.7,2.2,1.9,2.7.4,0-.2-.5-.2-.6-.2-.1,0-.1.8-.8.7-.5-.1-.5-.8-.5-1.2h1.9ZM71.6,51.8h-1.2c0-1.2,1.3-1.3,1.2,0Z"/>
    </g>
  </g>
</svg>